<?xml version="1.0" encoding="utf-8"?>
<!-- Generator: Adobe Illustrator 24.1.2, SVG Export Plug-In . SVG Version: 6.00 Build 0)  -->
<svg version="1.1" id="Layer_1" xmlns="http://www.w3.org/2000/svg" xmlns:xlink="http://www.w3.org/1999/xlink" x="0px" y="0px"
	 viewBox="0 0 64 64" style="enable-background:new 0 0 64 64;" xml:space="preserve">
<style type="text/css">
	.st0{fill:url(#SVGID_1_);}
	.st1{fill:#FFFFFF;}
</style>
<linearGradient id="SVGID_1_" gradientUnits="userSpaceOnUse" x1="32" y1="2" x2="32" y2="62">
	<stop  offset="0" style="stop-color:#FF9900"/>
	<stop  offset="0.2875" style="stop-color:#FF9500"/>
	<stop  offset="0.5853" style="stop-color:#FF8800"/>
	<stop  offset="0.8868" style="stop-color:#FF7400"/>
	<stop  offset="1" style="stop-color:#FF6A00"/>
</linearGradient>
<circle class="st0" cx="32" cy="32" r="30"/>
<path class="st1" d="M30.24,42.45L37.35,35c1.78-1.89,3.04-3.61,3.8-5.15c0.75-1.54,1.13-3.24,1.13-5.1c0-1.78-0.44-3.32-1.31-4.64
	c-0.87-1.32-2.12-2.33-3.75-3.04C35.59,16.35,33.69,16,31.53,16c-2.04,0-4.06,0.32-6.04,0.95c-1.98,0.64-3.61,1.5-4.88,2.6
	l2.22,4.97c1.42-1.01,2.84-1.77,4.24-2.28c1.4-0.52,2.77-0.78,4.1-0.78c1.39,0,2.46,0.31,3.2,0.93c0.74,0.62,1.11,1.55,1.11,2.8
	c0,1.04-0.27,2.08-0.82,3.13c-0.55,1.05-1.37,2.18-2.46,3.4L21.68,42.9V48h21.7v-5.55H30.24z"/>
</svg>
