<svg width="1051" height="723" viewBox="0 0 1051 723" fill="none" xmlns="http://www.w3.org/2000/svg">
<g clip-path="url(#clip0_309_1544)">
<path d="M803.2 0L0 28.0421L16.8253 509.974L820.026 481.931L803.2 0Z" fill="url(#paint0_linear_309_1544)"/>
<path d="M404.404 94.3525L16.8252 509.974L820.026 481.932L404.404 94.3525Z" fill="#B9BFC1"/>
<path d="M404.965 110.411L16.8252 509.974L820.026 481.932L404.965 110.411Z" fill="url(#paint1_linear_309_1544)"/>
<path d="M471.93 251.22L473.986 309.846L803.2 0L0 28.0421L345.479 310.445L343.572 255.688L471.948 251.201L471.93 251.22Z" fill="#99A8AE"/>
<path d="M395.599 337.515L0 28.0421L803.2 0L430.147 336.3C420.388 344.955 405.937 345.46 395.618 337.515H395.599Z" fill="url(#paint2_linear_309_1544)"/>
<path d="M395.599 337.515L0 28.0421L803.2 0L430.147 336.3C420.388 344.955 405.937 345.46 395.618 337.515H395.599Z" fill="url(#paint3_linear_309_1544)"/>
<path d="M406.779 162.943C356.714 87.6033 226.674 122.245 230.057 218.952C232.32 283.823 294.293 325.12 415.64 416.78C530.295 316.875 589.277 271.354 587.015 206.483C583.631 109.775 451.478 84.2943 406.779 162.943Z" fill="url(#paint4_linear_309_1544)"/>
<path d="M513.525 448.281C585.837 520.555 703.034 520.592 775.345 448.281C847.638 375.97 847.656 258.754 775.345 186.461C703.034 114.15 585.799 114.15 513.507 186.461C441.195 258.773 441.214 375.989 513.507 448.3L513.525 448.281Z" fill="url(#paint5_linear_309_1544)"/>
<path opacity="0.5" d="M772.821 188.985C701.912 118.076 586.94 118.094 516.049 188.985C445.14 259.931 445.159 374.867 516.049 445.757C586.958 516.647 701.856 516.685 772.784 445.757C843.674 374.848 843.674 259.931 772.784 189.004L772.821 188.985ZM764.035 436.989C697.949 503.075 590.866 503.056 524.798 436.989C458.787 370.922 458.75 263.82 524.798 197.715C590.847 131.704 698.005 131.686 764.035 197.715C830.102 263.764 830.083 370.922 764.035 436.971V436.989Z" fill="url(#paint6_linear_309_1544)"/>
<path d="M761.586 434.521C826.289 369.8 826.307 264.886 761.586 200.183C696.865 135.462 591.931 135.481 527.229 200.146C462.527 264.886 462.545 369.782 527.266 434.521C591.969 499.224 696.884 499.224 761.568 434.521H761.586Z" fill="url(#paint7_radial_309_1544)"/>
<path d="M681.946 370.885C737.787 328.691 754.613 256.903 719.541 210.689C684.508 164.327 610.869 161.018 555.121 203.268C499.28 245.443 482.436 317.231 517.507 363.556C552.56 409.901 626.236 413.172 681.965 370.903L681.946 370.885Z" fill="url(#paint8_radial_309_1544)"/>
<path d="M799.947 431.792L837 468.864L815.389 490.512L778.299 453.459L799.947 431.792Z" fill="url(#paint9_linear_309_1544)"/>
<path d="M808.734 489.11C805.537 485.895 832.401 459.012 835.617 462.227L840.795 467.387C844.011 470.584 817.128 497.486 813.912 494.27L808.734 489.11Z" fill="url(#paint10_linear_309_1544)"/>
<path d="M861.715 475.668L822.157 515.227C822.157 515.227 819.484 512.553 813.408 495.317C811.426 489.671 836.122 464.938 841.768 466.919C859.023 472.976 861.696 475.65 861.696 475.65L861.715 475.668Z" fill="url(#paint11_linear_309_1544)"/>
<path d="M982.988 596.923C995.775 609.691 956.217 649.249 943.43 636.481C917.313 610.364 844.965 538.034 822.419 515.47C817.932 510.983 857.453 471.406 861.939 475.893C884.298 498.252 955.077 569.011 982.988 596.941V596.923Z" fill="url(#paint12_linear_309_1544)"/>
<path d="M794.208 420.819C794.208 420.819 802.135 428.745 804.752 431.362C807.967 434.597 781.084 461.48 777.869 458.264L767.325 447.72C764.11 444.505 790.993 417.622 794.208 420.837V420.819Z" fill="url(#paint13_linear_309_1544)"/>
<path d="M790.862 424.183L801.406 434.727L802.883 433.25L792.339 422.707L790.862 424.183Z" fill="#737E80"/>
<path d="M787.703 428.502L798.246 439.046L799.723 437.569L789.18 427.025L787.703 428.502Z" fill="#737E80"/>
<path d="M784.487 432.708L795.031 443.271L796.508 441.794L785.964 431.231L784.487 432.708Z" fill="#737E80"/>
<path d="M780.767 436.447L791.31 447.01L792.787 445.533L782.243 434.97L780.767 436.447Z" fill="#737E80"/>
<path d="M777.046 440.186L787.59 450.749L789.067 449.272L778.523 438.709L777.046 440.186Z" fill="#737E80"/>
<path d="M772.766 443.42L783.309 453.964L784.805 452.469L774.261 441.925L772.766 443.42Z" fill="#737E80"/>
<path d="M768.466 446.561L779.028 457.105L780.505 455.628L769.943 445.084L768.466 446.561Z" fill="#737E80"/>
<path d="M761.586 434.521C826.289 369.8 826.307 264.886 761.586 200.183C696.865 135.462 591.931 135.481 527.229 200.146C462.527 264.886 462.545 369.782 527.266 434.521C591.969 499.224 696.884 499.224 761.568 434.521H761.586Z" fill="url(#paint14_radial_309_1544)"/>
<path d="M595.4 248.05C598.633 247.217 600.25 245.033 600.25 241.5C600.25 237.967 598.633 235.783 595.4 234.95C595.133 234.883 595 234.983 595 235.25V247.5V247.75C595 248.017 595.133 248.117 595.4 248.05ZM595.45 226.2C600.117 226.767 603.667 228.333 606.1 230.9C608.533 233.467 609.75 237 609.75 241.5C609.75 246.2 608.417 249.85 605.75 252.45C603.117 255.05 599.25 256.533 594.15 256.9C593.883 256.9 593.7 257.033 593.6 257.3C592.267 260.933 589.433 263.667 585.1 265.5C584.333 265.8 583.567 265.8 582.8 265.5C582.067 265.233 581.5 264.75 581.1 264.05L579.65 261.45C579.283 260.783 579.217 260.117 579.45 259.45C579.717 258.75 580.183 258.217 580.85 257.85C581.983 257.25 582.833 256.65 583.4 256.05C583.6 255.85 583.55 255.683 583.25 255.55C581.583 254.917 579.967 254.017 578.4 252.85C577.767 252.383 577.4 251.733 577.3 250.9C577.233 250.067 577.45 249.333 577.95 248.7L579.55 246.55C579.983 245.95 580.583 245.6 581.35 245.5C582.15 245.4 582.85 245.567 583.45 246C584.15 246.467 584.767 246.833 585.3 247.1C585.4 247.133 585.5 247.133 585.6 247.1C585.7 247.033 585.75 246.95 585.75 246.85V236C585.75 235.9 585.717 235.817 585.65 235.75C585.583 235.683 585.5 235.667 585.4 235.7C582.233 237 579.617 239.217 577.55 242.35C575.483 245.483 574.25 249.25 573.85 253.65C573.783 254.45 573.467 255.133 572.9 255.7C572.333 256.233 571.667 256.5 570.9 256.5H568.35C567.583 256.5 566.917 256.217 566.35 255.65C565.783 255.083 565.5 254.417 565.5 253.65V229.35C565.5 228.583 565.783 227.917 566.35 227.35C566.917 226.783 567.583 226.5 568.35 226.5H571.15C571.917 226.5 572.583 226.783 573.15 227.35C573.717 227.917 574 228.583 574 229.35V234.45C574 234.483 574.017 234.5 574.05 234.5C574.117 234.5 574.15 234.483 574.15 234.45C577.017 230.75 580.733 228.233 585.3 226.9C585.6 226.833 585.75 226.65 585.75 226.35V224.35C585.75 223.583 586.033 222.917 586.6 222.35C587.167 221.783 587.833 221.5 588.6 221.5H592.15C592.917 221.5 593.583 221.783 594.15 222.35C594.717 222.917 595 223.583 595 224.35V225.75C595 225.983 595.15 226.133 595.45 226.2ZM642.25 235.5C647.45 235.5 651.417 236.517 654.15 238.55C656.883 240.583 658.25 243.4 658.25 247C658.25 257.1 649.533 263.017 632.1 264.75C631.3 264.817 630.583 264.6 629.95 264.1C629.35 263.633 628.983 263 628.85 262.2L628.4 259.55C628.267 258.783 628.433 258.1 628.9 257.5C629.4 256.867 630.033 256.5 630.8 256.4C637.233 255.567 641.833 254.417 644.6 252.95C647.367 251.45 648.75 249.633 648.75 247.5C648.75 246.333 648.217 245.467 647.15 244.9C646.083 244.3 644.283 244 641.75 244C637.817 244 631.733 244.883 623.5 246.65C622.733 246.817 622.017 246.7 621.35 246.3C620.683 245.867 620.267 245.267 620.1 244.5L619.4 241.75C619.233 240.983 619.35 240.267 619.75 239.6C620.15 238.9 620.733 238.467 621.5 238.3C629.367 236.433 636.283 235.5 642.25 235.5ZM629.6 222.8C636.133 223.467 642.417 223.85 648.45 223.95C649.217 223.983 649.867 224.283 650.4 224.85C650.967 225.417 651.25 226.083 651.25 226.85V229.65C651.25 230.45 650.95 231.133 650.35 231.7C649.783 232.233 649.117 232.483 648.35 232.45C641.85 232.283 635.267 231.833 628.6 231.1C627.833 231.033 627.2 230.683 626.7 230.05C626.2 229.417 626 228.717 626.1 227.95L626.4 225.3C626.5 224.533 626.867 223.917 627.5 223.45C628.133 222.95 628.833 222.733 629.6 222.8ZM707.55 234.9C708.317 234.867 708.983 235.117 709.55 235.65C710.15 236.183 710.467 236.833 710.5 237.6L710.55 239.4C710.583 240.167 710.333 240.85 709.8 241.45C709.267 242.05 708.617 242.367 707.85 242.4C706.65 242.467 704.85 242.533 702.45 242.6C702.15 242.6 702.067 242.733 702.2 243C703 244.633 703.75 246.017 704.45 247.15C704.817 247.783 704.9 248.45 704.7 249.15C704.5 249.85 704.067 250.333 703.4 250.6L699.1 252.4C697.433 253.1 695.683 253.167 693.85 252.6C691.617 251.867 689.5 251.5 687.5 251.5C683.5 251.5 681.5 252.333 681.5 254C681.5 255.133 682.25 255.967 683.75 256.5C685.25 257 688 257.25 692 257.25C694.3 257.25 697.35 257.033 701.15 256.6C701.917 256.5 702.617 256.7 703.25 257.2C703.883 257.667 704.25 258.283 704.35 259.05L704.65 261.2C704.75 261.967 704.55 262.667 704.05 263.3C703.583 263.933 702.967 264.3 702.2 264.4C698.733 264.8 695.333 265 692 265C685.1 265 680.033 264.067 676.8 262.2C673.6 260.367 672 257.633 672 254C672 251.067 673.317 248.75 675.95 247.05C678.583 245.35 682.433 244.5 687.5 244.5C689.667 244.5 691.633 244.667 693.4 245H693.5V244.9C693.433 244.7 693.317 244.433 693.15 244.1C692.983 243.767 692.867 243.5 692.8 243.3C692.667 243.033 692.483 242.9 692.25 242.9C686.317 243.067 679.65 243.183 672.25 243.25C671.45 243.25 670.767 242.967 670.2 242.4C669.667 241.833 669.4 241.167 669.4 240.4V238.6C669.4 237.833 669.667 237.167 670.2 236.6C670.767 236.033 671.433 235.75 672.2 235.75C677.367 235.75 683.2 235.667 689.7 235.5C689.967 235.5 690.067 235.35 690 235.05C689.967 234.917 689.917 234.717 689.85 234.45C689.783 234.15 689.733 233.933 689.7 233.8C689.633 233.533 689.45 233.4 689.15 233.4C681.15 233.567 676.367 233.65 674.8 233.65C674 233.65 673.317 233.383 672.75 232.85C672.183 232.283 671.9 231.6 671.9 230.8V229C671.9 228.233 672.183 227.567 672.75 227C673.317 226.433 673.983 226.15 674.75 226.15C677.65 226.15 682.033 226.083 687.9 225.95C688.233 225.95 688.367 225.817 688.3 225.55C688.3 225.45 688.283 225.3 688.25 225.1C688.217 224.867 688.2 224.7 688.2 224.6C688.133 223.833 688.35 223.167 688.85 222.6C689.383 222 690.05 221.667 690.85 221.6L694.15 221.4C694.917 221.367 695.583 221.617 696.15 222.15C696.75 222.65 697.083 223.3 697.15 224.1C697.183 224.233 697.2 224.433 697.2 224.7C697.2 224.933 697.217 225.117 697.25 225.25C697.25 225.517 697.4 225.65 697.7 225.65C701.433 225.517 704.217 225.4 706.05 225.3C706.817 225.267 707.483 225.517 708.05 226.05C708.65 226.583 708.967 227.233 709 228L709.05 229.8C709.083 230.567 708.833 231.25 708.3 231.85C707.767 232.45 707.117 232.767 706.35 232.8C704.75 232.867 702.317 232.967 699.05 233.1C698.783 233.1 698.683 233.25 698.75 233.55C698.783 233.717 698.833 233.95 698.9 234.25C699 234.517 699.067 234.7 699.1 234.8C699.167 235.067 699.333 235.2 699.6 235.2L707.55 234.9Z" fill="#DEE6E4"/>
<path d="M639.6 326.35L640.9 328.15C641.4 328.817 641.6 329.567 641.5 330.4C641.4 331.233 641.033 331.917 640.4 332.45C637.067 335.15 633.85 336.5 630.75 336.5C627.983 336.5 625.95 335.617 624.65 333.85C623.383 332.05 622.75 328.933 622.75 324.5C622.75 322.733 623 320.817 623.5 318.75C624 316.55 624.25 314.633 624.25 313C624.25 310.667 623.833 309.5 623 309.5C622.767 309.5 622.467 309.617 622.1 309.85C621.767 310.083 621.05 310.7 619.95 311.7C618.883 312.7 617.183 314.317 614.85 316.55C614.617 316.783 614.5 317.033 614.5 317.3V335.65C614.5 336.417 614.217 337.083 613.65 337.65C613.083 338.217 612.417 338.5 611.65 338.5H608.35C607.583 338.5 606.917 338.217 606.35 337.65C605.783 337.083 605.5 336.417 605.5 335.65V326.05C605.5 325.983 605.467 325.933 605.4 325.9C605.333 325.833 605.267 325.833 605.2 325.9C604.533 326.533 603.483 327.567 602.05 329C601.483 329.533 600.8 329.8 600 329.8C599.2 329.8 598.533 329.533 598 329L596 327C595.467 326.467 595.2 325.817 595.2 325.05C595.2 324.283 595.467 323.617 596 323.05C598.667 320.383 601.733 317.35 605.2 313.95C605.4 313.75 605.5 313.517 605.5 313.25V309.9C605.5 309.633 605.35 309.5 605.05 309.5H598.35C597.583 309.5 596.917 309.217 596.35 308.65C595.783 308.083 595.5 307.417 595.5 306.65V304.35C595.5 303.583 595.783 302.917 596.35 302.35C596.917 301.783 597.583 301.5 598.35 301.5H605.05C605.35 301.5 605.5 301.35 605.5 301.05V297.85C605.5 297.083 605.783 296.417 606.35 295.85C606.917 295.283 607.583 295 608.35 295H611.65C612.417 295 613.083 295.283 613.65 295.85C614.217 296.417 614.5 297.083 614.5 297.85V304.8C614.5 304.867 614.533 304.917 614.6 304.95C614.7 304.983 614.783 304.983 614.85 304.95C617.45 302.717 619.4 301.333 620.7 300.8C622 300.267 623.6 300 625.5 300C628.467 300 630.583 300.85 631.85 302.55C633.117 304.25 633.75 307.4 633.75 312C633.75 313.633 633.5 315.55 633 317.75C632.5 319.817 632.25 321.733 632.25 323.5C632.25 325.833 632.667 327 633.5 327C633.967 327 634.733 326.6 635.8 325.8C636.4 325.333 637.067 325.15 637.8 325.25C638.567 325.35 639.167 325.717 639.6 326.35ZM689.65 320.25C690.417 320.45 691 320.9 691.4 321.6C691.8 322.267 691.883 322.967 691.65 323.7C690.117 329 688.433 332.633 686.6 334.6C684.8 336.533 682.483 337.5 679.65 337.5C676.517 337.5 674.117 336.633 672.45 334.9C670.817 333.133 669.7 330.15 669.1 325.95C668.867 324.183 668.6 323 668.3 322.4C668 321.8 667.617 321.5 667.15 321.5C665.983 321.5 664.667 322.533 663.2 324.6C661.767 326.667 659.867 330.433 657.5 335.9C657.167 336.633 656.633 337.15 655.9 337.45C655.2 337.783 654.483 337.817 653.75 337.55L650.55 336.45C649.817 336.217 649.283 335.733 648.95 335C648.65 334.3 648.633 333.583 648.9 332.85C654.033 319.45 658.683 307.533 662.85 297.1C663.15 296.367 663.667 295.833 664.4 295.5C665.133 295.133 665.883 295.067 666.65 295.3L669.9 296.2C670.633 296.4 671.167 296.85 671.5 297.55C671.833 298.25 671.867 298.95 671.6 299.65C668.233 308.25 666.5 312.667 666.4 312.9V313H666.55C668.15 312.333 669.433 312 670.4 312C672.7 312 674.433 312.8 675.6 314.4C676.767 316 677.55 318.833 677.95 322.9C678.15 324.933 678.4 326.3 678.7 327C679 327.667 679.4 328 679.9 328C680.967 328 682.133 325.833 683.4 321.5C683.633 320.733 684.083 320.167 684.75 319.8C685.45 319.4 686.167 319.3 686.9 319.5L689.65 320.25Z" fill="#DEE6E4"/>
<path d="M604.2 383.5C605 383.5 605.683 383.783 606.25 384.35C606.817 384.883 607.1 385.55 607.1 386.35V388.4C607.1 389.167 606.817 389.833 606.25 390.4C605.717 390.967 605.067 391.25 604.3 391.25C600 391.283 595.05 391.533 589.45 392C588.683 392.067 588 391.85 587.4 391.35C586.8 390.817 586.467 390.167 586.4 389.4L586.3 387.35C586.233 386.55 586.45 385.85 586.95 385.25C587.483 384.65 588.15 384.317 588.95 384.25C594.717 383.783 599.8 383.533 604.2 383.5ZM607.7 405.3L608 407.7C608.1 408.5 607.9 409.2 607.4 409.8C606.933 410.433 606.317 410.817 605.55 410.95C602.883 411.317 600.317 411.5 597.85 411.5C592.917 411.5 589.017 410.583 586.15 408.75C583.283 406.917 581.85 404.583 581.85 401.75C581.85 399.917 582.667 398.067 584.3 396.2C585.5 394.867 587.067 394.55 589 395.25L590.95 396C591.583 396.233 591.967 396.683 592.1 397.35C592.233 397.983 592.083 398.55 591.65 399.05C591.117 399.65 590.85 400.217 590.85 400.75C590.85 401.55 591.433 402.217 592.6 402.75C593.8 403.25 595.55 403.5 597.85 403.5C600.25 403.5 602.483 403.333 604.55 403C605.317 402.867 606 403.033 606.6 403.5C607.233 403.967 607.6 404.567 607.7 405.3ZM597.5 381.5H582.55C582.283 381.5 582.117 381.65 582.05 381.95C580.15 391.583 577.867 400.783 575.2 409.55C574.967 410.317 574.5 410.9 573.8 411.3C573.1 411.7 572.367 411.817 571.6 411.65L568.1 410.85C567.333 410.683 566.767 410.283 566.4 409.65C566.033 409.017 565.967 408.333 566.2 407.6C568.7 399.6 570.9 391.033 572.8 381.9C572.867 381.633 572.75 381.5 572.45 381.5H569.7C568.933 381.5 568.267 381.217 567.7 380.65C567.133 380.083 566.85 379.417 566.85 378.65V376.35C566.85 375.583 567.133 374.917 567.7 374.35C568.267 373.783 568.933 373.5 569.7 373.5H574C574.267 373.5 574.433 373.367 574.5 373.1C574.533 372.833 574.6 372.45 574.7 371.95C574.8 371.45 574.867 371.083 574.9 370.85C575.033 370.05 575.4 369.4 576 368.9C576.633 368.4 577.35 368.183 578.15 368.25L581.55 368.5C582.317 368.567 582.933 368.917 583.4 369.55C583.867 370.15 584.033 370.817 583.9 371.55C583.867 371.717 583.817 371.967 583.75 372.3C583.717 372.633 583.683 372.883 583.65 373.05C583.583 373.35 583.7 373.5 584 373.5H597.5C598.267 373.5 598.933 373.783 599.5 374.35C600.067 374.917 600.35 375.583 600.35 376.35V378.65C600.35 379.417 600.067 380.083 599.5 380.65C598.933 381.217 598.267 381.5 597.5 381.5ZM651.25 405.25C651.85 405.717 652.183 406.35 652.25 407.15C652.35 407.917 652.15 408.583 651.65 409.15L649.35 411.85C648.817 412.45 648.15 412.783 647.35 412.85C646.583 412.95 645.883 412.767 645.25 412.3C640.483 408.733 635.367 405.067 629.9 401.3C626.633 399.033 624.383 397.383 623.15 396.35C621.917 395.283 621.083 394.333 620.65 393.5C620.217 392.633 620 391.467 620 390C620 387.8 620.517 386.133 621.55 385C622.617 383.867 625.367 381.9 629.8 379.1C634.967 375.867 639.75 372.717 644.15 369.65C644.783 369.183 645.5 369.017 646.3 369.15C647.1 369.283 647.733 369.667 648.2 370.3L650.3 373.2C650.767 373.833 650.933 374.533 650.8 375.3C650.7 376.067 650.333 376.667 649.7 377.1C645.633 379.9 641 382.9 635.8 386.1C633.8 387.333 632.5 388.2 631.9 388.7C631.3 389.167 631 389.6 631 390C631 390.4 631.25 390.833 631.75 391.3C632.283 391.733 633.533 392.617 635.5 393.95C641.267 397.85 646.517 401.617 651.25 405.25ZM701.45 375C705.15 375 708.15 376.15 710.45 378.45C712.783 380.717 713.95 383.733 713.95 387.5C713.95 391.8 712.683 395.167 710.15 397.6C707.617 400.033 704.217 401.25 699.95 401.25C698.883 401.25 697.733 401.2 696.5 401.1C695.7 401.033 695.05 400.7 694.55 400.1C694.083 399.467 693.883 398.75 693.95 397.95L694.2 395.15C694.267 394.383 694.6 393.75 695.2 393.25C695.8 392.75 696.483 392.533 697.25 392.6C697.65 392.633 698.217 392.65 698.95 392.65C700.55 392.65 701.867 392.233 702.9 391.4C703.933 390.533 704.45 389.4 704.45 388C704.45 385 702.95 383.5 699.95 383.5C699.683 383.5 699.583 383.633 699.65 383.9C699.717 384.133 699.817 384.5 699.95 385C700.083 385.467 700.183 385.817 700.25 386.05C700.45 386.783 700.35 387.5 699.95 388.2C699.583 388.867 699.017 389.317 698.25 389.55L695.15 390.45C694.417 390.683 693.7 390.617 693 390.25C692.333 389.85 691.883 389.267 691.65 388.5C691.55 388.167 691.317 387.433 690.95 386.3C690.883 386 690.7 385.917 690.4 386.05C690.367 386.05 689.917 386.2 689.05 386.5C688.217 386.8 687.567 387.033 687.1 387.2C686.833 387.3 686.733 387.5 686.8 387.8C689.2 396 691.1 402.817 692.5 408.25C692.7 408.983 692.6 409.683 692.2 410.35C691.8 411.05 691.217 411.483 690.45 411.65L686.7 412.6C685.933 412.767 685.217 412.65 684.55 412.25C683.883 411.85 683.45 411.267 683.25 410.5C681.383 403.233 679.617 396.783 677.95 391.15C677.883 390.85 677.717 390.767 677.45 390.9C676.917 391.1 676.083 391.433 674.95 391.9C673.817 392.333 672.933 392.683 672.3 392.95C671.567 393.25 670.85 393.25 670.15 392.95C669.45 392.65 668.95 392.133 668.65 391.4L667.5 388.65C667.2 387.917 667.2 387.2 667.5 386.5C667.8 385.767 668.317 385.25 669.05 384.95C672.917 383.417 674.9 382.633 675 382.6C675.233 382.5 675.317 382.317 675.25 382.05C675.05 381.35 674.733 380.333 674.3 379C673.867 377.667 673.533 376.65 673.3 375.95C673.067 375.217 673.117 374.5 673.45 373.8C673.817 373.1 674.383 372.633 675.15 372.4L678.75 371.35C679.517 371.117 680.233 371.183 680.9 371.55C681.6 371.883 682.067 372.417 682.3 373.15C682.7 374.383 683.3 376.267 684.1 378.8C684.167 379.033 684.333 379.117 684.6 379.05C685.667 378.65 686.8 378.25 688 377.85C688.233 377.783 688.317 377.617 688.25 377.35C687.983 376.517 687.583 375.3 687.05 373.7C686.817 372.967 686.883 372.267 687.25 371.6C687.65 370.9 688.217 370.45 688.95 370.25L692.45 369.25C693.217 369.05 693.933 369.15 694.6 369.55C695.3 369.917 695.767 370.467 696 371.2C696.667 373.5 697.033 374.767 697.1 375C697.167 375.267 697.367 375.367 697.7 375.3C699.1 375.1 700.35 375 701.45 375Z" fill="#DEE6E4"/>
<path d="M586.902 206.334C586.36 191.06 582.621 177.581 576.508 165.991C558.598 174.011 541.829 185.321 527.135 200.015C484.492 242.695 469.985 302.799 483.558 357.35C553.326 295.583 588.659 256.81 586.902 206.334Z" fill="#6CEA9B"/>
<path d="M571.666 184.162C574.059 191.266 575.405 198.837 575.704 206.801C577.181 246.902 550.504 279.449 490.55 331.476C488.774 313.455 490.363 295.171 495.279 277.636C502.496 251.93 516.816 228.319 536.688 209.381C547.157 199.417 558.879 190.986 571.666 184.162ZM578.695 165.991C559.907 174.011 542.278 185.321 526.855 200.015C482.081 242.695 466.845 302.799 481.109 357.35C554.355 295.583 591.464 256.81 589.613 206.334C589.052 191.06 585.108 177.581 578.714 165.991H578.695Z" fill="url(#paint15_linear_309_1544)"/>
</g>
<defs>
<linearGradient id="paint0_linear_309_1544" x1="418.44" y1="495.946" x2="401.611" y2="14.0277" gradientUnits="userSpaceOnUse">
<stop stop-color="#E6EBED"/>
<stop offset="0.51" stop-color="#DBE2E5"/>
<stop offset="1" stop-color="#CCD5D9"/>
</linearGradient>
<linearGradient id="paint1_linear_309_1544" x1="418.44" y1="495.946" x2="404.977" y2="110.415" gradientUnits="userSpaceOnUse">
<stop stop-color="#E6EBED"/>
<stop offset="0.26" stop-color="#E3E9EB"/>
<stop offset="0.45" stop-color="#DAE1E4"/>
<stop offset="0.58" stop-color="#CFD8DD"/>
</linearGradient>
<linearGradient id="paint2_linear_309_1544" x1="412.71" y1="331.85" x2="370.941" y2="-864.258" gradientUnits="userSpaceOnUse">
<stop stop-color="#B9C2C7"/>
<stop offset="0.05" stop-color="#C2CACF"/>
<stop offset="0.2" stop-color="#DCE2E5"/>
<stop offset="0.3" stop-color="#E6EBED"/>
</linearGradient>
<linearGradient id="paint3_linear_309_1544" x1="413.104" y1="343.135" x2="401.611" y2="14.0277" gradientUnits="userSpaceOnUse">
<stop stop-color="#E6EBED"/>
<stop offset="0.58" stop-color="#E3E9EC"/>
<stop offset="1" stop-color="#DAE3E8"/>
</linearGradient>
<linearGradient id="paint4_linear_309_1544" x1="415.675" y1="416.766" x2="405.288" y2="119.308" gradientUnits="userSpaceOnUse">
<stop stop-color="#EA334C"/>
<stop offset="0.54" stop-color="#EA334A"/>
<stop offset="1" stop-color="#EA3366"/>
</linearGradient>
<linearGradient id="paint5_linear_309_1544" x1="775.345" y1="448.281" x2="513.525" y2="186.443" gradientUnits="userSpaceOnUse">
<stop stop-color="#737E80"/>
<stop offset="1" stop-color="#B3C2C6"/>
</linearGradient>
<linearGradient id="paint6_linear_309_1544" x1="772.821" y1="445.72" x2="516.068" y2="188.966" gradientUnits="userSpaceOnUse">
<stop stop-color="#CFD8DD"/>
<stop offset="1" stop-color="#E6EBED"/>
</linearGradient>
<radialGradient id="paint7_radial_309_1544" cx="0" cy="0" r="1" gradientUnits="userSpaceOnUse" gradientTransform="translate(638.59 315.822) rotate(180) scale(165.772 165.772)">
<stop stop-color="#F7EFF0"/>
<stop offset="0.3" stop-color="#F4EDEF"/>
<stop offset="0.57" stop-color="#E9E8EE"/>
<stop offset="0.82" stop-color="#D7E0EB"/>
<stop offset="1" stop-color="#C5D7E8"/>
</radialGradient>
<radialGradient id="paint8_radial_309_1544" cx="0" cy="0" r="1" gradientUnits="userSpaceOnUse" gradientTransform="translate(563.565 220.662) rotate(52.88) scale(203.451 245.287)">
<stop stop-color="white"/>
<stop offset="1" stop-color="white" stop-opacity="0"/>
</radialGradient>
<linearGradient id="paint9_linear_309_1544" x1="818.492" y1="450.318" x2="796.825" y2="471.967" gradientUnits="userSpaceOnUse">
<stop offset="0.24" stop-color="#B3C2C6"/>
<stop offset="0.81" stop-color="#737E80"/>
</linearGradient>
<linearGradient id="paint10_linear_309_1544" x1="838.197" y1="464.807" x2="811.314" y2="491.69" gradientUnits="userSpaceOnUse">
<stop stop-color="#B3C2C6"/>
<stop offset="0.18" stop-color="#9CA9AC"/>
<stop offset="0.39" stop-color="#859194"/>
<stop offset="0.59" stop-color="#788385"/>
<stop offset="0.75" stop-color="#737E80"/>
</linearGradient>
<linearGradient id="paint11_linear_309_1544" x1="813.576" y1="506.627" x2="853.134" y2="467.069" gradientUnits="userSpaceOnUse">
<stop offset="0.12" stop-color="#302C3B"/>
<stop offset="0.62" stop-color="#45505B"/>
<stop offset="0.89" stop-color="#4E5E67"/>
</linearGradient>
<linearGradient id="paint12_linear_309_1544" x1="886.018" y1="579.069" x2="925.576" y2="539.511" gradientUnits="userSpaceOnUse">
<stop offset="0.33" stop-color="#302C3B"/>
<stop offset="0.55" stop-color="#383946"/>
<stop offset="0.96" stop-color="#4C5A64"/>
<stop offset="1" stop-color="#4E5E67"/>
</linearGradient>
<linearGradient id="paint13_linear_309_1544" x1="793.741" y1="447.216" x2="778.355" y2="431.848" gradientUnits="userSpaceOnUse">
<stop stop-color="#B3C2C6"/>
<stop offset="0.18" stop-color="#9CA9AC"/>
<stop offset="0.39" stop-color="#859194"/>
<stop offset="0.59" stop-color="#788385"/>
<stop offset="0.75" stop-color="#737E80"/>
</linearGradient>
<radialGradient id="paint14_radial_309_1544" cx="0" cy="0" r="1" gradientUnits="userSpaceOnUse" gradientTransform="translate(638.59 315.822) rotate(180) scale(165.772 165.772)">
<stop stop-color="#204F41"/>
<stop offset="0.3" stop-color="#205041"/>
<stop offset="0.55" stop-color="#163B30"/>
<stop offset="0.82" stop-color="#19332B"/>
<stop offset="1" stop-color="#182D26"/>
</radialGradient>
<linearGradient id="paint15_linear_309_1544" x1="493.709" y1="244.004" x2="566.301" y2="279.412" gradientUnits="userSpaceOnUse">
<stop stop-color="#51B375"/>
<stop offset="0.41" stop-color="#61BF85"/>
<stop offset="0.59" stop-color="#A3F1C8"/>
<stop offset="0.99" stop-color="#B0FBD6"/>
</linearGradient>
<clipPath id="clip0_309_1544">
<rect width="1050.06" height="723" fill="white"/>
</clipPath>
</defs>
</svg>
