<svg width="1200" height="1200" viewBox="0 0 1200 1200" fill="none" xmlns="http://www.w3.org/2000/svg">
<path fill-rule="evenodd" clip-rule="evenodd" d="M705 460H390C370.75 460 354.271 466.854 340.563 480.562C326.854 494.271 320 510.75 320 530V880C320 899.25 326.854 915.729 340.563 929.438C354.271 943.146 370.75 950 390 950H810C829.25 950 845.729 943.146 859.438 929.438C873.146 915.729 880 899.25 880 880V530C880 510.75 873.146 494.271 859.438 480.562C845.729 466.854 829.25 460 810 460H775V390C775 341.583 757.938 300.312 723.813 266.188C689.688 232.062 648.417 215 600 215C551.583 215 510.313 232.062 476.188 266.188C442.063 300.312 425 341.583 425 390H495C495 360.833 505.208 336.042 525.625 315.625C546.042 295.208 570.833 285 600 285C629.167 285 653.958 295.208 674.375 315.625C694.792 336.042 705 360.833 705 390V460ZM600 822L641.496 743.496L720 702L641.496 660.504L600 582L558.504 660.504L480 702L558.504 743.496L600 822Z" fill="#BFBFBF"/>
</svg>
