<?xml version="1.0" encoding="utf-8"?>
<!-- Generator: Adobe Illustrator 24.1.2, SVG Export Plug-In . SVG Version: 6.00 Build 0)  -->
<svg version="1.1" id="Layer_1" xmlns="http://www.w3.org/2000/svg" xmlns:xlink="http://www.w3.org/1999/xlink" x="0px" y="0px"
	 viewBox="0 0 64 64" style="enable-background:new 0 0 64 64;" xml:space="preserve">
<style type="text/css">
	.st0{fill:url(#SVGID_1_);}
	.st1{fill:url(#SVGID_2_);}
	.st2{fill:url(#SVGID_3_);}
	.st3{fill:#EDEDF7;}
	.st4{fill:#F5BB51;}
	.st5{fill:url(#SVGID_4_);}
	.st6{fill:url(#SVGID_5_);}
	.st7{fill:url(#SVGID_6_);}
	.st8{fill:url(#SVGID_7_);}
	.st9{fill:url(#SVGID_8_);}
	.st10{fill:#FAFAFA;}
	.st11{fill:#555F69;}
	.st12{fill:url(#SVGID_9_);}
	.st13{fill:#FFC940;}
	.st14{fill:#D47706;}
	.st15{fill:#FFFFFF;}
	.st16{fill:#BB7C0A;}
	.st17{fill:#F0A429;}
	.st18{fill:url(#Oval_1_);}
	.st19{fill:#1A1626;}
	.st20{fill:#AB968C;}
	.st21{fill:#45332C;}
	.st22{fill:#FFB80D;}
	.st23{fill:#F9A307;}
	.st24{fill:#E68C00;}
	.st25{fill:#FFCA25;}
	.st26{fill:url(#SVGID_10_);}
	.st27{fill:url(#SVGID_11_);}
	.st28{fill:url(#SVGID_12_);}
	.st29{fill:url(#SVGID_13_);}
	.st30{fill:url(#SVGID_14_);}
	.st31{fill:url(#SVGID_15_);}
	.st32{fill:#737E80;}
	.st33{opacity:0.65;fill:url(#SVGID_16_);}
	.st34{fill:url(#SVGID_17_);}
	.st35{opacity:0.5;fill:url(#SVGID_18_);}
	.st36{fill:url(#SVGID_19_);}
	.st37{fill:url(#SVGID_20_);}
	.st38{fill:url(#SVGID_21_);}
</style>
<linearGradient id="SVGID_1_" gradientUnits="userSpaceOnUse" x1="47.2438" y1="64.1204" x2="60.3497" y2="51.0144" gradientTransform="matrix(1 0 0 1 -3.9458 -1.626)">
	<stop  offset="0" style="stop-color:#13171A"/>
	<stop  offset="0.0403" style="stop-color:#161A1D"/>
	<stop  offset="0.3162" style="stop-color:#23292E"/>
	<stop  offset="0.6195" style="stop-color:#2B3238"/>
	<stop  offset="1" style="stop-color:#2E353B"/>
</linearGradient>
<path class="st0" d="M56.0001,60.7423c0-7.5621-1.7451-14.0571-2.8335-14.5393c-1.2137-0.5375-7.7797,2.8644-7.7797,2.8644
	l2.5802,14.1493C47.9671,63.2167,56.0001,62.9257,56.0001,60.7423z"/>
<linearGradient id="SVGID_2_" gradientUnits="userSpaceOnUse" x1="11.5421" y1="51.0145" x2="24.648" y2="64.1204" gradientTransform="matrix(1 0 0 1 -3.9458 -1.626)">
	<stop  offset="0" style="stop-color:#3C454D"/>
	<stop  offset="1" style="stop-color:#555F69"/>
</linearGradient>
<path class="st1" d="M16.0332,63.2167l2.5801-14.1493c0,0-6.5658-3.4019-7.7795-2.8644c-1.0886,0.4822-2.8337,6.9771-2.8337,14.5393
	C8.0001,62.9257,16.0332,63.2167,16.0332,63.2167z"/>
<linearGradient id="SVGID_3_" gradientUnits="userSpaceOnUse" x1="35.946" y1="65.626" x2="35.946" y2="42.5338" gradientTransform="matrix(1 0 0 1 -3.9458 -1.626)">
	<stop  offset="0" style="stop-color:#555F69"/>
	<stop  offset="1" style="stop-color:#3C454D"/>
</linearGradient>
<path class="st2" d="M47.9671,63.2167c0.0081-4.8389,0.7413-12.2816,5.1995-17.0137l-12.9402-5.2952l-16.4525,0.0259L10.8338,46.203
	c4.4581,4.7321,5.1915,12.1748,5.1994,17.0137c0,0,7.3373,0.7833,12.8789,0.7833c2.5566-1.8251,3.9491-1.5011,6.1761,0
	C40.6732,64,47.9671,63.2167,47.9671,63.2167z"/>
<path class="st3" d="M33.0979,64c2.5035-5.8934,10.208-17.7166,6.9973-22.5377c-2.3807-3.5749-13.7317-3.5115-16.1902,0
	C20.6098,46.1689,24.3895,58.1066,28.9121,64H33.0979z"/>
<path class="st4" d="M24.2634,36.5605v5.5997c0.8682,2.2431,4.2534,4.1737,7.7368,5.2624c3.4834-1.0887,6.8689-3.0193,7.7367-5.2624
	v-5.5997H24.2634z"/>
<linearGradient id="SVGID_4_" gradientUnits="userSpaceOnUse" x1="33.0942" y1="56.8347" x2="38.7977" y2="56.8347" gradientTransform="matrix(1 0 0 1 -3.9458 -1.626)">
	<stop  offset="0" style="stop-color:#211C1A;stop-opacity:0.05"/>
	<stop  offset="1" style="stop-color:#211C1A;stop-opacity:0.3"/>
</linearGradient>
<path class="st5" d="M33.7618,51.3478c0.5006-0.678,0.858-3.4416,0.858-3.4416h-5.2393c0,0,0.3574,2.7636,0.858,3.4416
	c-0.3672,0.7737-1.8834,8.3862-0.5539,10.3185c0.7752,1.1266,3.8559,1.1266,4.6311,0C35.6452,59.734,34.129,52.1215,33.7618,51.3478
	z"/>
<linearGradient id="SVGID_5_" gradientUnits="userSpaceOnUse" x1="33.3333" y1="58.9354" x2="38.5587" y2="58.9354" gradientTransform="matrix(1 0 0 1 -3.9458 -1.626)">
	<stop  offset="0" style="stop-color:#2E353B"/>
	<stop  offset="1" style="stop-color:#181B1F"/>
</linearGradient>
<path class="st6" d="M33.571,51.3479c-0.4132-0.972-2.7285-0.972-3.1417,0C30.1019,52.1214,28.3298,61.778,30.3122,64h1.688h1.688
	C35.6706,61.778,33.8984,52.1214,33.571,51.3479z"/>
<linearGradient id="SVGID_6_" gradientUnits="userSpaceOnUse" x1="33.5505" y1="50.9928" x2="38.3414" y2="50.9928" gradientTransform="matrix(1 0 0 1 -3.9458 -1.626)">
	<stop  offset="0" style="stop-color:#2E353B"/>
	<stop  offset="0.4319" style="stop-color:#2C3238"/>
	<stop  offset="0.7311" style="stop-color:#252A2F"/>
	<stop  offset="0.9899" style="stop-color:#191C20"/>
	<stop  offset="1" style="stop-color:#181B1F"/>
</linearGradient>
<path class="st7" d="M32.0002,47.4226c-1.7358-0.9377-2.3955,0.4836-2.3955,0.4836s0.3783,2.7637,0.8246,3.4417
	c0.2484,0.3775,2.8933,0.3775,3.1417,0c0.4463-0.678,0.8246-3.4417,0.8246-3.4417S33.7359,46.4849,32.0002,47.4226z"/>
<linearGradient id="SVGID_7_" gradientUnits="userSpaceOnUse" x1="-38.5258" y1="52.841" x2="-38.5258" y2="44.0128" gradientTransform="matrix(-1 0 0 1 -11.1958 -1.626)">
	<stop  offset="0" style="stop-color:#211C1A;stop-opacity:0.05"/>
	<stop  offset="1" style="stop-color:#211C1A;stop-opacity:0.3"/>
</linearGradient>
<path class="st8" d="M32.0001,47.4226c-1.3977-0.048-3.0201,1.5318-4.1433,3.6824c-0.0888,0.17-0.3475,0.1291-0.4633-0.0281
	c-1.002-1.3605-3.3468-4.7534-4.7336-8.6901C26.8067,45.8646,32.0001,47.4226,32.0001,47.4226z"/>
<linearGradient id="SVGID_8_" gradientUnits="userSpaceOnUse" x1="40.6159" y1="52.841" x2="40.6159" y2="44.0128" gradientTransform="matrix(1 0 0 1 -3.9458 -1.626)">
	<stop  offset="0" style="stop-color:#211C1A;stop-opacity:0.05"/>
	<stop  offset="1" style="stop-color:#211C1A;stop-opacity:0.3"/>
</linearGradient>
<path class="st9" d="M31.9999,47.4226c1.3978-0.048,3.0202,1.5318,4.1434,3.6824c0.0888,0.17,0.3475,0.1291,0.4633-0.0281
	c1.002-1.3605,3.3469-4.7534,4.7337-8.6901C37.1934,45.8646,31.9999,47.4226,31.9999,47.4226z"/>
<path class="st3" d="M41.339,42.1213c-0.174-0.4162-1.3496-1.8431-1.6023-1.7509c0,1.9985-4.5748,5.5429-7.7368,7.0522
	c1.7864-0.4491,2.9899,1.2581,4.3664,2.9906c0.0874,0.1102,0.2769,0.1057,0.3502-0.0124
	C37.5482,49.061,41.6364,42.8337,41.339,42.1213z"/>
<path class="st10" d="M41.339,42.1213c-0.174-0.4162-1.3496-1.8431-1.6023-1.7509c0.1406,2.8849-5.9802,6.5065-5.4458,7.0522
	c0.7667,0.7828,1.4279,1.764,2.1102,2.8236c0.0755,0.1171,0.2274,0.265,0.3154,0.1546
	C37.9428,48.8617,41.6364,42.8337,41.339,42.1213z"/>
<path class="st3" d="M22.6613,42.1213c0.1739-0.4162,1.3494-1.8431,1.602-1.7509c0,1.9985,4.5749,5.5429,7.7368,7.0522
	c-1.7863-0.4491-2.9897,1.2581-4.366,2.9906c-0.0876,0.1102-0.2772,0.1057-0.3503-0.0124
	C26.4522,49.061,22.3638,42.8337,22.6613,42.1213z"/>
<path class="st10" d="M22.6613,42.1213c0.1739-0.4162,1.3494-1.8431,1.602-1.7509c-0.1404,2.8849,5.9806,6.5065,5.446,7.0522
	c-0.7669,0.7828-1.428,1.764-2.1103,2.8236c-0.0754,0.1171-0.2274,0.265-0.3152,0.1546
	C26.0573,48.8617,22.3638,42.8337,22.6613,42.1213z"/>
<path class="st11" d="M46.9446,39.2497c0-1.8483-7.4831-6.8329-7.4306-5.3236c0.3938,11.3226,1.2483,11.7-6.7905,30.0739h2.3647
	c5.6826-6.6137,11.3882-20.3665,11.3882-20.9691c0-0.2087-4.2315-1.3182-4.2315-1.7812
	C42.2449,40.9465,46.9446,39.519,46.9446,39.2497z"/>
<path class="st11" d="M24.4861,33.9261c0.0528-1.5093-7.4304,3.4753-7.4304,5.3236c0,0.2693,4.6995,1.6968,4.6995,2
	c0,0.463-4.2312,1.5725-4.2312,1.7812c0,0.6026,5.7056,14.3554,11.3882,20.9691h2.3647
	C23.2381,45.6261,24.0926,45.2487,24.4861,33.9261z"/>
<radialGradient id="SVGID_9_" cx="40.2609" cy="48.7823" r="23.2891" gradientTransform="matrix(1 0 0 0.8976 -8.211 -3.6049)" gradientUnits="userSpaceOnUse">
	<stop  offset="0" style="stop-color:#BF6000"/>
	<stop  offset="0.3971" style="stop-color:#DC8103"/>
	<stop  offset="0.7719" style="stop-color:#F19A06"/>
	<stop  offset="1" style="stop-color:#F9A307"/>
</radialGradient>
<path class="st12" d="M48.2297,20.3253H15.7701c0,0-4.7442,14.555,8.4782,19.8499v-3.1596h15.4824v3.1667
	C52.9749,34.8934,48.2297,20.3253,48.2297,20.3253z"/>
<path class="st13" d="M32,6.1182c-9.9663,0-14.767,8.1164-14.1672,18.5522c0.1232,2.0966,0.7066,5.1225,1.427,7.7153
	C20.7541,37.7752,28.6412,43.2023,32,43.2023c3.3573,0,11.2444-5.4271,12.74-10.8166c0.7204-2.5928,1.3038-5.6187,1.4273-7.7153
	C46.7655,14.2346,41.9674,6.1182,32,6.1182z"/>
<path class="st14" d="M31.9985,34.7303c-2.3352-1.0275-2.3539-0.0416-5.9592,0.1997c1.3532,1.5372,2.3498,3.513,5.9579,3.513
	c4.1419,0,4.8421-2.244,5.9634-3.513C34.3511,34.6887,34.3365,33.7028,31.9985,34.7303z"/>
<path class="st15" d="M27.1217,35.3137c2.3539,2.4493,7.4307,2.4171,9.7552,0.0013C33.2527,35.704,30.7471,35.704,27.1217,35.3137z"
	/>
<path class="st16" d="M43.8526,18.9082c-3.0269-1.8043-8.4581-2.0256-10.6054-0.7952c-0.4556,0.2476-0.3338,1.5509,0.0602,1.3878
	c3.0643-1.2754,7.7339-1.339,10.6108,0.1369C44.3025,19.8327,44.3118,19.1708,43.8526,18.9082z"/>
<path class="st16" d="M21.826,20.6407c2.3547-0.8984,6.207-0.3858,7.5723,0.7461c0.2906,0.2306,0.0443,1.1338-0.2145,0.9701
	c-2.0033-1.2761-5.2811-1.8966-7.4926-1.21C21.395,21.2366,21.4713,20.7694,21.826,20.6407z"/>
<path class="st17" d="M34.2398,31.4185c-0.2373-0.1663-0.7939,0.0899-2.2413,0.0899c-1.4458,0-2.0025-0.2562-2.2398-0.0899
	c-0.2844,0.1999,0.1677,1.1026,2.2398,1.1026C34.0709,32.5211,34.5255,31.6197,34.2398,31.4185z"/>
<path id="Path_407_" class="st15" d="M33.3569,24.2653c-0.1103,0.8629,0.4728,1.8828,2.0928,2.6489
	c1.028,0.4871,3.1674,1.0594,5.9778-0.1265c1.263-0.531,2.4892-2.1825,2.3789-3.0983
	C42.2824,20.818,34.7814,20.3982,33.3569,24.2653z"/>
<linearGradient id="Oval_1_" gradientUnits="userSpaceOnUse" x1="-1210.4171" y1="172.4363" x2="-1210.4171" y2="171.5402" gradientTransform="matrix(6.5701 0 0 6.5701 7990.9399 -1105.7708)">
	<stop  offset="0" style="stop-color:#A6694A"/>
	<stop  offset="1" style="stop-color:#4F2A1E"/>
</linearGradient>
<path id="Oval_20_" class="st18" d="M38.3776,21.2656c1.6272,0,2.9467,1.3177,2.9467,2.9413c0,1.629-1.3186,2.9459-2.9467,2.9459
	c-1.6272,0-2.9458-1.3169-2.9458-2.9459C35.4309,22.5833,36.7504,21.2656,38.3776,21.2656z"/>
<path id="Path_406_" class="st19" d="M36.9065,24.154c0,2.0372,2.9467,2.0372,2.9467,0
	C39.8532,22.2649,36.9065,22.2649,36.9065,24.154z"/>
<path id="Path_405_" class="st20" d="M36.4571,23.3279c0,0.8539,1.2352,0.8539,1.2352,0
	C37.6923,22.5394,36.4571,22.5394,36.4571,23.3279z"/>
<path id="Path_404_" class="st21" d="M33.3426,24.3783c1.1939-3.8366,9.3479-3.2876,10.4629-0.6898
	C43.3911,20.382,34.3616,19.5074,33.3426,24.3783z"/>
<path class="st21" d="M22.5591,24.9836c1.563-0.8873,4.3737-0.946,6.0613,0c0.3896,0.2201,1.0376,0.0679,0.8929-0.1888
	c-1.475-2.5998-6.3757-2.5961-7.847,0C21.5215,25.0515,22.1705,25.2055,22.5591,24.9836z"/>
<path class="st22" d="M40.4547,9.6925c1.1628-1.4887-13.7911-3.8311-21.0277,2.3727c-4.2187,3.6167-7.6459,6.9688-7.6459,14.5371
	c0,5.3194,3.8349,12.1934,12.4672,13.7293v-0.3464c-9.2143-6.1478-7.6096-12.281-4.8696-19.6587
	c6.9707-3.6227,14.8589-4.4757,20.334-8.8116c-0.7012,1.8882,3.0102,4.2694,4.9082,8.8116
	c2.8096,6.7243,4.2847,13.5242-4.8902,19.6689v0.3296c8.0091-1.5485,12.488-8.4095,12.488-13.7227
	C52.2187,15.9583,46.0192,13.4715,40.4547,9.6925z"/>
<path class="st23" d="M43.4515,6.5559c1.1169-1.1998-27.5657,10.9948-30.669,18.3343
	C17.9894,18.2196,39.9449,15.7413,43.4515,6.5559z"/>
<path class="st23" d="M48.5439,17.2454c0,0,4.8767,11.8729-3.2945,20.105C56.9541,29.1183,48.5439,17.2454,48.5439,17.2454z"/>
<path class="st23" d="M19.8154,19.9855c0,0-1.9928,0.3258-3.6228,1.9138c-3.4101,10.8103,4.7392,15.4511,4.7392,15.4511
	S14.4688,31.3977,19.8154,19.9855z"/>
<path class="st23" d="M14.7172,22.9269c0,0-0.9364,0.3291-2.0804,2.4338c-1.0603,6.591,4.095,9.9486,4.095,9.9486
	S11.8978,30.0078,14.7172,22.9269z"/>
<path class="st24" d="M12.6368,25.3607c5.6324-8.248,26.4821-7.6907,30.8147-18.8048
	C36.1488,16.694,14.0337,18.3843,12.6368,25.3607z"/>
<path class="st25" d="M43.2503,10.9945c0,0,4.6201,8.8904,5.3795,16.4433C49.8864,15.8244,43.2503,10.9945,43.2503,10.9945z"/>
<linearGradient id="SVGID_10_" gradientUnits="userSpaceOnUse" x1="50.7762" y1="54.6032" x2="59.9459" y2="54.6032" gradientTransform="matrix(1 0 0 1 -3.9458 -1.626)">
	<stop  offset="0" style="stop-color:#3C454D"/>
	<stop  offset="1" style="stop-color:#555F69"/>
</linearGradient>
<path class="st26" d="M53.909,42.8747c-0.1788-0.5322-3.2502-0.2329-5.9375,1.0833c-1.3288,0.6514-1.1306,19.3714-1.1306,19.3714
	s9.1592-0.1127,9.1592-2.5871C56.0001,52.0622,54.4047,44.3513,53.909,42.8747z"/>
<path class="st13" d="M42.9246,34.0463c-0.7578-1.1102,2.2306-1.9288,2.7238,0.0204c0.1983,0.7881,8.3578,0.5796,9.0087,1.744
	c1.1729,2.0916-1.517,6.2189-1.1221,7.0681c0.3932,0.8491-5.4883,2.1831-5.373,1.1152c0.378-3.5001-1.3746-2.1763-2.1255-5.1205
	C45.4705,36.66,43.9364,35.5311,42.9246,34.0463z"/>
<linearGradient id="SVGID_11_" gradientUnits="userSpaceOnUse" x1="-300.4376" y1="214.8262" x2="-298.5349" y2="214.8262" gradientTransform="matrix(-0.7071 0.7071 0.7071 0.7071 -317.9868 91.6421)">
	<stop  offset="0.2364" style="stop-color:#B3C2C6"/>
	<stop  offset="0.8061" style="stop-color:#737E80"/>
</linearGradient>
<polygon class="st27" points="45.5579,30.308 47.1535,31.9036 45.8101,33.249 44.2129,31.6538 "/>
<linearGradient id="SVGID_12_" gradientUnits="userSpaceOnUse" x1="-300.6674" y1="215.8283" x2="-298.3048" y2="215.8283" gradientTransform="matrix(-0.7071 0.7071 0.7071 0.7071 -317.9868 91.6421)">
	<stop  offset="0" style="stop-color:#B3C2C6"/>
	<stop  offset="0.176" style="stop-color:#9CA9AC"/>
	<stop  offset="0.3908" style="stop-color:#859194"/>
	<stop  offset="0.5885" style="stop-color:#788385"/>
	<stop  offset="0.7515" style="stop-color:#737E80"/>
</linearGradient>
<path class="st28" d="M45.3963,33.1625c-0.1987-0.1995,1.4708-1.8702,1.6703-1.6703l0.3212,0.3207
	c0.1998,0.1987-1.4709,1.8698-1.6704,1.6703L45.3963,33.1625z"/>
<linearGradient id="SVGID_13_" gradientUnits="userSpaceOnUse" x1="-287.9427" y1="364.0186" x2="-284.4669" y2="364.0186" gradientTransform="matrix(0.7071 -0.7071 0.7071 0.7071 -8.0959 -426.751)">
	<stop  offset="0.1212" style="stop-color:#302C3B"/>
	<stop  offset="0.6186" style="stop-color:#45505B"/>
	<stop  offset="0.8909" style="stop-color:#4E5E67"/>
</linearGradient>
<path class="st29" d="M48.6889,32.3269l-2.4575,2.4579c0,0-0.1659-0.1664-0.5434-1.2366c-0.1229-0.3505,1.4117-1.8872,1.7626-1.7643
	C48.5233,32.1605,48.6889,32.3269,48.6889,32.3269z"/>
<linearGradient id="SVGID_14_" gradientUnits="userSpaceOnUse" x1="-287.9428" y1="369.3842" x2="-284.4666" y2="369.3842" gradientTransform="matrix(0.7071 -0.7071 0.7071 0.7071 -8.0959 -426.751)">
	<stop  offset="0.3273" style="stop-color:#302C3B"/>
	<stop  offset="0.5504" style="stop-color:#383946"/>
	<stop  offset="0.9601" style="stop-color:#4C5A64"/>
	<stop  offset="1" style="stop-color:#4E5E67"/>
</linearGradient>
<path class="st30" d="M54.8089,38.4469c0.7946,0.7938-1.6633,3.2508-2.4579,2.4575c-1.6223-1.6223-4.7038-4.703-6.1047-6.1051
	c-0.2789-0.2786,2.1773-2.7381,2.4558-2.4592C50.0919,33.7295,53.0749,36.7121,54.8089,38.4469z"/>
<linearGradient id="SVGID_15_" gradientUnits="userSpaceOnUse" x1="-299.4862" y1="214.1022" x2="-299.4862" y2="212.7514" gradientTransform="matrix(-0.7071 0.7071 0.7071 0.7071 -317.9868 91.6421)">
	<stop  offset="0" style="stop-color:#B3C2C6"/>
	<stop  offset="0.176" style="stop-color:#9CA9AC"/>
	<stop  offset="0.3908" style="stop-color:#859194"/>
	<stop  offset="0.5885" style="stop-color:#788385"/>
	<stop  offset="0.7515" style="stop-color:#737E80"/>
</linearGradient>
<path class="st31" d="M45.2012,29.6264c0,0,0.4924,0.492,0.6555,0.6551c0.1995,0.2003-1.47,1.871-1.6703,1.6711
	c-0.1639-0.1639-0.6556-0.6555-0.6556-0.6555C43.331,31.0976,45.0017,29.4269,45.2012,29.6264z"/>
<polygon class="st32" points="45.0844,29.7431 45.74,30.3982 45.649,30.4909 44.9926,29.8345 "/>
<rect x="45.1061" y="29.9217" transform="matrix(0.7071 -0.7071 0.7071 0.7071 -8.2552 40.8405)" class="st32" width="0.1304" height="0.927"/>
<polygon class="st32" points="44.6888,30.274 45.3444,30.9304 45.2525,31.0227 44.5965,30.3667 "/>
<rect x="44.6739" y="30.4165" transform="matrix(0.7078 -0.7064 0.7064 0.7078 -8.7415 40.6268)" class="st32" width="0.1303" height="0.9272"/>
<rect x="44.4418" y="30.6484" transform="matrix(0.7078 -0.7064 0.7064 0.7078 -8.9732 40.5306)" class="st32" width="0.13" height="0.9275"/>
<rect x="44.1786" y="30.8493" transform="matrix(0.7073 -0.7069 0.7069 0.7073 -9.1855 40.4401)" class="st32" width="0.1307" height="0.9269"/>
<rect x="43.9102" y="31.0441" transform="matrix(0.7072 -0.7071 0.7071 0.7072 -9.4 40.3195)" class="st32" width="0.1298" height="0.9275"/>
<linearGradient id="SVGID_16_" gradientUnits="userSpaceOnUse" x1="59.2827" y1="68.2089" x2="59.2827" y2="52.9941" gradientTransform="matrix(1 0 0 1 -20.8193 -36.0435)">
	<stop  offset="0" style="stop-color:#FFFFFF;stop-opacity:0"/>
	<stop  offset="1" style="stop-color:#FFFFFF"/>
</linearGradient>
<path class="st33" d="M43.8421,29.9376c2.9706-2.9711,2.9714-7.7884,0.0008-10.7582c-2.9715-2.9719-7.7887-2.971-10.7594-0.0016
	c-2.9702,2.9723-2.9694,7.7883,0.0021,10.7598C36.0559,32.9082,40.8727,32.9078,43.8421,29.9376z"/>
<linearGradient id="SVGID_17_" gradientUnits="userSpaceOnUse" x1="427.923" y1="-1033.5973" x2="439.9436" y2="-1045.6179" gradientTransform="matrix(0.7071 -0.7071 0.7071 0.7071 466.7359 1066.4995)">
	<stop  offset="0" style="stop-color:#737E80"/>
	<stop  offset="1" style="stop-color:#B3C2C6"/>
</linearGradient>
<path class="st34" d="M32.4532,18.5483c-3.3195,3.3199-3.3183,8.7013,0,12.0213c3.32,3.3178,8.7005,3.3194,12.0205-0.0006
	c3.319-3.3194,3.3194-8.7016,0.0002-12.0202C41.1545,15.2288,35.7718,15.2293,32.4532,18.5483z M43.413,29.5083
	c-2.7325,2.7331-7.1651,2.7336-9.8982-0.0001c-2.7344-2.7343-2.7351-7.166-0.002-9.9011c2.7337-2.7325,7.1665-2.7333,9.9008,0.0016
	C46.1472,22.3415,46.1465,26.7743,43.413,29.5083z"/>
<linearGradient id="SVGID_18_" gradientUnits="userSpaceOnUse" x1="53.3889" y1="66.4956" x2="65.1767" y2="54.7078" gradientTransform="matrix(1 0 0 1 -20.8193 -36.0435)">
	<stop  offset="0" style="stop-color:#CFD8DD"/>
	<stop  offset="1" style="stop-color:#E6EBED"/>
</linearGradient>
<path class="st35" d="M44.3577,18.6646c-3.2553-3.2558-8.5336-3.255-11.7882-0.0004c-3.255,3.2566-3.2545,8.5337,0.0008,11.7886
	c3.2554,3.2546,8.5308,3.2558,11.7866,0C47.6114,27.1971,47.6114,21.9208,44.3577,18.6646z M43.5898,29.6857
	c-2.832,2.8328-7.4223,2.8316-10.2539,0.0008c-2.8297-2.832-2.8308-7.422,0-10.2555c2.8312-2.8292,7.4234-2.8304,10.2539,0
	C46.4214,22.2623,46.4206,26.8549,43.5898,29.6857z"/>
<path class="st13" d="M50.0603,31.5378c1.5212-0.0543,1.8806,1.1779,1.8806,1.1779c1.3788,0.1526,1.9,1.4883,1.9,1.4883
	c2.6518,1.3474-1.2271,6.8595-2.1068,4.0373c-1.122,1.3899-2.7289,0.4357-1.7772-1.1831c-1.2246,1.6628-2.6186-0.1847-1.9246-1.2118
	c0.2611-0.3831,0.4475-0.8594,0.7535-1.2983c-1.2687,1.6695-2.5035-0.056-2.0789-1.1035c0.4712-1.1594,1.1838-2.212,1.5509-2.4594
	C48.9866,30.4937,49.8638,31.1801,50.0603,31.5378z"/>
<path class="st17" d="M47.0035,34.9091c1.3272,1.5101,2.6899-1.7255,2.7339-2.3595C48.8756,34.6971,47.5739,35.4311,47.0035,34.9091
	z"/>
<path class="st17" d="M48.1993,37.382c1.328,1.5119,2.9391-1.6627,3.3153-3.5239C50.3646,37.1905,48.7696,37.9057,48.1993,37.382z"
	/>
<path class="st17" d="M49.9544,38.6888c1.3271,1.5119,3.0391-1.6848,3.4145-3.5459C52.2197,38.4752,50.5256,39.2126,49.9544,38.6888
	z"/>
<path class="st11" d="M55.9999,17.0415c0,2.0682-6.052,4.255-24,4.255c-17.9525,0-24-2.1868-24-4.255
	c0-2.0683,6.0475-3.745,24-3.745C49.9479,13.2965,55.9999,14.9732,55.9999,17.0415z"/>
<radialGradient id="SVGID_19_" cx="132.3692" cy="9.1365" r="11.9543" gradientTransform="matrix(1.0688 0 0 3 -109.4763 -19.899)" gradientUnits="userSpaceOnUse">
	<stop  offset="0" style="stop-color:#555F69"/>
	<stop  offset="0.4004" style="stop-color:#4E5862"/>
	<stop  offset="1" style="stop-color:#3C454D"/>
</radialGradient>
<path class="st36" d="M48.1776,12.5288c0.6913,3.323-33.0466,3.323-32.3553,0C19.5237-5.2632,22.794,1.1105,32,1.1105
	C41.2041,1.1105,44.4762-5.2632,48.1776,12.5288z"/>
<radialGradient id="SVGID_20_" cx="322.2634" cy="657.8818" r="3.7247" fx="319.6483" fy="657.9331" gradientTransform="matrix(0.9313 -0.4907 0.9043 1.5021 -852.7795 -823.7401)" gradientUnits="userSpaceOnUse">
	<stop  offset="0" style="stop-color:#3C454D"/>
	<stop  offset="1" style="stop-color:#3C454D;stop-opacity:0"/>
</radialGradient>
<path class="st37" d="M45.6316,12.7111C42.8712,15.5574,32.512,2.5025,38.8008,0.4653C43.348-1.0077,49.7535,8.4611,45.6316,12.7111
	z"/>
<radialGradient id="SVGID_21_" cx="3058.1707" cy="-653.7881" r="3.7247" fx="3055.5557" fy="-653.7368" gradientTransform="matrix(-0.9313 -0.4907 -0.9043 1.5021 2278.6943 2489.1301)" gradientUnits="userSpaceOnUse">
	<stop  offset="0" style="stop-color:#3C454D"/>
	<stop  offset="1" style="stop-color:#3C454D;stop-opacity:0"/>
</radialGradient>
<path class="st38" d="M18.3683,12.711c2.7604,2.8464,13.1196-10.2085,6.8308-12.2457C20.6519-1.0077,14.2465,8.461,18.3683,12.711z"
	/>
<path class="st19" d="M15.8223,12.5288l-0.4885,3.1916c6.5126,2.1014,26.8197,2.1014,33.3323,0l-0.4885-3.1916
	C41.8633,14.6319,22.1349,14.6319,15.8223,12.5288z"/>
</svg>
