<svg width="375" height="713" viewBox="0 0 375 713" fill="none" xmlns="http://www.w3.org/2000/svg">
<path d="M0 0H375V713H0V0Z" fill="url(#paint0_linear_1039_1717)"/>
<rect x="168.466" y="608.466" width="39.0667" height="39.0667" rx="7.69673" fill="#1E1E1E"/>
<rect x="168.466" y="608.466" width="39.0667" height="39.0667" rx="7.69673" stroke="#EEDA00" stroke-width="0.932937"/>
<mask id="mask0_1039_1717" style="mask-type:alpha" maskUnits="userSpaceOnUse" x="171" y="621" width="34" height="14">
<g clip-path="url(#clip0_1039_1717)">
<g clip-path="url(#clip1_1039_1717)">
<path d="M180.027 627.022C179.784 626.967 179.184 626.89 178.76 626.89C178.455 626.89 178.12 626.91 177.938 626.928C177.414 626.98 177.013 627.116 176.745 627.333C176.485 627.544 176.353 627.833 176.353 628.192C176.353 628.504 176.454 628.762 176.652 628.959C176.912 629.217 177.342 629.377 177.93 629.436H178.159V630.423L178.029 630.456C177.751 630.528 177.489 630.563 177.227 630.563C177.02 630.563 176.809 630.541 176.583 630.498C175.5 630.294 174.878 629.383 174.878 627.998C174.878 626.934 175.3 625.982 176.006 625.45C176.524 625.06 177.206 624.854 177.98 624.854C178.063 624.854 178.148 624.856 178.231 624.861C178.555 624.879 178.846 624.936 179.128 624.992C179.447 625.054 179.748 625.113 180.073 625.113C180.223 625.113 180.367 625.1 180.512 625.075C180.945 624.999 181.265 624.71 181.37 624.304C181.541 623.636 181.447 623.064 181.09 622.603C180.345 621.644 178.589 621.302 177.194 621.302C177.007 621.302 176.822 621.308 176.643 621.32C175.004 621.428 173.606 622.092 172.598 623.241C171.553 624.434 171 626.079 171 627.998C171 631.93 173.316 634.676 176.631 634.676C177.02 634.676 177.551 634.676 178.101 634.581C178.647 634.487 178.999 634.378 179.359 634.19C180.167 633.782 180.763 633.143 181.13 632.289C181.48 631.474 181.553 630.614 181.553 630.036C181.553 628.682 181.375 627.94 180.936 627.473C180.7 627.208 180.265 627.076 180.027 627.022Z" fill="#606060"/>
<path d="M203.289 623.123C202.179 621.931 200.628 621.301 198.805 621.301C198.577 621.301 198.216 621.311 197.703 621.396L197.698 621.397C196.925 621.495 196.23 621.809 195.689 622.302C195.004 622.944 194.515 623.843 194.356 626.146C194.324 626.639 194.309 627.227 194.309 627.998C194.309 628.769 194.324 629.338 194.356 629.83C194.515 632.134 195.003 633.033 195.687 633.673C196.221 634.159 196.917 634.48 197.698 634.6C198.115 634.652 198.467 634.676 198.805 634.676C200.627 634.676 202.178 634.046 203.289 632.856C204.408 631.657 205 629.977 205 627.998C205 626.019 204.408 624.324 203.289 623.123L203.289 623.123ZM200.431 629.622C200.082 629.859 199.624 629.98 199.069 629.98C198.615 629.98 198.264 629.896 198.249 629.893L198.116 629.861V626.122L198.264 626.101C198.272 626.1 198.478 626.07 198.78 626.07C199.187 626.07 199.774 626.125 200.264 626.389C200.865 626.712 201.171 627.254 201.171 627.998C201.171 628.743 200.922 629.288 200.43 629.622L200.431 629.622Z" fill="#606060"/>
<path d="M187.691 621.301C186.095 621.301 184.732 621.938 183.748 623.144C182.76 624.355 182.238 626.034 182.238 627.998C182.238 629.962 182.76 631.626 183.748 632.835C184.732 634.039 186.096 634.676 187.691 634.676C191.057 634.676 193.501 631.868 193.501 627.998C193.501 626.09 192.905 624.368 191.823 623.15C190.764 621.957 189.297 621.301 187.691 621.301ZM188.929 629.048L187.869 631.054L186.81 629.048L184.804 627.989L186.81 626.929L187.869 624.923L188.929 626.929L190.935 627.989L188.929 629.048Z" fill="#606060"/>
</g>
</g>
</mask>
<g mask="url(#mask0_1039_1717)">
<path d="M207.968 632.809V636.005H188.065L207.968 632.809Z" fill="#EEDA00" stroke="#EEDA00" stroke-width="0.0583085"/>
<path d="M207.968 632.75L188.042 635.949L207.968 629.248V632.75Z" fill="#FEF806" stroke="#EEDA00" stroke-width="0.0583085"/>
<path d="M208.143 624.894V624.647L207.927 624.766L187.629 635.906L187.746 636.172L208.044 629.345L208.143 629.312V629.207V624.894Z" fill="#EEDA00" stroke="#EEDA00" stroke-width="0.291543"/>
<path d="M207.968 624.877L187.945 635.866L207.968 619.067V624.877Z" fill="#FEF806" stroke="#EEDA00" stroke-width="0.0583085"/>
<path d="M208.143 613.034V612.888H207.997H205.278H205.206L205.162 612.946L187.583 635.945L187.793 636.146L208.091 619.116L208.143 619.073V619.005V613.034Z" fill="#EEDA00" stroke="#EEDA00" stroke-width="0.291543"/>
<path d="M205.219 613.063L187.819 635.829L197.611 613.063H205.219Z" fill="#FEF806" stroke="#EEDA00" stroke-width="0.0583085"/>
<path d="M190.899 612.888H190.773L190.755 613.014L187.555 636.014L187.833 636.092L197.726 613.092L197.813 612.888H197.592H190.899Z" fill="#EEDA00" stroke="#EEDA00" stroke-width="0.291543"/>
<path d="M190.865 613.063L187.698 635.822L184.532 613.063H190.865Z" fill="#FEF806" stroke="#EEDA00" stroke-width="0.0583085"/>
<path d="M177.807 612.888H177.585L177.673 613.092L187.566 636.092L187.844 636.014L184.644 613.014L184.626 612.888H184.499H177.807Z" fill="#EEDA00" stroke="#EEDA00" stroke-width="0.291543"/>
<path d="M177.786 613.063L187.578 635.829L170.178 613.063H177.786Z" fill="#FEF806" stroke="#EEDA00" stroke-width="0.0583085"/>
<path d="M167.4 612.888H167.255V613.034V619.005V619.073L167.307 619.116L187.605 636.146L187.814 635.945L170.236 612.946L170.192 612.888H170.12H167.4Z" fill="#EEDA00" stroke="#EEDA00" stroke-width="0.291543"/>
<path d="M167.43 619.067L187.453 635.866L167.43 624.877V619.067Z" fill="#FEF806" stroke="#EEDA00" stroke-width="0.0583085"/>
<path d="M167.255 629.207V629.312L167.354 629.345L187.652 636.172L187.769 635.906L167.471 624.766L167.255 624.647V624.894V629.207Z" fill="#EEDA00" stroke="#EEDA00" stroke-width="0.291543"/>
<path d="M167.43 629.248L187.356 635.949L167.43 632.75V629.248Z" fill="#FEF806" stroke="#EEDA00" stroke-width="0.0583085"/>
<path d="M167.43 632.809L187.333 636.005H167.43V632.809Z" fill="#EEDA00" stroke="#EEDA00" stroke-width="0.0583085"/>
</g>
<path d="M136.405 659.208C136.554 659.208 136.68 659.259 136.783 659.362C136.885 659.465 136.937 659.591 136.937 659.74C136.937 659.889 136.885 660.015 136.783 660.118C136.68 660.221 136.554 660.272 136.405 660.272H135.047C134.981 660.272 134.949 660.305 134.949 660.37C134.949 660.547 134.883 660.701 134.753 660.832C134.622 660.963 134.463 661.028 134.277 661.028H134.207C134.029 661.028 133.875 660.963 133.745 660.832C133.614 660.701 133.549 660.547 133.549 660.37C133.549 660.305 133.511 660.272 133.437 660.272H130.637C130.562 660.272 130.525 660.305 130.525 660.37C130.525 660.547 130.459 660.701 130.329 660.832C130.198 660.963 130.044 661.028 129.867 661.028H129.797C129.61 661.028 129.451 660.963 129.321 660.832C129.19 660.701 129.125 660.547 129.125 660.37C129.125 660.305 129.092 660.272 129.027 660.272H127.669C127.519 660.272 127.393 660.221 127.291 660.118C127.188 660.015 127.137 659.889 127.137 659.74C127.137 659.591 127.188 659.465 127.291 659.362C127.393 659.259 127.519 659.208 127.669 659.208H129.027C129.092 659.208 129.125 659.175 129.125 659.11C129.125 658.933 129.19 658.779 129.321 658.648C129.451 658.517 129.61 658.452 129.797 658.452H129.867C130.044 658.452 130.198 658.517 130.329 658.648C130.459 658.779 130.525 658.933 130.525 659.11C130.525 659.175 130.562 659.208 130.637 659.208H133.437C133.511 659.208 133.549 659.175 133.549 659.11C133.549 658.933 133.614 658.779 133.745 658.648C133.875 658.517 134.029 658.452 134.207 658.452H134.277C134.463 658.452 134.622 658.517 134.753 658.648C134.883 658.779 134.949 658.933 134.949 659.11C134.949 659.175 134.981 659.208 135.047 659.208H136.405ZM131.463 662.694C131.341 662.871 131.197 663.077 131.029 663.31C131.019 663.329 131.01 663.347 131.001 663.366C131.001 663.375 131.005 663.389 131.015 663.408C131.024 663.417 131.038 663.422 131.057 663.422H135.439C135.653 663.422 135.84 663.501 135.999 663.66C136.157 663.809 136.237 663.991 136.237 664.206V666.124C136.237 666.339 136.157 666.525 135.999 666.684C135.84 666.843 135.653 666.922 135.439 666.922H130.525H129.993C129.778 666.922 129.591 666.843 129.433 666.684C129.283 666.525 129.209 666.339 129.209 666.124V665.228C129.209 665.209 129.199 665.195 129.181 665.186C129.162 665.177 129.143 665.181 129.125 665.2C128.863 665.452 128.583 665.69 128.285 665.914C128.126 666.035 127.953 666.082 127.767 666.054C127.58 666.026 127.421 665.933 127.291 665.774C127.179 665.634 127.137 665.475 127.165 665.298C127.202 665.111 127.295 664.971 127.445 664.878C128.378 664.271 129.157 663.548 129.783 662.708C129.801 662.689 129.801 662.671 129.783 662.652C129.773 662.624 129.755 662.61 129.727 662.61H127.683C127.533 662.61 127.403 662.559 127.291 662.456C127.188 662.344 127.137 662.213 127.137 662.064C127.137 661.915 127.188 661.789 127.291 661.686C127.403 661.583 127.533 661.532 127.683 661.532H130.399C130.492 661.532 130.553 661.495 130.581 661.42C130.581 661.401 130.59 661.378 130.609 661.35C130.627 661.322 130.637 661.303 130.637 661.294C130.851 660.846 131.197 660.631 131.673 660.65C131.859 660.659 132.004 660.743 132.107 660.902C132.209 661.051 132.228 661.215 132.163 661.392L132.149 661.406V661.42C132.139 661.439 132.144 661.462 132.163 661.49C132.181 661.518 132.205 661.532 132.233 661.532H136.391C136.54 661.532 136.666 661.583 136.769 661.686C136.881 661.789 136.937 661.915 136.937 662.064C136.937 662.213 136.881 662.344 136.769 662.456C136.666 662.559 136.54 662.61 136.391 662.61H131.645C131.57 662.61 131.509 662.638 131.463 662.694ZM134.711 664.43H130.651C130.567 664.43 130.525 664.472 130.525 664.556V665.746C130.525 665.83 130.567 665.872 130.651 665.872H134.711C134.795 665.872 134.837 665.83 134.837 665.746V664.556C134.837 664.472 134.795 664.43 134.711 664.43ZM125.961 669.26C125.765 669.26 125.597 669.19 125.457 669.05C125.317 668.91 125.247 668.742 125.247 668.546V657.738C125.247 657.523 125.326 657.337 125.485 657.178C125.643 657.019 125.83 656.94 126.045 656.94H136.461C136.629 656.94 136.773 657.001 136.895 657.122C137.016 657.243 137.077 657.388 137.077 657.556C137.077 657.724 137.016 657.869 136.895 657.99C136.773 658.102 136.629 658.158 136.461 658.158H126.801C126.726 658.158 126.689 658.2 126.689 658.284V667.314C126.689 667.398 126.726 667.44 126.801 667.44H136.601C136.769 667.44 136.913 667.501 137.035 667.622C137.156 667.743 137.217 667.888 137.217 668.056C137.217 668.224 137.156 668.369 137.035 668.49C136.913 668.611 136.769 668.672 136.601 668.672H126.759C126.712 668.672 126.689 668.695 126.689 668.742C126.689 668.882 126.637 669.003 126.535 669.106C126.432 669.209 126.311 669.26 126.171 669.26H125.961ZM139.653 665.578C139.475 665.615 139.307 665.592 139.149 665.508C138.999 665.424 138.897 665.298 138.841 665.13C138.785 664.971 138.799 664.822 138.883 664.682C138.967 664.533 139.088 664.435 139.247 664.388C140.964 663.949 142.541 663.333 143.979 662.54C144.053 662.503 144.063 662.456 144.007 662.4C143.773 662.129 143.395 661.7 142.873 661.112C142.742 660.972 142.681 660.809 142.691 660.622C142.7 660.435 142.779 660.281 142.929 660.16C143.078 660.039 143.251 659.983 143.447 659.992C143.643 660.001 143.806 660.076 143.937 660.216C144.338 660.645 144.758 661.117 145.197 661.63C145.253 661.705 145.313 661.719 145.379 661.672C146.723 660.739 147.637 659.805 148.123 658.872C148.141 658.853 148.141 658.83 148.123 658.802C148.104 658.774 148.081 658.76 148.053 658.76H143.573C143.489 658.76 143.419 658.788 143.363 658.844C142.476 659.703 141.445 660.496 140.269 661.224C140.119 661.317 139.961 661.341 139.793 661.294C139.625 661.247 139.499 661.149 139.415 661C139.321 660.841 139.298 660.678 139.345 660.51C139.391 660.342 139.489 660.207 139.639 660.104C141.207 659.077 142.453 657.99 143.377 656.842C143.498 656.693 143.652 656.595 143.839 656.548C144.025 656.501 144.207 656.52 144.385 656.604C144.543 656.679 144.646 656.795 144.693 656.954C144.739 657.113 144.716 657.262 144.623 657.402C144.576 657.467 144.595 657.5 144.679 657.5H149.061C149.238 657.5 149.387 657.561 149.509 657.682C149.63 657.803 149.691 657.953 149.691 658.13C149.691 658.606 149.597 659.007 149.411 659.334C148.636 660.725 147.381 661.971 145.645 663.072C145.635 663.081 145.631 663.095 145.631 663.114C145.64 663.123 145.654 663.128 145.673 663.128H150.223C150.437 663.128 150.624 663.207 150.783 663.366C150.941 663.525 151.021 663.711 151.021 663.926V668.364C151.021 668.569 150.946 668.747 150.797 668.896C150.647 669.045 150.47 669.12 150.265 669.12H150.125C149.957 669.12 149.812 669.059 149.691 668.938C149.569 668.826 149.509 668.686 149.509 668.518C149.509 668.453 149.481 668.42 149.425 668.42H144.049C143.983 668.42 143.951 668.453 143.951 668.518C143.951 668.686 143.89 668.826 143.769 668.938C143.657 669.059 143.517 669.12 143.349 669.12H143.209C143.003 669.12 142.831 669.05 142.691 668.91C142.551 668.77 142.481 668.597 142.481 668.392V664.794C142.481 664.766 142.467 664.743 142.439 664.724C142.411 664.705 142.383 664.701 142.355 664.71C141.496 665.037 140.595 665.326 139.653 665.578ZM149.509 664.486C149.509 664.402 149.471 664.36 149.397 664.36H144.077C143.993 664.36 143.951 664.402 143.951 664.486V667.104C143.951 667.188 143.993 667.23 144.077 667.23H149.397C149.471 667.23 149.509 667.188 149.509 667.104V664.486ZM153.373 660.272C153.195 660.272 153.046 660.211 152.925 660.09C152.803 659.959 152.743 659.805 152.743 659.628C152.743 659.451 152.803 659.306 152.925 659.194C153.046 659.073 153.195 659.012 153.373 659.012H154.199C154.273 659.012 154.311 658.97 154.311 658.886V657.388C154.311 657.183 154.381 657.01 154.521 656.87C154.67 656.73 154.847 656.66 155.053 656.66C155.258 656.66 155.431 656.73 155.571 656.87C155.711 657.01 155.781 657.183 155.781 657.388V658.886C155.781 658.97 155.823 659.012 155.907 659.012H156.453C156.63 659.012 156.779 659.073 156.901 659.194C157.022 659.306 157.083 659.451 157.083 659.628C157.083 659.805 157.022 659.959 156.901 660.09C156.779 660.211 156.63 660.272 156.453 660.272H155.907C155.823 660.272 155.781 660.309 155.781 660.384V663.24C155.781 663.315 155.818 663.343 155.893 663.324C156.117 663.249 156.28 663.193 156.383 663.156C156.541 663.1 156.686 663.114 156.817 663.198C156.957 663.273 157.041 663.389 157.069 663.548C157.097 663.735 157.064 663.907 156.971 664.066C156.887 664.225 156.761 664.337 156.593 664.402C156.443 664.458 156.21 664.542 155.893 664.654C155.818 664.682 155.781 664.733 155.781 664.808V667.09C155.781 668.014 155.697 668.583 155.529 668.798C155.37 669.013 154.941 669.12 154.241 669.12C154.175 669.12 153.928 669.111 153.499 669.092C153.321 669.083 153.167 669.013 153.037 668.882C152.915 668.761 152.85 668.611 152.841 668.434C152.831 668.275 152.883 668.14 152.995 668.028C153.116 667.916 153.256 667.865 153.415 667.874C153.611 667.883 153.83 667.888 154.073 667.888C154.194 667.888 154.264 667.86 154.283 667.804C154.301 667.739 154.311 667.524 154.311 667.16V665.27C154.311 665.242 154.301 665.219 154.283 665.2C154.264 665.172 154.241 665.163 154.213 665.172C153.877 665.265 153.629 665.331 153.471 665.368C153.303 665.405 153.149 665.373 153.009 665.27C152.869 665.167 152.789 665.027 152.771 664.85C152.761 664.663 152.808 664.495 152.911 664.346C153.023 664.197 153.172 664.099 153.359 664.052C153.452 664.033 153.587 664.001 153.765 663.954C153.951 663.907 154.091 663.87 154.185 663.842C154.269 663.823 154.311 663.772 154.311 663.688V660.384C154.311 660.309 154.273 660.272 154.199 660.272H153.373ZM165.077 659.04C165.254 659.059 165.399 659.138 165.511 659.278C165.623 659.418 165.674 659.577 165.665 659.754C165.646 660.034 165.627 660.263 165.609 660.44C165.59 660.617 165.553 660.785 165.497 660.944C165.45 661.103 165.408 661.229 165.371 661.322C165.333 661.406 165.259 661.49 165.147 661.574C165.035 661.649 164.937 661.7 164.853 661.728C164.778 661.756 164.638 661.784 164.433 661.812C164.227 661.831 164.045 661.84 163.887 661.84C163.737 661.84 163.504 661.84 163.187 661.84C162.617 661.84 162.253 661.793 162.095 661.7C161.936 661.607 161.857 661.397 161.857 661.07V658.396C161.857 658.312 161.815 658.27 161.731 658.27H159.869C159.794 658.27 159.757 658.312 159.757 658.396C159.729 659.917 159.192 661.061 158.147 661.826C157.979 661.938 157.797 661.975 157.601 661.938C157.405 661.901 157.246 661.798 157.125 661.63C157.013 661.481 156.975 661.317 157.013 661.14C157.05 660.963 157.143 660.818 157.293 660.706C157.685 660.398 157.955 660.034 158.105 659.614C158.263 659.185 158.347 658.578 158.357 657.794C158.357 657.579 158.436 657.397 158.595 657.248C158.753 657.089 158.94 657.01 159.155 657.01H162.529C162.743 657.01 162.93 657.089 163.089 657.248C163.247 657.407 163.327 657.593 163.327 657.808V660.37C163.327 660.491 163.345 660.561 163.383 660.58C163.429 660.599 163.565 660.608 163.789 660.608C164.031 660.608 164.185 660.561 164.251 660.468C164.316 660.375 164.367 660.085 164.405 659.6C164.414 659.423 164.484 659.283 164.615 659.18C164.755 659.068 164.909 659.021 165.077 659.04ZM159.603 666.712C159.631 666.703 159.645 666.684 159.645 666.656C159.654 666.619 159.649 666.595 159.631 666.586C158.968 666.073 158.431 665.583 158.021 665.116C157.899 664.976 157.853 664.813 157.881 664.626C157.909 664.43 158.002 664.281 158.161 664.178C158.329 664.066 158.501 664.029 158.679 664.066C158.865 664.094 159.029 664.183 159.169 664.332C159.626 664.845 160.209 665.345 160.919 665.83C160.975 665.867 161.035 665.863 161.101 665.816C161.931 665.228 162.594 664.533 163.089 663.73C163.107 663.711 163.107 663.688 163.089 663.66C163.079 663.632 163.061 663.618 163.033 663.618H157.545C157.367 663.618 157.218 663.557 157.097 663.436C156.975 663.315 156.915 663.165 156.915 662.988C156.915 662.811 156.975 662.661 157.097 662.54C157.218 662.419 157.367 662.358 157.545 662.358H164.055C164.232 662.358 164.381 662.419 164.503 662.54C164.624 662.661 164.685 662.811 164.685 662.988C164.685 663.455 164.587 663.856 164.391 664.192C163.877 665.069 163.191 665.858 162.333 666.558C162.277 666.595 162.291 666.637 162.375 666.684C163.243 667.123 164.106 667.468 164.965 667.72C165.133 667.767 165.254 667.869 165.329 668.028C165.403 668.187 165.408 668.345 165.343 668.504C165.268 668.681 165.142 668.812 164.965 668.896C164.797 668.98 164.624 668.994 164.447 668.938C163.215 668.574 162.099 668.112 161.101 667.552C161.026 667.505 160.956 667.501 160.891 667.538C159.929 668.07 158.753 668.537 157.363 668.938C157.176 668.994 156.989 668.98 156.803 668.896C156.625 668.812 156.499 668.677 156.425 668.49C156.359 668.322 156.364 668.159 156.439 668C156.523 667.851 156.653 667.753 156.831 667.706C157.857 667.445 158.781 667.113 159.603 666.712ZM167.583 658.312C167.415 658.312 167.27 658.251 167.149 658.13C167.027 658.009 166.967 657.864 166.967 657.696C166.967 657.528 167.027 657.383 167.149 657.262C167.27 657.141 167.415 657.08 167.583 657.08H178.531C178.699 657.08 178.843 657.141 178.965 657.262C179.086 657.383 179.147 657.528 179.147 657.696C179.147 657.864 179.086 658.009 178.965 658.13C178.843 658.251 178.699 658.312 178.531 658.312H175.591C175.507 658.312 175.465 658.349 175.465 658.424V658.928C175.465 659.003 175.507 659.04 175.591 659.04H177.719C177.933 659.04 178.12 659.119 178.279 659.278C178.437 659.437 178.517 659.623 178.517 659.838V661.644C178.517 661.859 178.437 662.045 178.279 662.204C178.12 662.353 177.933 662.428 177.719 662.428H168.997H168.395C168.18 662.428 167.993 662.353 167.835 662.204C167.676 662.045 167.597 661.859 167.597 661.644V659.838C167.597 659.623 167.676 659.437 167.835 659.278C167.993 659.119 168.18 659.04 168.395 659.04H170.523C170.607 659.04 170.649 659.003 170.649 658.928V658.424C170.649 658.349 170.607 658.312 170.523 658.312H167.583ZM170.649 661.224V660.216C170.649 660.132 170.607 660.09 170.523 660.09H169.109C169.034 660.09 168.997 660.132 168.997 660.216V661.224C168.997 661.308 169.034 661.35 169.109 661.35H170.523C170.607 661.35 170.649 661.308 170.649 661.224ZM175.465 660.216V661.224C175.465 661.308 175.507 661.35 175.591 661.35H177.005C177.079 661.35 177.117 661.308 177.117 661.224V660.216C177.117 660.132 177.079 660.09 177.005 660.09H175.591C175.507 660.09 175.465 660.132 175.465 660.216ZM172.105 658.424V658.928C172.105 659.003 172.147 659.04 172.231 659.04H173.883C173.967 659.04 174.009 659.003 174.009 658.928V658.424C174.009 658.349 173.967 658.312 173.883 658.312H172.231C172.147 658.312 172.105 658.349 172.105 658.424ZM172.105 660.216V661.224C172.105 661.308 172.147 661.35 172.231 661.35H173.883C173.967 661.35 174.009 661.308 174.009 661.224V660.216C174.009 660.132 173.967 660.09 173.883 660.09H172.231C172.147 660.09 172.105 660.132 172.105 660.216ZM168.605 662.988H177.565C177.723 662.988 177.863 663.049 177.985 663.17C178.106 663.291 178.167 663.431 178.167 663.59C178.167 663.749 178.106 663.889 177.985 664.01C177.863 664.131 177.723 664.192 177.565 664.192H168.605C168.446 664.192 168.306 664.131 168.185 664.01C168.073 663.889 168.017 663.749 168.017 663.59C168.017 663.431 168.073 663.291 168.185 663.17C168.306 663.049 168.446 662.988 168.605 662.988ZM167.583 666.012C167.415 666.012 167.27 665.951 167.149 665.83C167.027 665.709 166.967 665.564 166.967 665.396C166.967 665.228 167.027 665.083 167.149 664.962C167.27 664.841 167.415 664.78 167.583 664.78H178.531C178.699 664.78 178.843 664.841 178.965 664.962C179.086 665.083 179.147 665.228 179.147 665.396C179.147 665.564 179.086 665.709 178.965 665.83C178.843 665.951 178.699 666.012 178.531 666.012H176.459C176.44 666.012 176.426 666.021 176.417 666.04C176.417 666.049 176.421 666.059 176.431 666.068C177.112 666.469 177.877 666.969 178.727 667.566C178.876 667.669 178.965 667.813 178.993 668C179.021 668.177 178.983 668.341 178.881 668.49C178.778 668.639 178.638 668.728 178.461 668.756C178.283 668.784 178.12 668.747 177.971 668.644C177.345 668.196 176.585 667.701 175.689 667.16C175.511 667.048 175.399 666.889 175.353 666.684C175.306 666.479 175.343 666.287 175.465 666.11C175.483 666.091 175.483 666.073 175.465 666.054C175.455 666.026 175.437 666.012 175.409 666.012H174.163C174.079 666.012 174.037 666.049 174.037 666.124V667.65C174.037 668.322 173.934 668.737 173.729 668.896C173.523 669.064 172.996 669.148 172.147 669.148C171.661 669.148 171.218 669.139 170.817 669.12C170.649 669.111 170.504 669.045 170.383 668.924C170.261 668.803 170.196 668.658 170.187 668.49C170.177 668.331 170.229 668.196 170.341 668.084C170.453 667.972 170.588 667.921 170.747 667.93C171.251 667.958 171.615 667.972 171.839 667.972C172.165 667.972 172.357 667.953 172.413 667.916C172.469 667.869 172.497 667.734 172.497 667.51V666.124C172.497 666.049 172.459 666.012 172.385 666.012H170.425C170.406 666.012 170.387 666.021 170.369 666.04C170.359 666.059 170.359 666.077 170.369 666.096L170.411 666.138C170.551 666.306 170.611 666.502 170.593 666.726C170.583 666.941 170.495 667.118 170.327 667.258C169.627 667.837 168.903 668.322 168.157 668.714C167.989 668.807 167.811 668.826 167.625 668.77C167.447 668.714 167.307 668.607 167.205 668.448C167.111 668.299 167.088 668.145 167.135 667.986C167.181 667.818 167.284 667.692 167.443 667.608C168.236 667.188 168.997 666.675 169.725 666.068C169.762 666.031 169.748 666.012 169.683 666.012H167.583ZM182.353 659.208C182.166 659.208 182.012 659.147 181.891 659.026C181.769 658.905 181.709 658.751 181.709 658.564C181.709 658.377 181.769 658.223 181.891 658.102C182.012 657.981 182.166 657.92 182.353 657.92H192.251C192.437 657.92 192.591 657.985 192.713 658.116C192.843 658.237 192.909 658.387 192.909 658.564C192.909 659.031 192.839 659.451 192.699 659.824C192.101 661.336 191.098 662.549 189.689 663.464C189.521 663.576 189.339 663.609 189.143 663.562C188.947 663.515 188.793 663.408 188.681 663.24C188.578 663.081 188.545 662.909 188.583 662.722C188.629 662.535 188.732 662.391 188.891 662.288C190.095 661.495 190.893 660.51 191.285 659.334C191.303 659.25 191.28 659.208 191.215 659.208H182.353ZM185.573 661.182C185.582 660.977 185.657 660.804 185.797 660.664C185.946 660.515 186.123 660.44 186.329 660.44C186.534 660.44 186.707 660.515 186.847 660.664C186.987 660.804 187.052 660.977 187.043 661.182C186.996 663.142 186.725 664.654 186.231 665.718C185.745 666.782 184.933 667.622 183.795 668.238C183.617 668.331 183.431 668.35 183.235 668.294C183.048 668.238 182.903 668.121 182.801 667.944C182.707 667.785 182.689 667.617 182.745 667.44C182.801 667.253 182.913 667.113 183.081 667.02C183.949 666.525 184.569 665.839 184.943 664.962C185.325 664.085 185.535 662.825 185.573 661.182ZM205.313 658.704C205.49 658.881 205.705 658.97 205.957 658.97C206.209 658.97 206.423 658.881 206.601 658.704C206.778 658.527 206.867 658.312 206.867 658.06C206.867 657.808 206.778 657.593 206.601 657.416C206.423 657.239 206.209 657.15 205.957 657.15C205.705 657.15 205.49 657.239 205.313 657.416C205.135 657.593 205.047 657.808 205.047 658.06C205.047 658.312 205.135 658.527 205.313 658.704ZM204.571 656.674C204.953 656.291 205.415 656.1 205.957 656.1C206.498 656.1 206.96 656.291 207.343 656.674C207.725 657.057 207.917 657.519 207.917 658.06C207.917 658.601 207.725 659.063 207.343 659.446C206.96 659.829 206.498 660.02 205.957 660.02C205.891 660.02 205.859 660.053 205.859 660.118C205.868 660.221 205.868 660.328 205.859 660.44C205.588 662.839 204.771 664.691 203.409 665.998C202.046 667.305 200.095 668.131 197.557 668.476C197.361 668.504 197.183 668.457 197.025 668.336C196.866 668.224 196.768 668.07 196.731 667.874C196.693 667.697 196.731 667.533 196.843 667.384C196.964 667.225 197.118 667.132 197.305 667.104C199.61 666.777 201.327 666.031 202.457 664.864C203.586 663.697 204.225 661.98 204.375 659.712C204.375 659.637 204.337 659.6 204.263 659.6H196.087C195.891 659.6 195.723 659.535 195.583 659.404C195.452 659.264 195.387 659.096 195.387 658.9C195.387 658.704 195.452 658.541 195.583 658.41C195.723 658.27 195.891 658.2 196.087 658.2H203.759H203.885C203.959 658.2 203.997 658.167 203.997 658.102V658.06C203.997 657.519 204.188 657.057 204.571 656.674ZM218.081 657.738C218.239 657.579 218.426 657.5 218.641 657.5C218.855 657.5 219.037 657.579 219.187 657.738C219.345 657.887 219.425 658.069 219.425 658.284V661.21C219.425 663.469 218.921 665.191 217.913 666.376C216.905 667.552 215.29 668.317 213.069 668.672C212.873 668.7 212.691 668.653 212.523 668.532C212.364 668.42 212.261 668.266 212.215 668.07C212.177 667.883 212.21 667.715 212.313 667.566C212.425 667.407 212.574 667.309 212.761 667.272C214.655 666.936 215.976 666.32 216.723 665.424C217.479 664.528 217.857 663.137 217.857 661.252V658.284C217.857 658.069 217.931 657.887 218.081 657.738ZM211.445 663.73C211.239 663.73 211.062 663.655 210.913 663.506C210.763 663.357 210.689 663.175 210.689 662.96V658.27C210.689 658.055 210.763 657.873 210.913 657.724C211.062 657.575 211.239 657.5 211.445 657.5C211.659 657.5 211.841 657.579 211.991 657.738C212.149 657.887 212.229 658.065 212.229 658.27V662.96C212.229 663.165 212.149 663.347 211.991 663.506C211.841 663.655 211.659 663.73 211.445 663.73ZM231.357 668.14C229.92 668.14 228.744 667.664 227.829 666.712C226.915 665.76 226.457 664.486 226.457 662.89C226.457 661.266 226.919 659.987 227.843 659.054C228.767 658.111 230.032 657.64 231.637 657.64C232.291 657.64 232.893 657.687 233.443 657.78C233.63 657.817 233.784 657.911 233.905 658.06C234.027 658.209 234.087 658.382 234.087 658.578C234.087 658.737 234.022 658.867 233.891 658.97C233.761 659.063 233.616 659.091 233.457 659.054C232.963 658.933 232.403 658.872 231.777 658.872C230.573 658.872 229.645 659.217 228.991 659.908C228.347 660.589 228.025 661.583 228.025 662.89C228.025 664.141 228.343 665.125 228.977 665.844C229.612 666.553 230.452 666.908 231.497 666.908C232.02 666.908 232.524 666.833 233.009 666.684C233.075 666.675 233.107 666.628 233.107 666.544V663.282C233.107 663.198 233.065 663.156 232.981 663.156H230.699C230.531 663.156 230.387 663.1 230.265 662.988C230.153 662.867 230.097 662.722 230.097 662.554C230.097 662.386 230.153 662.246 230.265 662.134C230.387 662.013 230.531 661.952 230.699 661.952H233.779C233.994 661.952 234.181 662.031 234.339 662.19C234.498 662.349 234.577 662.535 234.577 662.75V666.712C234.577 666.955 234.507 667.179 234.367 667.384C234.237 667.58 234.059 667.715 233.835 667.79C233.107 668.023 232.281 668.14 231.357 668.14ZM241.54 664.36C241.54 662.587 240.896 661.7 239.608 661.7C238.32 661.7 237.676 662.587 237.676 664.36C237.676 666.133 238.32 667.02 239.608 667.02C240.896 667.02 241.54 666.133 241.54 664.36ZM242.128 667.16C241.521 667.813 240.681 668.14 239.608 668.14C238.535 668.14 237.695 667.813 237.088 667.16C236.481 666.497 236.178 665.564 236.178 664.36C236.178 663.156 236.481 662.227 237.088 661.574C237.695 660.911 238.535 660.58 239.608 660.58C240.681 660.58 241.521 660.911 242.128 661.574C242.735 662.227 243.038 663.156 243.038 664.36C243.038 665.564 242.735 666.497 242.128 667.16ZM247.577 661.7C246.364 661.7 245.757 662.587 245.757 664.36C245.757 665.256 245.916 665.923 246.233 666.362C246.56 666.801 247.008 667.02 247.577 667.02C248.072 667.02 248.497 666.857 248.851 666.53C249.215 666.203 249.397 665.83 249.397 665.41V663.31C249.397 662.89 249.215 662.517 248.851 662.19C248.497 661.863 248.072 661.7 247.577 661.7ZM247.227 668.14C246.378 668.14 245.673 667.799 245.113 667.118C244.563 666.437 244.287 665.517 244.287 664.36C244.287 663.165 244.553 662.237 245.085 661.574C245.627 660.911 246.341 660.58 247.227 660.58C248.058 660.58 248.767 660.879 249.355 661.476C249.365 661.485 249.374 661.49 249.383 661.49C249.393 661.49 249.397 661.485 249.397 661.476V658.228C249.397 658.023 249.467 657.85 249.607 657.71C249.757 657.57 249.934 657.5 250.139 657.5C250.345 657.5 250.517 657.57 250.657 657.71C250.797 657.85 250.867 658.023 250.867 658.228V667.314C250.867 667.501 250.797 667.664 250.657 667.804C250.527 667.935 250.368 668 250.181 668C249.995 668 249.831 667.935 249.691 667.804C249.561 667.664 249.491 667.501 249.481 667.314L249.467 667.104C249.467 667.095 249.463 667.09 249.453 667.09C249.444 667.09 249.435 667.095 249.425 667.104C249.08 667.487 248.739 667.757 248.403 667.916C248.067 668.065 247.675 668.14 247.227 668.14Z" fill="#1E1E1E"/>
<defs>
<linearGradient id="paint0_linear_1039_1717" x1="187.5" y1="0" x2="187.886" y2="625.108" gradientUnits="userSpaceOnUse">
<stop stop-color="#B394FF"/>
<stop offset="0.494792" stop-color="#FFA3E5"/>
<stop offset="1" stop-color="#FFE39B"/>
</linearGradient>
<clipPath id="clip0_1039_1717">
<rect width="33.9997" height="13.3752" fill="white" transform="translate(171 621.301)"/>
</clipPath>
<clipPath id="clip1_1039_1717">
<rect width="33.9997" height="13.3752" fill="white" transform="translate(171 621.301)"/>
</clipPath>
</defs>
</svg>
