<svg width="1200" height="1201" viewBox="0 0 1200 1201" fill="none" xmlns="http://www.w3.org/2000/svg">
<g clip-path="url(#clip0_179_589)">
<path d="M1005.62 536.216C942.846 543.791 897.489 753.848 937.014 809.31C942.564 817.016 974.889 829.41 998.889 780.473C1012.18 753.36 1050.49 730.748 1062.4 674.854C1077.6 603.229 1068.11 528.643 1005.62 536.216Z" fill="#EBC199"/>
<path d="M194.402 536.216C257.196 543.791 302.533 753.848 263.008 809.31C257.458 817.016 225.133 829.41 201.096 780.473C187.839 753.36 149.496 730.748 137.627 674.854C122.364 603.229 131.908 528.643 194.402 536.216Z" fill="#EBC199"/>
<path d="M1003.93 576.435C987.546 581.591 969.658 606.566 959.983 648.004C1017.23 635.704 1002.92 731.01 953.139 732.772C953.627 742.372 954.246 752.216 955.446 762.585C979.389 727.822 1003.78 741.754 1027.91 690.004C1049.66 643.374 1044.51 563.741 1003.93 576.435Z" fill="#C99B71"/>
<path d="M240.039 647.891C230.308 606.51 212.477 581.591 196.089 576.416C155.571 563.723 150.321 643.354 172.089 689.985C196.221 741.735 220.614 727.785 244.614 762.566C245.777 752.198 246.452 742.316 246.827 732.716C197.589 730.41 183.471 636.266 240.039 647.891Z" fill="#C99B71"/>
<path d="M599.983 132.248C327.921 132.248 196.858 337.898 213.246 623.816C216.527 681.36 252.283 868.991 285.958 936.323C320.458 1005.19 435.808 1111.37 506.458 1133.37C551.121 1147.2 648.902 1147.2 693.508 1133.37C764.196 1111.37 879.602 1005.19 914.064 936.323C947.852 868.991 983.496 681.398 986.721 623.816C1003.22 337.916 872.139 132.248 599.983 132.248Z" fill="#EBC199"/>
<path d="M895.614 515.235C833.402 482.254 714.339 480.66 669.958 503.666C660.414 508.054 666.733 539.254 674.721 536.31C736.502 511.86 836.233 511.335 894.114 538.391C901.839 541.9 905.046 519.81 895.614 515.235Z" fill="#AB8C57"/>
<path d="M304.408 515.235C366.621 482.254 485.646 480.66 530.064 503.666C539.552 508.054 533.289 539.254 525.302 536.31C463.389 511.86 363.789 511.335 305.852 538.391C298.202 541.9 295.014 519.81 304.408 515.235Z" fill="#AB8C57"/>
<path d="M673.427 800.76C665.664 795.36 647.458 803.704 600.002 803.704C552.639 803.704 534.377 795.36 526.614 800.76C517.314 807.322 532.108 836.835 600.002 836.835C667.933 836.835 682.764 807.324 673.427 800.76Z" fill="#C99B71"/>
<path d="M539.458 627.362C541.764 645.399 529.539 666.718 495.714 682.731C474.227 692.912 429.452 704.874 370.708 680.087C344.402 668.987 318.714 634.468 321.039 615.324C352.896 555.304 509.646 546.531 539.458 627.362Z" fill="white"/>
<path d="M433.127 564.66C467.102 564.66 494.721 592.204 494.721 626.141C494.721 660.191 467.121 687.716 433.127 687.716C399.058 687.716 371.496 660.191 371.496 626.141C371.496 592.204 399.058 564.66 433.127 564.66Z" fill="url(#paint0_linear_179_589)"/>
<path d="M402.321 625.037C402.321 667.618 463.914 667.618 463.914 625.037C463.914 585.548 402.321 585.548 402.321 625.037Z" fill="#1A1626"/>
<path d="M392.983 607.766C392.983 625.616 418.764 625.616 418.764 607.766C418.764 591.285 392.983 591.285 392.983 607.766Z" fill="#AB968C"/>
<path d="M539.758 629.725C514.746 549.475 344.214 561.343 321.039 615.306C329.608 546.193 518.458 527.912 539.758 629.725Z" fill="#C99B71"/>
<path d="M660.564 627.362C658.258 645.399 670.446 666.718 704.308 682.731C725.796 692.912 770.514 704.874 829.258 680.087C855.658 668.987 881.289 634.468 878.983 615.324C847.127 555.304 690.339 546.531 660.564 627.362Z" fill="white"/>
<path d="M765.508 564.66C799.521 564.66 827.102 592.204 827.102 626.141C827.102 660.191 799.539 687.716 765.508 687.716C731.496 687.716 703.933 660.191 703.933 626.141C703.914 592.204 731.496 564.66 765.508 564.66Z" fill="url(#paint1_linear_179_589)"/>
<path d="M734.758 625.037C734.758 667.618 796.352 667.618 796.352 625.037C796.352 585.548 734.758 585.548 734.758 625.037Z" fill="#1A1626"/>
<path d="M725.364 607.766C725.364 625.616 751.183 625.616 751.183 607.766C751.183 591.285 725.364 591.285 725.364 607.766Z" fill="#AB968C"/>
<path d="M660.264 629.725C685.221 549.531 855.658 561.006 878.964 615.306C870.302 546.193 681.564 527.912 660.264 629.725Z" fill="#C99B71"/>
<path d="M923.871 218.01L861.939 292.954C987.302 369.847 917.158 570.697 974.121 717.022C993.527 571.053 1084.18 252.585 923.871 218.01Z" fill="#4F4236"/>
<path d="M273.639 255.079L335.552 292.972C210.189 369.866 282.827 570.716 225.883 717.041C206.496 571.054 113.346 289.654 273.639 255.079Z" fill="#4F4236"/>
<path d="M858.246 271.747C937.877 271.447 945.789 401.554 945.789 401.554C945.789 401.554 969.677 253.391 868.539 253.391L858.246 271.747Z" fill="#635547"/>
<path d="M281.814 336.022C249.883 413.985 238.596 494.104 238.596 494.104C238.596 494.104 221.758 437.985 261.958 338.835L281.814 336.022Z" fill="#635547"/>
<path d="M889.971 241.393C952.202 234.924 967.296 336.024 967.296 336.024C967.296 336.024 975.827 218.331 896.777 226.243L889.971 241.393Z" fill="#635547"/>
<path d="M923.833 218.01C923.833 218.01 831.058 56.2539 598.746 56.2539C346.539 56.2539 187.539 169.279 182.139 388.11C336.621 235.823 743.533 472.598 923.833 218.01Z" fill="#4F4236"/>
<path d="M923.833 218.01C900.039 143.329 773.552 56.2539 598.746 56.2539C695.627 63.0977 823.333 111.079 836.477 141.398C836.477 141.398 702.471 69.1727 521.646 100.86C687.452 93.3227 796.914 198.735 750.321 199.298C704.927 199.86 536.364 205.523 436.352 267.191C500.683 262.841 627.714 297.454 621.939 299.685C493.858 349.241 236.796 231.379 183.996 388.073C382.521 218.01 761.271 491.948 923.833 218.01Z" fill="#4F4236"/>
<path d="M923.833 218.01C791.308 531.322 195.677 180.941 209.533 443.31C148.727 142.241 727.802 513.566 923.833 218.01Z" fill="#635547"/>
<path d="M887.552 264.941C824.533 141.285 620.271 96.8101 620.271 96.8101C620.271 96.8101 833.833 109.016 904.164 248.385L887.552 264.941Z" fill="#635547"/>
<path d="M855.189 292.955C796.521 237.999 513.546 257.368 513.546 257.368C513.546 257.368 719.833 195.137 877.596 275.012L855.189 292.955Z" fill="#635547"/>
<path d="M194.777 340.412C194.777 340.412 222.527 115.318 609.433 132.137C291.339 176.237 194.777 340.412 194.777 340.412Z" fill="#635547"/>
<path d="M218.702 327.491C218.702 327.491 371.983 126.885 708.508 177.473C427.727 169.279 218.702 327.491 218.702 327.491Z" fill="#635547"/>
<path d="M210.283 257.387C210.283 257.387 378.546 68.1429 654.414 71.3304C335.664 28.9554 210.283 257.387 210.283 257.387Z" fill="#635547"/>
<path d="M600 918.969C538.843 900.952 448.095 927.538 448.095 927.538C482.666 965.109 507.934 1013.96 600 1013.96C705.469 1013.96 723.413 958.519 751.905 927.536C751.905 927.536 661.157 900.877 600 918.969Z" fill="#C99B71"/>
<path d="M470.874 933.911C535.035 987.744 664.599 988.037 729.126 933.911C660.791 936.838 539.723 936.838 470.874 933.911Z" fill="white"/>
</g>
<defs>
<linearGradient id="paint0_linear_179_589" x1="433.123" y1="687.716" x2="433.123" y2="564.662" gradientUnits="userSpaceOnUse">
<stop stop-color="#A6694A"/>
<stop offset="1" stop-color="#4F2A1E"/>
</linearGradient>
<linearGradient id="paint1_linear_179_589" x1="765.518" y1="687.716" x2="765.518" y2="564.662" gradientUnits="userSpaceOnUse">
<stop stop-color="#A6694A"/>
<stop offset="1" stop-color="#4F2A1E"/>
</linearGradient>
<clipPath id="clip0_179_589">
<rect width="1200" height="1200" fill="white" transform="translate(0 0.349121)"/>
</clipPath>
</defs>
</svg>
