<?xml version="1.0" encoding="utf-8"?>
<!-- Generator: Adobe Illustrator 24.1.2, SVG Export Plug-In . SVG Version: 6.00 Build 0)  -->
<svg version="1.1" id="Layer_1" xmlns="http://www.w3.org/2000/svg" xmlns:xlink="http://www.w3.org/1999/xlink" x="0px" y="0px"
	 width="64px" height="64px" viewBox="0 0 64 64" style="enable-background:new 0 0 64 64;" xml:space="preserve">
<style type="text/css">
	.st0{fill:url(#SVGID_1_);}
	.st1{fill:url(#SVGID_2_);}
	.st2{fill:url(#SVGID_3_);}
	.st3{fill:url(#SVGID_4_);}
	.st4{fill:url(#SVGID_5_);}
</style>
<linearGradient id="SVGID_1_" gradientUnits="userSpaceOnUse" x1="-62" y1="55.69" x2="-62" y2="68" gradientTransform="matrix(1 0 0 -1 94 70)">
	<stop  offset="0" style="stop-color:#854500"/>
	<stop  offset="0.2123" style="stop-color:#A5630C"/>
	<stop  offset="0.5715" style="stop-color:#D6901E"/>
	<stop  offset="0.8456" style="stop-color:#F4AC2A"/>
	<stop  offset="1" style="stop-color:#FFB62E"/>
</linearGradient>
<path class="st0" d="M28.84,7.83c0.14-1.78,1.49-3.18,3.14-3.18c1.66,0,3,1.4,3.14,3.18h2.46C37.43,4.58,34.99,2,32,2
	c-2.99,0-5.43,2.58-5.59,5.83H28.84z"/>
<radialGradient id="SVGID_2_" cx="22.9075" cy="33.555" r="20.4457" gradientTransform="matrix(0.9333 0 0 4.9905 10.6204 -136.9982)" gradientUnits="userSpaceOnUse">
	<stop  offset="0" style="stop-color:#FFCF3D"/>
	<stop  offset="0.5856" style="stop-color:#ECA31A"/>
	<stop  offset="1" style="stop-color:#DE8100"/>
</radialGradient>
<path class="st1" d="M48.06,22.35c0-11.43-8.03-15.69-16.06-15.69s-16.06,4.25-16.06,15.69C15.94,45.55,4,42.6,4,54.26h28h28
	C60,42.6,48.06,45.55,48.06,22.35z"/>
<linearGradient id="SVGID_3_" gradientUnits="userSpaceOnUse" x1="-85.2614" y1="-1233.0428" x2="-34.7971" y2="-1233.0428" gradientTransform="matrix(1.0121 0 0 -0.5462 92.7556 -618.8641)">
	<stop  offset="0" style="stop-color:#4D2800"/>
	<stop  offset="0.0365" style="stop-color:#6B3E00"/>
	<stop  offset="0.1084" style="stop-color:#A26500"/>
	<stop  offset="0.1706" style="stop-color:#CA8100"/>
	<stop  offset="0.2198" style="stop-color:#E29300"/>
	<stop  offset="0.25" style="stop-color:#EB9900"/>
	<stop  offset="0.5" style="stop-color:#4D2800"/>
	<stop  offset="0.75" style="stop-color:#EB9900"/>
	<stop  offset="0.7802" style="stop-color:#E29300"/>
	<stop  offset="0.8294" style="stop-color:#CA8100"/>
	<stop  offset="0.8916" style="stop-color:#A26500"/>
	<stop  offset="0.9635" style="stop-color:#6B3E00"/>
	<stop  offset="1" style="stop-color:#4D2800"/>
</linearGradient>
<path class="st2" d="M57.54,55.13c0,3.42-51.07,3.42-51.07,0C6.46,50.36,57.54,50.36,57.54,55.13z"/>
<radialGradient id="SVGID_4_" cx="30.1937" cy="52.9575" r="8.9143" gradientUnits="userSpaceOnUse">
	<stop  offset="0" style="stop-color:#FFDB40"/>
	<stop  offset="0.5064" style="stop-color:#EEAF21"/>
	<stop  offset="1" style="stop-color:#DB8000"/>
</radialGradient>
<path class="st3" d="M25.7,51.95C25.25,52.87,25,53.9,25,55c0,3.87,3.14,7,7,7s7-3.14,7-7c0-1.09-0.26-2.12-0.7-3.04H25.7z"/>
<linearGradient id="SVGID_5_" gradientUnits="userSpaceOnUse" x1="32" y1="56.3669" x2="32" y2="50.9168">
	<stop  offset="0" style="stop-color:#472500"/>
	<stop  offset="0.1299" style="stop-color:#512C00"/>
	<stop  offset="0.3502" style="stop-color:#6C3F00"/>
	<stop  offset="0.634" style="stop-color:#975E00"/>
	<stop  offset="0.9672" style="stop-color:#D38900"/>
	<stop  offset="1" style="stop-color:#D98D00"/>
</linearGradient>
<path class="st4" d="M4,54.42c0,0.8,1.98,1.45,5.2,1.95c-1.73-0.35-2.74-0.76-2.74-1.24c0-3.77,51.07-3.77,51.07,0
	c0,0.48-1.01,0.89-2.74,1.24c3.22-0.5,5.2-1.15,5.2-1.95C60,49.75,4,49.75,4,54.42z"/>
</svg>
