<svg width="1051" height="723" viewBox="0 0 1051 723" fill="none" xmlns="http://www.w3.org/2000/svg">
<g clip-path="url(#clip0_164_1224)">
<path d="M803.2 0L0 28.0421L16.8253 509.974L820.026 481.931L803.2 0Z" fill="url(#paint0_linear_164_1224)"/>
<path d="M404.404 94.3525L16.8252 509.974L820.026 481.932L404.404 94.3525Z" fill="#B9BFC1"/>
<path d="M404.965 110.411L16.8252 509.974L820.026 481.932L404.965 110.411Z" fill="url(#paint1_linear_164_1224)"/>
<path d="M471.93 251.22L473.986 309.846L803.2 0L0 28.0421L345.479 310.445L343.572 255.688L471.948 251.201L471.93 251.22Z" fill="#99A8AE"/>
<path d="M395.599 337.515L0 28.0421L803.2 0L430.147 336.3C420.388 344.955 405.937 345.46 395.618 337.515H395.599Z" fill="url(#paint2_linear_164_1224)"/>
<path d="M395.599 337.515L0 28.0421L803.2 0L430.147 336.3C420.388 344.955 405.937 345.46 395.618 337.515H395.599Z" fill="url(#paint3_linear_164_1224)"/>
<path d="M406.779 162.943C356.714 87.6033 226.674 122.245 230.057 218.952C232.32 283.823 294.293 325.12 415.64 416.78C530.295 316.875 589.277 271.354 587.015 206.483C583.631 109.775 451.478 84.2943 406.779 162.943Z" fill="url(#paint4_linear_164_1224)"/>
<path d="M513.525 448.281C585.837 520.555 703.034 520.592 775.345 448.281C847.638 375.97 847.656 258.754 775.345 186.461C703.034 114.15 585.799 114.15 513.507 186.461C441.195 258.773 441.214 375.989 513.507 448.3L513.525 448.281Z" fill="url(#paint5_linear_164_1224)"/>
<path opacity="0.5" d="M772.821 188.985C701.912 118.076 586.94 118.094 516.049 188.985C445.14 259.931 445.159 374.867 516.049 445.757C586.958 516.647 701.856 516.685 772.784 445.757C843.674 374.848 843.674 259.931 772.784 189.004L772.821 188.985ZM764.035 436.989C697.949 503.075 590.866 503.056 524.798 436.989C458.787 370.922 458.75 263.82 524.798 197.715C590.847 131.704 698.005 131.686 764.035 197.715C830.102 263.764 830.083 370.922 764.035 436.971V436.989Z" fill="url(#paint6_linear_164_1224)"/>
<path d="M761.586 434.521C826.289 369.8 826.307 264.886 761.586 200.183C696.865 135.462 591.931 135.481 527.229 200.146C462.527 264.886 462.545 369.782 527.266 434.521C591.969 499.224 696.884 499.224 761.568 434.521H761.586Z" fill="url(#paint7_radial_164_1224)"/>
<path d="M681.946 370.885C737.787 328.691 754.613 256.903 719.541 210.689C684.508 164.327 610.869 161.018 555.121 203.268C499.28 245.443 482.436 317.231 517.507 363.556C552.56 409.901 626.236 413.172 681.965 370.903L681.946 370.885Z" fill="url(#paint8_radial_164_1224)"/>
<path d="M799.947 431.792L837 468.864L815.389 490.512L778.299 453.459L799.947 431.792Z" fill="url(#paint9_linear_164_1224)"/>
<path d="M808.734 489.11C805.537 485.895 832.401 459.012 835.617 462.227L840.795 467.387C844.011 470.584 817.128 497.486 813.912 494.27L808.734 489.11Z" fill="url(#paint10_linear_164_1224)"/>
<path d="M861.715 475.668L822.157 515.227C822.157 515.227 819.484 512.553 813.408 495.317C811.426 489.671 836.122 464.938 841.768 466.919C859.023 472.976 861.696 475.65 861.696 475.65L861.715 475.668Z" fill="url(#paint11_linear_164_1224)"/>
<path d="M982.988 596.923C995.775 609.691 956.217 649.249 943.43 636.481C917.313 610.364 844.965 538.034 822.419 515.47C817.932 510.983 857.453 471.406 861.939 475.893C884.298 498.252 955.077 569.011 982.988 596.941V596.923Z" fill="url(#paint12_linear_164_1224)"/>
<path d="M794.208 420.819C794.208 420.819 802.135 428.745 804.752 431.362C807.967 434.597 781.084 461.48 777.869 458.264L767.325 447.72C764.11 444.505 790.993 417.622 794.208 420.837V420.819Z" fill="url(#paint13_linear_164_1224)"/>
<path d="M790.862 424.183L801.406 434.727L802.883 433.25L792.339 422.707L790.862 424.183Z" fill="#737E80"/>
<path d="M787.703 428.502L798.246 439.046L799.723 437.569L789.18 427.025L787.703 428.502Z" fill="#737E80"/>
<path d="M784.487 432.708L795.031 443.271L796.508 441.794L785.964 431.231L784.487 432.708Z" fill="#737E80"/>
<path d="M780.767 436.447L791.31 447.01L792.787 445.533L782.243 434.97L780.767 436.447Z" fill="#737E80"/>
<path d="M777.046 440.186L787.59 450.749L789.067 449.272L778.523 438.709L777.046 440.186Z" fill="#737E80"/>
<path d="M772.766 443.42L783.309 453.964L784.805 452.469L774.261 441.925L772.766 443.42Z" fill="#737E80"/>
<path d="M768.466 446.561L779.028 457.105L780.505 455.628L769.943 445.084L768.466 446.561Z" fill="#737E80"/>
<path d="M761.586 434.521C826.289 369.8 826.307 264.886 761.586 200.183C696.865 135.462 591.931 135.481 527.229 200.146C462.527 264.886 462.545 369.782 527.266 434.521C591.969 499.224 696.884 499.224 761.568 434.521H761.586Z" fill="url(#paint14_radial_164_1224)"/>
<path d="M608.6 253.35L609.9 255.15C610.4 255.817 610.6 256.567 610.5 257.4C610.4 258.233 610.033 258.917 609.4 259.45C606.067 262.15 602.85 263.5 599.75 263.5C596.983 263.5 594.95 262.617 593.65 260.85C592.383 259.05 591.75 255.933 591.75 251.5C591.75 249.733 592 247.817 592.5 245.75C593 243.55 593.25 241.633 593.25 240C593.25 237.667 592.833 236.5 592 236.5C591.767 236.5 591.467 236.617 591.1 236.85C590.767 237.083 590.05 237.7 588.95 238.7C587.883 239.7 586.183 241.317 583.85 243.55C583.617 243.783 583.5 244.033 583.5 244.3V262.65C583.5 263.417 583.217 264.083 582.65 264.65C582.083 265.217 581.417 265.5 580.65 265.5H577.35C576.583 265.5 575.917 265.217 575.35 264.65C574.783 264.083 574.5 263.417 574.5 262.65V253.05C574.5 252.983 574.467 252.933 574.4 252.9C574.333 252.833 574.267 252.833 574.2 252.9C573.533 253.533 572.483 254.567 571.05 256C570.483 256.533 569.8 256.8 569 256.8C568.2 256.8 567.533 256.533 567 256L565 254C564.467 253.467 564.2 252.817 564.2 252.05C564.2 251.283 564.467 250.617 565 250.05C567.667 247.383 570.733 244.35 574.2 240.95C574.4 240.75 574.5 240.517 574.5 240.25V236.9C574.5 236.633 574.35 236.5 574.05 236.5H567.35C566.583 236.5 565.917 236.217 565.35 235.65C564.783 235.083 564.5 234.417 564.5 233.65V231.35C564.5 230.583 564.783 229.917 565.35 229.35C565.917 228.783 566.583 228.5 567.35 228.5H574.05C574.35 228.5 574.5 228.35 574.5 228.05V224.85C574.5 224.083 574.783 223.417 575.35 222.85C575.917 222.283 576.583 222 577.35 222H580.65C581.417 222 582.083 222.283 582.65 222.85C583.217 223.417 583.5 224.083 583.5 224.85V231.8C583.5 231.867 583.533 231.917 583.6 231.95C583.7 231.983 583.783 231.983 583.85 231.95C586.45 229.717 588.4 228.333 589.7 227.8C591 227.267 592.6 227 594.5 227C597.467 227 599.583 227.85 600.85 229.55C602.117 231.25 602.75 234.4 602.75 239C602.75 240.633 602.5 242.55 602 244.75C601.5 246.817 601.25 248.733 601.25 250.5C601.25 252.833 601.667 254 602.5 254C602.967 254 603.733 253.6 604.8 252.8C605.4 252.333 606.067 252.15 606.8 252.25C607.567 252.35 608.167 252.717 608.6 253.35ZM650.5 226.8C651.3 226.567 652.067 226.617 652.8 226.95C653.533 227.283 654.05 227.817 654.35 228.55C657.783 236.883 659.65 246.25 659.95 256.65C659.983 257.417 659.717 258.083 659.15 258.65C658.583 259.217 657.917 259.5 657.15 259.5H653.35C652.583 259.5 651.917 259.233 651.35 258.7C650.783 258.133 650.483 257.467 650.45 256.7C650.15 247.733 648.517 239.217 645.55 231.15C645.283 230.417 645.317 229.717 645.65 229.05C645.983 228.35 646.517 227.9 647.25 227.7L650.5 226.8ZM642.85 248C643.583 248.267 644.117 248.767 644.45 249.5C644.783 250.2 644.8 250.917 644.5 251.65C642.733 255.883 640.567 259.167 638 261.5C635.467 263.833 632.967 265 630.5 265C627.433 265 624.583 263.017 621.95 259.05C619.317 255.083 618 250.233 618 244.5C618 239.367 618.65 234.283 619.95 229.25C620.15 228.45 620.583 227.817 621.25 227.35C621.95 226.883 622.717 226.7 623.55 226.8L627.2 227.2C627.933 227.267 628.5 227.617 628.9 228.25C629.333 228.85 629.467 229.517 629.3 230.25C628.1 235.317 627.5 240.067 627.5 244.5C627.5 246.067 627.617 247.567 627.85 249C628.117 250.4 628.45 251.567 628.85 252.5C629.25 253.4 629.65 254.133 630.05 254.7C630.483 255.233 630.883 255.5 631.25 255.5C631.783 255.5 632.517 254.917 633.45 253.75C634.383 252.55 635.367 250.817 636.4 248.55C636.733 247.85 637.25 247.35 637.95 247.05C638.683 246.75 639.417 246.733 640.15 247L642.85 248ZM692.35 258C693.65 258 694.55 257.7 695.05 257.1C695.55 256.467 695.817 255.25 695.85 253.45C695.85 253.117 695.717 252.9 695.45 252.8C694.417 252.267 693.383 252 692.35 252C691.05 252 690.05 252.283 689.35 252.85C688.683 253.383 688.35 254.1 688.35 255C688.35 255.933 688.7 256.667 689.4 257.2C690.1 257.733 691.083 258 692.35 258ZM710 228.15C710.767 228.217 711.4 228.567 711.9 229.2C712.4 229.833 712.6 230.533 712.5 231.3L712.2 233.7C712.1 234.467 711.733 235.083 711.1 235.55C710.5 236.017 709.817 236.2 709.05 236.1C707.45 235.9 706.2 235.783 705.3 235.75C705 235.75 704.85 235.9 704.85 236.2V249.1C704.85 249.4 704.983 249.633 705.25 249.8C706.983 251.1 709 252.833 711.3 255C711.867 255.567 712.167 256.25 712.2 257.05C712.233 257.817 711.983 258.5 711.45 259.1L709.75 260.9C709.217 261.467 708.567 261.783 707.8 261.85C707.033 261.883 706.367 261.633 705.8 261.1C705.6 260.933 705.3 260.683 704.9 260.35C704.533 260.017 704.283 259.783 704.15 259.65C703.95 259.45 703.783 259.467 703.65 259.7C701.85 263.567 698.083 265.5 692.35 265.5C688.25 265.5 685.05 264.55 682.75 262.65C680.483 260.783 679.35 258.233 679.35 255C679.35 251.833 680.467 249.3 682.7 247.4C684.967 245.467 688.183 244.5 692.35 244.5C693.417 244.5 694.433 244.617 695.4 244.85C695.7 244.917 695.85 244.817 695.85 244.55V230.35C695.85 229.583 696.133 228.917 696.7 228.35C697.267 227.783 697.933 227.517 698.7 227.55C702.8 227.617 706.567 227.817 710 228.15ZM689.5 235.5H683.55C683.25 235.5 683.067 235.65 683 235.95C681.033 243.683 678.817 250.9 676.35 257.6C676.083 258.333 675.583 258.883 674.85 259.25C674.15 259.583 673.417 259.617 672.65 259.35L669.8 258.4C669.067 258.133 668.533 257.667 668.2 257C667.867 256.3 667.817 255.583 668.05 254.85C670.483 248.083 672.483 241.767 674.05 235.9C674.117 235.633 674 235.5 673.7 235.5H671.2C670.433 235.5 669.767 235.217 669.2 234.65C668.633 234.083 668.35 233.417 668.35 232.65V230.35C668.35 229.583 668.633 228.917 669.2 228.35C669.767 227.783 670.433 227.5 671.2 227.5H675.75C676.017 227.5 676.183 227.367 676.25 227.1C676.583 225.633 676.833 224.517 677 223.75C677.167 222.983 677.567 222.367 678.2 221.9C678.867 221.433 679.6 221.25 680.4 221.35L683.3 221.65C684.067 221.75 684.667 222.117 685.1 222.75C685.533 223.383 685.683 224.067 685.55 224.8C685.483 225.067 685.4 225.45 685.3 225.95C685.2 226.45 685.117 226.833 685.05 227.1C684.983 227.367 685.1 227.5 685.4 227.5H689.5C690.267 227.5 690.933 227.783 691.5 228.35C692.067 228.917 692.35 229.583 692.35 230.35V232.65C692.35 233.417 692.067 234.083 691.5 234.65C690.933 235.217 690.267 235.5 689.5 235.5Z" fill="#DEE6E4"/>
<path d="M583.7 303C585.567 303 586.933 303 587.8 303C588.667 303 589.667 303.117 590.8 303.35C591.967 303.55 592.733 303.717 593.1 303.85C593.5 303.983 593.983 304.417 594.55 305.15C595.117 305.883 595.45 306.517 595.55 307.05C595.65 307.583 595.783 308.6 595.95 310.1C596.117 311.567 596.2 312.883 596.2 314.05C596.2 315.217 596.2 317.033 596.2 319.5C596.2 326.133 595.383 330.883 593.75 333.75C592.15 336.583 589.8 338 586.7 338C584.467 338 581.717 337.6 578.45 336.8C577.683 336.6 577.1 336.15 576.7 335.45C576.3 334.75 576.2 334.017 576.4 333.25L577 330.75C577.2 330.017 577.633 329.45 578.3 329.05C578.967 328.65 579.683 328.533 580.45 328.7C582.583 329.233 584 329.5 584.7 329.5C586.033 329.5 586.7 325.667 586.7 318C586.7 314.533 586.567 312.5 586.3 311.9C586.067 311.3 585.2 311 583.7 311H580.25C579.95 311 579.767 311.133 579.7 311.4C577.9 319.467 575.55 327.6 572.65 335.8C572.383 336.567 571.883 337.117 571.15 337.45C570.45 337.817 569.733 337.883 569 337.65L566.65 336.85C565.917 336.617 565.367 336.15 565 335.45C564.667 334.783 564.633 334.067 564.9 333.3C567.3 326.167 569.35 318.883 571.05 311.45C571.117 311.15 571.017 311 570.75 311H567.55C566.783 311 566.117 310.717 565.55 310.15C564.983 309.583 564.7 308.917 564.7 308.15V305.85C564.7 305.083 564.983 304.417 565.55 303.85C566.117 303.283 566.783 303 567.55 303H572.4C572.667 303 572.833 302.867 572.9 302.6C573.133 301.433 573.5 299.333 574 296.3C574.133 295.5 574.517 294.85 575.15 294.35C575.783 293.817 576.5 293.583 577.3 293.65L579.85 293.85C580.617 293.917 581.25 294.25 581.75 294.85C582.25 295.417 582.45 296.067 582.35 296.8C582.083 298.8 581.783 300.733 581.45 302.6C581.383 302.867 581.5 303 581.8 303H583.7ZM605.15 302.7C607.25 308.9 609.2 315.433 611 322.3C611.2 323.033 611.1 323.733 610.7 324.4C610.3 325.067 609.717 325.483 608.95 325.65L605.75 326.45C604.983 326.617 604.267 326.5 603.6 326.1C602.933 325.7 602.5 325.117 602.3 324.35C600.7 318.25 598.733 311.75 596.4 304.85C596.167 304.117 596.233 303.417 596.6 302.75C596.967 302.083 597.517 301.667 598.25 301.5L601.45 300.7C602.217 300.5 602.95 300.6 603.65 301C604.383 301.367 604.883 301.933 605.15 302.7ZM630 327.25V321.8C630 321.7 629.95 321.633 629.85 321.6C629.75 321.533 629.65 321.517 629.55 321.55C626.85 322.617 625.5 324.1 625.5 326C625.5 326.8 625.817 327.55 626.45 328.25C627.083 328.917 627.767 329.25 628.5 329.25C629.133 329.25 629.533 329.133 629.7 328.9C629.9 328.667 630 328.117 630 327.25ZM640.5 311.5C645.367 311.5 649.333 312.717 652.4 315.15C655.467 317.55 657 320.5 657 324C657 331.333 653.1 335.85 645.3 337.55C644.533 337.717 643.8 337.567 643.1 337.1C642.433 336.667 642 336.05 641.8 335.25L641.2 332.75C641.033 332.017 641.15 331.333 641.55 330.7C641.95 330.033 642.517 329.6 643.25 329.4C644.883 328.933 646.033 328.317 646.7 327.55C647.4 326.783 647.75 325.767 647.75 324.5C647.75 323.267 647.067 322.217 645.7 321.35C644.367 320.45 642.633 320 640.5 320H639.45C639.15 320 639 320.15 639 320.45V328C639 331.7 638.333 334.2 637 335.5C635.667 336.833 633.167 337.5 629.5 337.5C625.8 337.5 622.7 336.417 620.2 334.25C617.733 332.083 616.5 329.333 616.5 326C616.5 323.1 617.633 320.483 619.9 318.15C622.2 315.783 625.433 314.017 629.6 312.85C629.867 312.783 630 312.6 630 312.3V307.9C630 307.633 629.85 307.5 629.55 307.5H621.85C621.083 307.5 620.417 307.217 619.85 306.65C619.283 306.083 619 305.417 619 304.65V302.85C619 302.083 619.283 301.417 619.85 300.85C620.417 300.283 621.083 300 621.85 300H629.55C629.85 300 630 299.85 630 299.55V297.35C630 296.583 630.283 295.917 630.85 295.35C631.417 294.783 632.083 294.5 632.85 294.5H636.15C636.917 294.5 637.583 294.783 638.15 295.35C638.717 295.917 639 296.583 639 297.35V299.55C639 299.85 639.15 300 639.45 300H645.65C646.417 300 647.083 300.283 647.65 300.85C648.217 301.417 648.5 302.083 648.5 302.85V304.65C648.5 305.417 648.217 306.083 647.65 306.65C647.083 307.217 646.417 307.5 645.65 307.5H639.45C639.15 307.5 639 307.633 639 307.9V311.1C639 311.367 639.15 311.5 639.45 311.5H640.5ZM661.6 307.8C661.967 308.467 662.05 309.183 661.85 309.95C661.65 310.683 661.2 311.217 660.5 311.55L659 312.35C658.3 312.717 657.567 312.783 656.8 312.55C656.067 312.317 655.5 311.85 655.1 311.15C653.867 308.983 652.483 306.667 650.95 304.2C650.55 303.533 650.433 302.817 650.6 302.05C650.767 301.283 651.183 300.7 651.85 300.3L653.25 299.5C653.917 299.1 654.617 298.983 655.35 299.15C656.117 299.317 656.717 299.733 657.15 300.4C658.55 302.633 660.033 305.1 661.6 307.8ZM694.5 297.5C698.933 297.5 702.45 299 705.05 302C707.683 304.967 709 309.133 709 314.5C709 322.467 706.8 328.367 702.4 332.2C698 336.033 690.967 338.117 681.3 338.45C680.5 338.483 679.817 338.217 679.25 337.65C678.717 337.117 678.417 336.45 678.35 335.65L678.15 332.85C678.117 332.083 678.35 331.417 678.85 330.85C679.383 330.283 680.033 329.983 680.8 329.95C687.7 329.717 692.45 328.467 695.05 326.2C697.683 323.9 699 320 699 314.5C699 309.167 697.167 306.5 693.5 306.5C690.733 306.5 688.25 307.683 686.05 310.05C683.85 312.417 682.483 315.45 681.95 319.15C681.85 319.95 681.517 320.633 680.95 321.2C680.383 321.733 679.7 322 678.9 322H675.6C674.833 322 674.167 321.717 673.6 321.15C673.033 320.583 672.75 319.917 672.75 319.15V299.35C672.75 298.583 673.033 297.917 673.6 297.35C674.167 296.783 674.833 296.5 675.6 296.5H679.15C679.917 296.5 680.583 296.783 681.15 297.35C681.717 297.917 682 298.583 682 299.35V303.5L682.1 303.45C685.667 299.483 689.8 297.5 694.5 297.5Z" fill="#DEE6E4"/>
<path d="M591.5 371.5C595.933 371.5 599.45 373 602.05 376C604.683 378.967 606 383.133 606 388.5C606 396.467 603.8 402.367 599.4 406.2C595 410.033 587.967 412.117 578.3 412.45C577.5 412.483 576.817 412.217 576.25 411.65C575.717 411.117 575.417 410.45 575.35 409.65L575.15 406.85C575.117 406.083 575.35 405.417 575.85 404.85C576.383 404.283 577.033 403.983 577.8 403.95C584.7 403.717 589.45 402.467 592.05 400.2C594.683 397.9 596 394 596 388.5C596 383.167 594.167 380.5 590.5 380.5C587.733 380.5 585.25 381.683 583.05 384.05C580.85 386.417 579.483 389.45 578.95 393.15C578.85 393.95 578.517 394.633 577.95 395.2C577.383 395.733 576.7 396 575.9 396H572.6C571.833 396 571.167 395.717 570.6 395.15C570.033 394.583 569.75 393.917 569.75 393.15V373.35C569.75 372.583 570.033 371.917 570.6 371.35C571.167 370.783 571.833 370.5 572.6 370.5H576.15C576.917 370.5 577.583 370.783 578.15 371.35C578.717 371.917 579 372.583 579 373.35V377.5L579.1 377.45C582.667 373.483 586.8 371.5 591.5 371.5ZM635.2 377C637.067 377 638.433 377 639.3 377C640.167 377 641.167 377.117 642.3 377.35C643.467 377.55 644.233 377.717 644.6 377.85C645 377.983 645.483 378.417 646.05 379.15C646.617 379.883 646.95 380.517 647.05 381.05C647.15 381.583 647.283 382.6 647.45 384.1C647.617 385.567 647.7 386.883 647.7 388.05C647.7 389.217 647.7 391.033 647.7 393.5C647.7 400.133 646.883 404.883 645.25 407.75C643.65 410.583 641.3 412 638.2 412C635.967 412 633.217 411.6 629.95 410.8C629.183 410.6 628.6 410.15 628.2 409.45C627.8 408.75 627.7 408.017 627.9 407.25L628.5 404.75C628.7 404.017 629.133 403.45 629.8 403.05C630.467 402.65 631.183 402.533 631.95 402.7C634.083 403.233 635.5 403.5 636.2 403.5C637.533 403.5 638.2 399.667 638.2 392C638.2 388.533 638.067 386.5 637.8 385.9C637.567 385.3 636.7 385 635.2 385H631.75C631.45 385 631.267 385.133 631.2 385.4C629.4 393.467 627.05 401.6 624.15 409.8C623.883 410.567 623.383 411.117 622.65 411.45C621.95 411.817 621.233 411.883 620.5 411.65L618.15 410.85C617.417 410.617 616.867 410.15 616.5 409.45C616.167 408.783 616.133 408.067 616.4 407.3C618.8 400.167 620.85 392.883 622.55 385.45C622.617 385.15 622.517 385 622.25 385H619.05C618.283 385 617.617 384.717 617.05 384.15C616.483 383.583 616.2 382.917 616.2 382.15V379.85C616.2 379.083 616.483 378.417 617.05 377.85C617.617 377.283 618.283 377 619.05 377H623.9C624.167 377 624.333 376.867 624.4 376.6C624.633 375.433 625 373.333 625.5 370.3C625.633 369.5 626.017 368.85 626.65 368.35C627.283 367.817 628 367.583 628.8 367.65L631.35 367.85C632.117 367.917 632.75 368.25 633.25 368.85C633.75 369.417 633.95 370.067 633.85 370.8C633.583 372.8 633.283 374.733 632.95 376.6C632.883 376.867 633 377 633.3 377H635.2ZM656.65 376.7C658.75 382.9 660.7 389.433 662.5 396.3C662.7 397.033 662.6 397.733 662.2 398.4C661.8 399.067 661.217 399.483 660.45 399.65L657.25 400.45C656.483 400.617 655.767 400.5 655.1 400.1C654.433 399.7 654 399.117 653.8 398.35C652.2 392.25 650.233 385.75 647.9 378.85C647.667 378.117 647.733 377.417 648.1 376.75C648.467 376.083 649.017 375.667 649.75 375.5L652.95 374.7C653.717 374.5 654.45 374.6 655.15 375C655.883 375.367 656.383 375.933 656.65 376.7ZM677.85 372H702.65C703.417 372 704.083 372.283 704.65 372.85C705.217 373.417 705.5 374.083 705.5 374.85V377.4C705.5 378.167 705.217 378.833 704.65 379.4C704.083 379.967 703.417 380.25 702.65 380.25H677.85C677.083 380.25 676.417 379.967 675.85 379.4C675.283 378.833 675 378.167 675 377.4V374.85C675 374.083 675.283 373.417 675.85 372.85C676.417 372.283 677.083 372 677.85 372ZM707.95 406.7C708.117 407.467 707.983 408.2 707.55 408.9C707.117 409.567 706.517 409.983 705.75 410.15C699.95 411.383 694.7 412 690 412C683.867 412 679.083 410.95 675.65 408.85C672.217 406.75 670.5 403.967 670.5 400.5C670.5 398.733 670.967 396.967 671.9 395.2C672.833 393.4 674.45 391.317 676.75 388.95C677.317 388.383 678 388.083 678.8 388.05C679.633 387.983 680.383 388.183 681.05 388.65L683.45 390.35C684.05 390.783 684.367 391.367 684.4 392.1C684.467 392.833 684.25 393.467 683.75 394C681.417 396.467 680.25 398.3 680.25 399.5C680.25 400.7 681.05 401.667 682.65 402.4C684.283 403.133 686.733 403.5 690 403.5C693.967 403.5 698.633 402.9 704 401.7C704.767 401.533 705.467 401.667 706.1 402.1C706.767 402.5 707.167 403.067 707.3 403.8L707.95 406.7Z" fill="#DEE6E4"/>
<path d="M586.902 206.334C586.36 191.06 582.621 177.581 576.508 165.991C558.598 174.011 541.829 185.321 527.135 200.015C484.492 242.695 469.985 302.799 483.558 357.35C553.326 295.583 588.659 256.81 586.902 206.334Z" fill="#6CEA9B"/>
<path d="M571.666 184.162C574.059 191.266 575.405 198.837 575.704 206.801C577.181 246.902 550.504 279.449 490.55 331.476C488.774 313.455 490.363 295.171 495.279 277.636C502.496 251.93 516.816 228.319 536.688 209.381C547.157 199.417 558.879 190.986 571.666 184.162ZM578.695 165.991C559.907 174.011 542.278 185.321 526.855 200.015C482.081 242.695 466.845 302.799 481.109 357.35C554.355 295.583 591.464 256.81 589.613 206.334C589.052 191.06 585.108 177.581 578.714 165.991H578.695Z" fill="url(#paint15_linear_164_1224)"/>
</g>
<defs>
<linearGradient id="paint0_linear_164_1224" x1="418.44" y1="495.946" x2="401.611" y2="14.0277" gradientUnits="userSpaceOnUse">
<stop stop-color="#E6EBED"/>
<stop offset="0.51" stop-color="#DBE2E5"/>
<stop offset="1" stop-color="#CCD5D9"/>
</linearGradient>
<linearGradient id="paint1_linear_164_1224" x1="418.44" y1="495.946" x2="404.977" y2="110.415" gradientUnits="userSpaceOnUse">
<stop stop-color="#E6EBED"/>
<stop offset="0.26" stop-color="#E3E9EB"/>
<stop offset="0.45" stop-color="#DAE1E4"/>
<stop offset="0.58" stop-color="#CFD8DD"/>
</linearGradient>
<linearGradient id="paint2_linear_164_1224" x1="412.71" y1="331.85" x2="370.941" y2="-864.258" gradientUnits="userSpaceOnUse">
<stop stop-color="#B9C2C7"/>
<stop offset="0.05" stop-color="#C2CACF"/>
<stop offset="0.2" stop-color="#DCE2E5"/>
<stop offset="0.3" stop-color="#E6EBED"/>
</linearGradient>
<linearGradient id="paint3_linear_164_1224" x1="413.104" y1="343.135" x2="401.611" y2="14.0277" gradientUnits="userSpaceOnUse">
<stop stop-color="#E6EBED"/>
<stop offset="0.58" stop-color="#E3E9EC"/>
<stop offset="1" stop-color="#DAE3E8"/>
</linearGradient>
<linearGradient id="paint4_linear_164_1224" x1="415.675" y1="416.766" x2="405.288" y2="119.308" gradientUnits="userSpaceOnUse">
<stop stop-color="#EA334C"/>
<stop offset="0.54" stop-color="#EA334A"/>
<stop offset="1" stop-color="#EA3366"/>
</linearGradient>
<linearGradient id="paint5_linear_164_1224" x1="775.345" y1="448.281" x2="513.525" y2="186.443" gradientUnits="userSpaceOnUse">
<stop stop-color="#737E80"/>
<stop offset="1" stop-color="#B3C2C6"/>
</linearGradient>
<linearGradient id="paint6_linear_164_1224" x1="772.821" y1="445.72" x2="516.068" y2="188.966" gradientUnits="userSpaceOnUse">
<stop stop-color="#CFD8DD"/>
<stop offset="1" stop-color="#E6EBED"/>
</linearGradient>
<radialGradient id="paint7_radial_164_1224" cx="0" cy="0" r="1" gradientUnits="userSpaceOnUse" gradientTransform="translate(638.59 315.822) rotate(180) scale(165.772 165.772)">
<stop stop-color="#F7EFF0"/>
<stop offset="0.3" stop-color="#F4EDEF"/>
<stop offset="0.57" stop-color="#E9E8EE"/>
<stop offset="0.82" stop-color="#D7E0EB"/>
<stop offset="1" stop-color="#C5D7E8"/>
</radialGradient>
<radialGradient id="paint8_radial_164_1224" cx="0" cy="0" r="1" gradientUnits="userSpaceOnUse" gradientTransform="translate(563.565 220.662) rotate(52.88) scale(203.451 245.287)">
<stop stop-color="white"/>
<stop offset="1" stop-color="white" stop-opacity="0"/>
</radialGradient>
<linearGradient id="paint9_linear_164_1224" x1="818.492" y1="450.318" x2="796.825" y2="471.967" gradientUnits="userSpaceOnUse">
<stop offset="0.24" stop-color="#B3C2C6"/>
<stop offset="0.81" stop-color="#737E80"/>
</linearGradient>
<linearGradient id="paint10_linear_164_1224" x1="838.197" y1="464.807" x2="811.314" y2="491.69" gradientUnits="userSpaceOnUse">
<stop stop-color="#B3C2C6"/>
<stop offset="0.18" stop-color="#9CA9AC"/>
<stop offset="0.39" stop-color="#859194"/>
<stop offset="0.59" stop-color="#788385"/>
<stop offset="0.75" stop-color="#737E80"/>
</linearGradient>
<linearGradient id="paint11_linear_164_1224" x1="813.576" y1="506.627" x2="853.134" y2="467.069" gradientUnits="userSpaceOnUse">
<stop offset="0.12" stop-color="#302C3B"/>
<stop offset="0.62" stop-color="#45505B"/>
<stop offset="0.89" stop-color="#4E5E67"/>
</linearGradient>
<linearGradient id="paint12_linear_164_1224" x1="886.018" y1="579.069" x2="925.576" y2="539.511" gradientUnits="userSpaceOnUse">
<stop offset="0.33" stop-color="#302C3B"/>
<stop offset="0.55" stop-color="#383946"/>
<stop offset="0.96" stop-color="#4C5A64"/>
<stop offset="1" stop-color="#4E5E67"/>
</linearGradient>
<linearGradient id="paint13_linear_164_1224" x1="793.741" y1="447.216" x2="778.355" y2="431.848" gradientUnits="userSpaceOnUse">
<stop stop-color="#B3C2C6"/>
<stop offset="0.18" stop-color="#9CA9AC"/>
<stop offset="0.39" stop-color="#859194"/>
<stop offset="0.59" stop-color="#788385"/>
<stop offset="0.75" stop-color="#737E80"/>
</linearGradient>
<radialGradient id="paint14_radial_164_1224" cx="0" cy="0" r="1" gradientUnits="userSpaceOnUse" gradientTransform="translate(638.59 315.822) rotate(180) scale(165.772 165.772)">
<stop stop-color="#204F41"/>
<stop offset="0.3" stop-color="#205041"/>
<stop offset="0.55" stop-color="#163B30"/>
<stop offset="0.82" stop-color="#19332B"/>
<stop offset="1" stop-color="#182D26"/>
</radialGradient>
<linearGradient id="paint15_linear_164_1224" x1="493.709" y1="244.004" x2="566.301" y2="279.412" gradientUnits="userSpaceOnUse">
<stop stop-color="#51B375"/>
<stop offset="0.41" stop-color="#61BF85"/>
<stop offset="0.59" stop-color="#A3F1C8"/>
<stop offset="0.99" stop-color="#B0FBD6"/>
</linearGradient>
<clipPath id="clip0_164_1224">
<rect width="1050.06" height="723" fill="white"/>
</clipPath>
</defs>
</svg>
