<svg width="1200" height="1201" viewBox="0 0 1200 1201" fill="none" xmlns="http://www.w3.org/2000/svg">
<g clip-path="url(#clip0_25_768)">
<g clip-path="url(#clip1_25_768)">
<path d="M710.113 310.865H287.806C261.833 310.865 240.777 331.912 240.777 357.875V1019.99C240.777 1045.95 261.833 1067 287.806 1067H710.113C736.086 1067 757.141 1045.95 757.141 1019.99V357.875C757.141 331.912 736.086 310.865 710.113 310.865Z" fill="#1E1E1E"/>
<path d="M683.267 284.03H260.96C234.987 284.03 213.932 305.077 213.932 331.04V993.155C213.932 1019.12 234.987 1040.17 260.96 1040.17H683.267C709.24 1040.17 730.295 1019.12 730.295 993.155V331.04C730.295 305.077 709.24 284.03 683.267 284.03Z" fill="#EE4C53"/>
<path d="M575.595 493.828H351.482C342.192 493.828 334.66 501.356 334.66 510.643C334.66 519.93 342.192 527.459 351.482 527.459H575.595C584.885 527.459 592.417 519.93 592.417 510.643C592.417 501.356 584.885 493.828 575.595 493.828Z" fill="#BFE7FF"/>
<path d="M555.683 546.59H379.023C369.733 546.59 362.201 554.119 362.201 563.406C362.201 572.693 369.733 580.221 379.023 580.221H555.683C564.973 580.221 572.505 572.693 572.505 563.406C572.505 554.119 564.973 546.59 555.683 546.59Z" fill="#BFE7FF"/>
<path d="M418.635 661.596H305.014C280.822 661.596 261.211 681.199 261.211 705.382C261.211 729.564 280.822 749.167 305.014 749.167H418.635C442.826 749.167 462.437 729.564 462.437 705.382C462.437 681.199 442.826 661.596 418.635 661.596Z" fill="#F7ACB0"/>
<path d="M418.635 770.346H305.014C280.822 770.346 261.211 789.949 261.211 814.131C261.211 838.314 280.822 857.917 305.014 857.917H418.635C442.826 857.917 462.437 838.314 462.437 814.131C462.437 789.949 442.826 770.346 418.635 770.346Z" fill="#F7ACB0"/>
<path d="M639.213 770.346H525.592C501.4 770.346 481.789 789.949 481.789 814.131C481.789 838.314 501.4 857.917 525.592 857.917H639.213C663.404 857.917 683.016 838.314 683.016 814.131C683.016 789.949 663.404 770.346 639.213 770.346Z" fill="white"/>
<path d="M639.213 661.596H525.592C501.4 661.596 481.789 681.199 481.789 705.382C481.789 729.564 501.4 749.167 525.592 749.167H639.213C663.404 749.167 683.016 729.564 683.016 705.382C683.016 681.199 663.404 661.596 639.213 661.596Z" fill="#8FD6FF"/>
<path d="M825.007 235.36H402.7C376.727 235.36 355.672 256.407 355.672 282.37V944.485C355.672 970.448 376.727 991.495 402.7 991.495H825.007C850.98 991.495 872.035 970.448 872.035 944.485V282.37C872.035 256.407 850.98 235.36 825.007 235.36Z" fill="#1E1E1E"/>
<path d="M798.161 208.525H375.854C349.881 208.525 328.826 229.572 328.826 255.535V917.65C328.826 943.613 349.881 964.66 375.854 964.66H798.161C824.134 964.66 845.19 943.613 845.19 917.65V255.535C845.19 229.572 824.134 208.525 798.161 208.525Z" fill="#BD50E3"/>
<path d="M690.49 418.303H466.377C457.086 418.303 449.555 425.831 449.555 435.118C449.555 444.405 457.086 451.934 466.377 451.934H690.49C699.78 451.934 707.311 444.405 707.311 435.118C707.311 425.831 699.78 418.303 690.49 418.303Z" fill="#BFE7FF"/>
<path d="M670.577 471.085H493.918C484.627 471.085 477.096 478.614 477.096 487.9C477.096 497.187 484.627 504.716 493.918 504.716H670.577C679.868 504.716 687.399 497.187 687.399 487.9C687.399 478.614 679.868 471.085 670.577 471.085Z" fill="#BFE7FF"/>
<path d="M533.529 586.071H419.908C395.717 586.071 376.105 605.674 376.105 629.857C376.105 654.039 395.717 673.642 419.908 673.642H533.529C557.721 673.642 577.332 654.039 577.332 629.857C577.332 605.674 557.721 586.071 533.529 586.071Z" fill="#DFADF1"/>
<path d="M533.529 694.821H419.908C395.717 694.821 376.105 714.425 376.105 738.607C376.105 762.789 395.717 782.393 419.908 782.393H533.529C557.721 782.393 577.332 762.789 577.332 738.607C577.332 714.425 557.721 694.821 533.529 694.821Z" fill="#DFADF1"/>
<path d="M754.107 694.821H640.486C616.295 694.821 596.684 714.425 596.684 738.607C596.684 762.789 616.295 782.393 640.486 782.393H754.107C778.299 782.393 797.91 762.789 797.91 738.607C797.91 714.425 778.299 694.821 754.107 694.821Z" fill="white"/>
<path d="M754.107 586.071H640.486C616.295 586.071 596.684 605.674 596.684 629.857C596.684 654.039 616.295 673.642 640.486 673.642H754.107C778.299 673.642 797.91 654.039 797.91 629.857C797.91 605.674 778.299 586.071 754.107 586.071Z" fill="#8FD6FF"/>
<path d="M939.904 159.835H517.597C491.624 159.835 470.568 180.882 470.568 206.845V868.96C470.568 894.923 491.624 915.97 517.597 915.97H939.904C965.877 915.97 986.932 894.923 986.932 868.96V206.845C986.932 180.882 965.877 159.835 939.904 159.835Z" fill="#1E1E1E"/>
<path d="M913.058 133H490.751C464.778 133 443.723 154.047 443.723 180.01V842.125C443.723 868.088 464.778 889.135 490.751 889.135H913.058C939.031 889.135 960.086 868.088 960.086 842.125V180.01C960.086 154.047 939.031 133 913.058 133Z" fill="#01ABFF"/>
<path d="M805.386 342.797H581.273C571.983 342.797 564.451 350.326 564.451 359.613C564.451 368.9 571.983 376.428 581.273 376.428H805.386C814.676 376.428 822.208 368.9 822.208 359.613C822.208 350.326 814.676 342.797 805.386 342.797Z" fill="#BFE7FF"/>
<path d="M785.474 395.56H608.814C599.524 395.56 591.992 403.089 591.992 412.376C591.992 421.662 599.524 429.191 608.814 429.191H785.474C794.764 429.191 802.296 421.662 802.296 412.376C802.296 403.089 794.764 395.56 785.474 395.56Z" fill="#BFE7FF"/>
<path d="M648.426 510.565H534.805C510.613 510.565 491.002 530.169 491.002 554.351C491.002 578.533 510.613 598.137 534.805 598.137H648.426C672.617 598.137 692.228 578.533 692.228 554.351C692.228 530.169 672.617 510.565 648.426 510.565Z" fill="#8FD6FF"/>
<path d="M648.426 619.315H534.805C510.613 619.315 491.002 638.919 491.002 663.101C491.002 687.283 510.613 706.887 534.805 706.887H648.426C672.617 706.887 692.228 687.283 692.228 663.101C692.228 638.919 672.617 619.315 648.426 619.315Z" fill="#8FD6FF"/>
<path d="M869.004 619.315H755.383C731.191 619.315 711.58 638.919 711.58 663.101C711.58 687.283 731.191 706.887 755.383 706.887H869.004C893.195 706.887 912.806 687.283 912.806 663.101C912.806 638.919 893.195 619.315 869.004 619.315Z" fill="white"/>
<path d="M869.004 510.565H755.383C731.191 510.565 711.58 530.169 711.58 554.351C711.58 578.533 731.191 598.137 755.383 598.137H869.004C893.195 598.137 912.806 578.533 912.806 554.351C912.806 530.169 893.195 510.565 869.004 510.565Z" fill="#8FD6FF"/>
</g>
</g>
<defs>
<clipPath id="clip0_25_768">
<rect width="1200" height="1200" fill="white" transform="translate(0 0.349121)"/>
</clipPath>
<clipPath id="clip1_25_768">
<rect width="773" height="934" fill="white" transform="translate(213.932 133)"/>
</clipPath>
</defs>
</svg>
