<svg width="1284" height="2778" viewBox="0 0 1284 2778" fill="none" xmlns="http://www.w3.org/2000/svg">
<rect width="1284" height="2778" fill="white"/>
<path d="M359.257 2151.84L355.925 2148.85C354.546 2147.63 353.741 2146.09 353.511 2144.26C353.358 2142.42 353.818 2140.73 354.89 2139.2C366.765 2121.5 374.77 2101.32 378.907 2078.64C379.06 2078.03 378.792 2077.72 378.103 2077.72H361.096C359.334 2077.72 357.801 2077.07 356.499 2075.77C355.197 2074.47 354.546 2072.93 354.546 2071.17V2069.33C354.546 2067.57 355.197 2066.04 356.499 2064.74C357.801 2063.43 359.334 2062.78 361.096 2062.78H380.056C380.746 2062.78 381.09 2062.52 381.09 2061.98L381.435 2058.19C381.588 2056.42 382.316 2054.93 383.618 2053.71C384.921 2052.4 386.453 2051.79 388.215 2051.87L393.041 2051.98C394.803 2052.06 396.297 2052.75 397.523 2054.05C398.749 2055.35 399.323 2056.88 399.247 2058.65C399.247 2058.95 399.208 2059.49 399.132 2060.26C399.055 2061.02 399.017 2061.56 399.017 2061.86C399.017 2062.48 399.323 2062.78 399.936 2062.78H452.566C454.328 2062.78 455.86 2063.43 457.162 2064.74C458.465 2066.04 459.116 2067.57 459.116 2069.33V2071.17C459.116 2072.93 458.465 2074.47 457.162 2075.77C455.86 2077.07 454.328 2077.72 452.566 2077.72H398.097C397.485 2077.72 397.101 2078.03 396.948 2078.64C396.795 2079.79 396.374 2081.94 395.684 2085.08C395.531 2085.84 395.799 2086.23 396.489 2086.23H444.982C446.744 2086.23 448.276 2086.88 449.578 2088.18C450.88 2089.4 451.532 2090.9 451.532 2092.66V2094.15C451.532 2098.67 450.651 2102.81 448.889 2106.57C444.522 2115.76 438.891 2123.69 431.997 2130.35C431.537 2130.81 431.575 2131.19 432.111 2131.5C439.083 2135.02 447.05 2138.01 456.013 2140.46C457.699 2140.92 458.924 2141.96 459.69 2143.57C460.533 2145.1 460.648 2146.67 460.035 2148.28L459.001 2151.38C458.388 2153.14 457.277 2154.45 455.668 2155.29C454.06 2156.21 452.374 2156.4 450.612 2155.86C437.512 2152.19 426.519 2147.7 417.632 2142.42C417.02 2141.96 416.445 2141.96 415.909 2142.42C407.099 2147.63 396.067 2152.11 382.814 2155.86C381.052 2156.4 379.328 2156.21 377.643 2155.29C376.034 2154.45 374.923 2153.14 374.311 2151.38L372.242 2145.75C372.166 2145.6 372.051 2145.52 371.897 2145.52C371.744 2145.44 371.591 2145.48 371.438 2145.64C370.212 2147.55 369.025 2149.31 367.875 2150.92C366.88 2152.38 365.501 2153.18 363.739 2153.33C361.977 2153.49 360.483 2152.99 359.257 2151.84ZM389.364 2108.17C389.287 2108.33 389.326 2108.48 389.479 2108.63C389.632 2108.71 389.785 2108.71 389.939 2108.63L396.029 2105.88C397.714 2105.11 399.438 2104.99 401.2 2105.53C402.962 2106.07 404.379 2107.1 405.452 2108.63C408.516 2113.15 412.078 2117.18 416.139 2120.7C416.598 2121.01 417.058 2121.01 417.518 2120.7C423.416 2115.49 428.358 2109.13 432.341 2101.62C432.648 2100.93 432.494 2100.59 431.882 2100.59H392.811C392.122 2100.59 391.701 2100.93 391.547 2101.62C391.318 2102.39 390.935 2103.5 390.398 2104.96C389.939 2106.41 389.594 2107.48 389.364 2108.17ZM374.655 2140.46C374.579 2140.77 374.732 2140.96 375.115 2141.04C385.227 2138.36 394.037 2135.1 401.545 2131.27C402.158 2130.96 402.234 2130.58 401.775 2130.12C397.025 2125.45 392.582 2119.78 388.445 2113.12C388.292 2112.96 388.1 2112.92 387.87 2113C387.717 2113 387.602 2113.08 387.525 2113.23C383.772 2123.27 379.482 2132.34 374.655 2140.46ZM577.935 2066.12C577.399 2067.65 576.365 2068.8 574.833 2069.56C573.3 2070.33 571.73 2070.44 570.121 2069.91C568.589 2069.37 567.402 2068.34 566.559 2066.81C565.869 2065.43 564.759 2063.36 563.226 2060.6C562.46 2059.07 562.307 2057.54 562.767 2056C563.303 2054.39 564.337 2053.21 565.869 2052.44C567.402 2051.68 569.01 2051.56 570.696 2052.1C572.381 2052.63 573.607 2053.63 574.373 2055.08C574.756 2055.85 575.292 2056.96 575.982 2058.42C576.748 2059.87 577.284 2060.91 577.59 2061.52C578.356 2063.05 578.471 2064.58 577.935 2066.12ZM528.178 2107.6C526.416 2107.75 524.846 2107.25 523.467 2106.11C522.164 2104.96 521.437 2103.5 521.283 2101.74L521.054 2099.44C520.9 2097.68 521.398 2096.11 522.547 2094.73C523.773 2093.27 525.267 2092.47 527.029 2092.32C539.44 2091.17 551.122 2090.55 562.077 2090.48C563.839 2090.48 565.333 2091.13 566.559 2092.43C567.861 2093.73 568.512 2095.27 568.512 2097.03V2099.33C568.512 2101.09 567.861 2102.62 566.559 2103.92C565.256 2105.22 563.724 2105.88 561.962 2105.88C550.548 2105.95 539.286 2106.53 528.178 2107.6ZM511.171 2132.19C511.171 2127.82 513.201 2123.46 517.261 2119.09C518.564 2117.63 520.211 2116.75 522.203 2116.45C524.271 2116.14 526.186 2116.45 527.948 2117.37L529.902 2118.29C531.281 2118.98 532.085 2120.09 532.315 2121.62C532.545 2123.15 532.123 2124.49 531.051 2125.64C529.595 2127.25 528.868 2128.78 528.868 2130.24C528.868 2132.46 530.438 2134.3 533.579 2135.75C536.797 2137.21 541.278 2137.94 547.024 2137.94C551.927 2137.94 557.174 2137.55 562.767 2136.79C564.529 2136.56 566.099 2136.98 567.478 2138.05C568.934 2139.05 569.776 2140.43 570.006 2142.19L570.351 2144.95C570.581 2146.78 570.159 2148.39 569.087 2149.77C568.014 2151.23 566.597 2152.11 564.835 2152.42C558.553 2153.26 552.616 2153.68 547.024 2153.68C536.069 2153.68 527.335 2151.65 520.824 2147.59C514.389 2143.61 511.171 2138.47 511.171 2132.19ZM479.8 2152.99C478.115 2152.61 476.851 2151.65 476.008 2150.12C475.165 2148.66 475.012 2147.09 475.548 2145.41C482.06 2124.72 487.384 2104.46 491.521 2084.62C491.598 2084.39 491.521 2084.16 491.291 2083.93C491.138 2083.7 490.947 2083.58 490.717 2083.58H483.477C481.715 2083.58 480.183 2082.93 478.881 2081.63C477.578 2080.33 476.927 2078.79 476.927 2077.03V2074.39C476.927 2072.63 477.578 2071.1 478.881 2069.79C480.183 2068.49 481.715 2067.84 483.477 2067.84H493.704C494.394 2067.84 494.815 2067.49 494.968 2066.81C495.122 2066.12 495.313 2065.16 495.543 2063.93C495.773 2062.71 495.926 2061.75 496.003 2061.06C496.309 2059.22 497.19 2057.77 498.646 2056.69C500.101 2055.54 501.748 2055.05 503.587 2055.2L508.183 2055.54C509.945 2055.7 511.363 2056.5 512.435 2057.96C513.508 2059.34 513.891 2060.87 513.584 2062.55C513.508 2063.01 513.393 2063.74 513.24 2064.74C513.086 2065.73 512.971 2066.46 512.895 2066.92C512.742 2067.53 513.01 2067.84 513.699 2067.84H545.875C546.871 2067.84 547.905 2068.11 548.977 2068.64C549.13 2068.64 549.245 2068.61 549.322 2068.53L549.207 2068.41C549.207 2068.34 549.207 2068.26 549.207 2068.18C548.901 2067.49 548.364 2066.5 547.598 2065.2C546.832 2063.82 546.296 2062.78 545.99 2062.09C545.223 2060.64 545.07 2059.14 545.53 2057.61C546.066 2056 547.062 2054.82 548.518 2054.05C550.05 2053.28 551.582 2053.17 553.114 2053.71C554.723 2054.24 555.949 2055.28 556.791 2056.81C557.098 2057.5 557.634 2058.53 558.4 2059.91C559.166 2061.21 559.702 2062.21 560.009 2062.9C560.775 2064.43 560.89 2066 560.354 2067.61C559.817 2069.14 558.783 2070.25 557.251 2070.94C555.412 2071.86 553.574 2071.78 551.735 2070.71C551.582 2070.71 551.467 2070.79 551.39 2070.94C552.08 2072.17 552.425 2073.32 552.425 2074.39V2077.03C552.425 2078.79 551.773 2080.33 550.471 2081.63C549.169 2082.93 547.637 2083.58 545.875 2083.58H510.711C510.099 2083.58 509.716 2083.89 509.562 2084.5C505.042 2107.41 499.565 2129.01 493.13 2149.31C492.594 2151.07 491.483 2152.42 489.797 2153.33C488.189 2154.25 486.503 2154.52 484.741 2154.14L479.8 2152.99ZM600.803 2083.81C599.041 2083.81 597.509 2083.16 596.206 2081.86C594.904 2080.56 594.253 2079.02 594.253 2077.26V2074.62C594.253 2072.86 594.904 2071.33 596.206 2070.02C597.509 2068.72 599.041 2068.07 600.803 2068.07H617.81C618.423 2068.07 618.806 2067.76 618.959 2067.15C619.112 2066.38 619.265 2065.31 619.418 2063.93C619.648 2062.55 619.802 2061.56 619.878 2060.94C620.108 2059.18 620.912 2057.73 622.291 2056.58C623.747 2055.43 625.394 2054.89 627.233 2054.97L631.829 2055.31C633.591 2055.39 635.008 2056.12 636.081 2057.5C637.23 2058.8 637.69 2060.33 637.46 2062.09C637.383 2062.71 637.23 2063.59 637 2064.74C636.847 2065.89 636.732 2066.69 636.655 2067.15C636.502 2067.76 636.77 2068.07 637.46 2068.07H681.241C683.003 2068.07 684.535 2068.72 685.838 2070.02C687.14 2071.33 687.791 2072.86 687.791 2074.62V2077.26C687.791 2079.02 687.14 2080.56 685.838 2081.86C684.535 2083.16 683.003 2083.81 681.241 2083.81H634.012C633.323 2083.81 632.902 2084.12 632.748 2084.73C631.829 2088.1 630.297 2092.81 628.152 2098.87V2099.1H628.267C628.343 2099.17 628.42 2099.21 628.497 2099.21C635.851 2096.84 642.631 2095.65 648.836 2095.65C659.485 2095.65 667.643 2098.1 673.312 2103C678.981 2107.91 681.816 2114.72 681.816 2123.46C681.816 2132.57 677.909 2139.89 670.095 2145.41C662.357 2150.92 651.9 2153.68 638.724 2153.68C630.986 2153.68 623.287 2153.03 615.626 2151.73C613.864 2151.42 612.485 2150.5 611.49 2148.97C610.494 2147.51 610.187 2145.87 610.57 2144.03L611.145 2141.15C611.451 2139.39 612.332 2138.01 613.788 2137.02C615.32 2136.02 616.967 2135.68 618.729 2135.98C626.083 2137.28 632.748 2137.94 638.724 2137.94C646.308 2137.94 652.283 2136.52 656.65 2133.68C661.017 2130.85 663.2 2127.1 663.2 2122.42C663.2 2115.07 658.106 2111.39 647.917 2111.39C639.566 2111.39 631.829 2113.31 624.704 2117.14C620.951 2119.21 617.12 2119.47 613.213 2117.94L609.191 2116.33C607.506 2115.64 606.318 2114.49 605.629 2112.89C605.016 2111.2 605.093 2109.55 605.859 2107.94C609.996 2098.67 612.983 2090.94 614.822 2084.73C614.975 2084.12 614.745 2083.81 614.133 2083.81H600.803ZM711.808 2126.56L707.671 2122.77C706.369 2121.54 705.641 2120.01 705.488 2118.17C705.411 2116.33 705.947 2114.69 707.097 2113.23C709.088 2110.86 713.378 2105.49 719.967 2097.14C724.18 2091.78 727.321 2087.87 729.39 2085.42C731.535 2082.89 733.68 2080.82 735.825 2079.22C738.046 2077.61 739.923 2076.65 741.455 2076.34C742.988 2076.04 745.171 2075.88 748.005 2075.88C750.61 2075.88 752.564 2076 753.866 2076.23C755.245 2076.46 757.198 2077.45 759.726 2079.22C762.331 2080.9 765.051 2083.05 767.885 2085.65C770.72 2088.26 775.201 2092.47 781.33 2098.29C793.434 2109.78 802.665 2118.44 809.024 2124.26C810.326 2125.49 811.054 2127.02 811.207 2128.86C811.36 2130.62 810.824 2132.19 809.598 2133.57L805.347 2138.4C804.197 2139.77 802.704 2140.5 800.865 2140.58C799.103 2140.66 797.571 2140.08 796.269 2138.86C785.237 2128.82 773.861 2118.13 762.14 2106.79C756.7 2101.59 753.215 2098.41 751.683 2097.26C750.15 2096.03 748.771 2095.42 747.546 2095.42C746.09 2095.42 744.673 2096.03 743.294 2097.26C741.992 2098.48 739.54 2101.51 735.94 2106.34C728.432 2116.06 723.338 2122.61 720.656 2125.99C719.584 2127.36 718.166 2128.13 716.404 2128.28C714.642 2128.36 713.11 2127.79 711.808 2126.56ZM867.054 2079.22C859.24 2081.28 853.112 2085.23 848.669 2091.05C844.302 2096.8 842.119 2103.77 842.119 2111.97C842.119 2117.1 843.114 2121.77 845.106 2125.99C847.175 2130.12 849.052 2132.19 850.737 2132.19C851.58 2132.19 852.499 2131.69 853.495 2130.7C854.491 2129.62 855.602 2127.82 856.827 2125.3C858.053 2122.69 859.279 2119.47 860.504 2115.64C861.73 2111.74 862.994 2106.72 864.297 2100.59C865.599 2094.46 866.786 2087.57 867.859 2079.91C867.935 2079.68 867.859 2079.48 867.629 2079.33C867.476 2079.18 867.284 2079.14 867.054 2079.22ZM850.737 2149.89C844.225 2149.89 838.212 2146.21 832.696 2138.86C827.257 2131.5 824.537 2122.54 824.537 2111.97C824.537 2096.87 829.631 2084.62 839.82 2075.19C850.009 2065.69 863.416 2060.94 880.04 2060.94C893.446 2060.94 904.516 2065.2 913.249 2073.7C921.983 2082.13 926.349 2092.89 926.349 2105.99C926.349 2118.25 923.515 2128.32 917.846 2136.21C912.177 2144.1 904.439 2149.16 894.633 2151.38C892.795 2151.76 891.071 2151.42 889.462 2150.35C887.93 2149.27 886.973 2147.82 886.59 2145.98L885.67 2142.07C885.287 2140.39 885.594 2138.82 886.59 2137.36C887.585 2135.83 888.926 2134.8 890.612 2134.26C902.716 2130.35 908.768 2120.93 908.768 2105.99C908.768 2099.02 906.814 2093.08 902.907 2088.18C899 2083.2 893.829 2079.94 887.394 2078.41C886.858 2078.33 886.513 2078.64 886.36 2079.33C884.368 2093.43 882.108 2105.22 879.58 2114.72C877.128 2124.15 874.371 2131.39 871.306 2136.44C868.242 2141.42 865.101 2144.91 861.883 2146.9C858.666 2148.89 854.95 2149.89 850.737 2149.89ZM376.724 2311.12C376.8 2310.97 376.8 2310.85 376.724 2310.77H370.289C368.527 2310.77 366.994 2310.12 365.692 2308.82C364.39 2307.52 363.739 2305.99 363.739 2304.22V2271.7C363.739 2271.02 363.432 2270.56 362.819 2270.33C362.36 2270.1 361.9 2269.75 361.44 2269.29L358.682 2266.53C357.38 2265.23 356.652 2263.62 356.499 2261.71C356.346 2259.79 356.729 2258.03 357.648 2256.42C360.942 2250.37 362.858 2243.21 363.394 2234.93C363.547 2233.09 364.237 2231.52 365.462 2230.22C366.688 2228.84 368.22 2228.11 370.059 2228.04C381.167 2227.42 390.935 2226.39 399.361 2224.94C401.2 2224.63 402.924 2224.94 404.532 2225.85C406.218 2226.77 407.329 2228.11 407.865 2229.88L408.095 2230.45C408.631 2232.14 408.439 2233.71 407.52 2235.16C406.678 2236.62 405.375 2237.5 403.613 2237.81C396.106 2239.03 388.215 2239.91 379.941 2240.45C379.328 2240.45 379.022 2240.72 379.022 2241.25C379.022 2241.79 379.252 2242.06 379.711 2242.06H402.464C404.226 2242.06 405.758 2242.71 407.061 2244.01C408.363 2245.31 409.014 2246.85 409.014 2248.61V2251.14C409.014 2251.29 409.052 2251.37 409.129 2251.37C409.206 2251.37 409.282 2251.33 409.359 2251.25C411.044 2246.73 412.04 2241.25 412.347 2234.82C412.5 2233.06 413.189 2231.52 414.415 2230.22C415.717 2228.84 417.249 2228.11 419.011 2228.04C430.12 2227.42 439.887 2226.39 448.314 2224.94C450.153 2224.63 451.876 2224.94 453.485 2225.85C455.171 2226.77 456.281 2228.11 456.818 2229.88L457.047 2230.45C457.584 2232.14 457.392 2233.71 456.473 2235.16C455.63 2236.62 454.328 2237.5 452.566 2237.81C444.982 2239.03 437.129 2239.91 429.009 2240.45C428.396 2240.45 428.089 2240.72 428.089 2241.25C428.089 2241.79 428.319 2242.06 428.779 2242.06H454.979C456.741 2242.06 458.235 2242.67 459.461 2243.9C460.686 2245.12 461.299 2246.58 461.299 2248.26C461.299 2249.95 460.686 2251.4 459.461 2252.63C458.235 2253.85 456.741 2254.47 454.979 2254.47H449.463C448.774 2254.47 448.429 2254.81 448.429 2255.5V2256.77C448.429 2258.14 447.969 2259.49 447.05 2260.79C446.744 2261.25 446.859 2261.55 447.395 2261.71C450.153 2262.78 451.532 2264.81 451.532 2267.8V2304.22C451.532 2305.99 450.88 2307.52 449.578 2308.82C448.276 2310.12 446.744 2310.77 444.982 2310.77H440.73C440.653 2310.77 440.615 2310.85 440.615 2311C440.615 2311.08 440.653 2311.12 440.73 2311.12C445.863 2312.73 450.88 2314.53 455.783 2316.52C457.316 2317.13 458.311 2318.24 458.771 2319.85C459.307 2321.54 459.116 2323.11 458.197 2324.56L457.277 2325.94C456.281 2327.48 454.864 2328.47 453.025 2328.93C451.263 2329.47 449.54 2329.35 447.854 2328.59C440.883 2325.52 432.226 2322.27 421.884 2318.82C420.352 2318.28 419.28 2317.32 418.667 2315.95C418.13 2314.49 418.207 2313.03 418.897 2311.58C419.05 2311.43 419.05 2311.27 418.897 2311.12C418.82 2310.89 418.667 2310.77 418.437 2310.77H396.833C396.374 2310.77 396.259 2311 396.489 2311.46C397.178 2312.69 397.331 2314.03 396.948 2315.49C396.642 2316.87 395.876 2317.86 394.65 2318.47C386.989 2322.46 377.566 2325.98 366.382 2329.05C364.543 2329.58 362.743 2329.43 360.981 2328.59C359.219 2327.82 357.916 2326.59 357.074 2324.91L356.499 2323.76C355.733 2322.23 355.695 2320.7 356.384 2319.16C357.15 2317.63 358.338 2316.67 359.947 2316.29C366.075 2314.61 371.668 2312.88 376.724 2311.12ZM432.686 2299.28V2298.02C432.686 2297.41 432.38 2297.1 431.767 2297.1H383.504C382.891 2297.1 382.584 2297.41 382.584 2298.02V2299.28C382.584 2299.97 382.891 2300.32 383.504 2300.32H431.767C432.38 2300.32 432.686 2299.97 432.686 2299.28ZM432.686 2287.1V2285.72C432.686 2285.11 432.38 2284.8 431.767 2284.8H383.504C382.891 2284.8 382.584 2285.11 382.584 2285.72V2287.1C382.584 2287.72 382.891 2288.02 383.504 2288.02H431.767C432.38 2288.02 432.686 2287.72 432.686 2287.1ZM432.686 2274.81V2273.54C432.686 2272.85 432.38 2272.51 431.767 2272.51H383.504C382.891 2272.51 382.584 2272.85 382.584 2273.54V2274.81C382.584 2275.5 382.891 2275.84 383.504 2275.84H431.767C432.38 2275.84 432.686 2275.5 432.686 2274.81ZM424.182 2258.26C423.723 2259.33 423.11 2260.14 422.344 2260.67C422.191 2260.83 422.114 2260.98 422.114 2261.13C422.191 2261.21 422.306 2261.25 422.459 2261.25H432.686C432.839 2261.25 432.954 2261.17 433.031 2261.02C433.184 2260.86 433.222 2260.71 433.146 2260.56C432.303 2259.49 431.882 2258.22 431.882 2256.77V2255.5C431.882 2254.81 431.537 2254.47 430.847 2254.47H426.596C425.983 2254.47 425.523 2254.81 425.217 2255.5L424.182 2258.26ZM399.476 2255.5V2256.77C399.476 2258.22 399.055 2259.49 398.212 2260.56C397.906 2261.02 398.059 2261.25 398.672 2261.25H412.691C412.768 2261.17 412.768 2261.06 412.691 2260.9L409.359 2259.75C408.439 2259.37 407.788 2258.72 407.405 2257.8C407.099 2256.88 407.175 2255.96 407.635 2255.04C407.788 2254.66 407.673 2254.47 407.29 2254.47H400.511C399.821 2254.47 399.476 2254.81 399.476 2255.5ZM375.115 2261.25H383.733C383.887 2261.25 384.001 2261.17 384.078 2261.02C384.231 2260.86 384.27 2260.71 384.193 2260.56C383.35 2259.49 382.929 2258.22 382.929 2256.77V2255.5C382.929 2254.81 382.584 2254.47 381.895 2254.47H377.643C377.107 2254.47 376.685 2254.81 376.379 2255.5C375.766 2257.42 375.153 2259.06 374.54 2260.44C374.234 2260.98 374.425 2261.25 375.115 2261.25ZM478.881 2329.16C477.119 2329.16 475.587 2328.51 474.284 2327.21C472.982 2325.9 472.331 2324.37 472.331 2322.61V2232.52C472.331 2230.76 472.982 2229.26 474.284 2228.04C475.587 2226.74 477.119 2226.08 478.881 2226.08H514.159C515.921 2226.08 517.415 2226.74 518.64 2228.04C519.943 2229.26 520.594 2230.76 520.594 2232.52V2266.42C520.594 2268.18 519.943 2269.71 518.64 2271.02C517.415 2272.32 515.921 2272.97 514.159 2272.97H490.832C490.142 2272.97 489.797 2273.31 489.797 2274V2322.61C489.797 2324.37 489.146 2325.9 487.844 2327.21C486.542 2328.51 485.009 2329.16 483.247 2329.16H478.881ZM489.797 2240.45V2243.55C489.797 2244.24 490.142 2244.59 490.832 2244.59H505.77C506.46 2244.59 506.804 2244.24 506.804 2243.55V2240.45C506.804 2239.76 506.46 2239.41 505.77 2239.41H490.832C490.142 2239.41 489.797 2239.76 489.797 2240.45ZM489.797 2257V2260.1C489.797 2260.79 490.142 2261.13 490.832 2261.13H505.77C506.46 2261.13 506.804 2260.79 506.804 2260.1V2257C506.804 2256.38 506.46 2256.08 505.77 2256.08H490.832C490.142 2256.08 489.797 2256.38 489.797 2257ZM539.325 2319.97C539.325 2319.28 539.363 2318.74 539.44 2318.36C539.593 2317.75 539.363 2317.44 538.75 2317.44H514.733C514.35 2317.44 514.159 2317.63 514.159 2318.01C514.159 2319.24 513.737 2320.27 512.895 2321.12C512.052 2321.96 511.018 2322.38 509.792 2322.38H504.851C503.089 2322.38 501.557 2321.73 500.254 2320.43C498.952 2319.12 498.301 2317.59 498.301 2315.83V2286.64C498.301 2284.88 498.952 2283.39 500.254 2282.16C501.557 2280.86 503.089 2280.21 504.851 2280.21H542.772C544.534 2280.21 546.066 2280.86 547.368 2282.16C548.671 2283.39 549.322 2284.88 549.322 2286.64V2310.89C549.322 2311.43 549.169 2312.15 548.862 2313.07C548.709 2313.69 548.939 2313.99 549.552 2313.99H552.654C555.183 2313.99 556.676 2313.8 557.136 2313.42C557.596 2313.03 557.825 2311.69 557.825 2309.4V2274C557.825 2273.31 557.481 2272.97 556.791 2272.97H532.315C530.553 2272.97 529.021 2272.32 527.718 2271.02C526.416 2269.71 525.765 2268.18 525.765 2266.42V2232.52C525.765 2230.76 526.416 2229.26 527.718 2228.04C529.021 2226.74 530.553 2226.08 532.315 2226.08H568.742C570.504 2226.08 571.998 2226.74 573.224 2228.04C574.526 2229.26 575.177 2230.76 575.177 2232.52V2308.13C575.177 2311.66 575.101 2314.41 574.947 2316.41C574.871 2318.4 574.564 2320.27 574.028 2322.04C573.492 2323.8 572.879 2325.06 572.19 2325.83C571.5 2326.59 570.313 2327.25 568.627 2327.78C566.942 2328.32 565.18 2328.62 563.341 2328.7C561.503 2328.85 558.936 2328.93 555.642 2328.93C552.348 2328.93 549.284 2328.85 546.449 2328.7C544.611 2328.62 543.002 2327.93 541.623 2326.63C540.244 2325.33 539.516 2323.76 539.44 2321.92L539.325 2319.97ZM539.669 2240.45V2243.55C539.669 2244.24 540.014 2244.59 540.704 2244.59H556.791C557.481 2244.59 557.825 2244.24 557.825 2243.55V2240.45C557.825 2239.76 557.481 2239.41 556.791 2239.41H540.704C540.014 2239.41 539.669 2239.76 539.669 2240.45ZM556.791 2261.13C557.481 2261.13 557.825 2260.79 557.825 2260.1V2257C557.825 2256.38 557.481 2256.08 556.791 2256.08H540.704C540.014 2256.08 539.669 2256.38 539.669 2257V2260.1C539.669 2260.79 540.014 2261.13 540.704 2261.13H556.791ZM533.464 2304.8V2293.08C533.464 2292.47 533.158 2292.16 532.545 2292.16H515.078C514.465 2292.16 514.159 2292.47 514.159 2293.08V2304.8C514.159 2305.49 514.465 2305.83 515.078 2305.83H532.545C533.158 2305.83 533.464 2305.49 533.464 2304.8ZM678.254 2237.23C680.016 2237.23 681.548 2237.88 682.85 2239.18C684.152 2240.49 684.804 2242.02 684.804 2243.78V2246.88C684.804 2248.65 684.152 2250.18 682.85 2251.48C681.548 2252.78 680.016 2253.43 678.254 2253.43H641.597C639.835 2253.43 638.302 2252.78 637 2251.48C635.698 2250.18 635.047 2248.65 635.047 2246.88V2243.78C635.047 2242.02 635.698 2240.49 637 2239.18C638.302 2237.88 639.835 2237.23 641.597 2237.23H678.254ZM607.812 2324.22C605.974 2324.45 604.288 2324.03 602.756 2322.96C601.224 2321.88 600.266 2320.43 599.883 2318.59C597.049 2305.57 595.632 2291.7 595.632 2276.99C595.632 2262.28 597.049 2248.42 599.883 2235.39C600.266 2233.55 601.224 2232.1 602.756 2231.03C604.288 2229.95 605.974 2229.53 607.812 2229.76L613.213 2230.34C614.899 2230.49 616.239 2231.29 617.235 2232.75C618.231 2234.13 618.537 2235.7 618.154 2237.46C615.55 2249.72 614.247 2262.89 614.247 2276.99C614.247 2291.09 615.55 2304.26 618.154 2316.52C618.537 2318.28 618.231 2319.85 617.235 2321.23C616.239 2322.69 614.899 2323.49 613.213 2323.64L607.812 2324.22ZM660.327 2320.54C649.296 2320.54 640.677 2318.4 634.472 2314.11C628.267 2309.82 625.164 2304.03 625.164 2296.76C625.164 2294 626.045 2290.78 627.807 2287.1C629.569 2283.35 631.982 2279.67 635.047 2276.07C636.196 2274.69 637.69 2273.96 639.528 2273.89C641.443 2273.81 643.129 2274.35 644.584 2275.5L647.227 2277.45C648.606 2278.52 649.334 2279.94 649.411 2281.7C649.564 2283.46 649.104 2285.03 648.032 2286.41C644.891 2290.4 643.32 2293.46 643.32 2295.61C643.32 2298.44 644.661 2300.55 647.342 2301.93C650.023 2303.23 654.352 2303.88 660.327 2303.88C666.149 2303.88 672.431 2303.31 679.173 2302.16C680.935 2301.85 682.544 2302.19 683.999 2303.19C685.455 2304.19 686.336 2305.57 686.642 2307.33L687.102 2310.66C687.408 2312.5 687.025 2314.18 685.953 2315.72C684.957 2317.25 683.578 2318.17 681.816 2318.47C674.845 2319.85 667.682 2320.54 660.327 2320.54ZM712.268 2257.34C710.506 2257.34 708.973 2256.69 707.671 2255.39C706.369 2254.08 705.718 2252.55 705.718 2250.79V2248.95C705.718 2247.19 706.369 2245.66 707.671 2244.36C708.973 2243.05 710.506 2242.4 712.268 2242.4H715.6C716.213 2242.4 716.519 2242.1 716.519 2241.48V2231.03C716.519 2229.26 717.171 2227.73 718.473 2226.43C719.775 2225.13 721.307 2224.48 723.069 2224.48H727.436C729.198 2224.48 730.73 2225.13 732.033 2226.43C733.335 2227.73 733.986 2229.26 733.986 2231.03V2241.48C733.986 2242.1 734.292 2242.4 734.905 2242.4H736.399C738.161 2242.4 739.655 2243.05 740.881 2244.36C742.183 2245.66 742.834 2247.19 742.834 2248.95V2250.79C742.834 2252.55 742.183 2254.08 740.881 2255.39C739.655 2256.69 738.161 2257.34 736.399 2257.34H734.905C734.292 2257.34 733.986 2257.69 733.986 2258.37V2277.11C733.986 2277.72 734.292 2277.95 734.905 2277.79C734.982 2277.72 735.135 2277.68 735.365 2277.68C735.595 2277.68 735.748 2277.64 735.825 2277.57C737.433 2277.11 738.966 2277.34 740.421 2278.25C741.034 2278.64 741.34 2278.52 741.34 2277.91C741.417 2276.15 742.068 2274.65 743.294 2273.43C744.52 2272.13 746.014 2271.47 747.776 2271.47H748.35C748.503 2271.47 748.618 2271.4 748.695 2271.24C748.771 2271.09 748.733 2270.94 748.58 2270.79L744.098 2266.19C742.873 2264.89 742.298 2263.35 742.375 2261.59C742.451 2259.83 743.064 2258.22 744.213 2256.77C746.511 2254.01 748.082 2250.94 748.925 2247.57C749.767 2244.2 750.189 2239.49 750.189 2233.44C750.189 2231.68 750.84 2230.18 752.142 2228.96C753.445 2227.65 754.977 2227 756.739 2227H788.34C790.102 2227 791.595 2227.65 792.821 2228.96C794.123 2230.26 794.775 2231.79 794.775 2233.55V2252.63C794.775 2253.47 794.89 2254.01 795.119 2254.24C795.349 2254.39 796.039 2254.47 797.188 2254.47C798.414 2254.47 799.18 2254.12 799.486 2253.43C799.869 2252.74 800.214 2250.64 800.52 2247.11C800.597 2245.43 801.325 2244.05 802.704 2242.98C804.083 2241.83 805.615 2241.41 807.3 2241.71C809.062 2242.02 810.479 2242.9 811.552 2244.36C812.701 2245.73 813.237 2247.34 813.161 2249.18C813.007 2251.71 812.854 2253.78 812.701 2255.39C812.548 2257 812.241 2258.57 811.782 2260.1C811.322 2261.55 810.939 2262.7 810.633 2263.55C810.326 2264.31 809.637 2265.04 808.564 2265.73C807.568 2266.42 806.726 2266.92 806.036 2267.22C805.347 2267.45 804.044 2267.68 802.129 2267.91C800.214 2268.07 798.567 2268.14 797.188 2268.14C795.809 2268.14 793.626 2268.14 790.638 2268.14C784.892 2268.14 781.253 2267.68 779.721 2266.76C778.189 2265.84 777.423 2263.81 777.423 2260.67V2242.86C777.423 2242.17 777.078 2241.83 776.389 2241.83H767.655C766.966 2241.83 766.621 2242.21 766.621 2242.98C766.391 2249.03 765.319 2254.24 763.404 2258.6C761.488 2262.97 758.577 2267.03 754.67 2270.79C754.517 2270.94 754.479 2271.09 754.555 2271.24C754.632 2271.4 754.747 2271.47 754.9 2271.47H800.061C801.823 2271.47 803.355 2272.13 804.657 2273.43C805.959 2274.73 806.611 2276.26 806.611 2278.02V2285.61C806.611 2285.92 806.457 2286.07 806.151 2286.07C806.457 2286.15 806.496 2286.41 806.266 2286.87C802.129 2294.46 797.035 2300.89 790.983 2306.18C790.523 2306.64 790.561 2306.98 791.097 2307.21C795.311 2309.05 800.559 2310.85 806.84 2312.61C808.526 2313.07 809.752 2314.07 810.518 2315.6C811.36 2317.13 811.475 2318.7 810.862 2320.31L809.713 2323.07C809.024 2324.83 807.836 2326.13 806.151 2326.98C804.466 2327.9 802.704 2328.09 800.865 2327.55C792.208 2325.25 783.743 2321.96 775.469 2317.67C775.01 2317.36 774.397 2317.36 773.631 2317.67C766.966 2321.12 758.616 2324.33 748.58 2327.32C746.818 2327.86 745.056 2327.71 743.294 2326.86C741.609 2326.1 740.383 2324.87 739.617 2323.19L738.123 2320.08C737.433 2318.55 737.433 2317.06 738.123 2315.6C738.889 2314.07 740.076 2313.11 741.685 2312.73C746.971 2311.35 752.372 2309.59 757.888 2307.44C758.118 2307.37 758.233 2307.21 758.233 2306.98C758.309 2306.68 758.271 2306.48 758.118 2306.41C754.823 2303.65 752.257 2301.31 750.419 2299.4C749.193 2298.1 748.695 2296.56 748.925 2294.8C749.154 2293.04 749.997 2291.62 751.453 2290.55L756.624 2286.64C756.777 2286.49 756.815 2286.37 756.739 2286.3C756.662 2286.15 756.547 2286.07 756.394 2286.07H747.776C746.473 2286.07 745.247 2285.69 744.098 2284.92C743.792 2284.77 743.562 2284.88 743.409 2285.26C743.485 2287.03 742.988 2288.63 741.915 2290.09C740.919 2291.55 739.617 2292.5 738.008 2292.96C737.702 2293.04 737.204 2293.19 736.514 2293.42C735.825 2293.58 735.327 2293.69 735.02 2293.77C734.331 2293.92 733.986 2294.34 733.986 2295.03V2308.25C733.986 2311.77 733.948 2314.57 733.871 2316.64C733.795 2318.63 733.526 2320.47 733.067 2322.15C732.607 2323.91 732.071 2325.18 731.458 2325.94C730.845 2326.71 729.849 2327.36 728.47 2327.9C727.091 2328.43 725.636 2328.74 724.104 2328.82C722.648 2328.97 720.58 2329.05 717.898 2329.05C716.366 2329.05 714.987 2329.01 713.761 2328.93C711.923 2328.78 710.314 2328.05 708.935 2326.75C707.556 2325.45 706.828 2323.87 706.752 2322.04V2320.54C706.675 2318.86 707.211 2317.4 708.361 2316.18C709.586 2314.95 711.08 2314.41 712.842 2314.57C713.225 2314.57 713.685 2314.61 714.221 2314.68C714.757 2314.68 715.064 2314.68 715.14 2314.68C715.83 2314.68 716.213 2314.49 716.29 2314.11C716.443 2313.72 716.519 2312.35 716.519 2309.97V2299.17C716.519 2298.94 716.443 2298.75 716.29 2298.59C716.136 2298.36 715.945 2298.29 715.715 2298.36C714.719 2298.67 713.876 2298.86 713.187 2298.94C711.502 2299.25 709.969 2298.86 708.59 2297.79C707.211 2296.72 706.445 2295.3 706.292 2293.54L706.062 2290.67C705.986 2288.83 706.522 2287.22 707.671 2285.84C708.82 2284.38 710.276 2283.46 712.038 2283.08L715.485 2282.39C716.175 2282.24 716.519 2281.86 716.519 2281.24V2258.37C716.519 2257.69 716.213 2257.34 715.6 2257.34H712.268ZM760.761 2286.07C760.607 2286.07 760.454 2286.18 760.301 2286.41C760.224 2286.57 760.263 2286.72 760.416 2286.87C764.093 2291.01 768.498 2294.76 773.631 2298.13C774.09 2298.52 774.588 2298.52 775.125 2298.13C779.874 2294.76 783.858 2291.05 787.076 2286.99C787.459 2286.37 787.344 2286.07 786.731 2286.07H760.761ZM830.857 2241.37C829.095 2241.37 827.563 2240.72 826.261 2239.41C824.958 2238.11 824.307 2236.58 824.307 2234.82V2233.9C824.307 2232.14 824.958 2230.6 826.261 2229.3C827.563 2228 829.095 2227.35 830.857 2227.35H920.029C921.791 2227.35 923.323 2228 924.626 2229.3C925.928 2230.6 926.579 2232.14 926.579 2233.9V2234.82C926.579 2236.58 925.928 2238.11 924.626 2239.41C923.323 2240.72 921.791 2241.37 920.029 2241.37H899.46C898.847 2241.37 898.54 2241.67 898.54 2242.29V2244.82C898.54 2245.43 898.847 2245.73 899.46 2245.73H916.007C917.769 2245.73 919.301 2246.39 920.604 2247.69C921.906 2248.99 922.557 2250.52 922.557 2252.28V2266.19C922.557 2267.95 921.906 2269.48 920.604 2270.79C919.301 2272.01 917.769 2272.62 916.007 2272.62H843.612H834.879C833.117 2272.62 831.585 2272.01 830.283 2270.79C828.98 2269.48 828.329 2267.95 828.329 2266.19V2252.28C828.329 2250.52 828.98 2248.99 830.283 2247.69C831.585 2246.39 833.117 2245.73 834.879 2245.73H851.426C852.039 2245.73 852.346 2245.43 852.346 2244.82V2242.29C852.346 2241.67 852.039 2241.37 851.426 2241.37H830.857ZM898.196 2256.77V2261.13C898.196 2261.82 898.502 2262.17 899.115 2262.17H906.24C906.929 2262.17 907.274 2261.82 907.274 2261.13V2256.77C907.274 2256.15 906.929 2255.85 906.24 2255.85H899.115C898.502 2255.85 898.196 2256.15 898.196 2256.77ZM870.157 2242.29V2244.82C870.157 2245.43 870.502 2245.73 871.191 2245.73H879.695C880.384 2245.73 880.729 2245.43 880.729 2244.82V2242.29C880.729 2241.67 880.384 2241.37 879.695 2241.37H871.191C870.502 2241.37 870.157 2241.67 870.157 2242.29ZM869.812 2256.77V2261.13C869.812 2261.82 870.119 2262.17 870.732 2262.17H880.154C880.767 2262.17 881.074 2261.82 881.074 2261.13V2256.77C881.074 2256.15 880.767 2255.85 880.154 2255.85H870.732C870.119 2255.85 869.812 2256.15 869.812 2256.77ZM852.69 2256.77C852.69 2256.15 852.384 2255.85 851.771 2255.85H844.647C843.957 2255.85 843.612 2256.15 843.612 2256.77V2261.13C843.612 2261.82 843.957 2262.17 844.647 2262.17H851.771C852.384 2262.17 852.69 2261.82 852.69 2261.13V2256.77ZM838.671 2275.84H913.134C914.82 2275.84 916.275 2276.45 917.501 2277.68C918.727 2278.91 919.34 2280.36 919.34 2282.05C919.34 2283.73 918.727 2285.19 917.501 2286.41C916.352 2287.56 914.896 2288.14 913.134 2288.14H838.671C836.986 2288.14 835.53 2287.56 834.304 2286.41C833.155 2285.19 832.581 2283.73 832.581 2282.05C832.581 2280.28 833.155 2278.83 834.304 2277.68C835.53 2276.45 836.986 2275.84 838.671 2275.84ZM830.857 2305.37C829.095 2305.37 827.563 2304.76 826.261 2303.54C824.958 2302.23 824.307 2300.7 824.307 2298.94V2297.9C824.307 2296.14 824.958 2294.65 826.261 2293.42C827.563 2292.12 829.095 2291.47 830.857 2291.47H920.029C921.791 2291.47 923.323 2292.12 924.626 2293.42C925.928 2294.65 926.579 2296.14 926.579 2297.9V2298.94C926.579 2300.7 925.928 2302.23 924.626 2303.54C923.323 2304.76 921.791 2305.37 920.029 2305.37H910.721C910.645 2305.37 910.606 2305.45 910.606 2305.6C910.606 2305.76 910.645 2305.87 910.721 2305.95C913.479 2307.4 917.539 2309.66 922.902 2312.73C924.434 2313.65 925.392 2314.99 925.775 2316.75C926.234 2318.51 926.005 2320.16 925.085 2321.69L923.936 2323.76C923.017 2325.29 921.676 2326.29 919.914 2326.75C918.229 2327.21 916.62 2326.98 915.088 2326.06C910.262 2323.3 903.98 2319.89 896.242 2315.83C894.633 2314.99 893.561 2313.72 893.025 2312.04C892.488 2310.35 892.68 2308.74 893.599 2307.21L894.174 2306.29C894.327 2306.14 894.327 2305.95 894.174 2305.72C894.097 2305.49 893.944 2305.37 893.714 2305.37H887.969C887.279 2305.37 886.934 2305.72 886.934 2306.41V2312.61C886.934 2316.75 886.781 2319.78 886.475 2321.69C886.168 2323.68 885.249 2325.33 883.717 2326.63C882.185 2327.93 880.269 2328.7 877.971 2328.93C875.673 2329.24 872.072 2329.39 867.169 2329.39C865.254 2329.39 862.113 2329.28 857.747 2329.05C855.908 2328.97 854.299 2328.28 852.92 2326.98C851.541 2325.67 850.814 2324.1 850.737 2322.27L850.507 2319.28C850.507 2319.05 850.392 2318.86 850.162 2318.7C849.933 2318.63 849.741 2318.67 849.588 2318.82C845.528 2321.35 840.893 2323.84 835.683 2326.29C833.998 2327.05 832.274 2327.13 830.512 2326.52C828.827 2325.98 827.525 2324.91 826.605 2323.3L825.686 2321.69C824.843 2320.16 824.69 2318.59 825.226 2316.98C825.839 2315.29 826.912 2314.07 828.444 2313.3C833.04 2311.16 837.714 2308.67 842.463 2305.83C842.54 2305.76 842.54 2305.68 842.463 2305.6C842.463 2305.45 842.387 2305.37 842.233 2305.37H830.857ZM855.333 2305.37C855.104 2305.37 854.912 2305.49 854.759 2305.72C854.682 2305.87 854.721 2306.02 854.874 2306.18L856.827 2309.05C857.517 2309.97 857.747 2311 857.517 2312.15C857.364 2313.3 856.789 2314.18 855.793 2314.8C855.793 2314.95 855.831 2315.06 855.908 2315.14C859.815 2315.37 862.42 2315.49 863.722 2315.49C865.944 2315.49 867.246 2315.33 867.629 2315.03C868.012 2314.64 868.204 2313.49 868.204 2311.58V2306.41C868.204 2305.72 867.859 2305.37 867.169 2305.37H855.333Z" fill="#1E1E1E"/>
<rect x="292.667" y="478.533" width="698.667" height="1418.02" rx="68.9474" fill="#8D1BCC"/>
<path d="M889.5 448.656H394.5C314.148 448.656 249 513.987 249 594.565V1780.52C249 1861.1 314.148 1926.43 394.5 1926.43H889.5C969.853 1926.43 1035 1861.1 1035 1780.52V594.565C1035 513.987 969.853 448.656 889.5 448.656ZM985.272 1780.52C985.272 1833.48 942.308 1876.56 889.5 1876.56H394.5C341.692 1876.56 298.728 1833.48 298.728 1780.52V594.565C298.728 541.609 341.692 498.524 394.5 498.524H441.207V529.254C441.207 544.365 453.429 556.622 468.498 556.622H825.717C840.786 556.622 853.008 544.365 853.008 529.254V498.524H889.481C942.289 498.524 985.253 541.609 985.253 594.565V1780.52H985.272Z" fill="#1E1E1E"/>
<path d="M642.09 995.987C718.249 995.987 779.987 934.248 779.987 858.09C779.987 781.932 718.249 720.193 642.09 720.193C565.932 720.193 504.193 781.932 504.193 858.09C504.193 934.248 565.932 995.987 642.09 995.987Z" fill="url(#paint0_linear_603_12617)"/>
<path d="M712.142 877.993C695.41 874.867 671.83 871.88 642.09 871.88C612.35 871.88 588.724 874.867 571.992 877.993C563.535 879.556 558.938 886.589 559.352 893.667C561.42 929.291 588.77 959.214 642.09 959.214C695.41 959.214 722.76 929.291 724.782 893.621C725.196 886.543 720.599 879.556 712.142 877.993Z" fill="#1A1626"/>
<path d="M602.881 940.828C602.881 940.828 620.302 950.021 642.09 950.021C663.878 950.021 681.299 940.828 681.299 940.828C681.299 940.828 668.244 927.039 642.09 931.635C615.982 927.039 602.881 940.828 602.881 940.828Z" fill="#FD7383"/>
<path d="M708.786 886.772C697.249 884.704 672.841 881.073 642.09 881.073C611.339 881.073 586.977 884.704 575.394 886.772C568.177 888.06 568.039 891.231 569.005 897.253C569.832 902.539 570.43 903.918 575.992 904.01C581.14 904.102 642.09 904.01 642.09 904.01C642.09 904.01 703.041 904.102 708.189 904.01C713.751 903.918 714.348 902.539 715.175 897.253C716.141 891.231 715.957 888.106 708.786 886.772Z" fill="url(#paint1_linear_603_12617)"/>
<path d="M567.35 844.76C586.977 819.387 600.721 819.387 620.348 844.76C623.336 848.575 629.404 845.725 628.163 842.002C611.477 792.911 576.221 792.911 559.536 842.002C558.249 845.771 564.362 848.621 567.35 844.76Z" fill="#1A1626"/>
<path d="M663.878 844.76C683.505 819.387 697.249 819.387 716.876 844.76C719.864 848.575 725.931 845.725 724.69 842.002C708.005 792.911 672.749 792.911 656.064 842.002C654.777 845.771 660.89 848.621 663.878 844.76Z" fill="#1A1626"/>
<rect x="317.948" y="1361.06" width="305.667" height="126.404" rx="9.19298" fill="white"/>
<rect x="660.387" y="1361.06" width="305.667" height="126.404" rx="9.19298" fill="white"/>
<rect x="317.948" y="1519.64" width="305.667" height="126.404" rx="9.19298" fill="white"/>
<rect x="660.387" y="1519.64" width="305.667" height="126.404" rx="9.19298" fill="white"/>
<path d="M461.569 1068.83C462.556 1068.83 463.414 1069.19 464.144 1069.92C464.873 1070.61 465.237 1071.44 465.237 1072.43V1084.72C465.237 1085.71 464.873 1086.56 464.144 1087.29C463.414 1088.02 462.556 1088.39 461.569 1088.39H424.825H418.261C417.275 1088.39 416.417 1088.02 415.687 1087.29C414.958 1086.56 414.593 1085.71 414.593 1084.72V1072.43C414.593 1071.44 414.958 1070.61 415.687 1069.92C416.417 1069.19 417.275 1068.83 418.261 1068.83H461.569ZM455.006 1082.72V1082.15C455.006 1081.76 454.813 1081.57 454.427 1081.57H425.404C425.018 1081.57 424.825 1081.76 424.825 1082.15V1082.72C424.825 1083.11 425.018 1083.3 425.404 1083.3H454.427C454.813 1083.3 455.006 1083.11 455.006 1082.72ZM455.006 1076.35V1075.71C455.006 1075.37 454.813 1075.2 454.427 1075.2H425.404C425.018 1075.2 424.825 1075.37 424.825 1075.71V1076.35C424.825 1076.7 425.018 1076.87 425.404 1076.87H454.427C454.813 1076.87 455.006 1076.7 455.006 1076.35ZM409.96 1121.53L409.896 1121.14C409.81 1120.16 410.067 1119.28 410.668 1118.5C411.311 1117.69 412.127 1117.22 413.113 1117.09C413.242 1117.05 413.435 1117.02 413.692 1117.02C413.993 1117.02 414.207 1117 414.336 1116.96C414.679 1116.87 414.851 1116.68 414.851 1116.38V1098.56C414.851 1098.21 414.658 1098.04 414.272 1098.04H413.821C412.834 1098.04 411.976 1097.68 411.247 1096.95C410.518 1096.22 410.153 1095.36 410.153 1094.37V1093.99C410.153 1093 410.518 1092.16 411.247 1091.48C411.976 1090.75 412.834 1090.38 413.821 1090.38H466.01C466.996 1090.38 467.854 1090.75 468.584 1091.48C469.313 1092.16 469.678 1093 469.678 1093.99V1094.37C469.678 1095.36 469.313 1096.22 468.584 1096.95C467.854 1097.68 466.996 1098.04 466.01 1098.04H440.849C440.462 1098.04 440.269 1098.21 440.269 1098.56V1118.57C440.269 1118.91 440.441 1119.04 440.784 1118.95C443.315 1118.14 445.203 1117.43 446.447 1116.83C446.747 1116.7 446.747 1116.49 446.447 1116.19C445.16 1114.99 444.388 1114.26 444.13 1114C443.444 1113.27 443.144 1112.41 443.229 1111.43C443.315 1110.44 443.744 1109.62 444.517 1108.98L446.254 1107.56C446.34 1107.52 446.361 1107.46 446.318 1107.37C446.275 1107.24 446.211 1107.18 446.125 1107.18H445.739C444.752 1107.18 443.894 1106.83 443.165 1106.15C442.436 1105.42 442.071 1104.56 442.071 1103.57V1103.19C442.071 1102.2 442.436 1101.34 443.165 1100.61C443.894 1099.89 444.752 1099.52 445.739 1099.52H463.114C464.101 1099.52 464.937 1099.89 465.624 1100.61C466.353 1101.34 466.718 1102.2 466.718 1103.19V1103.57C466.718 1106.23 466.181 1108.55 465.109 1110.52C464.122 1112.33 462.964 1114.02 461.634 1115.61C461.376 1115.87 461.419 1116.08 461.763 1116.25C463.307 1116.94 465.023 1117.58 466.911 1118.18C467.854 1118.48 468.541 1119.06 468.97 1119.92C469.442 1120.78 469.528 1121.68 469.227 1122.62L468.97 1123.33C468.627 1124.32 467.983 1125.05 467.039 1125.52C466.138 1126.03 465.195 1126.14 464.208 1125.84C461.119 1124.94 458.009 1123.65 454.877 1121.98C454.534 1121.81 454.233 1121.81 453.976 1121.98C452.003 1123.18 449.579 1124.36 446.704 1125.52C445.761 1125.9 444.774 1125.9 443.744 1125.52C442.758 1125.13 442.028 1124.47 441.556 1123.52L440.527 1121.53C440.484 1121.44 440.42 1121.4 440.334 1121.4C440.291 1121.4 440.269 1121.44 440.269 1121.53V1123.65C440.269 1124.64 439.905 1125.5 439.175 1126.23C438.489 1126.96 437.652 1127.32 436.666 1127.32H434.735C433.748 1127.32 432.89 1126.96 432.161 1126.23C431.432 1125.5 431.067 1124.64 431.067 1123.65V1123.01C431.067 1122.62 430.874 1122.47 430.488 1122.56C423.796 1123.54 418.283 1124.27 413.95 1124.75C412.963 1124.87 412.062 1124.62 411.247 1123.97C410.475 1123.33 410.046 1122.52 409.96 1121.53ZM449.793 1107.18C449.493 1107.18 449.45 1107.33 449.665 1107.63C450.995 1109.22 452.282 1110.48 453.526 1111.43C453.783 1111.64 454.062 1111.64 454.362 1111.43C455.606 1110.27 456.679 1109 457.58 1107.63C457.666 1107.54 457.666 1107.46 457.58 1107.37C457.537 1107.24 457.451 1107.18 457.322 1107.18H449.793ZM423.538 1098.56V1099.78C423.538 1100.16 423.71 1100.36 424.053 1100.36H430.552C430.896 1100.36 431.067 1100.16 431.067 1099.78V1098.56C431.067 1098.21 430.896 1098.04 430.552 1098.04H424.053C423.71 1098.04 423.538 1098.21 423.538 1098.56ZM423.538 1106.02V1107.24C423.538 1107.63 423.71 1107.82 424.053 1107.82H430.552C430.896 1107.82 431.067 1107.63 431.067 1107.24V1106.02C431.067 1105.68 430.896 1105.51 430.552 1105.51H424.053C423.71 1105.51 423.538 1105.68 423.538 1106.02ZM423.538 1113.48V1115.22C423.538 1115.65 423.731 1115.82 424.117 1115.74C426.949 1115.31 429.094 1114.99 430.552 1114.77C430.896 1114.69 431.067 1114.47 431.067 1114.13V1113.48C431.067 1113.14 430.896 1112.97 430.552 1112.97H424.053C423.71 1112.97 423.538 1113.14 423.538 1113.48ZM517.426 1107.5C518.413 1107.5 519.271 1107.86 520 1108.59C520.729 1109.32 521.094 1110.18 521.094 1111.17V1116.9C521.094 1117.28 521.266 1117.47 521.609 1117.47H522.317C523.561 1117.47 524.29 1117.37 524.505 1117.15C524.719 1116.94 524.826 1116.19 524.826 1114.9V1106.15C524.826 1105.76 524.633 1105.57 524.247 1105.57H489.112C488.726 1105.57 488.533 1105.76 488.533 1106.15V1122.56C488.533 1123.54 488.168 1124.4 487.439 1125.13C486.752 1125.86 485.916 1126.23 484.929 1126.23H482.419C481.432 1126.23 480.574 1125.86 479.845 1125.13C479.159 1124.4 478.816 1123.54 478.816 1122.56V1101.71C478.816 1100.72 479.159 1099.89 479.845 1099.2C480.574 1098.47 481.432 1098.1 482.419 1098.1H530.94C531.926 1098.1 532.763 1098.47 533.449 1099.2C534.179 1099.89 534.543 1100.72 534.543 1101.71V1114.51C534.543 1116.49 534.5 1118.03 534.415 1119.15C534.372 1120.26 534.2 1121.31 533.9 1122.3C533.642 1123.29 533.321 1123.97 532.935 1124.36C532.591 1124.79 531.969 1125.15 531.068 1125.45C530.21 1125.8 529.288 1125.99 528.301 1126.03C527.358 1126.12 526.028 1126.16 524.312 1126.16C524.011 1126.16 522.617 1126.12 520.129 1126.03C519.185 1125.99 518.37 1125.67 517.683 1125.07C516.997 1124.47 516.547 1123.72 516.332 1122.82C516.246 1122.43 516.032 1122.24 515.689 1122.24H500.695C500.48 1122.24 500.373 1122.32 500.373 1122.49C500.373 1123.01 500.201 1123.44 499.858 1123.78C499.515 1124.17 499.086 1124.36 498.571 1124.36H495.933C494.946 1124.36 494.088 1124 493.359 1123.27C492.63 1122.54 492.265 1121.68 492.265 1120.69V1111.17C492.265 1110.18 492.63 1109.32 493.359 1108.59C494.088 1107.86 494.946 1107.5 495.933 1107.5H517.426ZM512.986 1115.87V1114.13C512.986 1113.74 512.793 1113.55 512.407 1113.55H500.952C500.566 1113.55 500.373 1113.74 500.373 1114.13V1115.87C500.373 1116.25 500.566 1116.44 500.952 1116.44H512.407C512.793 1116.44 512.986 1116.25 512.986 1115.87ZM481.068 1079.51C480.081 1079.51 479.223 1079.16 478.494 1078.48C477.764 1077.75 477.4 1076.89 477.4 1075.9V1075C477.4 1074.02 477.764 1073.16 478.494 1072.43C479.223 1071.7 480.081 1071.33 481.068 1071.33H500.888C501.231 1071.33 501.403 1071.14 501.403 1070.76V1070.31C501.403 1069.32 501.767 1068.46 502.497 1067.73C503.226 1067 504.084 1066.64 505.071 1066.64H508.288C509.275 1066.64 510.133 1067 510.862 1067.73C511.592 1068.46 511.956 1069.32 511.956 1070.31V1070.76C511.956 1071.14 512.128 1071.33 512.471 1071.33H532.291C533.278 1071.33 534.136 1071.7 534.865 1072.43C535.594 1073.16 535.959 1074.02 535.959 1075V1075.9C535.959 1076.89 535.594 1077.75 534.865 1078.48C534.136 1079.16 533.278 1079.51 532.291 1079.51H481.068ZM496.255 1096.17H489.626C488.64 1096.17 487.782 1095.81 487.052 1095.08C486.323 1094.35 485.958 1093.49 485.958 1092.51V1085.11C485.958 1084.12 486.323 1083.26 487.052 1082.53C487.782 1081.8 488.64 1081.44 489.626 1081.44H523.732C524.719 1081.44 525.577 1081.8 526.306 1082.53C527.036 1083.26 527.4 1084.12 527.4 1085.11V1092.51C527.4 1093.49 527.036 1094.35 526.306 1095.08C525.577 1095.81 524.719 1096.17 523.732 1096.17H496.255ZM496.255 1088.07V1089.8C496.255 1090.19 496.426 1090.38 496.769 1090.38H516.59C516.976 1090.38 517.169 1090.19 517.169 1089.8V1088.07C517.169 1087.72 516.976 1087.55 516.59 1087.55H496.769C496.426 1087.55 496.255 1087.72 496.255 1088.07ZM568.907 1082.34C564.531 1083.5 561.099 1085.71 558.611 1088.97C556.165 1092.18 554.943 1096.09 554.943 1100.68C554.943 1103.55 555.5 1106.17 556.616 1108.53C557.774 1110.85 558.825 1112 559.769 1112C560.241 1112 560.756 1111.73 561.313 1111.17C561.871 1110.57 562.493 1109.56 563.18 1108.14C563.866 1106.68 564.552 1104.88 565.239 1102.74C565.925 1100.55 566.633 1097.74 567.362 1094.31C568.092 1090.88 568.757 1087.01 569.357 1082.72C569.4 1082.6 569.357 1082.49 569.229 1082.4C569.143 1082.32 569.035 1082.3 568.907 1082.34ZM559.769 1121.91C556.122 1121.91 552.755 1119.86 549.666 1115.74C546.62 1111.62 545.097 1106.6 545.097 1100.68C545.097 1092.23 547.95 1085.36 553.656 1080.09C559.361 1074.77 566.869 1072.11 576.178 1072.11C583.686 1072.11 589.885 1074.49 594.776 1079.25C599.666 1083.97 602.112 1090 602.112 1097.33C602.112 1104.2 600.525 1109.84 597.35 1114.26C594.175 1118.68 589.842 1121.51 584.351 1122.75C583.321 1122.97 582.356 1122.77 581.455 1122.17C580.597 1121.57 580.061 1120.76 579.846 1119.73L579.332 1117.54C579.117 1116.59 579.289 1115.72 579.846 1114.9C580.404 1114.04 581.155 1113.46 582.099 1113.16C588.877 1110.97 592.266 1105.7 592.266 1097.33C592.266 1093.43 591.172 1090.1 588.984 1087.36C586.796 1084.57 583.901 1082.75 580.297 1081.89C579.997 1081.85 579.804 1082.02 579.718 1082.4C578.602 1090.3 577.337 1096.9 575.921 1102.22C574.548 1107.5 573.004 1111.55 571.288 1114.39C569.572 1117.17 567.813 1119.13 566.011 1120.24C564.209 1121.36 562.128 1121.91 559.769 1121.91ZM614.596 1109.17C613.609 1109.17 612.751 1108.81 612.022 1108.08C611.293 1107.35 610.928 1106.49 610.928 1105.51V1104.41C610.928 1103.42 611.293 1102.57 612.022 1101.84C612.751 1101.11 613.609 1100.74 614.596 1100.74H634.352C634.695 1100.74 634.909 1100.55 634.995 1100.16C635.038 1099.61 635.102 1098.73 635.188 1097.53C635.188 1097.23 635.017 1097.08 634.673 1097.08C629.826 1097.38 625.278 1097.55 621.031 1097.59C620.001 1097.59 619.122 1097.25 618.393 1096.56C617.706 1095.87 617.32 1095.02 617.234 1093.99L617.17 1093.09C617.084 1092.1 617.384 1091.24 618.071 1090.51C618.757 1089.78 619.594 1089.42 620.581 1089.42C633.365 1089.25 644.97 1088.17 655.394 1086.2C655.437 1086.2 655.459 1086.16 655.459 1086.07C655.459 1085.99 655.437 1085.92 655.394 1085.88C654.365 1085.41 653.657 1084.66 653.271 1083.63C653.142 1083.33 652.949 1082.85 652.692 1082.21C652.477 1081.57 652.306 1081.07 652.177 1080.73C652.048 1080.39 651.791 1080.22 651.405 1080.22H650.954C650.611 1080.22 650.332 1080.34 650.118 1080.6C649.517 1081.37 648.509 1082.51 647.093 1084.01C646.364 1084.74 645.484 1085.13 644.455 1085.17C643.425 1085.17 642.503 1084.83 641.688 1084.14L638.47 1081.5C637.998 1081.07 637.998 1080.67 638.47 1080.28C638.513 1080.24 638.492 1080.22 638.406 1080.22H633.837C633.494 1080.22 633.365 1080.37 633.451 1080.67C633.536 1080.88 633.665 1081.22 633.837 1081.7C634.051 1082.17 634.201 1082.51 634.287 1082.72C634.63 1083.63 634.566 1084.53 634.094 1085.43C633.622 1086.29 632.914 1086.82 631.971 1087.04L629.911 1087.55C628.925 1087.81 627.959 1087.7 627.016 1087.23C626.115 1086.76 625.493 1086.03 625.149 1085.04C624.935 1084.57 624.635 1083.84 624.249 1082.85C623.862 1081.87 623.562 1081.12 623.348 1080.6C623.305 1080.34 623.112 1080.22 622.768 1080.22C622.511 1080.22 622.318 1080.3 622.189 1080.47C621.117 1081.89 619.873 1083.35 618.457 1084.85C617.728 1085.58 616.87 1085.94 615.883 1085.94C614.896 1085.9 614.038 1085.51 613.309 1084.78L612.344 1083.82C611.657 1083.13 611.293 1082.3 611.25 1081.31C611.25 1080.28 611.593 1079.38 612.279 1078.61C614.424 1076.25 616.248 1073.61 617.749 1070.69C618.264 1069.7 618.993 1068.95 619.937 1068.44C620.881 1067.88 621.868 1067.69 622.897 1067.86L625.214 1068.25C626.029 1068.37 626.63 1068.8 627.016 1069.53C627.445 1070.22 627.509 1070.93 627.209 1071.66C627.123 1071.91 627.209 1072.04 627.466 1072.04H637.44C638.427 1072.04 639.285 1072.41 640.014 1073.14C640.744 1073.87 641.108 1074.72 641.108 1075.71V1077C641.108 1077.08 641.151 1077.15 641.237 1077.19C641.366 1077.23 641.452 1077.21 641.495 1077.13C643.168 1075.15 644.712 1072.96 646.128 1070.56C646.643 1069.62 647.393 1068.89 648.38 1068.37C649.367 1067.86 650.375 1067.69 651.405 1067.86L653.657 1068.25C654.472 1068.37 655.073 1068.8 655.459 1069.53C655.845 1070.22 655.888 1070.93 655.587 1071.66C655.502 1071.91 655.587 1072.04 655.845 1072.04H666.27C667.256 1072.04 668.114 1072.41 668.844 1073.14C669.573 1073.87 669.938 1074.72 669.938 1075.71V1076.55C669.938 1077.53 669.573 1078.39 668.844 1079.12C668.114 1079.85 667.256 1080.22 666.27 1080.22H662.537C662.194 1080.22 662.065 1080.37 662.151 1080.67C662.151 1080.71 662.194 1080.82 662.28 1080.99C662.366 1081.16 662.409 1081.27 662.409 1081.31C662.666 1082.04 662.687 1082.77 662.473 1083.5C662.258 1084.18 661.829 1084.74 661.186 1085.17C660.971 1085.38 660.971 1085.51 661.186 1085.56C662.516 1085.99 663.395 1086.78 663.824 1087.94L664.403 1089.35C664.747 1090.25 664.704 1091.13 664.275 1091.99C663.846 1092.85 663.159 1093.39 662.216 1093.6C657.754 1094.63 652.456 1095.47 646.321 1096.11C645.892 1096.2 645.677 1096.39 645.677 1096.69C645.592 1098.23 645.506 1099.41 645.42 1100.23C645.334 1100.57 645.484 1100.74 645.87 1100.74H666.463C667.449 1100.74 668.307 1101.11 669.037 1101.84C669.766 1102.57 670.131 1103.42 670.131 1104.41V1105.51C670.131 1106.49 669.766 1107.35 669.037 1108.08C668.307 1108.81 667.449 1109.17 666.463 1109.17H647.994C647.651 1109.17 647.586 1109.32 647.801 1109.62C650.761 1112.93 656.896 1115.31 666.205 1116.77C667.149 1116.9 667.857 1117.37 668.329 1118.18C668.801 1119 668.865 1119.83 668.522 1120.69L667.685 1122.82C667.299 1123.8 666.634 1124.55 665.69 1125.07C664.79 1125.58 663.803 1125.73 662.73 1125.52C657.84 1124.45 653.485 1122.9 649.667 1120.88C645.849 1118.91 642.803 1116.7 640.529 1114.26C640.315 1114.04 640.1 1114.04 639.886 1114.26C635.553 1119.71 628.367 1123.46 618.328 1125.52C617.256 1125.73 616.248 1125.58 615.304 1125.07C614.403 1124.55 613.759 1123.8 613.373 1122.82L612.537 1120.69C612.193 1119.83 612.258 1119 612.73 1118.18C613.202 1117.37 613.888 1116.9 614.789 1116.77C619.208 1116.08 622.726 1115.18 625.342 1114.06C628.002 1112.95 630.083 1111.47 631.585 1109.62C631.799 1109.32 631.735 1109.17 631.391 1109.17H614.596ZM681.328 1124.75L679.011 1122.36C678.239 1121.59 677.746 1120.67 677.531 1119.6C677.317 1118.48 677.381 1117.41 677.724 1116.38C678.582 1113.72 679.161 1110.72 679.462 1107.37C679.805 1103.98 679.976 1098.81 679.976 1091.86V1089.1C679.976 1088.19 680.298 1087.42 680.942 1086.78C681.585 1086.14 682.357 1085.81 683.258 1085.81C683.601 1085.81 683.73 1085.62 683.644 1085.23C683.516 1084.59 683.301 1083.69 683.001 1082.53C682.701 1081.37 682.508 1080.56 682.422 1080.09C682.379 1079.87 682.207 1079.76 681.907 1079.76C681.092 1079.76 680.405 1079.49 679.848 1078.93C679.29 1078.37 679.011 1077.68 679.011 1076.87V1075.58C679.011 1074.6 679.376 1073.74 680.105 1073.01C680.834 1072.28 681.692 1071.91 682.679 1071.91H688.278C688.664 1071.91 688.857 1071.74 688.857 1071.4V1071.14C688.857 1070.15 689.221 1069.32 689.951 1068.63C690.68 1067.9 691.538 1067.54 692.525 1067.54H695.228C696.214 1067.54 697.072 1067.9 697.802 1068.63C698.531 1069.32 698.896 1070.15 698.896 1071.14V1071.4C698.896 1071.74 699.067 1071.91 699.41 1071.91H704.108C705.223 1071.91 706.124 1072.3 706.811 1073.07C706.854 1073.16 706.918 1073.18 707.004 1073.14C707.09 1073.09 707.132 1073.03 707.132 1072.94V1072.75C707.132 1071.76 707.497 1070.93 708.226 1070.24C708.956 1069.51 709.814 1069.15 710.8 1069.15H734.353C735.34 1069.15 736.176 1069.51 736.863 1070.24C737.592 1070.93 737.957 1071.76 737.957 1072.75V1073.91C737.957 1074.9 737.592 1075.75 736.863 1076.48C736.176 1077.21 735.34 1077.58 734.353 1077.58H727.532C727.103 1077.58 726.867 1077.73 726.824 1078.03C726.781 1078.2 726.717 1078.46 726.631 1078.8C726.588 1079.1 726.545 1079.34 726.502 1079.51C726.416 1079.85 726.545 1080.02 726.888 1080.02H732.937C733.924 1080.02 734.782 1080.39 735.511 1081.12C736.241 1081.85 736.605 1082.7 736.605 1083.69V1110.33C736.605 1111.32 736.241 1112.18 735.511 1112.91C734.782 1113.59 733.924 1113.93 732.937 1113.93H718.844H713.375C712.388 1113.93 711.53 1113.59 710.8 1112.91C710.071 1112.18 709.707 1111.32 709.707 1110.33V1083.69C709.707 1082.7 710.071 1081.85 710.8 1081.12C711.53 1080.39 712.388 1080.02 713.375 1080.02H715.82C716.206 1080.02 716.442 1079.85 716.528 1079.51C716.571 1079.34 716.635 1079.1 716.721 1078.8C716.807 1078.46 716.871 1078.2 716.914 1078.03C717 1077.73 716.849 1077.58 716.463 1077.58H710.8C709.685 1077.58 708.784 1077.19 708.098 1076.42C708.055 1076.33 707.99 1076.31 707.905 1076.35C707.819 1076.35 707.776 1076.4 707.776 1076.48V1077.83C707.776 1078.35 707.583 1078.8 707.197 1079.19C706.854 1079.57 706.425 1079.76 705.91 1079.76C705.738 1079.76 705.609 1079.85 705.524 1080.02C705.223 1081.44 704.794 1083.18 704.237 1085.23C704.151 1085.62 704.28 1085.81 704.623 1085.81C705.609 1085.81 706.468 1086.18 707.197 1086.91C707.926 1087.64 708.291 1088.49 708.291 1089.48V1090C708.291 1090.81 708.033 1091.54 707.519 1092.18C707.004 1092.83 706.36 1093.26 705.588 1093.47C705.374 1093.56 705.352 1093.73 705.524 1093.99C705.567 1094.03 705.609 1094.11 705.652 1094.24C705.738 1094.37 705.803 1094.46 705.845 1094.5C706.317 1095.32 706.425 1096.22 706.167 1097.2C705.91 1098.19 705.374 1098.9 704.558 1099.33C701.984 1100.74 698.853 1102.01 695.163 1103.12C694.176 1103.42 693.19 1103.36 692.203 1102.93C691.259 1102.5 690.573 1101.79 690.144 1100.81L690.079 1100.61C689.693 1099.76 689.715 1098.9 690.144 1098.04C690.573 1097.14 691.259 1096.56 692.203 1096.3C695.077 1095.49 697.458 1094.67 699.346 1093.86C699.389 1093.77 699.389 1093.71 699.346 1093.66H689.565C689.179 1093.66 688.986 1093.84 688.986 1094.18V1098.3C688.986 1109.32 687.784 1117.9 685.382 1124.04C685.082 1124.85 684.481 1125.33 683.58 1125.45C682.679 1125.58 681.928 1125.35 681.328 1124.75ZM718.844 1088.19V1089.35C718.844 1089.74 719.016 1089.93 719.359 1089.93H726.438C726.781 1089.93 726.953 1089.74 726.953 1089.35V1088.19C726.953 1087.81 726.781 1087.62 726.438 1087.62H719.359C719.016 1087.62 718.844 1087.81 718.844 1088.19ZM718.844 1096.37V1097.65C718.844 1098 719.016 1098.17 719.359 1098.17H726.438C726.781 1098.17 726.953 1098 726.953 1097.65V1096.37C726.953 1096.02 726.781 1095.85 726.438 1095.85H719.359C719.016 1095.85 718.844 1096.02 718.844 1096.37ZM718.844 1104.67V1105.96C718.844 1106.34 719.016 1106.53 719.359 1106.53H726.438C726.781 1106.53 726.953 1106.34 726.953 1105.96V1104.67C726.953 1104.28 726.781 1104.09 726.438 1104.09H719.359C719.016 1104.09 718.844 1104.28 718.844 1104.67ZM691.624 1079.76C691.238 1079.76 691.088 1079.94 691.173 1080.28L692.332 1085.3C692.418 1085.64 692.632 1085.81 692.975 1085.81H695.163C695.549 1085.81 695.785 1085.64 695.871 1085.3C696.472 1083.15 696.901 1081.5 697.158 1080.34C697.244 1079.96 697.115 1079.76 696.772 1079.76H691.624ZM706.939 1122.88C706.596 1122.24 706.489 1121.51 706.618 1120.69C706.661 1120.61 706.639 1120.54 706.553 1120.5C706.468 1120.46 706.382 1120.48 706.296 1120.56C702.435 1123.05 697.973 1125.07 692.911 1126.61C691.924 1126.91 690.959 1126.83 690.015 1126.35C689.114 1125.88 688.471 1125.15 688.085 1124.17L687.827 1123.59C687.484 1122.69 687.505 1121.81 687.892 1120.95C688.321 1120.09 689.007 1119.51 689.951 1119.21C695.099 1117.67 699.625 1115.76 703.529 1113.48C704.344 1112.97 705.245 1112.82 706.232 1113.03C707.218 1113.25 707.969 1113.76 708.484 1114.58C709.127 1115.57 709.299 1116.57 708.999 1117.6C708.956 1117.69 708.977 1117.77 709.063 1117.86C709.192 1117.9 709.299 1117.9 709.385 1117.86C711.015 1117.13 712.903 1116.1 715.048 1114.77C715.863 1114.26 716.764 1114.09 717.75 1114.26C718.737 1114.43 719.509 1114.92 720.067 1115.74L722.062 1118.83C722.148 1118.91 722.255 1118.95 722.384 1118.95C722.512 1118.95 722.598 1118.91 722.641 1118.83L724.057 1116.12C724.529 1115.22 725.258 1114.62 726.245 1114.32C727.231 1113.98 728.197 1114.02 729.14 1114.45C731.243 1115.44 733.581 1116.7 736.155 1118.25C737.013 1118.8 737.57 1119.58 737.828 1120.56C738.085 1121.59 737.957 1122.56 737.442 1123.46L736.991 1124.3C736.519 1125.15 735.79 1125.69 734.803 1125.9C733.817 1126.16 732.916 1126.03 732.101 1125.52C729.269 1123.8 726.03 1122.11 722.384 1120.43C722.04 1120.31 721.719 1120.35 721.418 1120.56C718.93 1122.49 715.949 1124.23 712.474 1125.78C711.53 1126.16 710.565 1126.16 709.578 1125.78C708.634 1125.43 707.926 1124.81 707.454 1123.91L706.939 1122.88ZM694.134 1114.71C693.147 1115.01 692.182 1114.94 691.238 1114.51C690.337 1114.04 689.693 1113.31 689.307 1112.33L689.05 1111.75C688.707 1110.85 688.728 1109.97 689.114 1109.11C689.543 1108.21 690.23 1107.63 691.173 1107.37C695.506 1106.13 699.217 1104.69 702.306 1103.06C703.121 1102.59 704.001 1102.5 704.945 1102.8C705.931 1103.06 706.639 1103.6 707.068 1104.41C707.54 1105.31 707.647 1106.26 707.39 1107.24C707.132 1108.23 706.575 1108.98 705.717 1109.49C702.242 1111.6 698.381 1113.33 694.134 1114.71ZM777.597 1107.24C773.907 1107.24 772.063 1108.55 772.063 1111.17C772.063 1113.96 773.907 1115.35 777.597 1115.35C779.356 1115.35 780.621 1114.96 781.393 1114.19C782.166 1113.42 782.552 1112.13 782.552 1110.33V1109.17C782.552 1108.74 782.38 1108.47 782.037 1108.34C780.621 1107.61 779.141 1107.24 777.597 1107.24ZM778.176 1124.17C773.242 1124.17 769.403 1123.01 766.657 1120.69C763.954 1118.42 762.603 1115.24 762.603 1111.17C762.603 1107.18 763.954 1104.07 766.657 1101.84C769.36 1099.56 773.199 1098.43 778.176 1098.43C779.463 1098.43 780.75 1098.56 782.037 1098.81C782.38 1098.9 782.552 1098.75 782.552 1098.36V1088.58C782.552 1088.19 782.359 1088 781.973 1088H768.588C767.601 1088 766.743 1087.64 766.014 1086.91C765.327 1086.18 764.984 1085.32 764.984 1084.33V1082.85C764.984 1081.87 765.327 1081.01 766.014 1080.28C766.743 1079.55 767.601 1079.19 768.588 1079.19H781.973C782.359 1079.19 782.552 1079.01 782.552 1078.67V1073.39C782.552 1072.41 782.916 1071.57 783.646 1070.88C784.375 1070.15 785.233 1069.79 786.22 1069.79H788.794C789.78 1069.79 790.617 1070.15 791.303 1070.88C792.033 1071.57 792.397 1072.41 792.397 1073.39V1078.67C792.397 1079.01 792.59 1079.19 792.977 1079.19H798.832C799.819 1079.19 800.677 1079.55 801.407 1080.28C802.136 1081.01 802.5 1081.87 802.5 1082.85V1084.33C802.5 1085.32 802.136 1086.18 801.407 1086.91C800.677 1087.64 799.819 1088 798.832 1088H792.977C792.59 1088 792.397 1088.19 792.397 1088.58V1104.15C792.397 1104.45 792.548 1104.75 792.848 1105.05C794.864 1106.86 797.417 1109.32 800.506 1112.45C801.192 1113.18 801.535 1114.06 801.535 1115.09C801.535 1116.08 801.171 1116.94 800.441 1117.67L799.154 1118.89C798.425 1119.58 797.567 1119.92 796.58 1119.92C795.593 1119.92 794.757 1119.55 794.071 1118.83C793.856 1118.57 793.513 1118.2 793.041 1117.73C792.569 1117.26 792.226 1116.9 792.011 1116.64C791.925 1116.55 791.797 1116.51 791.625 1116.51C791.496 1116.51 791.411 1116.57 791.368 1116.7C789.394 1121.68 784.997 1124.17 778.176 1124.17ZM753.98 1123.78C752.95 1123.91 752.006 1123.67 751.148 1123.07C750.29 1122.47 749.754 1121.66 749.54 1120.63C747.952 1113.33 747.159 1105.57 747.159 1097.33C747.159 1089.1 747.952 1081.33 749.54 1074.04C749.754 1073.01 750.29 1072.19 751.148 1071.59C752.006 1070.99 752.95 1070.76 753.98 1070.88L756.425 1071.21C757.369 1071.29 758.12 1071.74 758.678 1072.56C759.235 1073.33 759.407 1074.21 759.192 1075.2C757.734 1082.06 757.004 1089.44 757.004 1097.33C757.004 1105.23 757.734 1112.61 759.192 1119.47C759.407 1120.46 759.235 1121.34 758.678 1122.11C758.12 1122.88 757.369 1123.33 756.425 1123.46L753.98 1123.78ZM824.315 1080.41L823.994 1078.93C823.779 1077.94 823.929 1077.02 824.444 1076.16C824.959 1075.26 825.71 1074.7 826.696 1074.49C831.802 1073.42 836.821 1072.88 841.755 1072.88C847.46 1072.88 851.9 1073.93 855.075 1076.03C858.25 1078.13 859.837 1080.88 859.837 1084.27C859.837 1085.86 859.623 1087.27 859.194 1088.52C858.765 1089.76 858.035 1090.9 857.006 1091.93C856.019 1092.91 855.161 1093.69 854.432 1094.24C853.702 1094.76 852.608 1095.49 851.15 1096.43C847.761 1098.53 845.594 1100.44 844.65 1102.16C843.363 1104.43 841.819 1105.57 840.017 1105.57H837.25C836.22 1105.57 835.362 1105.2 834.676 1104.48C833.989 1103.75 833.796 1102.91 834.097 1101.97C834.397 1100.85 834.848 1099.82 835.448 1098.88C836.049 1097.89 836.842 1096.95 837.829 1096.05C838.816 1095.14 839.588 1094.5 840.146 1094.11C840.746 1093.69 841.669 1093.02 842.913 1092.12C844.157 1091.26 845.079 1090.6 845.68 1090.13C846.323 1089.61 846.924 1088.97 847.482 1088.19C848.082 1087.38 848.383 1086.56 848.383 1085.75C848.383 1082.92 845.637 1081.5 840.146 1081.5C836.714 1081.5 832.874 1082.02 828.627 1083.05C827.64 1083.26 826.718 1083.11 825.86 1082.6C825.045 1082.08 824.53 1081.35 824.315 1080.41ZM840.532 1110.85C841.519 1110.85 842.377 1111.21 843.106 1111.94C843.835 1112.67 844.2 1113.53 844.2 1114.51V1116.83C844.2 1117.82 843.835 1118.68 843.106 1119.4C842.377 1120.13 841.519 1120.5 840.532 1120.5H836.671C835.684 1120.5 834.826 1120.13 834.097 1119.4C833.41 1118.68 833.067 1117.82 833.067 1116.83V1114.51C833.067 1113.53 833.41 1112.67 834.097 1111.94C834.826 1111.21 835.684 1110.85 836.671 1110.85H840.532Z" fill="white"/>
<g filter="url(#filter0_d_603_12617)">
<path d="M944.742 1353.35C962.654 1363.15 852.997 1394.35 854.846 1417.17C857.129 1445.31 917.677 1412.76 937.543 1399.65C935.444 1406.28 934.914 1409.53 938.383 1415.2C941.852 1420.87 948.851 1423.38 955.707 1422.9C953.558 1432.46 958.783 1440.53 968.195 1444.46C970.82 1457.5 976.284 1461.62 984.679 1463.95C1005.71 1469.8 1020.22 1458.12 1041.27 1445.23C1062.32 1432.35 1074.17 1414.49 1074.17 1414.49C1074.17 1414.49 1097.72 1404.01 1095.06 1391.82C1086.68 1367.17 1074.74 1339.01 1053.56 1323.24C1012.69 1336.92 1029.86 1327.48 992.663 1325.49C967.716 1323.21 942.914 1323.33 920.149 1308.69C911.294 1306.23 908.913 1318.94 910.074 1325.33C914.262 1340.86 930.691 1348.56 944.745 1353.35L944.742 1353.35Z" fill="url(#paint2_linear_603_12617)"/>
<path d="M928.159 1416.65C917.749 1422.47 904.886 1428.83 892.808 1433.05C883.586 1436.28 873.447 1438.76 864.864 1437.81C860.395 1437.31 855.541 1435.79 851.624 1432.15C847.571 1428.39 845.596 1423.35 845.157 1417.95L845.157 1417.95C844.599 1411.06 848.304 1405.48 851.73 1401.73C855.342 1397.77 860.208 1394.11 865.36 1390.78C875.709 1384.1 889.246 1377.5 901.638 1371.6C903.271 1370.82 904.88 1370.06 906.461 1369.31C915.487 1365.03 923.564 1361.19 929.642 1357.84C925.728 1356.03 921.8 1353.89 918.14 1351.34C910.554 1346.03 903.56 1338.51 900.688 1327.86L900.582 1327.47L900.51 1327.07C899.626 1322.2 900.035 1315.48 902.407 1309.89C903.624 1307.03 905.733 1303.58 909.365 1301.21C913.355 1298.61 918.085 1298.03 922.748 1299.32L924.169 1299.71L925.409 1300.51C942.812 1311.71 961.267 1313.18 982.778 1314.91C986.226 1315.18 989.753 1315.46 993.367 1315.79C1008.09 1316.59 1016.32 1318.82 1020.6 1319.98C1021.79 1320.3 1022.68 1320.54 1023.31 1320.65C1025.96 1321.08 1029.46 1321.06 1050.48 1314.02L1055.3 1312.41L1059.37 1315.44C1083.21 1333.2 1095.9 1364.1 1104.27 1388.69L1104.44 1389.21L1104.56 1389.75C1105.99 1396.3 1103.68 1401.96 1100.96 1405.97C1098.26 1409.93 1094.62 1413.14 1091.42 1415.52C1088.15 1417.96 1084.86 1419.9 1082.44 1421.21C1081.78 1421.56 1081.18 1421.88 1080.64 1422.15C1080.36 1422.53 1080.05 1422.95 1079.7 1423.4C1078.11 1425.47 1075.79 1428.33 1072.77 1431.61C1066.76 1438.14 1057.85 1446.48 1046.35 1453.52C1044.13 1454.88 1041.91 1456.27 1039.69 1457.67C1032.04 1462.48 1024.35 1467.32 1016.79 1470.55C1006.34 1475.02 995.162 1476.95 982.076 1473.32C977.003 1471.91 971.609 1469.63 967.154 1464.84C963.709 1461.14 961.383 1456.53 959.808 1451.09C952.579 1446.74 947.26 1439.94 945.857 1431.62C939.722 1430 933.861 1426.44 930.092 1420.27C929.363 1419.08 928.712 1417.88 928.159 1416.65Z" stroke="white" stroke-width="19.441"/>
</g>
<defs>
<filter id="filter0_d_603_12617" x="715.493" y="1175.53" width="519.113" height="435.779" filterUnits="userSpaceOnUse" color-interpolation-filters="sRGB">
<feFlood flood-opacity="0" result="BackgroundImageFix"/>
<feColorMatrix in="SourceAlpha" type="matrix" values="0 0 0 0 0 0 0 0 0 0 0 0 0 0 0 0 0 0 127 0" result="hardAlpha"/>
<feOffset dy="6.48033"/>
<feGaussianBlur stdDeviation="59.943"/>
<feComposite in2="hardAlpha" operator="out"/>
<feColorMatrix type="matrix" values="0 0 0 0 0.552941 0 0 0 0 0.105882 0 0 0 0 0.8 0 0 0 0.7 0"/>
<feBlend mode="normal" in2="BackgroundImageFix" result="effect1_dropShadow_603_12617"/>
<feBlend mode="normal" in="SourceGraphic" in2="effect1_dropShadow_603_12617" result="shape"/>
</filter>
<linearGradient id="paint0_linear_603_12617" x1="642.09" y1="995.987" x2="642.09" y2="720.193" gradientUnits="userSpaceOnUse">
<stop stop-color="#FF9500"/>
<stop offset="0.1919" stop-color="#FFAD00"/>
<stop offset="0.5455" stop-color="#FFD500"/>
<stop offset="0.8272" stop-color="#FFED00"/>
<stop offset="1" stop-color="#FFF600"/>
</linearGradient>
<linearGradient id="paint1_linear_603_12617" x1="568.599" y1="892.553" x2="715.584" y2="892.553" gradientUnits="userSpaceOnUse">
<stop stop-color="#CFD7E6"/>
<stop offset="0.0368" stop-color="#DAE0EC"/>
<stop offset="0.1263" stop-color="#EEF1F6"/>
<stop offset="0.2147" stop-color="#FBFCFD"/>
<stop offset="0.3" stop-color="white"/>
<stop offset="0.7" stop-color="white"/>
<stop offset="0.7853" stop-color="#FBFCFD"/>
<stop offset="0.8737" stop-color="#EEF1F6"/>
<stop offset="0.9632" stop-color="#DAE0EC"/>
<stop offset="1" stop-color="#CFD7E6"/>
</linearGradient>
<linearGradient id="paint2_linear_603_12617" x1="921.462" y1="1305.55" x2="1009.86" y2="1463.84" gradientUnits="userSpaceOnUse">
<stop stop-color="#FECC3C"/>
<stop offset="0.569468" stop-color="#FBC133"/>
<stop offset="1" stop-color="#E4A026"/>
</linearGradient>
</defs>
</svg>
