<svg width="41" height="40" viewBox="0 0 41 40" fill="none" xmlns="http://www.w3.org/2000/svg">
<rect x="0.966468" y="0.466468" width="39.0667" height="39.0667" rx="7.69673" fill="#1E1E1E"/>
<rect x="0.966468" y="0.466468" width="39.0667" height="39.0667" rx="7.69673" stroke="#EEDA00" stroke-width="0.932937"/>
<mask id="mask0_1017_10462" style="mask-type:alpha" maskUnits="userSpaceOnUse" x="3" y="13" width="35" height="14">
<g clip-path="url(#clip0_1017_10462)">
<g clip-path="url(#clip1_1017_10462)">
<path d="M12.5275 19.0219C12.2841 18.967 11.684 18.8905 11.2596 18.8905C10.9547 18.8905 10.6201 18.91 10.4382 18.9284C9.91405 18.9797 9.51256 19.116 9.24482 19.3333C8.985 19.5441 8.85325 19.8331 8.85325 20.1921C8.85325 20.5043 8.95384 20.7624 9.15245 20.9593C9.41227 21.2166 9.8418 21.377 10.4297 21.4356H10.6592V22.4227L10.5292 22.4562C10.2515 22.5279 9.98913 22.5627 9.72733 22.5627C9.51965 22.5627 9.30857 22.5415 9.08332 22.4975C7.99958 22.2938 7.37795 21.3826 7.37795 19.998C7.37795 18.9344 7.79955 17.9818 8.50617 17.4497C9.02354 17.0601 9.7058 16.8542 10.4796 16.8542C10.5629 16.8542 10.6476 16.8564 10.7315 16.8612C11.0547 16.8794 11.3463 16.9363 11.6285 16.9916C11.9467 17.0539 12.2476 17.1126 12.5728 17.1126C12.723 17.1126 12.8666 17.1001 13.012 17.0746C13.4446 16.9987 13.7654 16.7102 13.8699 16.3036C14.0413 15.6358 13.9473 15.0635 13.59 14.6028C12.8454 13.6437 11.0893 13.3018 9.6939 13.3018C9.5069 13.3018 9.3216 13.3077 9.14253 13.3196C7.50432 13.4276 6.10579 14.0923 5.09827 15.2414C4.05278 16.4337 3.5 18.0787 3.5 19.998C3.5 23.9298 5.81566 26.6758 9.1312 26.6758C9.51965 26.6758 10.0515 26.6758 10.6014 26.5812C11.1471 26.4874 11.4993 26.3778 11.8588 26.1896C12.6675 25.7819 13.263 25.1427 13.6296 24.289C13.9796 23.4745 14.0529 22.614 14.0529 22.0357C14.0529 20.682 13.8747 19.9399 13.4358 19.4727C13.1998 19.2075 12.7652 19.0763 12.5275 19.0219Z" fill="#606060"/>
<path d="M35.7884 15.1234C34.6777 13.9309 33.1267 13.3008 31.3038 13.3008C31.0763 13.3008 30.7148 13.3107 30.2022 13.3957L30.1971 13.3965C29.4245 13.4954 28.7292 13.8091 28.1877 14.3021C27.5026 14.9435 27.0136 15.8428 26.8555 18.1463C26.8226 18.6387 26.8076 19.2269 26.8076 19.9982C26.8076 20.7694 26.8229 21.3383 26.8555 21.8302C27.0136 24.1339 27.5021 25.0329 28.186 25.6733C28.7195 26.1592 29.4157 26.4796 30.1965 26.5998C30.6145 26.6519 30.9663 26.676 31.3038 26.676C33.1259 26.676 34.6768 26.0464 35.7884 24.8556C36.9075 23.6565 37.4991 21.9769 37.4991 19.9979C37.4991 18.0188 36.9075 16.3245 35.7881 15.1232L35.7884 15.1234ZM32.9298 21.6216C32.5808 21.8594 32.1226 21.9798 31.5679 21.9798C31.114 21.9798 30.7626 21.8965 30.7476 21.8928L30.6147 21.8608V18.1222L30.7629 18.1007C30.7714 18.0996 30.9774 18.0695 31.2794 18.0695C31.6857 18.0695 32.2728 18.1248 32.7627 18.3886C33.3645 18.7124 33.6696 19.2538 33.6696 19.9984C33.6696 20.743 33.4206 21.2876 32.9293 21.6219L32.9298 21.6216Z" fill="#606060"/>
<path d="M20.1907 13.3008C18.595 13.3008 17.2319 13.938 16.2484 15.1438C15.2605 16.3554 14.7383 18.0341 14.7383 19.9982C14.7383 21.9622 15.2605 23.6262 16.2484 24.8352C17.2324 26.0393 18.5955 26.676 20.1907 26.676C23.5572 26.676 26.0007 23.8676 26.0007 19.9982C26.0007 18.0905 25.4046 16.3684 24.3225 15.1495C23.2643 13.9573 21.7969 13.3008 20.1907 13.3008ZM21.4294 21.0485L20.3695 23.0542L19.3095 21.0485L17.3038 19.9885L19.3095 18.9286L20.3695 16.9229L21.4294 18.9286L23.4351 19.9885L21.4294 21.0485Z" fill="#606060"/>
</g>
</g>
</mask>
<g mask="url(#mask0_1017_10462)">
<path d="M40.4663 24.8086V28.0045H20.5627L40.4663 24.8086Z" fill="#EEDA00" stroke="#EEDA00" stroke-width="0.0583085"/>
<path d="M40.4663 24.7496L20.5403 27.9491L40.4663 21.2476V24.7496Z" fill="#FEF806" stroke="#EEDA00" stroke-width="0.0583085"/>
<path d="M40.6412 16.8936V16.6473L40.4253 16.7658L20.1271 27.9059L20.2437 28.1719L40.5419 21.3451L40.6412 21.3117V21.207V16.8936Z" fill="#EEDA00" stroke="#EEDA00" stroke-width="0.291543"/>
<path d="M40.4663 16.8767L20.4431 27.866L40.4663 11.0674V16.8767Z" fill="#FEF806" stroke="#EEDA00" stroke-width="0.0583085"/>
<path d="M40.6412 5.03418V4.88841H40.4955H37.776H37.7039L37.6602 4.94566L20.0814 27.9455L20.291 28.1457L40.5891 11.1164L40.6412 11.0727V11.0047V5.03418Z" fill="#EEDA00" stroke="#EEDA00" stroke-width="0.291543"/>
<path d="M37.717 5.06333L20.3171 27.8292L30.1093 5.06333H37.717Z" fill="#FEF806" stroke="#EEDA00" stroke-width="0.0583085"/>
<path d="M23.3975 4.88841H23.2706L23.2531 5.01409L20.0529 28.0139L20.3312 28.0916L30.224 5.09178L30.3115 4.88841H30.0901H23.3975Z" fill="#EEDA00" stroke="#EEDA00" stroke-width="0.291543"/>
<path d="M23.3641 5.06333L20.1973 27.8224L17.0306 5.06333H23.3641Z" fill="#FEF806" stroke="#EEDA00" stroke-width="0.0583085"/>
<path d="M10.3047 4.88841H10.0833L10.1708 5.09178L20.0636 28.0916L20.3419 28.0139L17.1416 5.01409L17.1241 4.88841H16.9973H10.3047Z" fill="#EEDA00" stroke="#EEDA00" stroke-width="0.291543"/>
<path d="M10.2859 5.06333L20.0781 27.8292L2.67812 5.06333H10.2859Z" fill="#FEF806" stroke="#EEDA00" stroke-width="0.0583085"/>
<path d="M-0.100586 4.88841H-0.246357V5.03418V11.0047V11.0727L-0.194276 11.1164L20.1039 28.1457L20.3134 27.9455L2.73468 4.94566L2.69092 4.88841H2.61886H-0.100586Z" fill="#EEDA00" stroke="#EEDA00" stroke-width="0.291543"/>
<path d="M-0.0714317 11.0674L19.9518 27.866L-0.0714317 16.8767V11.0674Z" fill="#FEF806" stroke="#EEDA00" stroke-width="0.0583085"/>
<path d="M-0.246357 21.207V21.3117L-0.147054 21.3451L20.1511 28.1719L20.2677 27.9059L-0.0304513 16.7658L-0.246357 16.6473V16.8936V21.207Z" fill="#EEDA00" stroke="#EEDA00" stroke-width="0.291543"/>
<path d="M-0.0714317 21.2476L19.8546 27.9491L-0.0714317 24.7496V21.2476Z" fill="#FEF806" stroke="#EEDA00" stroke-width="0.0583085"/>
<path d="M-0.0714317 24.8086L19.8321 28.0045H-0.0714317V24.8086Z" fill="#EEDA00" stroke="#EEDA00" stroke-width="0.0583085"/>
</g>
<defs>
<clipPath id="clip0_1017_10462">
<rect width="33.9997" height="13.3752" fill="white" transform="translate(3.5 13.3008)"/>
</clipPath>
<clipPath id="clip1_1017_10462">
<rect width="33.9997" height="13.3752" fill="white" transform="translate(3.5 13.3008)"/>
</clipPath>
</defs>
</svg>
