<?xml version="1.0" encoding="utf-8"?>
<!-- Generator: Adobe Illustrator 24.1.2, SVG Export Plug-In . SVG Version: 6.00 Build 0)  -->
<svg version="1.1" id="Layer_1" xmlns="http://www.w3.org/2000/svg" xmlns:xlink="http://www.w3.org/1999/xlink" x="0px" y="0px"
	 width="64px" height="64px" viewBox="0 0 64 64" style="enable-background:new 0 0 64 64;" xml:space="preserve">
<style type="text/css">
	.st0{fill:#CF0100;}
	.st1{fill:url(#SVGID_1_);}
	.st2{fill:#7A8082;}
	.st3{fill:url(#SVGID_2_);}
	.st4{fill:url(#SVGID_3_);}
	.st5{fill:url(#SVGID_4_);}
</style>
<path class="st0" d="M35.15,45.16l1.66,3.13c0.7,1.31,0.2,2.94-1.11,3.64l-6.42,3.41c-1.31,0.7-2.94,0.2-3.64-1.11l-1.66-3.13
	l-2.63,1.4l2,3.76c1.22,2.29,4.06,3.16,6.35,1.94l8.15-4.33c2.29-1.22,3.16-4.06,1.94-6.35l-2-3.76L35.15,45.16z"/>
<radialGradient id="SVGID_1_" cx="1824.3215" cy="2202.4849" r="5.2224" gradientTransform="matrix(0.7071 0.7072 3.5355 -3.536 -9070.3721 6555.3364)" gradientUnits="userSpaceOnUse">
	<stop  offset="0.107" style="stop-color:#D5D9DB"/>
	<stop  offset="0.3597" style="stop-color:#BABEC0"/>
	<stop  offset="0.781" style="stop-color:#929699"/>
	<stop  offset="1" style="stop-color:#83878A"/>
</radialGradient>
<path class="st1" d="M2.32,52.91C0.23,54.99,9,63.76,11.09,61.68l1.14-1.14l-8.77-8.77L2.32,52.91z"/>
<path class="st2" d="M12.22,60.55c-0.58,0.58-3.02-0.91-5.44-3.33c-2.42-2.42-3.91-4.86-3.33-5.44c0.58-0.58,3.02,0.91,5.44,3.33
	C11.32,57.53,12.81,59.96,12.22,60.55z"/>
<linearGradient id="SVGID_2_" gradientUnits="userSpaceOnUse" x1="1207.0669" y1="-64.4871" x2="1251.5074" y2="-64.4871" gradientTransform="matrix(0.7071 0.7071 -0.7071 0.7071 -889.6436 -784.8184)">
	<stop  offset="0.2406" style="stop-color:#FF1C23"/>
	<stop  offset="0.6717" style="stop-color:#BD0C0E"/>
	<stop  offset="1" style="stop-color:#8F0100"/>
</linearGradient>
<path class="st3" d="M27.46,5.11L3.96,51.78v0c-0.94,1.45,6.83,9.2,8.26,8.26l46.64-23.49L27.46,5.11z"/>
<linearGradient id="SVGID_3_" gradientUnits="userSpaceOnUse" x1="1206.913" y1="-87.6603" x2="1251.6678" y2="-87.6603" gradientTransform="matrix(0.7071 0.7071 -0.7071 0.7071 -889.6436 -784.8184)">
	<stop  offset="0" style="stop-color:#EBEFF2"/>
	<stop  offset="0.2723" style="stop-color:#E9EDF0"/>
	<stop  offset="0.4" style="stop-color:#E1E6E9"/>
	<stop  offset="0.4974" style="stop-color:#D5D9DC"/>
	<stop  offset="0.5796" style="stop-color:#C2C7CA"/>
	<stop  offset="0.6514" style="stop-color:#ABB1B4"/>
	<stop  offset="0.6658" style="stop-color:#A5ABAE"/>
</linearGradient>
<path class="st4" d="M29.31,3.05l-1.26,1.26c-3.23,3.23,1.24,12.93,9.98,21.67c8.74,8.74,18.43,13.21,21.67,9.97l1.26-1.26
	L29.31,3.05z"/>
<radialGradient id="SVGID_4_" cx="1228.2291" cy="-84.5559" r="34.4887" gradientTransform="matrix(0.7071 0.7072 -0.3474 0.3474 -859.227 -815.0186)" gradientUnits="userSpaceOnUse">
	<stop  offset="0" style="stop-color:#2D3338"/>
	<stop  offset="0.1439" style="stop-color:#32393E"/>
	<stop  offset="0.3286" style="stop-color:#41484E"/>
	<stop  offset="0.5356" style="stop-color:#5A6268"/>
	<stop  offset="0.759" style="stop-color:#7D868D"/>
	<stop  offset="0.9932" style="stop-color:#A9B5BC"/>
	<stop  offset="1" style="stop-color:#AAB6BD"/>
</radialGradient>
<path class="st5" d="M50.97,13.03c8.74,8.74,13.21,18.44,9.98,21.67c-3.23,3.23-12.93-1.24-21.67-9.98
	c-8.74-8.74-13.21-18.44-9.98-21.67C32.54-0.18,42.23,4.29,50.97,13.03z"/>
</svg>
