<svg width="1201" height="1201" viewBox="0 0 1201 1201" fill="none" xmlns="http://www.w3.org/2000/svg">
<rect width="1200" height="1200" transform="translate(0.98877 0.349121)" fill="white"/>
<rect x="87.9932" y="120.732" width="367.892" height="746.675" rx="36.3051" fill="#8D1BCC"/>
<path d="M271.45 393.06C311.551 393.06 344.059 360.551 344.059 320.45C344.059 280.349 311.551 247.841 271.45 247.841C231.349 247.841 198.841 280.349 198.841 320.45C198.841 360.551 231.349 393.06 271.45 393.06Z" fill="url(#paint0_linear_25_786)"/>
<path d="M308.336 330.93C299.526 329.284 287.109 327.711 271.45 327.711C255.791 327.711 243.35 329.284 234.54 330.93C230.087 331.753 227.667 335.456 227.884 339.183C228.974 357.941 243.374 373.697 271.45 373.697C299.526 373.697 313.926 357.941 314.991 339.159C315.209 335.432 312.789 331.753 308.336 330.93Z" fill="#1A1626"/>
<path d="M250.805 364.016C250.805 364.016 259.978 368.856 271.45 368.856C282.922 368.856 292.095 364.016 292.095 364.016C292.095 364.016 285.222 356.755 271.45 359.175C257.703 356.755 250.805 364.016 250.805 364.016Z" fill="#FD7383"/>
<path d="M306.569 335.553C300.494 334.464 287.642 332.552 271.45 332.552C255.258 332.552 242.43 334.464 236.331 335.553C232.531 336.231 232.459 337.901 232.967 341.071C233.403 343.855 233.717 344.581 236.646 344.629C239.357 344.678 271.45 344.629 271.45 344.629C271.45 344.629 303.543 344.678 306.254 344.629C309.183 344.581 309.497 343.855 309.933 341.071C310.441 337.901 310.344 336.255 306.569 335.553Z" fill="url(#paint1_linear_25_786)"/>
<path d="M232.096 313.431C242.43 300.071 249.667 300.071 260.002 313.431C261.575 315.44 264.77 313.939 264.116 311.979C255.331 286.13 236.767 286.13 227.981 311.979C227.303 313.964 230.522 315.464 232.096 313.431Z" fill="#1A1626"/>
<path d="M282.922 313.431C293.257 300.071 300.494 300.071 310.828 313.431C312.402 315.44 315.597 313.939 314.943 311.979C306.157 286.13 287.593 286.13 278.808 311.979C278.13 313.964 281.349 315.464 282.922 313.431Z" fill="#1A1626"/>
<path d="M402.263 105H141.615C99.3042 105 65 139.401 65 181.83V806.309C65 848.738 99.3042 883.139 141.615 883.139H402.263C444.574 883.139 478.878 848.738 478.878 806.309V181.83C478.878 139.401 444.574 105 402.263 105ZM452.693 806.309C452.693 834.194 430.07 856.88 402.263 856.88H141.615C113.808 856.88 91.1849 834.194 91.1849 806.309V181.83C91.1849 153.945 113.808 131.259 141.615 131.259H166.209V147.44C166.209 155.397 172.645 161.851 180.579 161.851H368.677C376.612 161.851 383.048 155.397 383.048 147.44V131.259H402.253C430.06 131.259 452.683 153.945 452.683 181.83V806.309H452.693Z" fill="#1E1E1E"/>
<path d="M975.884 105H715.235C672.925 105 638.62 139.401 638.62 181.83V806.309C638.62 848.738 672.925 883.139 715.235 883.139H975.884C1018.19 883.139 1052.5 848.738 1052.5 806.309V181.83C1052.5 139.401 1018.19 105 975.884 105ZM1026.31 806.309C1026.31 834.194 1003.69 856.88 975.884 856.88H715.235C687.428 856.88 664.805 834.194 664.805 806.309V181.83C664.805 153.945 687.428 131.259 715.235 131.259H739.829V147.44C739.829 155.397 746.265 161.851 754.199 161.851H942.298C950.232 161.851 956.668 155.397 956.668 147.44V131.259H975.873C1003.68 131.259 1026.3 153.945 1026.3 181.83V806.309H1026.31Z" fill="#1E1E1E"/>
<rect x="101.305" y="585.438" width="160.953" height="66.5593" rx="4.84068" fill="white"/>
<rect x="281.621" y="585.438" width="160.953" height="66.5593" rx="4.84068" fill="white"/>
<rect x="101.305" y="668.939" width="160.953" height="66.5593" rx="4.84068" fill="white"/>
<rect x="281.621" y="668.939" width="160.953" height="66.5593" rx="4.84068" fill="white"/>
<g filter="url(#filter0_d_25_786)">
<path d="M477.149 565.977C488.378 572.12 419.631 591.683 420.791 605.986C422.222 623.627 460.181 603.22 472.635 595.005C471.319 599.16 470.987 601.199 473.162 604.753C475.337 608.307 479.725 609.883 484.022 609.583C482.675 615.574 485.951 620.632 491.852 623.096C493.497 631.274 496.923 633.853 502.186 635.316C515.37 638.98 524.468 631.657 537.666 623.579C550.863 615.502 558.29 604.307 558.29 604.307C558.29 604.307 573.051 597.737 571.388 590.094C566.134 574.642 558.65 556.988 545.372 547.1C519.745 555.679 530.513 549.756 507.191 548.511C491.551 547.079 476.002 547.157 461.731 537.976C456.179 536.436 454.686 544.406 455.414 548.41C458.04 558.146 468.339 562.977 477.15 565.976L477.149 565.977Z" fill="url(#paint2_linear_25_786)"/>
<path d="M466.752 605.66C460.226 609.31 452.162 613.298 444.59 615.944C438.808 617.965 432.452 619.522 427.071 618.924C424.27 618.613 421.227 617.662 418.77 615.38C416.23 613.02 414.991 609.864 414.717 606.479L414.717 606.478C414.367 602.16 416.689 598.661 418.837 596.306C421.101 593.823 424.152 591.528 427.382 589.444C433.87 585.256 442.357 581.119 450.126 577.419C451.149 576.932 452.158 576.453 453.149 575.983C458.808 573.297 463.872 570.893 467.682 568.79C465.228 567.657 462.765 566.318 460.471 564.714C455.715 561.389 451.331 556.673 449.53 549.997L449.464 549.751L449.418 549.5C448.864 546.451 449.121 542.238 450.608 538.733C451.371 536.936 452.693 534.775 454.97 533.29C457.471 531.658 460.436 531.293 463.36 532.104L464.25 532.351L465.028 532.851C475.938 539.87 487.508 540.796 500.994 541.876C503.156 542.049 505.367 542.226 507.632 542.432C516.864 542.934 522.021 544.331 524.709 545.059C525.453 545.26 526.007 545.41 526.407 545.476C528.063 545.749 530.261 545.732 543.437 541.321L546.457 540.311L549.012 542.213C563.958 553.342 571.915 572.714 577.158 588.132L577.269 588.46L577.343 588.798C578.236 592.902 576.792 596.452 575.082 598.966C573.394 601.448 571.108 603.458 569.107 604.951C567.055 606.481 564.991 607.697 563.473 608.519C563.061 608.742 562.683 608.94 562.348 609.11C562.173 609.346 561.976 609.608 561.758 609.893C560.76 611.192 559.303 612.986 557.41 615.042C553.642 619.135 548.058 624.364 540.847 628.777C539.459 629.626 538.067 630.502 536.672 631.379C531.876 634.396 527.053 637.429 522.317 639.454C515.765 642.255 508.758 643.468 500.554 641.187C497.374 640.303 493.992 638.878 491.199 635.874C489.039 633.55 487.581 630.662 486.593 627.249C482.061 624.524 478.727 620.261 477.847 615.045C474.001 614.031 470.327 611.796 467.964 607.934C467.507 607.187 467.099 606.432 466.752 605.66Z" stroke="white" stroke-width="12.188"/>
</g>
<path d="M159.788 973.46H144.842C146.899 977.333 149.501 980.782 152.829 983.626C155.673 980.782 158.093 977.333 159.788 973.46ZM164.507 966.199L169.408 968.317C167.17 976.486 163.539 982.9 158.759 987.982C163.6 990.766 169.348 992.823 176.125 994.033C174.552 995.546 172.434 998.632 171.466 1000.57C164.205 998.995 158.154 996.454 153.011 992.944C148.351 996.333 142.906 998.934 136.976 1000.75C136.068 998.934 134.313 996.09 132.922 994.638C138.247 993.307 143.148 991.129 147.323 988.224C144.176 984.957 141.453 981.205 139.275 976.788C136.492 984.775 132.317 992.702 125.782 998.632C124.269 996.756 121.97 994.88 119.61 993.549C130.078 984.957 134.071 971.282 135.705 960.269H121.909V953.25H136.552C136.855 949.317 136.915 946.11 137.036 944.235H144.539C144.418 946.413 144.297 949.559 143.934 953.25H174.491V960.269H143.148C142.845 962.266 142.482 964.324 141.998 966.502H163.176L164.507 966.199ZM213.398 981.447C212.914 983.202 212.551 985.138 212.551 986.47C212.551 989.132 214.366 991.129 220.841 991.129C224.895 991.129 229.07 990.705 233.426 989.919L233.124 997.603C229.675 998.087 225.621 998.511 220.78 998.511C210.615 998.511 205.108 995.001 205.108 988.89C205.108 986.046 205.653 983.142 206.137 980.782L213.398 981.447ZM206.561 947.926C206.077 949.62 205.471 952.343 205.229 953.674C205.108 954.34 204.927 955.126 204.745 955.913C208.134 955.429 211.583 954.763 214.911 953.977V961.54C211.28 962.387 207.166 963.053 203.112 963.537C202.567 966.139 201.962 968.862 201.296 971.343C199.058 979.814 195.064 992.157 191.676 999.358L183.265 996.514C186.895 990.403 191.494 977.756 193.733 969.285C194.156 967.651 194.58 965.897 195.003 964.203C193.612 964.263 192.281 964.324 191.01 964.324C188.045 964.324 185.806 964.203 183.688 964.081L183.507 956.518C186.593 956.881 188.59 957.002 191.131 957.002C192.886 957.002 194.701 956.941 196.577 956.82C196.819 955.489 197 954.34 197.121 953.371C197.363 951.133 197.484 948.652 197.303 947.2L206.561 947.926ZM210.131 966.26C213.519 965.897 217.815 965.655 221.748 965.655C225.197 965.655 228.828 965.836 232.398 966.199L232.216 973.46C229.191 973.097 225.5 972.674 221.809 972.674C217.634 972.674 213.943 972.855 210.131 973.339V966.26ZM225.923 949.68C227.436 951.919 229.614 955.731 230.703 957.97L225.863 960.088C224.653 957.607 222.777 953.977 221.143 951.677L225.923 949.68ZM233.063 946.958C234.697 949.196 236.936 953.069 237.965 955.187L233.184 957.244C231.914 954.703 229.977 951.193 228.283 948.894L233.063 946.958ZM268.824 947.321C268.158 949.438 267.795 951.496 267.372 953.493C267.251 954.037 267.13 954.703 267.009 955.368C273.907 955.005 282.075 954.098 289.397 952.524L289.518 959.725C283.225 960.754 273.604 961.903 265.496 962.327C264.649 966.018 263.681 969.89 262.773 972.855C267.674 970.132 272.394 969.043 277.779 969.043C287.581 969.043 294.056 974.247 294.056 981.992C294.056 995.606 280.926 1000.51 261.381 998.39L259.263 990.584C272.515 992.763 285.887 991.129 285.887 982.234C285.887 978.604 282.801 975.578 276.871 975.578C269.913 975.578 263.741 978.059 260.111 982.658C259.445 983.505 259.021 984.291 258.416 985.32L251.276 982.779C254.181 977.151 256.601 969.104 258.174 962.448C254.362 962.387 250.792 962.206 247.706 961.903V954.4C251.337 955.005 255.875 955.489 259.566 955.55C259.687 954.642 259.808 953.795 259.929 953.069C260.292 950.467 260.353 948.954 260.232 946.958L268.824 947.321ZM305.371 977.514C307.186 976.123 308.699 974.731 310.514 972.795C313.298 969.89 317.957 963.658 321.708 959.301C325.944 954.521 329.877 954.098 334.294 958.394C338.409 962.387 343.249 968.62 346.819 972.492C350.692 976.728 355.835 982.174 361.583 987.317L355.351 994.578C350.994 990.463 345.851 984.594 342.039 980.116C338.288 975.639 333.749 969.89 330.906 966.683C328.788 964.324 327.638 964.626 325.883 966.865C323.463 969.89 319.167 975.881 316.565 979.33C315.173 981.326 313.782 983.505 312.753 985.078L305.371 977.514ZM420.942 974.247C420.942 987.014 413.137 996.03 397.888 998.39L393.35 991.189C395.65 990.947 397.344 990.584 398.978 990.221C406.723 988.406 412.774 982.839 412.774 974.005C412.774 965.655 408.235 959.422 400.067 958.031C399.22 963.174 398.191 968.741 396.436 974.428C392.806 986.651 387.602 994.154 381.007 994.154C374.29 994.154 368.723 986.772 368.723 976.546C368.723 962.569 380.825 950.649 396.497 950.649C411.503 950.649 420.942 961.056 420.942 974.247ZM376.468 975.76C376.468 981.871 378.889 984.836 381.249 984.836C383.79 984.836 386.15 981.024 388.631 972.855C390.022 968.378 391.172 963.234 391.838 958.212C381.854 960.269 376.468 969.104 376.468 975.76ZM135.342 1065.63V1068.29H161.603V1065.63H135.342ZM135.342 1058.97V1061.57H161.603V1058.97H135.342ZM135.342 1052.25V1054.86H161.603V1052.25H135.342ZM168.924 1072.64H158.456C164.628 1074.82 171.587 1077.73 175.701 1079.72L167.351 1082.93C163.902 1080.93 157.73 1078.09 151.619 1075.79L157.065 1072.64H139.396L144.902 1075.07C139.88 1078.33 132.135 1081.3 126.024 1082.99C124.753 1081.6 122.212 1079 120.699 1077.73C126.568 1076.64 133.164 1074.7 137.339 1072.64H128.384V1047.96H148.472C147.565 1046.44 145.568 1044.39 144.297 1043.54C145.81 1042.57 146.96 1041.54 147.807 1040.51H142.361V1046.81H135.947V1040.51H130.622C129.715 1043.96 128.021 1047.65 124.814 1050.56C123.846 1049.23 121.546 1046.93 120.094 1046.08C124.511 1042.09 125.237 1037.13 125.237 1033.13V1027.63L129.836 1028.78C134.556 1028.23 139.396 1027.32 142.422 1026.36L146.839 1030.59C142.482 1031.92 136.734 1032.77 131.47 1033.19V1033.5C131.47 1034.04 131.47 1034.71 131.409 1035.31H148.049V1040.21C149.804 1037.91 150.167 1035.49 150.167 1033.19V1027.69L155.007 1028.84C160.03 1028.23 165.294 1027.32 168.561 1026.36L172.918 1030.65C168.259 1031.98 162.026 1032.77 156.399 1033.25V1033.56C156.399 1034.1 156.399 1034.71 156.339 1035.31H175.278V1040.51H167.654V1046.87H161.24V1040.51H155.128C154.1 1043.18 152.285 1045.78 149.199 1047.96H168.924V1072.64ZM201.054 1034.1H191.797V1037.37H201.054V1034.1ZM191.797 1045.66H201.054V1042.21H191.797V1045.66ZM207.771 1051.1H191.797V1082.81H184.657V1028.59H207.771V1051.1ZM214.729 1061.21H204.745V1068.35H214.729V1061.21ZM221.446 1074.28H204.745V1077.67H198.029V1055.28H221.446V1074.28ZM218.783 1045.72H228.344V1042.21H218.783V1045.72ZM228.344 1034.04H218.783V1037.37H228.344V1034.04ZM235.605 1028.59V1074.22C235.605 1078.21 234.818 1080.27 232.277 1081.42C229.796 1082.63 225.984 1082.81 220.417 1082.81C220.175 1080.75 219.025 1077.36 217.997 1075.43C221.506 1075.67 225.621 1075.61 226.77 1075.55C227.92 1075.55 228.344 1075.19 228.344 1074.1V1051.16H211.946V1028.59H235.605ZM268.521 1035.25C275.964 1036.28 288.005 1035.98 294.54 1035.19V1043C287.097 1043.66 276.145 1043.72 268.521 1043V1035.25ZM273.362 1061.09C272.878 1063.08 272.636 1064.54 272.636 1066.17C272.636 1068.83 274.935 1070.47 281.107 1070.47C286.492 1070.47 290.97 1069.98 296.295 1068.89L296.416 1077.06C292.483 1077.79 287.642 1078.21 280.805 1078.21C270.397 1078.21 265.375 1074.52 265.375 1068.29C265.375 1065.93 265.738 1063.51 266.403 1060.42L273.362 1061.09ZM259.203 1031.2C258.719 1032.47 257.932 1035.49 257.69 1036.58C256.904 1040.64 254.786 1052.74 254.786 1058.79C254.786 1059.94 254.846 1061.51 255.028 1062.72C255.936 1060.66 256.904 1058.55 257.751 1056.55L261.502 1059.51C259.808 1064.54 257.811 1071.13 257.146 1074.34C256.964 1075.25 256.843 1076.58 256.843 1077.18C256.843 1077.85 256.904 1078.82 256.964 1079.66L249.945 1080.15C248.735 1075.97 247.585 1068.59 247.585 1060.36C247.585 1051.29 249.461 1041.06 250.127 1036.4C250.308 1034.71 250.671 1032.41 250.732 1030.47L259.203 1031.2ZM326.004 1058.61L320.256 1060.48V1075C320.256 1078.57 319.59 1080.33 317.654 1081.42C315.597 1082.51 312.692 1082.69 308.457 1082.69C308.215 1080.87 307.307 1077.97 306.46 1076.09C308.759 1076.21 311.301 1076.21 312.087 1076.21C312.874 1076.15 313.177 1075.91 313.177 1075.07V1062.72C310.877 1063.45 308.638 1064.11 306.581 1064.72L304.645 1057.22C307.005 1056.79 309.909 1056.13 313.177 1055.34V1044.15H305.552V1037.49H313.177V1026.36H320.256V1037.49H326.246V1044.15H320.256V1053.58L325.278 1052.37L326.004 1058.61ZM348.816 1058.55H336.23C337.803 1061.69 339.921 1064.48 342.523 1066.9C345.125 1064.54 347.243 1061.75 348.816 1058.55ZM353.596 1051.83L358.316 1053.71C356.259 1061.03 352.931 1066.78 348.453 1071.19C352.447 1073.49 357.166 1075.19 362.491 1076.21C360.857 1077.79 358.86 1080.81 357.771 1082.75C351.841 1081.36 346.759 1079.06 342.523 1076.03C337.803 1079.12 332.358 1081.36 326.307 1082.87C325.581 1080.93 323.947 1077.91 322.616 1076.28C327.88 1075.25 332.721 1073.55 336.835 1071.07C333.931 1067.99 331.571 1064.29 329.574 1060.12L334.657 1058.55H328.062V1052.07H329.272C328.425 1050.62 325.883 1047.9 324.552 1046.87C330.542 1043.42 331.269 1038.7 331.269 1034.71V1028.53H352.689V1041.66C352.689 1043.3 352.87 1043.48 353.596 1043.48H355.29C356.198 1043.48 356.38 1042.63 356.501 1037.37C357.832 1038.4 360.555 1039.49 362.37 1039.91C361.765 1047.35 360.252 1049.41 356.077 1049.41H352.265C347.303 1049.41 345.791 1047.65 345.791 1041.72V1035.19H338.046C337.985 1040.88 336.291 1047.72 329.453 1052.07H352.265L353.596 1051.83ZM397.888 1037.19V1033.92H391.596V1037.19H397.888ZM410.958 1042.27H404.605V1046.81H410.958V1042.27ZM391.596 1042.27V1046.81H397.888V1042.27H391.596ZM378.949 1042.27V1046.81H385V1042.27H378.949ZM385 1037.19V1033.92H368.784V1028.29H421.245V1033.92H404.605V1037.19H418.098V1051.95H372.293V1037.19H385ZM415.194 1059.88H375.077V1054.43H415.194V1059.88ZM379.796 1068.59L386.392 1070.83C382.943 1075.31 377.497 1079.78 372.777 1082.51C371.567 1081.18 369.026 1078.82 367.453 1077.73C372.112 1075.55 376.952 1072.16 379.796 1068.59ZM402.729 1072.34L407.993 1068.77C412.652 1071.19 418.703 1075 421.971 1077.85L416.222 1081.84C413.439 1079.12 407.509 1075 402.729 1072.34ZM367.876 1062.48H422.455V1068.11H398.736V1075.91C398.736 1079.12 398.191 1080.81 395.892 1081.78C393.653 1082.81 390.688 1082.87 386.755 1082.87C386.452 1080.87 385.424 1078.27 384.516 1076.46C386.936 1076.58 389.599 1076.58 390.446 1076.52C391.232 1076.52 391.475 1076.34 391.475 1075.67V1068.11H367.876V1062.48Z" fill="#1E1E1E"/>
<path d="M741.657 953.19V950.649H729.918V946.11H747.768V957.789H736.937V958.999C736.937 960.33 737.24 960.572 738.752 960.572H743.654C744.864 960.572 745.106 960.209 745.348 958.152C746.437 958.938 748.797 959.664 750.37 959.967C749.765 964.142 748.192 965.292 744.38 965.292H737.905C732.46 965.292 731.068 963.9 731.068 959.059V953.19H741.657ZM721.81 953.19V950.649H710.374V946.11H727.861V957.789H717.151V959.059C717.151 960.33 717.393 960.572 718.966 960.572H723.625C724.835 960.572 725.077 960.209 725.32 958.212C726.348 958.999 728.647 959.725 730.281 960.027C729.676 964.142 728.042 965.292 724.412 965.292H718.059C712.734 965.292 711.221 963.9 711.221 959.059V953.19H721.81ZM708.498 955.671L702.387 959.664C701.056 956.699 697.425 952.343 694.339 949.317L700.027 945.687C703.173 948.591 706.985 952.645 708.498 955.671ZM726.106 974.186V978.18H733.125V974.186H726.106ZM722.657 983.505L727.921 985.32C724.896 988.164 719.813 990.947 715.699 992.641C717.211 993.005 718.845 993.186 720.66 993.247C728.103 993.61 742.927 993.428 751.399 992.702C750.612 994.336 749.583 997.482 749.281 999.418C741.596 999.842 728.224 999.963 720.66 999.6C713.399 999.297 708.438 997.543 704.807 992.823C702.508 995.243 700.148 997.603 697.244 1000.21L693.855 993.368C696.033 991.794 698.696 989.798 700.995 987.74V974.368H694.763V967.773H707.651V987.135C709.285 989.979 711.947 991.734 715.457 992.581C714.246 991.371 711.826 989.314 710.374 988.345C714.307 987.135 718.543 985.441 721.084 983.505H709.587V978.18H719.45V974.186H711.342V968.922H719.45V965.715H726.106V968.922H733.125V965.715H739.963V968.922H748.252V974.186H739.963V978.18H750.128V983.505H738.329C742.504 985.501 747.284 988.103 750.007 990.04L742.685 992.702C740.386 990.826 736.151 988.043 732.157 986.107L736.756 983.505H722.657ZM781.048 988.345C781.048 990.826 783.468 991.915 786.675 991.915C790.427 991.915 791.697 989.979 791.697 986.409C791.697 986.107 791.697 985.744 791.697 985.38C790.064 984.896 788.49 984.654 786.796 984.654C783.408 984.654 781.048 986.046 781.048 988.345ZM799.019 948.894C798.837 950.044 798.716 951.496 798.656 952.766C798.595 954.098 798.474 956.397 798.474 959.059C801.742 958.757 804.949 958.333 807.914 957.728V965.171C804.949 965.594 801.742 965.957 798.414 966.199C798.535 972.069 798.837 976.909 799.079 981.024C804.162 983.081 807.974 986.228 810.818 988.829L806.764 995.183C804.223 992.823 801.742 990.766 799.321 989.132C799.019 994.941 795.751 999.055 787.522 999.055C779.172 999.055 773.968 995.546 773.968 989.193C773.968 983.021 779.172 978.785 787.401 978.785C788.793 978.785 790.124 978.846 791.395 979.027C791.213 975.336 790.971 970.919 790.911 966.623C789.459 966.623 788.006 966.683 786.615 966.683C783.105 966.683 779.596 966.562 776.086 966.32L776.026 959.12C779.475 959.422 782.984 959.604 786.615 959.604C788.006 959.604 789.459 959.604 790.85 959.543C790.85 956.578 790.85 954.158 790.79 952.887C790.79 951.919 790.608 950.044 790.366 948.894H799.019ZM769.491 949.499C769.007 950.77 768.281 953.856 768.039 954.945C767.131 958.999 765.195 972.311 765.195 978.361C765.195 979.511 765.255 981.084 765.437 982.295C766.223 980.177 767.252 978.119 768.099 976.123L771.851 979.027C770.156 984.049 768.16 990.161 767.494 993.489C767.312 994.336 767.131 995.667 767.191 996.272C767.191 996.938 767.191 997.966 767.252 998.813L760.475 999.297C759.204 995.122 758.055 988.164 758.055 979.995C758.055 970.858 759.87 959.422 760.596 954.763C760.777 953.069 761.08 950.77 761.141 948.833L769.491 949.499ZM803.981 946.474C805.13 948.833 806.461 952.343 807.187 954.703L802.952 956.094C802.105 953.493 801.076 950.165 799.866 947.744L803.981 946.474ZM810.213 944.537C811.363 946.897 812.754 950.467 813.541 952.766L809.366 954.098C808.458 951.496 807.309 948.228 806.098 945.808L810.213 944.537ZM832.238 951.919C832.238 950.165 832.299 948.349 831.996 946.474L840.83 946.776C840.467 948.47 839.923 951.556 839.499 955.308L841.738 958.212C840.891 959.301 839.681 961.298 838.652 962.871C838.591 963.295 838.591 963.718 838.531 964.203C843.311 960.027 850.27 955.126 856.139 955.126C862.674 955.126 865.639 958.999 865.639 964.081C865.639 970.374 863.642 979.269 863.642 985.501C863.642 987.075 864.429 988.224 865.941 988.224C868.18 988.224 871.024 986.651 873.807 983.868L874.775 992.399C871.992 995.001 868.301 996.877 863.4 996.877C858.862 996.877 855.836 993.61 855.836 987.74C855.836 981.205 858.015 972.311 858.015 966.804C858.015 963.839 856.441 962.327 853.9 962.327C849.422 962.327 842.887 967.894 837.926 973.339C837.865 975.034 837.805 976.667 837.805 978.24C837.805 983.202 837.805 988.285 838.168 993.973C838.228 995.062 838.41 997.24 838.591 998.632H830.241C830.362 997.24 830.423 995.122 830.423 994.154C830.544 989.435 830.604 985.925 830.665 980.842C828.123 984.654 825.159 989.071 823.041 991.915L818.261 985.32C821.71 981.084 827.76 973.097 831.209 968.015C831.33 966.623 831.451 965.171 831.512 963.718C828.547 964.081 823.888 964.687 820.499 965.171L819.713 957.426C821.467 957.486 822.859 957.486 824.977 957.365C826.732 957.244 829.394 956.941 831.996 956.578C832.117 954.279 832.238 952.585 832.238 951.919ZM901.097 988.406C901.097 990.645 903.578 992.157 907.208 992.157C908.479 992.157 909.628 992.097 910.718 991.976C910.354 988.043 908.116 985.501 904.848 985.501C902.549 985.501 901.097 986.893 901.097 988.406ZM890.81 949.438C892.504 949.68 894.622 949.741 896.316 949.741C899.523 949.741 912.472 949.499 915.921 949.196C918.402 948.954 919.794 948.773 920.52 948.531L924.453 953.916C923.061 954.824 921.609 955.671 920.217 956.699C916.95 958.999 910.596 964.324 906.784 967.349C908.781 966.865 910.596 966.683 912.533 966.683C922.819 966.683 930.625 973.097 930.625 981.931C930.625 991.492 923.364 999.055 908.721 999.055C900.31 999.055 893.957 995.183 893.957 989.132C893.957 984.231 898.374 979.693 904.788 979.693C912.291 979.693 916.829 984.291 917.676 990.04C921.004 988.285 922.698 985.501 922.698 981.81C922.698 976.365 917.252 972.674 910.112 972.674C900.855 972.674 894.804 977.575 888.329 984.957L882.823 979.269C887.119 975.82 894.441 969.648 898.011 966.683C901.399 963.9 907.692 958.817 910.657 956.215C907.571 956.276 899.221 956.639 896.014 956.82C894.38 956.941 892.444 957.123 891.052 957.305L890.81 949.438ZM959.185 947.321C961.484 953.614 964.328 959.422 966.748 964.081C971.71 961.177 976.974 958.575 979.818 956.941C982.117 955.61 983.872 954.582 985.445 953.25L989.621 960.269C987.805 961.359 985.869 962.387 983.63 963.537C979.879 965.413 972.255 968.922 966.748 972.492C961.726 975.82 958.338 979.269 958.338 983.505C958.338 987.861 962.513 990.161 970.923 990.161C977.156 990.161 985.324 989.253 990.71 987.922L990.589 996.635C985.445 997.543 979.032 998.148 971.165 998.148C959.124 998.148 949.987 994.82 949.987 984.412C949.987 977.756 954.223 972.734 960.032 968.438C957.249 963.295 954.344 956.82 951.621 950.407L959.185 947.321ZM711.947 1036.52C711.463 1037.19 710.374 1039.06 709.829 1040.27C707.772 1044.99 704.384 1051.47 700.33 1056.91C706.32 1062.12 713.641 1069.86 717.211 1074.22L710.313 1080.21C706.38 1074.76 700.753 1068.59 695.065 1063.08C688.651 1069.86 680.604 1076.15 672.314 1080.09L666.082 1073.55C675.824 1069.92 685.202 1062.54 690.89 1056.19C694.884 1051.65 698.575 1045.66 699.906 1041.36H679.394C676.852 1041.36 673.524 1041.72 672.254 1041.79V1033.19C673.887 1033.44 677.578 1033.62 679.394 1033.62H700.753C703.355 1033.62 705.775 1033.25 706.985 1032.83L711.947 1036.52ZM757.631 1029.62C756.118 1031.74 754.606 1034.46 753.88 1035.8H766.163C768.039 1035.8 770.096 1035.55 771.427 1035.13L777.599 1038.94C776.933 1040.09 776.147 1041.72 775.602 1043.24C773.968 1048.14 770.943 1054.61 766.647 1060.66C769.249 1062.54 771.609 1064.29 773.363 1065.75L767.615 1072.58C765.981 1071.07 763.742 1069.2 761.262 1067.2C755.937 1072.83 749.039 1077.97 739.6 1081.54L732.581 1075.43C743.049 1072.22 749.765 1067.32 754.787 1062.3C750.854 1059.39 746.861 1056.67 743.775 1054.73L749.16 1049.23C752.367 1051.04 756.179 1053.52 759.991 1056.07C763.137 1051.71 765.739 1046.44 766.647 1042.69H749.341C745.106 1048.32 739.479 1054.13 733.367 1058.36L726.832 1053.34C737.421 1046.75 743.049 1038.46 746.074 1033.19C747.042 1031.74 748.313 1028.96 748.857 1026.9L757.631 1029.62ZM790.487 1049.53C792.665 1049.71 797.083 1049.89 800.229 1049.89H832.722C835.566 1049.89 838.228 1049.65 839.802 1049.53V1059.03C838.349 1058.97 835.263 1058.73 832.722 1058.73H800.229C796.78 1058.73 792.726 1058.85 790.487 1059.03V1049.53ZM876.046 1029.02C875.744 1030.53 875.32 1032.53 874.533 1035.07C880.282 1034.77 886.333 1034.22 891.657 1033.31L891.597 1040.33C885.849 1041.18 878.406 1041.66 871.871 1041.85C870.842 1044.08 869.632 1046.26 868.422 1048.02C869.995 1047.29 873.263 1046.81 875.26 1046.81C878.951 1046.81 881.976 1048.38 883.307 1051.47C886.454 1050.01 888.995 1048.99 891.476 1047.9C893.836 1046.87 895.953 1045.9 898.192 1044.75L901.218 1051.77C899.281 1052.31 896.074 1053.52 894.017 1054.31C891.294 1055.4 887.845 1056.73 884.154 1058.43C884.215 1061.81 884.336 1066.29 884.396 1069.07H877.135C877.317 1067.26 877.377 1064.36 877.438 1061.69C872.9 1064.29 870.479 1066.65 870.479 1069.68C870.479 1073.01 873.323 1073.92 879.253 1073.92C884.396 1073.92 891.113 1073.25 896.437 1072.22L896.195 1080.03C892.202 1080.57 884.759 1081.06 879.072 1081.06C869.572 1081.06 862.553 1078.76 862.553 1070.95C862.553 1063.21 869.814 1058.36 876.712 1054.79C875.804 1053.28 874.17 1052.74 872.476 1052.74C869.088 1052.74 865.336 1054.67 863.037 1056.91C861.222 1058.73 859.467 1060.91 857.41 1063.57L850.935 1058.73C857.289 1052.86 861.585 1047.47 864.307 1042.03C864.005 1042.03 863.763 1042.03 863.521 1042.03C861.04 1042.03 856.623 1041.91 853.295 1041.66V1034.58C856.381 1035.07 860.859 1035.31 863.944 1035.31C864.852 1035.31 865.881 1035.31 866.849 1035.31C867.514 1032.89 867.938 1030.53 868.059 1028.35L876.046 1029.02ZM929.778 1035.67V1030.65C928.204 1033.44 926.389 1036.16 924.392 1038.76C925.663 1041.72 926.45 1044.75 926.934 1047.84C930.383 1044.99 933.469 1040.7 935.223 1036.34L937.462 1036.94V1035.67H929.778ZM951.561 1035.67H943.937V1038.15H940.79C940.427 1039.06 940.004 1039.97 939.52 1040.88H946.417C946.962 1039.49 947.507 1037.97 947.688 1036.88L951.561 1037.55V1035.67ZM946.236 1047.11V1045.11H939.277V1047.11H946.236ZM946.236 1052.62V1050.44H939.277V1052.62H946.236ZM946.236 1058.12V1055.94H939.277V1058.12H946.236ZM933.045 1062.36V1050.38C932.319 1051.16 931.532 1051.95 930.746 1052.62C929.959 1051.59 928.265 1049.65 927.055 1048.44C927.539 1051.95 927.66 1055.46 927.66 1059.15C927.66 1067.68 927.115 1076.15 924.392 1079.91C923.545 1081.12 922.275 1081.96 920.762 1082.27C918.584 1082.81 916.224 1082.87 913.682 1082.75C913.682 1080.45 913.138 1077.91 911.928 1075.85C914.469 1076.03 916.345 1076.03 917.434 1075.91C918.221 1075.79 918.765 1075.49 919.249 1074.88C920.399 1073.43 920.883 1067.5 920.943 1060.72C918.765 1063.57 916.405 1066.17 914.227 1068.11C913.138 1066.35 911.202 1063.99 909.568 1062.66C913.501 1060.06 917.857 1055.16 920.52 1050.5C920.278 1048.44 919.915 1046.44 919.37 1044.51C917.797 1046.14 916.163 1047.59 914.53 1048.93C913.44 1047.47 911.202 1045.36 909.689 1044.27C912.049 1042.51 914.348 1040.27 916.526 1037.79C915.014 1035.25 913.077 1032.77 910.475 1030.35L915.437 1026.54C917.494 1028.41 919.249 1030.35 920.701 1032.29C921.912 1030.47 922.94 1028.66 923.848 1026.84L930.141 1029.99L929.959 1030.35H937.462V1026.17H943.937V1030.35H951.561V1026.17H958.096V1030.35H966.264V1035.67H958.096V1038.15H954.526C953.981 1039.12 953.436 1040.03 952.952 1040.88H964.328V1045.11H952.529V1047.11H962.694V1050.44H952.529V1052.62H962.694V1055.94H952.529V1058.12H965.901V1062.36H933.045ZM954.405 1069.44H942.182C943.755 1070.89 945.752 1072.1 948.172 1073.13C950.532 1072.1 952.65 1070.89 954.405 1069.44ZM960.455 1064.17L964.328 1066.47C962.21 1070.16 959.124 1073.13 955.433 1075.43C959.185 1076.28 963.299 1076.88 967.716 1077.18C966.264 1078.51 964.631 1081.12 963.783 1082.87C957.854 1082.21 952.468 1080.93 947.809 1079.06C942.545 1080.93 936.615 1082.14 930.443 1082.93C929.959 1081.42 928.507 1078.7 927.478 1077.42C932.259 1077.06 936.797 1076.4 940.911 1075.43C938.914 1074.1 937.16 1072.52 935.647 1070.77L939.399 1069.44H930.988V1064.36H959.366L960.455 1064.17ZM1017.27 1036.1V1033.07H1001.54V1036.1H1017.27ZM1017.27 1043.96V1040.82H1001.54V1043.96H1017.27ZM1024.53 1028.05V1048.99H994.582V1028.05H1024.53ZM984.175 1026.36L991.012 1029.14C987.019 1034.71 980.847 1040.64 975.159 1044.33C974.433 1042.69 972.678 1039.73 971.589 1038.22C976.309 1035.31 981.633 1030.41 984.175 1026.36ZM985.748 1039.55L992.041 1042.27C990.589 1044.81 988.773 1047.35 986.777 1049.89V1082.75H979.818V1057.64C978.003 1059.45 976.188 1061.15 974.372 1062.54C973.828 1060.97 972.013 1056.85 970.923 1055.1C976.309 1051.35 982.238 1045.48 985.748 1039.55ZM1027.74 1060.97L1027.8 1067.08H1019.51V1075.67C1019.51 1079 1018.91 1080.69 1016.55 1081.72C1014.31 1082.75 1011.28 1082.75 1007.17 1082.75C1006.87 1080.81 1005.84 1078.15 1004.93 1076.34C1007.47 1076.46 1010.31 1076.46 1011.1 1076.46C1011.95 1076.4 1012.19 1076.15 1012.19 1075.49V1067.08H999.483C1001.9 1069.38 1004.87 1072.52 1006.38 1074.64L1001 1078.45C999.665 1076.15 996.579 1072.58 994.038 1070.04L998.515 1067.08H990.044V1060.97H1012.19V1057.52H991.496V1051.65H1026.53V1057.52H1019.51V1060.97H1027.74Z" fill="#1E1E1E"/>
<path d="M873.458 521.364L845.559 574.143L817.661 521.364L764.881 493.465L817.661 465.567L831.61 439.177L845.559 412.787L873.458 465.567L926.237 493.465L873.458 521.364Z" fill="url(#paint3_linear_25_786)"/>
<path d="M176.931 431.645C177.451 431.645 177.902 431.837 178.286 432.221C178.67 432.583 178.862 433.023 178.862 433.543V440.015C178.862 440.534 178.67 440.986 178.286 441.37C177.902 441.754 177.451 441.946 176.931 441.946H157.583H154.127C153.607 441.946 153.155 441.754 152.771 441.37C152.387 440.986 152.195 440.534 152.195 440.015V433.543C152.195 433.023 152.387 432.583 152.771 432.221C153.155 431.837 153.607 431.645 154.127 431.645H176.931ZM173.475 438.964V438.659C173.475 438.456 173.373 438.354 173.17 438.354H157.888C157.684 438.354 157.583 438.456 157.583 438.659V438.964C157.583 439.167 157.684 439.269 157.888 439.269H173.17C173.373 439.269 173.475 439.167 173.475 438.964ZM173.475 435.61V435.271C173.475 435.09 173.373 435 173.17 435H157.888C157.684 435 157.583 435.09 157.583 435.271V435.61C157.583 435.79 157.684 435.881 157.888 435.881H173.17C173.373 435.881 173.475 435.79 173.475 435.61ZM149.755 459.397L149.722 459.193C149.676 458.674 149.812 458.211 150.128 457.804C150.467 457.375 150.896 457.126 151.416 457.059C151.484 457.036 151.585 457.025 151.721 457.025C151.879 457.025 151.992 457.013 152.06 456.991C152.24 456.946 152.331 456.844 152.331 456.686V447.3C152.331 447.119 152.229 447.029 152.026 447.029H151.789C151.269 447.029 150.817 446.837 150.433 446.453C150.049 446.069 149.857 445.617 149.857 445.097V444.894C149.857 444.374 150.049 443.934 150.433 443.572C150.817 443.188 151.269 442.996 151.789 442.996H179.269C179.789 442.996 180.24 443.188 180.624 443.572C181.008 443.934 181.2 444.374 181.2 444.894V445.097C181.2 445.617 181.008 446.069 180.624 446.453C180.24 446.837 179.789 447.029 179.269 447.029H166.02C165.817 447.029 165.715 447.119 165.715 447.3V457.838C165.715 458.019 165.806 458.086 165.986 458.041C167.319 457.612 168.313 457.239 168.968 456.923C169.126 456.855 169.126 456.742 168.968 456.584C168.29 455.952 167.884 455.568 167.748 455.432C167.387 455.048 167.229 454.596 167.274 454.077C167.319 453.557 167.545 453.128 167.952 452.789L168.866 452.044C168.912 452.021 168.923 451.987 168.9 451.942C168.878 451.874 168.844 451.84 168.799 451.84H168.595C168.076 451.84 167.624 451.66 167.24 451.298C166.856 450.914 166.664 450.462 166.664 449.943V449.739C166.664 449.22 166.856 448.768 167.24 448.384C167.624 448 168.076 447.808 168.595 447.808H177.744C178.264 447.808 178.704 448 179.066 448.384C179.45 448.768 179.642 449.22 179.642 449.739V449.943C179.642 451.343 179.359 452.563 178.795 453.602C178.275 454.551 177.665 455.443 176.965 456.279C176.829 456.415 176.852 456.528 177.033 456.618C177.846 456.98 178.749 457.318 179.743 457.635C180.24 457.793 180.602 458.098 180.828 458.55C181.076 459.001 181.121 459.476 180.963 459.973L180.828 460.345C180.647 460.865 180.308 461.249 179.811 461.498C179.337 461.769 178.84 461.825 178.32 461.667C176.694 461.193 175.056 460.515 173.407 459.634C173.226 459.543 173.068 459.543 172.933 459.634C171.893 460.266 170.617 460.888 169.104 461.498C168.607 461.701 168.087 461.701 167.545 461.498C167.025 461.294 166.641 460.944 166.393 460.447L165.851 459.397C165.828 459.351 165.794 459.329 165.749 459.329C165.726 459.329 165.715 459.351 165.715 459.397V460.515C165.715 461.034 165.523 461.486 165.139 461.87C164.778 462.254 164.337 462.446 163.818 462.446H162.801C162.282 462.446 161.83 462.254 161.446 461.87C161.062 461.486 160.87 461.034 160.87 460.515V460.176C160.87 459.973 160.768 459.894 160.565 459.939C157.041 460.458 154.138 460.842 151.856 461.091C151.337 461.159 150.862 461.023 150.433 460.684C150.027 460.345 149.801 459.916 149.755 459.397ZM170.73 451.84C170.572 451.84 170.549 451.919 170.662 452.078C171.363 452.913 172.04 453.58 172.695 454.077C172.831 454.19 172.978 454.19 173.136 454.077C173.791 453.467 174.356 452.8 174.83 452.078C174.875 452.032 174.875 451.987 174.83 451.942C174.808 451.874 174.762 451.84 174.695 451.84H170.73ZM156.905 447.3V447.944C156.905 448.147 156.995 448.249 157.176 448.249H160.599C160.779 448.249 160.87 448.147 160.87 447.944V447.3C160.87 447.119 160.779 447.029 160.599 447.029H157.176C156.995 447.029 156.905 447.119 156.905 447.3ZM156.905 451.23V451.874C156.905 452.078 156.995 452.179 157.176 452.179H160.599C160.779 452.179 160.87 452.078 160.87 451.874V451.23C160.87 451.05 160.779 450.959 160.599 450.959H157.176C156.995 450.959 156.905 451.05 156.905 451.23ZM156.905 455.161V456.076C156.905 456.302 157.007 456.392 157.21 456.347C158.701 456.121 159.831 455.952 160.599 455.839C160.779 455.794 160.87 455.681 160.87 455.5V455.161C160.87 454.98 160.779 454.89 160.599 454.89H157.176C156.995 454.89 156.905 454.98 156.905 455.161ZM206.343 452.01C206.863 452.01 207.314 452.202 207.698 452.586C208.082 452.97 208.274 453.422 208.274 453.941V456.957C208.274 457.16 208.365 457.262 208.545 457.262H208.918C209.573 457.262 209.957 457.205 210.07 457.092C210.183 456.98 210.24 456.584 210.24 455.907V451.298C210.24 451.095 210.138 450.993 209.935 450.993H191.434C191.23 450.993 191.129 451.095 191.129 451.298V459.939C191.129 460.458 190.937 460.91 190.553 461.294C190.191 461.678 189.751 461.87 189.231 461.87H187.91C187.39 461.87 186.938 461.678 186.554 461.294C186.193 460.91 186.012 460.458 186.012 459.939V448.96C186.012 448.441 186.193 448 186.554 447.639C186.938 447.255 187.39 447.063 187.91 447.063H213.459C213.978 447.063 214.419 447.255 214.78 447.639C215.164 448 215.356 448.441 215.356 448.96V455.703C215.356 456.742 215.334 457.556 215.289 458.143C215.266 458.73 215.176 459.284 215.017 459.803C214.882 460.323 214.713 460.684 214.509 460.888C214.328 461.113 214.001 461.305 213.527 461.464C213.075 461.644 212.589 461.746 212.069 461.769C211.573 461.814 210.872 461.836 209.969 461.836C209.811 461.836 209.076 461.814 207.766 461.769C207.269 461.746 206.84 461.577 206.479 461.26C206.117 460.944 205.88 460.549 205.767 460.074C205.722 459.871 205.609 459.769 205.428 459.769H197.533C197.42 459.769 197.364 459.815 197.364 459.905C197.364 460.176 197.273 460.402 197.092 460.583C196.912 460.786 196.686 460.888 196.415 460.888H195.025C194.506 460.888 194.054 460.696 193.67 460.312C193.286 459.928 193.094 459.476 193.094 458.956V453.941C193.094 453.422 193.286 452.97 193.67 452.586C194.054 452.202 194.506 452.01 195.025 452.01H206.343ZM204.005 456.415V455.5C204.005 455.297 203.903 455.195 203.7 455.195H197.668C197.465 455.195 197.364 455.297 197.364 455.5V456.415C197.364 456.618 197.465 456.72 197.668 456.72H203.7C203.903 456.72 204.005 456.618 204.005 456.415ZM187.198 437.27C186.679 437.27 186.227 437.089 185.843 436.728C185.459 436.344 185.267 435.892 185.267 435.372V434.898C185.267 434.378 185.459 433.927 185.843 433.543C186.227 433.159 186.679 432.967 187.198 432.967H197.635C197.815 432.967 197.906 432.865 197.906 432.662V432.424C197.906 431.905 198.098 431.453 198.482 431.069C198.866 430.685 199.318 430.493 199.837 430.493H201.531C202.051 430.493 202.503 430.685 202.887 431.069C203.271 431.453 203.463 431.905 203.463 432.424V432.662C203.463 432.865 203.553 432.967 203.734 432.967H214.17C214.69 432.967 215.142 433.159 215.526 433.543C215.91 433.927 216.102 434.378 216.102 434.898V435.372C216.102 435.892 215.91 436.344 215.526 436.728C215.142 437.089 214.69 437.27 214.17 437.27H187.198ZM195.195 446.046H191.705C191.185 446.046 190.733 445.854 190.349 445.47C189.965 445.086 189.773 444.634 189.773 444.115V440.218C189.773 439.698 189.965 439.247 190.349 438.862C190.733 438.478 191.185 438.286 191.705 438.286H209.664C210.183 438.286 210.635 438.478 211.019 438.862C211.403 439.247 211.595 439.698 211.595 440.218V444.115C211.595 444.634 211.403 445.086 211.019 445.47C210.635 445.854 210.183 446.046 209.664 446.046H195.195ZM195.195 441.777V442.691C195.195 442.895 195.285 442.996 195.466 442.996H205.902C206.106 442.996 206.207 442.895 206.207 442.691V441.777C206.207 441.596 206.106 441.506 205.902 441.506H195.466C195.285 441.506 195.195 441.596 195.195 441.777ZM233.451 438.761C231.147 439.371 229.339 440.534 228.029 442.251C226.742 443.945 226.098 446.001 226.098 448.418C226.098 449.932 226.391 451.309 226.979 452.552C227.589 453.772 228.142 454.382 228.639 454.382C228.888 454.382 229.159 454.235 229.452 453.941C229.746 453.625 230.074 453.094 230.435 452.349C230.796 451.581 231.158 450.632 231.519 449.502C231.881 448.35 232.254 446.871 232.638 445.063C233.022 443.256 233.372 441.223 233.688 438.964C233.711 438.896 233.688 438.84 233.62 438.795C233.575 438.75 233.519 438.738 233.451 438.761ZM228.639 459.6C226.719 459.6 224.946 458.516 223.319 456.347C221.715 454.178 220.913 451.535 220.913 448.418C220.913 443.968 222.416 440.353 225.42 437.575C228.425 434.774 232.378 433.373 237.28 433.373C241.233 433.373 244.497 434.627 247.072 437.134C249.648 439.619 250.935 442.793 250.935 446.656C250.935 450.27 250.099 453.241 248.428 455.568C246.756 457.894 244.475 459.385 241.583 460.04C241.041 460.153 240.533 460.052 240.058 459.735C239.606 459.419 239.324 458.99 239.211 458.448L238.94 457.296C238.827 456.799 238.918 456.336 239.211 455.907C239.505 455.455 239.9 455.15 240.397 454.992C243.966 453.84 245.751 451.061 245.751 446.656C245.751 444.6 245.175 442.85 244.023 441.404C242.871 439.936 241.346 438.975 239.448 438.524C239.29 438.501 239.189 438.591 239.143 438.795C238.556 442.951 237.89 446.43 237.144 449.231C236.421 452.01 235.608 454.145 234.705 455.635C233.801 457.104 232.875 458.132 231.926 458.719C230.977 459.306 229.882 459.6 228.639 459.6ZM257.509 452.891C256.989 452.891 256.538 452.699 256.154 452.315C255.77 451.931 255.578 451.479 255.578 450.959V450.383C255.578 449.864 255.77 449.412 256.154 449.028C256.538 448.644 256.989 448.452 257.509 448.452H267.912C268.092 448.452 268.205 448.35 268.25 448.147C268.273 447.853 268.307 447.39 268.352 446.758C268.352 446.6 268.262 446.52 268.081 446.52C265.528 446.679 263.134 446.769 260.897 446.792C260.355 446.792 259.892 446.611 259.508 446.249C259.147 445.888 258.943 445.436 258.898 444.894L258.864 444.42C258.819 443.9 258.977 443.448 259.339 443.064C259.7 442.68 260.141 442.488 260.66 442.488C267.392 442.398 273.503 441.833 278.992 440.794C279.014 440.794 279.026 440.771 279.026 440.726C279.026 440.681 279.014 440.647 278.992 440.624C278.45 440.376 278.077 439.981 277.874 439.439C277.806 439.28 277.704 439.032 277.569 438.693C277.456 438.354 277.365 438.094 277.298 437.914C277.23 437.733 277.094 437.643 276.891 437.643H276.654C276.473 437.643 276.326 437.71 276.213 437.846C275.897 438.253 275.366 438.851 274.621 439.642C274.237 440.026 273.774 440.229 273.231 440.252C272.689 440.252 272.204 440.071 271.774 439.71L270.08 438.32C269.832 438.094 269.832 437.88 270.08 437.677C270.103 437.654 270.091 437.643 270.046 437.643H267.64C267.46 437.643 267.392 437.722 267.437 437.88C267.482 437.993 267.55 438.174 267.64 438.422C267.753 438.67 267.832 438.851 267.878 438.964C268.058 439.439 268.025 439.913 267.776 440.387C267.528 440.839 267.155 441.121 266.658 441.234L265.574 441.506C265.054 441.641 264.546 441.585 264.049 441.336C263.574 441.088 263.247 440.704 263.066 440.184C262.953 439.936 262.795 439.551 262.592 439.032C262.388 438.512 262.23 438.117 262.117 437.846C262.095 437.71 261.993 437.643 261.812 437.643C261.677 437.643 261.575 437.688 261.507 437.778C260.943 438.524 260.287 439.292 259.542 440.082C259.158 440.466 258.706 440.658 258.187 440.658C257.667 440.636 257.215 440.432 256.831 440.048L256.323 439.54C255.962 439.179 255.77 438.738 255.747 438.219C255.747 437.677 255.928 437.202 256.289 436.796C257.419 435.553 258.379 434.164 259.169 432.628C259.44 432.108 259.824 431.713 260.321 431.442C260.818 431.148 261.338 431.046 261.88 431.137L263.1 431.34C263.529 431.408 263.845 431.634 264.049 432.018C264.275 432.379 264.308 432.752 264.15 433.136C264.105 433.272 264.15 433.339 264.286 433.339H269.538C270.058 433.339 270.509 433.531 270.893 433.915C271.277 434.299 271.469 434.751 271.469 435.271V435.948C271.469 435.994 271.492 436.027 271.537 436.05C271.605 436.073 271.65 436.061 271.673 436.016C272.554 434.977 273.367 433.825 274.112 432.56C274.384 432.063 274.779 431.679 275.298 431.408C275.818 431.137 276.349 431.046 276.891 431.137L278.077 431.34C278.506 431.408 278.822 431.634 279.026 432.018C279.229 432.379 279.252 432.752 279.094 433.136C279.048 433.272 279.094 433.339 279.229 433.339H284.718C285.238 433.339 285.69 433.531 286.074 433.915C286.458 434.299 286.65 434.751 286.65 435.271V435.711C286.65 436.231 286.458 436.683 286.074 437.067C285.69 437.451 285.238 437.643 284.718 437.643H282.753C282.572 437.643 282.505 437.722 282.55 437.88C282.55 437.902 282.572 437.959 282.618 438.049C282.663 438.14 282.685 438.196 282.685 438.219C282.821 438.603 282.832 438.987 282.719 439.371C282.606 439.732 282.38 440.026 282.041 440.252C281.929 440.365 281.929 440.432 282.041 440.455C282.742 440.681 283.205 441.099 283.431 441.709L283.736 442.454C283.916 442.929 283.894 443.392 283.668 443.844C283.442 444.295 283.081 444.578 282.584 444.691C280.234 445.233 277.444 445.673 274.214 446.012C273.988 446.057 273.875 446.159 273.875 446.317C273.83 447.13 273.785 447.752 273.74 448.181C273.695 448.362 273.774 448.452 273.977 448.452H284.82C285.34 448.452 285.791 448.644 286.175 449.028C286.559 449.412 286.751 449.864 286.751 450.383V450.959C286.751 451.479 286.559 451.931 286.175 452.315C285.791 452.699 285.34 452.891 284.82 452.891H275.095C274.914 452.891 274.881 452.97 274.993 453.128C276.552 454.867 279.783 456.121 284.685 456.889C285.181 456.957 285.554 457.205 285.803 457.635C286.051 458.064 286.085 458.504 285.904 458.956L285.464 460.074C285.261 460.594 284.91 460.989 284.413 461.26C283.939 461.531 283.419 461.61 282.855 461.498C280.279 460.933 277.987 460.12 275.976 459.058C273.966 458.019 272.362 456.855 271.164 455.568C271.052 455.455 270.939 455.455 270.826 455.568C268.544 458.437 264.76 460.413 259.474 461.498C258.91 461.61 258.379 461.531 257.882 461.26C257.407 460.989 257.068 460.594 256.865 460.074L256.425 458.956C256.244 458.504 256.278 458.064 256.526 457.635C256.775 457.205 257.136 456.957 257.611 456.889C259.937 456.528 261.79 456.053 263.168 455.466C264.568 454.879 265.664 454.099 266.455 453.128C266.567 452.97 266.534 452.891 266.353 452.891H257.509ZM292.647 461.091L291.428 459.837C291.021 459.431 290.761 458.945 290.648 458.38C290.535 457.793 290.569 457.228 290.75 456.686C291.202 455.285 291.507 453.704 291.665 451.942C291.845 450.157 291.936 447.435 291.936 443.776V442.319C291.936 441.844 292.105 441.438 292.444 441.099C292.783 440.76 293.19 440.591 293.664 440.591C293.845 440.591 293.912 440.489 293.867 440.286C293.799 439.947 293.687 439.472 293.528 438.862C293.37 438.253 293.269 437.823 293.223 437.575C293.201 437.462 293.111 437.405 292.952 437.405C292.523 437.405 292.162 437.259 291.868 436.965C291.574 436.671 291.428 436.31 291.428 435.881V435.203C291.428 434.683 291.62 434.232 292.004 433.848C292.388 433.464 292.839 433.272 293.359 433.272H296.307C296.51 433.272 296.612 433.181 296.612 433V432.865C296.612 432.345 296.804 431.905 297.188 431.543C297.572 431.159 298.024 430.967 298.543 430.967H299.967C300.486 430.967 300.938 431.159 301.322 431.543C301.706 431.905 301.898 432.345 301.898 432.865V433C301.898 433.181 301.988 433.272 302.169 433.272H304.643C305.23 433.272 305.704 433.475 306.066 433.881C306.088 433.927 306.122 433.938 306.167 433.915C306.213 433.893 306.235 433.859 306.235 433.814V433.712C306.235 433.192 306.427 432.752 306.811 432.391C307.195 432.006 307.647 431.814 308.167 431.814H320.568C321.088 431.814 321.529 432.006 321.89 432.391C322.274 432.752 322.466 433.192 322.466 433.712V434.322C322.466 434.842 322.274 435.293 321.89 435.677C321.529 436.061 321.088 436.253 320.568 436.253H316.977C316.751 436.253 316.627 436.332 316.604 436.491C316.581 436.581 316.547 436.716 316.502 436.897C316.48 437.055 316.457 437.18 316.435 437.27C316.389 437.451 316.457 437.541 316.638 437.541H319.823C320.343 437.541 320.794 437.733 321.178 438.117C321.562 438.501 321.754 438.953 321.754 439.472V453.501C321.754 454.02 321.562 454.472 321.178 454.856C320.794 455.218 320.343 455.398 319.823 455.398H312.402H309.522C309.002 455.398 308.551 455.218 308.167 454.856C307.783 454.472 307.591 454.02 307.591 453.501V439.472C307.591 438.953 307.783 438.501 308.167 438.117C308.551 437.733 309.002 437.541 309.522 437.541H310.81C311.013 437.541 311.137 437.451 311.182 437.27C311.205 437.18 311.239 437.055 311.284 436.897C311.329 436.716 311.363 436.581 311.386 436.491C311.431 436.332 311.352 436.253 311.148 436.253H308.167C307.579 436.253 307.105 436.05 306.743 435.643C306.721 435.598 306.687 435.587 306.642 435.61C306.597 435.61 306.574 435.632 306.574 435.677V436.389C306.574 436.66 306.472 436.897 306.269 437.1C306.088 437.304 305.862 437.405 305.591 437.405C305.501 437.405 305.433 437.451 305.388 437.541C305.23 438.286 305.004 439.201 304.71 440.286C304.665 440.489 304.733 440.591 304.914 440.591C305.433 440.591 305.885 440.783 306.269 441.167C306.653 441.551 306.845 442.002 306.845 442.522V442.793C306.845 443.222 306.71 443.606 306.439 443.945C306.167 444.284 305.829 444.51 305.422 444.623C305.309 444.668 305.298 444.758 305.388 444.894C305.411 444.917 305.433 444.962 305.456 445.03C305.501 445.097 305.535 445.142 305.558 445.165C305.806 445.594 305.862 446.069 305.727 446.588C305.591 447.108 305.309 447.481 304.88 447.706C303.524 448.452 301.875 449.118 299.933 449.706C299.413 449.864 298.894 449.83 298.374 449.604C297.877 449.378 297.516 449.005 297.29 448.486L297.256 448.384C297.052 447.932 297.064 447.481 297.29 447.029C297.516 446.554 297.877 446.249 298.374 446.114C299.887 445.685 301.141 445.255 302.135 444.826C302.158 444.781 302.158 444.747 302.135 444.725H296.985C296.781 444.725 296.68 444.815 296.68 444.996V447.164C296.68 452.97 296.047 457.488 294.782 460.718C294.624 461.147 294.308 461.396 293.833 461.464C293.359 461.531 292.964 461.407 292.647 461.091ZM312.402 441.844V442.454C312.402 442.658 312.493 442.759 312.673 442.759H316.401C316.581 442.759 316.672 442.658 316.672 442.454V441.844C316.672 441.641 316.581 441.539 316.401 441.539H312.673C312.493 441.539 312.402 441.641 312.402 441.844ZM312.402 446.148V446.825C312.402 447.006 312.493 447.096 312.673 447.096H316.401C316.581 447.096 316.672 447.006 316.672 446.825V446.148C316.672 445.967 316.581 445.877 316.401 445.877H312.673C312.493 445.877 312.402 445.967 312.402 446.148ZM312.402 450.519V451.197C312.402 451.4 312.493 451.502 312.673 451.502H316.401C316.581 451.502 316.672 451.4 316.672 451.197V450.519C316.672 450.316 316.581 450.214 316.401 450.214H312.673C312.493 450.214 312.402 450.316 312.402 450.519ZM298.069 437.405C297.866 437.405 297.787 437.496 297.832 437.677L298.442 440.32C298.487 440.5 298.6 440.591 298.781 440.591H299.933C300.136 440.591 300.26 440.5 300.305 440.32C300.622 439.19 300.848 438.32 300.983 437.71C301.028 437.507 300.96 437.405 300.78 437.405H298.069ZM306.134 460.108C305.953 459.769 305.896 459.385 305.964 458.956C305.987 458.911 305.975 458.877 305.93 458.854C305.885 458.832 305.84 458.843 305.795 458.888C303.762 460.199 301.412 461.26 298.747 462.074C298.227 462.232 297.719 462.186 297.222 461.938C296.747 461.69 296.409 461.305 296.205 460.786L296.07 460.481C295.889 460.007 295.9 459.543 296.104 459.092C296.33 458.64 296.691 458.335 297.188 458.177C299.899 457.364 302.282 456.358 304.338 455.161C304.767 454.89 305.241 454.811 305.761 454.924C306.28 455.037 306.676 455.308 306.947 455.737C307.286 456.257 307.376 456.788 307.218 457.33C307.195 457.375 307.207 457.42 307.252 457.465C307.32 457.488 307.376 457.488 307.421 457.465C308.28 457.081 309.274 456.539 310.403 455.839C310.832 455.568 311.307 455.477 311.826 455.568C312.346 455.658 312.752 455.918 313.046 456.347L314.096 457.973C314.142 458.019 314.198 458.041 314.266 458.041C314.334 458.041 314.379 458.019 314.401 457.973L315.147 456.55C315.395 456.076 315.779 455.76 316.299 455.602C316.819 455.421 317.327 455.443 317.824 455.669C318.931 456.189 320.162 456.855 321.517 457.669C321.969 457.962 322.263 458.369 322.398 458.888C322.534 459.431 322.466 459.939 322.195 460.413L321.958 460.854C321.709 461.305 321.325 461.588 320.806 461.701C320.286 461.836 319.812 461.769 319.382 461.498C317.892 460.594 316.186 459.702 314.266 458.821C314.085 458.753 313.916 458.775 313.758 458.888C312.447 459.905 310.877 460.82 309.048 461.633C308.551 461.836 308.042 461.836 307.523 461.633C307.026 461.452 306.653 461.125 306.405 460.65L306.134 460.108ZM299.39 455.805C298.871 455.963 298.363 455.929 297.866 455.703C297.391 455.455 297.052 455.071 296.849 454.551L296.714 454.246C296.533 453.772 296.544 453.309 296.747 452.857C296.973 452.383 297.335 452.078 297.832 451.942C300.113 451.287 302.067 450.53 303.694 449.672C304.123 449.423 304.586 449.378 305.083 449.536C305.603 449.672 305.975 449.954 306.201 450.383C306.45 450.858 306.506 451.355 306.371 451.874C306.235 452.394 305.942 452.789 305.49 453.06C303.66 454.167 301.627 455.082 299.39 455.805ZM343.339 451.874C341.396 451.874 340.425 452.563 340.425 453.941C340.425 455.41 341.396 456.144 343.339 456.144C344.265 456.144 344.932 455.94 345.338 455.534C345.745 455.127 345.948 454.449 345.948 453.501V452.891C345.948 452.665 345.858 452.518 345.677 452.45C344.932 452.066 344.152 451.874 343.339 451.874ZM343.644 460.786C341.046 460.786 339.024 460.176 337.579 458.956C336.155 457.759 335.444 456.087 335.444 453.941C335.444 451.84 336.155 450.203 337.579 449.028C339.002 447.831 341.024 447.232 343.644 447.232C344.322 447.232 344.999 447.3 345.677 447.435C345.858 447.481 345.948 447.401 345.948 447.198V442.048C345.948 441.844 345.846 441.743 345.643 441.743H338.595C338.076 441.743 337.624 441.551 337.24 441.167C336.878 440.783 336.698 440.331 336.698 439.811V439.032C336.698 438.512 336.878 438.061 337.24 437.677C337.624 437.292 338.076 437.1 338.595 437.1H345.643C345.846 437.1 345.948 437.01 345.948 436.829V434.051C345.948 433.531 346.14 433.091 346.524 432.729C346.908 432.345 347.36 432.153 347.88 432.153H349.235C349.755 432.153 350.195 432.345 350.556 432.729C350.94 433.091 351.132 433.531 351.132 434.051V436.829C351.132 437.01 351.234 437.1 351.437 437.1H354.521C355.041 437.1 355.492 437.292 355.876 437.677C356.26 438.061 356.452 438.512 356.452 439.032V439.811C356.452 440.331 356.26 440.783 355.876 441.167C355.492 441.551 355.041 441.743 354.521 441.743H351.437C351.234 441.743 351.132 441.844 351.132 442.048V450.248C351.132 450.406 351.212 450.564 351.37 450.722C352.431 451.671 353.776 452.97 355.402 454.619C355.763 455.003 355.944 455.466 355.944 456.008C355.944 456.528 355.752 456.98 355.368 457.364L354.69 458.007C354.306 458.369 353.855 458.55 353.335 458.55C352.815 458.55 352.375 458.358 352.014 457.973C351.901 457.838 351.72 457.646 351.471 457.397C351.223 457.149 351.042 456.957 350.929 456.821C350.884 456.776 350.816 456.754 350.726 456.754C350.658 456.754 350.613 456.788 350.59 456.855C349.551 459.476 347.236 460.786 343.644 460.786ZM330.903 460.583C330.361 460.65 329.864 460.526 329.412 460.21C328.961 459.894 328.678 459.464 328.565 458.922C327.729 455.082 327.312 450.993 327.312 446.656C327.312 442.319 327.729 438.23 328.565 434.39C328.678 433.848 328.961 433.418 329.412 433.102C329.864 432.786 330.361 432.662 330.903 432.729L332.191 432.899C332.688 432.944 333.083 433.181 333.377 433.61C333.671 434.017 333.761 434.48 333.648 435C332.88 438.614 332.496 442.499 332.496 446.656C332.496 450.813 332.88 454.698 333.648 458.312C333.761 458.832 333.671 459.295 333.377 459.702C333.083 460.108 332.688 460.345 332.191 460.413L330.903 460.583ZM367.939 437.744L367.77 436.965C367.657 436.445 367.736 435.96 368.007 435.508C368.278 435.034 368.673 434.74 369.193 434.627C371.881 434.062 374.524 433.78 377.122 433.78C380.127 433.78 382.465 434.333 384.136 435.44C385.808 436.547 386.644 437.993 386.644 439.777C386.644 440.613 386.531 441.359 386.305 442.014C386.079 442.669 385.695 443.268 385.153 443.81C384.633 444.329 384.181 444.736 383.797 445.03C383.413 445.301 382.837 445.685 382.069 446.182C380.285 447.288 379.144 448.294 378.647 449.197C377.969 450.395 377.156 450.993 376.207 450.993H374.75C374.208 450.993 373.756 450.801 373.395 450.417C373.033 450.033 372.932 449.593 373.09 449.096C373.248 448.508 373.485 447.966 373.801 447.469C374.118 446.95 374.536 446.453 375.055 445.978C375.575 445.504 375.981 445.165 376.275 444.962C376.591 444.736 377.077 444.386 377.732 443.911C378.387 443.46 378.873 443.109 379.189 442.861C379.528 442.59 379.844 442.251 380.138 441.844C380.454 441.415 380.612 440.986 380.612 440.557C380.612 439.066 379.166 438.32 376.275 438.32C374.468 438.32 372.446 438.591 370.21 439.134C369.69 439.247 369.204 439.167 368.753 438.896C368.323 438.625 368.052 438.241 367.939 437.744ZM376.478 453.772C376.998 453.772 377.45 453.964 377.834 454.348C378.218 454.732 378.41 455.184 378.41 455.703V456.923C378.41 457.443 378.218 457.894 377.834 458.278C377.45 458.662 376.998 458.854 376.478 458.854H374.445C373.926 458.854 373.474 458.662 373.09 458.278C372.728 457.894 372.548 457.443 372.548 456.923V455.703C372.548 455.184 372.728 454.732 373.09 454.348C373.474 453.964 373.926 453.772 374.445 453.772H376.478Z" fill="white"/>
<g filter="url(#filter1_d_25_786)">
<rect x="556" y="130.573" width="580.881" height="154.902" rx="20.5729" fill="white"/>
</g>
<path d="M714.774 202.146C714.18 202.146 713.664 201.939 713.225 201.526C712.786 201.087 712.567 200.571 712.567 199.977V199.164C712.567 198.57 712.786 198.054 713.225 197.615C713.664 197.176 714.18 196.956 714.774 196.956H722.79C723.048 196.956 723.19 196.866 723.216 196.685C723.604 195.343 723.939 194.117 724.223 193.006C724.378 192.387 724.701 191.896 725.191 191.535C725.708 191.148 726.276 190.967 726.895 190.993L728.793 191.109C729.387 191.161 729.851 191.419 730.187 191.883C730.548 192.322 730.677 192.826 730.574 193.394C730.239 194.943 729.98 196.027 729.8 196.647C729.748 196.853 729.825 196.956 730.032 196.956H745.754C746.348 196.956 746.865 197.176 747.304 197.615C747.742 198.054 747.962 198.57 747.962 199.164V199.977C747.962 200.571 747.742 201.087 747.304 201.526C746.865 201.939 746.348 202.146 745.754 202.146H742.579C742.372 202.146 742.269 202.262 742.269 202.494C742.269 202.52 742.256 202.559 742.23 202.61C742.23 202.662 742.23 202.701 742.23 202.727C741.095 207.916 739.429 212.098 737.235 215.274C737.106 215.454 737.132 215.596 737.312 215.7C739.868 217.352 742.54 219.237 745.329 221.354C745.793 221.689 746.038 222.154 746.064 222.748C746.116 223.316 745.935 223.806 745.522 224.219L744.631 225.071C744.193 225.51 743.663 225.755 743.044 225.807C742.424 225.859 741.856 225.691 741.34 225.304C738.345 223.006 735.763 221.173 733.595 219.804C733.414 219.675 733.233 219.675 733.053 219.804C729.18 222.928 723.771 224.994 716.827 226.001C716.207 226.104 715.652 225.962 715.161 225.575C714.671 225.213 714.361 224.723 714.232 224.103L714.077 223.445C713.974 222.877 714.09 222.347 714.426 221.857C714.787 221.366 715.265 221.07 715.858 220.966C720.944 220.14 724.881 218.733 727.67 216.745C727.876 216.616 727.876 216.5 727.67 216.397C725.759 215.416 723.578 214.422 721.125 213.415C720.919 213.312 720.751 213.337 720.622 213.492C720.596 213.518 720.557 213.557 720.506 213.608C720.48 213.66 720.454 213.699 720.428 213.725C720.015 214.189 719.486 214.447 718.84 214.499C718.195 214.551 717.627 214.396 717.136 214.034L716.091 213.26C715.626 212.898 715.355 212.434 715.278 211.866C715.226 211.298 715.394 210.794 715.781 210.355C717.795 207.98 719.512 205.347 720.931 202.456C720.983 202.404 720.983 202.339 720.931 202.262C720.88 202.184 720.815 202.146 720.738 202.146H714.774ZM735.802 202.146H728.173C727.967 202.146 727.812 202.262 727.708 202.494C726.702 204.74 725.579 206.806 724.339 208.69C724.236 208.871 724.262 209 724.417 209.078C726.869 210.059 729.245 211.156 731.542 212.369C731.749 212.472 731.904 212.447 732.007 212.292C733.711 209.736 735.053 206.47 736.034 202.494C736.086 202.262 736.009 202.146 735.802 202.146ZM753.19 212.176C752.596 212.176 752.08 211.956 751.641 211.517C751.202 211.078 750.982 210.562 750.982 209.968V209C750.982 208.406 751.202 207.89 751.641 207.451C752.08 207.012 752.596 206.793 753.19 206.793H766.124C766.331 206.793 766.434 206.689 766.434 206.483V204.663C766.434 204.172 766.576 203.733 766.86 203.346C767.17 202.959 767.544 202.701 767.983 202.572C768.189 202.494 768.344 202.378 768.448 202.223C768.525 202.146 768.667 202.03 768.874 201.875C770.758 200.687 772.656 199.357 774.566 197.886C774.618 197.834 774.631 197.783 774.605 197.731C774.605 197.679 774.579 197.654 774.527 197.654H758.224C757.63 197.654 757.114 197.434 756.675 196.995C756.236 196.556 756.017 196.04 756.017 195.446V194.633C756.017 194.039 756.236 193.536 756.675 193.123C757.114 192.684 757.63 192.464 758.224 192.464H780.491C781.085 192.464 781.588 192.684 782.001 193.123C782.44 193.536 782.66 194.039 782.66 194.633V195.446C782.66 196.995 782.105 198.222 780.995 199.125C778.49 201.242 775.844 203.217 773.056 205.05C772.849 205.205 772.746 205.386 772.746 205.592V206.483C772.746 206.689 772.862 206.793 773.095 206.793H784.79C785.384 206.793 785.9 207.012 786.339 207.451C786.778 207.89 786.997 208.406 786.997 209V209.968C786.997 210.562 786.778 211.078 786.339 211.517C785.9 211.956 785.384 212.176 784.79 212.176H773.095C772.862 212.176 772.746 212.279 772.746 212.485V218.991C772.746 220.179 772.72 221.108 772.669 221.779C772.643 222.451 772.54 223.083 772.359 223.677C772.178 224.271 771.959 224.697 771.701 224.955C771.468 225.213 771.068 225.433 770.5 225.613C769.932 225.794 769.325 225.897 768.68 225.923C768.06 225.975 767.183 226.001 766.047 226.001C764.42 226.001 762.949 225.975 761.632 225.923C761.012 225.897 760.483 225.665 760.044 225.226C759.631 224.787 759.399 224.258 759.347 223.638L759.27 222.825C759.244 222.257 759.437 221.767 759.851 221.354C760.264 220.915 760.767 220.708 761.361 220.734C762.497 220.786 763.671 220.811 764.885 220.811C765.634 220.811 766.072 220.747 766.202 220.618C766.356 220.463 766.434 219.998 766.434 219.224V212.485C766.434 212.279 766.331 212.176 766.124 212.176H753.19ZM820.262 195.64C820.856 195.64 821.372 195.859 821.811 196.298C822.25 196.737 822.47 197.253 822.47 197.847V198.893C822.47 199.487 822.25 200.003 821.811 200.442C821.372 200.881 820.856 201.1 820.262 201.1H807.909C807.315 201.1 806.799 200.881 806.36 200.442C805.921 200.003 805.701 199.487 805.701 198.893V197.847C805.701 197.253 805.921 196.737 806.36 196.298C806.799 195.859 807.315 195.64 807.909 195.64H820.262ZM796.524 224.955C795.904 225.032 795.336 224.89 794.82 224.529C794.303 224.168 793.981 223.677 793.851 223.057C792.896 218.669 792.419 213.996 792.419 209.039C792.419 204.082 792.896 199.409 793.851 195.02C793.981 194.401 794.303 193.91 794.82 193.549C795.336 193.187 795.904 193.045 796.524 193.123L798.344 193.316C798.912 193.368 799.363 193.639 799.699 194.13C800.035 194.594 800.138 195.123 800.009 195.717C799.131 199.848 798.692 204.289 798.692 209.039C798.692 213.789 799.131 218.23 800.009 222.36C800.138 222.954 800.035 223.483 799.699 223.948C799.363 224.439 798.912 224.71 798.344 224.761L796.524 224.955ZM814.221 223.716C810.503 223.716 807.599 222.993 805.508 221.547C803.417 220.101 802.371 218.152 802.371 215.7C802.371 214.77 802.668 213.686 803.262 212.447C803.856 211.182 804.669 209.942 805.701 208.729C806.089 208.264 806.592 208.019 807.212 207.993C807.857 207.967 808.425 208.148 808.916 208.535L809.806 209.194C810.271 209.555 810.516 210.033 810.542 210.627C810.594 211.22 810.439 211.75 810.077 212.214C809.019 213.557 808.49 214.589 808.49 215.312C808.49 216.268 808.941 216.978 809.845 217.442C810.749 217.881 812.207 218.101 814.221 218.101C816.183 218.101 818.3 217.907 820.572 217.52C821.166 217.416 821.708 217.533 822.198 217.868C822.689 218.204 822.986 218.669 823.089 219.262L823.244 220.385C823.347 221.005 823.218 221.573 822.857 222.089C822.521 222.606 822.056 222.915 821.463 223.019C819.113 223.483 816.699 223.716 814.221 223.716ZM830.95 202.417C830.357 202.417 829.84 202.197 829.401 201.758C828.963 201.32 828.743 200.803 828.743 200.209V199.59C828.743 198.996 828.963 198.48 829.401 198.041C829.84 197.602 830.357 197.382 830.95 197.382H832.073C832.28 197.382 832.383 197.279 832.383 197.073V193.549C832.383 192.955 832.603 192.439 833.042 192C833.48 191.561 833.997 191.341 834.591 191.341H836.062C836.656 191.341 837.172 191.561 837.611 192C838.05 192.439 838.27 192.955 838.27 193.549V197.073C838.27 197.279 838.373 197.382 838.579 197.382H839.083C839.677 197.382 840.18 197.602 840.593 198.041C841.032 198.48 841.251 198.996 841.251 199.59V200.209C841.251 200.803 841.032 201.32 840.593 201.758C840.18 202.197 839.677 202.417 839.083 202.417H838.579C838.373 202.417 838.27 202.533 838.27 202.765V209.078C838.27 209.284 838.373 209.362 838.579 209.31C838.605 209.284 838.657 209.271 838.734 209.271C838.812 209.271 838.863 209.258 838.889 209.232C839.431 209.078 839.948 209.155 840.438 209.465C840.645 209.594 840.748 209.555 840.748 209.349C840.774 208.755 840.993 208.251 841.406 207.838C841.819 207.399 842.323 207.18 842.917 207.18H843.11C843.162 207.18 843.201 207.154 843.226 207.103C843.252 207.051 843.239 206.999 843.188 206.948L841.677 205.399C841.264 204.96 841.071 204.443 841.096 203.85C841.122 203.256 841.329 202.714 841.716 202.223C842.491 201.294 843.02 200.261 843.304 199.125C843.588 197.989 843.73 196.401 843.73 194.362C843.73 193.768 843.949 193.265 844.388 192.852C844.827 192.413 845.343 192.193 845.937 192.193H856.587C857.18 192.193 857.684 192.413 858.097 192.852C858.536 193.29 858.755 193.807 858.755 194.401V200.829C858.755 201.113 858.794 201.294 858.871 201.371C858.949 201.423 859.181 201.449 859.569 201.449C859.982 201.449 860.24 201.332 860.343 201.1C860.472 200.868 860.588 200.158 860.692 198.97C860.717 198.402 860.963 197.938 861.427 197.576C861.892 197.189 862.408 197.047 862.976 197.15C863.57 197.253 864.048 197.55 864.409 198.041C864.796 198.506 864.977 199.048 864.951 199.667C864.9 200.519 864.848 201.216 864.796 201.758C864.745 202.301 864.642 202.83 864.487 203.346C864.332 203.837 864.203 204.224 864.099 204.508C863.996 204.766 863.764 205.011 863.402 205.244C863.067 205.476 862.783 205.644 862.55 205.747C862.318 205.825 861.879 205.902 861.234 205.98C860.588 206.031 860.033 206.057 859.569 206.057C859.104 206.057 858.368 206.057 857.361 206.057C855.425 206.057 854.199 205.902 853.682 205.592C853.166 205.282 852.908 204.598 852.908 203.54V197.537C852.908 197.305 852.792 197.189 852.559 197.189H849.616C849.384 197.189 849.268 197.318 849.268 197.576C849.19 199.616 848.829 201.371 848.183 202.843C847.538 204.314 846.557 205.683 845.24 206.948C845.188 206.999 845.176 207.051 845.201 207.103C845.227 207.154 845.266 207.18 845.318 207.18H860.537C861.13 207.18 861.647 207.399 862.086 207.838C862.525 208.277 862.744 208.794 862.744 209.387V211.943C862.744 212.047 862.692 212.098 862.589 212.098C862.692 212.124 862.705 212.214 862.628 212.369C861.234 214.925 859.517 217.094 857.477 218.875C857.322 219.03 857.335 219.146 857.516 219.224C858.936 219.843 860.704 220.45 862.821 221.044C863.389 221.199 863.803 221.534 864.061 222.051C864.345 222.567 864.383 223.096 864.177 223.638L863.79 224.568C863.557 225.162 863.157 225.6 862.589 225.884C862.021 226.194 861.427 226.259 860.808 226.078C857.89 225.304 855.038 224.193 852.249 222.748C852.095 222.644 851.888 222.644 851.63 222.748C849.384 223.909 846.57 224.994 843.188 226.001C842.594 226.181 842 226.13 841.406 225.846C840.838 225.587 840.425 225.174 840.167 224.606L839.664 223.561C839.431 223.045 839.431 222.541 839.664 222.051C839.922 221.534 840.322 221.212 840.864 221.082C842.646 220.618 844.466 220.024 846.324 219.301C846.402 219.275 846.441 219.224 846.441 219.146C846.466 219.043 846.454 218.978 846.402 218.953C845.292 218.023 844.427 217.236 843.807 216.59C843.394 216.151 843.226 215.635 843.304 215.041C843.381 214.447 843.665 213.97 844.156 213.608L845.898 212.292C845.95 212.24 845.963 212.201 845.937 212.176C845.911 212.124 845.873 212.098 845.821 212.098H842.917C842.478 212.098 842.065 211.969 841.677 211.711C841.574 211.659 841.497 211.698 841.445 211.827C841.471 212.421 841.303 212.963 840.942 213.454C840.606 213.944 840.167 214.267 839.625 214.422C839.522 214.447 839.354 214.499 839.121 214.577C838.889 214.628 838.721 214.667 838.618 214.693C838.386 214.744 838.27 214.886 838.27 215.119V219.572C838.27 220.76 838.257 221.702 838.231 222.399C838.205 223.07 838.115 223.69 837.96 224.258C837.805 224.852 837.624 225.278 837.418 225.536C837.211 225.794 836.875 226.013 836.411 226.194C835.946 226.375 835.455 226.478 834.939 226.504C834.449 226.556 833.752 226.581 832.848 226.581C832.332 226.581 831.867 226.569 831.454 226.543C830.834 226.491 830.292 226.246 829.827 225.807C829.363 225.368 829.117 224.839 829.092 224.219V223.716C829.066 223.148 829.247 222.657 829.634 222.244C830.047 221.831 830.55 221.65 831.144 221.702C831.273 221.702 831.428 221.715 831.609 221.741C831.789 221.741 831.893 221.741 831.919 221.741C832.151 221.741 832.28 221.676 832.306 221.547C832.357 221.418 832.383 220.953 832.383 220.153V216.513C832.383 216.435 832.357 216.371 832.306 216.319C832.254 216.242 832.19 216.216 832.112 216.242C831.777 216.345 831.493 216.41 831.26 216.435C830.692 216.539 830.176 216.41 829.711 216.048C829.247 215.687 828.988 215.209 828.937 214.615L828.859 213.647C828.833 213.028 829.014 212.485 829.401 212.021C829.789 211.53 830.279 211.22 830.873 211.091L832.035 210.859C832.267 210.807 832.383 210.678 832.383 210.472V202.765C832.383 202.533 832.28 202.417 832.073 202.417H830.95ZM847.293 212.098C847.241 212.098 847.189 212.137 847.138 212.214C847.112 212.266 847.125 212.318 847.176 212.369C848.416 213.763 849.9 215.028 851.63 216.164C851.785 216.293 851.953 216.293 852.133 216.164C853.734 215.028 855.076 213.776 856.161 212.408C856.29 212.201 856.251 212.098 856.045 212.098H847.293ZM870.141 197.034C869.547 197.034 869.03 196.815 868.592 196.376C868.153 195.937 867.933 195.42 867.933 194.827V194.517C867.933 193.923 868.153 193.407 868.592 192.968C869.03 192.529 869.547 192.309 870.141 192.309H900.191C900.785 192.309 901.302 192.529 901.741 192.968C902.179 193.407 902.399 193.923 902.399 194.517V194.827C902.399 195.42 902.179 195.937 901.741 196.376C901.302 196.815 900.785 197.034 900.191 197.034H893.26C893.053 197.034 892.95 197.137 892.95 197.344V198.196C892.95 198.402 893.053 198.506 893.26 198.506H898.836C899.43 198.506 899.946 198.725 900.385 199.164C900.824 199.603 901.043 200.119 901.043 200.713V205.399C901.043 205.992 900.824 206.509 900.385 206.948C899.946 207.361 899.43 207.567 898.836 207.567H874.439H871.496C870.902 207.567 870.386 207.361 869.947 206.948C869.508 206.509 869.289 205.992 869.289 205.399V200.713C869.289 200.119 869.508 199.603 869.947 199.164C870.386 198.725 870.902 198.506 871.496 198.506H877.072C877.279 198.506 877.382 198.402 877.382 198.196V197.344C877.382 197.137 877.279 197.034 877.072 197.034H870.141ZM892.834 202.223V203.695C892.834 203.927 892.937 204.043 893.143 204.043H895.544C895.777 204.043 895.893 203.927 895.893 203.695V202.223C895.893 202.017 895.777 201.913 895.544 201.913H893.143C892.937 201.913 892.834 202.017 892.834 202.223ZM883.385 197.344V198.196C883.385 198.402 883.501 198.506 883.733 198.506H886.599C886.831 198.506 886.947 198.402 886.947 198.196V197.344C886.947 197.137 886.831 197.034 886.599 197.034H883.733C883.501 197.034 883.385 197.137 883.385 197.344ZM883.268 202.223V203.695C883.268 203.927 883.372 204.043 883.578 204.043H886.754C886.96 204.043 887.064 203.927 887.064 203.695V202.223C887.064 202.017 886.96 201.913 886.754 201.913H883.578C883.372 201.913 883.268 202.017 883.268 202.223ZM877.498 202.223C877.498 202.017 877.395 201.913 877.189 201.913H874.788C874.555 201.913 874.439 202.017 874.439 202.223V203.695C874.439 203.927 874.555 204.043 874.788 204.043H877.189C877.395 204.043 877.498 203.927 877.498 203.695V202.223ZM872.774 208.652H897.868C898.436 208.652 898.926 208.858 899.34 209.271C899.753 209.684 899.959 210.175 899.959 210.743C899.959 211.311 899.753 211.801 899.34 212.214C898.952 212.602 898.462 212.795 897.868 212.795H872.774C872.206 212.795 871.715 212.602 871.302 212.214C870.915 211.801 870.721 211.311 870.721 210.743C870.721 210.149 870.915 209.658 871.302 209.271C871.715 208.858 872.206 208.652 872.774 208.652ZM870.141 218.604C869.547 218.604 869.03 218.397 868.592 217.984C868.153 217.546 867.933 217.029 867.933 216.435V216.087C867.933 215.493 868.153 214.99 868.592 214.577C869.03 214.138 869.547 213.918 870.141 213.918H900.191C900.785 213.918 901.302 214.138 901.741 214.577C902.179 214.99 902.399 215.493 902.399 216.087V216.435C902.399 217.029 902.179 217.546 901.741 217.984C901.302 218.397 900.785 218.604 900.191 218.604H897.055C897.029 218.604 897.016 218.63 897.016 218.681C897.016 218.733 897.029 218.772 897.055 218.798C897.984 219.288 899.352 220.05 901.16 221.082C901.676 221.392 901.999 221.844 902.128 222.438C902.283 223.032 902.205 223.587 901.895 224.103L901.508 224.8C901.198 225.316 900.747 225.652 900.153 225.807C899.585 225.962 899.043 225.884 898.526 225.575C896.9 224.645 894.783 223.496 892.175 222.128C891.633 221.844 891.272 221.418 891.091 220.85C890.91 220.282 890.975 219.74 891.285 219.224L891.478 218.914C891.53 218.862 891.53 218.798 891.478 218.72C891.452 218.643 891.401 218.604 891.323 218.604H889.387C889.155 218.604 889.039 218.72 889.039 218.953V221.044C889.039 222.438 888.987 223.458 888.884 224.103C888.78 224.774 888.471 225.329 887.954 225.768C887.438 226.207 886.792 226.465 886.018 226.543C885.243 226.646 884.03 226.698 882.378 226.698C881.732 226.698 880.674 226.659 879.202 226.581C878.583 226.556 878.041 226.323 877.576 225.884C877.111 225.445 876.866 224.916 876.84 224.297L876.763 223.29C876.763 223.212 876.724 223.148 876.646 223.096C876.569 223.07 876.504 223.083 876.453 223.135C875.085 223.987 873.523 224.826 871.767 225.652C871.199 225.91 870.618 225.936 870.024 225.729C869.456 225.549 869.018 225.187 868.708 224.645L868.398 224.103C868.114 223.587 868.062 223.057 868.243 222.515C868.45 221.947 868.811 221.534 869.327 221.276C870.876 220.553 872.451 219.714 874.052 218.759C874.078 218.733 874.078 218.707 874.052 218.681C874.052 218.63 874.026 218.604 873.974 218.604H870.141ZM878.389 218.604C878.312 218.604 878.247 218.643 878.195 218.72C878.17 218.772 878.183 218.823 878.234 218.875L878.893 219.843C879.125 220.153 879.202 220.502 879.125 220.889C879.073 221.276 878.88 221.573 878.544 221.779C878.544 221.831 878.557 221.87 878.583 221.896C879.899 221.973 880.777 222.012 881.216 222.012C881.965 222.012 882.404 221.96 882.533 221.857C882.662 221.728 882.726 221.341 882.726 220.695V218.953C882.726 218.72 882.61 218.604 882.378 218.604H878.389ZM910.338 201.952C909.744 201.952 909.227 201.733 908.789 201.294C908.35 200.855 908.13 200.339 908.13 199.745V198.854C908.13 198.26 908.35 197.744 908.789 197.305C909.227 196.866 909.744 196.647 910.338 196.647C914.391 196.647 918.999 196.582 924.163 196.453C924.343 196.453 924.434 196.337 924.434 196.105C924.382 195.743 924.33 195.123 924.279 194.246C924.253 193.652 924.434 193.136 924.821 192.697C925.234 192.258 925.737 192.013 926.331 191.961L927.88 191.845C928.474 191.819 928.99 192.013 929.429 192.426C929.894 192.813 930.152 193.303 930.204 193.897C930.255 194.775 930.307 195.446 930.359 195.911C930.359 196.117 930.488 196.221 930.746 196.221C935.161 196.066 937.394 195.988 937.445 195.988C938.039 195.963 938.555 196.156 938.994 196.569C939.433 196.982 939.666 197.486 939.691 198.08L939.73 198.97C939.756 199.564 939.562 200.093 939.149 200.558C938.736 200.997 938.233 201.229 937.639 201.255L931.598 201.487C931.391 201.487 931.314 201.604 931.365 201.836C932.037 204.263 933.069 206.689 934.464 209.116C934.747 209.607 934.799 210.136 934.618 210.704C934.464 211.246 934.128 211.646 933.612 211.905L931.908 212.718C930.668 213.286 929.352 213.247 927.958 212.602C925.892 211.646 923.788 211.169 921.645 211.169C919.967 211.169 918.676 211.504 917.773 212.176C916.869 212.847 916.417 213.763 916.417 214.925C916.417 218.178 919.296 219.804 925.053 219.804C927.144 219.804 929.61 219.572 932.45 219.107C933.044 219.004 933.586 219.133 934.076 219.495C934.567 219.83 934.877 220.295 935.006 220.889L935.199 221.857C935.303 222.451 935.173 222.993 934.812 223.483C934.476 224 934.012 224.31 933.418 224.413C930.449 224.878 927.661 225.11 925.053 225.11C920.148 225.11 916.43 224.168 913.9 222.283C911.396 220.372 910.144 217.804 910.144 214.577C910.144 211.943 911.125 209.839 913.087 208.264C915.049 206.664 917.786 205.863 921.297 205.863C923.156 205.863 925.027 206.186 926.912 206.831L926.989 206.793V206.754C926.344 205.282 925.815 203.721 925.402 202.068C925.35 201.836 925.208 201.72 924.976 201.72C918.418 201.875 913.539 201.952 910.338 201.952ZM945.849 214.034C947.966 211.917 950.393 209.516 953.129 206.831C953.31 206.651 953.4 206.47 953.4 206.289V203.114C953.4 202.881 953.284 202.765 953.052 202.765H947.514C946.92 202.765 946.404 202.559 945.965 202.146C945.526 201.707 945.307 201.19 945.307 200.597V199.667C945.307 199.073 945.526 198.57 945.965 198.157C946.404 197.718 946.92 197.499 947.514 197.499H953.052C953.284 197.499 953.4 197.382 953.4 197.15V194.246C953.4 193.652 953.607 193.148 954.02 192.735C954.459 192.297 954.975 192.077 955.569 192.077H957.118C957.712 192.077 958.228 192.297 958.667 192.735C959.106 193.148 959.325 193.652 959.325 194.246V200.713C959.325 200.764 959.351 200.816 959.403 200.868C959.48 200.894 959.532 200.881 959.558 200.829C961.804 198.841 963.533 197.563 964.747 196.995C965.96 196.427 967.277 196.143 968.697 196.143C970.788 196.143 972.272 196.776 973.15 198.041C974.054 199.306 974.506 201.616 974.506 204.973C974.506 206.341 974.325 207.929 973.963 209.736C973.602 211.646 973.421 213.221 973.421 214.46C973.421 216.603 973.821 217.675 974.622 217.675C975.112 217.675 975.861 217.274 976.868 216.474C977.307 216.113 977.81 215.971 978.378 216.048C978.972 216.126 979.437 216.397 979.772 216.861L980.237 217.558C980.624 218.075 980.779 218.656 980.702 219.301C980.65 219.921 980.392 220.437 979.927 220.85C977.449 222.915 975.086 223.948 972.84 223.948C970.878 223.948 969.433 223.29 968.503 221.973C967.6 220.656 967.148 218.372 967.148 215.119C967.148 214.034 967.341 212.447 967.729 210.355C968.09 208.548 968.271 206.973 968.271 205.631C968.271 203.462 967.871 202.378 967.07 202.378C966.838 202.378 966.554 202.481 966.218 202.688C965.909 202.869 965.199 203.437 964.088 204.392C962.978 205.321 961.468 206.702 959.558 208.535C959.403 208.69 959.325 208.871 959.325 209.078V223.445C959.325 224.038 959.106 224.542 958.667 224.955C958.228 225.394 957.712 225.613 957.118 225.613H955.569C954.975 225.613 954.459 225.394 954.02 224.955C953.607 224.542 953.4 224.038 953.4 223.445V214.848C953.4 214.796 953.362 214.757 953.284 214.731C953.207 214.706 953.155 214.719 953.129 214.77C952.535 215.364 951.438 216.435 949.837 217.984C949.424 218.423 948.908 218.643 948.288 218.643C947.669 218.643 947.14 218.423 946.701 217.984L945.849 217.132C945.41 216.694 945.19 216.177 945.19 215.583C945.19 214.99 945.41 214.473 945.849 214.034ZM997.083 220.192C998.58 220.192 999.6 219.985 1000.14 219.572C1000.71 219.133 1001.02 218.281 1001.07 217.016C1001.07 216.81 1000.98 216.668 1000.8 216.59C999.716 216.177 998.696 215.971 997.741 215.971C995.288 215.971 994.062 216.655 994.062 218.023C994.062 219.469 995.069 220.192 997.083 220.192ZM988.253 200.713C987.659 200.713 987.143 200.493 986.704 200.055C986.265 199.616 986.046 199.099 986.046 198.506V197.615C986.046 197.021 986.265 196.505 986.704 196.066C987.143 195.627 987.659 195.407 988.253 195.407H1000.76C1000.97 195.407 1001.07 195.304 1001.07 195.098V194.207C1001.07 193.613 1001.29 193.097 1001.73 192.658C1002.17 192.219 1002.68 192 1003.28 192H1004.83C1005.42 192 1005.94 192.219 1006.38 192.658C1006.82 193.097 1007.03 193.613 1007.03 194.207V195.098C1007.03 195.304 1007.14 195.407 1007.34 195.407H1014.43C1015.03 195.407 1015.54 195.627 1015.98 196.066C1016.42 196.505 1016.64 197.021 1016.64 197.615V198.506C1016.64 199.099 1016.42 199.616 1015.98 200.055C1015.54 200.493 1015.03 200.713 1014.43 200.713H1007.34C1007.14 200.713 1007.03 200.829 1007.03 201.061V202.843C1007.03 203.049 1007.14 203.153 1007.34 203.153H1012.96C1013.55 203.153 1014.07 203.372 1014.51 203.811C1014.95 204.25 1015.17 204.766 1015.17 205.36V206.134C1015.17 206.728 1014.95 207.245 1014.51 207.683C1014.07 208.122 1013.55 208.342 1012.96 208.342H1007.34C1007.14 208.342 1007.03 208.445 1007.03 208.652V213.492C1007.03 213.699 1007.14 213.867 1007.34 213.996C1009.41 215.235 1011.69 216.952 1014.2 219.146C1014.66 219.559 1014.91 220.076 1014.93 220.695C1014.96 221.289 1014.77 221.805 1014.35 222.244L1013.66 223.019C1013.24 223.458 1012.74 223.69 1012.15 223.716C1011.55 223.767 1011.04 223.587 1010.6 223.174C1009.1 221.857 1007.86 220.837 1006.88 220.114C1006.73 220.011 1006.62 220.063 1006.57 220.269C1006.03 222.102 1005 223.432 1003.47 224.258C1001.95 225.084 999.819 225.497 997.083 225.497C994.243 225.497 992.022 224.839 990.422 223.522C988.847 222.231 988.059 220.398 988.059 218.023C988.059 215.803 988.808 214.047 990.306 212.756C991.829 211.466 994.088 210.82 997.083 210.82C998.244 210.82 999.471 210.962 1000.76 211.246C1000.97 211.298 1001.07 211.207 1001.07 210.975V208.652C1001.07 208.445 1000.97 208.342 1000.76 208.342H989.725C989.131 208.342 988.615 208.122 988.176 207.683C987.737 207.245 987.517 206.728 987.517 206.134V205.36C987.517 204.766 987.737 204.25 988.176 203.811C988.615 203.372 989.131 203.153 989.725 203.153H1000.76C1000.97 203.153 1001.07 203.049 1001.07 202.843V201.061C1001.07 200.829 1000.97 200.713 1000.76 200.713H988.253ZM1039.37 225.226C1036.3 225.226 1033.91 224.774 1032.21 223.871C1030.53 222.967 1029.3 221.431 1028.53 219.262C1027.75 217.068 1027.37 213.983 1027.37 210.007C1027.37 204.766 1027.49 199.771 1027.75 195.02C1027.8 194.401 1028.05 193.884 1028.49 193.471C1028.93 193.058 1029.46 192.865 1030.08 192.89L1032.13 192.929C1032.72 192.955 1033.21 193.187 1033.6 193.626C1034.01 194.065 1034.21 194.581 1034.18 195.175C1033.9 200.235 1033.76 205.179 1033.76 210.007C1033.76 213.75 1034.16 216.242 1034.96 217.481C1035.78 218.694 1037.25 219.301 1039.37 219.301C1041.41 219.301 1043.27 218.617 1044.95 217.249C1046.63 215.88 1048.17 213.673 1049.59 210.627C1049.85 210.059 1050.25 209.658 1050.79 209.426C1051.36 209.194 1051.93 209.181 1052.5 209.387L1054.01 209.968C1054.6 210.175 1055.02 210.562 1055.25 211.13C1055.51 211.672 1055.51 212.227 1055.25 212.795C1051.69 221.082 1046.39 225.226 1039.37 225.226ZM1080.65 209.194C1080.06 209.245 1079.53 209.078 1079.06 208.69C1078.63 208.303 1078.38 207.813 1078.33 207.219L1078.25 206.444C1078.2 205.85 1078.37 205.321 1078.75 204.856C1079.17 204.366 1079.67 204.095 1080.26 204.043C1084.45 203.656 1088.38 203.449 1092.08 203.424C1092.67 203.424 1093.17 203.643 1093.59 204.082C1094.03 204.521 1094.24 205.037 1094.24 205.631V206.405C1094.24 206.999 1094.03 207.516 1093.59 207.955C1093.15 208.393 1092.63 208.613 1092.04 208.613C1088.19 208.639 1084.4 208.832 1080.65 209.194ZM1092.31 219.03C1092.9 218.953 1093.43 219.095 1093.9 219.456C1094.39 219.792 1094.67 220.256 1094.75 220.85L1094.86 221.779C1094.94 222.399 1094.8 222.941 1094.44 223.406C1094.08 223.896 1093.6 224.193 1093.01 224.297C1090.89 224.581 1088.89 224.723 1087 224.723C1083.31 224.723 1080.37 224.051 1078.17 222.709C1076 221.341 1074.92 219.598 1074.92 217.481C1074.92 216.009 1075.6 214.538 1076.97 213.066C1077.41 212.576 1077.97 212.279 1078.64 212.176C1079.34 212.072 1079.98 212.176 1080.57 212.485L1081.23 212.795C1081.7 213.028 1081.97 213.402 1082.05 213.918C1082.12 214.435 1081.98 214.886 1081.62 215.274C1081.13 215.816 1080.88 216.332 1080.88 216.823C1080.88 217.571 1081.41 218.191 1082.47 218.681C1083.56 219.172 1085.07 219.417 1087 219.417C1088.66 219.417 1090.42 219.288 1092.31 219.03ZM1064.35 224.49C1063.78 224.361 1063.35 224.038 1063.07 223.522C1062.79 223.032 1062.74 222.502 1062.92 221.934C1065.11 214.964 1066.9 208.135 1068.3 201.449C1068.32 201.371 1068.3 201.294 1068.22 201.216C1068.17 201.139 1068.1 201.1 1068.03 201.1H1065.59C1064.99 201.1 1064.48 200.881 1064.04 200.442C1063.6 200.003 1063.38 199.487 1063.38 198.893V198.002C1063.38 197.408 1063.6 196.892 1064.04 196.453C1064.48 196.014 1064.99 195.795 1065.59 195.795H1069.03C1069.27 195.795 1069.41 195.679 1069.46 195.446C1069.51 195.214 1069.58 194.891 1069.65 194.478C1069.73 194.065 1069.78 193.742 1069.81 193.51C1069.91 192.89 1070.21 192.4 1070.7 192.038C1071.19 191.651 1071.75 191.483 1072.36 191.535L1073.91 191.651C1074.51 191.703 1074.99 191.974 1075.35 192.464C1075.71 192.929 1075.84 193.445 1075.73 194.013C1075.71 194.168 1075.67 194.414 1075.62 194.749C1075.57 195.085 1075.53 195.33 1075.5 195.485C1075.45 195.691 1075.54 195.795 1075.77 195.795H1086.5C1087.09 195.795 1087.6 196.014 1088.01 196.453C1088.45 196.892 1088.67 197.408 1088.67 198.002V198.893C1088.67 199.487 1088.45 200.003 1088.01 200.442C1087.6 200.881 1087.09 201.1 1086.5 201.1H1074.77C1074.56 201.1 1074.43 201.203 1074.38 201.41C1072.86 209.129 1071.01 216.41 1068.84 223.251C1068.66 223.845 1068.29 224.297 1067.72 224.606C1067.18 224.916 1066.61 225.007 1066.01 224.878L1064.35 224.49Z" fill="#1E1E1E"/>
<g clip-path="url(#clip0_25_786)">
<path d="M606.566 208.177C593.364 225.057 606.964 243.638 595.704 249.607C615.695 263.505 633.085 230.599 606.566 208.177Z" fill="#2E2319"/>
<path d="M606.565 208.177C579.792 225.87 603.329 241.983 595.704 249.607C605.983 253.345 617.007 242.145 606.565 208.177Z" fill="#4F4236"/>
<path d="M606.565 208.177C599.258 222.769 615.551 249.254 595.704 249.607C609.979 255.892 621.288 241.627 606.565 208.177Z" fill="#403429"/>
<path d="M598.271 247.697C604.254 242.116 588.117 223.15 606.963 211.09C593.309 224.678 608.942 243.419 598.271 247.697Z" fill="#635547"/>
<path d="M670.018 208.177C683.219 225.057 669.62 243.638 680.879 249.607C660.888 263.505 643.498 230.599 670.018 208.177Z" fill="#2E2319"/>
<path d="M670.018 208.177C696.791 225.87 673.255 241.983 680.879 249.607C670.6 253.345 659.576 242.145 670.018 208.177Z" fill="#4F4236"/>
<path d="M670.018 208.177C677.326 222.769 661.032 249.254 680.879 249.607C666.604 255.892 655.296 241.627 670.018 208.177Z" fill="#403429"/>
<path d="M678.313 247.697C672.329 242.116 688.466 223.15 669.62 211.09C683.274 224.678 667.641 243.419 678.313 247.697Z" fill="#635547"/>
<path d="M638.292 163.066C610.147 163.082 592.331 187.84 603.293 219.641H673.291C684.253 187.84 666.433 163.082 638.292 163.066Z" fill="#403429"/>
<path d="M602.796 206.424C607.215 206.963 610.404 221.894 607.628 225.833C607.238 226.385 604.96 227.262 603.273 223.785C602.337 221.861 599.64 220.252 598.804 216.281C597.732 211.191 598.401 205.887 602.796 206.424Z" fill="#FFD8B4"/>
<path d="M602.916 209.287C604.07 209.651 605.327 211.426 606.01 214.37C601.98 213.496 602.987 220.269 606.487 220.396C606.458 221.078 606.413 221.78 606.328 222.515C604.641 220.045 602.929 221.036 601.229 217.357C599.698 214.042 600.062 208.384 602.916 209.287Z" fill="#DEB38A"/>
<path d="M673.784 206.424C669.368 206.963 666.176 221.894 668.958 225.833C669.345 226.385 671.623 227.262 673.313 223.785C674.249 221.861 676.943 220.252 677.779 216.281C678.851 211.191 678.182 205.884 673.784 206.424Z" fill="#FFD8B4"/>
<path d="M670.577 214.36C671.259 211.422 672.514 209.651 673.664 209.287C676.521 208.38 676.885 214.042 675.354 217.357C673.658 221.036 671.942 220.044 670.255 222.514C670.17 221.777 670.125 221.075 670.096 220.392C673.56 220.226 674.555 213.538 670.577 214.36Z" fill="#DEB38A"/>
<path d="M638.295 168.058C614.148 168.058 602.513 186.326 603.972 211.728C604.265 216.837 607.43 228.514 610.423 234.494C615.708 245.05 629.501 252.921 638.292 252.921C647.076 252.921 660.886 245.05 666.164 234.494C669.16 228.514 672.325 216.837 672.615 211.728C674.077 186.326 662.442 168.058 638.295 168.058Z" fill="#FFD8B4"/>
<path d="M643.921 226.002C643.326 225.586 641.925 226.226 638.292 226.226C634.658 226.226 633.257 225.586 632.659 226.002C631.948 226.506 633.085 228.774 638.292 228.774C643.498 228.774 644.639 226.506 643.921 226.002Z" fill="#DEB38A"/>
<path d="M638.292 234.097C632.848 232.495 624.778 234.858 624.778 234.858C627.85 238.205 630.102 242.544 638.292 242.544C647.671 242.544 649.27 237.613 651.808 234.858C651.808 234.858 643.732 232.488 638.292 234.097Z" fill="#DEB38A"/>
<path d="M626.803 235.423C632.513 240.214 644.038 240.243 649.78 235.423C643.696 235.683 632.932 235.687 626.803 235.423Z" fill="white"/>
<path d="M633.085 213.574C633.283 215.124 632.234 216.96 629.322 218.335C627.472 219.212 623.624 220.242 618.571 218.11C616.306 217.155 614.099 214.178 614.297 212.534C617.037 207.369 630.521 206.612 633.085 213.574Z" fill="white"/>
<path d="M623.936 208.172C626.862 208.172 629.234 210.544 629.234 213.469C629.234 216.394 626.862 218.767 623.936 218.767C621.008 218.767 618.639 216.394 618.639 213.469C618.639 210.544 621.008 208.172 623.936 208.172Z" fill="url(#paint4_linear_25_786)"/>
<path d="M621.288 213.372C621.288 217.038 626.585 217.038 626.585 213.372C626.585 209.97 621.288 209.97 621.288 213.372Z" fill="#1A1626"/>
<path d="M620.485 211.89C620.485 213.424 622.705 213.424 622.705 211.89C622.705 210.463 620.485 210.463 620.485 211.89Z" fill="#AB968C"/>
<path d="M633.111 213.778C630.96 206.863 616.293 207.883 614.297 212.534C615.035 206.583 631.278 205.01 633.111 213.778Z" fill="#DEB38A"/>
<path d="M643.502 213.574C643.3 215.124 644.353 216.96 647.265 218.335C649.111 219.212 652.959 220.242 658.016 218.11C660.281 217.155 662.488 214.178 662.29 212.534C659.553 207.369 646.062 206.612 643.502 213.574Z" fill="white"/>
<path d="M652.53 208.172C655.458 208.172 657.831 210.544 657.831 213.469C657.831 216.394 655.458 218.767 652.53 218.767C649.605 218.767 647.232 216.394 647.232 213.469C647.232 210.544 649.605 208.172 652.53 208.172Z" fill="url(#paint5_linear_25_786)"/>
<path d="M649.884 213.372C649.884 217.038 655.182 217.038 655.182 213.372C655.182 209.97 649.884 209.97 649.884 213.372Z" fill="#1A1626"/>
<path d="M649.078 211.89C649.078 213.424 651.298 213.424 651.298 211.89C651.298 210.463 649.078 210.463 649.078 211.89Z" fill="#AB968C"/>
<path d="M643.475 213.778C645.624 206.866 660.281 207.857 662.29 212.534C661.545 206.583 645.308 205.01 643.475 213.778Z" fill="#DEB38A"/>
<path d="M662.555 206.604C659.153 203.13 652.92 200.807 645.487 202.863C644.698 203.082 644.749 205.543 645.391 205.377C652.185 203.615 657.861 204.725 662.114 208.321C662.613 208.742 663.117 207.178 662.555 206.604Z" fill="#826D58"/>
<path d="M614.032 206.604C617.434 203.13 623.667 200.807 631.1 202.863C631.889 203.082 631.838 205.543 631.196 205.377C624.402 203.615 618.726 204.725 614.472 208.321C613.974 208.742 613.47 207.178 614.032 206.604Z" fill="#826D58"/>
<path d="M638.282 163.898C624.128 163.895 611.975 171.837 606.487 181.319C601.489 189.955 600.504 205.208 604.989 217.727C605.571 205.715 612.23 199.667 611.824 186.449C651.603 186.449 667.916 199.265 671.571 217.727C680.603 192.511 666.381 163.898 638.282 163.898Z" fill="#403429"/>
<path d="M637.527 163.906C623.373 163.906 611.975 171.837 606.487 181.319C601.489 189.955 599.396 201.033 604.989 217.727C602.122 199.317 610.004 184.896 610.004 184.896C648.669 180.701 667.448 197.809 671.571 217.727C672.471 210.931 671.588 179.401 636.42 176.668C662.576 174.305 671.571 187.318 672.195 206.872C679.164 181.405 656.415 163.906 637.527 163.906Z" fill="#4F4236"/>
<path d="M671.571 217.727C663.737 183.648 608.667 186.619 608.667 186.619C608.667 186.619 666.84 180.181 671.571 217.727Z" fill="#2E2319"/>
<path d="M604.989 217.727C604.482 203.522 611.996 197.126 611.19 182.462C614.297 196.398 607.602 203.314 604.989 217.727Z" fill="#2E2319"/>
<path d="M672.195 206.872C675.371 158.87 601.203 158.87 604.378 206.872C607.144 166.556 669.43 166.556 672.195 206.872Z" fill="#CFD8DD"/>
<path d="M672.195 205.319C675.371 157.317 601.203 157.317 604.378 205.319C607.144 165.003 669.43 165.003 672.195 205.319Z" fill="white"/>
<path d="M604.792 187.318C618.946 155.994 648.379 168.126 648.379 168.126C648.379 168.126 620.572 161.09 604.792 187.318Z" fill="#635547"/>
<path d="M665.401 197.792C651.298 182.462 629.234 179.765 629.234 179.765C629.234 179.765 654.793 176.091 665.401 197.792Z" fill="#635547"/>
</g>
<defs>
<filter id="filter0_d_25_786" x="333.427" y="454.498" width="325.444" height="273.199" filterUnits="userSpaceOnUse" color-interpolation-filters="sRGB">
<feFlood flood-opacity="0" result="BackgroundImageFix"/>
<feColorMatrix in="SourceAlpha" type="matrix" values="0 0 0 0 0 0 0 0 0 0 0 0 0 0 0 0 0 0 127 0" result="hardAlpha"/>
<feOffset dy="4.06266"/>
<feGaussianBlur stdDeviation="37.5796"/>
<feComposite in2="hardAlpha" operator="out"/>
<feColorMatrix type="matrix" values="0 0 0 0 0.552941 0 0 0 0 0.105882 0 0 0 0 0.8 0 0 0 0.7 0"/>
<feBlend mode="normal" in2="BackgroundImageFix" result="effect1_dropShadow_25_786"/>
<feBlend mode="normal" in="SourceGraphic" in2="effect1_dropShadow_25_786" result="shape"/>
</filter>
<filter id="filter1_d_25_786" x="502.753" y="82.1665" width="687.376" height="261.397" filterUnits="userSpaceOnUse" color-interpolation-filters="sRGB">
<feFlood flood-opacity="0" result="BackgroundImageFix"/>
<feColorMatrix in="SourceAlpha" type="matrix" values="0 0 0 0 0 0 0 0 0 0 0 0 0 0 0 0 0 0 127 0" result="hardAlpha"/>
<feOffset dy="4.84068"/>
<feGaussianBlur stdDeviation="26.6237"/>
<feComposite in2="hardAlpha" operator="out"/>
<feColorMatrix type="matrix" values="0 0 0 0 0.19967 0 0 0 0 0.216601 0 0 0 0 0.241997 0 0 0 0.5 0"/>
<feBlend mode="normal" in2="BackgroundImageFix" result="effect1_dropShadow_25_786"/>
<feBlend mode="normal" in="SourceGraphic" in2="effect1_dropShadow_25_786" result="shape"/>
</filter>
<linearGradient id="paint0_linear_25_786" x1="271.45" y1="393.06" x2="271.45" y2="247.841" gradientUnits="userSpaceOnUse">
<stop stop-color="#FF9500"/>
<stop offset="0.1919" stop-color="#FFAD00"/>
<stop offset="0.5455" stop-color="#FFD500"/>
<stop offset="0.8272" stop-color="#FFED00"/>
<stop offset="1" stop-color="#FFF600"/>
</linearGradient>
<linearGradient id="paint1_linear_25_786" x1="232.753" y1="338.597" x2="310.148" y2="338.597" gradientUnits="userSpaceOnUse">
<stop stop-color="#CFD7E6"/>
<stop offset="0.0368" stop-color="#DAE0EC"/>
<stop offset="0.1263" stop-color="#EEF1F6"/>
<stop offset="0.2147" stop-color="#FBFCFD"/>
<stop offset="0.3" stop-color="white"/>
<stop offset="0.7" stop-color="white"/>
<stop offset="0.7853" stop-color="#FBFCFD"/>
<stop offset="0.8737" stop-color="#EEF1F6"/>
<stop offset="0.9632" stop-color="#DAE0EC"/>
<stop offset="1" stop-color="#CFD7E6"/>
</linearGradient>
<linearGradient id="paint2_linear_25_786" x1="462.553" y1="536.007" x2="517.975" y2="635.248" gradientUnits="userSpaceOnUse">
<stop stop-color="#FECC3C"/>
<stop offset="0.569468" stop-color="#FBC133"/>
<stop offset="1" stop-color="#E4A026"/>
</linearGradient>
<linearGradient id="paint3_linear_25_786" x1="819.238" y1="533.905" x2="874.503" y2="463.917" gradientUnits="userSpaceOnUse">
<stop stop-color="#EEDA00"/>
<stop offset="0.727447" stop-color="#FDF505"/>
<stop offset="1" stop-color="#FFFC79"/>
</linearGradient>
<linearGradient id="paint4_linear_25_786" x1="623.936" y1="218.767" x2="623.936" y2="208.172" gradientUnits="userSpaceOnUse">
<stop stop-color="#A6694A"/>
<stop offset="1" stop-color="#4F2A1E"/>
</linearGradient>
<linearGradient id="paint5_linear_25_786" x1="652.531" y1="218.767" x2="652.531" y2="208.172" gradientUnits="userSpaceOnUse">
<stop stop-color="#A6694A"/>
<stop offset="1" stop-color="#4F2A1E"/>
</linearGradient>
<clipPath id="clip0_25_786">
<rect width="106.495" height="106.495" fill="white" transform="translate(585.044 154.777)"/>
</clipPath>
</defs>
</svg>
