<?xml version="1.0" encoding="utf-8"?>
<!-- Generator: Adobe Illustrator 24.1.2, SVG Export Plug-In . SVG Version: 6.00 Build 0)  -->
<svg version="1.1" id="Layer_1" xmlns="http://www.w3.org/2000/svg" xmlns:xlink="http://www.w3.org/1999/xlink" x="0px" y="0px"
	 viewBox="0 0 64 64" style="enable-background:new 0 0 64 64;" xml:space="preserve">
<style type="text/css">
	.st0{fill:#F59E01;}
	.st1{fill:url(#SVGID_1_);}
	.st2{fill:url(#SVGID_2_);}
	.st3{fill:#BEC3CF;}
	.st4{fill:#302C3B;}
	.st5{fill:url(#SVGID_3_);}
	.st6{fill:url(#SVGID_4_);}
	.st7{fill:url(#SVGID_5_);}
	.st8{fill:url(#SVGID_6_);}
	.st9{fill:url(#SVGID_7_);}
	.st10{fill:#D47706;}
</style>
<path class="st0" d="M13.01,52c0,0-2,0-2,4s2,4,2,4h6v-8H13.01z"/>
<path class="st0" d="M19.01,52v8h36c0,0,2,0,2-2v-8L19.01,52z"/>
<linearGradient id="SVGID_1_" gradientUnits="userSpaceOnUse" x1="34.2639" y1="7" x2="34.2639" y2="15.9579" gradientTransform="matrix(1 0 0 -1 0 66)">
	<stop  offset="0" style="stop-color:#FFFFFF"/>
	<stop  offset="0.2258" style="stop-color:#F5F6F7"/>
	<stop  offset="0.6071" style="stop-color:#DBDFE2"/>
	<stop  offset="1" style="stop-color:#B9C2C7"/>
</linearGradient>
<path class="st1" d="M18.99,53h-5.94c-0.04,0-0.07,0-0.11,0.01c-0.22,0.06-0.94,0.45-0.94,2.99c0,2.33,0.6,2.85,0.87,2.97
	C12.94,58.99,13,59,13.07,59h41.45c0,0,2,0,2-2v-6.46c0-0.29-0.25-0.53-0.54-0.5L19.03,53C19.02,53,19,53,18.99,53z"/>
<path class="st0" d="M55.01,53h-36v-6h38v4C57.01,53,55.01,53,55.01,53z"/>
<linearGradient id="SVGID_2_" gradientUnits="userSpaceOnUse" x1="11.1359" y1="30" x2="24.1413" y2="30">
	<stop  offset="0" style="stop-color:#F59E01"/>
	<stop  offset="0.7" style="stop-color:#F9C802"/>
</linearGradient>
<path class="st2" d="M55.01,4h-42c0,0-2,0-2,4v48c0-4,2-4,2-4h42c0,0,2,0,2-2V6C57.01,6,57.01,4,55.01,4z"/>
<path class="st3" d="M12.25,58.04c0.06,0.18,0.12,0.33,0.19,0.45l42.94-0.23L12.25,58.04z"/>
<path class="st3" d="M12.07,57.11c0.02,0.16,0.04,0.32,0.07,0.45l43.24-0.23L12.07,57.11z"/>
<path class="st3" d="M12.01,56.18c0,0.16,0.01,0.31,0.01,0.46l43.34-0.23L12.01,56.18z"/>
<path class="st3" d="M12.04,55.24c-0.01,0.14-0.02,0.29-0.02,0.46l43.36-0.23L12.04,55.24z"/>
<path class="st3" d="M12.16,54.31c-0.03,0.14-0.05,0.29-0.08,0.45l43.29-0.23L12.16,54.31z"/>
<path class="st3" d="M12.51,53.38c-0.07,0.11-0.15,0.26-0.21,0.45l43.08-0.23L12.51,53.38z"/>
<path class="st4" d="M15.01,7.5c2,0,2,3,0,3C13.01,10.5,13.01,7.5,15.01,7.5z"/>
<linearGradient id="SVGID_3_" gradientUnits="userSpaceOnUse" x1="7.9707" y1="11.9671" x2="14.3316" y2="5.6062">
	<stop  offset="0" style="stop-color:#6E8189"/>
	<stop  offset="0.1391" style="stop-color:#81929A"/>
	<stop  offset="0.4201" style="stop-color:#B2BEC4"/>
	<stop  offset="0.5697" style="stop-color:#CFD8DD"/>
	<stop  offset="0.6446" style="stop-color:#C9D3D8"/>
	<stop  offset="0.7414" style="stop-color:#B9C4CA"/>
	<stop  offset="0.8502" style="stop-color:#9FADB3"/>
	<stop  offset="0.967" style="stop-color:#7A8C93"/>
	<stop  offset="1" style="stop-color:#6E8189"/>
</linearGradient>
<path class="st5" d="M7.01,8.88c-0.27,3.08,2.07,4.27,4,4.27V11.3c-1.16,0-2.27-0.96-2.12-2.23C9.2,6.32,14.01,6.27,14.01,9
	c0,1.11,2,1.11,2,0C16.01,3.55,7.46,3.81,7.01,8.88z"/>
<path class="st4" d="M15.01,17.5c2,0,2,3,0,3C13.01,20.5,13.01,17.5,15.01,17.5z"/>
<linearGradient id="SVGID_4_" gradientUnits="userSpaceOnUse" x1="7.9708" y1="21.9686" x2="14.3317" y2="15.6078">
	<stop  offset="0" style="stop-color:#6E8189"/>
	<stop  offset="0.1391" style="stop-color:#81929A"/>
	<stop  offset="0.4201" style="stop-color:#B2BEC4"/>
	<stop  offset="0.5697" style="stop-color:#CFD8DD"/>
	<stop  offset="0.6446" style="stop-color:#C9D3D8"/>
	<stop  offset="0.7414" style="stop-color:#B9C4CA"/>
	<stop  offset="0.8502" style="stop-color:#9FADB3"/>
	<stop  offset="0.967" style="stop-color:#7A8C93"/>
	<stop  offset="1" style="stop-color:#6E8189"/>
</linearGradient>
<path class="st6" d="M7.01,18.88c-0.27,3.08,2.07,4.27,4,4.27V21.3c-1.16,0-2.27-0.96-2.12-2.23c0.31-2.75,5.12-2.8,5.12-0.07
	c0,1.11,2,1.11,2,0C16.01,13.55,7.46,13.81,7.01,18.88z"/>
<path class="st4" d="M15.01,27.5c2,0,2,3,0,3C13.01,30.5,13.01,27.5,15.01,27.5z"/>
<linearGradient id="SVGID_5_" gradientUnits="userSpaceOnUse" x1="7.9707" y1="31.97" x2="14.3316" y2="25.6091">
	<stop  offset="0" style="stop-color:#6E8189"/>
	<stop  offset="0.1391" style="stop-color:#81929A"/>
	<stop  offset="0.4201" style="stop-color:#B2BEC4"/>
	<stop  offset="0.5697" style="stop-color:#CFD8DD"/>
	<stop  offset="0.6446" style="stop-color:#C9D3D8"/>
	<stop  offset="0.7414" style="stop-color:#B9C4CA"/>
	<stop  offset="0.8502" style="stop-color:#9FADB3"/>
	<stop  offset="0.967" style="stop-color:#7A8C93"/>
	<stop  offset="1" style="stop-color:#6E8189"/>
</linearGradient>
<path class="st7" d="M7.01,28.88c-0.27,3.08,2.07,4.27,4,4.27v-1.84c-1.16,0-2.27-0.96-2.12-2.23c0.31-2.75,5.12-2.8,5.12-0.07
	c0,1.11,2,1.11,2,0C16.01,23.55,7.46,23.82,7.01,28.88z"/>
<path class="st4" d="M15.01,37.5c2,0,2,3,0,3C13.01,40.5,13.01,37.5,15.01,37.5z"/>
<linearGradient id="SVGID_6_" gradientUnits="userSpaceOnUse" x1="7.9706" y1="41.9715" x2="14.3316" y2="35.6104">
	<stop  offset="0" style="stop-color:#6E8189"/>
	<stop  offset="0.1391" style="stop-color:#81929A"/>
	<stop  offset="0.4201" style="stop-color:#B2BEC4"/>
	<stop  offset="0.5697" style="stop-color:#CFD8DD"/>
	<stop  offset="0.6446" style="stop-color:#C9D3D8"/>
	<stop  offset="0.7414" style="stop-color:#B9C4CA"/>
	<stop  offset="0.8502" style="stop-color:#9FADB3"/>
	<stop  offset="0.967" style="stop-color:#7A8C93"/>
	<stop  offset="1" style="stop-color:#6E8189"/>
</linearGradient>
<path class="st8" d="M7.01,38.88c-0.27,3.08,2.07,4.27,4,4.27v-1.84c-1.16,0-2.27-0.96-2.12-2.23c0.31-2.75,5.12-2.8,5.12-0.07
	c0,1.11,2,1.11,2,0C16.01,33.55,7.46,33.82,7.01,38.88z"/>
<path class="st4" d="M15.01,47.51c2,0,2,3,0,3C13.01,50.51,13.01,47.51,15.01,47.51z"/>
<linearGradient id="SVGID_7_" gradientUnits="userSpaceOnUse" x1="7.9707" y1="51.973" x2="14.3316" y2="45.612">
	<stop  offset="0" style="stop-color:#6E8189"/>
	<stop  offset="0.1391" style="stop-color:#81929A"/>
	<stop  offset="0.4201" style="stop-color:#B2BEC4"/>
	<stop  offset="0.5697" style="stop-color:#CFD8DD"/>
	<stop  offset="0.6446" style="stop-color:#C9D3D8"/>
	<stop  offset="0.7414" style="stop-color:#B9C4CA"/>
	<stop  offset="0.8502" style="stop-color:#9FADB3"/>
	<stop  offset="0.967" style="stop-color:#7A8C93"/>
	<stop  offset="1" style="stop-color:#6E8189"/>
</linearGradient>
<path class="st9" d="M7.01,48.88c-0.27,3.08,2.07,4.27,4,4.27v-1.84c-1.16,0-2.27-0.96-2.12-2.23c0.31-2.75,5.12-2.8,5.12-0.07
	c0,1.11,2,1.11,2,0C16.01,43.55,7.46,43.82,7.01,48.88z"/>
<polygon class="st10" points="23.97,16.76 23.09,16.76 23.09,21.65 26.25,21.65 26.25,20.93 23.97,20.93 "/>
<polygon class="st10" points="26.93,21.65 30.2,21.65 30.2,20.96 27.8,20.96 27.8,19.52 30.06,19.52 30.06,18.82 27.8,18.82 
	27.8,17.46 30.2,17.46 30.2,16.76 26.93,16.76 "/>
<path class="st10" d="M34.18,17.05c-0.38-0.19-0.83-0.29-1.37-0.29h-1.8v4.89h1.8c0.53,0,0.99-0.1,1.36-0.29
	c0.38-0.19,0.67-0.47,0.87-0.84c0.2-0.37,0.3-0.81,0.3-1.33c0-0.51-0.1-0.95-0.3-1.32C34.85,17.52,34.56,17.24,34.18,17.05z
	 M34.03,20.5c-0.28,0.29-0.7,0.43-1.27,0.43H31.9v-3.45h0.86c1.13,0,1.69,0.57,1.69,1.72C34.45,19.78,34.31,20.21,34.03,20.5z"/>
<path class="st10" d="M38.47,19.65h1.05v1.22c-0.11,0.03-0.22,0.07-0.35,0.09c-0.19,0.03-0.39,0.05-0.59,0.05
	c-0.53,0-0.92-0.15-1.19-0.46c-0.27-0.3-0.4-0.76-0.4-1.36c0-0.59,0.13-1.03,0.39-1.33c0.26-0.3,0.64-0.45,1.14-0.45
	c0.26,0,0.5,0.04,0.72,0.12c0.22,0.08,0.45,0.21,0.68,0.39l0.3-0.65c-0.21-0.19-0.46-0.33-0.76-0.43s-0.62-0.14-0.96-0.14
	c-0.49,0-0.92,0.1-1.28,0.3c-0.36,0.2-0.64,0.49-0.83,0.86c-0.19,0.37-0.29,0.82-0.29,1.34c0,0.53,0.1,0.98,0.29,1.35
	c0.19,0.37,0.48,0.66,0.84,0.86c0.37,0.2,0.81,0.3,1.32,0.3c0.22,0,0.44-0.01,0.65-0.04s0.42-0.07,0.61-0.12
	c0.19-0.05,0.36-0.11,0.52-0.19v-2.35h-1.85V19.65z"/>
<polygon class="st10" points="41.33,21.65 44.6,21.65 44.6,20.96 42.19,20.96 42.19,19.52 44.46,19.52 44.46,18.82 42.19,18.82 
	42.19,17.46 44.6,17.46 44.6,16.76 41.33,16.76 "/>
<path class="st10" d="M48.83,20.09c-0.08-0.21-0.18-0.37-0.32-0.47c-0.1-0.07-0.21-0.11-0.32-0.13c0.22-0.06,0.41-0.16,0.56-0.29
	c0.3-0.25,0.45-0.6,0.45-1.03c0-0.45-0.14-0.8-0.43-1.04c-0.29-0.24-0.71-0.36-1.26-0.36h-2.09v4.89h0.87v-2.03h0.89
	c0.17,0,0.32,0.03,0.44,0.08c0.12,0.06,0.21,0.16,0.27,0.32l0.62,1.63h0.93L48.83,20.09z M46.28,18.93v-1.48h1.11
	c0.34,0,0.59,0.06,0.74,0.18c0.16,0.12,0.23,0.3,0.23,0.56c0,0.25-0.08,0.43-0.23,0.56c-0.16,0.12-0.4,0.19-0.74,0.19H46.28z"/>
</svg>
