<svg width="1073" height="619" viewBox="0 0 1073 619" fill="none" xmlns="http://www.w3.org/2000/svg">
<g clip-path="url(#clip0_309_1581)">
<path d="M783.373 0.650879H233.211C143.904 0.650879 71.4971 73.0583 71.4971 162.365V618.324H126.767V162.365C126.767 103.672 174.518 55.9205 233.211 55.9205H285.144V89.9793C285.144 106.727 298.729 120.312 315.477 120.312H712.504C729.252 120.312 742.836 106.727 742.836 89.9793V55.9205H783.373C842.066 55.9205 889.818 103.672 889.818 162.365V618.324H945.088V162.365C945.088 73.0583 872.68 0.650879 783.373 0.650879Z" fill="url(#paint0_linear_309_1581)"/>
<path d="M964.869 278.454H64.2394C28.761 278.454 0 307.215 0 342.693V521.415C0 556.894 28.761 585.655 64.2394 585.655H964.869C1000.35 585.655 1029.11 556.894 1029.11 521.415V342.693C1029.11 307.215 1000.35 278.454 964.869 278.454Z" fill="white"/>
<path d="M215.67 377.056L215.612 369.284C219.034 369.864 221.76 370.096 226.342 370.096C226.458 370.096 226.516 370.096 227.618 370.096C227.676 369.226 227.676 369.226 227.85 367.08C227.908 366.094 227.908 365.978 227.908 364.354C227.908 363.484 227.908 363.426 227.85 362.846L236.318 363.252C235.854 364.76 235.68 365.978 235.39 369.864C245.076 369.284 252.384 368.298 257.198 366.848L257.604 374.794C256.734 374.852 256.444 374.91 255.168 375.084C249.136 375.954 239.856 376.824 234.868 376.94C234.868 377.694 234.868 377.694 234.752 379.086C234.694 379.782 234.694 380.362 234.694 381.464C237.478 380.884 238.928 380.768 241.944 380.768C242.524 380.768 243.046 380.826 243.974 380.942C244.554 379.086 244.786 378.158 244.96 376.882L252.79 379.086C252.616 379.492 252.616 379.492 252.036 380.942C251.63 382.102 251.63 382.102 251.398 382.566C253.776 383.262 255.458 384.074 257.372 385.64C260.852 388.482 262.534 392.02 262.534 396.544C262.534 403.214 258.822 408.608 252.094 411.74C249.194 413.074 245.946 413.828 240.32 414.582C239.392 411.334 238.812 409.884 236.84 406.462C241.248 406.462 244.206 405.94 247.164 404.78C251.63 402.982 254.124 399.85 254.124 396.022C254.124 392.832 252.558 390.744 249.02 389.12C245.946 395.79 243.104 400.024 238.638 404.49C233.186 410 228.256 412.61 223.326 412.61C217.41 412.61 213.408 408.202 213.408 401.706C213.408 396.834 215.438 392.194 219.208 388.482C221.47 386.162 223.674 384.77 227.154 383.262C227.154 381.638 227.212 379.608 227.328 377.172C226.864 377.172 226.864 377.172 225.704 377.172C224.602 377.172 224.196 377.172 221.064 377.056C220.31 376.998 219.382 376.998 218.28 376.94C217.7 376.94 217.352 376.94 217.236 376.94C216.888 376.94 216.424 376.94 215.67 377.056ZM227.27 391.15C223.384 393.76 221.18 397.24 221.18 400.952C221.18 403.388 222.224 404.838 224.08 404.838C225.472 404.838 226.748 404.316 228.256 403.156C227.56 398.922 227.328 395.5 227.27 391.15ZM234.578 388.25C234.636 392.658 234.752 394.92 235.042 397.936C238.58 393.586 239.972 391.382 241.712 387.438C241.132 387.322 241.132 387.322 240.088 387.322C238.174 387.322 236.26 387.612 234.578 388.25ZM278.658 373.982L278.31 365.746C280.456 366.036 282.37 366.152 285.85 366.152C290.838 366.152 298.03 365.862 303.424 365.456C305.686 365.282 306.382 365.166 307.368 364.702L311.486 370.734C310.268 371.43 310.21 371.43 305.686 375.432C299.654 380.826 297.798 382.334 293.1 385.64C296.406 384.654 299.306 384.248 302.67 384.248C307.6 384.248 311.66 385.582 314.792 388.192C317.634 390.57 319.026 393.76 319.026 397.82C319.026 403.446 316.3 407.97 311.08 410.986C307.194 413.248 302.09 414.466 296.522 414.466C291.476 414.466 287.184 413.422 284.748 411.566C282.486 409.884 281.21 407.332 281.21 404.49C281.21 399.502 285.734 395.732 291.882 395.732C296 395.732 299.654 397.414 302.09 400.43C303.25 401.822 303.888 403.04 304.758 405.418C308.876 403.736 310.558 401.532 310.558 397.878C310.558 393.644 306.266 390.918 299.596 390.918C291.07 390.918 283.124 394.224 275.932 400.662L271.292 393.18C276.744 390.57 288.866 380.942 297.044 372.764C292.288 373.17 291.302 373.228 282.776 373.634C280.92 373.75 280.398 373.75 278.658 373.982ZM297.334 407.506C296.464 404.084 294.55 402.286 291.824 402.286C290.084 402.286 288.924 403.214 288.924 404.606C288.924 406.636 291.128 407.796 294.898 407.796C295.768 407.796 296 407.796 297.334 407.506ZM349.186 389.178H348.432H338.572C335.672 389.236 333.584 389.294 332.308 389.41C332.54 387.264 332.598 385.93 332.598 383.494V369.864C332.598 366.906 332.54 365.282 332.308 363.658C334.106 363.832 335.672 363.89 338.63 363.89H369.66C372.618 363.89 374.184 363.832 375.982 363.658C375.75 365.224 375.692 366.906 375.692 369.864V383.494C375.692 386.046 375.75 387.554 375.982 389.41C374.126 389.236 372.212 389.178 370.356 389.178H357.016C356.668 391.846 356.668 391.846 356.32 393.296H371.342C373.662 393.296 375.576 393.238 377.78 393.122C377.606 394.34 377.606 394.688 377.49 395.906C376.736 405.94 375.982 410.058 374.532 412.204C372.966 414.466 370.182 415.336 364.266 415.336C362.874 415.336 361.482 415.278 357.886 415.046C357.538 412.436 357.074 410.522 356.03 407.622C359.858 408.086 362.7 408.318 364.962 408.318C368.384 408.318 368.674 407.796 369.428 399.908H354.58C352.782 404.374 350.578 407.158 346.866 409.652C342.4 412.726 338.166 414.524 331.554 416.322C330.22 413.48 329.118 411.74 327.146 409.42C332.54 408.434 335.266 407.622 338.514 405.94C342.574 403.852 344.546 402.286 346.054 399.908H336.194C333.12 399.908 331.264 400.024 329.002 400.256V393.006C330.742 393.18 333.178 393.296 336.252 393.296H348.49C348.838 391.846 348.896 391.15 349.186 389.178ZM350.23 370.038H339.848V373.692H350.23V370.038ZM357.422 373.692H368.442V370.038H357.422V373.692ZM350.23 379.492H339.848V383.262H350.23V379.492ZM357.422 383.262H368.442V379.492H357.422V383.262ZM408.984 384.944V382.508C408.984 380.536 408.926 379.086 408.752 377.81H413.276C415.886 375.896 418.38 373.808 420.816 371.546H399.356C396.05 371.546 394.02 371.662 391.816 371.894V364.006C394.136 364.296 395.992 364.354 399.24 364.354H424.934C428.124 364.354 429.11 364.296 430.27 364.064L434.678 368.994C433.344 370.212 433.344 370.212 428.994 374.388C426.21 376.998 421.744 380.42 417.046 383.436V384.944H430.27C434.272 384.944 436.476 384.828 438.564 384.596V392.774C436.186 392.542 434.04 392.426 430.27 392.426H417.046V408.492C417.046 414.002 414.842 415.394 406.026 415.394C404.924 415.394 404.634 415.394 399.82 415.22C399.298 411.334 398.95 409.942 397.732 407.042C401.212 407.564 403.184 407.68 406.2 407.68C408.578 407.68 408.984 407.506 408.984 406.288V392.426H394.136C390.482 392.426 388.278 392.542 385.842 392.774V384.596C387.988 384.828 390.366 384.944 394.31 384.944H408.984ZM477.598 367.834L482.702 365.456C485.022 368.008 486.356 369.922 488.038 373.112L482.992 375.664C481.426 372.706 479.512 369.864 477.598 367.834ZM484.732 364.76L489.662 362.382C491.75 364.586 493.49 366.964 494.998 369.748L490.01 372.358C488.328 369.342 486.762 367.08 484.732 364.76ZM481.252 378.274L488.386 374.91C492.91 381.348 495.52 387.09 497.608 394.92L489.604 398.806C488.618 393.992 487.458 390.396 485.312 385.698C483.63 381.986 482.818 380.478 481.252 378.274ZM444.712 385.408L443.958 377.288C444.074 377.288 444.19 377.288 444.306 377.288C446.046 377.288 453.006 376.65 455.964 376.186C457.008 370.096 457.414 366.674 457.414 364.47C457.414 364.296 457.414 364.006 457.356 363.6L466.346 364.47C466.172 365.05 466.056 365.514 465.94 366.152C465.882 366.384 465.418 368.878 464.606 373.634C464.374 374.852 464.374 374.91 464.2 375.606C465.592 375.548 466.404 375.49 467.274 375.49C471.392 375.49 474.408 376.592 476.322 378.854C478.294 381.232 479.048 384.074 479.048 389.526C479.048 399.908 477.308 407.97 474.35 411.16C472.61 413.074 470.754 413.77 467.564 413.77C465.07 413.77 462.634 413.306 458.69 412.146C458.806 410.87 458.806 410.406 458.806 409.536C458.806 407.506 458.632 406.056 458.052 403.33C461.01 404.606 464.374 405.534 466.288 405.534C467.738 405.534 468.608 404.606 469.304 402.286C470.174 399.502 470.87 393.47 470.87 389.062C470.87 386.278 470.464 384.77 469.42 383.842C468.666 383.088 467.738 382.856 465.65 382.856C464.664 382.856 464.026 382.914 462.75 383.03C460.72 392.484 457.53 401.3 452.136 412.552C451.614 413.654 451.556 413.77 451.208 414.524L443.146 410.174C447.09 405.012 452.02 393.354 454.456 383.668C450.338 384.248 446.394 384.944 444.712 385.408ZM505.67 377.056L505.612 369.284C509.034 369.864 511.76 370.096 516.342 370.096C516.458 370.096 516.516 370.096 517.618 370.096C517.676 369.226 517.676 369.226 517.85 367.08C517.908 366.094 517.908 365.978 517.908 364.354C517.908 363.484 517.908 363.426 517.85 362.846L526.318 363.252C525.854 364.76 525.68 365.978 525.39 369.864C535.076 369.284 542.384 368.298 547.198 366.848L547.604 374.794C546.734 374.852 546.444 374.91 545.168 375.084C539.136 375.954 529.856 376.824 524.868 376.94C524.868 377.694 524.868 377.694 524.752 379.086C524.694 379.782 524.694 380.362 524.694 381.464C527.478 380.884 528.928 380.768 531.944 380.768C532.524 380.768 533.046 380.826 533.974 380.942C534.554 379.086 534.786 378.158 534.96 376.882L542.79 379.086C542.616 379.492 542.616 379.492 542.036 380.942C541.63 382.102 541.63 382.102 541.398 382.566C543.776 383.262 545.458 384.074 547.372 385.64C550.852 388.482 552.534 392.02 552.534 396.544C552.534 403.214 548.822 408.608 542.094 411.74C539.194 413.074 535.946 413.828 530.32 414.582C529.392 411.334 528.812 409.884 526.84 406.462C531.248 406.462 534.206 405.94 537.164 404.78C541.63 402.982 544.124 399.85 544.124 396.022C544.124 392.832 542.558 390.744 539.02 389.12C535.946 395.79 533.104 400.024 528.638 404.49C523.186 410 518.256 412.61 513.326 412.61C507.41 412.61 503.408 408.202 503.408 401.706C503.408 396.834 505.438 392.194 509.208 388.482C511.47 386.162 513.674 384.77 517.154 383.262C517.154 381.638 517.212 379.608 517.328 377.172C516.864 377.172 516.864 377.172 515.704 377.172C514.602 377.172 514.196 377.172 511.064 377.056C510.31 376.998 509.382 376.998 508.28 376.94C507.7 376.94 507.352 376.94 507.236 376.94C506.888 376.94 506.424 376.94 505.67 377.056ZM517.27 391.15C513.384 393.76 511.18 397.24 511.18 400.952C511.18 403.388 512.224 404.838 514.08 404.838C515.472 404.838 516.748 404.316 518.256 403.156C517.56 398.922 517.328 395.5 517.27 391.15ZM524.578 388.25C524.636 392.658 524.752 394.92 525.042 397.936C528.58 393.586 529.972 391.382 531.712 387.438C531.132 387.322 531.132 387.322 530.088 387.322C528.174 387.322 526.26 387.612 524.578 388.25ZM573.878 362.788L582.694 363.658C582.462 364.238 582.462 364.238 581.882 366.79C581.766 367.312 581.476 368.588 581.07 370.618C580.838 371.488 580.838 371.488 580.722 372.068C584.492 371.72 587.392 371.256 589.48 370.56L589.654 378.564C589.016 378.622 588.784 378.622 587.856 378.796C585.826 379.086 583.448 379.318 578.808 379.724C576.546 387.032 575.154 390.802 572.486 396.544C571.152 399.386 570.63 400.43 568.426 404.606C567.672 406.056 567.672 406.056 567.324 406.81L559.378 402.402C563.554 396.892 567.498 388.772 570.282 379.956C568.542 379.956 568.542 379.956 567.15 380.014C566.86 380.014 566.57 380.014 566.454 380.014C565.816 380.014 565.816 380.014 563.844 379.898C563.612 379.898 563.38 379.898 561.64 379.898V372.01C563.728 372.416 566.28 372.59 569.76 372.59C570.108 372.59 571.21 372.532 572.312 372.474C573.356 368.124 573.82 365.282 573.878 362.788ZM612.506 377.404L608.794 384.596C603.516 381.174 598.238 378.68 591.51 376.36L595.628 369.632C602.588 372.126 607.228 374.272 612.506 377.404ZM612.158 403.736L608.446 411.508C606.648 409.304 603.4 406.636 600.21 404.722C600.152 407.448 599.63 409.188 598.238 410.928C596.208 413.422 592.264 414.872 587.508 414.872C579.562 414.872 574.342 410.754 574.342 404.548C574.342 400.14 577.126 396.428 581.708 394.804C583.448 394.166 585.246 393.934 587.914 393.934C589.596 393.934 590.582 394.05 592.148 394.282C591.916 391.962 591.858 390.338 591.858 388.656C591.858 386.046 591.974 384.364 592.322 382.218L600.384 382.624C599.746 384.944 599.63 385.988 599.63 388.366C599.63 390.976 599.746 393.006 600.152 396.196C603.806 397.82 606.068 399.096 608.91 401.242C609.664 401.764 610.186 402.17 611.172 402.982C611.694 403.388 611.694 403.388 612.158 403.736ZM592.322 401.648C590.524 401.01 589.364 400.778 587.74 400.778C584.55 400.778 582.404 402.17 582.404 404.2C582.404 406.288 584.202 407.564 587.276 407.564C590.756 407.564 592.438 406.114 592.438 403.272C592.438 402.75 592.38 401.648 592.322 401.648ZM619.93 380.014L620.046 372.01C622.192 372.416 624.86 372.59 628.34 372.59C628.746 372.59 628.804 372.59 630.254 372.532C630.776 369.632 631.24 365.572 631.24 363.948C631.24 363.774 631.24 363.426 631.24 362.962L640.404 363.716C639.998 365.108 639.998 365.108 639.244 369.342C639.012 370.908 638.954 371.024 638.78 372.184C642.898 371.778 645.45 371.314 648.466 370.56L648.756 378.506C647.654 378.622 647.654 378.622 645.566 378.97C643.014 379.434 640.462 379.666 637.388 379.84C636.46 384.828 635.648 388.54 634.024 394.224C632.284 400.546 631.646 402.46 628.978 410.116C628.398 411.74 627.934 413.074 627.644 414.118L618.712 410.812C622.598 403.33 626.832 390.686 628.862 380.13H627.238L621.032 379.956C620.626 379.956 620.452 380.014 619.93 380.014ZM666.91 380.13L667.084 388.366C664.3 388.076 662.618 387.96 659.602 387.96C653.512 387.96 649.684 388.366 643.884 389.526L643.304 381.928C651.946 380.362 654.846 380.072 661.574 380.072C663.024 380.072 663.256 380.072 666.91 380.13ZM643.304 392.658L650.264 395.152C647.944 398.226 647.306 399.618 647.306 401.532C647.306 404.258 649.974 405.592 655.6 405.592C659.66 405.592 665.228 404.606 668.592 403.33L669.172 411.914C668.128 412.03 667.664 412.088 666.214 412.262C661.4 413.016 658.5 413.248 655.136 413.248C649.8 413.248 646.03 412.494 643.13 410.754C640.462 409.246 638.838 406.346 638.838 403.214C638.838 400.082 640.056 397.124 643.304 392.658ZM707.22 374.446C706.06 384.016 704.03 391.73 701.014 398.458C697.766 405.824 693.938 409.246 688.95 409.246C681.758 409.246 676.654 402.228 676.654 392.252C676.654 385.64 678.916 379.608 683.15 375.026C688.138 369.574 695.272 366.674 703.566 366.674C718.124 366.674 727.404 375.374 727.404 388.946C727.404 399.502 722.126 407.68 712.846 411.334C710.062 412.436 707.742 413.016 703.624 413.712C702.406 410.058 701.594 408.492 699.332 405.476C704.494 405.07 708.09 404.142 710.816 402.692C715.804 399.966 718.82 394.572 718.82 388.424C718.82 383.262 716.558 378.912 712.614 376.302C710.932 375.2 709.54 374.736 707.22 374.446ZM698.752 374.562C695.968 374.91 694.054 375.722 691.792 377.462C687.384 380.884 684.658 386.51 684.658 392.31C684.658 396.66 686.514 400.198 688.776 400.198C690.458 400.198 692.256 397.936 694.112 393.238C696.258 388.076 698.056 380.768 698.752 374.562ZM753.388 393.354V386.162C754.316 386.336 755.534 386.452 756.346 386.452C754.78 384.538 753.562 383.436 751.01 381.638C755.766 378.912 757.216 375.374 757.216 366.21C757.216 365.224 757.158 364.122 757.042 363.368C759.014 363.484 759.652 363.542 760.754 363.542H769.628C775.138 363.542 775.428 363.542 777.168 363.368C777.284 363.426 777.342 363.542 777.342 363.6C777.342 363.716 777.284 363.89 777.226 364.18C777.226 364.354 777.226 364.354 777.168 366.79V373.402C777.168 376.708 777.168 376.708 777.516 376.882C777.748 376.998 778.27 377.056 778.792 377.056C779.43 377.056 780.126 376.94 780.3 376.766C780.764 376.476 780.938 375.2 780.938 372.126C780.938 372.01 780.938 371.604 780.88 369.284C783.838 370.966 785.056 371.488 787.26 372.184C787.202 372.706 787.202 373.17 787.202 373.402C786.854 378.622 786.506 380.478 785.462 381.812C784.36 383.32 782.446 383.784 777.69 383.784C774.732 383.784 773.166 383.61 772.238 383.262C770.498 382.566 769.976 381.522 769.976 378.622V370.618H764.292C764.118 376.012 763.248 379.318 761.102 382.392C759.942 384.132 758.724 385.292 757.042 386.452H776.414C777.98 386.452 778.966 386.394 779.952 386.22L783.896 390.57C783.432 391.266 783.432 391.266 782.446 392.89C779.488 397.762 777.342 400.662 774.268 403.794C778.212 405.94 781.634 407.1 787.724 408.26C786.1 410.464 784.94 412.726 783.722 415.858C776.414 413.77 772.18 411.914 767.946 408.956C762.784 412.378 758.608 414.234 752.112 415.974C750.72 412.61 750.024 411.45 748.168 408.956C754.142 407.68 757.39 406.52 762.088 403.852C759.884 401.532 758.666 399.85 755.708 395.442L760.986 393.122H757.854C755.94 393.122 754.838 393.18 753.388 393.354ZM773.862 393.122H762.726C764.466 396.022 765.626 397.414 768.236 399.618C770.73 397.472 771.774 396.254 773.862 393.122ZM740.222 372.416V368.066C740.222 365.282 740.164 364.064 739.874 362.15H747.936C747.646 363.89 747.588 365.224 747.588 368.008V372.416H750.778C751.822 372.416 752.518 372.358 753.446 372.242V379.376C752.518 379.26 751.648 379.202 750.72 379.202H747.588V386.8C749.676 386.162 750.198 385.988 752.286 385.234V392.078C749.618 393.006 749.038 393.18 747.588 393.702V409.652C747.588 412.552 746.602 414.35 744.746 415.046C743.412 415.51 741.208 415.8 738.83 415.8C737.786 415.8 736.916 415.742 735.002 415.626C734.77 412.552 734.48 411.102 733.436 408.434C735.872 408.724 737.322 408.84 738.656 408.84C739.932 408.84 740.222 408.492 740.222 407.042V395.964C736.336 397.124 734.364 397.762 734.248 397.82L732.914 390.106C734.944 389.874 734.944 389.874 740.222 388.714V379.202H737.612C736.22 379.202 735.002 379.26 733.552 379.434V372.126C734.886 372.358 736.046 372.416 737.728 372.416H740.222ZM803.674 401.648H798.512C795.96 401.648 794.22 401.764 792.248 401.996V395.268C794.22 395.442 796.134 395.558 798.512 395.558H837.43C840.04 395.558 841.896 395.442 843.752 395.268V401.996C841.896 401.764 840.098 401.648 837.43 401.648H832.326C835.806 404.838 839.17 406.81 845.202 409.014C843.23 411.218 842.07 412.726 840.62 415.22C834.182 412.204 830.934 409.884 826.352 405.244L831.804 401.648H822.582V410.58C822.582 414.756 820.552 415.916 813.418 415.916C812.084 415.916 810.228 415.858 808.43 415.742C808.198 413.19 807.792 411.508 806.922 409.13C809.242 409.42 811.272 409.594 812.896 409.594C814.694 409.594 815.042 409.304 815.042 407.912V401.648H804.37L810.17 404.954C805.704 409.942 802.166 412.552 795.96 415.452C794.336 412.9 793.06 411.392 791.088 409.594C795.438 408.028 798.28 406.52 800.948 404.374C802.05 403.504 802.514 403.04 803.674 401.648ZM808.14 370.038H798.222C795.38 370.038 793.93 370.096 792.132 370.328V363.658C793.756 363.89 796.018 364.006 799.208 364.006H836.85C840.098 364.006 842.36 363.89 843.984 363.658V370.328C842.186 370.096 840.62 370.038 837.778 370.038H827.628V372.59H834.994C837.894 372.59 839.402 372.532 841.084 372.358C840.91 373.866 840.852 375.142 840.852 377.578V380.942C840.852 383.494 840.91 384.77 841.026 386.104C839.402 385.93 837.894 385.872 835.168 385.872H800.89C798.396 385.872 796.772 385.93 794.916 386.104C795.09 384.48 795.148 383.32 795.148 381V377.578C795.148 375.258 795.09 373.982 794.916 372.358C796.656 372.532 798.164 372.59 800.89 372.59H808.14V370.038ZM815.042 370.038V372.59H820.726V370.038H815.042ZM808.14 377.694H802.456V380.826H808.14V377.694ZM815.042 377.694V380.826H820.726V377.694H815.042ZM827.628 377.694V380.826H833.66V377.694H827.628ZM797.584 393.76V387.786C798.976 387.96 800.6 388.018 803.616 388.018H832.384C835.052 388.018 836.966 387.96 838.416 387.786V393.76C836.908 393.586 835.342 393.528 832.384 393.528H803.616C800.716 393.528 799.15 393.586 797.584 393.76ZM246.99 451.296L256.038 452.166C253.486 459.068 251.63 472.118 251.456 484.414C252.21 482.152 252.21 482.152 252.5 481.456L253.602 478.672L258.706 480.76C255.632 487.488 253.95 493.636 253.95 498.218C253.95 498.798 253.95 499.088 254.008 499.9L245.598 500.306C245.54 499.262 245.482 498.798 245.308 497.464C244.206 490.098 243.8 485.4 243.8 479.774C243.8 472.582 244.496 465.564 246.062 457.096C246.758 453.5 246.816 452.978 246.99 451.296ZM261.316 465.332L261.432 456.98C264.274 457.734 267.29 457.966 272.568 457.966C278.948 457.966 284.748 457.386 288.46 456.4L288.866 464.81C288.344 464.81 288.286 464.81 287.648 464.868C282.892 465.506 277.092 465.912 272.278 465.912C268.624 465.912 266.536 465.796 262.94 465.448C262.65 465.39 262.186 465.39 261.316 465.332ZM265.144 473.974L272.104 477.048C269.378 480.47 268.044 483.08 268.044 485.226C268.044 488.126 271.002 489.75 276.338 489.75C281.384 489.75 286.43 488.938 290.432 487.488L291.012 496.246C290.084 496.362 289.736 496.42 288.46 496.594C283.356 497.406 280.282 497.696 276.28 497.696C268.914 497.696 264.1 495.956 261.49 492.302C260.388 490.736 259.75 488.532 259.75 486.386C259.75 482.732 261.548 478.556 265.144 473.974ZM312.298 496.942V484.704C308.644 486.618 306.324 487.72 302.09 489.46C300.814 486.56 299.828 485.11 297.682 482.616C304.584 480.644 311.196 477.628 317.634 473.626C315.372 471.19 313.748 469.74 310.442 467.246C308.122 468.928 306.498 469.914 303.018 471.828C301.568 469.16 300.408 467.768 298.436 466.028C303.424 463.65 307.658 460.808 311.602 457.27C314.734 454.486 317.17 451.412 318.91 448.048L327.088 449.904C326.044 451.47 325.754 451.876 324.42 453.616H335.904C337.992 453.616 339.442 453.558 340.892 453.326L345.01 457.502C344.198 458.488 344.14 458.488 342.806 460.228C337.992 466.434 333.004 471.19 326.102 476.178H343.56C346.054 476.178 347.33 476.12 348.722 476.004C348.49 477.628 348.432 479.252 348.432 481.63V497C348.432 499.552 348.548 501.292 348.78 502.974H340.95V499.9H319.838V502.974H311.95C312.182 501.118 312.298 499.32 312.298 496.942ZM332.83 460.344H318.562C317.286 461.562 316.88 461.968 315.778 462.954C320.012 465.97 320.36 466.26 323.55 469.334C327.784 465.97 329.988 463.824 332.83 460.344ZM319.78 482.964V493.346H341.066V482.964H319.78ZM363.396 455.994H370.704C369.486 453.848 368.848 452.862 366.76 450.426L374.416 448.454C376.62 451.47 377.838 453.384 379.172 455.994H386.712C388.742 453.5 389.844 451.586 391.12 448.512L399.066 450.484C397.732 452.63 396.456 454.486 395.18 455.994H402.72C405.678 455.994 407.302 455.878 409.1 455.646V463.012C407.302 462.78 405.852 462.722 402.72 462.722H363.396C360.438 462.722 358.872 462.78 357.016 463.012V455.646C359.162 455.936 360.496 455.994 363.396 455.994ZM367.05 490.968V496.536C367.05 499.494 367.108 500.944 367.34 502.8H359.51C359.8 500.654 359.858 498.972 359.858 496.014V470.726C359.858 467.942 359.8 466.898 359.626 465.506C361.308 465.622 362.816 465.68 365.02 465.68H377.664C380.448 465.68 381.55 465.622 382.768 465.506C382.652 466.898 382.594 468.174 382.594 471.132V496.188C382.594 501.234 381.144 502.394 374.996 502.394C374.532 502.394 373.662 502.394 371.69 502.278C371.226 499.03 370.994 498.276 370.066 495.724C372.038 496.014 372.734 496.072 374.068 496.072C375.228 496.072 375.46 495.782 375.46 494.506V490.968H367.05ZM367.05 484.878H375.46V481.456H367.05V484.878ZM367.05 475.366H375.46V472.06H367.05V475.366ZM386.944 466.608H394.658C394.484 468.232 394.426 469.45 394.426 472.176V484.878C394.426 488.242 394.484 489.286 394.658 491.026H386.944C387.118 489.17 387.176 488.126 387.176 484.936V472.118C387.176 469.566 387.118 468.406 386.944 466.608ZM398.602 465.1H406.548C406.316 466.782 406.258 468.464 406.258 471.19V495.26C406.258 498.102 405.91 499.668 404.924 500.654C403.648 502.046 401.792 502.51 397.906 502.51C396.224 502.51 395.876 502.51 391.468 502.336C391.004 499.494 390.54 497.928 389.38 495.144C392.338 495.492 394.542 495.666 396.224 495.666C398.544 495.666 398.892 495.434 398.892 493.926V471.016C398.892 467.942 398.834 466.782 398.602 465.1ZM417.858 463.534L417.974 455.704C420.12 456.226 423.832 456.458 428.588 456.458C428.936 456.458 429.342 456.458 429.748 456.458C430.386 456.458 430.676 456.458 430.908 456.458C430.966 456.458 431.256 456.458 431.488 456.458C432.938 452.978 433.344 451.586 433.576 449.672L442.566 450.484C442.16 451.122 442.16 451.122 440.42 455.298C440.188 455.82 440.188 455.878 439.956 456.342C440.826 456.226 441 456.226 443.552 456.11C450.454 455.704 455.21 455.066 458.516 454.196L458.864 462.026C457.066 462.2 457.066 462.2 454.282 462.49C450.048 463.012 442.508 463.476 436.65 463.65C435.548 465.68 434.736 466.898 432.88 469.392C435.896 467.71 437.984 467.13 440.884 467.13C445.582 467.13 448.482 469.102 449.526 472.988C450.048 472.814 451.092 472.466 452.6 471.944C454.862 471.132 455.152 471.016 457.762 470.146C461.068 469.044 461.3 468.986 462.286 468.406L465.36 476.294C463.678 476.526 461.764 476.932 458.806 477.802C457.414 478.15 457.414 478.15 450.396 480.528L450.454 482.442V483.486C450.454 483.718 450.454 484.298 450.454 485.168C450.454 485.632 450.454 486.038 450.454 486.386C450.454 488.126 450.512 489.112 450.628 490.272L442.566 490.504C442.798 489.402 442.914 486.85 442.914 483.776C442.914 483.718 442.914 483.544 442.856 483.312C440.478 484.414 439.318 485.052 438.216 485.806C436.418 487.082 435.49 488.532 435.49 489.982C435.49 492.65 437.984 493.694 444.306 493.694C451.324 493.694 457.588 492.766 462.112 491.084L462.75 499.958C461.648 500.016 461.416 500.016 459.85 500.248C454.978 500.944 449.816 501.292 444.944 501.292C436.418 501.292 431.604 500.016 428.936 497C427.486 495.376 426.674 493.114 426.674 490.736C426.674 487.14 428.994 483.544 433.402 480.354C435.316 478.962 437.868 477.628 441.87 475.888C441.58 474.322 440.594 473.568 438.912 473.568C435.78 473.568 431.836 475.54 427.486 479.31C425.108 481.398 423.658 482.964 422.208 484.878L415.944 478.672C419.192 476.294 424.238 470.262 427.254 465.1C427.776 464.114 427.834 464.056 428.124 463.65C424.876 463.65 424.412 463.65 422.73 463.592C421.628 463.534 420.7 463.534 420.526 463.534C420.004 463.534 419.656 463.534 419.54 463.476C419.076 463.476 418.728 463.476 418.728 463.476C418.496 463.476 418.206 463.476 417.858 463.534ZM495.056 454.196H500.044C501.204 452.456 502.19 450.484 502.944 448.512L511.064 449.556C510.02 451.354 509.382 452.398 508.222 454.196H517.56C519.358 454.196 520.576 454.138 521.736 453.964C521.62 455.24 521.562 456.574 521.562 458.082V466.492C521.562 468.58 521.62 469.856 521.736 471.016C520.112 470.9 519.358 470.9 517.85 470.9H498.072V474.264H519.3C521.272 474.264 522.142 474.206 523.244 474.09C523.128 475.424 523.07 476.526 523.07 478.382V487.778C523.07 489.286 523.128 490.562 523.244 491.838C522.026 491.722 520.808 491.664 519.358 491.664H494.708C493.026 491.664 491.866 491.722 490.59 491.838C490.706 490.62 490.764 489.286 490.764 487.778V458.082C490.764 456.748 490.706 455.414 490.532 453.964C492.04 454.138 493.432 454.196 495.056 454.196ZM498.072 460.634V464.752H514.254V460.634H498.072ZM498.072 480.644V485.168H515.762V480.644H498.072ZM472.146 454.718L477.714 449.556C482.412 453.732 484.326 455.704 487.922 460.344L482.122 466.028C478.526 461.098 476.206 458.43 472.146 454.718ZM472.378 478.44V470.784C474.002 471.016 474.814 471.074 477.134 471.074H482.238C484.036 471.074 485.254 471.016 486.646 470.842C486.472 472.64 486.414 473.916 486.414 477.222V489.75C487.226 491.316 488.038 492.186 489.488 493.056C491.75 494.448 495.114 494.97 502.306 494.97C513.848 494.97 520.982 494.68 526.898 494.042C525.738 497.29 525.39 498.74 524.984 501.814C517.502 502.046 515.878 502.046 507.526 502.046C497.086 502.046 493.142 501.698 489.778 500.538C487.226 499.61 485.138 498.16 482.934 495.608C480.614 497.812 478.584 499.61 476.554 501.118C475.742 501.698 474.756 502.452 474.408 502.742L471.218 494.796C473.074 494.1 476.206 492.07 479.222 489.634V478.15H476.264C474.814 478.15 473.886 478.208 472.378 478.44ZM546.386 458.546H551.374C554.39 458.546 556.188 458.488 558.044 458.314C557.812 460.402 557.812 460.402 557.754 468.696C557.58 481.862 557.058 490.04 555.956 494.97C554.854 499.842 552.882 501.466 548.068 501.466C546.676 501.466 544.762 501.35 542.442 501.118C542.268 497.986 542.036 496.768 541.108 493.81C543.312 494.216 545.11 494.448 546.386 494.448C547.778 494.448 548.242 494.042 548.706 492.36C549.286 490.33 549.808 485.516 550.098 479.6C550.33 474.496 550.33 474.264 550.446 465.738H546.096C545.516 474.322 544.646 480.122 542.906 486.154C541.166 492.302 538.788 497.116 534.612 502.858C532.756 499.784 531.248 497.812 528.986 495.666C532.292 491.548 534.38 487.662 535.946 482.558C537.454 477.57 538.266 472.582 538.73 465.738H536.236C533.742 465.738 532.234 465.796 530.552 466.028V458.198C532.118 458.43 533.916 458.546 536.932 458.546H539.02C539.078 456.98 539.078 456.98 539.078 454.254C539.078 451.934 538.962 450.484 538.73 448.976H546.85C546.618 450.368 546.618 450.368 546.386 458.546ZM568.02 497.348V501.698H560.364C560.596 499.958 560.712 497.696 560.712 494.97V460.518C560.712 457.85 560.654 456.284 560.422 454.428C562.162 454.602 563.438 454.66 565.758 454.66H577.3C579.794 454.66 581.128 454.602 582.694 454.428C582.462 456.342 582.404 457.85 582.404 460.518V494.68C582.404 497.754 582.462 499.552 582.752 501.466H574.98V497.348H568.02ZM568.02 461.62V490.446H574.98V461.62H568.02ZM596.962 451.47L606.648 451.644C606.068 455.066 605.372 470.552 605.372 480.586C605.372 486.212 605.662 488.184 606.764 489.808C607.982 491.664 610.592 492.708 614.014 492.708C620.162 492.708 624.918 489.228 627.528 482.848C628.746 479.774 629.442 477.048 629.964 472.756C633.734 475.714 635.01 476.526 638.432 478.034C636.112 486.328 634.314 490.272 631.298 493.636C626.832 498.566 620.974 501.06 613.55 501.06C609.258 501.06 605.43 500.132 602.82 498.45C600.384 496.826 598.528 494.332 597.6 491.432C597.078 489.576 596.73 486.56 596.73 483.138C596.73 480.528 596.788 476.758 596.962 469.102C597.136 461.098 597.194 457.56 597.194 455.82C597.194 453.906 597.136 453.094 596.962 451.47ZM696.838 491.316L692.14 499.32C690.98 498.044 690.69 497.754 689.414 496.652C686.108 493.868 682.28 491.374 678.974 489.982C679.032 490.388 679.032 490.736 679.032 490.91C679.032 497.58 674.624 500.77 665.344 500.77C656.528 500.77 651.54 497.232 651.54 490.968C651.54 484.472 657.746 480.586 668.07 480.586C669.056 480.586 669.752 480.644 670.97 480.702L670.854 476.062C669.23 476.062 666.968 476.12 665.75 476.12C661.98 476.12 660.008 476.062 654.73 475.772C653.918 475.714 653.396 475.714 652.41 475.714L652.468 468.29C655.02 468.87 660.53 469.218 665.924 469.218C667.142 469.218 669.172 469.218 670.738 469.16L670.68 465.796C670.68 465.158 670.68 464.694 670.68 464.346C669.172 464.404 668.476 464.404 667.606 464.404C665.402 464.404 660.472 464.23 652.932 463.824C652.236 463.766 651.714 463.766 651.482 463.766C651.308 463.766 650.96 463.766 650.554 463.824L650.67 456.11C653.86 456.922 659.834 457.386 666.562 457.386C667.258 457.386 669.056 457.328 670.564 457.27C670.564 452.92 670.506 452.456 670.216 450.426H678.974C678.626 452.05 678.626 452.514 678.51 456.98C686.34 456.574 691.154 455.936 695.156 454.892L695.388 462.49C693.996 462.548 693.996 462.548 690.574 463.012C686.05 463.592 682.396 463.94 678.452 464.114C678.51 466.376 678.51 467.942 678.51 468.87C685.354 468.464 689.994 467.884 693.764 466.898L693.996 474.496C693.532 474.496 693.532 474.496 692.778 474.612C692.662 474.612 692.314 474.67 691.792 474.67C690.98 474.786 690.98 474.786 687.5 475.134C684.716 475.424 680.946 475.714 678.626 475.83C678.684 478.962 678.8 480.992 678.8 481.862C684.252 483.486 688.254 485.516 694.692 489.924C695.62 490.562 695.968 490.794 696.838 491.316ZM671.028 488.068C669.346 487.662 668.418 487.546 666.794 487.546C662.734 487.546 660.24 488.822 660.24 490.91C660.24 492.708 662.27 493.81 665.692 493.81C669.636 493.81 671.086 492.592 671.086 489.228C671.086 488.764 671.028 488.068 671.028 488.068ZM712.962 451.47L722.648 451.644C722.068 455.066 721.372 470.552 721.372 480.586C721.372 486.212 721.662 488.184 722.764 489.808C723.982 491.664 726.592 492.708 730.014 492.708C736.162 492.708 740.918 489.228 743.528 482.848C744.746 479.774 745.442 477.048 745.964 472.756C749.734 475.714 751.01 476.526 754.432 478.034C752.112 486.328 750.314 490.272 747.298 493.636C742.832 498.566 736.974 501.06 729.55 501.06C725.258 501.06 721.43 500.132 718.82 498.45C716.384 496.826 714.528 494.332 713.6 491.432C713.078 489.576 712.73 486.56 712.73 483.138C712.73 480.528 712.788 476.758 712.962 469.102C713.136 461.098 713.194 457.56 713.194 455.82C713.194 453.906 713.136 453.094 712.962 451.47ZM764.93 467.014L765.046 459.01C767.192 459.416 769.86 459.59 773.34 459.59C773.746 459.59 773.804 459.59 775.254 459.532C775.776 456.632 776.24 452.572 776.24 450.948C776.24 450.774 776.24 450.426 776.24 449.962L785.404 450.716C784.998 452.108 784.998 452.108 784.244 456.342C784.012 457.908 783.954 458.024 783.78 459.184C787.898 458.778 790.45 458.314 793.466 457.56L793.756 465.506C792.654 465.622 792.654 465.622 790.566 465.97C788.014 466.434 785.462 466.666 782.388 466.84C781.46 471.828 780.648 475.54 779.024 481.224C777.284 487.546 776.646 489.46 773.978 497.116C773.398 498.74 772.934 500.074 772.644 501.118L763.712 497.812C767.598 490.33 771.832 477.686 773.862 467.13H772.238L766.032 466.956C765.626 466.956 765.452 467.014 764.93 467.014ZM811.91 467.13L812.084 475.366C809.3 475.076 807.618 474.96 804.602 474.96C798.512 474.96 794.684 475.366 788.884 476.526L788.304 468.928C796.946 467.362 799.846 467.072 806.574 467.072C808.024 467.072 808.256 467.072 811.91 467.13ZM788.304 479.658L795.264 482.152C792.944 485.226 792.306 486.618 792.306 488.532C792.306 491.258 794.974 492.592 800.6 492.592C804.66 492.592 810.228 491.606 813.592 490.33L814.172 498.914C813.128 499.03 812.664 499.088 811.214 499.262C806.4 500.016 803.5 500.248 800.136 500.248C794.8 500.248 791.03 499.494 788.13 497.754C785.462 496.246 783.838 493.346 783.838 490.214C783.838 487.082 785.056 484.124 788.304 479.658Z" fill="#1E1E1E"/>
<path d="M1007.42 346.03C1033.02 346.03 1053.76 325.281 1053.76 299.687C1053.76 274.092 1033.02 253.343 1007.42 253.343C981.827 253.343 961.078 274.092 961.078 299.687C961.078 325.281 981.827 346.03 1007.42 346.03Z" stroke="#1E1E1E" stroke-width="17.01"/>
<path d="M1007.42 346.03C1033.02 346.03 1053.76 325.281 1053.76 299.687C1053.76 274.092 1033.02 253.343 1007.42 253.343C981.827 253.343 961.078 274.092 961.078 299.687C961.078 325.281 981.827 346.03 1007.42 346.03Z" fill="#F4B63F"/>
</g>
<defs>
<linearGradient id="paint0_linear_309_1581" x1="129.302" y1="34.623" x2="895.429" y2="677.493" gradientUnits="userSpaceOnUse">
<stop stop-color="#EAE9EA"/>
<stop offset="0.14" stop-color="#D1D0D1"/>
<stop offset="0.4" stop-color="#AAA9AA"/>
<stop offset="0.64" stop-color="#8D8C8D"/>
<stop offset="0.85" stop-color="#7C7B7C"/>
<stop offset="1" stop-color="#767576"/>
</linearGradient>
<clipPath id="clip0_309_1581">
<rect width="1072.18" height="617.673" fill="white" transform="translate(0 0.650879)"/>
</clipPath>
</defs>
</svg>
