<svg width="21" height="20" viewBox="0 0 21 20" fill="none" xmlns="http://www.w3.org/2000/svg">
<g clip-path="url(#clip0_1017_10090)">
<path d="M10.0234 1.80078C12.6953 1.80078 13.0117 1.8125 14.0625 1.85937C15.0391 1.90234 15.5664 2.06641 15.918 2.20313C16.3828 2.38281 16.7188 2.60156 17.0664 2.94922C17.418 3.30078 17.6328 3.63281 17.8125 4.09766C17.9492 4.44922 18.1133 4.98047 18.1563 5.95313C18.2031 7.00781 18.2148 7.32422 18.2148 9.99219C18.2148 12.6641 18.2031 12.9805 18.1563 14.0313C18.1133 15.0078 17.9492 15.5352 17.8125 15.8867C17.6328 16.3516 17.4141 16.6875 17.0664 17.0352C16.7148 17.3867 16.3828 17.6016 15.918 17.7813C15.5664 17.918 15.0352 18.082 14.0625 18.125C13.0078 18.1719 12.6914 18.1836 10.0234 18.1836C7.35156 18.1836 7.03516 18.1719 5.98438 18.125C5.00781 18.082 4.48047 17.918 4.12891 17.7813C3.66406 17.6016 3.32813 17.3828 2.98047 17.0352C2.62891 16.6836 2.41406 16.3516 2.23438 15.8867C2.09766 15.5352 1.93359 15.0039 1.89063 14.0313C1.84375 12.9766 1.83203 12.6602 1.83203 9.99219C1.83203 7.32031 1.84375 7.00391 1.89063 5.95313C1.93359 4.97656 2.09766 4.44922 2.23438 4.09766C2.41406 3.63281 2.63281 3.29688 2.98047 2.94922C3.33203 2.59766 3.66406 2.38281 4.12891 2.20313C4.48047 2.06641 5.01172 1.90234 5.98438 1.85937C7.03516 1.8125 7.35156 1.80078 10.0234 1.80078ZM10.0234 0C7.30859 0 6.96875 0.0117187 5.90234 0.0585938C4.83984 0.105469 4.10938 0.277344 3.47656 0.523437C2.81641 0.78125 2.25781 1.12109 1.70313 1.67969C1.14453 2.23438 0.804688 2.79297 0.546875 3.44922C0.300781 4.08594 0.128906 4.8125 0.0820313 5.875C0.0351563 6.94531 0.0234375 7.28516 0.0234375 10C0.0234375 12.7148 0.0351563 13.0547 0.0820313 14.1211C0.128906 15.1836 0.300781 15.9141 0.546875 16.5469C0.804688 17.207 1.14453 17.7656 1.70313 18.3203C2.25781 18.875 2.81641 19.2188 3.47266 19.4727C4.10938 19.7188 4.83594 19.8906 5.89844 19.9375C6.96484 19.9844 7.30469 19.9961 10.0195 19.9961C12.7344 19.9961 13.0742 19.9844 14.1406 19.9375C15.2031 19.8906 15.9336 19.7188 16.5664 19.4727C17.2227 19.2188 17.7813 18.875 18.3359 18.3203C18.8906 17.7656 19.2344 17.207 19.4883 16.5508C19.7344 15.9141 19.9063 15.1875 19.9531 14.125C20 13.0586 20.0117 12.7188 20.0117 10.0039C20.0117 7.28906 20 6.94922 19.9531 5.88281C19.9063 4.82031 19.7344 4.08984 19.4883 3.45703C19.2422 2.79297 18.9023 2.23438 18.3438 1.67969C17.7891 1.125 17.2305 0.78125 16.5742 0.527344C15.9375 0.28125 15.2109 0.109375 14.1484 0.0625C13.0781 0.0117188 12.7383 0 10.0234 0Z" fill="white"/>
<path d="M10.0234 4.86328C7.1875 4.86328 4.88672 7.16406 4.88672 10C4.88672 12.8359 7.1875 15.1367 10.0234 15.1367C12.8594 15.1367 15.1602 12.8359 15.1602 10C15.1602 7.16406 12.8594 4.86328 10.0234 4.86328ZM10.0234 13.332C8.18359 13.332 6.69141 11.8398 6.69141 10C6.69141 8.16016 8.18359 6.66797 10.0234 6.66797C11.8633 6.66797 13.3555 8.16016 13.3555 10C13.3555 11.8398 11.8633 13.332 10.0234 13.332Z" fill="white"/>
<path d="M16.5625 4.66016C16.5625 5.32422 16.0234 5.85938 15.3633 5.85938C14.6992 5.85938 14.1641 5.32032 14.1641 4.66016C14.1641 3.99609 14.7031 3.46094 15.3633 3.46094C16.0234 3.46094 16.5625 4 16.5625 4.66016Z" fill="white"/>
</g>
<defs>
<clipPath id="clip0_1017_10090">
<rect width="20" height="20" fill="white" transform="translate(0.0234375)"/>
</clipPath>
</defs>
</svg>
