<svg width="1284" height="2778" viewBox="0 0 1284 2778" fill="none" xmlns="http://www.w3.org/2000/svg">
<rect width="1284" height="2778" fill="white"/>
<path d="M310.415 2066.54C308.696 2066.54 307.202 2065.91 305.931 2064.64C304.661 2063.37 304.026 2061.87 304.026 2060.15V2058.36C304.026 2056.64 304.661 2055.15 305.931 2053.88C307.202 2052.61 308.696 2051.97 310.415 2051.97H313.665C314.263 2051.97 314.562 2051.67 314.562 2051.08V2040.88C314.562 2039.16 315.197 2037.66 316.467 2036.39C317.738 2035.12 319.232 2034.49 320.951 2034.49H325.21C326.928 2034.49 328.423 2035.12 329.693 2036.39C330.963 2037.66 331.598 2039.16 331.598 2040.88V2051.08C331.598 2051.67 331.897 2051.97 332.495 2051.97H333.952C335.671 2051.97 337.128 2052.61 338.323 2053.88C339.594 2055.15 340.229 2056.64 340.229 2058.36V2060.15C340.229 2061.87 339.594 2063.37 338.323 2064.64C337.128 2065.91 335.671 2066.54 333.952 2066.54H332.495C331.897 2066.54 331.598 2066.88 331.598 2067.55V2085.82C331.598 2086.42 331.897 2086.64 332.495 2086.49C332.57 2086.42 332.719 2086.38 332.943 2086.38C333.168 2086.38 333.317 2086.34 333.392 2086.27C334.961 2085.82 336.455 2086.05 337.875 2086.94C338.473 2087.32 338.772 2087.2 338.772 2086.61C338.847 2084.89 339.482 2083.43 340.677 2082.23C341.873 2080.96 343.33 2080.33 345.048 2080.33H345.609C345.758 2080.33 345.87 2080.25 345.945 2080.11C346.02 2079.96 345.983 2079.81 345.833 2079.66L341.462 2075.17C340.266 2073.9 339.706 2072.41 339.781 2070.69C339.855 2068.97 340.453 2067.4 341.574 2065.98C343.816 2063.29 345.347 2060.3 346.169 2057.02C346.991 2053.73 347.402 2049.13 347.402 2043.23C347.402 2041.51 348.037 2040.05 349.308 2038.86C350.578 2037.59 352.072 2036.95 353.791 2036.95H384.614C386.333 2036.95 387.79 2037.59 388.985 2038.86C390.255 2040.13 390.891 2041.62 390.891 2043.34V2061.95C390.891 2062.77 391.003 2063.29 391.227 2063.52C391.451 2063.67 392.123 2063.74 393.244 2063.74C394.44 2063.74 395.187 2063.4 395.486 2062.73C395.86 2062.06 396.196 2060 396.495 2056.57C396.569 2054.92 397.279 2053.58 398.624 2052.53C399.969 2051.41 401.464 2051 403.108 2051.3C404.826 2051.6 406.209 2052.46 407.255 2053.88C408.376 2055.22 408.899 2056.79 408.824 2058.59C408.674 2061.05 408.525 2063.07 408.376 2064.64C408.226 2066.21 407.927 2067.74 407.479 2069.23C407.031 2070.65 406.657 2071.77 406.358 2072.6C406.059 2073.34 405.387 2074.05 404.341 2074.73C403.369 2075.4 402.547 2075.88 401.875 2076.18C401.202 2076.41 399.932 2076.63 398.064 2076.85C396.196 2077 394.589 2077.08 393.244 2077.08C391.899 2077.08 389.77 2077.08 386.856 2077.08C381.251 2077.08 377.702 2076.63 376.208 2075.73C374.713 2074.84 373.966 2072.86 373.966 2069.79V2052.42C373.966 2051.75 373.63 2051.41 372.957 2051.41H364.439C363.766 2051.41 363.43 2051.79 363.43 2052.53C363.206 2058.44 362.16 2063.52 360.292 2067.78C358.424 2072.04 355.584 2076 351.773 2079.66C351.624 2079.81 351.587 2079.96 351.661 2080.11C351.736 2080.25 351.848 2080.33 351.998 2080.33H396.046C397.765 2080.33 399.259 2080.96 400.53 2082.23C401.8 2083.51 402.435 2085 402.435 2086.72V2094.12C402.435 2094.41 402.286 2094.56 401.987 2094.56C402.286 2094.64 402.323 2094.9 402.099 2095.35C398.064 2102.75 393.095 2109.02 387.192 2114.18C386.743 2114.63 386.781 2114.96 387.304 2115.19C391.414 2116.98 396.532 2118.74 402.659 2120.46C404.303 2120.9 405.499 2121.87 406.246 2123.37C407.068 2124.86 407.18 2126.4 406.582 2127.96L405.461 2130.65C404.789 2132.37 403.631 2133.64 401.987 2134.47C400.343 2135.36 398.624 2135.55 396.831 2135.03C388.387 2132.78 380.131 2129.57 372.061 2125.39C371.612 2125.09 371.014 2125.09 370.267 2125.39C363.766 2128.75 355.622 2131.89 345.833 2134.8C344.114 2135.32 342.396 2135.18 340.677 2134.35C339.033 2133.61 337.838 2132.41 337.091 2130.77L335.633 2127.74C334.961 2126.25 334.961 2124.79 335.633 2123.37C336.381 2121.87 337.539 2120.94 339.108 2120.57C344.264 2119.22 349.532 2117.5 354.912 2115.41C355.136 2115.34 355.248 2115.19 355.248 2114.96C355.323 2114.66 355.285 2114.48 355.136 2114.4C351.923 2111.71 349.42 2109.43 347.626 2107.57C346.431 2106.3 345.945 2104.8 346.169 2103.08C346.393 2101.36 347.215 2099.98 348.635 2098.94L353.679 2095.12C353.828 2094.97 353.866 2094.86 353.791 2094.79C353.716 2094.64 353.604 2094.56 353.455 2094.56H345.048C343.778 2094.56 342.583 2094.19 341.462 2093.44C341.163 2093.29 340.939 2093.41 340.789 2093.78C340.864 2095.5 340.378 2097.07 339.332 2098.49C338.361 2099.91 337.091 2100.84 335.521 2101.29C335.223 2101.36 334.737 2101.51 334.064 2101.74C333.392 2101.89 332.906 2102 332.607 2102.07C331.935 2102.22 331.598 2102.63 331.598 2103.31V2116.2C331.598 2119.63 331.561 2122.36 331.486 2124.38C331.412 2126.32 331.15 2128.11 330.702 2129.76C330.253 2131.48 329.73 2132.71 329.133 2133.46C328.535 2134.2 327.563 2134.84 326.218 2135.36C324.873 2135.89 323.454 2136.18 321.959 2136.26C320.54 2136.41 318.522 2136.48 315.907 2136.48C314.412 2136.48 313.067 2136.45 311.872 2136.37C310.078 2136.22 308.509 2135.51 307.164 2134.24C305.819 2132.97 305.109 2131.44 305.035 2129.65V2128.19C304.96 2126.55 305.483 2125.13 306.604 2123.93C307.799 2122.73 309.257 2122.21 310.975 2122.36C311.349 2122.36 311.797 2122.4 312.32 2122.47C312.843 2122.47 313.142 2122.47 313.217 2122.47C313.889 2122.47 314.263 2122.29 314.338 2121.91C314.487 2121.54 314.562 2120.19 314.562 2117.88V2107.34C314.562 2107.12 314.487 2106.93 314.338 2106.78C314.188 2106.56 314.001 2106.48 313.777 2106.56C312.806 2106.86 311.984 2107.04 311.311 2107.12C309.668 2107.42 308.173 2107.04 306.828 2106C305.483 2104.95 304.736 2103.57 304.586 2101.85L304.362 2099.05C304.288 2097.25 304.811 2095.68 305.931 2094.34C307.052 2092.92 308.472 2092.02 310.191 2091.65L313.553 2090.98C314.226 2090.83 314.562 2090.45 314.562 2089.86V2067.55C314.562 2066.88 314.263 2066.54 313.665 2066.54H310.415ZM357.714 2094.56C357.564 2094.56 357.415 2094.68 357.266 2094.9C357.191 2095.05 357.228 2095.2 357.378 2095.35C360.964 2099.38 365.261 2103.04 370.267 2106.33C370.716 2106.71 371.201 2106.71 371.724 2106.33C376.357 2103.04 380.243 2099.42 383.381 2095.46C383.755 2094.86 383.643 2094.56 383.045 2094.56H357.714ZM426.085 2050.96C424.366 2050.96 422.872 2050.33 421.601 2049.06C420.331 2047.79 419.696 2046.29 419.696 2044.57V2043.68C419.696 2041.96 420.331 2040.47 421.601 2039.19C422.872 2037.92 424.366 2037.29 426.085 2037.29H513.061C514.78 2037.29 516.274 2037.92 517.545 2039.19C518.815 2040.47 519.45 2041.96 519.45 2043.68V2044.57C519.45 2046.29 518.815 2047.79 517.545 2049.06C516.274 2050.33 514.78 2050.96 513.061 2050.96H492.998C492.401 2050.96 492.102 2051.26 492.102 2051.86V2054.33C492.102 2054.92 492.401 2055.22 492.998 2055.22H509.138C510.857 2055.22 512.352 2055.86 513.622 2057.13C514.892 2058.4 515.527 2059.89 515.527 2061.61V2075.17C515.527 2076.89 514.892 2078.39 513.622 2079.66C512.352 2080.85 510.857 2081.45 509.138 2081.45H438.526H430.008C428.289 2081.45 426.795 2080.85 425.524 2079.66C424.254 2078.39 423.619 2076.89 423.619 2075.17V2061.61C423.619 2059.89 424.254 2058.4 425.524 2057.13C426.795 2055.86 428.289 2055.22 430.008 2055.22H446.148C446.745 2055.22 447.044 2054.92 447.044 2054.33V2051.86C447.044 2051.26 446.745 2050.96 446.148 2050.96H426.085ZM491.766 2065.98V2070.24C491.766 2070.91 492.064 2071.25 492.662 2071.25H499.611C500.284 2071.25 500.62 2070.91 500.62 2070.24V2065.98C500.62 2065.38 500.284 2065.09 499.611 2065.09H492.662C492.064 2065.09 491.766 2065.38 491.766 2065.98ZM464.417 2051.86V2054.33C464.417 2054.92 464.753 2055.22 465.426 2055.22H473.72C474.393 2055.22 474.729 2054.92 474.729 2054.33V2051.86C474.729 2051.26 474.393 2050.96 473.72 2050.96H465.426C464.753 2050.96 464.417 2051.26 464.417 2051.86ZM464.081 2065.98V2070.24C464.081 2070.91 464.38 2071.25 464.978 2071.25H474.168C474.766 2071.25 475.065 2070.91 475.065 2070.24V2065.98C475.065 2065.38 474.766 2065.09 474.168 2065.09H464.978C464.38 2065.09 464.081 2065.38 464.081 2065.98ZM447.381 2065.98C447.381 2065.38 447.082 2065.09 446.484 2065.09H439.535C438.862 2065.09 438.526 2065.38 438.526 2065.98V2070.24C438.526 2070.91 438.862 2071.25 439.535 2071.25H446.484C447.082 2071.25 447.381 2070.91 447.381 2070.24V2065.98ZM433.706 2084.59H506.336C507.98 2084.59 509.4 2085.19 510.596 2086.38C511.791 2087.58 512.389 2089 512.389 2090.64C512.389 2092.28 511.791 2093.7 510.596 2094.9C509.475 2096.02 508.055 2096.58 506.336 2096.58H433.706C432.062 2096.58 430.643 2096.02 429.447 2094.9C428.326 2093.7 427.766 2092.28 427.766 2090.64C427.766 2088.92 428.326 2087.5 429.447 2086.38C430.643 2085.19 432.062 2084.59 433.706 2084.59ZM426.085 2113.39C424.366 2113.39 422.872 2112.8 421.601 2111.6C420.331 2110.33 419.696 2108.84 419.696 2107.12V2106.11C419.696 2104.39 420.331 2102.93 421.601 2101.74C422.872 2100.47 424.366 2099.83 426.085 2099.83H513.061C514.78 2099.83 516.274 2100.47 517.545 2101.74C518.815 2102.93 519.45 2104.39 519.45 2106.11V2107.12C519.45 2108.84 518.815 2110.33 517.545 2111.6C516.274 2112.8 514.78 2113.39 513.061 2113.39H503.983C503.908 2113.39 503.871 2113.47 503.871 2113.62C503.871 2113.77 503.908 2113.88 503.983 2113.95C506.673 2115.37 510.633 2117.58 515.863 2120.57C517.358 2121.46 518.292 2122.77 518.666 2124.49C519.114 2126.21 518.89 2127.82 517.993 2129.31L516.872 2131.33C515.976 2132.82 514.668 2133.79 512.949 2134.24C511.305 2134.69 509.736 2134.47 508.242 2133.57C503.534 2130.88 497.407 2127.55 489.86 2123.59C488.291 2122.77 487.245 2121.54 486.722 2119.89C486.199 2118.25 486.386 2116.68 487.282 2115.19L487.843 2114.29C487.992 2114.14 487.992 2113.95 487.843 2113.73C487.768 2113.51 487.618 2113.39 487.394 2113.39H481.79C481.118 2113.39 480.781 2113.73 480.781 2114.4V2120.46C480.781 2124.49 480.632 2127.44 480.333 2129.31C480.034 2131.25 479.137 2132.86 477.643 2134.13C476.149 2135.4 474.281 2136.15 472.039 2136.37C469.797 2136.67 466.285 2136.82 461.503 2136.82C459.635 2136.82 456.571 2136.71 452.312 2136.48C450.519 2136.41 448.95 2135.74 447.605 2134.47C446.26 2133.2 445.55 2131.66 445.475 2129.87L445.251 2126.96C445.251 2126.73 445.139 2126.55 444.915 2126.4C444.691 2126.32 444.504 2126.36 444.354 2126.51C440.394 2128.97 435.873 2131.4 430.792 2133.79C429.148 2134.54 427.467 2134.62 425.748 2134.02C424.105 2133.49 422.834 2132.45 421.938 2130.88L421.041 2129.31C420.219 2127.82 420.07 2126.28 420.593 2124.71C421.19 2123.07 422.237 2121.87 423.731 2121.13C428.214 2119.04 432.772 2116.61 437.405 2113.84C437.48 2113.77 437.48 2113.69 437.405 2113.62C437.405 2113.47 437.33 2113.39 437.181 2113.39H426.085ZM449.958 2113.39C449.734 2113.39 449.547 2113.51 449.398 2113.73C449.323 2113.88 449.361 2114.03 449.51 2114.18L451.416 2116.98C452.088 2117.88 452.312 2118.89 452.088 2120.01C451.939 2121.13 451.378 2121.99 450.407 2122.58C450.407 2122.73 450.444 2122.85 450.519 2122.92C454.33 2123.15 456.87 2123.26 458.141 2123.26C460.307 2123.26 461.578 2123.11 461.951 2122.81C462.325 2122.44 462.512 2121.31 462.512 2119.45V2114.4C462.512 2113.73 462.176 2113.39 461.503 2113.39H449.958ZM544.669 2065.2C542.95 2065.2 541.456 2064.56 540.186 2063.29C538.915 2062.02 538.28 2060.53 538.28 2058.81V2056.23C538.28 2054.51 538.915 2053.02 540.186 2051.75C541.456 2050.48 542.95 2049.84 544.669 2049.84C556.4 2049.84 569.738 2049.66 584.683 2049.28C585.206 2049.28 585.467 2048.95 585.467 2048.27C585.318 2047.23 585.168 2045.43 585.019 2042.89C584.944 2041.17 585.467 2039.68 586.588 2038.41C587.784 2037.14 589.241 2036.43 590.959 2036.28L595.443 2035.94C597.161 2035.87 598.656 2036.43 599.926 2037.63C601.271 2038.75 602.018 2040.17 602.168 2041.88C602.317 2044.43 602.467 2046.37 602.616 2047.71C602.616 2048.31 602.99 2048.61 603.737 2048.61C616.514 2048.16 622.978 2047.94 623.127 2047.94C624.846 2047.86 626.34 2048.42 627.611 2049.62C628.881 2050.81 629.553 2052.27 629.628 2053.99L629.74 2056.57C629.815 2058.29 629.254 2059.82 628.059 2061.16C626.863 2062.43 625.406 2063.11 623.688 2063.18L606.203 2063.85C605.605 2063.85 605.381 2064.19 605.53 2064.86C607.473 2071.89 610.462 2078.91 614.497 2085.93C615.319 2087.35 615.468 2088.89 614.945 2090.53C614.497 2092.1 613.525 2093.26 612.031 2094L607.099 2096.36C603.513 2098 599.702 2097.89 595.667 2096.02C589.689 2093.26 583.599 2091.87 577.397 2091.87C572.54 2091.87 568.804 2092.85 566.189 2094.79C563.574 2096.73 562.266 2099.38 562.266 2102.75C562.266 2112.16 570.597 2116.87 587.261 2116.87C593.313 2116.87 600.449 2116.2 608.668 2114.85C610.387 2114.55 611.956 2114.93 613.376 2115.97C614.796 2116.94 615.692 2118.29 616.066 2120.01L616.626 2122.81C616.925 2124.53 616.552 2126.1 615.506 2127.52C614.534 2129.01 613.189 2129.91 611.471 2130.21C602.877 2131.55 594.807 2132.22 587.261 2132.22C573.063 2132.22 562.303 2129.5 554.981 2124.04C547.732 2118.51 544.108 2111.08 544.108 2101.74C544.108 2094.12 546.948 2088.03 552.627 2083.47C558.306 2078.83 566.226 2076.52 576.388 2076.52C581.768 2076.52 587.186 2077.45 592.641 2079.32L592.865 2079.21V2079.1C590.997 2074.84 589.465 2070.32 588.269 2065.53C588.12 2064.86 587.709 2064.53 587.036 2064.53C568.057 2064.97 553.934 2065.2 544.669 2065.2ZM649.691 2100.17C655.818 2094.04 662.842 2087.09 670.763 2079.32C671.286 2078.8 671.547 2078.27 671.547 2077.75V2068.56C671.547 2067.89 671.211 2067.55 670.538 2067.55H654.511C652.792 2067.55 651.297 2066.95 650.027 2065.76C648.757 2064.49 648.122 2062.99 648.122 2061.28V2058.59C648.122 2056.87 648.757 2055.41 650.027 2054.21C651.297 2052.94 652.792 2052.31 654.511 2052.31H670.538C671.211 2052.31 671.547 2051.97 671.547 2051.3V2042.89C671.547 2041.17 672.145 2039.72 673.341 2038.52C674.611 2037.25 676.105 2036.62 677.824 2036.62H682.307C684.026 2036.62 685.52 2037.25 686.791 2038.52C688.061 2039.72 688.696 2041.17 688.696 2042.89V2061.61C688.696 2061.76 688.771 2061.91 688.92 2062.06C689.144 2062.13 689.294 2062.1 689.368 2061.95C695.869 2056.19 700.876 2052.5 704.388 2050.85C707.9 2049.21 711.71 2048.39 715.82 2048.39C721.873 2048.39 726.169 2050.22 728.71 2053.88C731.325 2057.54 732.633 2064.23 732.633 2073.94C732.633 2077.9 732.11 2082.5 731.063 2087.73C730.017 2093.26 729.494 2097.81 729.494 2101.4C729.494 2107.6 730.652 2110.7 732.969 2110.7C734.389 2110.7 736.556 2109.55 739.47 2107.23C740.74 2106.18 742.197 2105.77 743.841 2106C745.56 2106.22 746.905 2107.01 747.876 2108.35L749.221 2110.37C750.342 2111.86 750.79 2113.54 750.566 2115.41C750.417 2117.2 749.669 2118.7 748.324 2119.89C741.151 2125.87 734.314 2128.86 727.813 2128.86C722.134 2128.86 717.95 2126.96 715.26 2123.15C712.644 2119.33 711.337 2112.72 711.337 2103.31C711.337 2100.17 711.897 2095.57 713.018 2089.52C714.064 2084.29 714.587 2079.73 714.587 2075.85C714.587 2069.57 713.429 2066.43 711.113 2066.43C710.44 2066.43 709.618 2066.73 708.647 2067.33C707.75 2067.85 705.695 2069.49 702.482 2072.26C699.269 2074.95 694.898 2078.95 689.368 2084.25C688.92 2084.7 688.696 2085.22 688.696 2085.82V2127.4C688.696 2129.12 688.061 2130.58 686.791 2131.78C685.52 2133.05 684.026 2133.68 682.307 2133.68H677.824C676.105 2133.68 674.611 2133.05 673.341 2131.78C672.145 2130.58 671.547 2129.12 671.547 2127.4V2102.52C671.547 2102.37 671.435 2102.26 671.211 2102.19C670.987 2102.11 670.837 2102.15 670.763 2102.3C669.044 2104.02 665.868 2107.12 661.236 2111.6C660.04 2112.87 658.546 2113.51 656.752 2113.51C654.959 2113.51 653.427 2112.87 652.157 2111.6L649.691 2109.13C648.421 2107.86 647.786 2106.37 647.786 2104.65C647.786 2102.93 648.421 2101.44 649.691 2100.17ZM813.893 2118.1C814.64 2116.16 815.014 2114.44 815.014 2112.95C815.014 2111 814.267 2109.58 812.772 2108.69C811.352 2107.72 808.625 2107.23 804.59 2107.23C801.377 2107.23 798.949 2107.75 797.305 2108.8C795.736 2109.77 794.951 2111.04 794.951 2112.61C794.951 2116.94 800.742 2119.11 812.324 2119.11C812.399 2119.11 812.436 2119.11 812.436 2119.11L812.66 2119C813.258 2119 813.669 2118.7 813.893 2118.1ZM770.853 2091.54L770.293 2090.53C769.545 2088.96 769.433 2087.32 769.956 2085.6C770.479 2083.8 771.488 2082.46 772.983 2081.56L815.686 2056.46L815.798 2056.34H815.686H781.277C779.558 2056.34 778.064 2055.71 776.793 2054.44C775.598 2053.17 775 2051.67 775 2049.95V2047.83C775 2046.11 775.598 2044.61 776.793 2043.34C778.064 2042.07 779.558 2041.44 781.277 2041.44H841.802C843.52 2041.44 845.015 2042.07 846.285 2043.34C847.555 2044.61 848.191 2046.11 848.191 2047.83V2050.4C848.191 2054.74 846.36 2057.84 842.698 2059.71L814.79 2074.5V2074.61H814.902C818.638 2073.94 822.187 2073.6 825.55 2073.6C835.712 2073.6 843.558 2075.92 849.087 2080.55C854.691 2085.19 857.493 2091.46 857.493 2099.38C857.493 2110.07 853.571 2118.36 845.725 2124.27C837.879 2130.17 826.745 2133.12 812.324 2133.12C789.683 2133.12 778.363 2126.28 778.363 2112.61C778.363 2107.45 780.791 2103.12 785.648 2099.61C790.58 2096.1 797.23 2094.34 805.599 2094.34C814.192 2094.34 820.394 2095.76 824.205 2098.6C828.09 2101.36 830.033 2105.55 830.033 2111.15C830.033 2112.8 829.958 2114.03 829.809 2114.85C829.809 2115 829.884 2115.15 830.033 2115.3C830.182 2115.37 830.332 2115.37 830.481 2115.3C836.011 2112.16 838.776 2107.27 838.776 2100.62C838.776 2091.35 831.714 2086.72 817.592 2086.72C810.493 2086.72 804.067 2087.32 798.313 2088.51C792.56 2089.71 786.283 2091.76 779.483 2094.68C777.84 2095.35 776.158 2095.39 774.44 2094.79C772.796 2094.19 771.6 2093.11 770.853 2091.54ZM927.658 2132.22C899.861 2132.22 885.963 2122.81 885.963 2103.98C885.963 2094.34 891.455 2085.71 902.439 2078.09C902.887 2077.71 903.074 2077.27 902.999 2076.74C900.608 2066.43 898.516 2056.46 896.723 2046.82C896.424 2045.1 896.797 2043.53 897.844 2042.11C898.89 2040.69 900.272 2039.83 901.991 2039.53L907.931 2038.63C909.65 2038.34 911.219 2038.71 912.639 2039.76C914.058 2040.8 914.955 2042.18 915.329 2043.9C917.122 2053.54 918.766 2061.39 920.26 2067.44C920.41 2068.11 920.821 2068.3 921.493 2068C931.581 2063.89 943.237 2060.23 956.463 2057.02C958.107 2056.64 959.676 2056.94 961.171 2057.91C962.665 2058.81 963.599 2060.12 963.973 2061.84L964.757 2065.65C965.131 2067.37 964.832 2069.01 963.861 2070.58C962.889 2072.07 961.544 2073.01 959.826 2073.38C941.668 2077.79 927.994 2082.65 918.803 2087.95C909.612 2093.18 905.017 2098.23 905.017 2103.08C905.017 2107.42 906.81 2110.67 910.397 2112.83C914.058 2114.93 919.812 2115.97 927.658 2115.97C937.895 2115.97 948.206 2115.22 958.593 2113.73C960.311 2113.51 961.843 2113.92 963.188 2114.96C964.533 2116.01 965.318 2117.39 965.542 2119.11L965.99 2122.7C966.214 2124.49 965.766 2126.1 964.645 2127.52C963.599 2128.94 962.179 2129.76 960.386 2129.98C949.85 2131.48 938.941 2132.22 927.658 2132.22ZM257.511 2291.16L255.494 2287.46C254.672 2285.97 254.522 2284.4 255.046 2282.76C255.643 2281.04 256.689 2279.77 258.184 2278.95C283.44 2265.65 302.195 2248.16 314.45 2226.49C314.524 2226.34 314.487 2226.19 314.338 2226.04C314.263 2225.82 314.113 2225.71 313.889 2225.71H268.832C267.113 2225.71 265.619 2225.07 264.348 2223.8C263.078 2222.53 262.443 2221.04 262.443 2219.32V2215.28C262.443 2213.56 263.078 2212.07 264.348 2210.8C265.619 2209.53 267.113 2208.89 268.832 2208.89H328.908C330.627 2208.89 332.122 2209.53 333.392 2210.8C334.662 2212.07 335.297 2213.56 335.297 2215.28V2219.32C335.297 2223.65 334.363 2227.65 332.495 2231.31C327.788 2239.98 322.109 2248.16 315.458 2255.86C315.01 2256.3 315.01 2256.75 315.458 2257.2C323.678 2264.45 332.084 2272.15 340.677 2280.29C341.947 2281.49 342.583 2282.98 342.583 2284.77C342.583 2286.49 341.947 2287.95 340.677 2289.15L337.203 2292.51C335.932 2293.78 334.401 2294.41 332.607 2294.41C330.889 2294.41 329.394 2293.82 328.124 2292.62C320.203 2284.92 311.984 2277.26 303.466 2269.64C302.942 2269.27 302.457 2269.27 302.008 2269.64C291.323 2279.36 279.442 2287.46 266.366 2293.96C264.722 2294.79 263.041 2294.9 261.322 2294.3C259.604 2293.78 258.333 2292.73 257.511 2291.16ZM372.173 2256.87L369.371 2254.29C368.1 2253.17 367.39 2251.75 367.241 2250.03C367.166 2248.23 367.689 2246.7 368.81 2245.43C378.076 2234.45 384.128 2222.34 386.968 2209.12C387.341 2207.32 388.238 2205.87 389.658 2204.75C391.077 2203.55 392.647 2202.99 394.365 2203.07L398.848 2203.4C400.642 2203.55 402.099 2204.26 403.22 2205.53C404.341 2206.8 404.752 2208.26 404.453 2209.9C404.453 2210.13 404.378 2210.5 404.228 2211.02C404.079 2211.47 404.004 2211.81 404.004 2212.03C403.93 2212.26 403.967 2212.48 404.116 2212.7C404.341 2212.93 404.565 2213.04 404.789 2213.04H447.829C449.547 2213.04 451.042 2213.68 452.312 2214.95C453.582 2216.14 454.218 2217.6 454.218 2219.32C454.068 2244.5 448.501 2263.29 437.517 2275.7C426.533 2288.02 408.973 2295.57 384.838 2298.34C383.045 2298.56 381.438 2298.11 380.018 2296.99C378.599 2295.87 377.739 2294.45 377.441 2292.73L376.768 2289.03C376.469 2287.31 376.843 2285.78 377.889 2284.44C378.935 2283.02 380.317 2282.2 382.036 2281.97C399.596 2279.58 412.261 2274.8 420.032 2267.63C420.481 2267.18 420.406 2266.8 419.808 2266.5C414.279 2263.66 407.329 2260.3 398.961 2256.42C397.391 2255.67 396.345 2254.51 395.822 2252.94C395.374 2251.3 395.561 2249.73 396.383 2248.23L398.848 2243.64C399.67 2242.07 400.903 2241.02 402.547 2240.5C404.266 2239.9 405.947 2239.98 407.591 2240.73C416.782 2244.98 424.105 2248.5 429.559 2251.26C430.082 2251.49 430.456 2251.37 430.68 2250.92C432.847 2245.1 434.192 2238.18 434.715 2230.19C434.715 2229.59 434.416 2229.29 433.818 2229.29H399.969C399.297 2229.29 398.848 2229.59 398.624 2230.19C394.589 2239.75 388.836 2248.53 381.363 2256.53C380.168 2257.8 378.673 2258.47 376.88 2258.55C375.087 2258.62 373.518 2258.06 372.173 2256.87ZM486.386 2260.79C484.667 2260.79 483.172 2260.15 481.902 2258.88C480.632 2257.61 479.997 2256.12 479.997 2254.4V2249.02C479.997 2247.3 480.632 2245.81 481.902 2244.54C483.172 2243.27 484.667 2242.63 486.386 2242.63H567.086C568.804 2242.63 570.299 2243.27 571.569 2244.54C572.839 2245.81 573.474 2247.3 573.474 2249.02V2254.4C573.474 2256.12 572.839 2257.61 571.569 2258.88C570.299 2260.15 568.804 2260.79 567.086 2260.79H486.386ZM600.935 2256.53C599.216 2256.53 597.722 2255.89 596.451 2254.62C595.181 2253.35 594.546 2251.86 594.546 2250.14V2247.56C594.546 2245.84 595.181 2244.35 596.451 2243.08C597.722 2241.81 599.216 2241.17 600.935 2241.17H617.635C618.308 2241.17 618.644 2240.87 618.644 2240.28C618.793 2236.02 618.943 2232.92 619.092 2230.97C619.092 2230.38 618.793 2230.08 618.196 2230.08H604.073C602.354 2230.08 600.86 2229.44 599.59 2228.17C598.319 2226.9 597.684 2225.41 597.684 2223.69V2221.11C597.684 2219.39 598.319 2217.9 599.59 2216.63C600.86 2215.36 602.354 2214.72 604.073 2214.72H619.204C619.877 2214.72 620.213 2214.42 620.213 2213.83C620.288 2212.78 620.4 2211.14 620.549 2208.89C620.624 2207.1 621.334 2205.61 622.679 2204.41C624.024 2203.21 625.593 2202.65 627.386 2202.73L632.878 2202.84C634.597 2202.92 636.017 2203.63 637.138 2204.97C638.333 2206.24 638.856 2207.74 638.707 2209.45C638.632 2209.98 638.557 2210.69 638.483 2211.58C638.408 2212.48 638.371 2213.19 638.371 2213.71C638.371 2214.39 638.669 2214.72 639.267 2214.72H669.642C671.36 2214.72 672.855 2215.36 674.125 2216.63C675.395 2217.9 676.031 2219.39 676.031 2221.11V2223.69C676.031 2225.41 675.395 2226.9 674.125 2228.17C672.855 2229.44 671.36 2230.08 669.642 2230.08H638.258C637.586 2230.08 637.25 2230.41 637.25 2231.09C636.951 2235.35 636.764 2238.37 636.689 2240.16C636.689 2240.84 637.026 2241.17 637.698 2241.17H661.236C662.954 2241.17 664.449 2241.81 665.719 2243.08C666.989 2244.35 667.624 2245.84 667.624 2247.56V2250.14C667.624 2251.86 666.989 2253.35 665.719 2254.62C664.449 2255.89 662.954 2256.53 661.236 2256.53H637.026C636.353 2256.53 636.017 2256.79 636.017 2257.31C635.867 2262.99 635.793 2266.73 635.793 2268.52C635.793 2274.72 636.764 2278.72 638.707 2280.51C640.65 2282.23 645.096 2283.09 652.045 2283.09C660.115 2283.09 665.457 2282.27 668.073 2280.63C670.763 2278.98 672.108 2275.92 672.108 2271.44C672.108 2270.54 671.996 2269.49 671.771 2268.3C671.472 2266.5 671.771 2264.9 672.668 2263.48C673.639 2261.98 674.984 2261.05 676.703 2260.68L680.962 2259.67C682.681 2259.29 684.287 2259.59 685.782 2260.56C687.276 2261.46 688.173 2262.77 688.472 2264.49C688.995 2267.63 689.256 2270.39 689.256 2272.78C689.256 2281.97 686.305 2288.7 680.402 2292.96C674.573 2297.22 665.121 2299.34 652.045 2299.34C639.118 2299.34 630.151 2297.1 625.145 2292.62C620.213 2288.21 617.747 2280.18 617.747 2268.52C617.747 2263.81 617.785 2260.08 617.859 2257.31C617.859 2256.79 617.56 2256.53 616.963 2256.53H600.935ZM704.612 2236.24L703.491 2233.55C702.818 2231.83 702.744 2230.15 703.267 2228.51C703.865 2226.79 704.911 2225.41 706.405 2224.36C707.601 2223.54 709.02 2222.49 710.664 2221.22C711.187 2220.85 711.337 2220.36 711.113 2219.77C710.814 2219.09 709.954 2217.23 708.535 2214.16C707.713 2212.59 707.563 2210.95 708.086 2209.23C708.609 2207.51 709.656 2206.28 711.225 2205.53L714.587 2203.74C716.156 2202.92 717.8 2202.77 719.519 2203.29C721.237 2203.81 722.47 2204.9 723.218 2206.54C723.292 2206.76 723.404 2207.03 723.554 2207.32C723.703 2207.62 723.815 2207.88 723.89 2208.11C724.189 2208.63 724.563 2208.67 725.011 2208.22C725.982 2207.17 727.178 2205.79 728.598 2204.07C729.793 2202.65 731.288 2201.79 733.081 2201.5C734.874 2201.12 736.518 2201.42 738.013 2202.39L739.47 2203.29C740.292 2203.81 740.964 2204.52 741.487 2205.42C741.711 2205.87 742.122 2205.94 742.72 2205.64C743.766 2204.97 744.887 2204.63 746.083 2204.63H750.566C751.014 2204.63 751.238 2204.41 751.238 2203.96C751.238 2202.69 751.687 2201.61 752.583 2200.71C753.555 2199.74 754.676 2199.25 755.946 2199.25H762.111C763.381 2199.25 764.464 2199.74 765.361 2200.71C766.332 2201.61 766.818 2202.69 766.818 2203.96C766.818 2204.41 767.042 2204.63 767.491 2204.63H779.82C780.343 2204.63 780.604 2204.41 780.604 2203.96C780.604 2202.69 781.053 2201.61 781.949 2200.71C782.921 2199.74 784.042 2199.25 785.312 2199.25H791.476C792.747 2199.25 793.83 2199.74 794.727 2200.71C795.698 2201.61 796.184 2202.69 796.184 2203.96C796.184 2204.41 796.408 2204.63 796.856 2204.63H801.788C803.507 2204.63 805.001 2205.27 806.271 2206.54C807.542 2207.81 808.177 2209.3 808.177 2211.02V2211.14C808.177 2212.85 807.542 2214.35 806.271 2215.62C805.001 2216.89 803.507 2217.52 801.788 2217.52H796.632C796.333 2217.52 796.184 2217.67 796.184 2217.97C796.184 2218.79 795.885 2219.5 795.287 2220.1C794.689 2220.7 793.98 2221 793.158 2221H792.597C792.298 2221 792.074 2221.19 791.925 2221.56C791.85 2221.63 791.813 2221.78 791.813 2222.01C791.813 2222.23 791.775 2222.42 791.701 2222.57C791.551 2223.17 791.775 2223.46 792.373 2223.46H803.245C804.441 2223.46 805.449 2223.88 806.271 2224.7C807.168 2225.52 807.616 2226.57 807.616 2227.84C807.616 2229.11 807.168 2230.19 806.271 2231.09C805.449 2231.91 804.441 2232.32 803.245 2232.32H790.019C789.347 2232.32 789.011 2232.62 789.011 2233.22V2234.11C789.011 2234.78 789.347 2235.12 790.019 2235.12H802.348C803.32 2235.12 804.142 2235.46 804.814 2236.13C805.487 2236.8 805.823 2237.62 805.823 2238.6C805.823 2239.57 805.487 2240.43 804.814 2241.17C804.142 2241.85 803.32 2242.18 802.348 2242.18H790.019C789.347 2242.18 789.011 2242.52 789.011 2243.19V2243.98C789.011 2244.65 789.347 2244.98 790.019 2244.98H802.348C803.32 2244.98 804.142 2245.36 804.814 2246.11C805.487 2246.78 805.823 2247.6 805.823 2248.57C805.823 2249.54 805.487 2250.36 804.814 2251.04C804.142 2251.71 803.32 2252.05 802.348 2252.05H790.019C789.347 2252.05 789.011 2252.38 789.011 2253.05V2253.95C789.011 2254.55 789.347 2254.85 790.019 2254.85H803.245C804.441 2254.85 805.449 2255.26 806.271 2256.08C807.168 2256.9 807.616 2257.95 807.616 2259.22C807.616 2260.49 807.168 2261.57 806.271 2262.47C805.449 2263.29 804.441 2263.7 803.245 2263.7H746.307C744.588 2263.7 743.094 2263.07 741.823 2261.8C740.553 2260.53 739.918 2259.03 739.918 2257.31V2247.9C739.918 2247.38 739.619 2247.04 739.021 2246.89L735.883 2246.44C735.584 2246.44 735.285 2246.37 734.986 2246.22C734.538 2246.07 734.314 2246.25 734.314 2246.78C735.061 2253.73 735.435 2260.3 735.435 2266.5C735.435 2276.52 734.837 2284.14 733.641 2289.37C732.521 2294.6 730.877 2298.07 728.71 2299.79C726.617 2301.59 723.554 2302.48 719.519 2302.48C718.174 2302.48 716.119 2302.3 713.354 2301.92C711.561 2301.62 710.067 2300.76 708.871 2299.34C707.675 2297.93 707.003 2296.28 706.853 2294.41L706.741 2292.51C706.667 2290.94 707.227 2289.67 708.423 2288.7C709.618 2287.65 710.963 2287.28 712.458 2287.58C713.952 2287.8 715.073 2287.91 715.82 2287.91C718.51 2287.91 719.855 2280.78 719.855 2266.5C719.855 2266.35 719.78 2266.28 719.631 2266.28C719.482 2266.21 719.332 2266.24 719.183 2266.39C717.464 2268.04 715.185 2269.87 712.346 2271.88C710.926 2272.86 709.431 2273.08 707.862 2272.56C706.293 2272.03 705.172 2270.99 704.5 2269.42L703.491 2267.18C702.818 2265.46 702.744 2263.74 703.267 2262.02C703.865 2260.23 704.911 2258.77 706.405 2257.65C710.216 2254.81 714.027 2251.34 717.838 2247.23C718.211 2246.7 718.361 2246.18 718.286 2245.66C717.688 2241.55 717.165 2238.63 716.717 2236.91C716.567 2236.24 716.231 2236.09 715.708 2236.47L712.346 2238.82C710.926 2239.79 709.431 2240.02 707.862 2239.49C706.293 2238.89 705.21 2237.81 704.612 2236.24ZM758.412 2222.57C758.262 2223.17 758.449 2223.46 758.972 2223.46H773.207C773.58 2223.46 773.842 2223.28 773.991 2222.9C774.29 2221.78 774.888 2220.89 775.785 2220.21C776.681 2219.54 777.727 2219.24 778.923 2219.32H779.82C780.343 2219.32 780.604 2219.09 780.604 2218.64V2218.42C780.604 2217.82 780.268 2217.52 779.596 2217.52H767.266C766.967 2217.52 766.818 2217.67 766.818 2217.97C766.818 2218.79 766.519 2219.5 765.921 2220.1C765.324 2220.7 764.614 2221 763.792 2221H759.869C759.271 2221 758.823 2221.33 758.524 2222.01C758.449 2222.08 758.412 2222.19 758.412 2222.34C758.412 2222.42 758.412 2222.49 758.412 2222.57ZM757.739 2233.22V2234.11C757.739 2234.78 758.076 2235.12 758.748 2235.12H770.629C771.301 2235.12 771.638 2234.78 771.638 2234.11V2233.22C771.638 2232.62 771.301 2232.32 770.629 2232.32H758.748C758.076 2232.32 757.739 2232.62 757.739 2233.22ZM757.739 2243.19V2244.09C757.739 2244.69 758.076 2244.98 758.748 2244.98H770.629C771.301 2244.98 771.638 2244.69 771.638 2244.09V2243.19C771.638 2242.52 771.301 2242.18 770.629 2242.18H758.748C758.076 2242.18 757.739 2242.52 757.739 2243.19ZM757.739 2253.05V2253.95C757.739 2254.55 758.076 2254.85 758.748 2254.85H770.629C771.301 2254.85 771.638 2254.55 771.638 2253.95V2253.05C771.638 2252.38 771.301 2252.05 770.629 2252.05H758.748C758.076 2252.05 757.739 2252.38 757.739 2253.05ZM730.727 2223.69C730.279 2224.14 730.129 2224.66 730.279 2225.26C731.25 2228.62 732.222 2232.99 733.193 2238.37C733.268 2238.52 733.38 2238.6 733.529 2238.6C733.679 2238.6 733.791 2238.52 733.866 2238.37C736.107 2234.34 738.199 2229.89 740.142 2225.03C740.815 2223.31 741.936 2221.93 743.505 2220.89C745.074 2219.84 746.792 2219.35 748.661 2219.43L750.23 2219.54C750.902 2219.54 751.238 2219.24 751.238 2218.64V2218.53C751.238 2217.86 750.902 2217.52 750.23 2217.52H746.083C743.467 2217.52 741.599 2216.4 740.478 2214.16C740.105 2213.56 739.769 2213.49 739.47 2213.94C736.107 2217.97 733.193 2221.22 730.727 2223.69ZM752.359 2287.24C752.509 2287.24 752.583 2287.17 752.583 2287.02C752.583 2286.87 752.509 2286.75 752.359 2286.68C750.641 2285.93 749.146 2285.22 747.876 2284.55C746.606 2283.88 745.896 2282.79 745.746 2281.3C745.597 2279.8 746.083 2278.57 747.203 2277.6C747.353 2277.53 747.39 2277.41 747.316 2277.26C747.241 2277.11 747.129 2277.04 746.979 2277.04H743.056C741.562 2277.04 740.292 2276.52 739.246 2275.47C738.199 2274.35 737.676 2273.04 737.676 2271.55C737.676 2270.05 738.199 2268.78 739.246 2267.74C740.292 2266.69 741.562 2266.17 743.056 2266.17H800.219C801.713 2266.17 802.984 2266.69 804.03 2267.74C805.076 2268.78 805.599 2270.05 805.599 2271.55C805.599 2275.51 804.217 2278.53 801.452 2280.63C798.911 2282.57 795.848 2284.51 792.261 2286.46C791.813 2286.68 791.813 2286.87 792.261 2287.02C798.239 2288.14 802.012 2288.81 803.581 2289.03C805.3 2289.26 806.608 2290.08 807.504 2291.5C808.476 2292.84 808.7 2294.34 808.177 2295.98L808.065 2296.32C807.542 2298.04 806.496 2299.42 804.926 2300.47C803.432 2301.51 801.788 2301.89 799.995 2301.59C791.402 2300.24 782.36 2298 772.871 2294.86C772.273 2294.64 771.675 2294.64 771.077 2294.86C761.961 2297.63 752.696 2299.83 743.281 2301.47C741.487 2301.77 739.843 2301.44 738.349 2300.47C736.854 2299.49 735.846 2298.11 735.323 2296.32L735.211 2295.98C734.762 2294.41 734.986 2292.96 735.883 2291.61C736.78 2290.19 738.05 2289.37 739.694 2289.15C743.505 2288.7 747.727 2288.06 752.359 2287.24ZM760.541 2277.04C760.467 2277.04 760.429 2277.11 760.429 2277.26C760.429 2277.34 760.467 2277.41 760.541 2277.49C764.277 2279.21 768.312 2280.74 772.646 2282.08C773.244 2282.31 773.842 2282.31 774.44 2282.08C778.774 2280.66 782.472 2279.13 785.536 2277.49C785.685 2277.41 785.76 2277.34 785.76 2277.26C785.76 2277.11 785.685 2277.04 785.536 2277.04H760.541ZM849.648 2203.51C851.067 2204.56 851.889 2205.94 852.113 2207.66C852.338 2209.38 851.889 2210.91 850.768 2212.26C844.94 2219.13 838.178 2225.18 830.481 2230.41C829.062 2231.38 827.53 2231.61 825.886 2231.09C824.317 2230.56 823.196 2229.55 822.523 2228.06L821.066 2224.7C820.319 2223.05 820.207 2221.37 820.73 2219.65C821.253 2217.86 822.262 2216.48 823.756 2215.51C829.435 2211.62 834.292 2207.47 838.327 2203.07C839.523 2201.79 840.98 2201.09 842.698 2200.94C844.417 2200.71 846.024 2201.09 847.518 2202.06L849.648 2203.51ZM819.497 2266.62L818.152 2260.79C817.256 2256.98 818.451 2253.65 821.739 2250.81C828.539 2245.21 834.442 2238.82 839.448 2231.65C840.494 2230.15 841.877 2229.22 843.595 2228.84C845.388 2228.4 847.032 2228.62 848.527 2229.52L851.441 2231.31C853.01 2232.21 854.019 2233.51 854.467 2235.23C854.916 2236.88 854.691 2238.45 853.795 2239.94C851.404 2243.68 848.9 2247.15 846.285 2250.36C845.912 2250.89 845.725 2251.45 845.725 2252.05V2296.54C845.725 2298.26 845.09 2299.76 843.819 2301.03C842.549 2302.3 841.055 2302.93 839.336 2302.93H835.077C833.358 2302.93 831.864 2302.3 830.593 2301.03C829.323 2299.76 828.688 2298.26 828.688 2296.54V2265.83C828.688 2265.68 828.613 2265.57 828.464 2265.5C828.314 2265.42 828.202 2265.46 828.128 2265.61C828.053 2265.68 827.679 2266.09 827.007 2266.84C826.409 2267.59 825.923 2268.15 825.55 2268.52C824.504 2269.49 823.308 2269.79 821.963 2269.42C820.693 2268.97 819.871 2268.04 819.497 2266.62ZM861.641 2242.52C859.922 2242.52 858.427 2241.92 857.157 2240.73C855.887 2239.45 855.252 2237.96 855.252 2236.24V2208.89C855.252 2207.17 855.887 2205.68 857.157 2204.41C858.427 2203.14 859.922 2202.5 861.641 2202.5H911.63C913.348 2202.5 914.843 2203.14 916.113 2204.41C917.383 2205.68 918.018 2207.17 918.018 2208.89V2236.24C918.018 2237.96 917.383 2239.45 916.113 2240.73C914.843 2241.92 913.348 2242.52 911.63 2242.52H872.176H861.641ZM872.176 2216.85V2219.21C872.176 2219.8 872.513 2220.1 873.185 2220.1H899.301C899.898 2220.1 900.197 2219.8 900.197 2219.21V2216.85C900.197 2216.18 899.898 2215.84 899.301 2215.84H873.185C872.513 2215.84 872.176 2216.18 872.176 2216.85ZM872.176 2229.52V2231.98C872.176 2232.66 872.513 2232.99 873.185 2232.99H899.301C899.898 2232.99 900.197 2232.66 900.197 2231.98V2229.52C900.197 2228.84 899.898 2228.51 899.301 2228.51H873.185C872.513 2228.51 872.176 2228.84 872.176 2229.52ZM860.296 2277.82L862.089 2276.14C862.238 2275.99 862.238 2275.84 862.089 2275.7C862.014 2275.55 861.902 2275.47 861.753 2275.47H857.157C855.439 2275.47 853.944 2274.84 852.674 2273.57C851.404 2272.3 850.768 2270.8 850.768 2269.08V2267.63C850.768 2265.91 851.404 2264.41 852.674 2263.14C853.944 2261.87 855.439 2261.24 857.157 2261.24H895.266C895.863 2261.24 896.162 2260.94 896.162 2260.34V2258.66C896.162 2257.99 895.863 2257.65 895.266 2257.65H856.821C855.177 2257.65 853.795 2257.09 852.674 2255.97C851.553 2254.85 850.993 2253.47 850.993 2251.82C850.993 2250.18 851.553 2248.8 852.674 2247.67C853.795 2246.48 855.177 2245.88 856.821 2245.88H917.346C918.99 2245.88 920.372 2246.48 921.493 2247.67C922.689 2248.8 923.286 2250.18 923.286 2251.82C923.286 2253.47 922.689 2254.85 921.493 2255.97C920.372 2257.09 918.99 2257.65 917.346 2257.65H914.656C914.058 2257.65 913.759 2257.99 913.759 2258.66V2260.34C913.759 2260.94 914.058 2261.24 914.656 2261.24H917.458C919.177 2261.24 920.671 2261.87 921.941 2263.14C923.212 2264.41 923.847 2265.91 923.847 2267.63V2269.08C923.847 2270.8 923.212 2272.3 921.941 2273.57C920.671 2274.84 919.177 2275.47 917.458 2275.47H914.656C914.058 2275.47 913.759 2275.77 913.759 2276.37V2282.08C913.759 2285.52 913.685 2288.25 913.535 2290.27C913.46 2292.21 913.162 2294.04 912.638 2295.76C912.115 2297.48 911.48 2298.71 910.733 2299.46C909.986 2300.2 908.753 2300.84 907.034 2301.36C905.39 2301.96 903.597 2302.3 901.654 2302.37C899.786 2302.52 897.171 2302.6 893.808 2302.6C893.136 2302.6 890.857 2302.52 886.971 2302.37C885.178 2302.22 883.609 2301.51 882.264 2300.24C880.994 2299.05 880.321 2297.55 880.246 2295.76L880.134 2293.29C880.134 2293.14 880.022 2293.03 879.798 2292.96C879.649 2292.88 879.499 2292.92 879.35 2293.07L877.332 2294.86C876.062 2296.06 874.567 2296.62 872.849 2296.54C871.205 2296.54 869.748 2295.91 868.478 2294.64C867.432 2293.59 865.937 2292.13 863.994 2290.27C862.126 2288.4 860.893 2287.17 860.296 2286.57C859.1 2285.37 858.502 2283.91 858.502 2282.2C858.502 2280.48 859.1 2279.02 860.296 2277.82ZM872.064 2275.47C871.915 2275.47 871.803 2275.55 871.728 2275.7C871.653 2275.84 871.691 2275.99 871.84 2276.14C876.473 2280.63 880.284 2284.51 883.273 2287.8C883.796 2288.32 884.319 2288.58 884.842 2288.58C888.13 2288.73 889.998 2288.81 890.446 2288.81C893.211 2288.81 894.855 2288.62 895.378 2288.25C895.901 2287.8 896.162 2286.38 896.162 2283.99V2276.37C896.162 2275.77 895.863 2275.47 895.266 2275.47H872.064ZM981.906 2266.28C980.113 2266.28 978.581 2265.68 977.311 2264.49C976.115 2263.22 975.442 2261.68 975.293 2259.89L973.051 2216.63C972.977 2214.91 973.537 2213.41 974.733 2212.14C975.928 2210.87 977.385 2210.24 979.104 2210.24H989.191C990.91 2210.24 992.367 2210.87 993.563 2212.14C994.758 2213.41 995.319 2214.91 995.244 2216.63L993.114 2259.89C992.965 2261.68 992.255 2263.22 990.985 2264.49C989.714 2265.68 988.183 2266.28 986.389 2266.28H981.906ZM987.51 2275.25C989.229 2275.25 990.723 2275.88 991.993 2277.15C993.264 2278.42 993.899 2279.92 993.899 2281.64V2285.67C993.899 2287.39 993.264 2288.88 991.993 2290.15C990.723 2291.42 989.229 2292.06 987.51 2292.06H980.785C979.066 2292.06 977.572 2291.42 976.302 2290.15C975.031 2288.88 974.396 2287.39 974.396 2285.67V2281.64C974.396 2279.92 975.031 2278.42 976.302 2277.15C977.572 2275.88 979.066 2275.25 980.785 2275.25H987.51Z" fill="#1E1E1E"/>
<path d="M881.774 470H398.96C320.586 470 257.042 533.722 257.042 612.317V1769.07C257.042 1847.67 320.586 1911.39 398.96 1911.39H881.774C960.148 1911.39 1023.69 1847.67 1023.69 1769.07V612.317C1023.69 533.722 960.148 470 881.774 470ZM975.188 1769.07C975.188 1820.73 933.282 1862.75 881.774 1862.75H398.96C347.452 1862.75 305.546 1820.73 305.546 1769.07V612.317C305.546 560.664 347.452 518.64 398.96 518.64H444.517V548.614C444.517 563.353 456.438 575.308 471.136 575.308H819.561C834.259 575.308 846.18 563.353 846.18 548.614V518.64H881.755C933.263 518.64 975.169 560.664 975.169 612.317V1769.07H975.188Z" fill="#1E1E1E"/>
<path d="M975.188 1769.07C975.188 1820.73 933.282 1862.75 881.774 1862.75H398.96C347.452 1862.75 305.546 1820.73 305.546 1769.07V612.317C305.546 560.664 347.452 518.64 398.96 518.64H444.517V548.614C444.517 563.353 456.438 575.308 471.136 575.308H819.561C834.259 575.308 846.18 563.353 846.18 548.614V518.64H881.755C933.263 518.64 975.169 560.664 975.169 612.317V1769.07H975.188Z" fill="#FF5118"/>
<path d="M692.046 1241.25L640.368 1339.02L588.69 1241.25L490.924 1189.58L588.69 1137.9L614.529 1089.01L640.368 1040.13L692.046 1137.9L789.813 1189.58L692.046 1241.25Z" fill="url(#paint0_linear_603_12739)"/>
<g filter="url(#filter0_d_603_12739)">
<rect x="104" y="517.371" width="1076" height="286.933" rx="38.1083" fill="white"/>
</g>
<path d="M398.107 649.445C397.008 649.445 396.051 649.062 395.238 648.297C394.425 647.484 394.019 646.527 394.019 645.428V643.921C394.019 642.821 394.425 641.865 395.238 641.052C396.051 640.239 397.008 639.832 398.107 639.832H412.956C413.434 639.832 413.697 639.665 413.745 639.33C414.463 636.843 415.084 634.572 415.61 632.516C415.897 631.368 416.495 630.459 417.404 629.79C418.36 629.072 419.412 628.738 420.56 628.785L424.075 629.001C425.175 629.096 426.036 629.574 426.657 630.435C427.327 631.248 427.566 632.181 427.375 633.233C426.753 636.102 426.275 638.111 425.94 639.258C425.844 639.641 425.988 639.832 426.37 639.832H455.494C456.594 639.832 457.55 640.239 458.363 641.052C459.176 641.865 459.583 642.821 459.583 643.921V645.428C459.583 646.527 459.176 647.484 458.363 648.297C457.55 649.062 456.594 649.445 455.494 649.445H449.612C449.229 649.445 449.038 649.66 449.038 650.09C449.038 650.138 449.014 650.21 448.966 650.305C448.966 650.401 448.966 650.473 448.966 650.521C446.862 660.133 443.778 667.88 439.713 673.762C439.474 674.097 439.521 674.36 439.856 674.551C444.591 677.612 449.54 681.103 454.705 685.024C455.566 685.646 456.02 686.507 456.068 687.607C456.164 688.659 455.829 689.567 455.064 690.333L453.414 691.911C452.601 692.724 451.62 693.178 450.473 693.274C449.325 693.369 448.273 693.058 447.316 692.341C441.769 688.085 436.987 684.69 432.97 682.155C432.635 681.916 432.3 681.916 431.966 682.155C424.792 687.941 414.773 691.767 401.909 693.632C400.762 693.824 399.733 693.561 398.825 692.843C397.916 692.174 397.342 691.265 397.103 690.117L396.816 688.898C396.625 687.846 396.84 686.865 397.462 685.957C398.131 685.048 399.016 684.498 400.116 684.307C409.537 682.777 416.83 680.17 421.995 676.488C422.377 676.249 422.377 676.034 421.995 675.842C418.456 674.025 414.415 672.184 409.872 670.319C409.489 670.128 409.178 670.176 408.939 670.462C408.891 670.51 408.82 670.582 408.724 670.678C408.676 670.773 408.628 670.845 408.58 670.893C407.815 671.754 406.835 672.232 405.639 672.328C404.444 672.423 403.392 672.136 402.483 671.467L400.546 670.032C399.686 669.363 399.183 668.502 399.04 667.45C398.944 666.398 399.255 665.465 399.972 664.652C403.703 660.252 406.883 655.375 409.513 650.018C409.609 649.923 409.609 649.803 409.513 649.66C409.417 649.516 409.298 649.445 409.154 649.445H398.107ZM437.059 649.445H422.927C422.545 649.445 422.258 649.66 422.066 650.09C420.201 654.251 418.121 658.076 415.826 661.568C415.634 661.902 415.682 662.141 415.969 662.285C420.512 664.102 424.912 666.135 429.168 668.382C429.551 668.573 429.837 668.526 430.029 668.239C433.185 663.504 435.672 657.455 437.489 650.09C437.585 649.66 437.441 649.445 437.059 649.445ZM469.267 668.024C468.167 668.024 467.211 667.617 466.398 666.804C465.585 665.991 465.178 665.035 465.178 663.935V662.141C465.178 661.041 465.585 660.085 466.398 659.272C467.211 658.459 468.167 658.053 469.267 658.053H493.226C493.608 658.053 493.8 657.861 493.8 657.479V654.107C493.8 653.199 494.063 652.386 494.589 651.668C495.163 650.951 495.856 650.473 496.669 650.234C497.052 650.09 497.339 649.875 497.53 649.588C497.673 649.445 497.936 649.229 498.319 648.942C501.81 646.743 505.325 644.28 508.864 641.554C508.959 641.458 508.983 641.363 508.935 641.267C508.935 641.171 508.888 641.124 508.792 641.124H478.592C477.492 641.124 476.536 640.717 475.723 639.904C474.91 639.091 474.503 638.135 474.503 637.035V635.528C474.503 634.428 474.91 633.496 475.723 632.731C476.536 631.918 477.492 631.511 478.592 631.511H519.839C520.939 631.511 521.871 631.918 522.636 632.731C523.449 633.496 523.856 634.428 523.856 635.528V637.035C523.856 639.904 522.828 642.176 520.771 643.849C516.133 647.771 511.231 651.429 506.066 654.825C505.683 655.112 505.492 655.446 505.492 655.829V657.479C505.492 657.861 505.707 658.053 506.138 658.053H527.801C528.901 658.053 529.858 658.459 530.671 659.272C531.484 660.085 531.89 661.041 531.89 662.141V663.935C531.89 665.035 531.484 665.991 530.671 666.804C529.858 667.617 528.901 668.024 527.801 668.024H506.138C505.707 668.024 505.492 668.215 505.492 668.597V680.649C505.492 682.848 505.444 684.57 505.349 685.813C505.301 687.057 505.11 688.228 504.775 689.328C504.44 690.428 504.034 691.217 503.555 691.696C503.125 692.174 502.384 692.58 501.332 692.915C500.28 693.25 499.156 693.441 497.96 693.489C496.812 693.584 495.187 693.632 493.082 693.632C490.07 693.632 487.344 693.584 484.905 693.489C483.757 693.441 482.777 693.011 481.964 692.198C481.199 691.385 480.768 690.404 480.672 689.257L480.529 687.75C480.481 686.698 480.84 685.789 481.605 685.024C482.37 684.211 483.303 683.829 484.403 683.877C486.507 683.972 488.683 684.02 490.93 684.02C492.317 684.02 493.13 683.9 493.369 683.661C493.656 683.374 493.8 682.514 493.8 681.079V668.597C493.8 668.215 493.608 668.024 493.226 668.024H469.267ZM593.509 637.393C594.609 637.393 595.565 637.8 596.378 638.613C597.191 639.426 597.598 640.382 597.598 641.482V643.419C597.598 644.519 597.191 645.475 596.378 646.288C595.565 647.101 594.609 647.508 593.509 647.508H570.626C569.526 647.508 568.57 647.101 567.757 646.288C566.944 645.475 566.537 644.519 566.537 643.419V641.482C566.537 640.382 566.944 639.426 567.757 638.613C568.57 637.8 569.526 637.393 570.626 637.393H593.509ZM549.536 691.696C548.389 691.839 547.337 691.576 546.38 690.906C545.424 690.237 544.826 689.328 544.587 688.181C542.817 680.051 541.933 671.395 541.933 662.213C541.933 653.031 542.817 644.375 544.587 636.246C544.826 635.098 545.424 634.189 546.38 633.52C547.337 632.85 548.389 632.587 549.536 632.731L552.908 633.089C553.96 633.185 554.797 633.687 555.419 634.596C556.04 635.457 556.232 636.437 555.992 637.537C554.367 645.188 553.554 653.414 553.554 662.213C553.554 671.012 554.367 679.238 555.992 686.889C556.232 687.989 556.04 688.97 555.419 689.83C554.797 690.739 553.96 691.241 552.908 691.337L549.536 691.696ZM582.319 689.4C575.432 689.4 570.052 688.061 566.179 685.383C562.305 682.705 560.368 679.094 560.368 674.551C560.368 672.83 560.918 670.821 562.018 668.526C563.118 666.182 564.624 663.887 566.537 661.639C567.255 660.778 568.187 660.324 569.335 660.276C570.53 660.228 571.583 660.563 572.491 661.281L574.141 662.5C575.002 663.17 575.456 664.054 575.504 665.154C575.6 666.254 575.313 667.234 574.643 668.095C572.682 670.582 571.702 672.495 571.702 673.834C571.702 675.603 572.539 676.918 574.213 677.779C575.887 678.592 578.588 678.999 582.319 678.999C585.953 678.999 589.875 678.64 594.083 677.923C595.183 677.731 596.187 677.947 597.096 678.568C598.004 679.19 598.554 680.051 598.746 681.151L599.032 683.231C599.224 684.379 598.985 685.431 598.315 686.387C597.693 687.344 596.833 687.918 595.733 688.109C591.381 688.97 586.91 689.4 582.319 689.4ZM613.307 649.947C612.207 649.947 611.251 649.54 610.438 648.727C609.625 647.914 609.219 646.958 609.219 645.858V644.71C609.219 643.61 609.625 642.654 610.438 641.841C611.251 641.028 612.207 640.621 613.307 640.621H615.388C615.77 640.621 615.962 640.43 615.962 640.048V633.52C615.962 632.42 616.368 631.463 617.181 630.65C617.994 629.837 618.95 629.431 620.05 629.431H622.776C623.876 629.431 624.833 629.837 625.646 630.65C626.459 631.463 626.865 632.42 626.865 633.52V640.048C626.865 640.43 627.056 640.621 627.439 640.621H628.371C629.471 640.621 630.404 641.028 631.169 641.841C631.982 642.654 632.388 643.61 632.388 644.71V645.858C632.388 646.958 631.982 647.914 631.169 648.727C630.404 649.54 629.471 649.947 628.371 649.947H627.439C627.056 649.947 626.865 650.162 626.865 650.592V662.285C626.865 662.667 627.056 662.811 627.439 662.715C627.487 662.667 627.582 662.644 627.726 662.644C627.869 662.644 627.965 662.62 628.013 662.572C629.017 662.285 629.973 662.428 630.882 663.002C631.265 663.241 631.456 663.17 631.456 662.787C631.504 661.687 631.91 660.755 632.675 659.989C633.441 659.176 634.373 658.77 635.473 658.77H635.832C635.927 658.77 635.999 658.722 636.047 658.626C636.095 658.531 636.071 658.435 635.975 658.34L633.178 655.47C632.412 654.657 632.054 653.701 632.102 652.601C632.149 651.501 632.532 650.497 633.249 649.588C634.684 647.866 635.664 645.954 636.19 643.849C636.716 641.745 636.979 638.804 636.979 635.026C636.979 633.926 637.386 632.994 638.199 632.229C639.012 631.416 639.968 631.009 641.068 631.009H660.795C661.895 631.009 662.827 631.416 663.592 632.229C664.405 633.042 664.812 633.998 664.812 635.098V647.006C664.812 647.532 664.884 647.866 665.027 648.01C665.171 648.106 665.601 648.153 666.318 648.153C667.083 648.153 667.562 647.938 667.753 647.508C667.992 647.077 668.207 645.762 668.399 643.562C668.446 642.51 668.901 641.65 669.762 640.98C670.622 640.263 671.579 640 672.631 640.191C673.731 640.382 674.615 640.932 675.285 641.841C676.002 642.702 676.337 643.706 676.289 644.854C676.194 646.432 676.098 647.723 676.002 648.727C675.907 649.732 675.715 650.712 675.428 651.668C675.142 652.577 674.902 653.294 674.711 653.82C674.52 654.299 674.089 654.753 673.42 655.183C672.798 655.614 672.272 655.924 671.842 656.116C671.411 656.259 670.598 656.403 669.403 656.546C668.207 656.642 667.179 656.69 666.318 656.69C665.458 656.69 664.095 656.69 662.23 656.69C658.643 656.69 656.371 656.403 655.415 655.829C654.458 655.255 653.98 653.988 653.98 652.027V640.908C653.98 640.478 653.765 640.263 653.335 640.263H647.883C647.452 640.263 647.237 640.502 647.237 640.98C647.094 644.758 646.424 648.01 645.229 650.736C644.033 653.462 642.216 655.996 639.777 658.34C639.681 658.435 639.657 658.531 639.705 658.626C639.753 658.722 639.825 658.77 639.92 658.77H668.112C669.212 658.77 670.168 659.176 670.981 659.989C671.794 660.802 672.2 661.759 672.2 662.859V667.593C672.2 667.784 672.105 667.88 671.914 667.88C672.105 667.928 672.129 668.095 671.985 668.382C669.403 673.117 666.223 677.134 662.445 680.433C662.158 680.72 662.182 680.936 662.516 681.079C665.147 682.227 668.423 683.351 672.344 684.45C673.396 684.737 674.161 685.359 674.639 686.316C675.165 687.272 675.237 688.252 674.855 689.257L674.137 690.978C673.707 692.078 672.966 692.891 671.914 693.417C670.861 693.991 669.762 694.111 668.614 693.776C663.21 692.341 657.926 690.285 652.761 687.607C652.474 687.415 652.091 687.415 651.613 687.607C647.452 689.759 642.24 691.767 635.975 693.632C634.875 693.967 633.775 693.871 632.675 693.345C631.623 692.867 630.858 692.102 630.38 691.05L629.447 689.113C629.017 688.157 629.017 687.224 629.447 686.316C629.926 685.359 630.667 684.761 631.671 684.522C634.971 683.661 638.342 682.561 641.786 681.222C641.929 681.175 642.001 681.079 642.001 680.936C642.049 680.744 642.025 680.625 641.929 680.577C639.873 678.855 638.271 677.397 637.123 676.201C636.358 675.388 636.047 674.432 636.19 673.332C636.334 672.232 636.86 671.347 637.768 670.678L640.996 668.239C641.092 668.143 641.116 668.071 641.068 668.024C641.02 667.928 640.949 667.88 640.853 667.88H635.473C634.66 667.88 633.895 667.641 633.178 667.163C632.986 667.067 632.843 667.139 632.747 667.378C632.795 668.478 632.484 669.482 631.815 670.391C631.193 671.299 630.38 671.897 629.376 672.184C629.184 672.232 628.874 672.328 628.443 672.471C628.013 672.567 627.702 672.638 627.511 672.686C627.08 672.782 626.865 673.045 626.865 673.475V681.725C626.865 683.924 626.841 685.67 626.793 686.961C626.745 688.204 626.578 689.352 626.291 690.404C626.004 691.504 625.669 692.293 625.287 692.772C624.904 693.25 624.283 693.656 623.422 693.991C622.561 694.326 621.652 694.517 620.696 694.565C619.787 694.66 618.496 694.708 616.822 694.708C615.866 694.708 615.005 694.684 614.24 694.637C613.092 694.541 612.088 694.087 611.227 693.274C610.366 692.461 609.912 691.48 609.864 690.333V689.4C609.816 688.348 610.151 687.439 610.868 686.674C611.634 685.909 612.566 685.574 613.666 685.67C613.905 685.67 614.192 685.694 614.527 685.742C614.862 685.742 615.053 685.742 615.101 685.742C615.531 685.742 615.77 685.622 615.818 685.383C615.914 685.144 615.962 684.283 615.962 682.801V676.058C615.962 675.914 615.914 675.795 615.818 675.699C615.722 675.556 615.603 675.508 615.459 675.556C614.838 675.747 614.312 675.866 613.881 675.914C612.829 676.105 611.873 675.866 611.012 675.197C610.151 674.527 609.673 673.643 609.577 672.543L609.434 670.749C609.386 669.602 609.721 668.597 610.438 667.737C611.155 666.828 612.064 666.254 613.164 666.015L615.316 665.585C615.746 665.489 615.962 665.25 615.962 664.867V650.592C615.962 650.162 615.77 649.947 615.388 649.947H613.307ZM643.579 667.88C643.483 667.88 643.388 667.952 643.292 668.095C643.244 668.191 643.268 668.287 643.364 668.382C645.659 670.965 648.409 673.308 651.613 675.412C651.9 675.651 652.211 675.651 652.546 675.412C655.511 673.308 657.997 670.988 660.006 668.454C660.245 668.071 660.173 667.88 659.791 667.88H643.579ZM685.902 639.976C684.802 639.976 683.845 639.569 683.032 638.756C682.219 637.943 681.813 636.987 681.813 635.887V635.313C681.813 634.213 682.219 633.257 683.032 632.444C683.845 631.631 684.802 631.224 685.902 631.224H741.567C742.667 631.224 743.623 631.631 744.436 632.444C745.249 633.257 745.655 634.213 745.655 635.313V635.887C745.655 636.987 745.249 637.943 744.436 638.756C743.623 639.569 742.667 639.976 741.567 639.976H728.726C728.344 639.976 728.152 640.167 728.152 640.55V642.128C728.152 642.51 728.344 642.702 728.726 642.702H739.056C740.156 642.702 741.112 643.108 741.925 643.921C742.738 644.734 743.145 645.691 743.145 646.79V655.47C743.145 656.57 742.738 657.527 741.925 658.34C741.112 659.105 740.156 659.487 739.056 659.487H693.864H688.412C687.312 659.487 686.356 659.105 685.543 658.34C684.73 657.527 684.323 656.57 684.323 655.47V646.79C684.323 645.691 684.73 644.734 685.543 643.921C686.356 643.108 687.312 642.702 688.412 642.702H698.742C699.124 642.702 699.316 642.51 699.316 642.128V640.55C699.316 640.167 699.124 639.976 698.742 639.976H685.902ZM727.937 649.588V652.314C727.937 652.744 728.129 652.96 728.511 652.96H732.959C733.389 652.96 733.604 652.744 733.604 652.314V649.588C733.604 649.205 733.389 649.014 732.959 649.014H728.511C728.129 649.014 727.937 649.205 727.937 649.588ZM710.434 640.55V642.128C710.434 642.51 710.65 642.702 711.08 642.702H716.388C716.819 642.702 717.034 642.51 717.034 642.128V640.55C717.034 640.167 716.819 639.976 716.388 639.976H711.08C710.65 639.976 710.434 640.167 710.434 640.55ZM710.219 649.588V652.314C710.219 652.744 710.41 652.96 710.793 652.96H716.675C717.058 652.96 717.249 652.744 717.249 652.314V649.588C717.249 649.205 717.058 649.014 716.675 649.014H710.793C710.41 649.014 710.219 649.205 710.219 649.588ZM699.531 649.588C699.531 649.205 699.34 649.014 698.957 649.014H694.51C694.079 649.014 693.864 649.205 693.864 649.588V652.314C693.864 652.744 694.079 652.96 694.51 652.96H698.957C699.34 652.96 699.531 652.744 699.531 652.314V649.588ZM690.779 661.496H737.263C738.315 661.496 739.223 661.878 739.988 662.644C740.754 663.409 741.136 664.317 741.136 665.369C741.136 666.421 740.754 667.33 739.988 668.095C739.271 668.813 738.363 669.171 737.263 669.171H690.779C689.727 669.171 688.819 668.813 688.054 668.095C687.336 667.33 686.978 666.421 686.978 665.369C686.978 664.269 687.336 663.361 688.054 662.644C688.819 661.878 689.727 661.496 690.779 661.496ZM685.902 679.931C684.802 679.931 683.845 679.549 683.032 678.784C682.219 677.971 681.813 677.014 681.813 675.914V675.269C681.813 674.169 682.219 673.236 683.032 672.471C683.845 671.658 684.802 671.252 685.902 671.252H741.567C742.667 671.252 743.623 671.658 744.436 672.471C745.249 673.236 745.655 674.169 745.655 675.269V675.914C745.655 677.014 745.249 677.971 744.436 678.784C743.623 679.549 742.667 679.931 741.567 679.931H735.756C735.708 679.931 735.684 679.979 735.684 680.075C735.684 680.17 735.708 680.242 735.756 680.29C737.478 681.199 740.012 682.609 743.36 684.522C744.316 685.096 744.914 685.933 745.153 687.033C745.44 688.133 745.297 689.161 744.723 690.117L744.006 691.409C743.432 692.365 742.595 692.987 741.495 693.274C740.443 693.561 739.439 693.417 738.482 692.843C735.469 691.122 731.548 688.994 726.718 686.459C725.714 685.933 725.044 685.144 724.709 684.092C724.375 683.04 724.494 682.035 725.068 681.079L725.427 680.505C725.522 680.409 725.522 680.29 725.427 680.146C725.379 680.003 725.283 679.931 725.14 679.931H721.553C721.123 679.931 720.907 680.146 720.907 680.577V684.45C720.907 687.033 720.812 688.922 720.62 690.117C720.429 691.361 719.855 692.389 718.899 693.202C717.942 694.015 716.747 694.493 715.312 694.637C713.878 694.828 711.63 694.924 708.569 694.924C707.374 694.924 705.413 694.852 702.687 694.708C701.539 694.66 700.535 694.23 699.674 693.417C698.814 692.604 698.359 691.624 698.311 690.476L698.168 688.611C698.168 688.468 698.096 688.348 697.953 688.252C697.809 688.204 697.69 688.228 697.594 688.324C695.059 689.902 692.166 691.456 688.914 692.987C687.862 693.465 686.786 693.513 685.686 693.13C684.634 692.795 683.821 692.126 683.247 691.122L682.674 690.117C682.147 689.161 682.052 688.181 682.387 687.176C682.769 686.124 683.439 685.359 684.395 684.881C687.264 683.542 690.182 681.988 693.147 680.218C693.194 680.17 693.194 680.123 693.147 680.075C693.147 679.979 693.099 679.931 693.003 679.931H685.902ZM701.181 679.931C701.037 679.931 700.918 680.003 700.822 680.146C700.774 680.242 700.798 680.338 700.894 680.433L702.113 682.227C702.544 682.801 702.687 683.446 702.544 684.164C702.448 684.881 702.089 685.431 701.468 685.813C701.468 685.909 701.492 685.981 701.539 686.029C703.978 686.172 705.604 686.244 706.417 686.244C707.804 686.244 708.617 686.148 708.856 685.957C709.095 685.718 709.215 685 709.215 683.805V680.577C709.215 680.146 709 679.931 708.569 679.931H701.181ZM760.361 649.086C759.261 649.086 758.304 648.679 757.491 647.866C756.678 647.053 756.272 646.097 756.272 644.997V643.347C756.272 642.247 756.678 641.291 757.491 640.478C758.304 639.665 759.261 639.258 760.361 639.258C767.869 639.258 776.405 639.139 785.97 638.9C786.304 638.9 786.472 638.685 786.472 638.254C786.376 637.585 786.28 636.437 786.185 634.811C786.137 633.711 786.472 632.755 787.189 631.942C787.954 631.129 788.887 630.674 789.987 630.579L792.856 630.364C793.956 630.316 794.912 630.674 795.725 631.44C796.586 632.157 797.064 633.065 797.16 634.165C797.256 635.791 797.351 637.035 797.447 637.896C797.447 638.278 797.686 638.469 798.164 638.469C806.342 638.182 810.478 638.039 810.574 638.039C811.674 637.991 812.63 638.35 813.443 639.115C814.256 639.88 814.687 640.813 814.735 641.913L814.806 643.562C814.854 644.662 814.495 645.643 813.73 646.504C812.965 647.316 812.033 647.747 810.933 647.795L799.742 648.225C799.36 648.225 799.216 648.44 799.312 648.871C800.555 653.366 802.468 657.861 805.051 662.357C805.577 663.265 805.672 664.246 805.338 665.298C805.051 666.302 804.429 667.043 803.472 667.521L800.316 669.028C798.021 670.08 795.582 670.008 792.999 668.813C789.174 667.043 785.276 666.158 781.307 666.158C778.198 666.158 775.807 666.78 774.134 668.024C772.46 669.267 771.623 670.965 771.623 673.117C771.623 679.142 776.955 682.155 787.619 682.155C791.493 682.155 796.06 681.725 801.32 680.864C802.42 680.672 803.425 680.912 804.333 681.581C805.242 682.203 805.816 683.064 806.055 684.164L806.414 685.957C806.605 687.057 806.366 688.061 805.696 688.97C805.075 689.926 804.214 690.5 803.114 690.691C797.614 691.552 792.449 691.982 787.619 691.982C778.533 691.982 771.647 690.237 766.96 686.746C762.321 683.207 760.002 678.449 760.002 672.471C760.002 667.593 761.819 663.696 765.454 660.778C769.088 657.813 774.157 656.331 780.661 656.331C784.104 656.331 787.572 656.929 791.063 658.124L791.206 658.053V657.981C790.011 655.255 789.03 652.362 788.265 649.301C788.169 648.871 787.906 648.656 787.476 648.656C775.329 648.942 766.291 649.086 760.361 649.086ZM826.14 671.467C830.062 667.545 834.557 663.098 839.626 658.124C839.961 657.79 840.128 657.455 840.128 657.12V651.238C840.128 650.808 839.913 650.592 839.483 650.592H829.225C828.125 650.592 827.168 650.21 826.355 649.445C825.542 648.632 825.136 647.675 825.136 646.575V644.854C825.136 643.754 825.542 642.821 826.355 642.056C827.168 641.243 828.125 640.837 829.225 640.837H839.483C839.913 640.837 840.128 640.621 840.128 640.191V634.811C840.128 633.711 840.511 632.779 841.276 632.013C842.089 631.2 843.045 630.794 844.145 630.794H847.015C848.114 630.794 849.071 631.2 849.884 632.013C850.697 632.779 851.103 633.711 851.103 634.811V646.79C851.103 646.886 851.151 646.982 851.247 647.077C851.39 647.125 851.486 647.101 851.534 647.006C855.694 643.323 858.898 640.956 861.146 639.904C863.394 638.852 865.833 638.326 868.463 638.326C872.336 638.326 875.086 639.498 876.712 641.841C878.386 644.184 879.223 648.464 879.223 654.681C879.223 657.216 878.888 660.157 878.219 663.504C877.549 667.043 877.214 669.96 877.214 672.256C877.214 676.225 877.956 678.21 879.438 678.21C880.347 678.21 881.734 677.468 883.599 675.986C884.412 675.316 885.344 675.053 886.396 675.197C887.496 675.34 888.357 675.842 888.979 676.703L889.839 677.994C890.557 678.951 890.844 680.027 890.7 681.222C890.605 682.37 890.126 683.327 889.266 684.092C884.675 687.918 880.299 689.83 876.138 689.83C872.504 689.83 869.826 688.611 868.104 686.172C866.43 683.733 865.594 679.501 865.594 673.475C865.594 671.467 865.952 668.526 866.67 664.652C867.339 661.304 867.674 658.387 867.674 655.901C867.674 651.884 866.933 649.875 865.45 649.875C865.02 649.875 864.494 650.066 863.872 650.449C863.298 650.784 861.983 651.836 859.927 653.605C857.87 655.327 855.073 657.885 851.534 661.281C851.247 661.568 851.103 661.902 851.103 662.285V688.898C851.103 689.998 850.697 690.93 849.884 691.696C849.071 692.508 848.114 692.915 847.015 692.915H844.145C843.045 692.915 842.089 692.508 841.276 691.696C840.511 690.93 840.128 689.998 840.128 688.898V672.973C840.128 672.877 840.056 672.806 839.913 672.758C839.77 672.71 839.674 672.734 839.626 672.83C838.526 673.93 836.494 675.914 833.529 678.784C832.764 679.596 831.807 680.003 830.659 680.003C829.512 680.003 828.531 679.596 827.718 678.784L826.14 677.205C825.327 676.392 824.921 675.436 824.921 674.336C824.921 673.236 825.327 672.28 826.14 671.467ZM921.043 682.872C923.817 682.872 925.706 682.49 926.71 681.725C927.762 680.912 928.336 679.333 928.432 676.99C928.432 676.608 928.265 676.345 927.93 676.201C925.921 675.436 924.032 675.053 922.263 675.053C917.72 675.053 915.448 676.321 915.448 678.855C915.448 681.533 917.313 682.872 921.043 682.872ZM904.688 646.79C903.588 646.79 902.632 646.384 901.819 645.571C901.006 644.758 900.599 643.802 900.599 642.702V641.052C900.599 639.952 901.006 638.995 901.819 638.182C902.632 637.369 903.588 636.963 904.688 636.963H927.858C928.241 636.963 928.432 636.772 928.432 636.389V634.739C928.432 633.639 928.838 632.683 929.651 631.87C930.464 631.057 931.421 630.65 932.521 630.65H935.39C936.49 630.65 937.446 631.057 938.259 631.87C939.072 632.683 939.479 633.639 939.479 634.739V636.389C939.479 636.772 939.67 636.963 940.053 636.963H953.18C954.28 636.963 955.236 637.369 956.049 638.182C956.862 638.995 957.269 639.952 957.269 641.052V642.702C957.269 643.802 956.862 644.758 956.049 645.571C955.236 646.384 954.28 646.79 953.18 646.79H940.053C939.67 646.79 939.479 647.006 939.479 647.436V650.736C939.479 651.118 939.67 651.31 940.053 651.31H950.454C951.554 651.31 952.51 651.716 953.323 652.529C954.136 653.342 954.543 654.299 954.543 655.398V656.833C954.543 657.933 954.136 658.889 953.323 659.702C952.51 660.515 951.554 660.922 950.454 660.922H940.053C939.67 660.922 939.479 661.113 939.479 661.496V670.462C939.479 670.845 939.67 671.156 940.053 671.395C943.878 673.69 948.111 676.871 952.75 680.936C953.61 681.701 954.065 682.657 954.112 683.805C954.16 684.905 953.802 685.861 953.036 686.674L951.745 688.109C950.98 688.922 950.048 689.352 948.948 689.4C947.848 689.496 946.891 689.161 946.078 688.396C943.305 685.957 941.009 684.068 939.192 682.729C938.905 682.538 938.714 682.633 938.618 683.016C937.614 686.411 935.701 688.874 932.879 690.404C930.058 691.935 926.113 692.7 921.043 692.7C915.783 692.7 911.67 691.48 908.705 689.041C905.788 686.65 904.33 683.255 904.33 678.855C904.33 674.743 905.716 671.491 908.49 669.1C911.312 666.708 915.496 665.513 921.043 665.513C923.195 665.513 925.467 665.776 927.858 666.302C928.241 666.398 928.432 666.23 928.432 665.8V661.496C928.432 661.113 928.241 660.922 927.858 660.922H907.414C906.314 660.922 905.358 660.515 904.545 659.702C903.732 658.889 903.325 657.933 903.325 656.833V655.398C903.325 654.299 903.732 653.342 904.545 652.529C905.358 651.716 906.314 651.31 907.414 651.31H927.858C928.241 651.31 928.432 651.118 928.432 650.736V647.436C928.432 647.006 928.241 646.79 927.858 646.79H904.688ZM999.376 692.198C993.685 692.198 989.262 691.361 986.106 689.687C982.997 688.013 980.726 685.168 979.291 681.151C977.856 677.086 977.139 671.371 977.139 664.006C977.139 654.299 977.378 645.045 977.856 636.246C977.952 635.098 978.406 634.141 979.219 633.376C980.032 632.611 981.012 632.252 982.16 632.3L985.962 632.372C987.062 632.42 987.971 632.85 988.688 633.663C989.453 634.476 989.812 635.433 989.764 636.533C989.238 645.906 988.975 655.064 988.975 664.006C988.975 670.941 989.716 675.556 991.199 677.851C992.729 680.099 995.455 681.222 999.376 681.222C1003.15 681.222 1006.6 679.955 1009.71 677.421C1012.81 674.886 1015.68 670.797 1018.31 665.154C1018.79 664.102 1019.53 663.361 1020.54 662.93C1021.59 662.5 1022.64 662.476 1023.69 662.859L1026.49 663.935C1027.59 664.317 1028.36 665.035 1028.79 666.087C1029.27 667.091 1029.27 668.119 1028.79 669.171C1022.19 684.522 1012.38 692.198 999.376 692.198ZM1075.84 662.5C1074.74 662.596 1073.76 662.285 1072.9 661.568C1072.09 660.85 1071.64 659.942 1071.54 658.842L1071.4 657.407C1071.3 656.307 1071.61 655.327 1072.33 654.466C1073.09 653.557 1074.03 653.055 1075.13 652.96C1082.87 652.242 1090.17 651.86 1097.01 651.812C1098.11 651.812 1099.04 652.218 1099.8 653.031C1100.62 653.844 1101.02 654.801 1101.02 655.901V657.335C1101.02 658.435 1100.62 659.392 1099.8 660.205C1098.99 661.018 1098.03 661.424 1096.93 661.424C1089.81 661.472 1082.78 661.831 1075.84 662.5ZM1097.44 680.72C1098.54 680.577 1099.52 680.84 1100.38 681.509C1101.29 682.131 1101.81 682.992 1101.95 684.092L1102.17 685.813C1102.31 686.961 1102.05 687.965 1101.38 688.826C1100.71 689.735 1099.83 690.285 1098.73 690.476C1094.81 691.002 1091.1 691.265 1087.61 691.265C1080.77 691.265 1075.32 690.022 1071.25 687.535C1067.24 685 1065.23 681.772 1065.23 677.851C1065.23 675.125 1066.49 672.399 1069.03 669.673C1069.84 668.765 1070.87 668.215 1072.11 668.024C1073.4 667.832 1074.6 668.024 1075.7 668.597L1076.92 669.171C1077.78 669.602 1078.28 670.295 1078.43 671.252C1078.57 672.208 1078.31 673.045 1077.64 673.762C1076.73 674.766 1076.27 675.723 1076.27 676.632C1076.27 678.018 1077.25 679.166 1079.22 680.075C1081.22 680.983 1084.02 681.438 1087.61 681.438C1090.67 681.438 1093.94 681.199 1097.44 680.72ZM1045.64 690.835C1044.59 690.596 1043.8 689.998 1043.28 689.041C1042.75 688.133 1042.66 687.152 1042.99 686.1C1047.05 673.188 1050.38 660.539 1052.96 648.153C1053.01 648.01 1052.96 647.866 1052.82 647.723C1052.72 647.58 1052.6 647.508 1052.46 647.508H1047.94C1046.84 647.508 1045.88 647.101 1045.07 646.288C1044.26 645.475 1043.85 644.519 1043.85 643.419V641.769C1043.85 640.669 1044.26 639.713 1045.07 638.9C1045.88 638.087 1046.84 637.68 1047.94 637.68H1054.32C1054.75 637.68 1055.02 637.465 1055.11 637.035C1055.21 636.604 1055.33 636.007 1055.47 635.241C1055.62 634.476 1055.71 633.878 1055.76 633.448C1055.95 632.3 1056.5 631.392 1057.41 630.722C1058.32 630.005 1059.35 629.694 1060.49 629.79L1063.36 630.005C1064.46 630.1 1065.35 630.603 1066.02 631.511C1066.69 632.372 1066.93 633.328 1066.73 634.381C1066.69 634.668 1066.61 635.122 1066.52 635.744C1066.42 636.365 1066.35 636.82 1066.3 637.106C1066.21 637.489 1066.38 637.68 1066.81 637.68H1086.68C1087.78 637.68 1088.71 638.087 1089.47 638.9C1090.29 639.713 1090.69 640.669 1090.69 641.769V643.419C1090.69 644.519 1090.29 645.475 1089.47 646.288C1088.71 647.101 1087.78 647.508 1086.68 647.508H1064.94C1064.56 647.508 1064.32 647.699 1064.22 648.082C1061.4 662.38 1057.98 675.866 1053.97 688.539C1053.63 689.639 1052.94 690.476 1051.88 691.05C1050.88 691.624 1049.83 691.791 1048.73 691.552L1045.64 690.835Z" fill="#1E1E1E"/>
<g clip-path="url(#clip0_603_12739)">
<path d="M197.665 661.119C173.211 692.387 198.402 726.806 177.545 737.864C214.576 763.607 246.788 702.653 197.665 661.119Z" fill="#2E2319"/>
<path d="M197.665 661.119C148.071 693.893 191.669 723.74 177.545 737.864C196.586 744.786 217.006 724.041 197.665 661.119Z" fill="#4F4236"/>
<path d="M197.664 661.119C184.128 688.149 214.309 737.209 177.545 737.864C203.987 749.506 224.936 723.082 197.664 661.119Z" fill="#403429"/>
<path d="M182.3 734.325C193.384 723.988 163.492 688.856 198.402 666.517C173.109 691.686 202.067 726.401 182.3 734.325Z" fill="#635547"/>
<path d="M315.201 661.119C339.655 692.387 314.464 726.806 335.32 737.864C298.29 763.607 266.078 702.653 315.201 661.119Z" fill="#2E2319"/>
<path d="M315.201 661.119C364.795 693.893 321.197 723.74 335.321 737.864C316.28 744.786 295.86 724.041 315.201 661.119Z" fill="#4F4236"/>
<path d="M315.2 661.119C328.737 688.149 298.556 737.209 335.32 737.864C308.877 749.506 287.929 723.082 315.2 661.119Z" fill="#403429"/>
<path d="M330.565 734.325C319.481 723.988 349.372 688.856 314.463 666.517C339.755 691.686 310.798 726.401 330.565 734.325Z" fill="#635547"/>
<path d="M256.432 577.558C204.298 577.588 171.296 623.449 191.602 682.356H321.263C341.569 623.449 308.56 577.588 256.432 577.558Z" fill="#403429"/>
<path d="M190.681 657.872C198.868 658.872 204.774 686.528 199.633 693.824C198.91 694.848 194.69 696.473 191.566 690.032C189.832 686.468 184.835 683.488 183.288 676.131C181.301 666.704 182.541 656.879 190.681 657.872Z" fill="#FFD8B4"/>
<path d="M190.904 663.176C193.041 663.85 195.371 667.137 196.635 672.591C189.17 670.972 191.036 683.518 197.52 683.752C197.466 685.017 197.382 686.317 197.225 687.677C194.101 683.102 190.928 684.938 187.78 678.124C184.944 671.983 185.618 661.502 190.904 663.176Z" fill="#DEB38A"/>
<path d="M322.179 657.872C313.997 658.871 308.085 686.528 313.239 693.824C313.955 694.848 318.175 696.473 321.306 690.031C323.04 686.467 328.03 683.487 329.577 676.131C331.564 666.703 330.324 656.873 322.179 657.872Z" fill="#FFD8B4"/>
<path d="M316.236 672.573C317.5 667.131 319.824 663.85 321.955 663.176C327.247 661.496 327.921 671.983 325.086 678.123C321.943 684.938 318.765 683.102 315.64 687.677C315.484 686.311 315.399 685.011 315.345 683.746C321.763 683.439 323.605 671.05 316.236 672.573Z" fill="#DEB38A"/>
<path d="M256.438 586.805C211.709 586.805 190.157 620.644 192.86 667.697C193.402 677.16 199.265 698.791 204.81 709.868C214.598 729.421 240.148 744.002 256.432 744.002C272.705 744.002 298.284 729.421 308.061 709.868C313.611 698.791 319.475 677.16 320.011 667.697C322.72 620.644 301.168 586.805 256.438 586.805Z" fill="#FFD8B4"/>
<path d="M266.86 694.137C265.758 693.367 263.163 694.553 256.433 694.553C249.702 694.553 247.108 693.367 246 694.137C244.682 695.071 246.789 699.272 256.433 699.272C266.077 699.272 268.19 695.071 266.86 694.137Z" fill="#DEB38A"/>
<path d="M256.432 709.133C246.349 706.165 231.401 710.542 231.401 710.542C237.09 716.743 241.262 724.779 256.432 724.779C273.806 724.779 276.769 715.647 281.47 710.542C281.47 710.542 266.51 706.153 256.432 709.133Z" fill="#DEB38A"/>
<path d="M235.151 711.59C245.728 720.463 267.075 720.517 277.713 711.59C266.443 712.071 246.505 712.077 235.151 711.59Z" fill="white"/>
<path d="M246.789 671.116C247.156 673.988 245.212 677.389 239.818 679.936C236.392 681.561 229.264 683.469 219.903 679.52C215.707 677.75 211.619 672.236 211.987 669.19C217.062 659.624 242.039 658.221 246.789 671.116Z" fill="white"/>
<path d="M229.842 661.111C235.261 661.111 239.655 665.506 239.655 670.924C239.655 676.342 235.261 680.737 229.842 680.737C224.418 680.737 220.03 676.342 220.03 670.924C220.03 665.506 224.418 661.111 229.842 661.111Z" fill="url(#paint1_linear_603_12739)"/>
<path d="M224.936 670.743C224.936 677.534 234.748 677.534 234.748 670.743C234.748 664.44 224.936 664.44 224.936 670.743Z" fill="#1A1626"/>
<path d="M223.448 667.998C223.448 670.84 227.56 670.84 227.56 667.998C227.56 665.355 223.448 665.355 223.448 667.998Z" fill="#AB968C"/>
<path d="M246.837 671.496C242.852 658.685 215.683 660.575 211.987 669.19C213.353 658.167 243.442 655.253 246.837 671.496Z" fill="#DEB38A"/>
<path d="M266.083 671.116C265.71 673.988 267.66 677.389 273.054 679.936C276.474 681.561 283.601 683.469 292.969 679.52C297.164 677.75 301.252 672.236 300.885 669.19C295.816 659.624 270.827 658.221 266.083 671.116Z" fill="white"/>
<path d="M282.806 661.111C288.23 661.111 292.625 665.506 292.625 670.924C292.625 676.342 288.23 680.737 282.806 680.737C277.388 680.737 272.993 676.342 272.993 670.924C272.993 665.506 277.388 661.111 282.806 661.111Z" fill="url(#paint2_linear_603_12739)"/>
<path d="M277.907 670.743C277.907 677.534 287.72 677.534 287.72 670.743C287.72 664.44 277.907 664.44 277.907 670.743Z" fill="#1A1626"/>
<path d="M276.413 667.998C276.413 670.84 280.524 670.84 280.524 667.998C280.524 665.355 276.413 665.355 276.413 667.998Z" fill="#AB968C"/>
<path d="M266.034 671.496C270.013 658.691 297.164 660.527 300.885 669.19C299.506 658.167 269.43 655.253 266.034 671.496Z" fill="#DEB38A"/>
<path d="M301.377 658.207C295.076 651.772 283.529 647.469 269.762 651.278C268.299 651.682 268.394 656.242 269.584 655.933C282.169 652.671 292.682 654.726 300.561 661.387C301.485 662.168 302.419 659.271 301.377 658.207Z" fill="#826D58"/>
<path d="M211.495 658.207C217.797 651.772 229.343 647.469 243.111 651.278C244.573 651.682 244.479 656.242 243.288 655.933C230.704 652.671 220.191 654.726 212.311 661.387C211.387 662.168 210.453 659.271 211.495 658.207Z" fill="#826D58"/>
<path d="M256.415 579.099C230.197 579.093 207.685 593.804 197.52 611.369C188.262 627.367 186.437 655.62 194.745 678.81C195.822 656.56 208.158 645.356 207.405 620.872C281.091 620.872 311.309 644.612 318.079 678.81C334.809 632.1 308.465 579.099 256.415 579.099Z" fill="#403429"/>
<path d="M255.015 579.115C228.798 579.115 207.684 593.804 197.519 611.369C188.261 627.367 184.384 647.887 194.744 678.81C189.432 644.708 204.034 617.995 204.034 617.995C275.655 610.225 310.44 641.915 318.078 678.81C319.744 666.221 318.11 607.817 252.965 602.754C301.415 598.377 318.078 622.481 319.234 658.703C332.141 611.528 290.003 579.115 255.015 579.115Z" fill="#4F4236"/>
<path d="M318.079 678.81C303.567 615.683 201.557 621.187 201.557 621.187C201.557 621.187 309.314 609.261 318.079 678.81Z" fill="#2E2319"/>
<path d="M194.745 678.81C193.806 652.496 207.724 640.649 206.231 613.486C211.986 639.3 199.585 652.111 194.745 678.81Z" fill="#2E2319"/>
<path d="M319.235 658.703C325.117 569.786 187.732 569.786 193.613 658.703C198.736 584.023 314.112 584.023 319.235 658.703Z" fill="#CFD8DD"/>
<path d="M319.235 655.825C325.117 566.908 187.732 566.908 193.613 655.825C198.736 581.146 314.112 581.146 319.235 655.825Z" fill="white"/>
<path d="M194.378 622.481C220.596 564.458 275.117 586.931 275.117 586.931C275.117 586.931 223.609 573.898 194.378 622.481Z" fill="#635547"/>
<path d="M306.649 641.882C280.525 613.486 239.654 608.491 239.654 608.491C239.654 608.491 286.999 601.684 306.649 641.882Z" fill="#635547"/>
</g>
<defs>
<filter id="filter0_d_603_12739" x="5.36668" y="427.704" width="1273.27" height="484.2" filterUnits="userSpaceOnUse" color-interpolation-filters="sRGB">
<feFlood flood-opacity="0" result="BackgroundImageFix"/>
<feColorMatrix in="SourceAlpha" type="matrix" values="0 0 0 0 0 0 0 0 0 0 0 0 0 0 0 0 0 0 127 0" result="hardAlpha"/>
<feOffset dy="8.96667"/>
<feGaussianBlur stdDeviation="49.3167"/>
<feComposite in2="hardAlpha" operator="out"/>
<feColorMatrix type="matrix" values="0 0 0 0 0.19967 0 0 0 0 0.216601 0 0 0 0 0.241997 0 0 0 0.5 0"/>
<feBlend mode="normal" in2="BackgroundImageFix" result="effect1_dropShadow_603_12739"/>
<feBlend mode="normal" in="SourceGraphic" in2="effect1_dropShadow_603_12739" result="shape"/>
</filter>
<linearGradient id="paint0_linear_603_12739" x1="591.612" y1="1264.48" x2="693.981" y2="1134.84" gradientUnits="userSpaceOnUse">
<stop stop-color="#EEDA00"/>
<stop offset="0.727447" stop-color="#FDF505"/>
<stop offset="1" stop-color="#FFFC79"/>
</linearGradient>
<linearGradient id="paint1_linear_603_12739" x1="229.842" y1="680.737" x2="229.842" y2="661.112" gradientUnits="userSpaceOnUse">
<stop stop-color="#A6694A"/>
<stop offset="1" stop-color="#4F2A1E"/>
</linearGradient>
<linearGradient id="paint2_linear_603_12739" x1="282.808" y1="680.737" x2="282.808" y2="661.112" gradientUnits="userSpaceOnUse">
<stop stop-color="#A6694A"/>
<stop offset="1" stop-color="#4F2A1E"/>
</linearGradient>
<clipPath id="clip0_603_12739">
<rect width="197.267" height="197.267" fill="white" transform="translate(157.799 562.204)"/>
</clipPath>
</defs>
</svg>
