<?xml version="1.0" encoding="utf-8"?>
<!-- Generator: Adobe Illustrator 24.1.2, SVG Export Plug-In . SVG Version: 6.00 Build 0)  -->
<svg version="1.1" id="Layer_1" xmlns="http://www.w3.org/2000/svg" xmlns:xlink="http://www.w3.org/1999/xlink" x="0px" y="0px"
	 viewBox="0 0 64 64" style="enable-background:new 0 0 64 64;" xml:space="preserve">
<style type="text/css">
	.st0{fill:#774212;}
	.st1{fill:#1B9E86;}
	.st2{fill:url(#SVGID_1_);}
	.st3{fill:url(#SVGID_2_);}
	.st4{fill:#FFC940;}
	.st5{fill:#1A1626;}
	.st6{fill:#F0A429;}
	.st7{fill:#302C3B;}
	.st8{fill:#E6EBEF;}
	.st9{fill:#F5BB51;}
	.st10{fill:#FF000E;}
	.st11{fill:#D6000C;}
	.st12{fill:#D47706;}
	.st13{fill:#FFFFFF;}
	.st14{fill:#BB7C0A;}
	.st15{fill:url(#Oval_1_);}
	.st16{fill:#AB968C;}
	.st17{fill:#45332C;}
	.st18{fill:url(#Oval_2_);}
	.st19{opacity:0.5;fill:url(#SVGID_3_);enable-background:new    ;}
	.st20{opacity:0.5;fill:url(#SVGID_4_);enable-background:new    ;}
	.st21{fill:#FFB80D;}
	.st22{fill:#F9A307;}
	.st23{fill:#E68C00;}
	.st24{fill:#FFCA25;}
</style>
<rect class="st0" width="64" height="50.0291"/>
<rect x="2" y="2.0012" class="st1" width="60" height="46.0267"/>
<linearGradient id="SVGID_1_" gradientUnits="userSpaceOnUse" x1="32" y1="47.5276" x2="32" y2="2.5014">
	<stop  offset="0" style="stop-color:#1B9E86"/>
	<stop  offset="0.1142" style="stop-color:#20A38C"/>
	<stop  offset="0.6573" style="stop-color:#35B8A3"/>
	<stop  offset="1" style="stop-color:#3DBFAB"/>
</linearGradient>
<rect x="2.5" y="2.5014" class="st2" width="59" height="45.0262"/>
<radialGradient id="SVGID_2_" cx="22.482" cy="35.438" r="20.0876" gradientUnits="userSpaceOnUse">
	<stop  offset="0" style="stop-color:#BF6000"/>
	<stop  offset="0.3971" style="stop-color:#DC8103"/>
	<stop  offset="0.7719" style="stop-color:#F19A06"/>
	<stop  offset="1" style="stop-color:#F9A307"/>
</radialGradient>
<path class="st3" d="M27.6816,34.9138c10.4897-4.1956,9.4408-14.16,9.4408-14.16H7.7543c0,0-1.0489,9.9644,9.4387,14.16
	c0,0,2.0988,0.5244,5.2443,0.5244C25.5849,35.4382,27.6816,34.9138,27.6816,34.9138z"/>
<path class="st4" d="M48.1464,30.4976c0.2274-0.8441,2.0906,0.2971,1.3082,1.6932c-0.3161,0.5633,4.0301,5.1061,3.6538,6.0996
	c-1.0718,2.8277-3.3211,1.6961-4.3982,6.7687c-0.1548,0.7294-4.7096-1.8759-4.4084-2.6749c1.4552-3.8617,0.833-5.5998,2.046-7.2768
	C48.3754,32.307,47.772,31.8793,48.1464,30.4976z"/>
<path class="st5" d="M55.4602,12.0668c0.0841-0.3503-0.3711-0.4955-0.4661-0.1453c-2.6424,9.7457-6.8767,25.2486-8.2496,29.9035
	c-0.2967,1.0088,1.3582,1.6076,1.6051,0.586C50.1241,35.051,52.3679,24.9647,55.4602,12.0668z"/>
<path class="st4" d="M52.4082,33.1156c1.0075,0.9394,0.4492,1.9579,0.4492,1.9579c0.7847,0.983,0.263,2.1709,0.263,2.1709
	c0.8355,2.5598-5.1733,3.6057-3.9313,1.2364c-1.6072,0.1694-2.0252-1.4704-0.3806-1.8965c-1.8478,0.2808-1.5566-1.7949-0.4558-2.008
	c0.4131-0.079,0.8364-0.2631,1.3141-0.3502c-1.8818,0.2582-1.568-1.6367-0.6259-2.0369c1.0445-0.4406,2.1745-0.6586,2.568-0.5811
	C52.3881,31.7599,52.5114,32.7605,52.4082,33.1156z"/>
<path class="st6" d="M48.294,33.3174c-0.117,1.8174,2.8254,0.6165,3.2593,0.2405C49.6281,34.3795,48.3247,34.0163,48.294,33.3174z"
	/>
<path class="st6" d="M49.0214,39.0263c-0.1168,1.8174,2.7997,0.6133,3.2336,0.2357C50.3296,40.0852,49.052,39.7268,49.0214,39.0263z
	"/>
<path class="st6" d="M47.4769,35.6675c-0.117,1.8174,2.9455,0.8166,4.3763-0.134C48.986,36.9297,47.5068,36.3663,47.4769,35.6675z"
	/>
<path class="st6" d="M47.7632,37.6269c-0.1168,1.8174,3.0239,0.8668,4.4547-0.0839C49.3506,38.9407,47.7948,38.3274,47.7632,37.6269
	z"/>
<path class="st7" d="M50.3823,44.8574c-3.6732,5.3507-2.6222,16.7252-8.0579,16.7252c-1.9614,0-6.8601-6.0776-7.6903-10.8891
	c-0.2505-1.4514,0.6077-13.5032,2.6157-12.7066c1.3102,0.5197,4.3788,10.9973,4.3788,10.9973s2.0036-5.8877,2.4254-7.1117
	C47.0698,45.2279,50.3823,44.8574,50.3823,44.8574z"/>
<path class="st7" d="M28.5822,33.0937l-12.326,0.0201l-8.6295,4.875l3.36,23.2639C11.2637,63.2542,15.9383,64,22.4203,64
	c6.4826,0,11.1536-0.7443,11.4337-2.7445l3.3958-23.2686L28.5822,33.0937z"/>
<polygon class="st8" points="26.3712,48.8997 28.747,33.3154 16.1271,33.3154 18.4569,48.8997 "/>
<path class="st9" d="M28.4633,37.5886c0,0-0.0003-4.5905-0.0003-4.5904l-0.8569-0.4722v-3.9051H17.2678v3.9051l-0.8555,0.4722
	l-0.0012,4.5904C18.4576,39.6362,26.417,39.6362,28.4633,37.5886z"/>
<path class="st5" d="M27.223,49.364c0,0,3.8974-6.4122,4.6343-8.1829l-2.1535-1.0781l2.6579-0.4885c0,0-2.1173-5.8511-3.8987-6.6163
	L26.2354,49.364H27.223z"/>
<path class="st5" d="M13.0191,41.1811c0.7369,1.7707,4.6343,8.1829,4.6343,8.1829h0.9877l-2.2288-16.3658
	c-1.7808,0.7652-3.8973,6.6163-3.8973,6.6163l2.6572,0.4885L13.0191,41.1811z"/>
<path class="st7" d="M26.9182,49.364c0,0,3.6492-6.4122,4.3391-8.1829l-2.2192-1.1778l2.6914-0.4885
	c0,0-1.4851-5.7514-3.2665-6.5166c0,0-1.2528,9.4486-3.2402,16.3658H26.9182z"/>
<path class="st7" d="M13.6191,41.1811c0.6901,1.7707,4.3391,8.1829,4.3391,8.1829h1.6952
	c-1.9877-6.9172-3.2411-16.3658-3.2411-16.3658c-1.7808,0.7652-3.2651,6.5166-3.2651,6.5166l2.6906,0.4885L13.6191,41.1811z"/>
<path class="st10" d="M30.8519,43.5002c0,0,0-0.644-0.6435-0.644H18.6237v14.8113h12.2282V43.5002z"/>
<path class="st11" d="M16.0492,57.6675V44.1442c0-1.288,0.6436-1.288,0.6436-1.288h1.9309v14.8113H16.0492z"/>
<path class="st4" d="M28.9042,55.794c0,0,2.5653-0.5117,2.6285-1.7989c0.024-0.4866-2.0329,0.3808-4.7098,0.4372
	c-0.8002,0.0169-1.2207,0.8569-1.9658,1.3335c0,0-1.92,0.5242-3.5705,0.2387l0.0949,4.7164l2.1348,0.0728
	c0.8922,0.8336,2.9192,1.4035,4.2481,1.2014c1.828-0.2792,3.9019-1.9135,3.6523-3.3239
	C33.6598,55.9273,29.319,57.2631,28.9042,55.794z"/>
<path class="st6" d="M29.8751,58.9834c0,0,1.2333,0.2643,1.5416-0.3122C30.8735,58.8951,29.8751,58.9834,29.8751,58.9834z"/>
<path class="st6" d="M29.141,60.5848c0,0,1.4131,0.246,1.7215-0.327C30.3192,60.4783,29.141,60.5848,29.141,60.5848z"/>
<path class="st6" d="M28.0543,61.514c0,0,1.2444,0.3637,1.5566-0.2093C29.0636,61.5251,28.0543,61.514,28.0543,61.514z"/>
<path class="st7" d="M22.0613,55.7986c-3.2559,0.032-10.1705,0.1495-10.1705,0.1495S9.9332,37.4612,7.6267,37.9889
	c-1.0176,0.2328-2.7249,3.1498-3.0331,6.2682C4.214,48.0979,5.5919,61.1789,6.8714,62.3634
	C8.6392,64,22.1297,61.2447,22.1297,61.2447S21.6346,58.7584,22.0613,55.7986z"/>
<path class="st5" d="M22.0613,55.7986c-4.9252-0.3551-10.044,0.05-10.044,0.05s-1.3209-15.8453-4.3906-17.8597
	c2.7216,2.8074,3.5141,14.8782,3.8845,18.2757C17.3365,56.3201,22.0613,55.7986,22.0613,55.7986z"/>
<path class="st4" d="M22.4383,5.546c-7.6103,0-11.2763,6.1981-10.8184,14.1672c0.0942,1.601,0.5398,3.9118,1.0898,5.8917
	c1.1411,4.1157,7.1639,8.26,9.7286,8.26c2.5638,0,8.5866-4.1443,9.7287-8.26c0.5501-1.9799,0.9956-4.2907,1.0898-5.8917
	C33.7136,11.7441,30.0498,5.546,22.4383,5.546z"/>
<path class="st12" d="M22.4373,27.3954c-1.7832-0.7846-1.7976-0.0317-4.5508,0.1526c1.0334,1.1739,1.7945,2.6827,4.5498,2.6827
	c3.163,0,3.6977-1.7137,4.554-2.6827C24.2339,27.3637,24.2226,26.6108,22.4373,27.3954z"/>
<path class="st13" d="M18.7131,27.841c1.7975,1.8704,5.6745,1.8458,7.4496,0.001C23.395,28.1391,21.4817,28.1391,18.7131,27.841z"/>
<path class="st14" d="M30.5251,17.0612c-1.6532-0.9854-4.6196-1.1062-5.7924-0.4343c-0.2489,0.1352-0.1823,0.8471,0.0328,0.758
	c1.6737-0.6965,4.2242-0.7313,5.7954,0.0748C30.7709,17.5662,30.776,17.2047,30.5251,17.0612z"/>
<path class="st14" d="M14.3506,17.0612c1.6532-0.9854,4.6185-1.1062,5.7944-0.4343c0.249,0.1352,0.1824,0.8471-0.0338,0.758
	c-1.6747-0.6965-4.2221-0.7324-5.7954,0.0748C14.1048,17.5662,14.1008,17.2047,14.3506,17.0612z"/>
<path class="st6" d="M24.1489,24.8664c-0.1813-0.127-0.6064,0.0686-1.7116,0.0686c-1.1041,0-1.5292-0.1956-1.7105-0.0686
	c-0.2171,0.1527,0.128,0.842,1.7105,0.842C24.0199,25.7084,24.3671,25.0201,24.1489,24.8664z"/>
<path id="Path_1825_" class="st13" d="M20.7452,20.0512c0.0645,0.5029-0.2776,1.1001-1.224,1.5477
	c-0.6013,0.2847-1.8519,0.6197-3.4959-0.0737c-0.7364-0.3104-1.4545-1.2774-1.3899-1.812
	C15.5265,18.0333,19.9115,17.7875,20.7452,20.0512z"/>
<linearGradient id="Oval_1_" gradientUnits="userSpaceOnUse" x1="-425.7184" y1="478.9558" x2="-425.7184" y2="479.4801" gradientTransform="matrix(6.5701 0 0 -6.5701 2814.7817 3168.5269)">
	<stop  offset="0" style="stop-color:#A6694A"/>
	<stop  offset="1" style="stop-color:#4F2A1E"/>
</linearGradient>
<path id="Oval_262_" class="st15" d="M17.7697,18.2945c0.9515,0,1.7228,0.7713,1.7228,1.7229c0,0.9505-0.7713,1.7219-1.7228,1.7219
	c-0.9516,0-1.7229-0.7714-1.7229-1.7219C16.0468,19.0658,16.8181,18.2945,17.7697,18.2945z"/>
<path id="Path_1795_" class="st5" d="M16.9093,19.9856c0,1.1913,1.7228,1.1913,1.7228,0
	C18.6321,18.8794,16.9093,18.8794,16.9093,19.9856z"/>
<path id="Path_1794_" class="st16" d="M16.6471,19.5032c0,0.4998,0.7221,0.4998,0.7221,0
	C17.3692,19.0402,16.6471,19.0402,16.6471,19.5032z"/>
<path id="Path_1792_" class="st17" d="M20.7534,20.1178c-0.6996-2.2484-5.4686-1.9165-6.118-0.4046
	C14.8761,17.7772,20.1573,17.2661,20.7534,20.1178z"/>
<path id="Path_1791_" class="st13" d="M24.1315,20.0512c-0.0645,0.5029,0.2776,1.1001,1.224,1.5477
	c0.6013,0.2847,1.8519,0.6197,3.4959-0.0737c0.7375-0.3104,1.4545-1.2774,1.39-1.812
	C29.3512,18.0333,24.9653,17.7875,24.1315,20.0512z"/>
<linearGradient id="Oval_2_" gradientUnits="userSpaceOnUse" x1="-427.0017" y1="478.9558" x2="-427.0017" y2="479.4801" gradientTransform="matrix(6.5701 0 0 -6.5701 2832.5122 3168.5269)">
	<stop  offset="0" style="stop-color:#A6694A"/>
	<stop  offset="1" style="stop-color:#4F2A1E"/>
</linearGradient>
<path id="Oval_261_" class="st18" d="M27.0681,18.2945c0.9516,0,1.7229,0.7713,1.7229,1.7229c0,0.9505-0.7713,1.7219-1.7229,1.7219
	c-0.9515,0-1.7228-0.7714-1.7228-1.7219C25.3453,19.0658,26.1166,18.2945,27.0681,18.2945z"/>
<path id="Path_1790_" class="st5" d="M26.2077,19.9856c0,1.1913,1.7229,1.1913,1.7229,0
	C27.9306,18.8794,26.2077,18.8794,26.2077,19.9856z"/>
<path id="Path_1789_" class="st16" d="M25.9455,19.5032c0,0.4998,0.7221,0.4998,0.7221,0
	C26.6676,19.0402,25.9455,19.0402,25.9455,19.5032z"/>
<path id="Path_1787_" class="st17" d="M24.1243,20.1178c0.6986-2.2474,5.4646-1.9257,6.1171-0.4046
	C29.9996,17.7772,24.7195,17.2661,24.1243,20.1178z"/>
<path class="st7" d="M32.835,18.3298c-0.9032,0-2.0406-0.9253-4.3039-0.9253c-3.4899,0-4.7773,0.669-6.0927,0.669
	c-1.3156,0-2.603-0.669-6.093-0.669c-2.2632,0-3.4005,0.9253-4.3037,0.9253c-0.1338,0-0.0999,0.7478-0.0087,0.7471
	c1.5919-0.0112,0.8783,2.7317,1.7896,3.8029c0.7744,0.9102,5.6449,1.0138,6.481,0.2985c1.4349-1.2272,1.1598-4.2352,2.1348-4.2352
	s0.6997,3.008,2.1345,4.2352c0.8363,0.7153,5.7067,0.6117,6.4811-0.2985c0.9112-1.0712,0.1976-3.8141,1.7897-3.8029
	C32.9347,19.0776,32.9687,18.3298,32.835,18.3298z M20.0414,22.7532c-0.4271,0.4739-4.9893,0.5176-5.8165-0.2222
	c-0.5586-0.4994-0.7337-3.6548-0.2307-4.0628c0.9843-0.7987,6.2543-0.5255,6.9451,0.2631
	C21.5079,19.3805,20.9557,21.7384,20.0414,22.7532z M30.6516,22.531c-0.8272,0.7398-5.3892,0.6961-5.8164,0.2222
	c-0.9144-1.0148-1.4664-3.3727-0.8978-4.0219c0.6907-0.7886,5.9608-1.0618,6.9451-0.2631
	C31.3854,18.8762,31.2102,22.0316,30.6516,22.531z"/>
<linearGradient id="SVGID_3_" gradientUnits="userSpaceOnUse" x1="17.4336" y1="23.0997" x2="17.4336" y2="17.9878">
	<stop  offset="0" style="stop-color:#FFFFFF;stop-opacity:0"/>
	<stop  offset="1" style="stop-color:#FFFFFF"/>
</linearGradient>
<path class="st19" d="M13.9942,18.4682c-0.503,0.408-0.3278,3.5633,0.2307,4.0628c0.8272,0.7398,5.3893,0.6961,5.8164,0.2222
	c0.9144-1.0148,1.4666-3.3727,0.898-4.0219C20.2484,17.9427,14.9785,17.6695,13.9942,18.4682z"/>
<linearGradient id="SVGID_4_" gradientUnits="userSpaceOnUse" x1="27.4431" y1="23.0997" x2="27.4431" y2="17.9878">
	<stop  offset="0" style="stop-color:#FFFFFF;stop-opacity:0"/>
	<stop  offset="1" style="stop-color:#FFFFFF"/>
</linearGradient>
<path class="st20" d="M30.8825,18.4682c-0.9844-0.7987-6.2543-0.5255-6.9451,0.2631c-0.5686,0.6492-0.0165,3.0071,0.8979,4.0219
	c0.4271,0.4739,4.9892,0.5176,5.8164-0.2222C31.2102,22.0315,31.3854,18.8762,30.8825,18.4682z"/>
<path class="st21" d="M31.0034,6.6584c0.8696-1.2404-6.4919-3.8606-13.4416-2.0905C10.6192,6.1576,6.7054,13.7623,6.7054,23.3617
	c0,3.8924,2.6758,8.7942,7.7003,10.7974l1.0489-0.5924c-5.558-4.8096-4.3793-9.6652-2.456-15.4341
	c5.2136-3.0186,11.1134-3.7294,15.2085-7.3422c-0.5244,1.5734,2.2514,3.5575,3.671,7.3422
	c1.9709,5.2552,3.0671,10.566-2.4663,15.4294l0.9861,0.5567c4.756-2.0278,7.7734-6.8897,7.7734-10.757
	C38.1713,12.0142,33.7864,5.8554,31.0034,6.6584z"/>
<path class="st22" d="M13.3252,17.8484c0,0-1.4905,0.2715-2.7096,1.5947c-2.5505,9.0075,3.5446,12.8743,3.5446,12.8743
	S9.3264,27.3575,13.3252,17.8484z"/>
<path class="st22" d="M9.5122,20.2994c0,0-0.7004,0.2742-1.556,2.0278c-0.7931,5.4919,3.0628,8.2896,3.0628,8.2896
	S7.4035,26.1993,9.5122,20.2994z"/>
<path class="st22" d="M31.0126,6.6614c0.8364-1.0009-2.8879-2.6694-7.5795-2.6694c5.758,0.4544,7.7208,3.5746,6.1227,2.7493
	c-1.7029-0.8795-5.8662-2.156-11.4424,0.3706c6.1012-1.2978,11.7135,0.1202,10.8408,0.8543
	c-1.3781,1.1595-7.4512-1.9979-15.956,5.7664c-1.1716,1.0696,5.1014-4.1038,13.5212-4.2678
	c-1.171,2.463-16.1462,6.3678-18.4699,12.4898C11.9482,16.3904,28.3872,14.3232,31.0126,6.6614z"/>
<path class="st22" d="M34.8256,15.5778c0,0,3.6513,9.9036-2.4667,16.7703C41.1227,25.4814,34.8256,15.5778,34.8256,15.5778z"/>
<path class="st22" d="M36.7894,13.3047c-2.6623-8.2853-5.7768-6.6433-5.7768-6.6433s-1.4983,2.8055-2.691,3.7898
	c-2.1549,2.647,5.2558,4.9167,5.0631,16.3831c1.9588-8.147-3.4881-13.594-3.576-15.0486c-0.0998-1.6492,1.2706-4.1846,2.3387-4.489
	C33.3066,6.9663,35.9615,11.0599,36.7894,13.3047z"/>
<path class="st23" d="M7.9405,22.3471c4.2171-6.88,19.8282-6.415,23.0721-15.6857C25.5448,15.118,8.9864,16.5279,7.9405,22.3471z"/>
<path class="st24" d="M30.8621,10.3638c0,0,3.4591,7.4157,4.0278,13.7159C35.8308,14.3925,30.8621,10.3638,30.8621,10.3638z"/>
<path class="st24" d="M12.2446,16.6817c0,0,5.0318-3.2657,11.3313-5.9607C16.8329,11.1257,12.2446,16.6817,12.2446,16.6817z"/>
<path class="st24" d="M9.1384,16.0148c0,0,3.9538-6.3164,11.1638-8.1539C10.2704,7.2046,9.1384,16.0148,9.1384,16.0148z"/>
</svg>
