<svg width="1020" height="403" viewBox="0 0 1020 403" fill="none" xmlns="http://www.w3.org/2000/svg">
<g clip-path="url(#clip0_493_4217)">
<g clip-path="url(#clip1_493_4217)">
<path d="M270.827 172.419C263.526 170.77 245.523 168.475 232.79 168.475C223.644 168.475 213.605 169.062 208.148 169.614C192.423 171.153 180.378 175.241 172.346 181.761C164.551 188.085 160.599 196.755 160.599 207.524C160.599 216.891 163.617 224.635 169.575 230.542C177.37 238.26 190.256 243.071 207.893 244.831H214.778V274.445L210.876 275.448C202.547 277.598 194.676 278.644 186.822 278.644C180.591 278.644 174.258 278.006 167.501 276.689C134.988 270.577 116.34 243.241 116.34 201.702C116.34 169.793 128.988 141.216 150.187 125.253C165.708 113.565 186.176 107.386 209.389 107.386C211.888 107.386 214.43 107.454 216.945 107.598C226.644 108.142 235.391 109.851 243.857 111.508C253.402 113.378 262.429 115.138 272.187 115.138C276.692 115.138 281.001 114.764 285.362 113.999C298.342 111.721 307.964 103.068 311.1 90.8701C316.243 70.8356 313.421 53.6656 302.702 39.8446C280.364 11.0721 227.681 0.812622 185.819 0.812622C180.209 0.812622 174.65 0.991122 169.277 1.34812C120.131 4.58662 78.1745 24.5276 47.9485 59.0036C16.5835 94.7716 0 144.123 0 201.702C0 319.656 69.4705 402.038 168.938 402.038C180.591 402.038 196.546 402.038 213.044 399.199C229.415 396.386 239.98 393.096 250.767 387.452C275.026 375.221 292.893 356.045 303.892 330.434C314.389 305.997 316.591 280.182 316.591 262.834C316.591 222.221 311.245 199.959 298.078 185.943C290.997 177.987 277.958 174.051 270.827 172.419Z" fill="#AEACAD"/>
<path d="M968.669 55.4591C935.349 19.6826 888.82 0.778564 834.131 0.778564C827.305 0.778564 816.459 1.07606 801.083 3.62606L800.93 3.65156C777.75 6.61806 756.891 16.0276 740.648 30.8176C720.095 50.0616 705.424 77.0406 700.681 146.146C699.695 160.919 699.244 178.565 699.244 201.702C699.244 224.839 699.703 241.907 700.681 256.663C705.424 325.776 720.078 352.747 740.597 371.957C756.602 386.534 777.487 396.148 800.913 399.752C813.45 401.316 824.007 402.038 834.131 402.038C888.794 402.038 935.323 383.151 968.669 347.426C1002.24 311.454 1019.99 261.066 1019.99 201.693C1019.99 142.321 1002.24 91.4906 968.66 55.4506L968.669 55.4591ZM882.912 250.407C872.44 257.538 858.696 261.151 842.053 261.151C828.436 261.151 817.896 258.652 817.445 258.541L813.459 257.581V145.423L817.904 144.777C818.159 144.743 824.339 143.842 833.4 143.842C845.589 143.842 863.201 145.5 877.897 153.413C895.951 163.129 905.106 179.372 905.106 201.71C905.106 224.048 897.634 240.385 882.895 250.415L882.912 250.407Z" fill="#AEACAD"/>
<path d="M500.735 0.778564C452.863 0.778564 411.97 19.8951 382.466 56.0711C352.827 92.4171 337.161 142.78 337.161 201.702C337.161 260.624 352.827 310.544 382.466 346.814C411.987 382.939 452.88 402.038 500.735 402.038C601.732 402.038 675.036 317.786 675.036 201.702C675.036 144.471 657.152 92.8081 624.691 56.2411C592.943 20.4731 548.922 0.778564 500.735 0.778564ZM537.897 233.211L506.099 293.383L474.3 233.211L414.129 201.413L474.3 169.614L506.099 109.443L537.897 169.614L598.069 201.413L537.897 233.211Z" fill="#AEACAD"/>
</g>
</g>
<defs>
<clipPath id="clip0_493_4217">
<rect width="1020" height="401.26" fill="white" transform="translate(0 0.778564)"/>
</clipPath>
<clipPath id="clip1_493_4217">
<rect width="1020" height="401.26" fill="white" transform="translate(0 0.778564)"/>
</clipPath>
</defs>
</svg>
