<svg width="382" height="332" viewBox="0 0 382 332" fill="none" xmlns="http://www.w3.org/2000/svg">
<g filter="url(#filter0_d_308_822)">
<path d="M182.728 128.845C194.399 142.922 92.8058 132.648 86.8037 152.25C79.4022 176.428 140.562 169.347 161.429 165.007C157.491 169.83 155.976 172.361 156.989 178.227C158.003 184.093 162.998 188.499 168.863 190.366C163.914 197.612 165.597 206.055 172.133 212.437C170.005 224.162 173.193 229.393 179.411 234.11C194.984 245.928 210.925 241.001 232.707 237.235C254.489 233.469 270.253 222.521 270.253 222.521C270.253 222.521 293.316 221.581 295.137 210.556C296.309 187.27 295.68 159.884 283.264 139.754C244.715 137.631 262.136 135.445 231.826 121.496C211.816 111.347 191.129 103.253 177.021 83.5374C170.463 78.5656 164.278 88.3609 163.133 94.0606C161.485 108.373 172.614 120.217 182.731 128.844L182.728 128.845Z" fill="url(#paint0_linear_308_822)"/>
<path d="M160.882 193.211C156.09 190.173 152.15 185.459 151.077 179.249C150.694 177.034 150.565 174.957 150.805 172.931C139.802 174.529 125.69 175.837 113.265 175.318C104.602 174.956 95.8571 173.683 89.5904 170.352C86.36 168.634 83.3418 166.133 81.6113 162.496C79.8322 158.756 79.8 154.631 81.0665 150.494L81.0666 150.494C82.5488 145.653 86.643 142.68 90.499 140.8C94.5083 138.847 99.5063 137.464 104.802 136.417C115.427 134.317 128.705 133.306 140.995 132.489C142.605 132.382 144.195 132.278 145.76 132.176C156.407 131.482 165.899 130.864 172.526 129.765C173.202 129.653 173.817 129.54 174.375 129.428C170.498 125.79 166.612 121.592 163.51 116.886C159.172 110.303 156.138 102.362 157.172 93.3744L157.201 93.1251L157.25 92.879C158.029 89.0019 160.365 84.036 163.779 80.5803C165.52 78.8176 167.957 77.03 171.053 76.4023C174.408 75.7221 177.756 76.5652 180.646 78.7559L181.371 79.3057L181.901 80.0458C193.111 95.7113 208.655 103.362 225.975 111.886C228.754 113.254 231.578 114.644 234.438 116.093C246.08 121.461 251.722 125.671 255.029 128.139C256.057 128.906 256.859 129.505 257.546 129.917C260.284 131.563 263.943 132.681 283.594 133.763L286.725 133.936L288.371 136.604C301.862 158.476 302.299 187.606 301.13 210.858L301.113 211.198L301.057 211.534C300.241 216.471 297.076 219.855 293.846 222.044C290.648 224.211 286.877 225.577 283.571 226.466C280.206 227.372 276.962 227.878 274.593 228.16C273.671 228.269 272.868 228.346 272.223 228.4C271.76 228.693 271.192 229.044 270.525 229.442C268.574 230.606 265.765 232.18 262.251 233.872C255.243 237.245 245.317 241.144 233.729 243.147C231.351 243.559 228.983 243.998 226.633 244.433C218.714 245.901 211.008 247.329 203.886 247.514C194.183 247.767 184.882 245.795 175.784 238.89C172.229 236.193 168.921 232.886 167.051 228.077C165.492 224.07 165.141 219.566 165.771 214.372C160.769 208.305 158.616 200.649 160.882 193.211Z" stroke="white" stroke-width="12"/>
</g>
<defs>
<filter id="filter0_d_308_822" x="0.186523" y="0.171631" width="381.364" height="331.364" filterUnits="userSpaceOnUse" color-interpolation-filters="sRGB">
<feFlood flood-opacity="0" result="BackgroundImageFix"/>
<feColorMatrix in="SourceAlpha" type="matrix" values="0 0 0 0 0 0 0 0 0 0 0 0 0 0 0 0 0 0 127 0" result="hardAlpha"/>
<feOffset dy="4"/>
<feGaussianBlur stdDeviation="37"/>
<feComposite in2="hardAlpha" operator="out"/>
<feColorMatrix type="matrix" values="0 0 0 0 0.258824 0 0 0 0 0.580392 0 0 0 0 0.890196 0 0 0 1 0"/>
<feBlend mode="normal" in2="BackgroundImageFix" result="effect1_dropShadow_308_822"/>
<feBlend mode="normal" in="SourceGraphic" in2="effect1_dropShadow_308_822" result="shape"/>
</filter>
<linearGradient id="paint0_linear_308_822" x1="179.152" y1="81.3573" x2="200.411" y2="242.346" gradientUnits="userSpaceOnUse">
<stop stop-color="#FECC3C"/>
<stop offset="0.569468" stop-color="#FBC133"/>
<stop offset="1" stop-color="#E4A026"/>
</linearGradient>
</defs>
</svg>
