<svg width="1073" height="618" viewBox="0 0 1073 618" fill="none" xmlns="http://www.w3.org/2000/svg">
<g clip-path="url(#clip0_164_935)">
<path d="M783.373 0H233.211C143.904 0 71.4971 72.4074 71.4971 161.714V617.673H126.767V161.714C126.767 103.021 174.518 55.2697 233.211 55.2697H285.144V89.3284C285.144 106.076 298.729 119.661 315.477 119.661H712.504C729.252 119.661 742.836 106.076 742.836 89.3284V55.2697H783.373C842.066 55.2697 889.818 103.021 889.818 161.714V617.673H945.088V161.714C945.088 72.4074 872.68 0 783.373 0Z" fill="url(#paint0_linear_164_935)"/>
<path d="M964.869 277.803H64.2394C28.761 277.803 0 306.564 0 342.043V520.764C0 556.243 28.761 585.004 64.2394 585.004H964.869C1000.35 585.004 1029.11 556.243 1029.11 520.764V342.043C1029.11 306.564 1000.35 277.803 964.869 277.803Z" fill="white"/>
<path d="M215.67 376.405L215.612 368.633C219.034 369.213 221.76 369.445 226.342 369.445C226.458 369.445 226.516 369.445 227.618 369.445C227.676 368.575 227.676 368.575 227.85 366.429C227.908 365.443 227.908 365.327 227.908 363.703C227.908 362.833 227.908 362.775 227.85 362.195L236.318 362.601C235.854 364.109 235.68 365.327 235.39 369.213C245.076 368.633 252.384 367.647 257.198 366.197L257.604 374.143C256.734 374.201 256.444 374.259 255.168 374.433C249.136 375.303 239.856 376.173 234.868 376.289C234.868 377.043 234.868 377.043 234.752 378.435C234.694 379.131 234.694 379.711 234.694 380.813C237.478 380.233 238.928 380.117 241.944 380.117C242.524 380.117 243.046 380.175 243.974 380.291C244.554 378.435 244.786 377.507 244.96 376.231L252.79 378.435C252.616 378.841 252.616 378.841 252.036 380.291C251.63 381.451 251.63 381.451 251.398 381.915C253.776 382.611 255.458 383.423 257.372 384.989C260.852 387.831 262.534 391.369 262.534 395.893C262.534 402.563 258.822 407.957 252.094 411.089C249.194 412.423 245.946 413.177 240.32 413.931C239.392 410.683 238.812 409.233 236.84 405.811C241.248 405.811 244.206 405.289 247.164 404.129C251.63 402.331 254.124 399.199 254.124 395.371C254.124 392.181 252.558 390.093 249.02 388.469C245.946 395.139 243.104 399.373 238.638 403.839C233.186 409.349 228.256 411.959 223.326 411.959C217.41 411.959 213.408 407.551 213.408 401.055C213.408 396.183 215.438 391.543 219.208 387.831C221.47 385.511 223.674 384.119 227.154 382.611C227.154 380.987 227.212 378.957 227.328 376.521C226.864 376.521 226.864 376.521 225.704 376.521C224.602 376.521 224.196 376.521 221.064 376.405C220.31 376.347 219.382 376.347 218.28 376.289C217.7 376.289 217.352 376.289 217.236 376.289C216.888 376.289 216.424 376.289 215.67 376.405ZM227.27 390.499C223.384 393.109 221.18 396.589 221.18 400.301C221.18 402.737 222.224 404.187 224.08 404.187C225.472 404.187 226.748 403.665 228.256 402.505C227.56 398.271 227.328 394.849 227.27 390.499ZM234.578 387.599C234.636 392.007 234.752 394.269 235.042 397.285C238.58 392.935 239.972 390.731 241.712 386.787C241.132 386.671 241.132 386.671 240.088 386.671C238.174 386.671 236.26 386.961 234.578 387.599ZM278.658 373.331L278.31 365.095C280.456 365.385 282.37 365.501 285.85 365.501C290.838 365.501 298.03 365.211 303.424 364.805C305.686 364.631 306.382 364.515 307.368 364.051L311.486 370.083C310.268 370.779 310.21 370.779 305.686 374.781C299.654 380.175 297.798 381.683 293.1 384.989C296.406 384.003 299.306 383.597 302.67 383.597C307.6 383.597 311.66 384.931 314.792 387.541C317.634 389.919 319.026 393.109 319.026 397.169C319.026 402.795 316.3 407.319 311.08 410.335C307.194 412.597 302.09 413.815 296.522 413.815C291.476 413.815 287.184 412.771 284.748 410.915C282.486 409.233 281.21 406.681 281.21 403.839C281.21 398.851 285.734 395.081 291.882 395.081C296 395.081 299.654 396.763 302.09 399.779C303.25 401.171 303.888 402.389 304.758 404.767C308.876 403.085 310.558 400.881 310.558 397.227C310.558 392.993 306.266 390.267 299.596 390.267C291.07 390.267 283.124 393.573 275.932 400.011L271.292 392.529C276.744 389.919 288.866 380.291 297.044 372.113C292.288 372.519 291.302 372.577 282.776 372.983C280.92 373.099 280.398 373.099 278.658 373.331ZM297.334 406.855C296.464 403.433 294.55 401.635 291.824 401.635C290.084 401.635 288.924 402.563 288.924 403.955C288.924 405.985 291.128 407.145 294.898 407.145C295.768 407.145 296 407.145 297.334 406.855ZM380.158 408.827L374.59 415.497C368.732 410.799 364.788 408.131 358.524 404.477C355.334 407.261 351.042 409.813 346.344 411.611C341.936 413.293 337.644 414.279 331.496 415.091C330.336 411.843 329.35 409.813 327.9 407.609C337.702 406.797 345.068 404.535 351.158 400.475C348.084 398.967 346.518 398.271 341.356 396.183C340.602 397.343 340.428 397.575 339.442 398.967C336.658 397.575 335.092 396.937 331.67 395.661C335.788 390.615 338.282 386.613 341.356 380.291H335.266C332.192 380.291 329.93 380.407 328.016 380.639V372.693C330.046 372.925 332.308 373.041 335.208 373.041H344.43C346.112 368.575 347.33 364.399 347.794 361.383L356.726 362.543C356.32 363.529 355.798 364.979 355.276 366.603C354.058 370.257 353.884 370.605 352.956 373.041H373.778C376.91 373.041 379.114 372.925 380.97 372.693V380.639C379.114 380.407 376.852 380.291 374.01 380.291H371.458C370.588 385.047 369.95 387.251 368.616 390.499C367.34 393.631 366.122 395.719 364.034 398.503C370.704 402.215 374.59 404.709 380.158 408.827ZM363.164 380.291H349.998C348.432 384.061 347.388 386.091 345.3 389.803C350.288 391.659 351.68 392.239 357.016 394.849C359.974 391.079 361.54 387.367 363.164 380.291ZM408.984 384.293V381.857C408.984 379.885 408.926 378.435 408.752 377.159H413.276C415.886 375.245 418.38 373.157 420.816 370.895H399.356C396.05 370.895 394.02 371.011 391.816 371.243V363.355C394.136 363.645 395.992 363.703 399.24 363.703H424.934C428.124 363.703 429.11 363.645 430.27 363.413L434.678 368.343C433.344 369.561 433.344 369.561 428.994 373.737C426.21 376.347 421.744 379.769 417.046 382.785V384.293H430.27C434.272 384.293 436.476 384.177 438.564 383.945V392.123C436.186 391.891 434.04 391.775 430.27 391.775H417.046V407.841C417.046 413.351 414.842 414.743 406.026 414.743C404.924 414.743 404.634 414.743 399.82 414.569C399.298 410.683 398.95 409.291 397.732 406.391C401.212 406.913 403.184 407.029 406.2 407.029C408.578 407.029 408.984 406.855 408.984 405.637V391.775H394.136C390.482 391.775 388.278 391.891 385.842 392.123V383.945C387.988 384.177 390.366 384.293 394.31 384.293H408.984ZM477.598 367.183L482.702 364.805C485.022 367.357 486.356 369.271 488.038 372.461L482.992 375.013C481.426 372.055 479.512 369.213 477.598 367.183ZM484.732 364.109L489.662 361.731C491.75 363.935 493.49 366.313 494.998 369.097L490.01 371.707C488.328 368.691 486.762 366.429 484.732 364.109ZM481.252 377.623L488.386 374.259C492.91 380.697 495.52 386.439 497.608 394.269L489.604 398.155C488.618 393.341 487.458 389.745 485.312 385.047C483.63 381.335 482.818 379.827 481.252 377.623ZM444.712 384.757L443.958 376.637C444.074 376.637 444.19 376.637 444.306 376.637C446.046 376.637 453.006 375.999 455.964 375.535C457.008 369.445 457.414 366.023 457.414 363.819C457.414 363.645 457.414 363.355 457.356 362.949L466.346 363.819C466.172 364.399 466.056 364.863 465.94 365.501C465.882 365.733 465.418 368.227 464.606 372.983C464.374 374.201 464.374 374.259 464.2 374.955C465.592 374.897 466.404 374.839 467.274 374.839C471.392 374.839 474.408 375.941 476.322 378.203C478.294 380.581 479.048 383.423 479.048 388.875C479.048 399.257 477.308 407.319 474.35 410.509C472.61 412.423 470.754 413.119 467.564 413.119C465.07 413.119 462.634 412.655 458.69 411.495C458.806 410.219 458.806 409.755 458.806 408.885C458.806 406.855 458.632 405.405 458.052 402.679C461.01 403.955 464.374 404.883 466.288 404.883C467.738 404.883 468.608 403.955 469.304 401.635C470.174 398.851 470.87 392.819 470.87 388.411C470.87 385.627 470.464 384.119 469.42 383.191C468.666 382.437 467.738 382.205 465.65 382.205C464.664 382.205 464.026 382.263 462.75 382.379C460.72 391.833 457.53 400.649 452.136 411.901C451.614 413.003 451.556 413.119 451.208 413.873L443.146 409.523C447.09 404.361 452.02 392.703 454.456 383.017C450.338 383.597 446.394 384.293 444.712 384.757ZM505.67 376.405L505.612 368.633C509.034 369.213 511.76 369.445 516.342 369.445C516.458 369.445 516.516 369.445 517.618 369.445C517.676 368.575 517.676 368.575 517.85 366.429C517.908 365.443 517.908 365.327 517.908 363.703C517.908 362.833 517.908 362.775 517.85 362.195L526.318 362.601C525.854 364.109 525.68 365.327 525.39 369.213C535.076 368.633 542.384 367.647 547.198 366.197L547.604 374.143C546.734 374.201 546.444 374.259 545.168 374.433C539.136 375.303 529.856 376.173 524.868 376.289C524.868 377.043 524.868 377.043 524.752 378.435C524.694 379.131 524.694 379.711 524.694 380.813C527.478 380.233 528.928 380.117 531.944 380.117C532.524 380.117 533.046 380.175 533.974 380.291C534.554 378.435 534.786 377.507 534.96 376.231L542.79 378.435C542.616 378.841 542.616 378.841 542.036 380.291C541.63 381.451 541.63 381.451 541.398 381.915C543.776 382.611 545.458 383.423 547.372 384.989C550.852 387.831 552.534 391.369 552.534 395.893C552.534 402.563 548.822 407.957 542.094 411.089C539.194 412.423 535.946 413.177 530.32 413.931C529.392 410.683 528.812 409.233 526.84 405.811C531.248 405.811 534.206 405.289 537.164 404.129C541.63 402.331 544.124 399.199 544.124 395.371C544.124 392.181 542.558 390.093 539.02 388.469C535.946 395.139 533.104 399.373 528.638 403.839C523.186 409.349 518.256 411.959 513.326 411.959C507.41 411.959 503.408 407.551 503.408 401.055C503.408 396.183 505.438 391.543 509.208 387.831C511.47 385.511 513.674 384.119 517.154 382.611C517.154 380.987 517.212 378.957 517.328 376.521C516.864 376.521 516.864 376.521 515.704 376.521C514.602 376.521 514.196 376.521 511.064 376.405C510.31 376.347 509.382 376.347 508.28 376.289C507.7 376.289 507.352 376.289 507.236 376.289C506.888 376.289 506.424 376.289 505.67 376.405ZM517.27 390.499C513.384 393.109 511.18 396.589 511.18 400.301C511.18 402.737 512.224 404.187 514.08 404.187C515.472 404.187 516.748 403.665 518.256 402.505C517.56 398.271 517.328 394.849 517.27 390.499ZM524.578 387.599C524.636 392.007 524.752 394.269 525.042 397.285C528.58 392.935 529.972 390.731 531.712 386.787C531.132 386.671 531.132 386.671 530.088 386.671C528.174 386.671 526.26 386.961 524.578 387.599ZM573.878 362.137L582.694 363.007C582.462 363.587 582.462 363.587 581.882 366.139C581.766 366.661 581.476 367.937 581.07 369.967C580.838 370.837 580.838 370.837 580.722 371.417C584.492 371.069 587.392 370.605 589.48 369.909L589.654 377.913C589.016 377.971 588.784 377.971 587.856 378.145C585.826 378.435 583.448 378.667 578.808 379.073C576.546 386.381 575.154 390.151 572.486 395.893C571.152 398.735 570.63 399.779 568.426 403.955C567.672 405.405 567.672 405.405 567.324 406.159L559.378 401.751C563.554 396.241 567.498 388.121 570.282 379.305C568.542 379.305 568.542 379.305 567.15 379.363C566.86 379.363 566.57 379.363 566.454 379.363C565.816 379.363 565.816 379.363 563.844 379.247C563.612 379.247 563.38 379.247 561.64 379.247V371.359C563.728 371.765 566.28 371.939 569.76 371.939C570.108 371.939 571.21 371.881 572.312 371.823C573.356 367.473 573.82 364.631 573.878 362.137ZM612.506 376.753L608.794 383.945C603.516 380.523 598.238 378.029 591.51 375.709L595.628 368.981C602.588 371.475 607.228 373.621 612.506 376.753ZM612.158 403.085L608.446 410.857C606.648 408.653 603.4 405.985 600.21 404.071C600.152 406.797 599.63 408.537 598.238 410.277C596.208 412.771 592.264 414.221 587.508 414.221C579.562 414.221 574.342 410.103 574.342 403.897C574.342 399.489 577.126 395.777 581.708 394.153C583.448 393.515 585.246 393.283 587.914 393.283C589.596 393.283 590.582 393.399 592.148 393.631C591.916 391.311 591.858 389.687 591.858 388.005C591.858 385.395 591.974 383.713 592.322 381.567L600.384 381.973C599.746 384.293 599.63 385.337 599.63 387.715C599.63 390.325 599.746 392.355 600.152 395.545C603.806 397.169 606.068 398.445 608.91 400.591C609.664 401.113 610.186 401.519 611.172 402.331C611.694 402.737 611.694 402.737 612.158 403.085ZM592.322 400.997C590.524 400.359 589.364 400.127 587.74 400.127C584.55 400.127 582.404 401.519 582.404 403.549C582.404 405.637 584.202 406.913 587.276 406.913C590.756 406.913 592.438 405.463 592.438 402.621C592.438 402.099 592.38 400.997 592.322 400.997ZM619.93 379.363L620.046 371.359C622.192 371.765 624.86 371.939 628.34 371.939C628.746 371.939 628.804 371.939 630.254 371.881C630.776 368.981 631.24 364.921 631.24 363.297C631.24 363.123 631.24 362.775 631.24 362.311L640.404 363.065C639.998 364.457 639.998 364.457 639.244 368.691C639.012 370.257 638.954 370.373 638.78 371.533C642.898 371.127 645.45 370.663 648.466 369.909L648.756 377.855C647.654 377.971 647.654 377.971 645.566 378.319C643.014 378.783 640.462 379.015 637.388 379.189C636.46 384.177 635.648 387.889 634.024 393.573C632.284 399.895 631.646 401.809 628.978 409.465C628.398 411.089 627.934 412.423 627.644 413.467L618.712 410.161C622.598 402.679 626.832 390.035 628.862 379.479H627.238L621.032 379.305C620.626 379.305 620.452 379.363 619.93 379.363ZM666.91 379.479L667.084 387.715C664.3 387.425 662.618 387.309 659.602 387.309C653.512 387.309 649.684 387.715 643.884 388.875L643.304 381.277C651.946 379.711 654.846 379.421 661.574 379.421C663.024 379.421 663.256 379.421 666.91 379.479ZM643.304 392.007L650.264 394.501C647.944 397.575 647.306 398.967 647.306 400.881C647.306 403.607 649.974 404.941 655.6 404.941C659.66 404.941 665.228 403.955 668.592 402.679L669.172 411.263C668.128 411.379 667.664 411.437 666.214 411.611C661.4 412.365 658.5 412.597 655.136 412.597C649.8 412.597 646.03 411.843 643.13 410.103C640.462 408.595 638.838 405.695 638.838 402.563C638.838 399.431 640.056 396.473 643.304 392.007ZM707.22 373.795C706.06 383.365 704.03 391.079 701.014 397.807C697.766 405.173 693.938 408.595 688.95 408.595C681.758 408.595 676.654 401.577 676.654 391.601C676.654 384.989 678.916 378.957 683.15 374.375C688.138 368.923 695.272 366.023 703.566 366.023C718.124 366.023 727.404 374.723 727.404 388.295C727.404 398.851 722.126 407.029 712.846 410.683C710.062 411.785 707.742 412.365 703.624 413.061C702.406 409.407 701.594 407.841 699.332 404.825C704.494 404.419 708.09 403.491 710.816 402.041C715.804 399.315 718.82 393.921 718.82 387.773C718.82 382.611 716.558 378.261 712.614 375.651C710.932 374.549 709.54 374.085 707.22 373.795ZM698.752 373.911C695.968 374.259 694.054 375.071 691.792 376.811C687.384 380.233 684.658 385.859 684.658 391.659C684.658 396.009 686.514 399.547 688.776 399.547C690.458 399.547 692.256 397.285 694.112 392.587C696.258 387.425 698.056 380.117 698.752 373.911ZM753.388 392.703V385.511C754.316 385.685 755.534 385.801 756.346 385.801C754.78 383.887 753.562 382.785 751.01 380.987C755.766 378.261 757.216 374.723 757.216 365.559C757.216 364.573 757.158 363.471 757.042 362.717C759.014 362.833 759.652 362.891 760.754 362.891H769.628C775.138 362.891 775.428 362.891 777.168 362.717C777.284 362.775 777.342 362.891 777.342 362.949C777.342 363.065 777.284 363.239 777.226 363.529C777.226 363.703 777.226 363.703 777.168 366.139V372.751C777.168 376.057 777.168 376.057 777.516 376.231C777.748 376.347 778.27 376.405 778.792 376.405C779.43 376.405 780.126 376.289 780.3 376.115C780.764 375.825 780.938 374.549 780.938 371.475C780.938 371.359 780.938 370.953 780.88 368.633C783.838 370.315 785.056 370.837 787.26 371.533C787.202 372.055 787.202 372.519 787.202 372.751C786.854 377.971 786.506 379.827 785.462 381.161C784.36 382.669 782.446 383.133 777.69 383.133C774.732 383.133 773.166 382.959 772.238 382.611C770.498 381.915 769.976 380.871 769.976 377.971V369.967H764.292C764.118 375.361 763.248 378.667 761.102 381.741C759.942 383.481 758.724 384.641 757.042 385.801H776.414C777.98 385.801 778.966 385.743 779.952 385.569L783.896 389.919C783.432 390.615 783.432 390.615 782.446 392.239C779.488 397.111 777.342 400.011 774.268 403.143C778.212 405.289 781.634 406.449 787.724 407.609C786.1 409.813 784.94 412.075 783.722 415.207C776.414 413.119 772.18 411.263 767.946 408.305C762.784 411.727 758.608 413.583 752.112 415.323C750.72 411.959 750.024 410.799 748.168 408.305C754.142 407.029 757.39 405.869 762.088 403.201C759.884 400.881 758.666 399.199 755.708 394.791L760.986 392.471H757.854C755.94 392.471 754.838 392.529 753.388 392.703ZM773.862 392.471H762.726C764.466 395.371 765.626 396.763 768.236 398.967C770.73 396.821 771.774 395.603 773.862 392.471ZM740.222 371.765V367.415C740.222 364.631 740.164 363.413 739.874 361.499H747.936C747.646 363.239 747.588 364.573 747.588 367.357V371.765H750.778C751.822 371.765 752.518 371.707 753.446 371.591V378.725C752.518 378.609 751.648 378.551 750.72 378.551H747.588V386.149C749.676 385.511 750.198 385.337 752.286 384.583V391.427C749.618 392.355 749.038 392.529 747.588 393.051V409.001C747.588 411.901 746.602 413.699 744.746 414.395C743.412 414.859 741.208 415.149 738.83 415.149C737.786 415.149 736.916 415.091 735.002 414.975C734.77 411.901 734.48 410.451 733.436 407.783C735.872 408.073 737.322 408.189 738.656 408.189C739.932 408.189 740.222 407.841 740.222 406.391V395.313C736.336 396.473 734.364 397.111 734.248 397.169L732.914 389.455C734.944 389.223 734.944 389.223 740.222 388.063V378.551H737.612C736.22 378.551 735.002 378.609 733.552 378.783V371.475C734.886 371.707 736.046 371.765 737.728 371.765H740.222ZM803.674 400.997H798.512C795.96 400.997 794.22 401.113 792.248 401.345V394.617C794.22 394.791 796.134 394.907 798.512 394.907H837.43C840.04 394.907 841.896 394.791 843.752 394.617V401.345C841.896 401.113 840.098 400.997 837.43 400.997H832.326C835.806 404.187 839.17 406.159 845.202 408.363C843.23 410.567 842.07 412.075 840.62 414.569C834.182 411.553 830.934 409.233 826.352 404.593L831.804 400.997H822.582V409.929C822.582 414.105 820.552 415.265 813.418 415.265C812.084 415.265 810.228 415.207 808.43 415.091C808.198 412.539 807.792 410.857 806.922 408.479C809.242 408.769 811.272 408.943 812.896 408.943C814.694 408.943 815.042 408.653 815.042 407.261V400.997H804.37L810.17 404.303C805.704 409.291 802.166 411.901 795.96 414.801C794.336 412.249 793.06 410.741 791.088 408.943C795.438 407.377 798.28 405.869 800.948 403.723C802.05 402.853 802.514 402.389 803.674 400.997ZM808.14 369.387H798.222C795.38 369.387 793.93 369.445 792.132 369.677V363.007C793.756 363.239 796.018 363.355 799.208 363.355H836.85C840.098 363.355 842.36 363.239 843.984 363.007V369.677C842.186 369.445 840.62 369.387 837.778 369.387H827.628V371.939H834.994C837.894 371.939 839.402 371.881 841.084 371.707C840.91 373.215 840.852 374.491 840.852 376.927V380.291C840.852 382.843 840.91 384.119 841.026 385.453C839.402 385.279 837.894 385.221 835.168 385.221H800.89C798.396 385.221 796.772 385.279 794.916 385.453C795.09 383.829 795.148 382.669 795.148 380.349V376.927C795.148 374.607 795.09 373.331 794.916 371.707C796.656 371.881 798.164 371.939 800.89 371.939H808.14V369.387ZM815.042 369.387V371.939H820.726V369.387H815.042ZM808.14 377.043H802.456V380.175H808.14V377.043ZM815.042 377.043V380.175H820.726V377.043H815.042ZM827.628 377.043V380.175H833.66V377.043H827.628ZM797.584 393.109V387.135C798.976 387.309 800.6 387.367 803.616 387.367H832.384C835.052 387.367 836.966 387.309 838.416 387.135V393.109C836.908 392.935 835.342 392.877 832.384 392.877H803.616C800.716 392.877 799.15 392.935 797.584 393.109ZM246.99 450.645L256.038 451.515C253.486 458.417 251.63 471.467 251.456 483.763C252.21 481.501 252.21 481.501 252.5 480.805L253.602 478.021L258.706 480.109C255.632 486.837 253.95 492.985 253.95 497.567C253.95 498.147 253.95 498.437 254.008 499.249L245.598 499.655C245.54 498.611 245.482 498.147 245.308 496.813C244.206 489.447 243.8 484.749 243.8 479.123C243.8 471.931 244.496 464.913 246.062 456.445C246.758 452.849 246.816 452.327 246.99 450.645ZM261.316 464.681L261.432 456.329C264.274 457.083 267.29 457.315 272.568 457.315C278.948 457.315 284.748 456.735 288.46 455.749L288.866 464.159C288.344 464.159 288.286 464.159 287.648 464.217C282.892 464.855 277.092 465.261 272.278 465.261C268.624 465.261 266.536 465.145 262.94 464.797C262.65 464.739 262.186 464.739 261.316 464.681ZM265.144 473.323L272.104 476.397C269.378 479.819 268.044 482.429 268.044 484.575C268.044 487.475 271.002 489.099 276.338 489.099C281.384 489.099 286.43 488.287 290.432 486.837L291.012 495.595C290.084 495.711 289.736 495.769 288.46 495.943C283.356 496.755 280.282 497.045 276.28 497.045C268.914 497.045 264.1 495.305 261.49 491.651C260.388 490.085 259.75 487.881 259.75 485.735C259.75 482.081 261.548 477.905 265.144 473.323ZM312.298 496.291V484.053C308.644 485.967 306.324 487.069 302.09 488.809C300.814 485.909 299.828 484.459 297.682 481.965C304.584 479.993 311.196 476.977 317.634 472.975C315.372 470.539 313.748 469.089 310.442 466.595C308.122 468.277 306.498 469.263 303.018 471.177C301.568 468.509 300.408 467.117 298.436 465.377C303.424 462.999 307.658 460.157 311.602 456.619C314.734 453.835 317.17 450.761 318.91 447.397L327.088 449.253C326.044 450.819 325.754 451.225 324.42 452.965H335.904C337.992 452.965 339.442 452.907 340.892 452.675L345.01 456.851C344.198 457.837 344.14 457.837 342.806 459.577C337.992 465.783 333.004 470.539 326.102 475.527H343.56C346.054 475.527 347.33 475.469 348.722 475.353C348.49 476.977 348.432 478.601 348.432 480.979V496.349C348.432 498.901 348.548 500.641 348.78 502.323H340.95V499.249H319.838V502.323H311.95C312.182 500.467 312.298 498.669 312.298 496.291ZM332.83 459.693H318.562C317.286 460.911 316.88 461.317 315.778 462.303C320.012 465.319 320.36 465.609 323.55 468.683C327.784 465.319 329.988 463.173 332.83 459.693ZM319.78 482.313V492.695H341.066V482.313H319.78ZM363.396 455.343H370.704C369.486 453.197 368.848 452.211 366.76 449.775L374.416 447.803C376.62 450.819 377.838 452.733 379.172 455.343H386.712C388.742 452.849 389.844 450.935 391.12 447.861L399.066 449.833C397.732 451.979 396.456 453.835 395.18 455.343H402.72C405.678 455.343 407.302 455.227 409.1 454.995V462.361C407.302 462.129 405.852 462.071 402.72 462.071H363.396C360.438 462.071 358.872 462.129 357.016 462.361V454.995C359.162 455.285 360.496 455.343 363.396 455.343ZM367.05 490.317V495.885C367.05 498.843 367.108 500.293 367.34 502.149H359.51C359.8 500.003 359.858 498.321 359.858 495.363V470.075C359.858 467.291 359.8 466.247 359.626 464.855C361.308 464.971 362.816 465.029 365.02 465.029H377.664C380.448 465.029 381.55 464.971 382.768 464.855C382.652 466.247 382.594 467.523 382.594 470.481V495.537C382.594 500.583 381.144 501.743 374.996 501.743C374.532 501.743 373.662 501.743 371.69 501.627C371.226 498.379 370.994 497.625 370.066 495.073C372.038 495.363 372.734 495.421 374.068 495.421C375.228 495.421 375.46 495.131 375.46 493.855V490.317H367.05ZM367.05 484.227H375.46V480.805H367.05V484.227ZM367.05 474.715H375.46V471.409H367.05V474.715ZM386.944 465.957H394.658C394.484 467.581 394.426 468.799 394.426 471.525V484.227C394.426 487.591 394.484 488.635 394.658 490.375H386.944C387.118 488.519 387.176 487.475 387.176 484.285V471.467C387.176 468.915 387.118 467.755 386.944 465.957ZM398.602 464.449H406.548C406.316 466.131 406.258 467.813 406.258 470.539V494.609C406.258 497.451 405.91 499.017 404.924 500.003C403.648 501.395 401.792 501.859 397.906 501.859C396.224 501.859 395.876 501.859 391.468 501.685C391.004 498.843 390.54 497.277 389.38 494.493C392.338 494.841 394.542 495.015 396.224 495.015C398.544 495.015 398.892 494.783 398.892 493.275V470.365C398.892 467.291 398.834 466.131 398.602 464.449ZM417.858 462.883L417.974 455.053C420.12 455.575 423.832 455.807 428.588 455.807C428.936 455.807 429.342 455.807 429.748 455.807C430.386 455.807 430.676 455.807 430.908 455.807C430.966 455.807 431.256 455.807 431.488 455.807C432.938 452.327 433.344 450.935 433.576 449.021L442.566 449.833C442.16 450.471 442.16 450.471 440.42 454.647C440.188 455.169 440.188 455.227 439.956 455.691C440.826 455.575 441 455.575 443.552 455.459C450.454 455.053 455.21 454.415 458.516 453.545L458.864 461.375C457.066 461.549 457.066 461.549 454.282 461.839C450.048 462.361 442.508 462.825 436.65 462.999C435.548 465.029 434.736 466.247 432.88 468.741C435.896 467.059 437.984 466.479 440.884 466.479C445.582 466.479 448.482 468.451 449.526 472.337C450.048 472.163 451.092 471.815 452.6 471.293C454.862 470.481 455.152 470.365 457.762 469.495C461.068 468.393 461.3 468.335 462.286 467.755L465.36 475.643C463.678 475.875 461.764 476.281 458.806 477.151C457.414 477.499 457.414 477.499 450.396 479.877L450.454 481.791V482.835C450.454 483.067 450.454 483.647 450.454 484.517C450.454 484.981 450.454 485.387 450.454 485.735C450.454 487.475 450.512 488.461 450.628 489.621L442.566 489.853C442.798 488.751 442.914 486.199 442.914 483.125C442.914 483.067 442.914 482.893 442.856 482.661C440.478 483.763 439.318 484.401 438.216 485.155C436.418 486.431 435.49 487.881 435.49 489.331C435.49 491.999 437.984 493.043 444.306 493.043C451.324 493.043 457.588 492.115 462.112 490.433L462.75 499.307C461.648 499.365 461.416 499.365 459.85 499.597C454.978 500.293 449.816 500.641 444.944 500.641C436.418 500.641 431.604 499.365 428.936 496.349C427.486 494.725 426.674 492.463 426.674 490.085C426.674 486.489 428.994 482.893 433.402 479.703C435.316 478.311 437.868 476.977 441.87 475.237C441.58 473.671 440.594 472.917 438.912 472.917C435.78 472.917 431.836 474.889 427.486 478.659C425.108 480.747 423.658 482.313 422.208 484.227L415.944 478.021C419.192 475.643 424.238 469.611 427.254 464.449C427.776 463.463 427.834 463.405 428.124 462.999C424.876 462.999 424.412 462.999 422.73 462.941C421.628 462.883 420.7 462.883 420.526 462.883C420.004 462.883 419.656 462.883 419.54 462.825C419.076 462.825 418.728 462.825 418.728 462.825C418.496 462.825 418.206 462.825 417.858 462.883ZM495.056 453.545H500.044C501.204 451.805 502.19 449.833 502.944 447.861L511.064 448.905C510.02 450.703 509.382 451.747 508.222 453.545H517.56C519.358 453.545 520.576 453.487 521.736 453.313C521.62 454.589 521.562 455.923 521.562 457.431V465.841C521.562 467.929 521.62 469.205 521.736 470.365C520.112 470.249 519.358 470.249 517.85 470.249H498.072V473.613H519.3C521.272 473.613 522.142 473.555 523.244 473.439C523.128 474.773 523.07 475.875 523.07 477.731V487.127C523.07 488.635 523.128 489.911 523.244 491.187C522.026 491.071 520.808 491.013 519.358 491.013H494.708C493.026 491.013 491.866 491.071 490.59 491.187C490.706 489.969 490.764 488.635 490.764 487.127V457.431C490.764 456.097 490.706 454.763 490.532 453.313C492.04 453.487 493.432 453.545 495.056 453.545ZM498.072 459.983V464.101H514.254V459.983H498.072ZM498.072 479.993V484.517H515.762V479.993H498.072ZM472.146 454.067L477.714 448.905C482.412 453.081 484.326 455.053 487.922 459.693L482.122 465.377C478.526 460.447 476.206 457.779 472.146 454.067ZM472.378 477.789V470.133C474.002 470.365 474.814 470.423 477.134 470.423H482.238C484.036 470.423 485.254 470.365 486.646 470.191C486.472 471.989 486.414 473.265 486.414 476.571V489.099C487.226 490.665 488.038 491.535 489.488 492.405C491.75 493.797 495.114 494.319 502.306 494.319C513.848 494.319 520.982 494.029 526.898 493.391C525.738 496.639 525.39 498.089 524.984 501.163C517.502 501.395 515.878 501.395 507.526 501.395C497.086 501.395 493.142 501.047 489.778 499.887C487.226 498.959 485.138 497.509 482.934 494.957C480.614 497.161 478.584 498.959 476.554 500.467C475.742 501.047 474.756 501.801 474.408 502.091L471.218 494.145C473.074 493.449 476.206 491.419 479.222 488.983V477.499H476.264C474.814 477.499 473.886 477.557 472.378 477.789ZM546.386 457.895H551.374C554.39 457.895 556.188 457.837 558.044 457.663C557.812 459.751 557.812 459.751 557.754 468.045C557.58 481.211 557.058 489.389 555.956 494.319C554.854 499.191 552.882 500.815 548.068 500.815C546.676 500.815 544.762 500.699 542.442 500.467C542.268 497.335 542.036 496.117 541.108 493.159C543.312 493.565 545.11 493.797 546.386 493.797C547.778 493.797 548.242 493.391 548.706 491.709C549.286 489.679 549.808 484.865 550.098 478.949C550.33 473.845 550.33 473.613 550.446 465.087H546.096C545.516 473.671 544.646 479.471 542.906 485.503C541.166 491.651 538.788 496.465 534.612 502.207C532.756 499.133 531.248 497.161 528.986 495.015C532.292 490.897 534.38 487.011 535.946 481.907C537.454 476.919 538.266 471.931 538.73 465.087H536.236C533.742 465.087 532.234 465.145 530.552 465.377V457.547C532.118 457.779 533.916 457.895 536.932 457.895H539.02C539.078 456.329 539.078 456.329 539.078 453.603C539.078 451.283 538.962 449.833 538.73 448.325H546.85C546.618 449.717 546.618 449.717 546.386 457.895ZM568.02 496.697V501.047H560.364C560.596 499.307 560.712 497.045 560.712 494.319V459.867C560.712 457.199 560.654 455.633 560.422 453.777C562.162 453.951 563.438 454.009 565.758 454.009H577.3C579.794 454.009 581.128 453.951 582.694 453.777C582.462 455.691 582.404 457.199 582.404 459.867V494.029C582.404 497.103 582.462 498.901 582.752 500.815H574.98V496.697H568.02ZM568.02 460.969V489.795H574.98V460.969H568.02ZM596.962 450.819L606.648 450.993C606.068 454.415 605.372 469.901 605.372 479.935C605.372 485.561 605.662 487.533 606.764 489.157C607.982 491.013 610.592 492.057 614.014 492.057C620.162 492.057 624.918 488.577 627.528 482.197C628.746 479.123 629.442 476.397 629.964 472.105C633.734 475.063 635.01 475.875 638.432 477.383C636.112 485.677 634.314 489.621 631.298 492.985C626.832 497.915 620.974 500.409 613.55 500.409C609.258 500.409 605.43 499.481 602.82 497.799C600.384 496.175 598.528 493.681 597.6 490.781C597.078 488.925 596.73 485.909 596.73 482.487C596.73 479.877 596.788 476.107 596.962 468.451C597.136 460.447 597.194 456.909 597.194 455.169C597.194 453.255 597.136 452.443 596.962 450.819ZM696.838 490.665L692.14 498.669C690.98 497.393 690.69 497.103 689.414 496.001C686.108 493.217 682.28 490.723 678.974 489.331C679.032 489.737 679.032 490.085 679.032 490.259C679.032 496.929 674.624 500.119 665.344 500.119C656.528 500.119 651.54 496.581 651.54 490.317C651.54 483.821 657.746 479.935 668.07 479.935C669.056 479.935 669.752 479.993 670.97 480.051L670.854 475.411C669.23 475.411 666.968 475.469 665.75 475.469C661.98 475.469 660.008 475.411 654.73 475.121C653.918 475.063 653.396 475.063 652.41 475.063L652.468 467.639C655.02 468.219 660.53 468.567 665.924 468.567C667.142 468.567 669.172 468.567 670.738 468.509L670.68 465.145C670.68 464.507 670.68 464.043 670.68 463.695C669.172 463.753 668.476 463.753 667.606 463.753C665.402 463.753 660.472 463.579 652.932 463.173C652.236 463.115 651.714 463.115 651.482 463.115C651.308 463.115 650.96 463.115 650.554 463.173L650.67 455.459C653.86 456.271 659.834 456.735 666.562 456.735C667.258 456.735 669.056 456.677 670.564 456.619C670.564 452.269 670.506 451.805 670.216 449.775H678.974C678.626 451.399 678.626 451.863 678.51 456.329C686.34 455.923 691.154 455.285 695.156 454.241L695.388 461.839C693.996 461.897 693.996 461.897 690.574 462.361C686.05 462.941 682.396 463.289 678.452 463.463C678.51 465.725 678.51 467.291 678.51 468.219C685.354 467.813 689.994 467.233 693.764 466.247L693.996 473.845C693.532 473.845 693.532 473.845 692.778 473.961C692.662 473.961 692.314 474.019 691.792 474.019C690.98 474.135 690.98 474.135 687.5 474.483C684.716 474.773 680.946 475.063 678.626 475.179C678.684 478.311 678.8 480.341 678.8 481.211C684.252 482.835 688.254 484.865 694.692 489.273C695.62 489.911 695.968 490.143 696.838 490.665ZM671.028 487.417C669.346 487.011 668.418 486.895 666.794 486.895C662.734 486.895 660.24 488.171 660.24 490.259C660.24 492.057 662.27 493.159 665.692 493.159C669.636 493.159 671.086 491.941 671.086 488.577C671.086 488.113 671.028 487.417 671.028 487.417ZM712.962 450.819L722.648 450.993C722.068 454.415 721.372 469.901 721.372 479.935C721.372 485.561 721.662 487.533 722.764 489.157C723.982 491.013 726.592 492.057 730.014 492.057C736.162 492.057 740.918 488.577 743.528 482.197C744.746 479.123 745.442 476.397 745.964 472.105C749.734 475.063 751.01 475.875 754.432 477.383C752.112 485.677 750.314 489.621 747.298 492.985C742.832 497.915 736.974 500.409 729.55 500.409C725.258 500.409 721.43 499.481 718.82 497.799C716.384 496.175 714.528 493.681 713.6 490.781C713.078 488.925 712.73 485.909 712.73 482.487C712.73 479.877 712.788 476.107 712.962 468.451C713.136 460.447 713.194 456.909 713.194 455.169C713.194 453.255 713.136 452.443 712.962 450.819ZM764.93 466.363L765.046 458.359C767.192 458.765 769.86 458.939 773.34 458.939C773.746 458.939 773.804 458.939 775.254 458.881C775.776 455.981 776.24 451.921 776.24 450.297C776.24 450.123 776.24 449.775 776.24 449.311L785.404 450.065C784.998 451.457 784.998 451.457 784.244 455.691C784.012 457.257 783.954 457.373 783.78 458.533C787.898 458.127 790.45 457.663 793.466 456.909L793.756 464.855C792.654 464.971 792.654 464.971 790.566 465.319C788.014 465.783 785.462 466.015 782.388 466.189C781.46 471.177 780.648 474.889 779.024 480.573C777.284 486.895 776.646 488.809 773.978 496.465C773.398 498.089 772.934 499.423 772.644 500.467L763.712 497.161C767.598 489.679 771.832 477.035 773.862 466.479H772.238L766.032 466.305C765.626 466.305 765.452 466.363 764.93 466.363ZM811.91 466.479L812.084 474.715C809.3 474.425 807.618 474.309 804.602 474.309C798.512 474.309 794.684 474.715 788.884 475.875L788.304 468.277C796.946 466.711 799.846 466.421 806.574 466.421C808.024 466.421 808.256 466.421 811.91 466.479ZM788.304 479.007L795.264 481.501C792.944 484.575 792.306 485.967 792.306 487.881C792.306 490.607 794.974 491.941 800.6 491.941C804.66 491.941 810.228 490.955 813.592 489.679L814.172 498.263C813.128 498.379 812.664 498.437 811.214 498.611C806.4 499.365 803.5 499.597 800.136 499.597C794.8 499.597 791.03 498.843 788.13 497.103C785.462 495.595 783.838 492.695 783.838 489.563C783.838 486.431 785.056 483.473 788.304 479.007Z" fill="#1E1E1E"/>
<path d="M1007.42 345.379C1033.02 345.379 1053.76 324.63 1053.76 299.036C1053.76 273.441 1033.02 252.692 1007.42 252.692C981.827 252.692 961.078 273.441 961.078 299.036C961.078 324.63 981.827 345.379 1007.42 345.379Z" stroke="#1E1E1E" stroke-width="17.01"/>
<path d="M1007.42 345.379C1033.02 345.379 1053.76 324.63 1053.76 299.036C1053.76 273.441 1033.02 252.692 1007.42 252.692C981.827 252.692 961.078 273.441 961.078 299.036C961.078 324.63 981.827 345.379 1007.42 345.379Z" fill="#F4B63F"/>
</g>
<defs>
<linearGradient id="paint0_linear_164_935" x1="129.302" y1="33.9721" x2="895.429" y2="676.843" gradientUnits="userSpaceOnUse">
<stop stop-color="#EAE9EA"/>
<stop offset="0.14" stop-color="#D1D0D1"/>
<stop offset="0.4" stop-color="#AAA9AA"/>
<stop offset="0.64" stop-color="#8D8C8D"/>
<stop offset="0.85" stop-color="#7C7B7C"/>
<stop offset="1" stop-color="#767576"/>
</linearGradient>
<clipPath id="clip0_164_935">
<rect width="1072.18" height="617.673" fill="white"/>
</clipPath>
</defs>
</svg>
