<svg width="1136" height="515" viewBox="0 0 1136 515" fill="none" xmlns="http://www.w3.org/2000/svg">
<g clip-path="url(#clip0_164_787)">
<path d="M257.574 514.392C399.813 514.392 515.147 400.618 515.147 260.281C515.147 119.943 399.813 6.16943 257.574 6.16943C115.335 6.16943 0 119.943 0 260.281C0 400.618 115.311 514.392 257.574 514.392Z" fill="#D18900"/>
<path d="M0 260.444C0 280.931 2.4946 300.813 7.13409 319.95V200.961C2.4946 220.075 0 239.98 0 260.467V260.444Z" fill="#E69600"/>
<path d="M18.791 189.554V355.78C21.0292 361.181 23.3372 366.489 25.9251 371.727V189.554H18.791Z" fill="#E69600"/>
<path d="M37.6055 189.554V392.75C39.9136 396.428 42.3382 400.13 44.7396 403.645V189.554H37.6055Z" fill="#E69600"/>
<path d="M56.3965 189.554V419.15C58.7046 421.991 61.1292 424.808 63.5306 427.555V189.554H56.3965Z" fill="#E69600"/>
<path d="M75.3042 189.554V439.987C77.6123 442.292 80.037 444.527 82.4383 446.762V189.554H75.3042Z" fill="#E69600"/>
<path d="M94.0957 189.554V456.772C96.4038 458.658 98.8284 460.544 101.23 462.337V189.554H94.0957Z" fill="#E69600"/>
<path d="M112.887 189.554V470.671C115.195 472.208 117.619 473.767 120.021 475.211V189.554H112.887Z" fill="#E69600"/>
<path d="M131.701 189.554V482.149C134.103 483.429 136.434 484.709 138.835 485.92V189.554H131.701Z" fill="#E69600"/>
<path d="M150.492 189.554V491.577C152.894 492.695 155.225 493.719 157.626 494.743V189.554H150.492Z" fill="#E69600"/>
<path d="M169.307 189.554V499.307C171.708 500.168 174.109 500.936 176.441 501.704V189.647H169.307V189.554Z" fill="#E69600"/>
<path d="M188.098 189.554V505.127C190.499 505.802 192.83 506.407 195.232 507.012V189.554H188.098Z" fill="#E69600"/>
<path d="M206.912 189.554V509.667C209.313 510.086 211.715 510.528 214.046 510.947V189.554H206.912Z" fill="#E69600"/>
<path d="M225.796 189.554V512.6C228.198 512.856 230.529 513.206 232.93 513.369V189.554H225.796Z" fill="#E69600"/>
<path d="M244.611 189.554V514.23C247.012 514.323 249.414 514.323 251.745 514.393V189.554H244.611Z" fill="#E69600"/>
<path d="M263.402 189.554V514.393C265.804 514.299 268.205 514.3 270.536 514.23V189.554H263.402Z" fill="#E69600"/>
<path d="M282.193 189.554V513.369C284.595 513.113 286.996 512.856 289.327 512.6V189.554H282.193Z" fill="#E69600"/>
<path d="M301.008 189.554V510.877C303.409 510.458 305.81 510.109 308.142 509.597V189.554H301.008Z" fill="#E69600"/>
<path d="M319.799 189.554V507.012C322.2 506.407 324.602 505.802 326.933 505.127V189.554H319.799Z" fill="#E69600"/>
<path d="M338.613 189.554V501.611C341.014 500.843 343.415 500.075 345.747 499.213V189.554H338.613Z" fill="#E69600"/>
<path d="M357.404 189.554V494.767C359.806 493.742 362.207 492.625 364.538 491.601V189.554H357.404Z" fill="#E69600"/>
<path d="M376.289 189.554V485.92C378.69 484.709 381.091 483.429 383.423 482.149V189.554H376.289Z" fill="#E69600"/>
<path d="M395.103 189.554V475.304C397.504 473.767 399.906 472.301 402.237 470.764V189.554H395.103Z" fill="#E69600"/>
<path d="M413.894 189.554V462.36C416.295 460.567 418.697 458.681 421.028 456.796V189.554H413.894Z" fill="#E69600"/>
<path d="M432.708 189.554V446.762C435.11 444.527 437.511 442.315 439.843 439.987V189.554H432.708Z" fill="#E69600"/>
<path d="M451.5 189.554V427.555C453.994 424.808 456.302 421.991 458.634 419.15V189.554H451.5Z" fill="#E69600"/>
<path d="M470.314 189.554V403.715C472.809 400.107 475.21 396.521 477.448 392.82V189.647H470.314V189.554Z" fill="#E69600"/>
<path d="M489.105 189.554V371.727C491.67 366.489 494.095 361.181 496.24 355.78V189.554H489.105Z" fill="#E69600"/>
<path d="M507.989 319.95C512.629 300.836 515.123 280.931 515.123 260.444C515.123 239.956 512.629 220.074 507.989 200.938V319.926V319.95Z" fill="#E69600"/>
<path d="M257.574 488.155C399.813 488.155 515.147 378.874 515.147 244.077C515.147 109.281 399.813 0 257.574 0C115.335 0 0 109.281 0 244.077C0 378.874 115.311 488.155 257.574 488.155Z" fill="url(#paint0_linear_164_787)"/>
<path d="M257.574 453.443C380.858 453.443 480.806 358.759 480.806 241.936C480.806 125.112 380.835 30.4282 257.574 30.4282C134.312 30.4282 34.3418 125.135 34.3418 241.936C34.3418 358.736 134.289 453.443 257.574 453.443Z" fill="#D18900"/>
<path d="M257.574 457.727C378.667 457.727 476.842 364.719 476.842 249.991C476.842 135.262 378.667 42.2549 257.574 42.2549C136.48 42.2549 38.2817 135.262 38.2817 249.991C38.2817 364.719 136.457 457.727 257.55 457.727H257.574Z" fill="url(#paint1_linear_164_787)"/>
<path d="M194.369 410.303C193.6 409.093 192.481 408.161 191.012 407.463C189.473 406.695 187.841 406.345 186.279 406.439C184.717 406.532 183.272 407.044 181.896 407.975C180.521 408.93 179.402 410.117 178.539 411.747C177.583 413.469 177.164 415.099 177.164 416.636C177.164 418.172 177.676 419.639 178.539 420.919C179.495 422.2 180.777 423.317 182.572 424.179C183.785 424.784 185.067 425.133 186.443 425.389C187.818 425.552 189.007 425.552 190.126 425.296L190.289 422.549C189.17 422.805 188.051 422.805 187.025 422.642C186 422.479 184.974 422.223 184.018 421.688C182.293 420.826 181.174 419.709 180.847 418.265C180.497 416.892 180.847 415.355 181.803 413.539L193.74 419.359L193.996 418.847C194.859 417.218 195.372 415.681 195.465 414.214C195.372 412.748 195.115 411.374 194.346 410.28L194.369 410.303ZM185.44 409.628C186.816 409.023 188.284 409.116 189.73 409.791C191.105 410.466 191.968 411.514 192.224 412.701C192.388 413.656 192.131 414.75 191.618 415.96L182.945 411.677C183.715 410.815 184.484 409.954 185.44 409.628Z" fill="#D18900"/>
<path d="M208.357 414.61C206.982 414.098 205.606 413.935 204.417 414.005C203.205 414.098 202.179 414.354 201.247 414.96C200.384 415.472 199.708 416.24 199.358 417.264C198.939 418.475 198.939 419.569 199.452 420.617C199.964 421.641 200.92 422.666 202.366 423.457L205.117 425.18C206.073 425.785 206.656 426.297 207.005 426.81C207.355 427.322 207.355 427.834 207.099 428.439C206.842 429.114 206.329 429.557 205.56 429.72C204.79 429.883 203.765 429.72 202.552 429.37C201.34 428.951 200.244 428.416 199.382 427.741C198.426 427.066 194.999 425.343 194.999 425.343V427.229C196.281 429.277 198.426 430.837 201.526 431.955C203.765 432.723 205.653 432.909 207.285 432.467C208.917 432.048 209.943 431.093 210.549 429.627C211.062 428.416 210.969 427.229 210.549 426.204C210.036 425.18 209.01 424.156 207.448 423.201L204.697 421.478C203.835 420.966 203.322 420.454 203.065 420.012C202.809 419.499 202.809 418.987 203.065 418.382C203.322 417.614 203.835 417.171 204.697 417.008C205.467 416.845 206.492 416.915 207.611 417.358C208.567 417.707 209.407 418.126 210.176 418.824C210.945 419.43 211.645 420.198 212.228 421.222L214.209 419.243V417.358C213.953 417.195 209.57 415.123 208.381 414.61H208.357Z" fill="#D18900"/>
<path d="M225.027 414.005V412.119L219.875 418.638L215.585 418.545V420.43L219.105 421.292L216.704 430.208C216.191 432.187 216.284 433.724 217.124 435.004C217.893 436.285 219.269 437.053 221.064 437.565C221.577 437.658 222.02 437.728 222.533 437.821C222.952 437.914 223.488 437.914 223.908 437.821L224.677 434.981V433.095C224.677 433.095 223.045 434.888 222.696 434.725C222.09 434.562 221.577 434.376 221.227 434.05C220.807 433.701 220.551 433.375 220.364 432.769C220.201 432.257 220.271 431.559 220.528 430.721L222.836 422.06L227.895 423.271L228.571 420.617V418.731L223.512 419.406L224.981 414.005H225.027Z" fill="#D18900"/>
<path d="M228.804 438.869L233.187 439.544L233.956 435.423V433.538L228.804 436.96V438.846V438.869Z" fill="#D18900"/>
<path d="M263.146 431.396C264.778 429.859 265.897 428.393 266.573 427.112C267.249 425.832 267.599 424.458 267.692 422.992C267.692 421.618 267.436 420.431 266.736 419.383C266.06 418.359 265.104 417.59 263.892 417.078C262.68 416.473 261.234 416.217 259.509 416.217C257.784 416.217 250.486 417.241 250.486 417.241V419.127L251.862 421.874C253.074 421.013 254.356 420.338 255.545 419.895C256.758 419.476 258.04 419.22 259.229 419.29C260.698 419.29 261.794 419.639 262.586 420.314C263.356 420.989 263.705 421.944 263.705 423.224C263.705 424.249 263.356 425.203 262.843 426.228C262.33 427.252 261.374 428.276 260.185 429.58L250.836 438.916L250.743 441.663L268.182 441.919L268.275 438.916L255.732 438.753L263.123 431.373L263.146 431.396Z" fill="#D18900"/>
<path d="M287.532 417.264C285.644 415.285 283.149 414.517 280.072 414.866C276.971 415.285 274.826 416.659 273.544 419.057C272.262 421.455 271.912 424.714 272.518 428.905C273.124 433.095 274.406 436.192 276.295 438.17C278.183 440.149 280.678 440.918 283.755 440.475C286.856 440.056 289.001 438.683 290.283 436.285C291.566 433.887 291.915 430.627 291.309 426.437C290.703 422.316 289.514 419.243 287.532 417.264ZM287.183 434.585C286.506 436.308 285.201 437.239 283.312 437.495C281.424 437.751 279.885 437.146 278.766 435.609C277.647 434.143 276.785 431.675 276.365 428.229C275.852 424.877 276.015 422.316 276.621 420.593C277.297 418.871 278.603 417.939 280.491 417.683C282.38 417.427 283.919 418.032 285.038 419.476C286.157 420.942 286.926 423.34 287.439 426.763C287.952 430.371 287.859 432.839 287.183 434.562V434.585Z" fill="#D18900"/>
<path d="M309.937 431.652L303.502 410.303L295.785 414.843V416.729L296.741 419.988L301.031 415.541L306.276 432.699L300.704 432.35V434.236L301.567 437.076L316.511 433.049V431.163L309.983 431.675L309.937 431.652Z" fill="#D18900"/>
<path d="M338.007 418.545V416.659L333.204 417.427L325.814 401.899L322.969 403.11L318.936 421.874L320.148 426.251L330.966 421.618L333.274 426.414L336.701 424.947V423.061L334.393 420.058L338.007 418.522V418.545ZM322.2 422.06L324.765 408.767L329.567 418.894L322.177 422.06H322.2Z" fill="#D18900"/>
<path d="M194.369 408.417C193.6 407.207 192.481 406.276 191.012 405.577C189.473 404.809 187.841 404.46 186.279 404.553C184.741 404.646 183.272 405.158 181.896 406.089C180.521 407.021 179.402 408.231 178.539 409.861C177.583 411.584 177.164 413.213 177.164 414.75C177.164 416.286 177.676 417.753 178.539 419.034C179.495 420.314 180.777 421.431 182.572 422.293C183.785 422.898 185.067 423.247 186.443 423.504C187.818 423.666 189.007 423.666 190.126 423.41L190.289 420.663C189.17 420.919 188.051 420.919 187.025 420.756C186 420.593 184.974 420.337 184.018 419.802C182.293 418.94 181.174 417.823 180.847 416.38C180.497 415.006 180.847 413.469 181.803 411.654L193.74 417.474L193.996 416.962C194.859 415.332 195.372 413.795 195.465 412.329C195.372 410.862 195.115 409.581 194.346 408.394L194.369 408.417ZM185.44 407.742C186.816 407.137 188.284 407.23 189.73 407.905C191.105 408.58 191.968 409.628 192.224 410.815C192.388 411.77 192.131 412.864 191.618 414.075L182.945 409.791C183.715 408.93 184.484 408.161 185.44 407.742Z" fill="#FFF59B"/>
<path d="M208.381 412.794C207.006 412.282 205.63 412.119 204.441 412.189C203.229 412.282 202.203 412.538 201.27 413.144C200.408 413.656 199.732 414.424 199.382 415.448C198.962 416.659 198.962 417.753 199.475 418.801C199.988 419.825 200.944 420.85 202.389 421.641L205.14 423.364C206.096 423.969 206.679 424.482 207.029 424.994C207.379 425.506 207.379 426.018 207.122 426.623C206.866 427.298 206.353 427.741 205.583 427.904C204.814 428.067 203.788 427.904 202.576 427.555C201.364 427.136 200.268 426.6 199.405 425.925C198.449 425.25 197.68 424.388 197.004 423.364L194.952 425.413C196.234 427.461 198.379 429.021 201.48 430.139C203.718 430.907 205.607 431.093 207.239 430.651C208.871 430.232 209.896 429.277 210.503 427.811C211.016 426.6 210.922 425.413 210.503 424.388C209.99 423.364 208.964 422.34 207.402 421.385L204.651 419.662C203.788 419.15 203.275 418.638 203.019 418.196C202.762 417.683 202.762 417.171 203.019 416.566C203.275 415.798 203.788 415.355 204.651 415.192C205.42 415.029 206.446 415.099 207.565 415.542C208.521 415.891 209.36 416.31 210.13 417.008C210.899 417.614 211.598 418.382 212.181 419.406L214.163 417.427C213.65 416.403 212.881 415.542 211.855 414.773C210.736 413.819 209.617 413.237 208.428 412.794H208.381Z" fill="#FFF59B"/>
<path d="M225.027 412.119L221.087 412.468L219.875 416.752L216.354 415.891L215.678 418.545L219.199 419.406L216.797 428.323C216.284 430.302 216.378 431.838 217.217 433.119C217.986 434.399 219.362 435.167 221.157 435.679C221.67 435.773 222.113 435.842 222.626 435.936C223.045 436.029 223.582 436.029 224.001 435.936L224.771 433.095H223.745C223.395 433.095 223.139 433.002 222.789 432.932C222.183 432.769 221.67 432.583 221.32 432.257C220.901 431.908 220.644 431.582 220.458 430.977C220.294 430.464 220.364 429.766 220.621 428.928L222.929 420.267L227.988 421.478L228.664 418.824L223.605 417.613L224.981 412.119H225.027Z" fill="#FFF59B"/>
<path d="M228.804 436.983L233.187 437.751L233.956 433.561L229.573 432.792L228.804 436.983Z" fill="#FFF59B"/>
<path d="M263.146 429.51C264.778 427.974 265.897 426.507 266.573 425.227C267.249 423.946 267.599 422.573 267.692 421.106C267.692 419.732 267.436 418.545 266.736 417.497C266.06 416.473 265.104 415.705 263.892 415.192C262.68 414.587 261.234 414.331 259.509 414.331C257.784 414.331 256.152 414.587 254.613 415.099C252.981 415.612 251.605 416.31 250.58 417.241L251.955 419.988C253.167 419.127 254.45 418.452 255.639 418.009C256.851 417.59 258.133 417.334 259.322 417.404C260.791 417.404 261.887 417.753 262.68 418.428C263.449 419.104 263.799 420.058 263.799 421.339C263.799 422.363 263.449 423.318 262.936 424.342C262.423 425.366 261.467 426.391 260.278 427.694L250.929 437.03L250.836 439.777L268.275 440.033L268.368 437.03L255.825 436.867L263.123 429.487L263.146 429.51Z" fill="#FFF59B"/>
<path d="M287.532 415.378C285.644 413.399 283.149 412.631 280.072 412.98C276.971 413.399 274.826 414.773 273.544 417.171C272.262 419.569 271.912 422.828 272.518 427.019C273.124 431.209 274.406 434.306 276.295 436.285C278.183 438.264 280.678 439.032 283.755 438.589C286.856 438.17 289.001 436.797 290.283 434.399C291.566 432.001 291.915 428.742 291.309 424.551C290.703 420.43 289.514 417.357 287.532 415.378ZM287.183 432.699C286.506 434.422 285.201 435.353 283.312 435.61C281.424 435.866 279.885 435.26 278.766 433.724C277.647 432.257 276.785 429.789 276.365 426.344C275.852 422.991 276.015 420.43 276.621 418.708C277.297 416.985 278.603 416.054 280.491 415.797C282.38 415.541 283.919 416.147 285.038 417.59C286.157 419.057 286.926 421.455 287.439 424.877C287.952 428.486 287.859 431.046 287.183 432.676V432.699Z" fill="#FFF59B"/>
<path d="M309.937 429.766L303.502 408.417L301.357 409.023L295.785 414.843L296.741 418.102L301.031 413.656L306.276 430.814L300.704 432.35L301.567 435.26L316.511 431.14L315.649 428.23L309.983 429.766H309.937Z" fill="#FFF59B"/>
<path d="M338.007 416.659L336.725 414.005L333.111 415.542L325.72 400.013L322.876 401.224L318.843 421.874L320.055 424.365L330.873 419.732L333.181 424.528L336.608 423.061L334.3 418.265L337.984 416.636L338.007 416.659ZM322.2 420.174L324.765 406.881L329.567 417.008L322.177 420.174H322.2Z" fill="#FFF59B"/>
<path d="M134.452 131.258C134.709 131.863 131.538 133.307 131.538 133.307V135.542L134.709 137.776C136.854 136.147 138.322 134.68 138.998 133.33C139.675 132.049 140.024 129.046 139.418 127.836C138.812 126.625 111.954 112.307 111.954 112.307V114.542L132.377 129.209C133.496 129.977 134.172 130.676 134.429 131.258H134.452Z" fill="#D18900"/>
<path d="M161.497 105.02C162.359 103.134 162.522 101.249 162.01 99.1999C161.59 97.1512 160.378 95.1723 158.582 93.1934C156.787 91.2146 154.805 89.841 152.567 89.0029C150.422 88.1415 148.184 87.8854 145.876 88.2346C143.638 88.5838 141.423 89.4452 139.255 90.9818C137.11 92.4484 135.641 94.148 134.802 96.0337C133.939 97.9195 133.776 99.8052 134.289 101.854C134.802 103.833 135.921 105.882 137.716 107.86C139.511 109.839 141.493 111.213 143.731 112.051C145.876 112.912 148.114 113.168 150.422 112.819C152.731 112.47 154.875 111.609 157.044 110.072C159.095 108.536 160.657 106.906 161.497 105.02ZM154.456 107.418C152.474 108.792 150.329 109.304 148.091 108.955C145.853 108.536 143.708 107.232 141.563 105.02C139.511 102.785 138.462 100.643 138.556 98.7576C138.649 96.7787 139.675 95.149 141.656 93.7056C143.638 92.332 145.783 91.7267 148.021 92.1691C150.259 92.5183 152.404 93.7987 154.456 96.1035C156.507 98.3385 157.557 100.48 157.463 102.459C157.557 104.345 156.507 105.975 154.456 107.441V107.418Z" fill="#D18900"/>
<path d="M186.046 93.6129L190.592 91.634V89.399L185.953 83.1364L189.124 65.6525V63.4175L181.826 80.7385L163.875 73.8706V76.1056L181.313 84.9291L186.046 93.5896V93.6129Z" fill="#D18900"/>
<path d="M226.216 81.5297V79.2947L224.421 71.5887L231.462 70.5644C234.376 70.1453 236.614 69.1908 238.083 67.6542C239.552 66.1875 240.065 64.3949 239.715 62.2531C239.365 60.1112 238.176 58.5747 236.358 57.527C234.469 56.5027 217.03 56.2466 217.03 56.2466V58.4816L221.227 82.2281L226.216 81.553V81.5297ZM229.06 60.1811C230.856 59.925 232.231 60.0181 233.187 60.5303C234.143 61.0425 234.726 61.8107 234.912 63.0213C235.075 64.1388 234.819 65.0701 234.05 65.8616C233.28 66.6532 232.068 67.1421 230.273 67.3981L223.908 68.3527L222.626 61.1589L229.06 60.2043V60.1811Z" fill="#D18900"/>
<path d="M262.446 52.4751L256.688 76.6407V78.8757H262.096L262.446 52.4751Z" fill="#D18900"/>
<path d="M290.866 66.0249L280.048 53.1738V55.4088L287.252 68.7022L274.033 76.8505V79.0855L279.792 80.04L289.397 72.334L294.713 82.4612L300.471 83.4158V81.1808L292.918 69.7033L305.787 59.6692V57.4342L290.843 66.0947L290.866 66.0249Z" fill="#D18900"/>
<path d="M330.546 89.9343V87.6994L318.003 85.3014L321.361 78.6896L333.204 83.0665L334.836 79.9002V77.6653L322.993 75.5234L326.093 69.354L338.706 73.9869L340.338 70.8207V68.5857L323.249 64.5581L311.825 84.5332V86.7681L328.914 93.1238L330.546 89.9576V89.9343Z" fill="#D18900"/>
<path d="M347.636 98.5946L361.461 81.7159V79.4111L341.038 96.8253V99.1301L355.796 107.954L358.197 104.95V102.715L347.636 98.5946Z" fill="#D18900"/>
<path d="M369.341 118.663C370.018 119.618 370.88 120.549 371.836 121.41C373.375 122.877 375.007 123.901 376.639 124.577C378.271 125.182 379.809 125.438 381.371 125.252C382.91 125.089 384.286 124.483 385.498 123.459C386.361 122.784 386.967 121.992 387.293 121.224C387.643 120.456 387.643 119.594 387.55 118.663C387.386 117.709 387.037 116.777 386.524 115.66C386.011 114.636 385.312 113.425 384.472 112.238C383.796 111.12 383.19 110.189 382.84 109.49C382.491 108.722 382.327 108.024 382.421 107.512C382.514 106.906 382.84 106.394 383.376 105.975C384.332 105.207 385.428 104.951 386.734 105.114C387.946 105.37 389.228 105.975 390.417 107.162C391.443 108.117 392.213 109.141 392.819 110.259C393.425 111.376 393.681 112.657 393.844 114.03L397.715 112.913V110.678C397.715 110.678 396.339 108.28 395.663 107.325C394.987 106.371 394.287 105.533 393.355 104.671C391.886 103.298 390.347 102.367 388.715 101.761C387.083 101.156 385.545 100.993 383.983 101.249C382.444 101.412 381.068 102.017 379.856 103.042C378.993 103.81 378.387 104.508 377.968 105.346C377.618 106.115 377.548 106.976 377.618 107.907C377.711 108.862 378.038 109.793 378.574 110.818C379.087 111.842 379.786 113.052 380.719 114.24C381.395 115.264 382.001 116.219 382.351 116.987C382.7 117.755 382.957 118.454 382.864 119.036C382.864 119.641 382.514 120.153 382.001 120.572C381.045 121.341 380.019 121.527 378.83 121.247C377.618 120.991 376.336 120.223 375.053 119.012C373.841 117.895 372.908 116.777 372.302 115.59C371.626 114.38 367.15 110.445 367.15 110.445V112.68C367.243 113.635 367.5 114.659 367.826 115.59C368.082 116.614 368.595 117.639 369.365 118.593L369.341 118.663Z" fill="#D18900"/>
<path d="M129.463 388.792L139.861 386.487L140.467 376.36L139.604 373.962L128.624 386.394L129.486 388.792H129.463Z" fill="#D18900"/>
<path d="M85.0028 338.551L95.6573 339.762L99.8538 330.496L98.8979 328.005L84.1401 336.153L85.0028 338.551Z" fill="#D18900"/>
<path d="M415.363 157.822L425.924 159.032L430.121 149.766L429.258 147.275L414.407 155.424L415.363 157.822Z" fill="#D18900"/>
<path d="M61.2928 276.903L70.8282 281.536L78.2188 274.086L77.2629 271.688L60.4302 274.529L61.2928 276.927V276.903Z" fill="#D18900"/>
<path d="M436.905 214.162L446.441 218.795L453.831 211.345L452.875 208.947L436.042 211.787L436.905 214.185V214.162Z" fill="#D18900"/>
<path d="M61.2928 211.321L68.6833 218.771L78.2188 214.138L77.2629 211.74L60.4302 208.9L61.2928 211.298V211.321Z" fill="#D18900"/>
<path d="M436.905 274.18L444.296 281.56L453.831 276.927L452.875 274.529L436.042 271.688L436.905 274.18Z" fill="#D18900"/>
<path d="M84.1401 147.299L89.1993 159.056L99.8538 157.845L98.8979 155.447L84.1401 147.299Z" fill="#D18900"/>
<path d="M414.407 328.005L419.466 339.762L430.121 338.551L429.258 336.153L414.407 328.005Z" fill="#D18900"/>
<path d="M384.192 376.29L374.331 384.089L375.286 386.487L385.685 388.792L385.078 378.665L384.216 376.267L384.192 376.29Z" fill="#D18900"/>
<path d="M128.6 386.394L138.998 384.089L139.604 373.962L129.206 376.267L128.6 386.394Z" fill="#FFF59B"/>
<path d="M84.1401 336.154L94.7947 337.364L98.9212 328.028L88.36 326.818L84.1634 336.154H84.1401Z" fill="#FFF59B"/>
<path d="M414.407 155.424L425.062 156.634L429.258 147.299L418.604 146.088L414.407 155.424Z" fill="#FFF59B"/>
<path d="M60.4302 274.506L69.9656 279.045L77.2629 271.665L67.7275 267.125L60.4302 274.506Z" fill="#FFF59B"/>
<path d="M436.042 211.763L445.578 216.303L452.875 208.923L443.34 204.29L436.042 211.74V211.763Z" fill="#FFF59B"/>
<path d="M60.4302 208.923L67.7275 216.303L77.2629 211.763L69.9656 204.313L60.4302 208.946V208.923Z" fill="#FFF59B"/>
<path d="M436.042 271.689L443.34 279.069L452.875 274.529L445.578 267.149L436.042 271.689Z" fill="#FFF59B"/>
<path d="M84.1401 147.299L88.3367 156.634L98.8979 155.424L94.7014 146.088L84.1401 147.299Z" fill="#FFF59B"/>
<path d="M414.407 328.005L418.604 337.341L429.258 336.13L425.062 326.794L414.407 328.005Z" fill="#FFF59B"/>
<path d="M373.817 373.962L374.33 384.089L384.798 386.394L384.192 376.267L373.794 373.962H373.817Z" fill="#FFF59B"/>
<path d="M134.452 129.023C134.709 129.628 134.615 130.234 134.102 130.909C133.59 131.584 132.727 132.376 131.538 133.4L134.709 135.635C136.853 134.005 138.322 132.538 138.998 131.188C139.674 129.908 139.768 128.627 139.162 127.417C138.555 126.206 137.436 124.926 135.641 123.738L115.218 109.071L111.954 112.424L132.377 127.091C133.496 127.766 134.172 128.464 134.429 129.07L134.452 129.023Z" fill="#FFF59B"/>
<path d="M161.497 102.785C162.359 100.9 162.522 99.0138 162.01 96.9651C161.59 94.9163 160.378 92.9375 158.582 90.9586C156.787 88.9797 154.805 87.6061 152.567 86.768C150.422 85.9066 148.184 85.6505 145.876 85.9997C143.638 86.3489 141.423 87.2103 139.255 88.7469C137.11 90.2136 135.641 91.9131 134.802 93.7989C133.939 95.6846 133.776 97.5704 134.289 99.6191C134.802 101.598 135.921 103.647 137.716 105.626C139.511 107.604 141.493 108.978 143.731 109.816C145.876 110.678 148.114 110.934 150.422 110.584C152.731 110.235 154.875 109.374 157.044 107.837C159.095 106.301 160.657 104.671 161.497 102.785ZM154.456 105.09C152.474 106.464 150.329 106.976 148.091 106.627C145.853 106.208 143.708 104.904 141.563 102.692C139.511 100.457 138.462 98.3153 138.556 96.4296C138.649 94.4507 139.675 92.8211 141.656 91.3776C143.638 90.0041 145.783 89.3988 148.021 89.8411C150.259 90.1903 152.404 91.4708 154.456 93.7756C156.507 96.0105 157.557 98.1524 157.463 100.131C157.557 102.017 156.507 103.74 154.456 105.113V105.09Z" fill="#FFF59B"/>
<path d="M186.046 91.3077L190.592 89.422L185.953 80.8546L189.124 63.4404L183.878 65.5823L181.826 78.4334L169.12 71.7517L163.875 73.8936L181.313 82.7171L186.046 91.2845V91.3077Z" fill="#FFF59B"/>
<path d="M226.216 79.2947L224.421 69.3537L231.462 68.3294C234.376 67.9103 236.614 66.9558 238.083 65.4193C239.552 63.9526 240.065 62.1599 239.715 60.0181C239.365 57.8762 238.176 56.3397 236.358 55.2921C234.469 54.2677 232.068 54.0116 229.06 54.4307L217.03 56.1535L221.227 79.9L226.216 79.2947ZM229.06 57.9461C230.856 57.69 232.231 57.7831 233.187 58.2953C234.143 58.8075 234.726 59.5758 234.912 60.7864C235.075 61.9038 234.819 62.8351 234.05 63.6266C233.28 64.4182 232.068 64.9071 230.273 65.1632L223.908 66.0246L222.626 58.8308L229.06 57.9694V57.9461Z" fill="#FFF59B"/>
<path d="M262.446 52.4751H257.387L256.711 76.6407H261.77L262.446 52.4751Z" fill="#FFF59B"/>
<path d="M290.866 63.6967L285.807 54.1049L280.048 53.1504L287.252 66.3507L274.033 76.8038L279.792 77.7584L289.397 70.0524L294.713 80.1796L300.471 81.1341L292.918 67.4216L305.787 57.3875L300.028 56.433L290.843 63.7199L290.866 63.6967Z" fill="#FFF59B"/>
<path d="M330.546 87.6995L318.003 83.0666L321.361 76.4548L333.204 80.8316L334.836 77.6654L322.993 73.2886L326.093 67.1191L338.706 71.752L340.338 68.5858L323.249 62.3232L311.825 84.5333L328.914 90.7958L330.546 87.6995Z" fill="#FFF59B"/>
<path d="M347.636 96.3598L361.461 79.388L357.334 76.897L341.015 96.7789L355.772 105.695L358.174 102.692L347.613 96.3366L347.636 96.3598Z" fill="#FFF59B"/>
<path d="M369.341 116.428C370.018 117.382 370.88 118.314 371.836 119.175C373.375 120.642 375.007 121.666 376.639 122.341C378.271 122.947 379.809 123.203 381.371 123.016C382.934 122.83 384.286 122.248 385.498 121.224C386.361 120.549 386.967 119.757 387.293 118.989C387.643 118.22 387.643 117.359 387.55 116.428C387.386 115.473 387.037 114.542 386.524 113.425C386.011 112.4 385.312 111.19 384.472 110.002C383.796 108.885 383.19 107.954 382.84 107.255C382.491 106.487 382.327 105.788 382.421 105.276C382.514 104.671 382.84 104.159 383.376 103.74C384.332 102.971 385.428 102.715 386.734 102.878C387.946 103.134 389.228 103.74 390.417 104.927C391.443 105.882 392.213 106.906 392.819 108.023C393.425 109.141 393.681 110.421 393.844 111.795L397.715 110.677C397.715 109.816 397.551 108.885 397.202 107.93C396.852 106.976 396.339 106.045 395.663 105.09C394.987 104.136 394.287 103.297 393.355 102.436C391.886 101.062 390.347 100.131 388.715 99.5259C387.083 98.9206 385.545 98.7576 383.983 99.0137C382.421 99.2698 381.068 99.782 379.856 100.806C378.993 101.575 378.387 102.273 377.968 103.111C377.618 103.879 377.548 104.741 377.618 105.672C377.711 106.627 378.038 107.558 378.574 108.582C379.087 109.607 379.786 110.817 380.719 112.004C381.395 113.029 382.001 113.983 382.351 114.752C382.7 115.52 382.957 116.218 382.864 116.8C382.864 117.406 382.514 117.918 382.001 118.337C381.045 119.105 380.019 119.291 378.83 119.012C377.618 118.756 376.336 117.988 375.053 116.777C373.841 115.66 372.908 114.542 372.302 113.355C371.626 112.144 371.183 110.864 371.02 109.327L367.15 110.445C367.243 111.399 367.5 112.424 367.826 113.355C368.082 114.379 368.595 115.334 369.365 116.358L369.341 116.428Z" fill="#FFF59B"/>
<path d="M352.602 347.468V245.963H354.234V239.188C354.234 239.188 357.078 236.278 355.866 234.392H358.523L362.137 229.596V222.216H375.799C382.584 222.216 382.584 212.438 375.799 212.438H375.193V203.941H380.089V196.305L388.249 189.623L257.504 100.457L126.828 189.623L134.988 196.305V203.941H139.884V212.438H139.371C132.587 212.438 132.587 222.216 139.371 222.216H153.033V229.596L156.647 234.392H159.305C158.093 236.278 160.937 239.188 160.937 239.188V245.963H162.569V347.468L122.562 354.243V357.409H392.655V354.243L352.648 347.468H352.602ZM239.272 347.468V245.963H240.904V239.188C240.904 239.188 243.748 236.278 242.536 234.392H245.194L248.808 229.596V222.216H266.246V229.596L269.86 234.392H272.518C271.306 236.278 274.15 239.188 274.15 239.188V245.963H275.782V347.468H239.295H239.272ZM322.9 229.503L326.513 234.299H329.171C327.959 236.185 330.803 239.095 330.803 239.095V245.87H332.435V347.375H295.949V245.963H297.581V239.188C297.581 239.188 300.425 236.278 299.213 234.392H301.87L305.484 229.596V222.216H322.923V229.503H322.9ZM182.689 347.468V245.963H184.321V239.188C184.321 239.188 187.165 236.278 185.953 234.392H188.611L192.224 229.596V222.216H209.663V229.596L213.277 234.392H215.935C214.722 236.278 217.567 239.188 217.567 239.188V245.963H219.199V347.468H182.712H182.689Z" fill="#D18900"/>
<path d="M182.689 231.482H162.522V313.268H182.689V231.482Z" fill="#FFF59B"/>
<path d="M184.251 239.957H160.89V242.797H184.251V239.957Z" fill="#FFDD63"/>
<path d="M192.224 226.407C185.277 233.601 152.987 226.407 152.987 226.407V214.487H192.224V226.407Z" fill="#FFDD63"/>
<path d="M184.251 236.022H160.89C160.89 236.022 158.046 233.112 159.258 231.226C160.541 229.247 184.671 229.247 185.953 231.226C187.072 233.112 184.228 236.022 184.228 236.022H184.251Z" fill="#FFDD63"/>
<path d="M188.611 231.227H156.577L152.963 226.431H192.201L188.587 231.227H188.611Z" fill="#FFF59B"/>
<path d="M185.603 310.172H159.584V313.012H185.603V310.172Z" fill="#FFDD63"/>
<path d="M187.259 320.462C170.869 324.327 157.906 320.462 157.906 320.462C156.88 318.832 160.657 313.082 160.657 313.082H184.531C184.531 313.082 188.308 318.739 187.282 320.462H187.259Z" fill="#FFF59B"/>
<path d="M188.797 320.462H156.438V331.684H188.797V320.462Z" fill="#FFDD63"/>
<path d="M352.602 231.482H332.435V313.268H352.602V231.482Z" fill="#FFF59B"/>
<path d="M354.234 239.957H330.873V242.797H354.234V239.957Z" fill="#FFDD63"/>
<path d="M362.137 226.407C355.19 233.601 322.9 226.407 322.9 226.407V214.487H362.137V226.407Z" fill="#FFDD63"/>
<path d="M354.233 236.022H330.873C330.873 236.022 328.028 233.112 329.241 231.226C330.523 229.247 354.653 229.247 355.935 231.226C357.054 233.112 354.21 236.022 354.21 236.022H354.233Z" fill="#FFDD63"/>
<path d="M358.523 231.227H326.49L322.876 226.431H362.114L358.5 231.227H358.523Z" fill="#FFF59B"/>
<path d="M355.516 310.172H329.498V313.012H355.516V310.172Z" fill="#FFDD63"/>
<path d="M357.241 320.462C340.851 324.327 327.889 320.462 327.889 320.462C326.863 318.832 330.64 313.082 330.64 313.082H354.513C354.513 313.082 358.197 318.739 357.264 320.462H357.241Z" fill="#FFF59B"/>
<path d="M358.687 320.462H326.327V331.684H358.687V320.462Z" fill="#FFDD63"/>
<path d="M296.018 231.482H275.852V313.268H296.018V231.482Z" fill="#FFF59B"/>
<path d="M297.58 239.957H274.22V242.797H297.58V239.957Z" fill="#FFDD63"/>
<path d="M305.46 226.407C298.513 233.601 266.223 226.407 266.223 226.407V214.487H305.46V226.407Z" fill="#FFDD63"/>
<path d="M297.581 236.022H274.22C274.22 236.022 271.376 233.112 272.588 231.226C273.87 229.247 298 229.247 299.282 231.226C300.402 233.112 297.557 236.022 297.557 236.022H297.581Z" fill="#FFDD63"/>
<path d="M301.87 231.227H269.836L266.223 226.431H305.46L301.847 231.227H301.87Z" fill="#FFF59B"/>
<path d="M298.863 310.172H272.844V313.012H298.863V310.172Z" fill="#FFDD63"/>
<path d="M300.565 320.462C284.175 324.327 271.212 320.462 271.212 320.462C270.186 318.832 273.963 313.082 273.963 313.082H297.837C297.837 313.082 301.614 318.739 300.588 320.462H300.565Z" fill="#FFF59B"/>
<path d="M302.034 320.462H269.674V331.684H302.034V320.462Z" fill="#FFDD63"/>
<path d="M239.365 231.482H219.199V313.268H239.365V231.482Z" fill="#FFF59B"/>
<path d="M240.904 239.957H217.543V242.797H240.904V239.957Z" fill="#FFDD63"/>
<path d="M248.807 226.407C241.86 233.601 209.57 226.407 209.57 226.407V214.487H248.807V226.407Z" fill="#FFDD63"/>
<path d="M240.904 236.022H217.543C217.543 236.022 214.699 233.112 215.911 231.226C217.193 229.247 241.323 229.247 242.606 231.226C243.725 233.112 240.88 236.022 240.88 236.022H240.904Z" fill="#FFDD63"/>
<path d="M245.287 231.227H213.254L209.64 226.431H248.784L245.264 231.227H245.287Z" fill="#FFF59B"/>
<path d="M242.279 310.172H216.261V313.012H242.279V310.172Z" fill="#FFDD63"/>
<path d="M243.912 320.462C227.522 324.327 214.559 320.462 214.559 320.462C213.534 318.832 217.311 313.082 217.311 313.082H241.184C241.184 313.082 244.961 318.739 243.935 320.462H243.912Z" fill="#FFF59B"/>
<path d="M245.45 320.462H213.09V331.684H245.45V320.462Z" fill="#FFDD63"/>
<path d="M388.318 347.468H126.898C124.66 347.468 122.515 349.61 122.515 351.915V354.22H392.702V351.915C392.608 349.61 390.557 347.468 388.318 347.468Z" fill="#FFDD63"/>
<path d="M370.88 333.918H144.314C142.076 333.918 139.931 336.06 139.931 338.458V340.693H375.169V338.458C375.169 336.153 373.118 333.918 370.88 333.918Z" fill="#FFDD63"/>
<path d="M379.739 340.693H135.478C133.24 340.693 131.281 342.835 131.281 345.14V347.445H384.029V345.14C383.935 342.835 381.884 340.693 379.739 340.693Z" fill="#FFF59B"/>
<path d="M362.137 327.144H152.987C150.749 327.144 148.604 329.286 148.604 331.684V333.919H366.497V331.684C366.497 329.379 364.352 327.144 362.114 327.144H362.137Z" fill="#FFF59B"/>
<path d="M375.776 219.05H139.348C132.564 219.05 132.564 209.272 139.348 209.272H375.706C382.49 209.272 382.49 219.05 375.799 219.05H375.776Z" fill="#FFF59B"/>
<path d="M257.48 97.3843L126.805 186.55L135.058 193.162L257.48 109.583L380.089 193.162L388.342 186.55L257.504 97.3843H257.48Z" fill="#FFF59B"/>
<path d="M257.48 113.425L135.058 197.003V200.775H380.089V197.003L257.48 113.425Z" fill="#FFF59B"/>
<path d="M257.48 121.224L155.738 192.65H359.386L257.48 121.224Z" fill="#FFDD63"/>
<path d="M253.447 186.038C244.937 186.038 237.383 182.43 230.949 177.215C230.342 176.702 229.83 175.934 229.83 175.073C229.83 174.211 230.179 172.582 230.949 172.07L236.777 167.53C237.29 166.924 238.153 166.505 239.015 166.505C239.878 166.505 240.741 166.924 241.253 167.623C244.517 170.626 248.807 172.349 253.447 172.349C254.822 172.349 256.198 172.186 257.48 171.93C263.145 170.649 267.785 166.692 269.767 161.547H264.101C263.332 161.547 262.632 161.29 262.12 160.778C261.513 160.173 261.164 159.312 261.35 158.473V153.328C261.257 152.56 261.513 150.767 262.12 150.162C262.726 149.557 284.011 149.557 284.618 150.069C285.224 150.674 285.573 152.56 285.48 153.328V155.889C285.48 168.158 277.763 179.124 265.826 183.757C261.793 185.293 257.667 186.061 253.47 186.061L253.447 186.038Z" fill="#D18900"/>
<path d="M284.175 149.697C283.662 149.184 282.893 148.928 282.123 149.091H264.358C263.589 148.998 262.819 149.254 262.306 149.697C261.794 150.209 261.537 150.907 261.63 151.675V156.821C261.537 157.496 261.794 158.287 262.306 158.799C262.819 159.312 263.589 159.568 264.358 159.405H270.28C268.391 164.969 263.589 169.183 257.574 170.556C251.559 171.93 245.217 170.207 240.927 166.11C240.508 165.504 239.715 165.155 238.946 165.155C238.176 165.155 237.477 165.504 236.964 166.11L231.136 171.604C230.529 172.023 230.18 172.721 230.18 173.397C230.18 174.072 230.599 174.77 231.136 175.189C240.741 183.081 253.634 186.248 265.384 181.615C277.157 176.982 284.781 166.086 284.781 154.097V151.536C284.944 150.93 284.688 150.255 284.175 149.743V149.697Z" fill="#FFF59B"/>
<path d="M585.835 359.644L732.9 269.267C754.885 255.764 768.151 241.307 771.111 224.545C774.329 206.385 763.091 193.325 741.642 193.325C717.839 193.325 701.216 208.225 696.133 237.116C695.061 243.169 691.307 245.963 686.645 245.963H619.011C613.882 245.963 611.2 242.704 611.923 238.513C622.624 177.959 669.183 122.97 754.092 122.97C830.143 122.97 864.507 171.417 855.788 220.796C848.957 259.466 826.599 288.358 783.281 314.432L765.539 325.142C757.17 330.263 743.671 335.385 743.671 335.385L743.508 336.316H833.546C836.344 336.316 839.422 340.041 838.932 342.835L828.72 400.595C828.231 403.389 823.848 407.114 821.05 407.114H577.512L585.905 359.597L585.835 359.644Z" stroke="#1E1E1E" stroke-width="16.23"/>
<path d="M861.524 395.985L936.548 309.333L894.42 228.269C892.368 224.079 891.669 222.682 891.995 220.819C892.485 218.026 895.143 216.163 897.008 216.163H969.328C975.856 216.163 978.024 217.094 980.076 221.285L999.286 260.42H1000.22C1000.22 260.42 1003.53 254.833 1008.96 247.848L1029.5 221.285C1032.49 217.56 1035.07 216.163 1039.74 216.163H1113.46C1115.32 216.163 1117.49 217.094 1117 219.888C1116.67 221.751 1114.78 224.544 1111.78 228.269L1041.23 310.73L1085.8 396.451C1087.55 399.71 1088.16 401.572 1087.83 403.435C1087.34 406.229 1084.85 407.16 1082.98 407.16H1011.13C1004.6 407.16 1002.04 405.763 999.613 401.107L978.094 359.178H977.161C977.161 359.178 973.291 365.231 967.859 372.215L944.568 401.107C941.025 405.297 936.968 407.16 930.44 407.16H859.985C858.12 407.16 855.952 406.229 856.441 403.435C856.768 401.572 857.957 400.176 861.5 395.985H861.524Z" stroke="#1E1E1E" stroke-width="16.23"/>
<path d="M585.835 359.644L732.9 269.267C754.885 255.764 768.151 241.307 771.111 224.545C774.329 206.385 763.091 193.325 741.642 193.325C717.839 193.325 701.216 208.225 696.133 237.116C695.061 243.169 691.307 245.963 686.645 245.963H619.011C613.882 245.963 611.2 242.704 611.923 238.513C622.624 177.959 669.183 122.97 754.092 122.97C830.143 122.97 864.507 171.417 855.788 220.796C848.957 259.466 826.599 288.358 783.281 314.432L765.539 325.141C757.17 330.263 743.671 335.385 743.671 335.385L743.508 336.316H833.546C836.344 336.316 839.422 340.041 838.932 342.835L828.72 400.595C828.231 403.389 823.848 407.114 821.05 407.114H577.512L585.905 359.597L585.835 359.644Z" fill="#F5C242"/>
<path d="M861.524 395.985L936.548 309.333L894.42 228.269C892.368 224.079 891.669 222.682 891.995 220.819C892.485 218.026 895.143 216.163 897.008 216.163H969.328C975.856 216.163 978.024 217.094 980.076 221.285L999.286 260.42H1000.22C1000.22 260.42 1003.53 254.833 1008.96 247.848L1029.5 221.285C1032.49 217.56 1035.07 216.163 1039.74 216.163H1113.46C1115.32 216.163 1117.49 217.094 1117 219.888C1116.67 221.751 1114.78 224.544 1111.78 228.269L1041.23 310.73L1085.8 396.451C1087.55 399.71 1088.16 401.572 1087.83 403.435C1087.34 406.229 1084.85 407.16 1082.98 407.16H1011.13C1004.6 407.16 1002.04 405.763 999.613 401.107L978.094 359.178H977.161C977.161 359.178 973.291 365.231 967.859 372.215L944.568 401.107C941.025 405.297 936.968 407.16 930.44 407.16H859.985C858.12 407.16 855.952 406.229 856.441 403.435C856.768 401.572 857.957 400.176 861.5 395.985H861.524Z" fill="#F5C242"/>
</g>
<defs>
<linearGradient id="paint0_linear_164_787" x1="257.574" y1="0" x2="257.574" y2="489.552" gradientUnits="userSpaceOnUse">
<stop stop-color="#FFF59B"/>
<stop offset="0.13" stop-color="#FFF18E"/>
<stop offset="0.38" stop-color="#FFE76B"/>
<stop offset="0.72" stop-color="#FFD734"/>
<stop offset="1" stop-color="#FFC800"/>
</linearGradient>
<linearGradient id="paint1_linear_164_787" x1="257.574" y1="457.727" x2="257.574" y2="42.2782" gradientUnits="userSpaceOnUse">
<stop stop-color="#F7A300"/>
<stop offset="1" stop-color="#FFC800"/>
</linearGradient>
<clipPath id="clip0_164_787">
<rect width="1136" height="514.392" fill="white"/>
</clipPath>
</defs>
</svg>
