<svg width="832" height="450" viewBox="0 0 832 450" fill="none" xmlns="http://www.w3.org/2000/svg">
<path d="M110.344 70.432C110.413 70.224 110.379 70.0507 110.24 69.912C110.101 69.704 109.928 69.6 109.72 69.6C108.056 69.6 105.768 69.7387 102.856 70.016C102.232 70.1547 101.92 70.4667 101.92 70.952V82.392C101.92 82.5307 101.989 82.6347 102.128 82.704C102.267 82.7733 102.371 82.7387 102.44 82.6C105.56 78.9253 108.195 74.8693 110.344 70.432ZM78 86.24C78 90.6773 79.8027 93.104 83.408 93.52C83.6853 93.5893 83.8933 93.52 84.032 93.312C84.1707 93.104 84.24 92.8613 84.24 92.584V76.984C84.24 76.4293 83.9973 76.3253 83.512 76.672C79.8373 79.584 78 82.7733 78 86.24ZM110.24 52.96C122.651 52.96 132.149 55.664 138.736 61.072C145.392 66.48 148.72 73.8293 148.72 83.12C148.72 90.3307 146.536 96.6747 142.168 102.152C137.8 107.56 131.803 111.477 124.176 113.904C122.651 114.389 121.16 114.216 119.704 113.384C118.248 112.552 117.277 111.339 116.792 109.744L115.128 104.336C114.643 102.811 114.747 101.355 115.44 99.968C116.203 98.512 117.347 97.4373 118.872 96.744C122.269 95.1493 124.973 93.1387 126.984 90.712C128.995 88.216 130 85.6853 130 83.12C130 80.0693 129.341 77.5733 128.024 75.632C127.955 75.4933 127.781 75.424 127.504 75.424C127.296 75.424 127.157 75.528 127.088 75.736C122.096 86.8293 115.613 95.3573 107.64 101.32C99.6667 107.213 91.1733 110.16 82.16 110.16C75.296 110.16 69.7493 108.184 65.52 104.232C61.36 100.28 59.28 94.976 59.28 88.32C59.28 81.3173 61.36 75.112 65.52 69.704C69.7493 64.296 75.7467 60.136 83.512 57.224C83.9973 57.016 84.24 56.6347 84.24 56.08V48.696C84.24 48.072 83.9627 47.76 83.408 47.76H70.408C68.8133 47.76 67.4267 47.1707 66.248 45.992C65.0693 44.8133 64.48 43.4267 64.48 41.832V38.088C64.48 36.4933 65.0693 35.1067 66.248 33.928C67.4267 32.7493 68.8133 32.16 70.408 32.16H83.408C83.9627 32.16 84.24 31.848 84.24 31.224V27.688C84.24 26.0933 84.8293 24.7067 86.008 23.528C87.1867 22.3493 88.5733 21.76 90.168 21.76H95.992C97.5867 21.76 98.9733 22.3493 100.152 23.528C101.331 24.7067 101.92 26.0933 101.92 27.688V31.224C101.92 31.848 102.232 32.16 102.856 32.16H137.592C139.187 32.16 140.573 32.7493 141.752 33.928C142.931 35.1067 143.52 36.4933 143.52 38.088V41.832C143.52 43.4267 142.931 44.8133 141.752 45.992C140.573 47.1707 139.187 47.76 137.592 47.76H102.856C102.232 47.76 101.92 48.072 101.92 48.696V52.44C101.92 52.9947 102.197 53.272 102.752 53.272C105.109 53.064 107.605 52.96 110.24 52.96ZM212.888 97.68C215.592 97.68 217.464 97.056 218.504 95.808C219.544 94.4907 220.099 91.96 220.168 88.216C220.168 87.5227 219.891 87.072 219.336 86.864C217.187 85.7547 215.037 85.2 212.888 85.2C210.184 85.2 208.104 85.7893 206.648 86.968C205.261 88.0773 204.568 89.568 204.568 91.44C204.568 93.3813 205.296 94.9067 206.752 96.016C208.208 97.1253 210.253 97.68 212.888 97.68ZM249.6 35.592C251.195 35.7307 252.512 36.4587 253.552 37.776C254.592 39.0933 255.008 40.5493 254.8 42.144L254.176 47.136C253.968 48.7307 253.205 50.0133 251.888 50.984C250.64 51.9547 249.219 52.336 247.624 52.128C244.296 51.712 241.696 51.4693 239.824 51.4C239.2 51.4 238.888 51.712 238.888 52.336V79.168C238.888 79.792 239.165 80.2773 239.72 80.624C243.325 83.328 247.52 86.9333 252.304 91.44C253.483 92.6187 254.107 94.04 254.176 95.704C254.245 97.2987 253.725 98.72 252.616 99.968L249.08 103.712C247.971 104.891 246.619 105.549 245.024 105.688C243.429 105.757 242.043 105.237 240.864 104.128C240.448 103.781 239.824 103.261 238.992 102.568C238.229 101.875 237.709 101.389 237.432 101.112C237.016 100.696 236.669 100.731 236.392 101.216C232.648 109.259 224.813 113.28 212.888 113.28C204.36 113.28 197.704 111.304 192.92 107.352C188.205 103.469 185.848 98.1653 185.848 91.44C185.848 84.8533 188.171 79.584 192.816 75.632C197.531 71.6107 204.221 69.6 212.888 69.6C215.107 69.6 217.221 69.8427 219.232 70.328C219.856 70.4667 220.168 70.2587 220.168 69.704V40.168C220.168 38.5733 220.757 37.1867 221.936 36.008C223.115 34.8293 224.501 34.2747 226.096 34.344C234.624 34.4827 242.459 34.8987 249.6 35.592ZM206.96 50.88H194.584C193.96 50.88 193.579 51.192 193.44 51.816C189.349 67.9013 184.739 82.912 179.608 96.848C179.053 98.3733 178.013 99.5173 176.488 100.28C175.032 100.973 173.507 101.043 171.912 100.488L165.984 98.512C164.459 97.9573 163.349 96.9867 162.656 95.6C161.963 94.144 161.859 92.6533 162.344 91.128C167.405 77.0533 171.565 63.9147 174.824 51.712C174.963 51.1573 174.72 50.88 174.096 50.88H168.896C167.301 50.88 165.915 50.2907 164.736 49.112C163.557 47.9333 162.968 46.5467 162.968 44.952V40.168C162.968 38.5733 163.557 37.1867 164.736 36.008C165.915 34.8293 167.301 34.24 168.896 34.24H178.36C178.915 34.24 179.261 33.9627 179.4 33.408C180.093 30.3573 180.613 28.0347 180.96 26.44C181.307 24.8453 182.139 23.5627 183.456 22.592C184.843 21.6213 186.368 21.24 188.032 21.448L194.064 22.072C195.659 22.28 196.907 23.0427 197.808 24.36C198.709 25.6773 199.021 27.0987 198.744 28.624C198.605 29.1787 198.432 29.976 198.224 31.016C198.016 32.056 197.843 32.8533 197.704 33.408C197.565 33.9627 197.808 34.24 198.432 34.24H206.96C208.555 34.24 209.941 34.8293 211.12 36.008C212.299 37.1867 212.888 38.5733 212.888 40.168V44.952C212.888 46.5467 212.299 47.9333 211.12 49.112C209.941 50.2907 208.555 50.88 206.96 50.88ZM347.776 52.96C349.44 52.96 350.861 53.5493 352.04 54.728C353.219 55.8373 353.808 57.224 353.808 58.888V63.152C353.808 64.7467 353.219 66.1333 352.04 67.312C350.931 68.4907 349.579 69.08 347.984 69.08C339.04 69.1493 328.744 69.6693 317.096 70.64C315.501 70.7787 314.08 70.328 312.832 69.288C311.584 68.1787 310.891 66.8267 310.752 65.232L310.544 60.968C310.405 59.304 310.856 57.848 311.896 56.6C313.005 55.352 314.392 54.6587 316.056 54.52C328.051 53.5493 338.624 53.0293 347.776 52.96ZM355.056 98.304L355.68 103.296C355.888 104.96 355.472 106.416 354.432 107.664C353.461 108.981 352.179 109.779 350.584 110.056C345.037 110.819 339.699 111.2 334.568 111.2C324.307 111.2 316.195 109.293 310.232 105.48C304.269 101.667 301.288 96.8133 301.288 90.92C301.288 87.1067 302.987 83.2587 306.384 79.376C308.88 76.6027 312.139 75.944 316.16 77.4L320.216 78.96C321.533 79.4453 322.331 80.3813 322.608 81.768C322.885 83.0853 322.573 84.264 321.672 85.304C320.563 86.552 320.008 87.7307 320.008 88.84C320.008 90.504 321.221 91.8907 323.648 93C326.144 94.04 329.784 94.56 334.568 94.56C339.56 94.56 344.205 94.2133 348.504 93.52C350.099 93.2427 351.52 93.5893 352.768 94.56C354.085 95.5307 354.848 96.7787 355.056 98.304ZM333.84 48.8H302.744C302.189 48.8 301.843 49.112 301.704 49.736C297.752 69.7733 293.003 88.9093 287.456 107.144C286.971 108.739 286 109.952 284.544 110.784C283.088 111.616 281.563 111.859 279.968 111.512L272.688 109.848C271.093 109.501 269.915 108.669 269.152 107.352C268.389 106.035 268.251 104.613 268.736 103.088C273.936 86.448 278.512 68.6293 282.464 49.632C282.603 49.0773 282.36 48.8 281.736 48.8H276.016C274.421 48.8 273.035 48.2107 271.856 47.032C270.677 45.8533 270.088 44.4667 270.088 42.872V38.088C270.088 36.4933 270.677 35.1067 271.856 33.928C273.035 32.7493 274.421 32.16 276.016 32.16H284.96C285.515 32.16 285.861 31.8827 286 31.328C286.069 30.7733 286.208 29.976 286.416 28.936C286.624 27.896 286.763 27.1333 286.832 26.648C287.109 24.984 287.872 23.632 289.12 22.592C290.437 21.552 291.928 21.1013 293.592 21.24L300.664 21.76C302.259 21.8987 303.541 22.6267 304.512 23.944C305.483 25.192 305.829 26.5787 305.552 28.104C305.483 28.4507 305.379 28.9707 305.24 29.664C305.171 30.3573 305.101 30.8773 305.032 31.224C304.893 31.848 305.136 32.16 305.76 32.16H333.84C335.435 32.16 336.821 32.7493 338 33.928C339.179 35.1067 339.768 36.4933 339.768 38.088V42.872C339.768 44.4667 339.179 45.8533 338 47.032C336.821 48.2107 335.435 48.8 333.84 48.8ZM448.656 31.12C450.251 31.12 451.637 31.7093 452.816 32.888C453.995 34.0667 454.584 35.4533 454.584 37.048V40.792C454.584 42.3867 453.995 43.7733 452.816 44.952C451.637 46.1307 450.251 46.72 448.656 46.72H407.576C406.952 46.72 406.536 46.9627 406.328 47.448L404.664 50.776V50.88H404.768L404.872 50.984C407.368 50.2213 409.725 49.84 411.944 49.84C421.928 49.84 428.896 53.5147 432.848 60.864C433.056 61.3493 433.472 61.5227 434.096 61.384C437.493 60.76 442.035 60.0667 447.72 59.304C449.315 59.096 450.736 59.512 451.984 60.552C453.232 61.592 453.925 62.9093 454.064 64.504L454.584 68.976C454.723 70.5707 454.272 71.992 453.232 73.24C452.192 74.488 450.875 75.216 449.28 75.424C446.16 75.84 442.485 76.4293 438.256 77.192C437.701 77.3307 437.424 77.6773 437.424 78.232C437.563 79.3413 437.701 81.0747 437.84 83.432C437.909 85.0267 437.355 86.4133 436.176 87.592C434.997 88.7707 433.611 89.36 432.016 89.36H424.112C422.517 89.36 421.131 88.8053 419.952 87.696C418.843 86.5867 418.219 85.2347 418.08 83.64C418.08 83.016 417.803 82.8427 417.248 83.12C410.939 85.7547 407.784 88.1813 407.784 90.4C407.784 92.4107 408.997 93.8667 411.424 94.768C413.851 95.6693 418.531 96.12 425.464 96.12C429.763 96.12 436.627 95.5307 446.056 94.352C447.651 94.144 449.072 94.5253 450.32 95.496C451.637 96.4667 452.365 97.7493 452.504 99.344L453.024 104.336C453.163 106 452.712 107.456 451.672 108.704C450.632 109.952 449.28 110.68 447.616 110.888C439.643 111.789 432.259 112.24 425.464 112.24C412.152 112.24 402.584 110.611 396.76 107.352C390.936 104.093 388.024 99.136 388.024 92.48C388.024 87.5573 390.104 82.912 394.264 78.544C398.493 74.176 404.768 70.3973 413.088 67.208C413.296 67.1387 413.4 67 413.4 66.792C413.4 66.584 413.331 66.4107 413.192 66.272C411.667 65.024 409.517 64.4 406.744 64.4C403.763 64.4 401.024 65.3013 398.528 67.104C396.101 68.9067 392.704 72.6853 388.336 78.44C387.365 79.7573 386.048 80.5893 384.384 80.936C382.72 81.2827 381.16 81.0747 379.704 80.312L374.504 77.608C373.117 76.9147 372.216 75.8053 371.8 74.28C371.453 72.6853 371.731 71.2293 372.632 69.912C378.04 61.9387 382.477 54.4507 385.944 47.448C386.013 47.3093 385.979 47.1707 385.84 47.032C385.771 46.824 385.632 46.72 385.424 46.72H377.312C375.717 46.72 374.331 46.1307 373.152 44.952C371.973 43.7733 371.384 42.3867 371.384 40.792V37.048C371.384 35.4533 371.973 34.0667 373.152 32.888C374.331 31.7093 375.717 31.12 377.312 31.12H391.872C392.427 31.12 392.843 30.808 393.12 30.184C393.189 29.9067 393.397 29.3173 393.744 28.416C394.091 27.4453 394.333 26.7173 394.472 26.232C394.957 24.6373 395.928 23.424 397.384 22.592C398.909 21.6907 400.504 21.3787 402.168 21.656L410.28 22.904C411.805 23.1813 412.949 23.9787 413.712 25.296C414.475 26.544 414.613 27.896 414.128 29.352L413.816 30.288C413.539 30.8427 413.712 31.12 414.336 31.12H448.656ZM565.448 61.8C567.043 61.8 568.429 62.3893 569.608 63.568C570.787 64.7467 571.376 66.1333 571.376 67.728V72.512C571.376 74.1067 570.787 75.4933 569.608 76.672C568.429 77.8507 567.043 78.44 565.448 78.44H555.672C555.048 78.44 554.736 78.752 554.736 79.376V95.08C554.736 98.616 554.667 101.389 554.528 103.4C554.459 105.411 554.147 107.283 553.592 109.016C553.037 110.749 552.413 111.997 551.72 112.76C551.027 113.523 549.813 114.181 548.08 114.736C546.416 115.291 544.648 115.603 542.776 115.672C540.904 115.811 538.304 115.88 534.976 115.88C531.856 115.88 528.979 115.811 526.344 115.672C524.68 115.603 523.224 114.944 521.976 113.696C520.797 112.517 520.139 111.096 520 109.432L519.792 105.168C519.723 103.643 520.208 102.325 521.248 101.216C522.357 100.037 523.709 99.4827 525.304 99.552C527.523 99.6907 529.707 99.76 531.856 99.76C533.659 99.76 534.699 99.5867 534.976 99.24C535.323 98.8933 535.496 97.8533 535.496 96.12V79.376C535.496 78.752 535.184 78.44 534.56 78.44H521.144C519.549 78.44 518.163 77.8507 516.984 76.672C515.805 75.4933 515.216 74.1067 515.216 72.512V67.728C515.216 66.1333 515.805 64.7467 516.984 63.568C518.163 62.3893 519.549 61.8 521.144 61.8H534.56C535.184 61.8 535.496 61.488 535.496 60.864V54C535.496 53.0293 535.843 52.1973 536.536 51.504C537.299 50.7413 538.165 50.36 539.136 50.36C539.552 50.36 539.864 50.2213 540.072 49.944C542.568 46.616 544.787 43.3573 546.728 40.168C546.867 40.0293 546.867 39.8907 546.728 39.752C546.659 39.544 546.52 39.44 546.312 39.44H524.784C523.189 39.44 521.803 38.8507 520.624 37.672C519.445 36.4933 518.856 35.1067 518.856 33.512V29.248C518.856 27.6533 519.445 26.2667 520.624 25.088C521.803 23.9093 523.189 23.32 524.784 23.32H561.288C562.883 23.32 564.269 23.9093 565.448 25.088C566.627 26.2667 567.216 27.6533 567.216 29.248V33.512C567.216 37.464 566.211 41.1387 564.2 44.536C560.872 49.944 557.891 54.52 555.256 58.264C554.909 58.7493 554.736 59.2693 554.736 59.824V60.864C554.736 61.488 555.048 61.8 555.672 61.8H565.448ZM510.12 82.288C512.824 85.0613 515.389 87.9733 517.816 91.024C518.856 92.3413 519.307 93.832 519.168 95.496C519.029 97.0907 518.371 98.4773 517.192 99.656L513.24 103.504C512.061 104.613 510.675 105.099 509.08 104.96C507.555 104.821 506.307 104.128 505.336 102.88C504.92 102.395 504.365 101.701 503.672 100.8C502.979 99.8987 502.459 99.24 502.112 98.824C501.973 98.6853 501.765 98.616 501.488 98.616C501.211 98.616 501.037 98.72 500.968 98.928C497.155 104.752 492.371 110.056 486.616 114.84C485.368 115.88 483.912 116.296 482.248 116.088C480.584 115.88 479.267 115.117 478.296 113.8L475.176 109.64C474.205 108.323 473.824 106.867 474.032 105.272C474.24 103.677 474.968 102.325 476.216 101.216C481.347 96.64 485.507 91.648 488.696 86.24C488.973 85.6853 488.904 85.2693 488.488 84.992C487.379 84.0213 486.477 83.2587 485.784 82.704C485.645 82.5653 485.437 82.5307 485.16 82.6C484.952 82.6693 484.813 82.808 484.744 83.016L484.12 84.888C483.635 86.136 482.733 86.8987 481.416 87.176C480.099 87.384 478.989 86.968 478.088 85.928L473.824 80.832C471.328 77.92 470.6 74.5227 471.64 70.64C473.304 64.3307 474.656 57.9867 475.696 51.608C475.835 51.1227 475.627 50.88 475.072 50.88C473.824 50.88 472.749 50.4293 471.848 49.528C470.947 48.6267 470.496 47.552 470.496 46.304V41.208C470.496 39.6133 471.085 38.2267 472.264 37.048C473.443 35.8693 474.829 35.28 476.424 35.28H476.736C477.429 35.28 477.776 34.968 477.776 34.344C477.984 31.848 478.192 29.248 478.4 26.544C478.469 24.88 479.128 23.528 480.376 22.488C481.624 21.3787 483.08 20.8587 484.744 20.928L489.528 21.032C491.123 21.1013 492.475 21.7253 493.584 22.904C494.693 24.0827 495.213 25.4693 495.144 27.064C494.867 30.392 494.659 32.8533 494.52 34.448C494.52 35.0027 494.763 35.28 495.248 35.28H509.808C511.403 35.28 512.789 35.8693 513.968 37.048C515.147 38.2267 515.701 39.6133 515.632 41.208C515.216 56.9467 513.24 70.12 509.704 80.728C509.496 81.2827 509.635 81.8027 510.12 82.288ZM496.184 68.456C497.571 63.3253 498.507 57.7787 498.992 51.816C498.992 51.192 498.715 50.88 498.16 50.88H493.376C492.821 50.88 492.475 51.1573 492.336 51.712C491.435 57.0507 490.672 61.1413 490.048 63.984C489.909 64.5387 490.117 65.024 490.672 65.44C492.752 66.9653 494.277 68.1093 495.248 68.872C495.733 69.2187 496.045 69.08 496.184 68.456ZM660.504 49.632C662.099 49.5627 663.485 50.0827 664.664 51.192C665.912 52.3013 666.571 53.6533 666.64 55.248L666.744 58.992C666.813 60.5867 666.293 62.008 665.184 63.256C664.075 64.504 662.723 65.1627 661.128 65.232C658.632 65.3707 654.888 65.5093 649.896 65.648C649.272 65.648 649.099 65.9253 649.376 66.48C651.04 69.8773 652.6 72.7547 654.056 75.112C654.819 76.4293 654.992 77.816 654.576 79.272C654.16 80.728 653.259 81.7333 651.872 82.288L642.928 86.032C639.461 87.488 635.821 87.6267 632.008 86.448C627.363 84.9227 622.96 84.16 618.8 84.16C610.48 84.16 606.32 85.8933 606.32 89.36C606.32 91.7173 607.88 93.4507 611 94.56C614.12 95.6 619.84 96.12 628.16 96.12C632.944 96.12 639.288 95.6693 647.192 94.768C648.787 94.56 650.243 94.976 651.56 96.016C652.877 96.9867 653.64 98.2693 653.848 99.864L654.472 104.336C654.68 105.931 654.264 107.387 653.224 108.704C652.253 110.021 650.971 110.784 649.376 110.992C642.165 111.824 635.093 112.24 628.16 112.24C613.808 112.24 603.269 110.299 596.544 106.416C589.888 102.603 586.56 96.9173 586.56 89.36C586.56 83.2587 589.299 78.44 594.776 74.904C600.253 71.368 608.261 69.6 618.8 69.6C623.307 69.6 627.397 69.9467 631.072 70.64H631.28V70.432C631.141 70.016 630.899 69.4613 630.552 68.768C630.205 68.0747 629.963 67.52 629.824 67.104C629.547 66.5493 629.165 66.272 628.68 66.272C616.339 66.6187 602.472 66.8613 587.08 67C585.416 67 583.995 66.4107 582.816 65.232C581.707 64.0533 581.152 62.6667 581.152 61.072V57.328C581.152 55.7333 581.707 54.3467 582.816 53.168C583.995 51.9893 585.381 51.4 586.976 51.4C597.723 51.4 609.856 51.2267 623.376 50.88C623.931 50.88 624.139 50.568 624 49.944C623.931 49.6667 623.827 49.2507 623.688 48.696C623.549 48.072 623.445 47.6213 623.376 47.344C623.237 46.7893 622.856 46.512 622.232 46.512C605.592 46.8587 595.643 47.032 592.384 47.032C590.72 47.032 589.299 46.4773 588.12 45.368C586.941 44.1893 586.352 42.768 586.352 41.104V37.36C586.352 35.7653 586.941 34.3787 588.12 33.2C589.299 32.0213 590.685 31.432 592.28 31.432C598.312 31.432 607.429 31.2933 619.632 31.016C620.325 31.016 620.603 30.7387 620.464 30.184C620.464 29.976 620.429 29.664 620.36 29.248C620.291 28.7627 620.256 28.416 620.256 28.208C620.117 26.6133 620.568 25.2267 621.608 24.048C622.717 22.8 624.104 22.1067 625.768 21.968L632.632 21.552C634.227 21.4827 635.613 22.0027 636.792 23.112C638.04 24.152 638.733 25.504 638.872 27.168C638.941 27.4453 638.976 27.8613 638.976 28.416C638.976 28.9013 639.011 29.2827 639.08 29.56C639.08 30.1147 639.392 30.392 640.016 30.392C647.781 30.1147 653.571 29.872 657.384 29.664C658.979 29.5947 660.365 30.1147 661.544 31.224C662.792 32.3333 663.451 33.6853 663.52 35.28L663.624 39.024C663.693 40.6187 663.173 42.04 662.064 43.288C660.955 44.536 659.603 45.1947 658.008 45.264C654.68 45.4027 649.619 45.6107 642.824 45.888C642.269 45.888 642.061 46.2 642.2 46.824C642.269 47.1707 642.373 47.656 642.512 48.28C642.72 48.8347 642.859 49.216 642.928 49.424C643.067 49.9787 643.413 50.256 643.968 50.256L660.504 49.632ZM732.888 97.68C735.592 97.68 737.464 97.056 738.504 95.808C739.544 94.4907 740.099 91.96 740.168 88.216C740.168 87.5227 739.891 87.072 739.336 86.864C737.187 85.7547 735.037 85.2 732.888 85.2C730.184 85.2 728.104 85.7893 726.648 86.968C725.261 88.0773 724.568 89.568 724.568 91.44C724.568 93.3813 725.296 94.9067 726.752 96.016C728.208 97.1253 730.253 97.68 732.888 97.68ZM769.6 35.592C771.195 35.7307 772.512 36.4587 773.552 37.776C774.592 39.0933 775.008 40.5493 774.8 42.144L774.176 47.136C773.968 48.7307 773.205 50.0133 771.888 50.984C770.64 51.9547 769.219 52.336 767.624 52.128C764.296 51.712 761.696 51.4693 759.824 51.4C759.2 51.4 758.888 51.712 758.888 52.336V79.168C758.888 79.792 759.165 80.2773 759.72 80.624C763.325 83.328 767.52 86.9333 772.304 91.44C773.483 92.6187 774.107 94.04 774.176 95.704C774.245 97.2987 773.725 98.72 772.616 99.968L769.08 103.712C767.971 104.891 766.619 105.549 765.024 105.688C763.429 105.757 762.043 105.237 760.864 104.128C760.448 103.781 759.824 103.261 758.992 102.568C758.229 101.875 757.709 101.389 757.432 101.112C757.016 100.696 756.669 100.731 756.392 101.216C752.648 109.259 744.813 113.28 732.888 113.28C724.36 113.28 717.704 111.304 712.92 107.352C708.205 103.469 705.848 98.1653 705.848 91.44C705.848 84.8533 708.171 79.584 712.816 75.632C717.531 71.6107 724.221 69.6 732.888 69.6C735.107 69.6 737.221 69.8427 739.232 70.328C739.856 70.4667 740.168 70.2587 740.168 69.704V40.168C740.168 38.5733 740.757 37.1867 741.936 36.008C743.115 34.8293 744.501 34.2747 746.096 34.344C754.624 34.4827 762.459 34.8987 769.6 35.592ZM726.96 50.88H714.584C713.96 50.88 713.579 51.192 713.44 51.816C709.349 67.9013 704.739 82.912 699.608 96.848C699.053 98.3733 698.013 99.5173 696.488 100.28C695.032 100.973 693.507 101.043 691.912 100.488L685.984 98.512C684.459 97.9573 683.349 96.9867 682.656 95.6C681.963 94.144 681.859 92.6533 682.344 91.128C687.405 77.0533 691.565 63.9147 694.824 51.712C694.963 51.1573 694.72 50.88 694.096 50.88H688.896C687.301 50.88 685.915 50.2907 684.736 49.112C683.557 47.9333 682.968 46.5467 682.968 44.952V40.168C682.968 38.5733 683.557 37.1867 684.736 36.008C685.915 34.8293 687.301 34.24 688.896 34.24H698.36C698.915 34.24 699.261 33.9627 699.4 33.408C700.093 30.3573 700.613 28.0347 700.96 26.44C701.307 24.8453 702.139 23.5627 703.456 22.592C704.843 21.6213 706.368 21.24 708.032 21.448L714.064 22.072C715.659 22.28 716.907 23.0427 717.808 24.36C718.709 25.6773 719.021 27.0987 718.744 28.624C718.605 29.1787 718.432 29.976 718.224 31.016C718.016 32.056 717.843 32.8533 717.704 33.408C717.565 33.9627 717.808 34.24 718.432 34.24H726.96C728.555 34.24 729.941 34.8293 731.12 36.008C732.299 37.1867 732.888 38.5733 732.888 40.168V44.952C732.888 46.5467 732.299 47.9333 731.12 49.112C729.941 50.2907 728.555 50.88 726.96 50.88ZM97.552 232.408C99.0773 232.824 100.187 233.725 100.88 235.112C101.643 236.429 101.781 237.816 101.296 239.272L99.528 244.368C98.9733 245.963 97.9333 247.141 96.408 247.904C94.952 248.667 93.392 248.84 91.728 248.424C80.288 245.443 70.6853 241.733 62.92 237.296C62.3653 237.019 61.8453 237.019 61.36 237.296C53.5947 241.595 43.992 245.304 32.552 248.424C30.9573 248.84 29.3973 248.667 27.872 247.904C26.416 247.141 25.4107 245.963 24.856 244.368L22.776 238.44C22.7067 238.301 22.568 238.232 22.36 238.232C22.2213 238.232 22.0827 238.301 21.944 238.44C21.1813 239.688 19.968 241.56 18.304 244.056C17.4027 245.373 16.1547 246.101 14.56 246.24C13.0347 246.448 11.6827 245.997 10.504 244.888L5.72 240.312C4.472 239.203 3.744 237.816 3.536 236.152C3.328 234.488 3.70933 232.963 4.68 231.576C14.8027 216.323 21.7707 198.747 25.584 178.848C25.7227 178.363 25.48 178.12 24.856 178.12H10.4C8.80533 178.12 7.41867 177.531 6.24 176.352C5.06133 175.173 4.472 173.787 4.472 172.192V168.448C4.472 166.853 5.06133 165.467 6.24 164.288C7.41867 163.109 8.80533 162.52 10.4 162.52H26.936C27.56 162.52 27.872 162.243 27.872 161.688C27.9413 161.411 27.976 160.96 27.976 160.336C27.976 159.712 28.0107 159.261 28.08 158.984C28.1493 157.389 28.808 156.037 30.056 154.928C31.304 153.819 32.7253 153.299 34.32 153.368L41.184 153.472C42.7787 153.541 44.1307 154.2 45.24 155.448C46.3493 156.627 46.8693 158.013 46.8 159.608C46.8 160.509 46.7653 161.203 46.696 161.688C46.696 162.243 46.9733 162.52 47.528 162.52H94.224C95.8187 162.52 97.2053 163.109 98.384 164.288C99.5627 165.467 100.152 166.853 100.152 168.448V172.192C100.152 173.787 99.5627 175.173 98.384 176.352C97.2053 177.531 95.8187 178.12 94.224 178.12H45.552C44.9973 178.12 44.6507 178.397 44.512 178.952C44.4427 179.437 44.304 180.2 44.096 181.24C43.888 182.28 43.7493 183.077 43.68 183.632C43.5413 184.117 43.784 184.36 44.408 184.36H87.984C89.5787 184.36 90.9653 184.949 92.144 186.128C93.3227 187.307 93.912 188.693 93.912 190.288V193.512C93.912 197.672 93.1147 201.451 91.52 204.848C87.9147 212.544 83.4427 219.165 78.104 224.712C77.688 225.128 77.7227 225.475 78.208 225.752C83.5467 228.179 89.9947 230.397 97.552 232.408ZM45.968 225.544C46.4533 225.267 46.5227 224.955 46.176 224.608C42.9173 221.349 39.5547 217.12 36.088 211.92C35.9493 211.781 35.776 211.747 35.568 211.816C35.4293 211.816 35.3253 211.885 35.256 212.024C32.4827 219.027 29.3627 225.648 25.896 231.888C25.8267 232.165 25.9307 232.339 26.208 232.408C34.2507 230.189 40.8373 227.901 45.968 225.544ZM73.736 200.272C74.0133 199.717 73.8747 199.44 73.32 199.44H40.56C40.0053 199.44 39.5893 199.752 39.312 200.376C38.896 201.832 38.2027 203.947 37.232 206.72C37.1627 206.859 37.1973 206.997 37.336 207.136C37.4747 207.205 37.6133 207.205 37.752 207.136L44.824 203.912C46.3493 203.219 47.944 203.115 49.608 203.6C51.272 204.016 52.5893 204.917 53.56 206.304C56.1253 209.632 58.7253 212.475 61.36 214.832C61.776 215.109 62.192 215.109 62.608 214.832C66.9067 210.88 70.616 206.027 73.736 200.272ZM202.28 156.488C202.627 157.181 203.112 158.187 203.736 159.504C204.429 160.821 204.915 161.757 205.192 162.312C205.885 163.699 205.989 165.085 205.504 166.472C205.019 167.859 204.083 168.899 202.696 169.592C201.309 170.285 199.888 170.389 198.432 169.904C197.045 169.419 195.971 168.483 195.208 167.096C194.584 165.848 193.579 163.976 192.192 161.48C191.499 160.093 191.36 158.707 191.776 157.32C192.261 155.864 193.197 154.789 194.584 154.096C195.971 153.403 197.427 153.299 198.952 153.784C200.477 154.269 201.587 155.171 202.28 156.488ZM153.504 196.008C153.365 194.344 153.816 192.888 154.856 191.64C155.965 190.392 157.352 189.699 159.016 189.56C171.011 188.589 181.584 188.069 190.736 188C192.4 188 193.821 188.589 195 189.768C196.179 190.877 196.768 192.264 196.768 193.928V198.192C196.768 199.787 196.179 201.173 195 202.352C193.891 203.531 192.539 204.12 190.944 204.12C182 204.189 171.704 204.709 160.056 205.68C158.461 205.819 157.04 205.368 155.792 204.328C154.544 203.219 153.851 201.867 153.712 200.272L153.504 196.008ZM198.016 233.344L198.64 238.336C198.848 240 198.432 241.456 197.392 242.704C196.421 244.021 195.139 244.819 193.544 245.096C187.997 245.859 182.659 246.24 177.528 246.24C167.267 246.24 159.155 244.333 153.192 240.52C147.229 236.707 144.248 231.853 144.248 225.96C144.248 222.147 145.947 218.299 149.344 214.416C151.84 211.643 155.099 210.984 159.12 212.44L163.176 214C164.493 214.485 165.291 215.421 165.568 216.808C165.845 218.125 165.533 219.304 164.632 220.344C163.523 221.592 162.968 222.771 162.968 223.88C162.968 225.544 164.181 226.931 166.608 228.04C169.104 229.08 172.744 229.6 177.528 229.6C182.52 229.6 187.165 229.253 191.464 228.56C193.059 228.283 194.48 228.629 195.728 229.6C197.045 230.571 197.808 231.819 198.016 233.344ZM176.8 183.84H145.704C145.149 183.84 144.803 184.152 144.664 184.776C140.712 204.813 135.963 223.949 130.416 242.184C129.931 243.779 128.96 244.992 127.504 245.824C126.048 246.656 124.523 246.899 122.928 246.552L115.648 244.888C114.053 244.541 112.875 243.709 112.112 242.392C111.349 241.075 111.211 239.653 111.696 238.128C116.896 221.488 121.472 203.669 125.424 184.672C125.563 184.117 125.32 183.84 124.696 183.84H118.976C117.381 183.84 115.995 183.251 114.816 182.072C113.637 180.893 113.048 179.507 113.048 177.912V173.128C113.048 171.533 113.637 170.147 114.816 168.968C115.995 167.789 117.381 167.2 118.976 167.2H127.92C128.475 167.2 128.821 166.923 128.96 166.368C129.029 165.813 129.168 165.016 129.376 163.976C129.584 162.936 129.723 162.173 129.792 161.688C130.069 160.024 130.832 158.672 132.08 157.632C133.397 156.592 134.888 156.141 136.552 156.28L143.624 156.8C145.219 156.939 146.501 157.667 147.472 158.984C148.443 160.232 148.789 161.619 148.512 163.144C148.443 163.491 148.339 164.011 148.2 164.704C148.131 165.397 148.061 165.917 147.992 166.264C147.853 166.888 148.096 167.2 148.72 167.2H176.8C177.216 167.2 177.701 167.269 178.256 167.408C178.395 167.477 178.499 167.443 178.568 167.304C178.707 167.165 178.741 167.027 178.672 166.888C178.464 166.403 178.117 165.709 177.632 164.808C177.147 163.907 176.8 163.248 176.592 162.832C175.899 161.515 175.76 160.163 176.176 158.776C176.661 157.32 177.563 156.245 178.88 155.552C180.267 154.859 181.653 154.755 183.04 155.24C184.496 155.725 185.605 156.661 186.368 158.048C186.715 158.672 187.2 159.608 187.824 160.856C188.448 162.035 188.933 162.936 189.28 163.56C189.973 164.947 190.077 166.333 189.592 167.72C189.107 169.107 188.171 170.112 186.784 170.736C185.467 171.291 184.253 171.429 183.144 171.152C183.005 171.083 182.832 171.117 182.624 171.256C182.485 171.395 182.451 171.533 182.52 171.672C182.659 172.227 182.728 172.712 182.728 173.128V177.912C182.728 179.507 182.139 180.893 180.96 182.072C179.781 183.251 178.395 183.84 176.8 183.84ZM296.712 167.2C298.307 167.2 299.693 167.789 300.872 168.968C302.051 170.147 302.64 171.533 302.64 173.128V177.912C302.64 179.507 302.051 180.893 300.872 182.072C299.693 183.251 298.307 183.84 296.712 183.84H255.008C254.384 183.84 254.003 184.152 253.864 184.776C252.824 188.589 251.923 191.675 251.16 194.032V194.24H251.368C257.123 192.853 262.427 192.16 267.28 192.16C276.987 192.16 284.44 194.448 289.64 199.024C294.84 203.6 297.44 209.979 297.44 218.16C297.44 226.549 293.869 233.344 286.728 238.544C279.587 243.675 269.984 246.24 257.92 246.24C250.987 246.24 243.88 245.581 236.6 244.264C235.005 243.987 233.723 243.155 232.752 241.768C231.851 240.381 231.573 238.891 231.92 237.296L232.96 232.304C233.307 230.709 234.139 229.461 235.456 228.56C236.773 227.659 238.195 227.347 239.72 227.624C246.723 228.941 252.789 229.6 257.92 229.6C264.091 229.6 268.909 228.456 272.376 226.168C275.912 223.88 277.68 220.864 277.68 217.12C277.68 211.573 273.867 208.8 266.24 208.8C259.168 208.8 252.685 210.395 246.792 213.584C243.256 215.525 239.755 215.803 236.288 214.416L230.152 212.024C228.627 211.469 227.552 210.464 226.928 209.008C226.373 207.483 226.408 205.992 227.032 204.536C230.499 196.771 233.029 190.184 234.624 184.776C234.763 184.152 234.555 183.84 234 183.84H223.288C221.693 183.84 220.307 183.251 219.128 182.072C217.949 180.893 217.36 179.507 217.36 177.912V173.128C217.36 171.533 217.949 170.147 219.128 168.968C220.307 167.789 221.693 167.2 223.288 167.2H237.848C238.403 167.2 238.749 166.923 238.888 166.368C239.165 164.288 239.373 162.693 239.512 161.584C239.72 159.989 240.483 158.637 241.8 157.528C243.117 156.419 244.573 155.933 246.168 156.072L253.032 156.488C254.696 156.627 256.048 157.285 257.088 158.464C258.128 159.643 258.544 161.029 258.336 162.624C258.267 163.04 258.163 163.664 258.024 164.496C257.955 165.328 257.885 165.952 257.816 166.368C257.677 166.923 257.92 167.2 258.544 167.2H296.712ZM396.656 165.12C398.251 165.12 399.637 165.709 400.816 166.888C401.995 168.067 402.584 169.453 402.584 171.048V174.792C402.584 176.387 401.995 177.773 400.816 178.952C399.637 180.131 398.251 180.72 396.656 180.72H355.576C354.952 180.72 354.536 180.963 354.328 181.448L352.664 184.776V184.88H352.768L352.872 184.984C355.368 184.221 357.725 183.84 359.944 183.84C369.928 183.84 376.896 187.515 380.848 194.864C381.056 195.349 381.472 195.523 382.096 195.384C385.493 194.76 390.035 194.067 395.72 193.304C397.315 193.096 398.736 193.512 399.984 194.552C401.232 195.592 401.925 196.909 402.064 198.504L402.584 202.976C402.723 204.571 402.272 205.992 401.232 207.24C400.192 208.488 398.875 209.216 397.28 209.424C394.16 209.84 390.485 210.429 386.256 211.192C385.701 211.331 385.424 211.677 385.424 212.232C385.563 213.341 385.701 215.075 385.84 217.432C385.909 219.027 385.355 220.413 384.176 221.592C382.997 222.771 381.611 223.36 380.016 223.36H372.112C370.517 223.36 369.131 222.805 367.952 221.696C366.843 220.587 366.219 219.235 366.08 217.64C366.08 217.016 365.803 216.843 365.248 217.12C358.939 219.755 355.784 222.181 355.784 224.4C355.784 226.411 356.997 227.867 359.424 228.768C361.851 229.669 366.531 230.12 373.464 230.12C377.763 230.12 384.627 229.531 394.056 228.352C395.651 228.144 397.072 228.525 398.32 229.496C399.637 230.467 400.365 231.749 400.504 233.344L401.024 238.336C401.163 240 400.712 241.456 399.672 242.704C398.632 243.952 397.28 244.68 395.616 244.888C387.643 245.789 380.259 246.24 373.464 246.24C360.152 246.24 350.584 244.611 344.76 241.352C338.936 238.093 336.024 233.136 336.024 226.48C336.024 221.557 338.104 216.912 342.264 212.544C346.493 208.176 352.768 204.397 361.088 201.208C361.296 201.139 361.4 201 361.4 200.792C361.4 200.584 361.331 200.411 361.192 200.272C359.667 199.024 357.517 198.4 354.744 198.4C351.763 198.4 349.024 199.301 346.528 201.104C344.101 202.907 340.704 206.685 336.336 212.44C335.365 213.757 334.048 214.589 332.384 214.936C330.72 215.283 329.16 215.075 327.704 214.312L322.504 211.608C321.117 210.915 320.216 209.805 319.8 208.28C319.453 206.685 319.731 205.229 320.632 203.912C326.04 195.939 330.477 188.451 333.944 181.448C334.013 181.309 333.979 181.171 333.84 181.032C333.771 180.824 333.632 180.72 333.424 180.72H325.312C323.717 180.72 322.331 180.131 321.152 178.952C319.973 177.773 319.384 176.387 319.384 174.792V171.048C319.384 169.453 319.973 168.067 321.152 166.888C322.331 165.709 323.717 165.12 325.312 165.12H339.872C340.427 165.12 340.843 164.808 341.12 164.184C341.189 163.907 341.397 163.317 341.744 162.416C342.091 161.445 342.333 160.717 342.472 160.232C342.957 158.637 343.928 157.424 345.384 156.592C346.909 155.691 348.504 155.379 350.168 155.656L358.28 156.904C359.805 157.181 360.949 157.979 361.712 159.296C362.475 160.544 362.613 161.896 362.128 163.352L361.816 164.288C361.539 164.843 361.712 165.12 362.336 165.12H396.656ZM510.744 225.856C512.408 226.064 513.76 226.792 514.8 228.04C515.84 229.288 516.325 230.744 516.256 232.408C516.048 235.389 515.805 237.747 515.528 239.48C515.32 241.213 514.835 242.773 514.072 244.16C513.309 245.547 512.581 246.517 511.888 247.072C511.195 247.696 509.877 248.181 507.936 248.528C506.064 248.944 504.261 249.187 502.528 249.256C500.864 249.325 498.264 249.36 494.728 249.36H491.608H488.488C482.803 249.36 478.781 249.117 476.424 248.632C474.136 248.147 472.611 247.315 471.848 246.136C471.155 245.027 470.808 242.981 470.808 240V222.736C470.808 222.112 470.531 221.8 469.976 221.8H466.648C466.024 221.8 465.643 222.077 465.504 222.632C461.968 236.707 450.424 245.789 430.872 249.88C429.208 250.227 427.648 249.949 426.192 249.048C424.805 248.216 423.835 246.968 423.28 245.304L421.616 240.416C421.131 238.96 421.304 237.608 422.136 236.36C423.037 235.043 424.251 234.211 425.776 233.864C436.453 231.853 443.005 228.109 445.432 222.632C445.709 222.077 445.536 221.8 444.912 221.8H435.136C433.541 221.8 432.155 221.211 430.976 220.032C429.797 218.853 429.208 217.467 429.208 215.872V162.208C429.208 160.613 429.797 159.227 430.976 158.048C432.155 156.869 433.541 156.28 435.136 156.28H502.32C503.915 156.28 505.301 156.869 506.48 158.048C507.659 159.227 508.248 160.613 508.248 162.208V215.872C508.248 217.467 507.659 218.853 506.48 220.032C505.301 221.211 503.915 221.8 502.32 221.8H490.984C490.36 221.8 490.048 222.112 490.048 222.736V231.68C490.048 233.205 490.152 234.107 490.36 234.384C490.637 234.661 491.573 234.8 493.168 234.8H493.688H494.208C495.803 234.8 496.808 234.592 497.224 234.176C497.709 233.76 498.021 232.512 498.16 230.432C498.299 228.837 498.957 227.52 500.136 226.48C501.315 225.371 502.667 224.885 504.192 225.024L510.744 225.856ZM489.008 207.344V204.432C489.008 203.877 488.696 203.6 488.072 203.6H449.384C448.76 203.6 448.448 203.877 448.448 204.432V207.344C448.448 207.968 448.76 208.28 449.384 208.28H488.072C488.696 208.28 489.008 207.968 489.008 207.344ZM489.008 191.224V188.416C489.008 187.792 488.696 187.48 488.072 187.48H449.384C448.76 187.48 448.448 187.792 448.448 188.416V191.224C448.448 191.848 448.76 192.16 449.384 192.16H488.072C488.696 192.16 489.008 191.848 489.008 191.224ZM489.008 175.104V172.192C489.008 171.637 488.696 171.36 488.072 171.36H449.384C448.76 171.36 448.448 171.637 448.448 172.192V175.104C448.448 175.728 448.76 176.04 449.384 176.04H488.072C488.696 176.04 489.008 175.728 489.008 175.104ZM576.68 165.64C603.72 165.64 617.24 176.907 617.24 199.44C617.24 213.515 612.109 224.157 601.848 231.368C591.587 238.579 575.432 242.461 553.384 243.016C551.72 243.085 550.264 242.565 549.016 241.456C547.837 240.347 547.179 238.96 547.04 237.296L546.52 230.224C546.381 228.699 546.832 227.347 547.872 226.168C548.912 224.989 550.229 224.365 551.824 224.296C562.848 224.088 571.619 223.048 578.136 221.176C584.723 219.304 589.333 216.808 591.968 213.688C594.603 210.499 595.92 206.443 595.92 201.52C595.92 195.696 594.256 191.467 590.928 188.832C587.669 186.197 582.227 184.88 574.6 184.88C567.805 184.88 555.499 186.717 537.68 190.392C536.085 190.739 534.595 190.496 533.208 189.664C531.891 188.763 531.059 187.515 530.712 185.92L529.048 178.64C528.701 177.115 528.944 175.659 529.776 174.272C530.677 172.885 531.925 172.019 533.52 171.672C552.864 167.651 567.251 165.64 576.68 165.64ZM716.872 176.56C718.467 176.56 719.853 177.149 721.032 178.328C722.211 179.507 722.8 180.893 722.8 182.488V187.272C722.8 188.867 722.211 190.253 721.032 191.432C719.853 192.611 718.467 193.2 716.872 193.2H710.216C709.592 193.2 709.28 193.512 709.28 194.136V202.56C709.28 215.525 707.339 224.989 703.456 230.952C699.573 236.915 692.328 241.491 681.72 244.68C680.125 245.165 678.565 245.027 677.04 244.264C675.515 243.501 674.475 242.323 673.92 240.728L671.84 235.112C671.285 233.587 671.355 232.131 672.048 230.744C672.741 229.357 673.851 228.421 675.376 227.936C682.171 225.717 686.4 223.187 688.064 220.344C689.728 217.432 690.56 211.504 690.56 202.56V194.136C690.56 193.512 690.248 193.2 689.624 193.2H669.448C667.853 193.2 666.467 192.611 665.288 191.432C664.109 190.253 663.52 188.867 663.52 187.272V182.488C663.52 180.893 664.109 179.507 665.288 178.328C666.467 177.149 667.853 176.56 669.448 176.56H689.624C690.248 176.56 690.56 176.248 690.56 175.624V163.768C690.56 162.173 691.149 160.787 692.328 159.608C693.507 158.429 694.893 157.84 696.488 157.84H703.352C704.947 157.84 706.333 158.429 707.512 159.608C708.691 160.787 709.28 162.173 709.28 163.768V175.624C709.28 176.248 709.592 176.56 710.216 176.56H716.872ZM652.184 160.336C653.709 160.475 654.923 161.203 655.824 162.52C656.725 163.837 657.003 165.259 656.656 166.784C654.299 177.739 653.12 189.664 653.12 202.56C653.12 215.456 654.299 227.381 656.656 238.336C657.003 239.861 656.725 241.283 655.824 242.6C654.923 243.917 653.709 244.645 652.184 244.784L644.384 245.616C642.72 245.755 641.195 245.339 639.808 244.368C638.421 243.467 637.555 242.184 637.208 240.52C634.643 228.595 633.36 215.941 633.36 202.56C633.36 189.179 634.643 176.525 637.208 164.6C637.555 162.936 638.421 161.653 639.808 160.752C641.195 159.781 642.72 159.365 644.384 159.504L652.184 160.336ZM779.584 231.368C780 229.773 780.208 228.491 780.208 227.52C780.208 225.995 779.653 224.92 778.544 224.296C777.504 223.672 775.459 223.36 772.408 223.36C767.555 223.36 765.128 224.747 765.128 227.52C765.128 230.571 769.565 232.131 778.44 232.2C779.064 232.2 779.445 231.923 779.584 231.368ZM793.208 191.12C802.013 191.12 809.051 193.408 814.32 197.984C819.659 202.491 822.328 208.349 822.328 215.56C822.328 225.544 818.619 233.344 811.2 238.96C803.781 244.507 793.277 247.28 779.688 247.28C758.195 247.28 747.448 240.693 747.448 227.52C747.448 222.528 749.84 218.333 754.624 214.936C759.408 211.539 765.683 209.84 773.448 209.84C781.352 209.84 787.141 211.123 790.816 213.688C794.491 216.253 796.328 220.171 796.328 225.44C796.328 225.648 796.293 225.96 796.224 226.376C796.224 226.792 796.224 227.104 796.224 227.312C796.224 227.797 796.432 227.901 796.848 227.624C800.315 224.989 802.048 221.315 802.048 216.6C802.048 213.133 800.488 210.36 797.368 208.28C794.248 206.2 789.741 205.16 783.848 205.16C777.123 205.16 771.299 205.645 766.376 206.616C761.453 207.517 755.907 209.216 749.736 211.712C748.211 212.336 746.685 212.371 745.16 211.816C743.635 211.192 742.491 210.152 741.728 208.696L740.168 205.784C739.405 204.328 739.267 202.803 739.752 201.208C740.237 199.613 741.208 198.4 742.664 197.568L778.648 177.184V177.08H750.256C748.661 177.08 747.275 176.491 746.096 175.312C744.917 174.133 744.328 172.747 744.328 171.152V166.888C744.328 165.293 744.917 163.907 746.096 162.728C747.275 161.549 748.661 160.96 750.256 160.96H808.08C809.675 160.96 811.061 161.549 812.24 162.728C813.419 163.907 814.008 165.293 814.008 166.888V171.672C814.008 175.555 812.24 178.397 808.704 180.2L785.928 191.64L786.032 191.744C788.805 191.328 791.197 191.12 793.208 191.12Z" fill="white"/>
<path d="M158.439 327.5C159.539 327.5 160.414 327.925 161.064 328.775C161.764 329.575 162.014 330.525 161.814 331.625L155.364 362.375C155.114 363.575 154.489 364.575 153.489 365.375C152.539 366.125 151.439 366.5 150.189 366.5H142.239C140.989 366.5 139.889 366.1 138.939 365.3C138.039 364.5 137.489 363.5 137.289 362.3L133.539 339.575C133.539 339.525 133.514 339.5 133.464 339.5C133.414 339.5 133.389 339.525 133.389 339.575L129.639 362.3C129.439 363.5 128.864 364.5 127.914 365.3C127.014 366.1 125.939 366.5 124.689 366.5H116.739C115.489 366.5 114.364 366.125 113.364 365.375C112.414 364.575 111.814 363.575 111.564 362.375L105.114 331.625C104.914 330.525 105.139 329.575 105.789 328.775C106.489 327.925 107.389 327.5 108.489 327.5H113.964C115.164 327.5 116.214 327.9 117.114 328.7C118.064 329.5 118.614 330.5 118.764 331.7L121.539 355.175C121.539 355.225 121.564 355.25 121.614 355.25C121.664 355.25 121.689 355.225 121.689 355.175L125.139 331.7C125.339 330.5 125.889 329.5 126.789 328.7C127.689 327.9 128.764 327.5 130.014 327.5H137.214C138.464 327.5 139.539 327.9 140.439 328.7C141.339 329.5 141.889 330.5 142.089 331.7L145.539 355.175C145.539 355.225 145.564 355.25 145.614 355.25C145.664 355.25 145.689 355.225 145.689 355.175L148.464 331.7C148.614 330.5 149.139 329.5 150.039 328.7C150.989 327.9 152.064 327.5 153.264 327.5H158.439ZM181.105 327.5C182.255 327.5 183.255 327.925 184.105 328.775C184.955 329.625 185.38 330.625 185.38 331.775V362.225C185.38 363.375 184.955 364.375 184.105 365.225C183.255 366.075 182.255 366.5 181.105 366.5H174.655C173.505 366.5 172.505 366.075 171.655 365.225C170.805 364.375 170.38 363.375 170.38 362.225V331.775C170.38 330.625 170.805 329.625 171.655 328.775C172.505 327.925 173.505 327.5 174.655 327.5H181.105ZM181.105 310.25C182.255 310.25 183.255 310.675 184.105 311.525C184.955 312.375 185.38 313.375 185.38 314.525V316.475C185.38 317.625 184.955 318.625 184.105 319.475C183.255 320.325 182.255 320.75 181.105 320.75H174.655C173.505 320.75 172.505 320.325 171.655 319.475C170.805 318.625 170.38 317.625 170.38 316.475V314.525C170.38 313.375 170.805 312.375 171.655 311.525C172.505 310.675 173.505 310.25 174.655 310.25H181.105ZM223.946 329C225.096 329 226.096 329.425 226.946 330.275C227.796 331.125 228.221 332.125 228.221 333.275V334.475C228.221 335.625 227.796 336.625 226.946 337.475C226.096 338.325 225.096 338.75 223.946 338.75H217.271C216.821 338.75 216.596 338.975 216.596 339.425V350C216.596 353 216.846 354.875 217.346 355.625C217.846 356.375 218.971 356.75 220.721 356.75C221.421 356.75 222.271 356.675 223.271 356.525C224.321 356.375 225.271 356.65 226.121 357.35C227.021 358 227.471 358.85 227.471 359.9V361.85C227.471 363.1 227.071 364.225 226.271 365.225C225.521 366.175 224.546 366.725 223.346 366.875C221.596 367.125 219.471 367.25 216.971 367.25C211.621 367.25 207.846 366.1 205.646 363.8C203.446 361.5 202.346 357.4 202.346 351.5V339.425C202.346 338.975 202.121 338.75 201.671 338.75H198.746C197.596 338.75 196.596 338.325 195.746 337.475C194.896 336.625 194.471 335.625 194.471 334.475V333.275C194.471 332.125 194.896 331.125 195.746 330.275C196.596 329.425 197.596 329 198.746 329H201.671C202.121 329 202.346 328.775 202.346 328.325V319.025C202.346 317.875 202.771 316.875 203.621 316.025C204.471 315.175 205.471 314.75 206.621 314.75H212.321C213.471 314.75 214.471 315.175 215.321 316.025C216.171 316.875 216.596 317.875 216.596 319.025V328.325C216.596 328.775 216.821 329 217.271 329H223.946ZM263.53 326.75C268.18 326.75 271.455 328.1 273.355 330.8C275.305 333.45 276.28 338.35 276.28 345.5V362.225C276.28 363.375 275.855 364.375 275.005 365.225C274.155 366.075 273.155 366.5 272.005 366.5H266.68C265.53 366.5 264.53 366.075 263.68 365.225C262.83 364.375 262.405 363.375 262.405 362.225V347C262.405 343.3 262.08 340.875 261.43 339.725C260.83 338.575 259.655 338 257.905 338C256.505 338 255.205 338.55 254.005 339.65C252.855 340.75 252.28 341.95 252.28 343.25V362.225C252.28 363.375 251.855 364.375 251.005 365.225C250.155 366.075 249.155 366.5 248.005 366.5H242.305C241.155 366.5 240.155 366.075 239.305 365.225C238.455 364.375 238.03 363.375 238.03 362.225V314.525C238.03 313.375 238.455 312.375 239.305 311.525C240.155 310.675 241.155 310.25 242.305 310.25H248.005C249.155 310.25 250.155 310.675 251.005 311.525C251.855 312.375 252.28 313.375 252.28 314.525V331.175C252.28 331.225 252.305 331.25 252.355 331.25C252.405 331.25 252.455 331.225 252.505 331.175C256.055 328.225 259.73 326.75 263.53 326.75Z" fill="white"/>
<g filter="url(#filter0_d_278_352)">
<path d="M330.374 348.374L320 368L309.626 348.374L290 338L309.626 327.626L320 308L330.374 327.626L350 338L330.374 348.374Z" fill="#FEF806"/>
</g>
<g filter="url(#filter1_d_278_352)">
<path d="M450.044 305.32C451.485 305.32 452.739 305.853 453.804 306.918C454.869 307.983 455.402 309.237 455.402 310.678V361.532C455.402 362.973 454.869 364.227 453.804 365.292C452.739 366.357 451.485 366.89 450.044 366.89H443.934C442.806 366.89 441.835 366.514 441.02 365.762C440.268 364.947 439.892 363.976 439.892 362.848C439.892 362.409 439.673 362.19 439.234 362.19H436.508C435.944 362.19 435.662 362.472 435.662 363.036V377.042C435.662 378.483 435.129 379.737 434.064 380.802C432.999 381.867 431.745 382.4 430.304 382.4H424.1C422.659 382.4 421.405 381.867 420.34 380.802C419.275 379.737 418.742 378.483 418.742 377.042V363.036C418.742 362.472 418.46 362.19 417.896 362.19H415.17C414.731 362.19 414.512 362.409 414.512 362.848C414.512 363.976 414.105 364.947 413.29 365.762C412.538 366.514 411.598 366.89 410.47 366.89H404.83C403.389 366.89 402.135 366.357 401.07 365.292C400.005 364.227 399.472 362.973 399.472 361.532V356.362C399.472 356.237 399.409 356.143 399.284 356.08C399.159 355.955 399.033 355.955 398.908 356.08L398.72 356.268C397.717 357.208 396.527 357.615 395.148 357.49C393.769 357.302 392.673 356.613 391.858 355.422C391.795 355.297 391.357 354.67 390.542 353.542C390.479 353.417 390.385 353.385 390.26 353.448C390.135 353.448 390.072 353.511 390.072 353.636V377.042C390.072 378.483 389.539 379.737 388.474 380.802C387.409 381.867 386.155 382.4 384.714 382.4H379.45C378.009 382.4 376.755 381.867 375.69 380.802C374.625 379.737 374.092 378.483 374.092 377.042V358.43C374.092 358.305 374.029 358.211 373.904 358.148C373.779 358.085 373.653 358.117 373.528 358.242C372.651 358.994 371.93 359.589 371.366 360.028C370.426 360.843 369.361 360.999 368.17 360.498C367.042 359.997 366.384 359.119 366.196 357.866L365.068 350.534C364.567 347.213 365.726 344.361 368.546 341.98C374.186 337.217 378.322 331.515 380.954 324.872C381.205 324.371 381.048 324.12 380.484 324.12H371.93C370.489 324.12 369.235 323.587 368.17 322.522C367.105 321.457 366.572 320.203 366.572 318.762V314.438C366.572 312.997 367.105 311.743 368.17 310.678C369.235 309.613 370.489 309.08 371.93 309.08H373.246C373.81 309.08 374.092 308.798 374.092 308.234V301.278C374.092 299.837 374.625 298.583 375.69 297.518C376.755 296.453 378.009 295.92 379.45 295.92H384.714C386.155 295.92 387.409 296.453 388.474 297.518C389.539 298.583 390.072 299.837 390.072 301.278V308.234C390.072 308.798 390.354 309.08 390.918 309.08H391.764C393.205 309.08 394.459 309.613 395.524 310.678C396.589 311.743 397.122 312.997 397.122 314.438V318.762C397.122 322.71 396.527 326.157 395.336 329.102C394.96 330.042 394.333 331.452 393.456 333.332C393.268 333.833 393.331 334.303 393.644 334.742C396.025 337.75 397.78 340.037 398.908 341.604C399.033 341.729 399.159 341.792 399.284 341.792C399.409 341.729 399.472 341.635 399.472 341.51V310.678C399.472 309.237 400.005 307.983 401.07 306.918C402.135 305.853 403.389 305.32 404.83 305.32H417.896C418.46 305.32 418.742 305.038 418.742 304.474V301.278C418.742 299.837 419.275 298.583 420.34 297.518C421.405 296.453 422.659 295.92 424.1 295.92H430.304C431.745 295.92 432.999 296.453 434.064 297.518C435.129 298.583 435.662 299.837 435.662 301.278V304.474C435.662 305.038 435.944 305.32 436.508 305.32H450.044ZM418.742 347.714V341.416C418.742 340.852 418.46 340.57 417.896 340.57H415.264C414.763 340.57 414.512 340.852 414.512 341.416V347.714C414.512 348.278 414.763 348.56 415.264 348.56H417.896C418.46 348.56 418.742 348.278 418.742 347.714ZM418.742 326.094V320.172C418.742 319.671 418.46 319.42 417.896 319.42H415.264C414.763 319.42 414.512 319.671 414.512 320.172V326.094C414.512 326.658 414.763 326.94 415.264 326.94H417.896C418.46 326.94 418.742 326.658 418.742 326.094ZM439.892 347.714V341.416C439.892 340.852 439.61 340.57 439.046 340.57H436.508C435.944 340.57 435.662 340.852 435.662 341.416V347.714C435.662 348.278 435.944 348.56 436.508 348.56H439.046C439.61 348.56 439.892 348.278 439.892 347.714ZM439.892 326.094V320.172C439.892 319.671 439.61 319.42 439.046 319.42H436.508C435.944 319.42 435.662 319.671 435.662 320.172V326.094C435.662 326.658 435.944 326.94 436.508 326.94H439.046C439.61 326.94 439.892 326.658 439.892 326.094ZM540.002 329.76C541.443 329.76 542.697 330.293 543.762 331.358C544.827 332.423 545.36 333.677 545.36 335.118V340.382C545.36 341.823 544.827 343.077 543.762 344.142C542.697 345.207 541.443 345.74 540.002 345.74H507.666C507.102 345.74 506.82 346.022 506.82 346.586V352.79C506.82 356.487 507.321 358.837 508.324 359.84C509.327 360.78 511.645 361.25 515.28 361.25C520.857 361.25 526.466 361.062 532.106 360.686C533.547 360.623 534.801 361.093 535.866 362.096C536.931 363.036 537.495 364.227 537.558 365.668L537.652 371.402C537.715 372.843 537.245 374.128 536.242 375.256C535.239 376.447 534.017 377.073 532.576 377.136C525.557 377.512 518.539 377.7 511.52 377.7C502.183 377.7 495.759 376.008 492.25 372.624C488.803 369.177 487.08 362.723 487.08 353.26V346.586C487.08 346.022 486.798 345.74 486.234 345.74H467.998C466.557 345.74 465.303 345.207 464.238 344.142C463.173 343.077 462.64 341.823 462.64 340.382V335.118C462.64 333.677 463.173 332.423 464.238 331.358C465.303 330.293 466.557 329.76 467.998 329.76H486.234C486.798 329.76 487.08 329.478 487.08 328.914V318.856C487.08 318.292 486.798 318.01 486.234 318.01H476.458C475.017 318.01 473.763 317.477 472.698 316.412C471.633 315.347 471.1 314.093 471.1 312.652V306.918C471.1 305.477 471.633 304.223 472.698 303.158C473.763 302.093 475.017 301.56 476.458 301.56H531.542C532.983 301.56 534.237 302.093 535.302 303.158C536.367 304.223 536.9 305.477 536.9 306.918V312.652C536.9 314.093 536.367 315.347 535.302 316.412C534.237 317.477 532.983 318.01 531.542 318.01H507.666C507.102 318.01 506.82 318.292 506.82 318.856V328.914C506.82 329.478 507.102 329.76 507.666 329.76H540.002ZM632.122 330.23C633.563 330.23 634.817 330.763 635.882 331.828C636.947 332.893 637.48 334.147 637.48 335.588V342.732C637.48 344.173 636.947 345.427 635.882 346.492C634.817 347.557 633.563 348.09 632.122 348.09H563.878C562.437 348.09 561.183 347.557 560.118 346.492C559.053 345.427 558.52 344.173 558.52 342.732V335.588C558.52 334.147 559.053 332.893 560.118 331.828C561.183 330.763 562.437 330.23 563.878 330.23H632.122ZM699.426 304.944C700.742 304.255 702.121 304.129 703.562 304.568C705.003 305.007 706.069 305.884 706.758 307.2C707.949 309.268 709.202 311.649 710.518 314.344C711.207 315.66 711.301 317.007 710.8 318.386C710.361 319.765 709.484 320.767 708.168 321.394L707.228 321.864C705.912 322.553 704.533 322.679 703.092 322.24C701.713 321.739 700.679 320.83 699.99 319.514C699.551 318.699 698.925 317.509 698.11 315.942C697.295 314.375 696.669 313.216 696.23 312.464C695.541 311.211 695.384 309.895 695.76 308.516C696.199 307.075 697.076 306.041 698.392 305.414L699.426 304.944ZM715.876 301.184C717.192 300.495 718.571 300.369 720.012 300.808C721.453 301.247 722.519 302.124 723.208 303.44C724.963 306.699 726.279 309.174 727.156 310.866C727.845 312.182 727.939 313.529 727.438 314.908C726.999 316.287 726.122 317.289 724.806 317.916L723.584 318.574C722.268 319.201 720.889 319.295 719.448 318.856C718.069 318.355 717.035 317.446 716.346 316.13L712.398 308.798C711.709 307.545 711.583 306.229 712.022 304.85C712.461 303.471 713.338 302.437 714.654 301.748L715.876 301.184ZM725.558 339.254C726.937 339.693 727.939 340.601 728.566 341.98C729.255 343.296 729.349 344.675 728.848 346.116L726.592 352.884C726.153 354.263 725.276 355.297 723.96 355.986C722.644 356.613 721.265 356.675 719.824 356.174C707.228 351.787 694.413 347.902 681.378 344.518C681.19 344.455 681.033 344.518 680.908 344.706C680.783 344.831 680.72 344.988 680.72 345.176V374.222C680.72 375.663 680.187 376.917 679.122 377.982C678.057 379.047 676.803 379.58 675.362 379.58H667.278C665.837 379.58 664.583 379.047 663.518 377.982C662.453 376.917 661.92 375.663 661.92 374.222V305.978C661.92 304.537 662.453 303.283 663.518 302.218C664.583 301.153 665.837 300.62 667.278 300.62H675.362C676.803 300.62 678.057 301.153 679.122 302.218C680.187 303.283 680.72 304.537 680.72 305.978V325.154C680.72 325.718 680.971 326.063 681.472 326.188C697.076 330.073 711.771 334.429 725.558 339.254Z" fill="#FEF806"/>
</g>
<defs>
<filter id="filter0_d_278_352" x="249" y="271" width="142" height="142" filterUnits="userSpaceOnUse" color-interpolation-filters="sRGB">
<feFlood flood-opacity="0" result="BackgroundImageFix"/>
<feColorMatrix in="SourceAlpha" type="matrix" values="0 0 0 0 0 0 0 0 0 0 0 0 0 0 0 0 0 0 127 0" result="hardAlpha"/>
<feOffset dy="4"/>
<feGaussianBlur stdDeviation="20.5"/>
<feComposite in2="hardAlpha" operator="out"/>
<feColorMatrix type="matrix" values="0 0 0 0 0.99811 0 0 0 0 0.986782 0 0 0 0 0.529885 0 0 0 0.8 0"/>
<feBlend mode="normal" in2="BackgroundImageFix" result="effect1_dropShadow_278_352"/>
<feBlend mode="normal" in="SourceGraphic" in2="effect1_dropShadow_278_352" result="shape"/>
</filter>
<filter id="filter1_d_278_352" x="345.316" y="280.92" width="403.283" height="124.48" filterUnits="userSpaceOnUse" color-interpolation-filters="sRGB">
<feFlood flood-opacity="0" result="BackgroundImageFix"/>
<feColorMatrix in="SourceAlpha" type="matrix" values="0 0 0 0 0 0 0 0 0 0 0 0 0 0 0 0 0 0 127 0" result="hardAlpha"/>
<feOffset dy="4"/>
<feGaussianBlur stdDeviation="9.5"/>
<feComposite in2="hardAlpha" operator="out"/>
<feColorMatrix type="matrix" values="0 0 0 0 1 0 0 0 0 0.988235 0 0 0 0 0.529412 0 0 0 0.45 0"/>
<feBlend mode="normal" in2="BackgroundImageFix" result="effect1_dropShadow_278_352"/>
<feBlend mode="normal" in="SourceGraphic" in2="effect1_dropShadow_278_352" result="shape"/>
</filter>
</defs>
</svg>
