<svg width="1284" height="2778" viewBox="0 0 1284 2778" fill="none" xmlns="http://www.w3.org/2000/svg">
<rect width="1284" height="2778" fill="white"/>
<path d="M310.415 2066.54C308.696 2066.54 307.202 2065.91 305.931 2064.64C304.661 2063.37 304.026 2061.87 304.026 2060.15V2058.36C304.026 2056.64 304.661 2055.15 305.931 2053.88C307.202 2052.61 308.696 2051.97 310.415 2051.97H313.665C314.263 2051.97 314.562 2051.67 314.562 2051.08V2040.88C314.562 2039.16 315.197 2037.66 316.467 2036.39C317.738 2035.12 319.232 2034.49 320.951 2034.49H325.21C326.928 2034.49 328.423 2035.12 329.693 2036.39C330.963 2037.66 331.598 2039.16 331.598 2040.88V2051.08C331.598 2051.67 331.897 2051.97 332.495 2051.97H333.952C335.671 2051.97 337.128 2052.61 338.323 2053.88C339.594 2055.15 340.229 2056.64 340.229 2058.36V2060.15C340.229 2061.87 339.594 2063.37 338.323 2064.64C337.128 2065.91 335.671 2066.54 333.952 2066.54H332.495C331.897 2066.54 331.598 2066.88 331.598 2067.55V2085.82C331.598 2086.42 331.897 2086.64 332.495 2086.49C332.57 2086.42 332.719 2086.38 332.943 2086.38C333.168 2086.38 333.317 2086.34 333.392 2086.27C334.961 2085.82 336.455 2086.05 337.875 2086.94C338.473 2087.32 338.772 2087.2 338.772 2086.61C338.847 2084.89 339.482 2083.43 340.677 2082.23C341.873 2080.96 343.33 2080.33 345.048 2080.33H345.609C345.758 2080.33 345.87 2080.25 345.945 2080.11C346.02 2079.96 345.983 2079.81 345.833 2079.66L341.462 2075.17C340.266 2073.9 339.706 2072.41 339.781 2070.69C339.855 2068.97 340.453 2067.4 341.574 2065.98C343.816 2063.29 345.347 2060.3 346.169 2057.02C346.991 2053.73 347.402 2049.13 347.402 2043.23C347.402 2041.51 348.037 2040.05 349.308 2038.86C350.578 2037.59 352.072 2036.95 353.791 2036.95H384.614C386.333 2036.95 387.79 2037.59 388.985 2038.86C390.255 2040.13 390.891 2041.62 390.891 2043.34V2061.95C390.891 2062.77 391.003 2063.29 391.227 2063.52C391.451 2063.67 392.123 2063.74 393.244 2063.74C394.44 2063.74 395.187 2063.4 395.486 2062.73C395.86 2062.06 396.196 2060 396.495 2056.57C396.569 2054.92 397.279 2053.58 398.624 2052.53C399.969 2051.41 401.464 2051 403.108 2051.3C404.826 2051.6 406.209 2052.46 407.255 2053.88C408.376 2055.22 408.899 2056.79 408.824 2058.59C408.674 2061.05 408.525 2063.07 408.376 2064.64C408.226 2066.21 407.927 2067.74 407.479 2069.23C407.031 2070.65 406.657 2071.77 406.358 2072.6C406.059 2073.34 405.387 2074.05 404.341 2074.73C403.369 2075.4 402.547 2075.88 401.875 2076.18C401.202 2076.41 399.932 2076.63 398.064 2076.85C396.196 2077 394.589 2077.08 393.244 2077.08C391.899 2077.08 389.77 2077.08 386.856 2077.08C381.251 2077.08 377.702 2076.63 376.208 2075.73C374.713 2074.84 373.966 2072.86 373.966 2069.79V2052.42C373.966 2051.75 373.63 2051.41 372.957 2051.41H364.439C363.766 2051.41 363.43 2051.79 363.43 2052.53C363.206 2058.44 362.16 2063.52 360.292 2067.78C358.424 2072.04 355.584 2076 351.773 2079.66C351.624 2079.81 351.587 2079.96 351.661 2080.11C351.736 2080.25 351.848 2080.33 351.998 2080.33H396.046C397.765 2080.33 399.259 2080.96 400.53 2082.23C401.8 2083.51 402.435 2085 402.435 2086.72V2094.12C402.435 2094.41 402.286 2094.56 401.987 2094.56C402.286 2094.64 402.323 2094.9 402.099 2095.35C398.064 2102.75 393.095 2109.02 387.192 2114.18C386.743 2114.63 386.781 2114.96 387.304 2115.19C391.414 2116.98 396.532 2118.74 402.659 2120.46C404.303 2120.9 405.499 2121.87 406.246 2123.37C407.068 2124.86 407.18 2126.4 406.582 2127.96L405.461 2130.65C404.789 2132.37 403.631 2133.64 401.987 2134.47C400.343 2135.36 398.624 2135.55 396.831 2135.03C388.387 2132.78 380.131 2129.57 372.061 2125.39C371.612 2125.09 371.014 2125.09 370.267 2125.39C363.766 2128.75 355.622 2131.89 345.833 2134.8C344.114 2135.32 342.396 2135.18 340.677 2134.35C339.033 2133.61 337.838 2132.41 337.091 2130.77L335.633 2127.74C334.961 2126.25 334.961 2124.79 335.633 2123.37C336.381 2121.87 337.539 2120.94 339.108 2120.57C344.264 2119.22 349.532 2117.5 354.912 2115.41C355.136 2115.34 355.248 2115.19 355.248 2114.96C355.323 2114.66 355.285 2114.48 355.136 2114.4C351.923 2111.71 349.42 2109.43 347.626 2107.57C346.431 2106.3 345.945 2104.8 346.169 2103.08C346.393 2101.36 347.215 2099.98 348.635 2098.94L353.679 2095.12C353.828 2094.97 353.866 2094.86 353.791 2094.79C353.716 2094.64 353.604 2094.56 353.455 2094.56H345.048C343.778 2094.56 342.583 2094.19 341.462 2093.44C341.163 2093.29 340.939 2093.41 340.789 2093.78C340.864 2095.5 340.378 2097.07 339.332 2098.49C338.361 2099.91 337.091 2100.84 335.521 2101.29C335.223 2101.36 334.737 2101.51 334.064 2101.74C333.392 2101.89 332.906 2102 332.607 2102.07C331.935 2102.22 331.598 2102.63 331.598 2103.31V2116.2C331.598 2119.63 331.561 2122.36 331.486 2124.38C331.412 2126.32 331.15 2128.11 330.702 2129.76C330.253 2131.48 329.73 2132.71 329.133 2133.46C328.535 2134.2 327.563 2134.84 326.218 2135.36C324.873 2135.89 323.454 2136.18 321.959 2136.26C320.54 2136.41 318.522 2136.48 315.907 2136.48C314.412 2136.48 313.067 2136.45 311.872 2136.37C310.078 2136.22 308.509 2135.51 307.164 2134.24C305.819 2132.97 305.109 2131.44 305.035 2129.65V2128.19C304.96 2126.55 305.483 2125.13 306.604 2123.93C307.799 2122.73 309.257 2122.21 310.975 2122.36C311.349 2122.36 311.797 2122.4 312.32 2122.47C312.843 2122.47 313.142 2122.47 313.217 2122.47C313.889 2122.47 314.263 2122.29 314.338 2121.91C314.487 2121.54 314.562 2120.19 314.562 2117.88V2107.34C314.562 2107.12 314.487 2106.93 314.338 2106.78C314.188 2106.56 314.001 2106.48 313.777 2106.56C312.806 2106.86 311.984 2107.04 311.311 2107.12C309.668 2107.42 308.173 2107.04 306.828 2106C305.483 2104.95 304.736 2103.57 304.586 2101.85L304.362 2099.05C304.288 2097.25 304.811 2095.68 305.931 2094.34C307.052 2092.92 308.472 2092.02 310.191 2091.65L313.553 2090.98C314.226 2090.83 314.562 2090.45 314.562 2089.86V2067.55C314.562 2066.88 314.263 2066.54 313.665 2066.54H310.415ZM357.714 2094.56C357.564 2094.56 357.415 2094.68 357.266 2094.9C357.191 2095.05 357.228 2095.2 357.378 2095.35C360.964 2099.38 365.261 2103.04 370.267 2106.33C370.716 2106.71 371.201 2106.71 371.724 2106.33C376.357 2103.04 380.243 2099.42 383.381 2095.46C383.755 2094.86 383.643 2094.56 383.045 2094.56H357.714ZM426.085 2050.96C424.366 2050.96 422.872 2050.33 421.601 2049.06C420.331 2047.79 419.696 2046.29 419.696 2044.57V2043.68C419.696 2041.96 420.331 2040.47 421.601 2039.19C422.872 2037.92 424.366 2037.29 426.085 2037.29H513.061C514.78 2037.29 516.274 2037.92 517.545 2039.19C518.815 2040.47 519.45 2041.96 519.45 2043.68V2044.57C519.45 2046.29 518.815 2047.79 517.545 2049.06C516.274 2050.33 514.78 2050.96 513.061 2050.96H492.998C492.401 2050.96 492.102 2051.26 492.102 2051.86V2054.33C492.102 2054.92 492.401 2055.22 492.998 2055.22H509.138C510.857 2055.22 512.352 2055.86 513.622 2057.13C514.892 2058.4 515.527 2059.89 515.527 2061.61V2075.17C515.527 2076.89 514.892 2078.39 513.622 2079.66C512.352 2080.85 510.857 2081.45 509.138 2081.45H438.526H430.008C428.289 2081.45 426.795 2080.85 425.524 2079.66C424.254 2078.39 423.619 2076.89 423.619 2075.17V2061.61C423.619 2059.89 424.254 2058.4 425.524 2057.13C426.795 2055.86 428.289 2055.22 430.008 2055.22H446.148C446.745 2055.22 447.044 2054.92 447.044 2054.33V2051.86C447.044 2051.26 446.745 2050.96 446.148 2050.96H426.085ZM491.766 2065.98V2070.24C491.766 2070.91 492.064 2071.25 492.662 2071.25H499.611C500.284 2071.25 500.62 2070.91 500.62 2070.24V2065.98C500.62 2065.38 500.284 2065.09 499.611 2065.09H492.662C492.064 2065.09 491.766 2065.38 491.766 2065.98ZM464.417 2051.86V2054.33C464.417 2054.92 464.753 2055.22 465.426 2055.22H473.72C474.393 2055.22 474.729 2054.92 474.729 2054.33V2051.86C474.729 2051.26 474.393 2050.96 473.72 2050.96H465.426C464.753 2050.96 464.417 2051.26 464.417 2051.86ZM464.081 2065.98V2070.24C464.081 2070.91 464.38 2071.25 464.978 2071.25H474.168C474.766 2071.25 475.065 2070.91 475.065 2070.24V2065.98C475.065 2065.38 474.766 2065.09 474.168 2065.09H464.978C464.38 2065.09 464.081 2065.38 464.081 2065.98ZM447.381 2065.98C447.381 2065.38 447.082 2065.09 446.484 2065.09H439.535C438.862 2065.09 438.526 2065.38 438.526 2065.98V2070.24C438.526 2070.91 438.862 2071.25 439.535 2071.25H446.484C447.082 2071.25 447.381 2070.91 447.381 2070.24V2065.98ZM433.706 2084.59H506.336C507.98 2084.59 509.4 2085.19 510.596 2086.38C511.791 2087.58 512.389 2089 512.389 2090.64C512.389 2092.28 511.791 2093.7 510.596 2094.9C509.475 2096.02 508.055 2096.58 506.336 2096.58H433.706C432.062 2096.58 430.643 2096.02 429.447 2094.9C428.326 2093.7 427.766 2092.28 427.766 2090.64C427.766 2088.92 428.326 2087.5 429.447 2086.38C430.643 2085.19 432.062 2084.59 433.706 2084.59ZM426.085 2113.39C424.366 2113.39 422.872 2112.8 421.601 2111.6C420.331 2110.33 419.696 2108.84 419.696 2107.12V2106.11C419.696 2104.39 420.331 2102.93 421.601 2101.74C422.872 2100.47 424.366 2099.83 426.085 2099.83H513.061C514.78 2099.83 516.274 2100.47 517.545 2101.74C518.815 2102.93 519.45 2104.39 519.45 2106.11V2107.12C519.45 2108.84 518.815 2110.33 517.545 2111.6C516.274 2112.8 514.78 2113.39 513.061 2113.39H503.983C503.908 2113.39 503.871 2113.47 503.871 2113.62C503.871 2113.77 503.908 2113.88 503.983 2113.95C506.673 2115.37 510.633 2117.58 515.863 2120.57C517.358 2121.46 518.292 2122.77 518.666 2124.49C519.114 2126.21 518.89 2127.82 517.993 2129.31L516.872 2131.33C515.976 2132.82 514.668 2133.79 512.949 2134.24C511.305 2134.69 509.736 2134.47 508.242 2133.57C503.534 2130.88 497.407 2127.55 489.86 2123.59C488.291 2122.77 487.245 2121.54 486.722 2119.89C486.199 2118.25 486.386 2116.68 487.282 2115.19L487.843 2114.29C487.992 2114.14 487.992 2113.95 487.843 2113.73C487.768 2113.51 487.618 2113.39 487.394 2113.39H481.79C481.118 2113.39 480.781 2113.73 480.781 2114.4V2120.46C480.781 2124.49 480.632 2127.44 480.333 2129.31C480.034 2131.25 479.137 2132.86 477.643 2134.13C476.149 2135.4 474.281 2136.15 472.039 2136.37C469.797 2136.67 466.285 2136.82 461.503 2136.82C459.635 2136.82 456.571 2136.71 452.312 2136.48C450.519 2136.41 448.95 2135.74 447.605 2134.47C446.26 2133.2 445.55 2131.66 445.475 2129.87L445.251 2126.96C445.251 2126.73 445.139 2126.55 444.915 2126.4C444.691 2126.32 444.504 2126.36 444.354 2126.51C440.394 2128.97 435.873 2131.4 430.792 2133.79C429.148 2134.54 427.467 2134.62 425.748 2134.02C424.105 2133.49 422.834 2132.45 421.938 2130.88L421.041 2129.31C420.219 2127.82 420.07 2126.28 420.593 2124.71C421.19 2123.07 422.237 2121.87 423.731 2121.13C428.214 2119.04 432.772 2116.61 437.405 2113.84C437.48 2113.77 437.48 2113.69 437.405 2113.62C437.405 2113.47 437.33 2113.39 437.181 2113.39H426.085ZM449.958 2113.39C449.734 2113.39 449.547 2113.51 449.398 2113.73C449.323 2113.88 449.361 2114.03 449.51 2114.18L451.416 2116.98C452.088 2117.88 452.312 2118.89 452.088 2120.01C451.939 2121.13 451.378 2121.99 450.407 2122.58C450.407 2122.73 450.444 2122.85 450.519 2122.92C454.33 2123.15 456.87 2123.26 458.141 2123.26C460.307 2123.26 461.578 2123.11 461.951 2122.81C462.325 2122.44 462.512 2121.31 462.512 2119.45V2114.4C462.512 2113.73 462.176 2113.39 461.503 2113.39H449.958ZM544.669 2065.2C542.95 2065.2 541.456 2064.56 540.186 2063.29C538.915 2062.02 538.28 2060.53 538.28 2058.81V2056.23C538.28 2054.51 538.915 2053.02 540.186 2051.75C541.456 2050.48 542.95 2049.84 544.669 2049.84C556.4 2049.84 569.738 2049.66 584.683 2049.28C585.206 2049.28 585.467 2048.95 585.467 2048.27C585.318 2047.23 585.168 2045.43 585.019 2042.89C584.944 2041.17 585.467 2039.68 586.588 2038.41C587.784 2037.14 589.241 2036.43 590.959 2036.28L595.443 2035.94C597.161 2035.87 598.656 2036.43 599.926 2037.63C601.271 2038.75 602.018 2040.17 602.168 2041.88C602.317 2044.43 602.467 2046.37 602.616 2047.71C602.616 2048.31 602.99 2048.61 603.737 2048.61C616.514 2048.16 622.978 2047.94 623.127 2047.94C624.846 2047.86 626.34 2048.42 627.611 2049.62C628.881 2050.81 629.553 2052.27 629.628 2053.99L629.74 2056.57C629.815 2058.29 629.254 2059.82 628.059 2061.16C626.863 2062.43 625.406 2063.11 623.688 2063.18L606.203 2063.85C605.605 2063.85 605.381 2064.19 605.53 2064.86C607.473 2071.89 610.462 2078.91 614.497 2085.93C615.319 2087.35 615.468 2088.89 614.945 2090.53C614.497 2092.1 613.525 2093.26 612.031 2094L607.099 2096.36C603.513 2098 599.702 2097.89 595.667 2096.02C589.689 2093.26 583.599 2091.87 577.397 2091.87C572.54 2091.87 568.804 2092.85 566.189 2094.79C563.574 2096.73 562.266 2099.38 562.266 2102.75C562.266 2112.16 570.597 2116.87 587.261 2116.87C593.313 2116.87 600.449 2116.2 608.668 2114.85C610.387 2114.55 611.956 2114.93 613.376 2115.97C614.796 2116.94 615.692 2118.29 616.066 2120.01L616.626 2122.81C616.925 2124.53 616.552 2126.1 615.506 2127.52C614.534 2129.01 613.189 2129.91 611.471 2130.21C602.877 2131.55 594.807 2132.22 587.261 2132.22C573.063 2132.22 562.303 2129.5 554.981 2124.04C547.732 2118.51 544.108 2111.08 544.108 2101.74C544.108 2094.12 546.948 2088.03 552.627 2083.47C558.306 2078.83 566.226 2076.52 576.388 2076.52C581.768 2076.52 587.186 2077.45 592.641 2079.32L592.865 2079.21V2079.1C590.997 2074.84 589.465 2070.32 588.269 2065.53C588.12 2064.86 587.709 2064.53 587.036 2064.53C568.057 2064.97 553.934 2065.2 544.669 2065.2ZM649.691 2100.17C655.818 2094.04 662.842 2087.09 670.763 2079.32C671.286 2078.8 671.547 2078.27 671.547 2077.75V2068.56C671.547 2067.89 671.211 2067.55 670.538 2067.55H654.511C652.792 2067.55 651.297 2066.95 650.027 2065.76C648.757 2064.49 648.122 2062.99 648.122 2061.28V2058.59C648.122 2056.87 648.757 2055.41 650.027 2054.21C651.297 2052.94 652.792 2052.31 654.511 2052.31H670.538C671.211 2052.31 671.547 2051.97 671.547 2051.3V2042.89C671.547 2041.17 672.145 2039.72 673.341 2038.52C674.611 2037.25 676.105 2036.62 677.824 2036.62H682.307C684.026 2036.62 685.52 2037.25 686.791 2038.52C688.061 2039.72 688.696 2041.17 688.696 2042.89V2061.61C688.696 2061.76 688.771 2061.91 688.92 2062.06C689.144 2062.13 689.294 2062.1 689.368 2061.95C695.869 2056.19 700.876 2052.5 704.388 2050.85C707.9 2049.21 711.71 2048.39 715.82 2048.39C721.873 2048.39 726.169 2050.22 728.71 2053.88C731.325 2057.54 732.633 2064.23 732.633 2073.94C732.633 2077.9 732.11 2082.5 731.063 2087.73C730.017 2093.26 729.494 2097.81 729.494 2101.4C729.494 2107.6 730.652 2110.7 732.969 2110.7C734.389 2110.7 736.556 2109.55 739.47 2107.23C740.74 2106.18 742.197 2105.77 743.841 2106C745.56 2106.22 746.905 2107.01 747.876 2108.35L749.221 2110.37C750.342 2111.86 750.79 2113.54 750.566 2115.41C750.417 2117.2 749.669 2118.7 748.324 2119.89C741.151 2125.87 734.314 2128.86 727.813 2128.86C722.134 2128.86 717.95 2126.96 715.26 2123.15C712.644 2119.33 711.337 2112.72 711.337 2103.31C711.337 2100.17 711.897 2095.57 713.018 2089.52C714.064 2084.29 714.587 2079.73 714.587 2075.85C714.587 2069.57 713.429 2066.43 711.113 2066.43C710.44 2066.43 709.618 2066.73 708.647 2067.33C707.75 2067.85 705.695 2069.49 702.482 2072.26C699.269 2074.95 694.898 2078.95 689.368 2084.25C688.92 2084.7 688.696 2085.22 688.696 2085.82V2127.4C688.696 2129.12 688.061 2130.58 686.791 2131.78C685.52 2133.05 684.026 2133.68 682.307 2133.68H677.824C676.105 2133.68 674.611 2133.05 673.341 2131.78C672.145 2130.58 671.547 2129.12 671.547 2127.4V2102.52C671.547 2102.37 671.435 2102.26 671.211 2102.19C670.987 2102.11 670.837 2102.15 670.763 2102.3C669.044 2104.02 665.868 2107.12 661.236 2111.6C660.04 2112.87 658.546 2113.51 656.752 2113.51C654.959 2113.51 653.427 2112.87 652.157 2111.6L649.691 2109.13C648.421 2107.86 647.786 2106.37 647.786 2104.65C647.786 2102.93 648.421 2101.44 649.691 2100.17ZM813.893 2118.1C814.64 2116.16 815.014 2114.44 815.014 2112.95C815.014 2111 814.267 2109.58 812.772 2108.69C811.352 2107.72 808.625 2107.23 804.59 2107.23C801.377 2107.23 798.949 2107.75 797.305 2108.8C795.736 2109.77 794.951 2111.04 794.951 2112.61C794.951 2116.94 800.742 2119.11 812.324 2119.11C812.399 2119.11 812.436 2119.11 812.436 2119.11L812.66 2119C813.258 2119 813.669 2118.7 813.893 2118.1ZM770.853 2091.54L770.293 2090.53C769.545 2088.96 769.433 2087.32 769.956 2085.6C770.479 2083.8 771.488 2082.46 772.983 2081.56L815.686 2056.46L815.798 2056.34H815.686H781.277C779.558 2056.34 778.064 2055.71 776.793 2054.44C775.598 2053.17 775 2051.67 775 2049.95V2047.83C775 2046.11 775.598 2044.61 776.793 2043.34C778.064 2042.07 779.558 2041.44 781.277 2041.44H841.802C843.52 2041.44 845.015 2042.07 846.285 2043.34C847.555 2044.61 848.191 2046.11 848.191 2047.83V2050.4C848.191 2054.74 846.36 2057.84 842.698 2059.71L814.79 2074.5V2074.61H814.902C818.638 2073.94 822.187 2073.6 825.55 2073.6C835.712 2073.6 843.558 2075.92 849.087 2080.55C854.691 2085.19 857.493 2091.46 857.493 2099.38C857.493 2110.07 853.571 2118.36 845.725 2124.27C837.879 2130.17 826.745 2133.12 812.324 2133.12C789.683 2133.12 778.363 2126.28 778.363 2112.61C778.363 2107.45 780.791 2103.12 785.648 2099.61C790.58 2096.1 797.23 2094.34 805.599 2094.34C814.192 2094.34 820.394 2095.76 824.205 2098.6C828.09 2101.36 830.033 2105.55 830.033 2111.15C830.033 2112.8 829.958 2114.03 829.809 2114.85C829.809 2115 829.884 2115.15 830.033 2115.3C830.182 2115.37 830.332 2115.37 830.481 2115.3C836.011 2112.16 838.776 2107.27 838.776 2100.62C838.776 2091.35 831.714 2086.72 817.592 2086.72C810.493 2086.72 804.067 2087.32 798.313 2088.51C792.56 2089.71 786.283 2091.76 779.483 2094.68C777.84 2095.35 776.158 2095.39 774.44 2094.79C772.796 2094.19 771.6 2093.11 770.853 2091.54ZM927.658 2132.22C899.861 2132.22 885.963 2122.81 885.963 2103.98C885.963 2094.34 891.455 2085.71 902.439 2078.09C902.887 2077.71 903.074 2077.27 902.999 2076.74C900.608 2066.43 898.516 2056.46 896.723 2046.82C896.424 2045.1 896.797 2043.53 897.844 2042.11C898.89 2040.69 900.272 2039.83 901.991 2039.53L907.931 2038.63C909.65 2038.34 911.219 2038.71 912.639 2039.76C914.058 2040.8 914.955 2042.18 915.329 2043.9C917.122 2053.54 918.766 2061.39 920.26 2067.44C920.41 2068.11 920.821 2068.3 921.493 2068C931.581 2063.89 943.237 2060.23 956.463 2057.02C958.107 2056.64 959.676 2056.94 961.171 2057.91C962.665 2058.81 963.599 2060.12 963.973 2061.84L964.757 2065.65C965.131 2067.37 964.832 2069.01 963.861 2070.58C962.889 2072.07 961.544 2073.01 959.826 2073.38C941.668 2077.79 927.994 2082.65 918.803 2087.95C909.612 2093.18 905.017 2098.23 905.017 2103.08C905.017 2107.42 906.81 2110.67 910.397 2112.83C914.058 2114.93 919.812 2115.97 927.658 2115.97C937.895 2115.97 948.206 2115.22 958.593 2113.73C960.311 2113.51 961.843 2113.92 963.188 2114.96C964.533 2116.01 965.318 2117.39 965.542 2119.11L965.99 2122.7C966.214 2124.49 965.766 2126.1 964.645 2127.52C963.599 2128.94 962.179 2129.76 960.386 2129.98C949.85 2131.48 938.941 2132.22 927.658 2132.22ZM257.511 2291.16L255.494 2287.46C254.672 2285.97 254.522 2284.4 255.046 2282.76C255.643 2281.04 256.689 2279.77 258.184 2278.95C283.44 2265.65 302.195 2248.16 314.45 2226.49C314.524 2226.34 314.487 2226.19 314.338 2226.04C314.263 2225.82 314.113 2225.71 313.889 2225.71H268.832C267.113 2225.71 265.619 2225.07 264.348 2223.8C263.078 2222.53 262.443 2221.04 262.443 2219.32V2215.28C262.443 2213.56 263.078 2212.07 264.348 2210.8C265.619 2209.53 267.113 2208.89 268.832 2208.89H328.908C330.627 2208.89 332.122 2209.53 333.392 2210.8C334.662 2212.07 335.297 2213.56 335.297 2215.28V2219.32C335.297 2223.65 334.363 2227.65 332.495 2231.31C327.788 2239.98 322.109 2248.16 315.458 2255.86C315.01 2256.3 315.01 2256.75 315.458 2257.2C323.678 2264.45 332.084 2272.15 340.677 2280.29C341.947 2281.49 342.583 2282.98 342.583 2284.77C342.583 2286.49 341.947 2287.95 340.677 2289.15L337.203 2292.51C335.932 2293.78 334.401 2294.41 332.607 2294.41C330.889 2294.41 329.394 2293.82 328.124 2292.62C320.203 2284.92 311.984 2277.26 303.466 2269.64C302.942 2269.27 302.457 2269.27 302.008 2269.64C291.323 2279.36 279.442 2287.46 266.366 2293.96C264.722 2294.79 263.041 2294.9 261.322 2294.3C259.604 2293.78 258.333 2292.73 257.511 2291.16ZM372.173 2256.87L369.371 2254.29C368.1 2253.17 367.39 2251.75 367.241 2250.03C367.166 2248.23 367.689 2246.7 368.81 2245.43C378.076 2234.45 384.128 2222.34 386.968 2209.12C387.341 2207.32 388.238 2205.87 389.658 2204.75C391.077 2203.55 392.647 2202.99 394.365 2203.07L398.848 2203.4C400.642 2203.55 402.099 2204.26 403.22 2205.53C404.341 2206.8 404.752 2208.26 404.453 2209.9C404.453 2210.13 404.378 2210.5 404.228 2211.02C404.079 2211.47 404.004 2211.81 404.004 2212.03C403.93 2212.26 403.967 2212.48 404.116 2212.7C404.341 2212.93 404.565 2213.04 404.789 2213.04H447.829C449.547 2213.04 451.042 2213.68 452.312 2214.95C453.582 2216.14 454.218 2217.6 454.218 2219.32C454.068 2244.5 448.501 2263.29 437.517 2275.7C426.533 2288.02 408.973 2295.57 384.838 2298.34C383.045 2298.56 381.438 2298.11 380.018 2296.99C378.599 2295.87 377.739 2294.45 377.441 2292.73L376.768 2289.03C376.469 2287.31 376.843 2285.78 377.889 2284.44C378.935 2283.02 380.317 2282.2 382.036 2281.97C399.596 2279.58 412.261 2274.8 420.032 2267.63C420.481 2267.18 420.406 2266.8 419.808 2266.5C414.279 2263.66 407.329 2260.3 398.961 2256.42C397.391 2255.67 396.345 2254.51 395.822 2252.94C395.374 2251.3 395.561 2249.73 396.383 2248.23L398.848 2243.64C399.67 2242.07 400.903 2241.02 402.547 2240.5C404.266 2239.9 405.947 2239.98 407.591 2240.73C416.782 2244.98 424.105 2248.5 429.559 2251.26C430.082 2251.49 430.456 2251.37 430.68 2250.92C432.847 2245.1 434.192 2238.18 434.715 2230.19C434.715 2229.59 434.416 2229.29 433.818 2229.29H399.969C399.297 2229.29 398.848 2229.59 398.624 2230.19C394.589 2239.75 388.836 2248.53 381.363 2256.53C380.168 2257.8 378.673 2258.47 376.88 2258.55C375.087 2258.62 373.518 2258.06 372.173 2256.87ZM486.386 2260.79C484.667 2260.79 483.172 2260.15 481.902 2258.88C480.632 2257.61 479.997 2256.12 479.997 2254.4V2249.02C479.997 2247.3 480.632 2245.81 481.902 2244.54C483.172 2243.27 484.667 2242.63 486.386 2242.63H567.086C568.804 2242.63 570.299 2243.27 571.569 2244.54C572.839 2245.81 573.474 2247.3 573.474 2249.02V2254.4C573.474 2256.12 572.839 2257.61 571.569 2258.88C570.299 2260.15 568.804 2260.79 567.086 2260.79H486.386ZM600.935 2256.53C599.216 2256.53 597.722 2255.89 596.451 2254.62C595.181 2253.35 594.546 2251.86 594.546 2250.14V2247.56C594.546 2245.84 595.181 2244.35 596.451 2243.08C597.722 2241.81 599.216 2241.17 600.935 2241.17H617.635C618.308 2241.17 618.644 2240.87 618.644 2240.28C618.793 2236.02 618.943 2232.92 619.092 2230.97C619.092 2230.38 618.793 2230.08 618.196 2230.08H604.073C602.354 2230.08 600.86 2229.44 599.59 2228.17C598.319 2226.9 597.684 2225.41 597.684 2223.69V2221.11C597.684 2219.39 598.319 2217.9 599.59 2216.63C600.86 2215.36 602.354 2214.72 604.073 2214.72H619.204C619.877 2214.72 620.213 2214.42 620.213 2213.83C620.288 2212.78 620.4 2211.14 620.549 2208.89C620.624 2207.1 621.334 2205.61 622.679 2204.41C624.024 2203.21 625.593 2202.65 627.386 2202.73L632.878 2202.84C634.597 2202.92 636.017 2203.63 637.138 2204.97C638.333 2206.24 638.856 2207.74 638.707 2209.45C638.632 2209.98 638.557 2210.69 638.483 2211.58C638.408 2212.48 638.371 2213.19 638.371 2213.71C638.371 2214.39 638.669 2214.72 639.267 2214.72H669.642C671.36 2214.72 672.855 2215.36 674.125 2216.63C675.395 2217.9 676.031 2219.39 676.031 2221.11V2223.69C676.031 2225.41 675.395 2226.9 674.125 2228.17C672.855 2229.44 671.36 2230.08 669.642 2230.08H638.258C637.586 2230.08 637.25 2230.41 637.25 2231.09C636.951 2235.35 636.764 2238.37 636.689 2240.16C636.689 2240.84 637.026 2241.17 637.698 2241.17H661.236C662.954 2241.17 664.449 2241.81 665.719 2243.08C666.989 2244.35 667.624 2245.84 667.624 2247.56V2250.14C667.624 2251.86 666.989 2253.35 665.719 2254.62C664.449 2255.89 662.954 2256.53 661.236 2256.53H637.026C636.353 2256.53 636.017 2256.79 636.017 2257.31C635.867 2262.99 635.793 2266.73 635.793 2268.52C635.793 2274.72 636.764 2278.72 638.707 2280.51C640.65 2282.23 645.096 2283.09 652.045 2283.09C660.115 2283.09 665.457 2282.27 668.073 2280.63C670.763 2278.98 672.108 2275.92 672.108 2271.44C672.108 2270.54 671.996 2269.49 671.771 2268.3C671.472 2266.5 671.771 2264.9 672.668 2263.48C673.639 2261.98 674.984 2261.05 676.703 2260.68L680.962 2259.67C682.681 2259.29 684.287 2259.59 685.782 2260.56C687.276 2261.46 688.173 2262.77 688.472 2264.49C688.995 2267.63 689.256 2270.39 689.256 2272.78C689.256 2281.97 686.305 2288.7 680.402 2292.96C674.573 2297.22 665.121 2299.34 652.045 2299.34C639.118 2299.34 630.151 2297.1 625.145 2292.62C620.213 2288.21 617.747 2280.18 617.747 2268.52C617.747 2263.81 617.785 2260.08 617.859 2257.31C617.859 2256.79 617.56 2256.53 616.963 2256.53H600.935ZM704.612 2236.24L703.491 2233.55C702.818 2231.83 702.744 2230.15 703.267 2228.51C703.865 2226.79 704.911 2225.41 706.405 2224.36C707.601 2223.54 709.02 2222.49 710.664 2221.22C711.187 2220.85 711.337 2220.36 711.113 2219.77C710.814 2219.09 709.954 2217.23 708.535 2214.16C707.713 2212.59 707.563 2210.95 708.086 2209.23C708.609 2207.51 709.656 2206.28 711.225 2205.53L714.587 2203.74C716.156 2202.92 717.8 2202.77 719.519 2203.29C721.237 2203.81 722.47 2204.9 723.218 2206.54C723.292 2206.76 723.404 2207.03 723.554 2207.32C723.703 2207.62 723.815 2207.88 723.89 2208.11C724.189 2208.63 724.563 2208.67 725.011 2208.22C725.982 2207.17 727.178 2205.79 728.598 2204.07C729.793 2202.65 731.288 2201.79 733.081 2201.5C734.874 2201.12 736.518 2201.42 738.013 2202.39L739.47 2203.29C740.292 2203.81 740.964 2204.52 741.487 2205.42C741.711 2205.87 742.122 2205.94 742.72 2205.64C743.766 2204.97 744.887 2204.63 746.083 2204.63H750.566C751.014 2204.63 751.238 2204.41 751.238 2203.96C751.238 2202.69 751.687 2201.61 752.583 2200.71C753.555 2199.74 754.676 2199.25 755.946 2199.25H762.111C763.381 2199.25 764.464 2199.74 765.361 2200.71C766.332 2201.61 766.818 2202.69 766.818 2203.96C766.818 2204.41 767.042 2204.63 767.491 2204.63H779.82C780.343 2204.63 780.604 2204.41 780.604 2203.96C780.604 2202.69 781.053 2201.61 781.949 2200.71C782.921 2199.74 784.042 2199.25 785.312 2199.25H791.476C792.747 2199.25 793.83 2199.74 794.727 2200.71C795.698 2201.61 796.184 2202.69 796.184 2203.96C796.184 2204.41 796.408 2204.63 796.856 2204.63H801.788C803.507 2204.63 805.001 2205.27 806.271 2206.54C807.542 2207.81 808.177 2209.3 808.177 2211.02V2211.14C808.177 2212.85 807.542 2214.35 806.271 2215.62C805.001 2216.89 803.507 2217.52 801.788 2217.52H796.632C796.333 2217.52 796.184 2217.67 796.184 2217.97C796.184 2218.79 795.885 2219.5 795.287 2220.1C794.689 2220.7 793.98 2221 793.158 2221H792.597C792.298 2221 792.074 2221.19 791.925 2221.56C791.85 2221.63 791.813 2221.78 791.813 2222.01C791.813 2222.23 791.775 2222.42 791.701 2222.57C791.551 2223.17 791.775 2223.46 792.373 2223.46H803.245C804.441 2223.46 805.449 2223.88 806.271 2224.7C807.168 2225.52 807.616 2226.57 807.616 2227.84C807.616 2229.11 807.168 2230.19 806.271 2231.09C805.449 2231.91 804.441 2232.32 803.245 2232.32H790.019C789.347 2232.32 789.011 2232.62 789.011 2233.22V2234.11C789.011 2234.78 789.347 2235.12 790.019 2235.12H802.348C803.32 2235.12 804.142 2235.46 804.814 2236.13C805.487 2236.8 805.823 2237.62 805.823 2238.6C805.823 2239.57 805.487 2240.43 804.814 2241.17C804.142 2241.85 803.32 2242.18 802.348 2242.18H790.019C789.347 2242.18 789.011 2242.52 789.011 2243.19V2243.98C789.011 2244.65 789.347 2244.98 790.019 2244.98H802.348C803.32 2244.98 804.142 2245.36 804.814 2246.11C805.487 2246.78 805.823 2247.6 805.823 2248.57C805.823 2249.54 805.487 2250.36 804.814 2251.04C804.142 2251.71 803.32 2252.05 802.348 2252.05H790.019C789.347 2252.05 789.011 2252.38 789.011 2253.05V2253.95C789.011 2254.55 789.347 2254.85 790.019 2254.85H803.245C804.441 2254.85 805.449 2255.26 806.271 2256.08C807.168 2256.9 807.616 2257.95 807.616 2259.22C807.616 2260.49 807.168 2261.57 806.271 2262.47C805.449 2263.29 804.441 2263.7 803.245 2263.7H746.307C744.588 2263.7 743.094 2263.07 741.823 2261.8C740.553 2260.53 739.918 2259.03 739.918 2257.31V2247.9C739.918 2247.38 739.619 2247.04 739.021 2246.89L735.883 2246.44C735.584 2246.44 735.285 2246.37 734.986 2246.22C734.538 2246.07 734.314 2246.25 734.314 2246.78C735.061 2253.73 735.435 2260.3 735.435 2266.5C735.435 2276.52 734.837 2284.14 733.641 2289.37C732.521 2294.6 730.877 2298.07 728.71 2299.79C726.617 2301.59 723.554 2302.48 719.519 2302.48C718.174 2302.48 716.119 2302.3 713.354 2301.92C711.561 2301.62 710.067 2300.76 708.871 2299.34C707.675 2297.93 707.003 2296.28 706.853 2294.41L706.741 2292.51C706.667 2290.94 707.227 2289.67 708.423 2288.7C709.618 2287.65 710.963 2287.28 712.458 2287.58C713.952 2287.8 715.073 2287.91 715.82 2287.91C718.51 2287.91 719.855 2280.78 719.855 2266.5C719.855 2266.35 719.78 2266.28 719.631 2266.28C719.482 2266.21 719.332 2266.24 719.183 2266.39C717.464 2268.04 715.185 2269.87 712.346 2271.88C710.926 2272.86 709.431 2273.08 707.862 2272.56C706.293 2272.03 705.172 2270.99 704.5 2269.42L703.491 2267.18C702.818 2265.46 702.744 2263.74 703.267 2262.02C703.865 2260.23 704.911 2258.77 706.405 2257.65C710.216 2254.81 714.027 2251.34 717.838 2247.23C718.211 2246.7 718.361 2246.18 718.286 2245.66C717.688 2241.55 717.165 2238.63 716.717 2236.91C716.567 2236.24 716.231 2236.09 715.708 2236.47L712.346 2238.82C710.926 2239.79 709.431 2240.02 707.862 2239.49C706.293 2238.89 705.21 2237.81 704.612 2236.24ZM758.412 2222.57C758.262 2223.17 758.449 2223.46 758.972 2223.46H773.207C773.58 2223.46 773.842 2223.28 773.991 2222.9C774.29 2221.78 774.888 2220.89 775.785 2220.21C776.681 2219.54 777.727 2219.24 778.923 2219.32H779.82C780.343 2219.32 780.604 2219.09 780.604 2218.64V2218.42C780.604 2217.82 780.268 2217.52 779.596 2217.52H767.266C766.967 2217.52 766.818 2217.67 766.818 2217.97C766.818 2218.79 766.519 2219.5 765.921 2220.1C765.324 2220.7 764.614 2221 763.792 2221H759.869C759.271 2221 758.823 2221.33 758.524 2222.01C758.449 2222.08 758.412 2222.19 758.412 2222.34C758.412 2222.42 758.412 2222.49 758.412 2222.57ZM757.739 2233.22V2234.11C757.739 2234.78 758.076 2235.12 758.748 2235.12H770.629C771.301 2235.12 771.638 2234.78 771.638 2234.11V2233.22C771.638 2232.62 771.301 2232.32 770.629 2232.32H758.748C758.076 2232.32 757.739 2232.62 757.739 2233.22ZM757.739 2243.19V2244.09C757.739 2244.69 758.076 2244.98 758.748 2244.98H770.629C771.301 2244.98 771.638 2244.69 771.638 2244.09V2243.19C771.638 2242.52 771.301 2242.18 770.629 2242.18H758.748C758.076 2242.18 757.739 2242.52 757.739 2243.19ZM757.739 2253.05V2253.95C757.739 2254.55 758.076 2254.85 758.748 2254.85H770.629C771.301 2254.85 771.638 2254.55 771.638 2253.95V2253.05C771.638 2252.38 771.301 2252.05 770.629 2252.05H758.748C758.076 2252.05 757.739 2252.38 757.739 2253.05ZM730.727 2223.69C730.279 2224.14 730.129 2224.66 730.279 2225.26C731.25 2228.62 732.222 2232.99 733.193 2238.37C733.268 2238.52 733.38 2238.6 733.529 2238.6C733.679 2238.6 733.791 2238.52 733.866 2238.37C736.107 2234.34 738.199 2229.89 740.142 2225.03C740.815 2223.31 741.936 2221.93 743.505 2220.89C745.074 2219.84 746.792 2219.35 748.661 2219.43L750.23 2219.54C750.902 2219.54 751.238 2219.24 751.238 2218.64V2218.53C751.238 2217.86 750.902 2217.52 750.23 2217.52H746.083C743.467 2217.52 741.599 2216.4 740.478 2214.16C740.105 2213.56 739.769 2213.49 739.47 2213.94C736.107 2217.97 733.193 2221.22 730.727 2223.69ZM752.359 2287.24C752.509 2287.24 752.583 2287.17 752.583 2287.02C752.583 2286.87 752.509 2286.75 752.359 2286.68C750.641 2285.93 749.146 2285.22 747.876 2284.55C746.606 2283.88 745.896 2282.79 745.746 2281.3C745.597 2279.8 746.083 2278.57 747.203 2277.6C747.353 2277.53 747.39 2277.41 747.316 2277.26C747.241 2277.11 747.129 2277.04 746.979 2277.04H743.056C741.562 2277.04 740.292 2276.52 739.246 2275.47C738.199 2274.35 737.676 2273.04 737.676 2271.55C737.676 2270.05 738.199 2268.78 739.246 2267.74C740.292 2266.69 741.562 2266.17 743.056 2266.17H800.219C801.713 2266.17 802.984 2266.69 804.03 2267.74C805.076 2268.78 805.599 2270.05 805.599 2271.55C805.599 2275.51 804.217 2278.53 801.452 2280.63C798.911 2282.57 795.848 2284.51 792.261 2286.46C791.813 2286.68 791.813 2286.87 792.261 2287.02C798.239 2288.14 802.012 2288.81 803.581 2289.03C805.3 2289.26 806.608 2290.08 807.504 2291.5C808.476 2292.84 808.7 2294.34 808.177 2295.98L808.065 2296.32C807.542 2298.04 806.496 2299.42 804.926 2300.47C803.432 2301.51 801.788 2301.89 799.995 2301.59C791.402 2300.24 782.36 2298 772.871 2294.86C772.273 2294.64 771.675 2294.64 771.077 2294.86C761.961 2297.63 752.696 2299.83 743.281 2301.47C741.487 2301.77 739.843 2301.44 738.349 2300.47C736.854 2299.49 735.846 2298.11 735.323 2296.32L735.211 2295.98C734.762 2294.41 734.986 2292.96 735.883 2291.61C736.78 2290.19 738.05 2289.37 739.694 2289.15C743.505 2288.7 747.727 2288.06 752.359 2287.24ZM760.541 2277.04C760.467 2277.04 760.429 2277.11 760.429 2277.26C760.429 2277.34 760.467 2277.41 760.541 2277.49C764.277 2279.21 768.312 2280.74 772.646 2282.08C773.244 2282.31 773.842 2282.31 774.44 2282.08C778.774 2280.66 782.472 2279.13 785.536 2277.49C785.685 2277.41 785.76 2277.34 785.76 2277.26C785.76 2277.11 785.685 2277.04 785.536 2277.04H760.541ZM849.648 2203.51C851.067 2204.56 851.889 2205.94 852.113 2207.66C852.338 2209.38 851.889 2210.91 850.768 2212.26C844.94 2219.13 838.178 2225.18 830.481 2230.41C829.062 2231.38 827.53 2231.61 825.886 2231.09C824.317 2230.56 823.196 2229.55 822.523 2228.06L821.066 2224.7C820.319 2223.05 820.207 2221.37 820.73 2219.65C821.253 2217.86 822.262 2216.48 823.756 2215.51C829.435 2211.62 834.292 2207.47 838.327 2203.07C839.523 2201.79 840.98 2201.09 842.698 2200.94C844.417 2200.71 846.024 2201.09 847.518 2202.06L849.648 2203.51ZM819.497 2266.62L818.152 2260.79C817.256 2256.98 818.451 2253.65 821.739 2250.81C828.539 2245.21 834.442 2238.82 839.448 2231.65C840.494 2230.15 841.877 2229.22 843.595 2228.84C845.388 2228.4 847.032 2228.62 848.527 2229.52L851.441 2231.31C853.01 2232.21 854.019 2233.51 854.467 2235.23C854.916 2236.88 854.691 2238.45 853.795 2239.94C851.404 2243.68 848.9 2247.15 846.285 2250.36C845.912 2250.89 845.725 2251.45 845.725 2252.05V2296.54C845.725 2298.26 845.09 2299.76 843.819 2301.03C842.549 2302.3 841.055 2302.93 839.336 2302.93H835.077C833.358 2302.93 831.864 2302.3 830.593 2301.03C829.323 2299.76 828.688 2298.26 828.688 2296.54V2265.83C828.688 2265.68 828.613 2265.57 828.464 2265.5C828.314 2265.42 828.202 2265.46 828.128 2265.61C828.053 2265.68 827.679 2266.09 827.007 2266.84C826.409 2267.59 825.923 2268.15 825.55 2268.52C824.504 2269.49 823.308 2269.79 821.963 2269.42C820.693 2268.97 819.871 2268.04 819.497 2266.62ZM861.641 2242.52C859.922 2242.52 858.427 2241.92 857.157 2240.73C855.887 2239.45 855.252 2237.96 855.252 2236.24V2208.89C855.252 2207.17 855.887 2205.68 857.157 2204.41C858.427 2203.14 859.922 2202.5 861.641 2202.5H911.63C913.348 2202.5 914.843 2203.14 916.113 2204.41C917.383 2205.68 918.018 2207.17 918.018 2208.89V2236.24C918.018 2237.96 917.383 2239.45 916.113 2240.73C914.843 2241.92 913.348 2242.52 911.63 2242.52H872.176H861.641ZM872.176 2216.85V2219.21C872.176 2219.8 872.513 2220.1 873.185 2220.1H899.301C899.898 2220.1 900.197 2219.8 900.197 2219.21V2216.85C900.197 2216.18 899.898 2215.84 899.301 2215.84H873.185C872.513 2215.84 872.176 2216.18 872.176 2216.85ZM872.176 2229.52V2231.98C872.176 2232.66 872.513 2232.99 873.185 2232.99H899.301C899.898 2232.99 900.197 2232.66 900.197 2231.98V2229.52C900.197 2228.84 899.898 2228.51 899.301 2228.51H873.185C872.513 2228.51 872.176 2228.84 872.176 2229.52ZM860.296 2277.82L862.089 2276.14C862.238 2275.99 862.238 2275.84 862.089 2275.7C862.014 2275.55 861.902 2275.47 861.753 2275.47H857.157C855.439 2275.47 853.944 2274.84 852.674 2273.57C851.404 2272.3 850.768 2270.8 850.768 2269.08V2267.63C850.768 2265.91 851.404 2264.41 852.674 2263.14C853.944 2261.87 855.439 2261.24 857.157 2261.24H895.266C895.863 2261.24 896.162 2260.94 896.162 2260.34V2258.66C896.162 2257.99 895.863 2257.65 895.266 2257.65H856.821C855.177 2257.65 853.795 2257.09 852.674 2255.97C851.553 2254.85 850.993 2253.47 850.993 2251.82C850.993 2250.18 851.553 2248.8 852.674 2247.67C853.795 2246.48 855.177 2245.88 856.821 2245.88H917.346C918.99 2245.88 920.372 2246.48 921.493 2247.67C922.689 2248.8 923.286 2250.18 923.286 2251.82C923.286 2253.47 922.689 2254.85 921.493 2255.97C920.372 2257.09 918.99 2257.65 917.346 2257.65H914.656C914.058 2257.65 913.759 2257.99 913.759 2258.66V2260.34C913.759 2260.94 914.058 2261.24 914.656 2261.24H917.458C919.177 2261.24 920.671 2261.87 921.941 2263.14C923.212 2264.41 923.847 2265.91 923.847 2267.63V2269.08C923.847 2270.8 923.212 2272.3 921.941 2273.57C920.671 2274.84 919.177 2275.47 917.458 2275.47H914.656C914.058 2275.47 913.759 2275.77 913.759 2276.37V2282.08C913.759 2285.52 913.685 2288.25 913.535 2290.27C913.46 2292.21 913.162 2294.04 912.638 2295.76C912.115 2297.48 911.48 2298.71 910.733 2299.46C909.986 2300.2 908.753 2300.84 907.034 2301.36C905.39 2301.96 903.597 2302.3 901.654 2302.37C899.786 2302.52 897.171 2302.6 893.808 2302.6C893.136 2302.6 890.857 2302.52 886.971 2302.37C885.178 2302.22 883.609 2301.51 882.264 2300.24C880.994 2299.05 880.321 2297.55 880.246 2295.76L880.134 2293.29C880.134 2293.14 880.022 2293.03 879.798 2292.96C879.649 2292.88 879.499 2292.92 879.35 2293.07L877.332 2294.86C876.062 2296.06 874.567 2296.62 872.849 2296.54C871.205 2296.54 869.748 2295.91 868.478 2294.64C867.432 2293.59 865.937 2292.13 863.994 2290.27C862.126 2288.4 860.893 2287.17 860.296 2286.57C859.1 2285.37 858.502 2283.91 858.502 2282.2C858.502 2280.48 859.1 2279.02 860.296 2277.82ZM872.064 2275.47C871.915 2275.47 871.803 2275.55 871.728 2275.7C871.653 2275.84 871.691 2275.99 871.84 2276.14C876.473 2280.63 880.284 2284.51 883.273 2287.8C883.796 2288.32 884.319 2288.58 884.842 2288.58C888.13 2288.73 889.998 2288.81 890.446 2288.81C893.211 2288.81 894.855 2288.62 895.378 2288.25C895.901 2287.8 896.162 2286.38 896.162 2283.99V2276.37C896.162 2275.77 895.863 2275.47 895.266 2275.47H872.064ZM981.906 2266.28C980.113 2266.28 978.581 2265.68 977.311 2264.49C976.115 2263.22 975.442 2261.68 975.293 2259.89L973.051 2216.63C972.977 2214.91 973.537 2213.41 974.733 2212.14C975.928 2210.87 977.385 2210.24 979.104 2210.24H989.191C990.91 2210.24 992.367 2210.87 993.563 2212.14C994.758 2213.41 995.319 2214.91 995.244 2216.63L993.114 2259.89C992.965 2261.68 992.255 2263.22 990.985 2264.49C989.714 2265.68 988.183 2266.28 986.389 2266.28H981.906ZM987.51 2275.25C989.229 2275.25 990.723 2275.88 991.993 2277.15C993.264 2278.42 993.899 2279.92 993.899 2281.64V2285.67C993.899 2287.39 993.264 2288.88 991.993 2290.15C990.723 2291.42 989.229 2292.06 987.51 2292.06H980.785C979.066 2292.06 977.572 2291.42 976.302 2290.15C975.031 2288.88 974.396 2287.39 974.396 2285.67V2281.64C974.396 2279.92 975.031 2278.42 976.302 2277.15C977.572 2275.88 979.066 2275.25 980.785 2275.25H987.51Z" fill="#1E1E1E"/>
<path d="M881.774 470H398.96C320.586 470 257.042 533.722 257.042 612.317V1769.07C257.042 1847.67 320.586 1911.39 398.96 1911.39H881.774C960.148 1911.39 1023.69 1847.67 1023.69 1769.07V612.317C1023.69 533.722 960.148 470 881.774 470ZM975.188 1769.07C975.188 1820.73 933.282 1862.75 881.774 1862.75H398.96C347.452 1862.75 305.546 1820.73 305.546 1769.07V612.317C305.546 560.664 347.452 518.64 398.96 518.64H444.517V548.614C444.517 563.353 456.438 575.308 471.136 575.308H819.561C834.259 575.308 846.18 563.353 846.18 548.614V518.64H881.755C933.263 518.64 975.169 560.664 975.169 612.317V1769.07H975.188Z" fill="#1E1E1E"/>
<path d="M975.188 1769.07C975.188 1820.73 933.282 1862.75 881.774 1862.75H398.96C347.452 1862.75 305.546 1820.73 305.546 1769.07V612.317C305.546 560.664 347.452 518.64 398.96 518.64H444.517V548.614C444.517 563.353 456.438 575.308 471.136 575.308H819.561C834.259 575.308 846.18 563.353 846.18 548.614V518.64H881.755C933.263 518.64 975.169 560.664 975.169 612.317V1769.07H975.188Z" fill="#FF5118"/>
<path d="M692.045 1241.25L640.367 1339.02L588.689 1241.25L490.923 1189.58L588.689 1137.9L614.528 1089.01L640.367 1040.13L692.045 1137.9L789.812 1189.58L692.045 1241.25Z" fill="url(#paint0_linear_603_13439)"/>
<g filter="url(#filter0_d_603_13439)">
<rect x="104" y="517.371" width="1076" height="286.933" rx="38.1083" fill="white"/>
</g>
<path d="M400.044 675.986C398.944 675.986 397.987 675.603 397.174 674.838C396.361 674.025 395.955 673.069 395.955 671.969V671.395C395.955 670.295 396.361 669.339 397.174 668.526C397.987 667.713 398.944 667.306 400.044 667.306H420.488C420.822 667.306 421.038 667.091 421.133 666.661C421.277 664.939 421.349 664.03 421.349 663.935C421.349 663.552 421.157 663.361 420.775 663.361H410.445H403.415C402.315 663.361 401.359 662.954 400.546 662.141C399.733 661.328 399.326 660.372 399.326 659.272V635.098C399.326 633.998 399.733 633.065 400.546 632.3C401.359 631.487 402.315 631.081 403.415 631.081H450.472C451.572 631.081 452.529 631.487 453.342 632.3C454.155 633.065 454.561 633.998 454.561 635.098V659.272C454.561 660.372 454.155 661.328 453.342 662.141C452.529 662.954 451.572 663.361 450.472 663.361H433.113C432.682 663.361 432.467 663.528 432.467 663.863L432.252 666.661C432.252 667.091 432.443 667.306 432.826 667.306H453.413C454.513 667.306 455.446 667.713 456.211 668.526C457.024 669.339 457.406 670.295 457.359 671.395C457.12 678.425 456.546 683.566 455.637 686.818C454.776 690.07 453.509 692.174 451.835 693.13C450.209 694.134 447.627 694.637 444.088 694.637C441.266 694.637 437.56 694.565 432.969 694.421C431.822 694.374 430.841 693.943 430.028 693.13C429.263 692.317 428.857 691.337 428.809 690.189V689.257C428.761 688.204 429.12 687.296 429.885 686.531C430.698 685.718 431.654 685.335 432.754 685.383C437.441 685.574 440.119 685.67 440.788 685.67C442.797 685.67 444.04 685.216 444.518 684.307C445.044 683.398 445.475 680.84 445.81 676.632C445.81 676.201 445.642 675.986 445.307 675.986H430.387C430.004 675.986 429.717 676.201 429.526 676.632C425.653 684.522 416.973 690.524 403.487 694.637C402.339 694.971 401.215 694.9 400.115 694.421C399.016 693.991 398.155 693.25 397.533 692.198L396.601 690.548C396.074 689.639 396.003 688.731 396.385 687.822C396.816 686.865 397.533 686.244 398.537 685.957C407.958 683.279 414.223 680.123 417.331 676.488C417.571 676.153 417.499 675.986 417.116 675.986H400.044ZM432.539 639.904V643.06C432.539 643.443 432.73 643.634 433.113 643.634H442.869C443.251 643.634 443.442 643.443 443.442 643.06V639.904C443.442 639.474 443.251 639.258 442.869 639.258H433.113C432.73 639.258 432.539 639.474 432.539 639.904ZM432.539 651.525V654.825C432.539 655.255 432.73 655.47 433.113 655.47H442.869C443.251 655.47 443.442 655.255 443.442 654.825V651.525C443.442 651.142 443.251 650.951 442.869 650.951H433.113C432.73 650.951 432.539 651.142 432.539 651.525ZM410.445 639.904V643.06C410.445 643.443 410.636 643.634 411.019 643.634H420.775C421.157 643.634 421.349 643.443 421.349 643.06V639.904C421.349 639.474 421.157 639.258 420.775 639.258H411.019C410.636 639.258 410.445 639.474 410.445 639.904ZM420.775 655.47C421.157 655.47 421.349 655.255 421.349 654.825V651.525C421.349 651.142 421.157 650.951 420.775 650.951H411.019C410.636 650.951 410.445 651.142 410.445 651.525V654.825C410.445 655.255 410.636 655.47 411.019 655.47H420.775ZM469.266 668.024C468.166 668.024 467.21 667.617 466.397 666.804C465.584 665.991 465.178 665.035 465.178 663.935V662.141C465.178 661.041 465.584 660.085 466.397 659.272C467.21 658.459 468.166 658.053 469.266 658.053H493.225C493.608 658.053 493.799 657.861 493.799 657.479V654.107C493.799 653.199 494.062 652.386 494.588 651.668C495.162 650.951 495.856 650.473 496.669 650.234C497.051 650.09 497.338 649.875 497.529 649.588C497.673 649.445 497.936 649.229 498.318 648.942C501.809 646.743 505.324 644.28 508.863 641.554C508.959 641.458 508.983 641.363 508.935 641.267C508.935 641.171 508.887 641.124 508.791 641.124H478.592C477.492 641.124 476.535 640.717 475.722 639.904C474.909 639.091 474.503 638.135 474.503 637.035V635.528C474.503 634.428 474.909 633.496 475.722 632.731C476.535 631.918 477.492 631.511 478.592 631.511H519.838C520.938 631.511 521.871 631.918 522.636 632.731C523.449 633.496 523.855 634.428 523.855 635.528V637.035C523.855 639.904 522.827 642.176 520.771 643.849C516.132 647.771 511.23 651.429 506.066 654.825C505.683 655.112 505.492 655.446 505.492 655.829V657.479C505.492 657.861 505.707 658.053 506.137 658.053H527.801C528.901 658.053 529.857 658.459 530.67 659.272C531.483 660.085 531.89 661.041 531.89 662.141V663.935C531.89 665.035 531.483 665.991 530.67 666.804C529.857 667.617 528.901 668.024 527.801 668.024H506.137C505.707 668.024 505.492 668.215 505.492 668.597V680.649C505.492 682.848 505.444 684.57 505.348 685.813C505.3 687.057 505.109 688.228 504.774 689.328C504.44 690.428 504.033 691.217 503.555 691.696C503.125 692.174 502.383 692.58 501.331 692.915C500.279 693.25 499.155 693.441 497.96 693.489C496.812 693.584 495.186 693.632 493.082 693.632C490.069 693.632 487.343 693.584 484.904 693.489C483.757 693.441 482.776 693.011 481.963 692.198C481.198 691.385 480.768 690.404 480.672 689.257L480.529 687.75C480.481 686.698 480.839 685.789 481.605 685.024C482.37 684.211 483.302 683.829 484.402 683.877C486.506 683.972 488.682 684.02 490.93 684.02C492.317 684.02 493.13 683.9 493.369 683.661C493.656 683.374 493.799 682.514 493.799 681.079V668.597C493.799 668.215 493.608 668.024 493.225 668.024H469.266ZM593.509 637.393C594.608 637.393 595.565 637.8 596.378 638.613C597.191 639.426 597.597 640.382 597.597 641.482V643.419C597.597 644.519 597.191 645.475 596.378 646.288C595.565 647.101 594.608 647.508 593.509 647.508H570.626C569.526 647.508 568.569 647.101 567.756 646.288C566.943 645.475 566.537 644.519 566.537 643.419V641.482C566.537 640.382 566.943 639.426 567.756 638.613C568.569 637.8 569.526 637.393 570.626 637.393H593.509ZM549.536 691.696C548.388 691.839 547.336 691.576 546.38 690.906C545.423 690.237 544.825 689.328 544.586 688.181C542.817 680.051 541.932 671.395 541.932 662.213C541.932 653.031 542.817 644.375 544.586 636.246C544.825 635.098 545.423 634.189 546.38 633.52C547.336 632.85 548.388 632.587 549.536 632.731L552.907 633.089C553.96 633.185 554.796 633.687 555.418 634.596C556.04 635.457 556.231 636.437 555.992 637.537C554.366 645.188 553.553 653.414 553.553 662.213C553.553 671.012 554.366 679.238 555.992 686.889C556.231 687.989 556.04 688.97 555.418 689.83C554.796 690.739 553.96 691.241 552.907 691.337L549.536 691.696ZM582.318 689.4C575.432 689.4 570.052 688.061 566.178 685.383C562.305 682.705 560.368 679.094 560.368 674.551C560.368 672.83 560.918 670.821 562.018 668.526C563.117 666.182 564.624 663.887 566.537 661.639C567.254 660.778 568.187 660.324 569.334 660.276C570.53 660.228 571.582 660.563 572.491 661.281L574.141 662.5C575.001 663.17 575.456 664.054 575.503 665.154C575.599 666.254 575.312 667.234 574.643 668.095C572.682 670.582 571.702 672.495 571.702 673.834C571.702 675.603 572.538 676.918 574.212 677.779C575.886 678.592 578.588 678.999 582.318 678.999C585.953 678.999 589.874 678.64 594.082 677.923C595.182 677.731 596.187 677.947 597.095 678.568C598.004 679.19 598.554 680.051 598.745 681.151L599.032 683.231C599.223 684.379 598.984 685.431 598.315 686.387C597.693 687.344 596.832 687.918 595.732 688.109C591.38 688.97 586.909 689.4 582.318 689.4ZM613.307 649.947C612.207 649.947 611.251 649.54 610.438 648.727C609.625 647.914 609.218 646.958 609.218 645.858V644.71C609.218 643.61 609.625 642.654 610.438 641.841C611.251 641.028 612.207 640.621 613.307 640.621H615.387C615.77 640.621 615.961 640.43 615.961 640.048V633.52C615.961 632.42 616.368 631.463 617.181 630.65C617.993 629.837 618.95 629.431 620.05 629.431H622.776C623.876 629.431 624.832 629.837 625.645 630.65C626.458 631.463 626.865 632.42 626.865 633.52V640.048C626.865 640.43 627.056 640.621 627.438 640.621H628.371C629.471 640.621 630.403 641.028 631.169 641.841C631.981 642.654 632.388 643.61 632.388 644.71V645.858C632.388 646.958 631.981 647.914 631.169 648.727C630.403 649.54 629.471 649.947 628.371 649.947H627.438C627.056 649.947 626.865 650.162 626.865 650.592V662.285C626.865 662.667 627.056 662.811 627.438 662.715C627.486 662.667 627.582 662.644 627.725 662.644C627.869 662.644 627.964 662.62 628.012 662.572C629.017 662.285 629.973 662.428 630.882 663.002C631.264 663.241 631.455 663.17 631.455 662.787C631.503 661.687 631.91 660.755 632.675 659.989C633.44 659.176 634.373 658.77 635.473 658.77H635.831C635.927 658.77 635.999 658.722 636.046 658.626C636.094 658.531 636.07 658.435 635.975 658.34L633.177 655.47C632.412 654.657 632.053 653.701 632.101 652.601C632.149 651.501 632.531 650.497 633.249 649.588C634.683 647.866 635.664 645.954 636.19 643.849C636.716 641.745 636.979 638.804 636.979 635.026C636.979 633.926 637.385 632.994 638.198 632.229C639.011 631.416 639.968 631.009 641.068 631.009H660.794C661.894 631.009 662.827 631.416 663.592 632.229C664.405 633.042 664.811 633.998 664.811 635.098V647.006C664.811 647.532 664.883 647.866 665.027 648.01C665.17 648.106 665.601 648.153 666.318 648.153C667.083 648.153 667.561 647.938 667.753 647.508C667.992 647.077 668.207 645.762 668.398 643.562C668.446 642.51 668.9 641.65 669.761 640.98C670.622 640.263 671.578 640 672.63 640.191C673.73 640.382 674.615 640.932 675.285 641.841C676.002 642.702 676.337 643.706 676.289 644.854C676.193 646.432 676.097 647.723 676.002 648.727C675.906 649.732 675.715 650.712 675.428 651.668C675.141 652.577 674.902 653.294 674.711 653.82C674.519 654.299 674.089 654.753 673.419 655.183C672.798 655.614 672.272 655.924 671.841 656.116C671.411 656.259 670.598 656.403 669.402 656.546C668.207 656.642 667.179 656.69 666.318 656.69C665.457 656.69 664.094 656.69 662.229 656.69C658.642 656.69 656.371 656.403 655.414 655.829C654.458 655.255 653.98 653.988 653.98 652.027V640.908C653.98 640.478 653.765 640.263 653.334 640.263H647.882C647.452 640.263 647.237 640.502 647.237 640.98C647.093 644.758 646.424 648.01 645.228 650.736C644.033 653.462 642.215 655.996 639.777 658.34C639.681 658.435 639.657 658.531 639.705 658.626C639.753 658.722 639.824 658.77 639.92 658.77H668.111C669.211 658.77 670.168 659.176 670.981 659.989C671.793 660.802 672.2 661.759 672.2 662.859V667.593C672.2 667.784 672.104 667.88 671.913 667.88C672.104 667.928 672.128 668.095 671.985 668.382C669.402 673.117 666.222 677.134 662.444 680.433C662.157 680.72 662.181 680.936 662.516 681.079C665.146 682.227 668.422 683.351 672.343 684.45C673.396 684.737 674.161 685.359 674.639 686.316C675.165 687.272 675.237 688.252 674.854 689.257L674.137 690.978C673.706 692.078 672.965 692.891 671.913 693.417C670.861 693.991 669.761 694.111 668.613 693.776C663.209 692.341 657.925 690.285 652.76 687.607C652.473 687.415 652.091 687.415 651.613 687.607C647.452 689.759 642.239 691.767 635.975 693.632C634.875 693.967 633.775 693.871 632.675 693.345C631.623 692.867 630.858 692.102 630.379 691.05L629.447 689.113C629.017 688.157 629.017 687.224 629.447 686.316C629.925 685.359 630.666 684.761 631.671 684.522C634.97 683.661 638.342 682.561 641.785 681.222C641.929 681.175 642 681.079 642 680.936C642.048 680.744 642.024 680.625 641.929 680.577C639.872 678.855 638.27 677.397 637.122 676.201C636.357 675.388 636.046 674.432 636.19 673.332C636.333 672.232 636.859 671.347 637.768 670.678L640.996 668.239C641.092 668.143 641.116 668.071 641.068 668.024C641.02 667.928 640.948 667.88 640.853 667.88H635.473C634.66 667.88 633.894 667.641 633.177 667.163C632.986 667.067 632.842 667.139 632.747 667.378C632.794 668.478 632.484 669.482 631.814 670.391C631.192 671.299 630.379 671.897 629.375 672.184C629.184 672.232 628.873 672.328 628.443 672.471C628.012 672.567 627.701 672.638 627.51 672.686C627.08 672.782 626.865 673.045 626.865 673.475V681.725C626.865 683.924 626.841 685.67 626.793 686.961C626.745 688.204 626.578 689.352 626.291 690.404C626.004 691.504 625.669 692.293 625.286 692.772C624.904 693.25 624.282 693.656 623.421 693.991C622.561 694.326 621.652 694.517 620.695 694.565C619.787 694.66 618.496 694.708 616.822 694.708C615.865 694.708 615.005 694.684 614.239 694.637C613.092 694.541 612.087 694.087 611.227 693.274C610.366 692.461 609.912 691.48 609.864 690.333V689.4C609.816 688.348 610.151 687.439 610.868 686.674C611.633 685.909 612.566 685.574 613.666 685.67C613.905 685.67 614.192 685.694 614.526 685.742C614.861 685.742 615.052 685.742 615.1 685.742C615.531 685.742 615.77 685.622 615.818 685.383C615.913 685.144 615.961 684.283 615.961 682.801V676.058C615.961 675.914 615.913 675.795 615.818 675.699C615.722 675.556 615.602 675.508 615.459 675.556C614.837 675.747 614.311 675.866 613.881 675.914C612.829 676.105 611.872 675.866 611.011 675.197C610.151 674.527 609.672 673.643 609.577 672.543L609.433 670.749C609.385 669.602 609.72 668.597 610.438 667.737C611.155 666.828 612.064 666.254 613.163 666.015L615.315 665.585C615.746 665.489 615.961 665.25 615.961 664.867V650.592C615.961 650.162 615.77 649.947 615.387 649.947H613.307ZM643.578 667.88C643.483 667.88 643.387 667.952 643.291 668.095C643.244 668.191 643.268 668.287 643.363 668.382C645.659 670.965 648.408 673.308 651.613 675.412C651.899 675.651 652.21 675.651 652.545 675.412C655.51 673.308 657.997 670.988 660.005 668.454C660.244 668.071 660.173 667.88 659.79 667.88H643.578ZM685.901 639.976C684.801 639.976 683.845 639.569 683.032 638.756C682.219 637.943 681.812 636.987 681.812 635.887V635.313C681.812 634.213 682.219 633.257 683.032 632.444C683.845 631.631 684.801 631.224 685.901 631.224H741.566C742.666 631.224 743.622 631.631 744.435 632.444C745.248 633.257 745.655 634.213 745.655 635.313V635.887C745.655 636.987 745.248 637.943 744.435 638.756C743.622 639.569 742.666 639.976 741.566 639.976H728.726C728.343 639.976 728.152 640.167 728.152 640.55V642.128C728.152 642.51 728.343 642.702 728.726 642.702H739.055C740.155 642.702 741.112 643.108 741.925 643.921C742.738 644.734 743.144 645.691 743.144 646.79V655.47C743.144 656.57 742.738 657.527 741.925 658.34C741.112 659.105 740.155 659.487 739.055 659.487H693.863H688.412C687.312 659.487 686.355 659.105 685.542 658.34C684.729 657.527 684.323 656.57 684.323 655.47V646.79C684.323 645.691 684.729 644.734 685.542 643.921C686.355 643.108 687.312 642.702 688.412 642.702H698.741C699.124 642.702 699.315 642.51 699.315 642.128V640.55C699.315 640.167 699.124 639.976 698.741 639.976H685.901ZM727.937 649.588V652.314C727.937 652.744 728.128 652.96 728.511 652.96H732.958C733.389 652.96 733.604 652.744 733.604 652.314V649.588C733.604 649.205 733.389 649.014 732.958 649.014H728.511C728.128 649.014 727.937 649.205 727.937 649.588ZM710.434 640.55V642.128C710.434 642.51 710.649 642.702 711.079 642.702H716.388C716.818 642.702 717.033 642.51 717.033 642.128V640.55C717.033 640.167 716.818 639.976 716.388 639.976H711.079C710.649 639.976 710.434 640.167 710.434 640.55ZM710.219 649.588V652.314C710.219 652.744 710.41 652.96 710.793 652.96H716.675C717.057 652.96 717.249 652.744 717.249 652.314V649.588C717.249 649.205 717.057 649.014 716.675 649.014H710.793C710.41 649.014 710.219 649.205 710.219 649.588ZM699.53 649.588C699.53 649.205 699.339 649.014 698.957 649.014H694.509C694.079 649.014 693.863 649.205 693.863 649.588V652.314C693.863 652.744 694.079 652.96 694.509 652.96H698.957C699.339 652.96 699.53 652.744 699.53 652.314V649.588ZM690.779 661.496H737.262C738.314 661.496 739.223 661.878 739.988 662.644C740.753 663.409 741.136 664.317 741.136 665.369C741.136 666.421 740.753 667.33 739.988 668.095C739.271 668.813 738.362 669.171 737.262 669.171H690.779C689.727 669.171 688.818 668.813 688.053 668.095C687.336 667.33 686.977 666.421 686.977 665.369C686.977 664.269 687.336 663.361 688.053 662.644C688.818 661.878 689.727 661.496 690.779 661.496ZM685.901 679.931C684.801 679.931 683.845 679.549 683.032 678.784C682.219 677.971 681.812 677.014 681.812 675.914V675.269C681.812 674.169 682.219 673.236 683.032 672.471C683.845 671.658 684.801 671.252 685.901 671.252H741.566C742.666 671.252 743.622 671.658 744.435 672.471C745.248 673.236 745.655 674.169 745.655 675.269V675.914C745.655 677.014 745.248 677.971 744.435 678.784C743.622 679.549 742.666 679.931 741.566 679.931H735.756C735.708 679.931 735.684 679.979 735.684 680.075C735.684 680.17 735.708 680.242 735.756 680.29C737.477 681.199 740.012 682.609 743.359 684.522C744.316 685.096 744.914 685.933 745.153 687.033C745.44 688.133 745.296 689.161 744.722 690.117L744.005 691.409C743.431 692.365 742.594 692.987 741.494 693.274C740.442 693.561 739.438 693.417 738.482 692.843C735.469 691.122 731.547 688.994 726.717 686.459C725.713 685.933 725.044 685.144 724.709 684.092C724.374 683.04 724.494 682.035 725.067 681.079L725.426 680.505C725.522 680.409 725.522 680.29 725.426 680.146C725.378 680.003 725.283 679.931 725.139 679.931H721.553C721.122 679.931 720.907 680.146 720.907 680.577V684.45C720.907 687.033 720.811 688.922 720.62 690.117C720.429 691.361 719.855 692.389 718.898 693.202C717.942 694.015 716.746 694.493 715.312 694.637C713.877 694.828 711.629 694.924 708.569 694.924C707.373 694.924 705.413 694.852 702.687 694.708C701.539 694.66 700.535 694.23 699.674 693.417C698.813 692.604 698.359 691.624 698.311 690.476L698.167 688.611C698.167 688.468 698.096 688.348 697.952 688.252C697.809 688.204 697.689 688.228 697.594 688.324C695.059 689.902 692.166 691.456 688.914 692.987C687.862 693.465 686.786 693.513 685.686 693.13C684.634 692.795 683.821 692.126 683.247 691.122L682.673 690.117C682.147 689.161 682.051 688.181 682.386 687.176C682.769 686.124 683.438 685.359 684.395 684.881C687.264 683.542 690.181 681.988 693.146 680.218C693.194 680.17 693.194 680.123 693.146 680.075C693.146 679.979 693.098 679.931 693.003 679.931H685.901ZM701.18 679.931C701.037 679.931 700.917 680.003 700.822 680.146C700.774 680.242 700.798 680.338 700.893 680.433L702.113 682.227C702.543 682.801 702.687 683.446 702.543 684.164C702.448 684.881 702.089 685.431 701.467 685.813C701.467 685.909 701.491 685.981 701.539 686.029C703.978 686.172 705.604 686.244 706.417 686.244C707.804 686.244 708.617 686.148 708.856 685.957C709.095 685.718 709.214 685 709.214 683.805V680.577C709.214 680.146 708.999 679.931 708.569 679.931H701.18ZM760.36 649.086C759.26 649.086 758.304 648.679 757.491 647.866C756.678 647.053 756.271 646.097 756.271 644.997V643.347C756.271 642.247 756.678 641.291 757.491 640.478C758.304 639.665 759.26 639.258 760.36 639.258C767.868 639.258 776.405 639.139 785.969 638.9C786.304 638.9 786.471 638.685 786.471 638.254C786.376 637.585 786.28 636.437 786.184 634.811C786.136 633.711 786.471 632.755 787.189 631.942C787.954 631.129 788.886 630.674 789.986 630.579L792.855 630.364C793.955 630.316 794.912 630.674 795.725 631.44C796.586 632.157 797.064 633.065 797.159 634.165C797.255 635.791 797.351 637.035 797.446 637.896C797.446 638.278 797.685 638.469 798.164 638.469C806.341 638.182 810.478 638.039 810.574 638.039C811.673 637.991 812.63 638.35 813.443 639.115C814.256 639.88 814.686 640.813 814.734 641.913L814.806 643.562C814.854 644.662 814.495 645.643 813.73 646.504C812.965 647.316 812.032 647.747 810.932 647.795L799.742 648.225C799.359 648.225 799.216 648.44 799.311 648.871C800.555 653.366 802.468 657.861 805.05 662.357C805.576 663.265 805.672 664.246 805.337 665.298C805.05 666.302 804.428 667.043 803.472 667.521L800.316 669.028C798.02 670.08 795.581 670.008 792.999 668.813C789.173 667.043 785.276 666.158 781.306 666.158C778.198 666.158 775.807 666.78 774.133 668.024C772.459 669.267 771.622 670.965 771.622 673.117C771.622 679.142 776.955 682.155 787.619 682.155C791.493 682.155 796.06 681.725 801.32 680.864C802.42 680.672 803.424 680.912 804.333 681.581C805.241 682.203 805.815 683.064 806.054 684.164L806.413 685.957C806.604 687.057 806.365 688.061 805.696 688.97C805.074 689.926 804.213 690.5 803.113 690.691C797.614 691.552 792.449 691.982 787.619 691.982C778.533 691.982 771.646 690.237 766.96 686.746C762.321 683.207 760.002 678.449 760.002 672.471C760.002 667.593 761.819 663.696 765.453 660.778C769.088 657.813 774.157 656.331 780.661 656.331C784.104 656.331 787.571 656.929 791.062 658.124L791.206 658.053V657.981C790.01 655.255 789.03 652.362 788.265 649.301C788.169 648.871 787.906 648.656 787.475 648.656C775.329 648.942 766.29 649.086 760.36 649.086ZM826.14 671.467C830.061 667.545 834.556 663.098 839.626 658.124C839.96 657.79 840.128 657.455 840.128 657.12V651.238C840.128 650.808 839.912 650.592 839.482 650.592H829.224C828.124 650.592 827.168 650.21 826.355 649.445C825.542 648.632 825.135 647.675 825.135 646.575V644.854C825.135 643.754 825.542 642.821 826.355 642.056C827.168 641.243 828.124 640.837 829.224 640.837H839.482C839.912 640.837 840.128 640.621 840.128 640.191V634.811C840.128 633.711 840.51 632.779 841.275 632.013C842.088 631.2 843.045 630.794 844.145 630.794H847.014C848.114 630.794 849.07 631.2 849.883 632.013C850.696 632.779 851.103 633.711 851.103 634.811V646.79C851.103 646.886 851.151 646.982 851.246 647.077C851.39 647.125 851.485 647.101 851.533 647.006C855.694 643.323 858.898 640.956 861.146 639.904C863.393 638.852 865.832 638.326 868.462 638.326C872.336 638.326 875.086 639.498 876.712 641.841C878.385 644.184 879.222 648.464 879.222 654.681C879.222 657.216 878.888 660.157 878.218 663.504C877.549 667.043 877.214 669.96 877.214 672.256C877.214 676.225 877.955 678.21 879.438 678.21C880.346 678.21 881.733 677.468 883.598 675.986C884.411 675.316 885.344 675.053 886.396 675.197C887.496 675.34 888.356 675.842 888.978 676.703L889.839 677.994C890.556 678.951 890.843 680.027 890.7 681.222C890.604 682.37 890.126 683.327 889.265 684.092C884.674 687.918 880.298 689.83 876.138 689.83C872.503 689.83 869.825 688.611 868.104 686.172C866.43 683.733 865.593 679.501 865.593 673.475C865.593 671.467 865.952 668.526 866.669 664.652C867.339 661.304 867.673 658.387 867.673 655.901C867.673 651.884 866.932 649.875 865.45 649.875C865.019 649.875 864.493 650.066 863.871 650.449C863.298 650.784 861.982 651.836 859.926 653.605C857.87 655.327 855.072 657.885 851.533 661.281C851.246 661.568 851.103 661.902 851.103 662.285V688.898C851.103 689.998 850.696 690.93 849.883 691.696C849.07 692.508 848.114 692.915 847.014 692.915H844.145C843.045 692.915 842.088 692.508 841.275 691.696C840.51 690.93 840.128 689.998 840.128 688.898V672.973C840.128 672.877 840.056 672.806 839.912 672.758C839.769 672.71 839.673 672.734 839.626 672.83C838.526 673.93 836.493 675.914 833.528 678.784C832.763 679.596 831.807 680.003 830.659 680.003C829.511 680.003 828.531 679.596 827.718 678.784L826.14 677.205C825.327 676.392 824.92 675.436 824.92 674.336C824.92 673.236 825.327 672.28 826.14 671.467ZM921.043 682.872C923.817 682.872 925.706 682.49 926.71 681.725C927.762 680.912 928.336 679.333 928.431 676.99C928.431 676.608 928.264 676.345 927.929 676.201C925.921 675.436 924.032 675.053 922.262 675.053C917.719 675.053 915.448 676.321 915.448 678.855C915.448 681.533 917.313 682.872 921.043 682.872ZM904.688 646.79C903.588 646.79 902.631 646.384 901.818 645.571C901.005 644.758 900.599 643.802 900.599 642.702V641.052C900.599 639.952 901.005 638.995 901.818 638.182C902.631 637.369 903.588 636.963 904.688 636.963H927.858C928.24 636.963 928.431 636.772 928.431 636.389V634.739C928.431 633.639 928.838 632.683 929.651 631.87C930.464 631.057 931.42 630.65 932.52 630.65H935.39C936.489 630.65 937.446 631.057 938.259 631.87C939.072 632.683 939.478 633.639 939.478 634.739V636.389C939.478 636.772 939.67 636.963 940.052 636.963H953.179C954.279 636.963 955.236 637.369 956.049 638.182C956.862 638.995 957.268 639.952 957.268 641.052V642.702C957.268 643.802 956.862 644.758 956.049 645.571C955.236 646.384 954.279 646.79 953.179 646.79H940.052C939.67 646.79 939.478 647.006 939.478 647.436V650.736C939.478 651.118 939.67 651.31 940.052 651.31H950.454C951.553 651.31 952.51 651.716 953.323 652.529C954.136 653.342 954.542 654.299 954.542 655.398V656.833C954.542 657.933 954.136 658.889 953.323 659.702C952.51 660.515 951.553 660.922 950.454 660.922H940.052C939.67 660.922 939.478 661.113 939.478 661.496V670.462C939.478 670.845 939.67 671.156 940.052 671.395C943.878 673.69 948.11 676.871 952.749 680.936C953.61 681.701 954.064 682.657 954.112 683.805C954.16 684.905 953.801 685.861 953.036 686.674L951.745 688.109C950.98 688.922 950.047 689.352 948.947 689.4C947.847 689.496 946.891 689.161 946.078 688.396C943.304 685.957 941.009 684.068 939.191 682.729C938.904 682.538 938.713 682.633 938.618 683.016C937.613 686.411 935.7 688.874 932.879 690.404C930.057 691.935 926.112 692.7 921.043 692.7C915.782 692.7 911.67 691.48 908.705 689.041C905.788 686.65 904.329 683.255 904.329 678.855C904.329 674.743 905.716 671.491 908.49 669.1C911.311 666.708 915.496 665.513 921.043 665.513C923.195 665.513 925.466 665.776 927.858 666.302C928.24 666.398 928.431 666.23 928.431 665.8V661.496C928.431 661.113 928.24 660.922 927.858 660.922H907.414C906.314 660.922 905.357 660.515 904.544 659.702C903.731 658.889 903.325 657.933 903.325 656.833V655.398C903.325 654.299 903.731 653.342 904.544 652.529C905.357 651.716 906.314 651.31 907.414 651.31H927.858C928.24 651.31 928.431 651.118 928.431 650.736V647.436C928.431 647.006 928.24 646.79 927.858 646.79H904.688ZM999.376 692.198C993.685 692.198 989.261 691.361 986.105 689.687C982.997 688.013 980.725 685.168 979.29 681.151C977.856 677.086 977.138 671.371 977.138 664.006C977.138 654.299 977.377 645.045 977.856 636.246C977.951 635.098 978.406 634.141 979.219 633.376C980.032 632.611 981.012 632.252 982.16 632.3L985.962 632.372C987.061 632.42 987.97 632.85 988.687 633.663C989.453 634.476 989.811 635.433 989.763 636.533C989.237 645.906 988.974 655.064 988.974 664.006C988.974 670.941 989.716 675.556 991.198 677.851C992.728 680.099 995.454 681.222 999.376 681.222C1003.15 681.222 1006.6 679.955 1009.71 677.421C1012.81 674.886 1015.68 670.797 1018.31 665.154C1018.79 664.102 1019.53 663.361 1020.54 662.93C1021.59 662.5 1022.64 662.476 1023.69 662.859L1026.49 663.935C1027.59 664.317 1028.36 665.035 1028.79 666.087C1029.26 667.091 1029.26 668.119 1028.79 669.171C1022.19 684.522 1012.38 692.198 999.376 692.198ZM1075.84 662.5C1074.74 662.596 1073.76 662.285 1072.9 661.568C1072.09 660.85 1071.64 659.942 1071.54 658.842L1071.4 657.407C1071.3 656.307 1071.61 655.327 1072.33 654.466C1073.09 653.557 1074.03 653.055 1075.13 652.96C1082.87 652.242 1090.17 651.86 1097 651.812C1098.1 651.812 1099.04 652.218 1099.8 653.031C1100.62 653.844 1101.02 654.801 1101.02 655.901V657.335C1101.02 658.435 1100.62 659.392 1099.8 660.205C1098.99 661.018 1098.03 661.424 1096.93 661.424C1089.81 661.472 1082.78 661.831 1075.84 662.5ZM1097.44 680.72C1098.54 680.577 1099.52 680.84 1100.38 681.509C1101.28 682.131 1101.81 682.992 1101.95 684.092L1102.17 685.813C1102.31 686.961 1102.05 687.965 1101.38 688.826C1100.71 689.735 1099.83 690.285 1098.73 690.476C1094.8 691.002 1091.1 691.265 1087.61 691.265C1080.77 691.265 1075.32 690.022 1071.25 687.535C1067.24 685 1065.23 681.772 1065.23 677.851C1065.23 675.125 1066.49 672.399 1069.03 669.673C1069.84 668.765 1070.87 668.215 1072.11 668.024C1073.4 667.832 1074.6 668.024 1075.7 668.597L1076.92 669.171C1077.78 669.602 1078.28 670.295 1078.43 671.252C1078.57 672.208 1078.31 673.045 1077.64 673.762C1076.73 674.766 1076.27 675.723 1076.27 676.632C1076.27 678.018 1077.25 679.166 1079.21 680.075C1081.22 680.983 1084.02 681.438 1087.61 681.438C1090.67 681.438 1093.94 681.199 1097.44 680.72ZM1045.64 690.835C1044.59 690.596 1043.8 689.998 1043.28 689.041C1042.75 688.133 1042.65 687.152 1042.99 686.1C1047.05 673.188 1050.38 660.539 1052.96 648.153C1053.01 648.01 1052.96 647.866 1052.82 647.723C1052.72 647.58 1052.6 647.508 1052.46 647.508H1047.94C1046.84 647.508 1045.88 647.101 1045.07 646.288C1044.26 645.475 1043.85 644.519 1043.85 643.419V641.769C1043.85 640.669 1044.26 639.713 1045.07 638.9C1045.88 638.087 1046.84 637.68 1047.94 637.68H1054.32C1054.75 637.68 1055.02 637.465 1055.11 637.035C1055.21 636.604 1055.33 636.007 1055.47 635.241C1055.61 634.476 1055.71 633.878 1055.76 633.448C1055.95 632.3 1056.5 631.392 1057.41 630.722C1058.32 630.005 1059.34 629.694 1060.49 629.79L1063.36 630.005C1064.46 630.1 1065.35 630.603 1066.02 631.511C1066.69 632.372 1066.92 633.328 1066.73 634.381C1066.69 634.668 1066.61 635.122 1066.52 635.744C1066.42 636.365 1066.35 636.82 1066.3 637.106C1066.21 637.489 1066.37 637.68 1066.81 637.68H1086.68C1087.78 637.68 1088.71 638.087 1089.47 638.9C1090.29 639.713 1090.69 640.669 1090.69 641.769V643.419C1090.69 644.519 1090.29 645.475 1089.47 646.288C1088.71 647.101 1087.78 647.508 1086.68 647.508H1064.94C1064.56 647.508 1064.32 647.699 1064.22 648.082C1061.4 662.38 1057.98 675.866 1053.96 688.539C1053.63 689.639 1052.94 690.476 1051.88 691.05C1050.88 691.624 1049.83 691.791 1048.73 691.552L1045.64 690.835Z" fill="#1E1E1E"/>
<g clip-path="url(#clip0_603_13439)">
<path d="M323.469 697.903C326.59 699.208 329.912 700.218 333.49 700.828C323.4 679.881 330.526 633.969 292.159 617.357C262.371 618.145 274.122 724.144 321.634 710.79C318.983 709.743 317.021 707.945 315.574 705.673C319.91 706.498 324.859 706.362 330.526 704.774C327.215 703.469 324.957 701.018 323.469 697.903Z" fill="#2E2319"/>
<path d="M214.171 617.357C179.851 655.512 189.465 679.881 179.376 700.828C182.994 700.206 186.328 699.177 189.425 697.848C187.931 700.994 185.668 703.463 182.34 704.774C188.006 706.362 192.956 706.498 197.286 705.673C195.844 707.945 193.876 709.743 191.231 710.79C238.743 724.144 243.855 618.145 214.171 617.357Z" fill="#2E2319"/>
<path d="M190.682 657.872C198.869 658.872 204.775 686.528 199.634 693.824C198.912 694.848 194.691 696.473 191.567 690.032C189.833 686.468 184.837 683.488 183.289 676.131C181.303 666.704 182.543 656.879 190.682 657.872Z" fill="#FFD8B4"/>
<path d="M190.905 663.176C193.042 663.85 195.372 667.137 196.636 672.592C189.171 670.972 191.037 683.518 197.521 683.753C197.467 685.017 197.383 686.317 197.226 687.678C194.101 683.103 190.929 684.939 187.781 678.124C184.945 671.984 185.619 661.503 190.905 663.176Z" fill="#DEB38A"/>
<path d="M322.178 657.873C313.996 658.872 308.084 686.528 313.238 693.824C313.954 694.848 318.174 696.473 321.305 690.032C323.039 686.468 328.029 683.488 329.576 676.131C331.563 666.704 330.323 656.873 322.178 657.873Z" fill="#FFD8B4"/>
<path d="M316.237 672.574C317.502 667.132 319.826 663.85 321.957 663.176C327.248 661.497 327.923 671.984 325.087 678.124C321.945 684.939 318.766 683.103 315.642 687.678C315.485 686.311 315.401 685.011 315.347 683.747C321.764 683.44 323.606 671.051 316.237 672.574Z" fill="#DEB38A"/>
<path d="M256.44 586.805C211.711 586.805 190.159 620.644 192.862 667.697C193.404 677.161 199.267 698.791 204.812 709.868C214.6 729.421 240.15 744.002 256.434 744.002C272.706 744.002 298.286 729.421 308.063 709.868C313.613 698.791 319.477 677.161 320.013 667.697C322.722 620.644 301.17 586.805 256.44 586.805Z" fill="#FFD8B4"/>
<path d="M266.861 694.138C265.759 693.367 263.164 694.553 256.434 694.553C249.703 694.553 247.109 693.367 246.001 694.138C244.683 695.071 246.79 699.273 256.434 699.273C266.078 699.273 268.191 695.071 266.861 694.138Z" fill="#DEB38A"/>
<path d="M256.432 709.133C246.348 706.165 231.4 710.542 231.4 710.542C237.089 716.743 241.261 724.78 256.432 724.78C273.806 724.78 276.768 715.647 281.469 710.542C281.469 710.542 266.51 706.153 256.432 709.133Z" fill="#DEB38A"/>
<path d="M235.152 711.59C245.73 720.463 267.077 720.517 277.714 711.59C266.445 712.071 246.506 712.077 235.152 711.59Z" fill="white"/>
<path d="M246.788 671.117C247.155 673.988 245.211 677.39 239.817 679.936C236.391 681.561 229.263 683.47 219.902 679.521C215.706 677.751 211.619 672.236 211.986 669.19C217.061 659.624 242.038 658.222 246.788 671.117Z" fill="white"/>
<path d="M229.843 661.111C235.261 661.111 239.656 665.506 239.656 670.924C239.656 676.342 235.261 680.736 229.843 680.736C224.419 680.736 220.03 676.342 220.03 670.924C220.03 665.506 224.419 661.111 229.843 661.111Z" fill="url(#paint1_linear_603_13439)"/>
<path d="M224.936 670.743C224.936 677.534 234.748 677.534 234.748 670.743C234.748 664.44 224.936 664.44 224.936 670.743Z" fill="#1A1626"/>
<path d="M223.449 667.998C223.449 670.84 227.561 670.84 227.561 667.998C227.561 665.355 223.449 665.355 223.449 667.998Z" fill="#AB968C"/>
<path d="M246.838 671.496C242.852 658.685 215.684 660.575 211.987 669.19C213.354 658.167 243.442 655.253 246.838 671.496Z" fill="#DEB38A"/>
<path d="M266.083 671.117C265.71 673.988 267.661 677.39 273.055 679.936C276.474 681.561 283.602 683.47 292.969 679.521C297.165 677.751 301.253 672.236 300.886 669.19C295.816 659.624 270.827 658.222 266.083 671.117Z" fill="white"/>
<path d="M282.807 661.111C288.231 661.111 292.626 665.506 292.626 670.924C292.626 676.342 288.231 680.736 282.807 680.736C277.389 680.736 272.994 676.342 272.994 670.924C272.994 665.506 277.389 661.111 282.807 661.111Z" fill="url(#paint2_linear_603_13439)"/>
<path d="M277.906 670.743C277.906 677.534 287.719 677.534 287.719 670.743C287.719 664.44 277.906 664.44 277.906 670.743Z" fill="#1A1626"/>
<path d="M276.413 667.998C276.413 670.84 280.525 670.84 280.525 667.998C280.525 665.355 276.413 665.355 276.413 667.998Z" fill="#AB968C"/>
<path d="M266.034 671.496C270.013 658.691 297.164 660.527 300.885 669.19C299.506 658.167 269.43 655.253 266.034 671.496Z" fill="#DEB38A"/>
<path d="M301.519 655.826C293.079 650.498 276.078 648.945 269.42 651.678C267.993 652.196 268.462 656.656 269.648 656.325C278.823 653.58 293.085 654.616 300.983 659.065C302.043 659.649 302.807 656.572 301.519 655.826Z" fill="#826D58"/>
<path d="M211.341 655.826C219.787 650.498 236.782 648.945 243.446 651.678C244.867 652.196 244.404 656.656 243.217 656.325C234.025 653.586 219.787 654.616 211.871 659.065C210.823 659.649 210.059 656.572 211.341 655.826Z" fill="#826D58"/>
<path d="M302.836 598.863C301.554 590.333 287.557 577.558 255.867 577.558C196.696 577.558 164.145 634.81 196.587 686.841C195.275 652.316 218.302 627.922 249.119 617.219C240.047 622.92 231.359 630.527 223.612 641.562C238.481 633.332 256.277 629.397 271.357 625.575C267.576 631.137 263.248 636.973 257.035 642.915C271.809 640.995 289.983 635.134 299.092 624.292C314.317 642.425 319.945 662.875 316.285 686.829C342.268 643.033 324.244 603.24 302.836 598.863Z" fill="#403429"/>
<path d="M261.193 612.122C232.611 617.357 192.635 642.08 196.587 686.841C201.145 654.745 208.365 637.821 261.193 612.122Z" fill="#2E2319"/>
<path d="M257.034 577.558C278.843 577.558 301.061 585.154 302.835 598.863C250.653 607.176 210.669 618.481 192.006 661.729C187.466 630.434 209.17 612.122 209.17 612.122C209.17 612.122 192.909 624.996 186.536 641.654C190.306 607.88 206.923 577.558 257.034 577.558Z" fill="#4F4236"/>
<path d="M195.965 617.483C212.251 573.917 266.969 580.767 266.969 580.767C266.969 580.767 219.337 588.814 195.965 617.483Z" fill="#635547"/>
<path d="M199.77 638.934C221.631 576.382 289.585 591.496 289.585 591.496C289.585 591.496 227.699 597.092 199.77 638.934Z" fill="#635547"/>
<path d="M245.932 630.434C263.686 619.415 290.072 600.516 290.072 600.516C290.072 600.516 272.371 625.693 245.932 630.434Z" fill="#635547"/>
<path d="M302.837 598.863C302.837 598.863 334.359 608.515 324.253 666.005C324.032 661.597 323.512 657.517 322.817 653.675C322.882 660.502 322.006 667.994 319.75 676.183C316.794 638.171 297.816 619.615 297.816 619.615L302.837 598.863Z" fill="#4F4236"/>
<path d="M299.975 621.884C299.975 621.884 325.207 644.488 316.284 686.829C320.238 647.089 299.091 624.292 299.091 624.292L299.975 621.884Z" fill="#2E2319"/>
<path d="M321.041 653.157C318.234 630.692 298.234 607.177 298.234 607.177C298.234 607.177 326.142 610.968 321.041 653.157Z" fill="#635547"/>
<path d="M302.836 598.863C310.642 637.116 272.888 642.915 257.035 642.915C274.607 626.818 278.588 605.189 302.836 598.863Z" fill="#403429"/>
<path d="M303.441 603.907C302.69 625.816 291.638 639.553 257.035 642.915C284.1 644.885 307.599 630.221 303.441 603.907Z" fill="#2E2319"/>
<path d="M302.836 598.863C287.642 632.2 259.965 622.92 223.611 641.562C250.173 601.062 302.836 598.863 302.836 598.863Z" fill="#403429"/>
<path d="M282.761 619.444C261.226 628.996 249.386 625.903 223.611 641.562C251.408 629.566 266.349 631.708 282.761 619.444Z" fill="#2E2319"/>
<path d="M302.837 598.863C287.721 626.564 250.013 621.435 232.611 632.737C258.361 596.327 302.837 598.863 302.837 598.863Z" fill="#4F4236"/>
<path d="M295.132 597.676C278.919 614.593 246.832 624.458 246.832 624.458C246.832 624.458 270.508 599.329 295.132 597.676Z" fill="#635547"/>
<path d="M302.836 598.864C302.836 598.864 303.886 632.087 257.035 642.915C272.994 623.5 279.935 609.299 302.836 598.864Z" fill="#4F4236"/>
<path d="M271.142 632.686C283.602 622.251 295.778 602.281 295.778 602.281C295.778 602.281 295.661 625.568 271.142 632.686Z" fill="#635547"/>
</g>
<defs>
<filter id="filter0_d_603_13439" x="5.36668" y="427.704" width="1273.27" height="484.2" filterUnits="userSpaceOnUse" color-interpolation-filters="sRGB">
<feFlood flood-opacity="0" result="BackgroundImageFix"/>
<feColorMatrix in="SourceAlpha" type="matrix" values="0 0 0 0 0 0 0 0 0 0 0 0 0 0 0 0 0 0 127 0" result="hardAlpha"/>
<feOffset dy="8.96667"/>
<feGaussianBlur stdDeviation="49.3167"/>
<feComposite in2="hardAlpha" operator="out"/>
<feColorMatrix type="matrix" values="0 0 0 0 0.19967 0 0 0 0 0.216601 0 0 0 0 0.241997 0 0 0 0.5 0"/>
<feBlend mode="normal" in2="BackgroundImageFix" result="effect1_dropShadow_603_13439"/>
<feBlend mode="normal" in="SourceGraphic" in2="effect1_dropShadow_603_13439" result="shape"/>
</filter>
<linearGradient id="paint0_linear_603_13439" x1="591.611" y1="1264.48" x2="693.98" y2="1134.84" gradientUnits="userSpaceOnUse">
<stop stop-color="#EEDA00"/>
<stop offset="0.727447" stop-color="#FDF505"/>
<stop offset="1" stop-color="#FFFC79"/>
</linearGradient>
<linearGradient id="paint1_linear_603_13439" x1="229.842" y1="680.737" x2="229.842" y2="661.112" gradientUnits="userSpaceOnUse">
<stop stop-color="#A6694A"/>
<stop offset="1" stop-color="#4F2A1E"/>
</linearGradient>
<linearGradient id="paint2_linear_603_13439" x1="282.809" y1="680.737" x2="282.809" y2="661.112" gradientUnits="userSpaceOnUse">
<stop stop-color="#A6694A"/>
<stop offset="1" stop-color="#4F2A1E"/>
</linearGradient>
<clipPath id="clip0_603_13439">
<rect width="197.267" height="197.267" fill="white" transform="translate(157.8 562.204)"/>
</clipPath>
</defs>
</svg>
