<svg width="832" height="572" viewBox="0 0 832 572" fill="none" xmlns="http://www.w3.org/2000/svg">
<g clip-path="url(#clip0_350_1099)">
<g filter="url(#filter0_d_350_1099)">
<path d="M206.893 54.6809C209.144 54.6809 211.101 55.5128 212.765 57.1767C214.429 58.8405 215.261 60.7979 215.261 63.049V142.473C215.261 144.724 214.429 146.681 212.765 148.345C211.101 150.009 209.144 150.841 206.893 150.841H197.35C195.588 150.841 194.071 150.254 192.799 149.079C191.624 147.807 191.037 146.29 191.037 144.528C191.037 143.843 190.695 143.5 190.01 143.5H185.752C184.871 143.5 184.431 143.941 184.431 144.822V166.696C184.431 168.947 183.599 170.905 181.935 172.569C180.271 174.232 178.314 175.064 176.063 175.064H166.373C164.122 175.064 162.165 174.232 160.501 172.569C158.837 170.905 158.005 168.947 158.005 166.696V144.822C158.005 143.941 157.565 143.5 156.684 143.5H152.426C151.741 143.5 151.399 143.843 151.399 144.528C151.399 146.29 150.763 147.807 149.49 149.079C148.316 150.254 146.848 150.841 145.086 150.841H136.277C134.026 150.841 132.069 150.009 130.405 148.345C128.741 146.681 127.909 144.724 127.909 142.473V134.398C127.909 134.202 127.811 134.056 127.616 133.958C127.42 133.762 127.224 133.762 127.029 133.958L126.735 134.251C125.169 135.719 123.309 136.356 121.156 136.16C119.003 135.866 117.29 134.79 116.018 132.93C115.92 132.734 115.235 131.756 113.963 129.994C113.865 129.798 113.718 129.749 113.522 129.847C113.326 129.847 113.228 129.945 113.228 130.141V166.696C113.228 168.947 112.397 170.905 110.733 172.569C109.069 174.232 107.111 175.064 104.86 175.064H96.6391C94.388 175.064 92.4305 174.232 90.7667 172.569C89.1029 170.905 88.2709 168.947 88.2709 166.696V137.628C88.2709 137.432 88.1731 137.285 87.9773 137.188C87.7816 137.09 87.5858 137.139 87.3901 137.334C86.0199 138.509 84.8943 139.439 84.0135 140.124C82.5454 141.396 80.8816 141.641 79.022 140.858C77.2603 140.075 76.2326 138.705 75.939 136.747L74.1773 125.296C73.3943 120.109 75.2049 115.656 79.6092 111.936C88.4178 104.498 94.8773 95.5917 98.988 85.2172C99.3795 84.4342 99.1348 84.0427 98.254 84.0427H84.8943C82.6433 84.0427 80.6858 83.2108 79.022 81.547C77.3581 79.8831 76.5262 77.9257 76.5262 75.6746V68.9214C76.5262 66.6703 77.3581 64.7128 79.022 63.049C80.6858 61.3852 82.6433 60.5533 84.8943 60.5533H86.9497C87.8305 60.5533 88.2709 60.1128 88.2709 59.232V48.3681C88.2709 46.1171 89.1029 44.1596 90.7667 42.4958C92.4305 40.8319 94.388 40 96.6391 40H104.86C107.111 40 109.069 40.8319 110.733 42.4958C112.397 44.1596 113.228 46.1171 113.228 48.3681V59.232C113.228 60.1128 113.669 60.5533 114.55 60.5533H115.871C118.122 60.5533 120.08 61.3852 121.743 63.049C123.407 64.7128 124.239 66.6703 124.239 68.9214V75.6746C124.239 81.8406 123.309 87.2236 121.45 91.8236C120.863 93.2917 119.884 95.4938 118.514 98.43C118.22 99.213 118.318 99.947 118.807 100.632C122.526 105.33 125.267 108.902 127.029 111.349C127.224 111.545 127.42 111.643 127.616 111.643C127.811 111.545 127.909 111.398 127.909 111.202V63.049C127.909 60.7979 128.741 58.8405 130.405 57.1767C132.069 55.5128 134.026 54.6809 136.277 54.6809H156.684C157.565 54.6809 158.005 54.2405 158.005 53.3596V48.3681C158.005 46.1171 158.837 44.1596 160.501 42.4958C162.165 40.8319 164.122 40 166.373 40H176.063C178.314 40 180.271 40.8319 181.935 42.4958C183.599 44.1596 184.431 46.1171 184.431 48.3681V53.3596C184.431 54.2405 184.871 54.6809 185.752 54.6809H206.893ZM158.005 120.892V111.056C158.005 110.175 157.565 109.734 156.684 109.734H152.573C151.79 109.734 151.399 110.175 151.399 111.056V120.892C151.399 121.773 151.79 122.213 152.573 122.213H156.684C157.565 122.213 158.005 121.773 158.005 120.892ZM158.005 87.1257V77.8767C158.005 77.0937 157.565 76.7022 156.684 76.7022H152.573C151.79 76.7022 151.399 77.0937 151.399 77.8767V87.1257C151.399 88.0065 151.79 88.447 152.573 88.447H156.684C157.565 88.447 158.005 88.0065 158.005 87.1257ZM191.037 120.892V111.056C191.037 110.175 190.597 109.734 189.716 109.734H185.752C184.871 109.734 184.431 110.175 184.431 111.056V120.892C184.431 121.773 184.871 122.213 185.752 122.213H189.716C190.597 122.213 191.037 121.773 191.037 120.892ZM191.037 87.1257V77.8767C191.037 77.0937 190.597 76.7022 189.716 76.7022H185.752C184.871 76.7022 184.431 77.0937 184.431 77.8767V87.1257C184.431 88.0065 184.871 88.447 185.752 88.447H189.716C190.597 88.447 191.037 88.0065 191.037 87.1257Z" fill="#FEF806"/>
</g>
<g filter="url(#filter1_d_350_1099)">
<path d="M295.617 123.554L279.595 153.865L263.573 123.554L233.262 107.532L263.573 91.51L279.595 61.1987L295.617 91.51L325.928 107.532L295.617 123.554Z" fill="#FEF806"/>
</g>
<g filter="url(#filter2_d_350_1099)">
<path d="M462.752 91.4362C465.003 91.4362 466.96 92.2681 468.624 93.9319C470.288 95.5957 471.12 97.5532 471.12 99.8043V108.026C471.12 110.277 470.288 112.234 468.624 113.898C466.96 115.562 465.003 116.394 462.752 116.394H412.249C411.368 116.394 410.928 116.834 410.928 117.715V127.404C410.928 133.179 411.711 136.849 413.277 138.415C414.843 139.883 418.464 140.617 424.141 140.617C432.851 140.617 441.611 140.324 450.42 139.736C452.671 139.638 454.628 140.372 456.292 141.938C457.956 143.407 458.837 145.266 458.934 147.517L459.081 156.473C459.179 158.724 458.445 160.73 456.879 162.492C455.313 164.351 453.405 165.33 451.154 165.428C440.192 166.015 429.23 166.309 418.268 166.309C403.685 166.309 393.653 163.666 388.173 158.381C382.79 152.998 380.098 142.917 380.098 128.138V117.715C380.098 116.834 379.658 116.394 378.777 116.394H350.296C348.045 116.394 346.087 115.562 344.423 113.898C342.76 112.234 341.928 110.277 341.928 108.026V99.8043C341.928 97.5532 342.76 95.5957 344.423 93.9319C346.087 92.2681 348.045 91.4362 350.296 91.4362H378.777C379.658 91.4362 380.098 90.9957 380.098 90.1149V74.4063C380.098 73.5255 379.658 73.085 378.777 73.085H363.509C361.258 73.085 359.3 72.2531 357.636 70.5893C355.972 68.9254 355.141 66.968 355.141 64.7169V55.7616C355.141 53.5105 355.972 51.553 357.636 49.8892C359.3 48.2254 361.258 47.3934 363.509 47.3934H449.539C451.79 47.3934 453.747 48.2254 455.411 49.8892C457.075 51.553 457.907 53.5105 457.907 55.7616V64.7169C457.907 66.968 457.075 68.9254 455.411 70.5893C453.747 72.2531 451.79 73.085 449.539 73.085H412.249C411.368 73.085 410.928 73.5255 410.928 74.4063V90.1149C410.928 90.9957 411.368 91.4362 412.249 91.4362H462.752Z" fill="#FEF806"/>
<path d="M606.624 92.1702C608.875 92.1702 610.833 93.0021 612.497 94.666C614.161 96.3298 614.992 98.2872 614.992 100.538V111.696C614.992 113.947 614.161 115.904 612.497 117.568C610.833 119.232 608.875 120.064 606.624 120.064H500.041C497.79 120.064 495.832 119.232 494.169 117.568C492.505 115.904 491.673 113.947 491.673 111.696V100.538C491.673 98.2872 492.505 96.3298 494.169 94.666C495.832 93.0021 497.79 92.1702 500.041 92.1702H606.624Z" fill="#FEF806"/>
<path d="M711.74 52.6786C713.795 51.602 715.948 51.4062 718.199 52.0913C720.45 52.7765 722.114 54.1467 723.191 56.202C725.05 59.4318 727.008 63.151 729.063 67.3595C730.14 69.4148 730.286 71.5191 729.503 73.6723C728.818 75.8255 727.448 77.3914 725.393 78.3702L723.925 79.1042C721.869 80.1808 719.716 80.3765 717.465 79.6914C715.312 78.9085 713.697 77.4893 712.62 75.434C711.935 74.1616 710.957 72.302 709.684 69.8552C708.412 67.4084 707.433 65.5978 706.748 64.4233C705.671 62.4658 705.427 60.4105 706.014 58.2573C706.699 56.0062 708.069 54.3914 710.125 53.4126L711.74 52.6786ZM737.431 46.8062C739.486 45.7296 741.64 45.5339 743.891 46.219C746.142 46.9041 747.806 48.2743 748.882 50.3296C751.623 55.419 753.678 59.285 755.048 61.9275C756.125 63.9829 756.272 66.0871 755.489 68.2403C754.803 70.3935 753.433 71.9595 751.378 72.9382L749.469 73.9659C747.414 74.9446 745.261 75.0914 743.01 74.4063C740.857 73.6233 739.242 72.2042 738.165 70.1489L731.999 58.6977C730.923 56.7403 730.727 54.685 731.412 52.5318C732.097 50.3786 733.467 48.7637 735.523 47.6871L737.431 46.8062ZM752.552 106.264C754.706 106.949 756.272 108.368 757.25 110.521C758.327 112.577 758.474 114.73 757.691 116.981L754.167 127.551C753.482 129.704 752.112 131.319 750.057 132.396C748.001 133.375 745.848 133.472 743.597 132.689C723.925 125.838 703.91 119.77 683.552 114.485C683.259 114.387 683.014 114.485 682.818 114.779C682.622 114.975 682.525 115.219 682.525 115.513V160.877C682.525 163.128 681.693 165.085 680.029 166.749C678.365 168.413 676.408 169.245 674.156 169.245H661.531C659.28 169.245 657.322 168.413 655.659 166.749C653.995 165.085 653.163 163.128 653.163 160.877V54.2935C653.163 52.0424 653.995 50.085 655.659 48.4211C657.322 46.7573 659.28 45.9254 661.531 45.9254H674.156C676.408 45.9254 678.365 46.7573 680.029 48.4211C681.693 50.085 682.525 52.0424 682.525 54.2935V84.2425C682.525 85.1234 682.916 85.6617 683.699 85.8574C708.069 91.9255 731.02 98.7277 752.552 106.264Z" fill="#FEF806"/>
</g>
<path d="M165.336 246.448C164.104 247.008 162.872 247.064 161.64 246.616C160.408 246.168 159.484 245.356 158.868 244.18C158.588 243.676 157.692 242.024 156.18 239.224C155.564 238.104 155.452 236.928 155.844 235.696C156.236 234.464 157.02 233.54 158.196 232.924H158.28C159.456 232.308 160.688 232.196 161.976 232.588C163.264 232.98 164.216 233.764 164.832 234.94C165.448 236.06 166.372 237.796 167.604 240.148C168.164 241.324 168.22 242.528 167.772 243.76C167.324 244.992 166.512 245.888 165.336 246.448ZM171.72 229.984C172.896 229.368 174.128 229.256 175.416 229.648C176.704 229.984 177.656 230.74 178.272 231.916C180.12 235.444 181.072 237.264 181.128 237.376C181.744 238.552 181.828 239.756 181.38 240.988C180.988 242.22 180.204 243.116 179.028 243.676L178.776 243.844C177.6 244.404 176.368 244.488 175.08 244.096C173.848 243.648 172.924 242.836 172.308 241.66C172.028 241.1 171.58 240.232 170.964 239.056C170.348 237.88 169.872 237.012 169.536 236.452C168.92 235.332 168.78 234.128 169.116 232.84C169.508 231.552 170.292 230.628 171.468 230.068L171.72 229.984ZM137.952 241.24C141.088 241.24 143.384 241.24 144.84 241.24C146.296 241.24 147.976 241.436 149.88 241.828C151.84 242.164 153.128 242.444 153.744 242.668C154.416 242.892 155.228 243.62 156.18 244.852C157.132 246.084 157.692 247.148 157.86 248.044C158.028 248.94 158.252 250.648 158.532 253.168C158.812 255.632 158.952 257.844 158.952 259.804C158.952 261.764 158.952 264.816 158.952 268.96C158.952 280.104 157.58 288.084 154.836 292.9C152.148 297.66 148.2 300.04 142.992 300.04C139.24 300.04 134.62 299.368 129.132 298.024C127.844 297.688 126.864 296.932 126.192 295.756C125.52 294.58 125.352 293.348 125.688 292.06L126.696 287.86C127.032 286.628 127.76 285.676 128.88 285.004C130 284.332 131.204 284.136 132.492 284.416C136.076 285.312 138.456 285.76 139.632 285.76C141.872 285.76 142.992 279.32 142.992 266.44C142.992 260.616 142.768 257.2 142.32 256.192C141.928 255.184 140.472 254.68 137.952 254.68H131.316C130.812 254.68 130.504 254.904 130.392 255.352C127.368 268.904 123.42 282.568 118.548 296.344C118.1 297.632 117.26 298.556 116.028 299.116C114.852 299.732 113.648 299.844 112.416 299.452L108.468 298.108C107.236 297.716 106.312 296.932 105.696 295.756C105.136 294.636 105.08 293.432 105.528 292.144C109.56 280.16 113.004 267.924 115.86 255.436C115.972 254.932 115.804 254.68 115.356 254.68H110.82C109.532 254.68 108.412 254.204 107.46 253.252C106.508 252.3 106.032 251.18 106.032 249.892V246.028C106.032 244.74 106.508 243.62 107.46 242.668C108.412 241.716 109.532 241.24 110.82 241.24H118.128C118.576 241.24 118.856 241.016 118.968 240.568C119.36 238.608 119.976 235.08 120.816 229.984C121.04 228.64 121.684 227.548 122.748 226.708C123.812 225.812 125.016 225.42 126.36 225.532L130.644 225.868C131.932 225.98 132.996 226.54 133.836 227.548C134.676 228.5 135.012 229.592 134.844 230.824C134.396 234.184 133.892 237.432 133.332 240.568C133.22 241.016 133.416 241.24 133.92 241.24H137.952ZM177.18 254.26C179.14 260.868 181.1 268.148 183.06 276.1C183.34 277.332 183.144 278.508 182.472 279.628C181.8 280.748 180.82 281.448 179.532 281.728L174.072 282.904C172.784 283.184 171.58 282.988 170.46 282.316C169.396 281.588 168.696 280.552 168.36 279.208C166.456 271.48 164.58 264.508 162.732 258.292C162.34 257.06 162.452 255.884 163.068 254.764C163.74 253.588 164.72 252.804 166.008 252.412L171.216 250.984C172.448 250.592 173.652 250.732 174.828 251.404C176.004 252.02 176.788 252.972 177.18 254.26ZM266.22 236.704C268.908 242.192 271.736 248.268 274.704 254.932C275.264 256.164 275.292 257.396 274.788 258.628C274.34 259.804 273.5 260.644 272.268 261.148L267.984 262.912C266.752 263.416 265.52 263.444 264.288 262.996C263.112 262.492 262.244 261.624 261.684 260.392C261.628 260.336 261.6 260.28 261.6 260.224C261.6 260.112 261.572 260.028 261.516 259.972C261.348 259.524 260.984 259.356 260.424 259.468C250.008 261.092 239.788 262.212 229.764 262.828C228.812 262.884 227.86 262.632 226.908 262.072C226.572 261.848 226.348 261.932 226.236 262.324C225.396 268.036 224.052 273.3 222.204 278.116C222.036 278.508 222.036 278.928 222.204 279.376C223.38 281.56 224.36 283.492 225.144 285.172C225.704 286.46 225.844 287.804 225.564 289.204C225.284 290.604 224.612 291.78 223.548 292.732L220.524 295.588C219.684 296.316 218.704 296.54 217.584 296.26C216.464 296.036 215.68 295.392 215.232 294.328C215.176 294.216 215.064 293.964 214.896 293.572C214.784 293.18 214.672 292.9 214.56 292.732C214.504 292.62 214.392 292.564 214.224 292.564C214.112 292.564 214 292.62 213.888 292.732C211.368 295.98 208.456 299.06 205.152 301.972C204.256 302.812 203.164 303.12 201.876 302.896C200.644 302.728 199.692 302.112 199.02 301.048L196.752 297.352C196.08 296.176 195.856 294.944 196.08 293.656C196.304 292.312 196.92 291.164 197.928 290.212C201.512 286.964 204.536 283.38 207 279.46C207.224 279.068 207.196 278.648 206.916 278.2C206.86 278.088 206.748 277.92 206.58 277.696C206.412 277.416 206.3 277.22 206.244 277.108C206.132 276.996 205.992 276.968 205.824 277.024C205.712 277.08 205.628 277.164 205.572 277.276C205.516 277.332 205.46 277.416 205.404 277.528C205.348 277.64 205.32 277.752 205.32 277.864C204.928 278.872 204.2 279.488 203.136 279.712C202.072 279.88 201.204 279.544 200.532 278.704L197.34 274.756C195.38 272.292 194.82 269.52 195.66 266.44C197.004 261.344 198.096 256.22 198.936 251.068C199.048 250.676 198.88 250.48 198.432 250.48C197.424 250.48 196.556 250.116 195.828 249.388C195.1 248.66 194.736 247.792 194.736 246.784V242.668C194.736 241.38 195.212 240.26 196.164 239.308C197.116 238.356 198.236 237.88 199.524 237.88H199.776C200.336 237.88 200.616 237.628 200.616 237.124C200.784 235.108 200.952 233.008 201.12 230.824C201.176 229.48 201.708 228.388 202.716 227.548C203.724 226.652 204.9 226.232 206.244 226.288L209.688 226.372C210.976 226.428 212.068 226.932 212.964 227.884C213.86 228.836 214.28 229.956 214.224 231.244C214 233.932 213.832 235.92 213.72 237.208C213.72 237.656 213.916 237.88 214.308 237.88H222.708C223.996 237.88 225.116 238.356 226.068 239.308C227.02 240.26 227.496 241.38 227.496 242.668V244.18C227.496 246.588 227.468 248.352 227.412 249.472C227.412 249.92 227.664 250.088 228.168 249.976C228.504 249.864 228.756 249.808 228.924 249.808C229.316 249.808 229.624 249.584 229.848 249.136C231.976 243.872 234.58 237.124 237.66 228.892C238.108 227.604 238.92 226.652 240.096 226.036C241.328 225.364 242.588 225.196 243.876 225.532L248.496 226.708C249.728 226.988 250.624 227.688 251.184 228.808C251.8 229.872 251.912 230.992 251.52 232.168C249.392 237.992 247.32 243.256 245.304 247.96C245.136 248.296 245.304 248.464 245.808 248.464C247.824 248.24 250.904 247.904 255.048 247.456C255.496 247.456 255.608 247.204 255.384 246.7L253.116 242.164C252.556 240.988 252.5 239.812 252.948 238.636C253.396 237.404 254.208 236.536 255.384 236.032L259.668 234.268C260.9 233.764 262.16 233.736 263.448 234.184C264.736 234.632 265.66 235.472 266.22 236.704ZM213.048 264.508C213.832 261.092 214.42 256.668 214.812 251.236C214.812 250.732 214.616 250.48 214.224 250.48H212.796C212.348 250.48 212.068 250.704 211.956 251.152C211.284 255.296 210.668 258.656 210.108 261.232C209.996 261.68 210.08 262.072 210.36 262.408C210.808 262.856 211.48 263.584 212.376 264.592C212.488 264.704 212.6 264.76 212.712 264.76C212.88 264.704 212.992 264.62 213.048 264.508ZM267.228 266.02C268.516 266.02 269.636 266.496 270.588 267.448C271.54 268.4 272.016 269.52 272.016 270.808V298.612C272.016 299.9 271.54 301.02 270.588 301.972C269.636 302.924 268.516 303.4 267.228 303.4H259.416C258.632 303.4 257.932 303.092 257.316 302.476C256.756 301.916 256.476 301.244 256.476 300.46C256.476 300.18 256.336 300.04 256.056 300.04H241.776C241.496 300.04 241.356 300.18 241.356 300.46C241.356 301.244 241.048 301.916 240.432 302.476C239.872 303.092 239.2 303.4 238.416 303.4H231.024C229.736 303.4 228.616 302.924 227.664 301.972C226.712 301.02 226.236 299.9 226.236 298.612V270.808C226.236 269.52 226.712 268.4 227.664 267.448C228.616 266.496 229.736 266.02 231.024 266.02H267.228ZM256.476 287.104V279.376C256.476 278.872 256.224 278.62 255.72 278.62H242.112C241.608 278.62 241.356 278.872 241.356 279.376V287.104C241.356 287.608 241.608 287.86 242.112 287.86H255.72C256.224 287.86 256.476 287.608 256.476 287.104ZM311.16 287.44C314.016 287.44 315.92 287.132 316.872 286.516C317.88 285.9 318.468 284.556 318.636 282.484C318.636 281.98 318.468 281.7 318.132 281.644C316.116 281.028 314.352 280.72 312.84 280.72C308.36 280.72 306.12 281.84 306.12 284.08C306.12 286.32 307.8 287.44 311.16 287.44ZM349.212 234.52C350.5 234.52 351.62 234.996 352.572 235.948C353.524 236.9 354 238.02 354 239.308V243.172C354 244.46 353.524 245.58 352.572 246.532C351.62 247.484 350.5 247.96 349.212 247.96H334.596C334.092 247.96 333.84 248.212 333.84 248.716V250.648C333.84 251.096 334.092 251.32 334.596 251.32H345.852C347.14 251.32 348.26 251.796 349.212 252.748C350.164 253.7 350.64 254.82 350.64 256.108V259.552C350.64 260.84 350.164 261.96 349.212 262.912C348.26 263.864 347.14 264.34 345.852 264.34H334.596C334.092 264.34 333.84 264.592 333.84 265.096V273.832C333.84 274.336 334.064 274.728 334.512 275.008C339.16 277.92 343.92 281.56 348.792 285.928C349.744 286.824 350.248 287.944 350.304 289.288C350.416 290.576 350.024 291.696 349.128 292.648L346.272 295.672C345.376 296.624 344.284 297.128 342.996 297.184C341.708 297.296 340.588 296.904 339.636 296.008C337.508 294.048 335.352 292.2 333.168 290.464C332.832 290.128 332.524 290.212 332.244 290.716C330.9 294.3 328.52 296.876 325.104 298.444C321.688 300.068 317.04 300.88 311.16 300.88C304.832 300.88 299.876 299.396 296.292 296.428C292.764 293.516 291 289.4 291 284.08C291 278.928 292.736 274.924 296.208 272.068C299.68 269.156 304.664 267.7 311.16 267.7C313.624 267.7 315.92 267.896 318.048 268.288C318.496 268.4 318.72 268.204 318.72 267.7V265.096C318.72 264.592 318.496 264.34 318.048 264.34H294.948C293.66 264.34 292.54 263.864 291.588 262.912C290.636 261.96 290.16 260.84 290.16 259.552V256.108C290.16 254.82 290.636 253.7 291.588 252.748C292.54 251.796 293.66 251.32 294.948 251.32H318.048C318.496 251.32 318.72 251.096 318.72 250.648V248.716C318.72 248.212 318.496 247.96 318.048 247.96H291.588C290.3 247.96 289.18 247.484 288.228 246.532C287.276 245.58 286.8 244.46 286.8 243.172V239.308C286.8 238.02 287.276 236.9 288.228 235.948C289.18 234.996 290.3 234.52 291.588 234.52H318.048C318.496 234.52 318.72 234.268 318.72 233.764V232.588C318.72 231.3 319.196 230.18 320.148 229.228C321.1 228.276 322.22 227.8 323.508 227.8H329.052C330.34 227.8 331.46 228.276 332.412 229.228C333.364 230.18 333.84 231.3 333.84 232.588V233.764C333.84 234.268 334.092 234.52 334.596 234.52H349.212ZM409.44 232C416.888 232 422.796 234.52 427.164 239.56C431.588 244.544 433.8 251.544 433.8 260.56C433.8 273.944 430.104 283.856 422.712 290.296C415.32 296.736 403.504 300.236 387.264 300.796C385.92 300.852 384.772 300.404 383.82 299.452C382.924 298.556 382.42 297.436 382.308 296.092L381.972 291.388C381.916 290.1 382.308 288.98 383.148 288.028C384.044 287.076 385.136 286.572 386.424 286.516C398.016 286.124 405.996 284.024 410.364 280.216C414.788 276.352 417 269.8 417 260.56C417 251.6 413.92 247.12 407.76 247.12C403.112 247.12 398.94 249.108 395.244 253.084C391.548 257.06 389.252 262.156 388.356 268.372C388.188 269.716 387.628 270.864 386.676 271.816C385.724 272.712 384.576 273.16 383.232 273.16H377.688C376.4 273.16 375.28 272.684 374.328 271.732C373.376 270.78 372.9 269.66 372.9 268.372V235.108C372.9 233.82 373.376 232.7 374.328 231.748C375.28 230.796 376.4 230.32 377.688 230.32H383.652C384.94 230.32 386.06 230.796 387.012 231.748C387.964 232.7 388.44 233.82 388.44 235.108V242.08L388.608 241.996C394.6 235.332 401.544 232 409.44 232ZM476.64 287.44C479.496 287.44 481.4 287.132 482.352 286.516C483.36 285.9 483.948 284.556 484.116 282.484C484.116 281.98 483.948 281.7 483.612 281.644C481.596 281.028 479.832 280.72 478.32 280.72C473.84 280.72 471.6 281.84 471.6 284.08C471.6 286.32 473.28 287.44 476.64 287.44ZM514.692 234.52C515.98 234.52 517.1 234.996 518.052 235.948C519.004 236.9 519.48 238.02 519.48 239.308V243.172C519.48 244.46 519.004 245.58 518.052 246.532C517.1 247.484 515.98 247.96 514.692 247.96H500.076C499.572 247.96 499.32 248.212 499.32 248.716V250.648C499.32 251.096 499.572 251.32 500.076 251.32H511.332C512.62 251.32 513.74 251.796 514.692 252.748C515.644 253.7 516.12 254.82 516.12 256.108V259.552C516.12 260.84 515.644 261.96 514.692 262.912C513.74 263.864 512.62 264.34 511.332 264.34H500.076C499.572 264.34 499.32 264.592 499.32 265.096V273.832C499.32 274.336 499.544 274.728 499.992 275.008C504.64 277.92 509.4 281.56 514.272 285.928C515.224 286.824 515.728 287.944 515.784 289.288C515.896 290.576 515.504 291.696 514.608 292.648L511.752 295.672C510.856 296.624 509.764 297.128 508.476 297.184C507.188 297.296 506.068 296.904 505.116 296.008C502.988 294.048 500.832 292.2 498.648 290.464C498.312 290.128 498.004 290.212 497.724 290.716C496.38 294.3 494 296.876 490.584 298.444C487.168 300.068 482.52 300.88 476.64 300.88C470.312 300.88 465.356 299.396 461.772 296.428C458.244 293.516 456.48 289.4 456.48 284.08C456.48 278.928 458.216 274.924 461.688 272.068C465.16 269.156 470.144 267.7 476.64 267.7C479.104 267.7 481.4 267.896 483.528 268.288C483.976 268.4 484.2 268.204 484.2 267.7V265.096C484.2 264.592 483.976 264.34 483.528 264.34H460.428C459.14 264.34 458.02 263.864 457.068 262.912C456.116 261.96 455.64 260.84 455.64 259.552V256.108C455.64 254.82 456.116 253.7 457.068 252.748C458.02 251.796 459.14 251.32 460.428 251.32H483.528C483.976 251.32 484.2 251.096 484.2 250.648V248.716C484.2 248.212 483.976 247.96 483.528 247.96H457.068C455.78 247.96 454.66 247.484 453.708 246.532C452.756 245.58 452.28 244.46 452.28 243.172V239.308C452.28 238.02 452.756 236.9 453.708 235.948C454.66 234.996 455.78 234.52 457.068 234.52H483.528C483.976 234.52 484.2 234.268 484.2 233.764V232.588C484.2 231.3 484.676 230.18 485.628 229.228C486.58 228.276 487.7 227.8 488.988 227.8H494.532C495.82 227.8 496.94 228.276 497.892 229.228C498.844 230.18 499.32 231.3 499.32 232.588V233.764C499.32 234.268 499.572 234.52 500.076 234.52H514.692ZM600.708 266.44C601.94 266.888 602.808 267.7 603.312 268.876C603.872 270.052 603.9 271.256 603.396 272.488C599.308 282.12 594.352 289.12 588.528 293.488C582.704 297.856 575.928 300.04 568.2 300.04C561.312 300.04 555.992 299.06 552.24 297.1C548.488 295.14 545.716 291.752 543.924 286.936C542.188 282.12 541.32 275.288 541.32 266.44C541.32 256.08 541.628 245.356 542.244 234.268C542.356 232.924 542.888 231.804 543.84 230.908C544.848 229.956 546.024 229.508 547.368 229.564L554.172 229.816C555.46 229.872 556.524 230.376 557.364 231.328C558.26 232.28 558.68 233.4 558.624 234.688C558.008 245.328 557.7 255.912 557.7 266.44C557.7 271.536 558.036 275.428 558.708 278.116C559.436 280.748 560.528 282.54 561.984 283.492C563.44 284.444 565.512 284.92 568.2 284.92C572.288 284.92 576.012 283.548 579.372 280.804C582.732 278.06 585.924 273.468 588.948 267.028C589.564 265.796 590.46 264.928 591.636 264.424C592.868 263.92 594.1 263.892 595.332 264.34L600.708 266.44ZM682.776 252.16C684.12 252.16 685.268 252.636 686.22 253.588C687.172 254.484 687.648 255.604 687.648 256.948V260.392C687.648 261.68 687.172 262.8 686.22 263.752C685.324 264.704 684.232 265.18 682.944 265.18C675.72 265.236 667.404 265.656 657.996 266.44C656.708 266.552 655.56 266.188 654.552 265.348C653.544 264.452 652.984 263.36 652.872 262.072L652.704 258.628C652.592 257.284 652.956 256.108 653.796 255.1C654.692 254.092 655.812 253.532 657.156 253.42C666.844 252.636 675.384 252.216 682.776 252.16ZM688.656 288.784L689.16 292.816C689.328 294.16 688.992 295.336 688.152 296.344C687.368 297.408 686.332 298.052 685.044 298.276C680.564 298.892 676.252 299.2 672.108 299.2C663.82 299.2 657.268 297.66 652.452 294.58C647.636 291.5 645.228 287.58 645.228 282.82C645.228 279.74 646.6 276.632 649.344 273.496C651.36 271.256 653.992 270.724 657.24 271.9L660.516 273.16C661.58 273.552 662.224 274.308 662.448 275.428C662.672 276.492 662.42 277.444 661.692 278.284C660.796 279.292 660.348 280.244 660.348 281.14C660.348 282.484 661.328 283.604 663.288 284.5C665.304 285.34 668.244 285.76 672.108 285.76C676.14 285.76 679.892 285.48 683.364 284.92C684.652 284.696 685.8 284.976 686.808 285.76C687.872 286.544 688.488 287.552 688.656 288.784ZM671.52 248.8H646.404C645.956 248.8 645.676 249.052 645.564 249.556C642.372 265.74 638.536 281.196 634.056 295.924C633.664 297.212 632.88 298.192 631.704 298.864C630.528 299.536 629.296 299.732 628.008 299.452L622.128 298.108C620.84 297.828 619.888 297.156 619.272 296.092C618.656 295.028 618.544 293.88 618.936 292.648C623.136 279.208 626.832 264.816 630.024 249.472C630.136 249.024 629.94 248.8 629.436 248.8H624.816C623.528 248.8 622.408 248.324 621.456 247.372C620.504 246.42 620.028 245.3 620.028 244.012V240.148C620.028 238.86 620.504 237.74 621.456 236.788C622.408 235.836 623.528 235.36 624.816 235.36H632.04C632.488 235.36 632.768 235.136 632.88 234.688C632.936 234.24 633.048 233.596 633.216 232.756C633.384 231.916 633.496 231.3 633.552 230.908C633.776 229.564 634.392 228.472 635.4 227.632C636.464 226.792 637.668 226.428 639.012 226.54L644.724 226.96C646.012 227.072 647.048 227.66 647.832 228.724C648.616 229.732 648.896 230.852 648.672 232.084C648.616 232.364 648.532 232.784 648.42 233.344C648.364 233.904 648.308 234.324 648.252 234.604C648.14 235.108 648.336 235.36 648.84 235.36H671.52C672.808 235.36 673.928 235.836 674.88 236.788C675.832 237.74 676.308 238.86 676.308 240.148V244.012C676.308 245.3 675.832 246.42 674.88 247.372C673.928 248.324 672.808 248.8 671.52 248.8ZM718.056 233.68C719.344 233.68 720.436 234.156 721.332 235.108C722.228 236.06 722.648 237.18 722.592 238.468L720.576 270.052C720.464 271.396 719.932 272.544 718.98 273.496C718.028 274.392 716.88 274.84 715.536 274.84H709.992C708.648 274.84 707.5 274.392 706.548 273.496C705.596 272.544 705.064 271.396 704.952 270.052L702.936 238.468C702.88 237.18 703.3 236.06 704.196 235.108C705.092 234.156 706.184 233.68 707.472 233.68H718.056ZM716.376 281.56C717.664 281.56 718.784 282.036 719.736 282.988C720.688 283.94 721.164 285.06 721.164 286.348V290.212C721.164 291.5 720.688 292.62 719.736 293.572C718.784 294.524 717.664 295 716.376 295H709.152C707.864 295 706.744 294.524 705.792 293.572C704.84 292.62 704.364 291.5 704.364 290.212V286.348C704.364 285.06 704.84 283.94 705.792 282.988C706.744 282.036 707.864 281.56 709.152 281.56H716.376Z" fill="white"/>
</g>
<g clip-path="url(#clip1_350_1099)">
<g clip-path="url(#clip2_350_1099)">
<rect width="271.21" height="162.726" transform="translate(197 409.214)" fill="white"/>
<path d="M468.21 409.214H197V571.94H468.21V409.214Z" fill="url(#paint0_linear_350_1099)"/>
<path d="M332.605 436.335L197 571.94H468.21L332.605 436.335Z" fill="#B9BFC1"/>
<path d="M332.605 441.76L197 571.94H468.21L332.605 441.76Z" fill="url(#paint1_linear_350_1099)"/>
<path d="M353.531 490.034V509.831L468.21 409.214H197L310.184 508.519V490.034H353.531Z" fill="#99A8AE"/>
<path d="M326.776 518.24L197 409.214H468.21L338.434 518.24C335.047 521.042 330.164 521.042 326.77 518.24H326.776Z" fill="url(#paint2_linear_350_1099)"/>
<path d="M326.776 518.24L197 409.214H468.21L338.434 518.24C335.047 521.042 330.164 521.042 326.77 518.24H326.776Z" fill="url(#paint3_linear_350_1099)"/>
<path d="M332.598 459.5C316.6 433.502 272.338 443.653 272.338 476.307C272.338 498.211 292.753 512.866 332.598 545.21C372.438 512.866 392.872 498.211 392.872 476.307C392.872 443.653 348.604 433.502 332.598 459.5Z" fill="url(#paint4_linear_350_1099)"/>
</g>
<g filter="url(#filter3_d_350_1099)">
<path d="M497.022 422.578C511.795 432.635 413.611 450.519 413.287 470.552C412.889 495.262 468.402 472.039 486.821 462.308C484.43 467.905 483.693 470.692 486.234 475.926C488.775 481.16 494.66 483.943 500.673 484.107C497.99 492.252 501.858 499.724 509.725 503.946C510.905 515.533 515.316 519.582 522.433 522.326C540.259 529.203 553.893 520.256 573.327 510.817C592.76 501.378 604.597 486.825 604.597 486.825C604.597 486.825 625.999 479.692 624.722 468.846C619.511 446.662 611.5 421.116 594.385 405.578C557.611 414.031 573.377 407.257 541.134 402.372C519.594 398.265 497.975 396.27 479.384 381.579C471.878 378.688 468.725 389.562 469.194 395.225C471.525 409.111 485.185 417.217 497.024 422.577L497.022 422.578Z" fill="url(#paint5_linear_350_1099)"/>
<path d="M493.812 489.042C488.497 487.466 483.531 484.095 480.837 478.547C479.901 476.619 479.225 474.747 478.887 472.824C469.003 477.291 456.174 482.308 444.419 485.174C436.182 487.183 427.6 488.365 420.782 486.928C417.265 486.187 413.722 484.646 411.086 481.67C408.375 478.611 407.22 474.71 407.288 470.456L407.288 470.455C407.369 465.452 410.442 461.517 413.563 458.698C416.812 455.765 421.142 453.106 425.835 450.686C435.253 445.83 447.455 441.28 458.774 437.182C460.257 436.645 461.722 436.117 463.164 435.597C472.975 432.06 481.713 428.909 487.632 426.085C488.141 425.841 488.609 425.61 489.038 425.39C484.478 423.043 479.773 420.187 475.646 416.659C469.773 411.641 464.748 404.979 463.277 396.218L463.235 395.971L463.215 395.721C462.893 391.845 463.745 386.522 466.028 382.326C467.193 380.185 469.014 377.822 471.784 376.376C474.787 374.809 478.2 374.694 481.541 375.98L482.39 376.307L483.104 376.872C497.848 388.522 514.48 391.487 533.056 394.799C536.036 395.33 539.066 395.871 542.147 396.457C554.552 398.345 561.017 400.781 564.786 402.2C565.951 402.639 566.859 402.98 567.604 403.179C570.582 403.972 574.287 404.041 593.041 399.73L596.097 399.028L598.418 401.135C617.049 418.049 625.36 445.324 630.563 467.474L630.641 467.806L630.681 468.145C631.258 473.051 629.181 477.123 626.727 480.07C624.297 482.988 621.112 485.302 618.243 487.037C615.321 488.804 612.405 490.161 610.253 491.069C609.43 491.416 608.706 491.703 608.119 491.927C607.768 492.323 607.336 492.799 606.827 493.344C605.308 494.968 603.094 497.21 600.249 499.754C594.576 504.826 586.301 511.186 575.948 516.214C573.831 517.243 571.728 518.296 569.641 519.34C562.601 522.866 555.739 526.302 549.09 528.41C540.024 531.284 530.724 531.955 520.274 527.924C516.192 526.35 512.165 524.13 509.083 520.092C506.526 516.742 504.972 512.604 504.151 507.566C497.833 503.222 493.738 496.628 493.812 489.042Z" stroke="white" stroke-width="12"/>
</g>
</g>
<defs>
<filter id="filter0_d_350_1099" x="0" y="-30" width="289.26" height="283.064" filterUnits="userSpaceOnUse" color-interpolation-filters="sRGB">
<feFlood flood-opacity="0" result="BackgroundImageFix"/>
<feColorMatrix in="SourceAlpha" type="matrix" values="0 0 0 0 0 0 0 0 0 0 0 0 0 0 0 0 0 0 127 0" result="hardAlpha"/>
<feOffset dy="4"/>
<feGaussianBlur stdDeviation="37"/>
<feComposite in2="hardAlpha" operator="out"/>
<feColorMatrix type="matrix" values="0 0 0 0 0.99811 0 0 0 0 0.986782 0 0 0 0 0.529885 0 0 0 0.6 0"/>
<feBlend mode="normal" in2="BackgroundImageFix" result="effect1_dropShadow_350_1099"/>
<feBlend mode="normal" in="SourceGraphic" in2="effect1_dropShadow_350_1099" result="shape"/>
</filter>
<filter id="filter1_d_350_1099" x="169.262" y="1.19873" width="220.666" height="220.667" filterUnits="userSpaceOnUse" color-interpolation-filters="sRGB">
<feFlood flood-opacity="0" result="BackgroundImageFix"/>
<feColorMatrix in="SourceAlpha" type="matrix" values="0 0 0 0 0 0 0 0 0 0 0 0 0 0 0 0 0 0 127 0" result="hardAlpha"/>
<feOffset dy="4"/>
<feGaussianBlur stdDeviation="32"/>
<feComposite in2="hardAlpha" operator="out"/>
<feColorMatrix type="matrix" values="0 0 0 0 0.99811 0 0 0 0 0.986782 0 0 0 0 0.529885 0 0 0 0.8 0"/>
<feBlend mode="normal" in2="BackgroundImageFix" result="effect1_dropShadow_350_1099"/>
<feBlend mode="normal" in="SourceGraphic" in2="effect1_dropShadow_350_1099" result="shape"/>
</filter>
<filter id="filter2_d_350_1099" x="267.928" y="-24.1807" width="564.258" height="271.426" filterUnits="userSpaceOnUse" color-interpolation-filters="sRGB">
<feFlood flood-opacity="0" result="BackgroundImageFix"/>
<feColorMatrix in="SourceAlpha" type="matrix" values="0 0 0 0 0 0 0 0 0 0 0 0 0 0 0 0 0 0 127 0" result="hardAlpha"/>
<feOffset dy="4"/>
<feGaussianBlur stdDeviation="37"/>
<feComposite in2="hardAlpha" operator="out"/>
<feColorMatrix type="matrix" values="0 0 0 0 0.99811 0 0 0 0 0.986782 0 0 0 0 0.529885 0 0 0 0.7 0"/>
<feBlend mode="normal" in2="BackgroundImageFix" result="effect1_dropShadow_350_1099"/>
<feBlend mode="normal" in="SourceGraphic" in2="effect1_dropShadow_350_1099" result="shape"/>
</filter>
<filter id="filter3_d_350_1099" x="327.285" y="299.1" width="383.494" height="315.657" filterUnits="userSpaceOnUse" color-interpolation-filters="sRGB">
<feFlood flood-opacity="0" result="BackgroundImageFix"/>
<feColorMatrix in="SourceAlpha" type="matrix" values="0 0 0 0 0 0 0 0 0 0 0 0 0 0 0 0 0 0 127 0" result="hardAlpha"/>
<feOffset dy="4"/>
<feGaussianBlur stdDeviation="37"/>
<feComposite in2="hardAlpha" operator="out"/>
<feColorMatrix type="matrix" values="0 0 0 0 0.21474 0 0 0 0 0.219292 0 0 0 0 0.26026 0 0 0 0.7 0"/>
<feBlend mode="normal" in2="BackgroundImageFix" result="effect1_dropShadow_350_1099"/>
<feBlend mode="normal" in="SourceGraphic" in2="effect1_dropShadow_350_1099" result="shape"/>
</filter>
<linearGradient id="paint0_linear_350_1099" x1="332.605" y1="571.94" x2="332.605" y2="409.214" gradientUnits="userSpaceOnUse">
<stop stop-color="#E6EBED"/>
<stop offset="0.51" stop-color="#DBE2E5"/>
<stop offset="1" stop-color="#CCD5D9"/>
</linearGradient>
<linearGradient id="paint1_linear_350_1099" x1="332.605" y1="571.94" x2="332.605" y2="441.76" gradientUnits="userSpaceOnUse">
<stop stop-color="#E6EBED"/>
<stop offset="0.26" stop-color="#E3E9EB"/>
<stop offset="0.45" stop-color="#DAE1E4"/>
<stop offset="0.58" stop-color="#CFD8DD"/>
</linearGradient>
<linearGradient id="paint2_linear_350_1099" x1="332.605" y1="516.531" x2="332.605" y2="112.649" gradientUnits="userSpaceOnUse">
<stop stop-color="#B9C2C7"/>
<stop offset="0.05" stop-color="#C2CACF"/>
<stop offset="0.2" stop-color="#DCE2E5"/>
<stop offset="0.3" stop-color="#E6EBED"/>
</linearGradient>
<linearGradient id="paint3_linear_350_1099" x1="332.605" y1="520.341" x2="332.605" y2="409.214" gradientUnits="userSpaceOnUse">
<stop stop-color="#E6EBED"/>
<stop offset="0.58" stop-color="#E3E9EC"/>
<stop offset="1" stop-color="#DAE3E8"/>
</linearGradient>
<linearGradient id="paint4_linear_350_1099" x1="332.605" y1="545.21" x2="332.605" y2="444.763" gradientUnits="userSpaceOnUse">
<stop stop-color="#C300FD"/>
<stop offset="1" stop-color="#DB00FA"/>
</linearGradient>
<linearGradient id="paint5_linear_350_1099" x1="480.794" y1="378.955" x2="544.384" y2="524.368" gradientUnits="userSpaceOnUse">
<stop stop-color="#FECC3C"/>
<stop offset="0.569468" stop-color="#FBC133"/>
<stop offset="1" stop-color="#E4A026"/>
</linearGradient>
<clipPath id="clip0_350_1099">
<rect width="832" height="330" fill="white"/>
</clipPath>
<clipPath id="clip1_350_1099">
<rect width="438.75" height="232.94" fill="white" transform="translate(197 339)"/>
</clipPath>
<clipPath id="clip2_350_1099">
<rect width="271.21" height="162.726" fill="white" transform="translate(197 409.214)"/>
</clipPath>
</defs>
</svg>
