<svg width="35" height="28" viewBox="0 0 35 28" fill="none" xmlns="http://www.w3.org/2000/svg">
<path d="M31.8574 16.6423L31.8579 16.6419C32.5797 15.9545 33 15.0062 33 14.0007C33 12.9952 32.5797 12.047 31.8579 11.3596L31.8575 11.3592L23.1348 3.05808L23.1345 3.0578C22.4141 2.37261 21.4524 2 20.4644 2C19.4764 2 18.5147 2.37261 17.7943 3.0578C17.0714 3.74543 16.6503 4.69454 16.6503 5.70105C16.6503 6.70747 17.0713 7.65651 17.7941 8.34412C17.7942 8.34418 17.7942 8.34423 17.7943 8.34429L19.8502 10.3004L5.81333 10.3004C4.82553 10.3004 3.86401 10.6729 3.14377 11.358C2.42098 12.0455 2 12.9944 2 14.0007C2 15.0071 2.42098 15.956 3.14377 16.6435C3.86401 17.3285 4.82553 17.7011 5.81333 17.7011H19.8493L17.7943 19.6557C17.4368 19.9957 17.149 20.4035 16.9512 20.8578C16.7533 21.3122 16.6503 21.8022 16.6503 22.299C16.6503 22.7957 16.7533 23.2857 16.9512 23.7402C17.149 24.1944 17.4368 24.6022 17.7943 24.9422C18.1516 25.2821 18.5718 25.5479 19.029 25.728C19.4861 25.9081 19.9737 26 20.4644 26C20.9551 26 21.4427 25.9081 21.8998 25.728C22.357 25.5479 22.7772 25.2821 23.1345 24.9422L23.1347 24.942L31.8574 16.6423Z" fill="#00C7FE" stroke="white" stroke-width="3"/>
</svg>
