<svg width="1201" height="1200" viewBox="0 0 1201 1200" fill="none" xmlns="http://www.w3.org/2000/svg">
<g clip-path="url(#clip0_164_1381)">
<path d="M742.072 145.475H294.266C266.729 145.475 244.406 167.797 244.406 195.334V897.673C244.406 925.209 266.729 947.532 294.266 947.532H742.072C769.609 947.532 791.932 925.209 791.932 897.673V195.334C791.932 167.797 769.609 145.475 742.072 145.475Z" fill="#1E1E1E"/>
<path d="M713.598 117H265.791C238.254 117 215.932 139.323 215.932 166.859V869.198C215.932 896.735 238.254 919.057 265.791 919.057H713.598C741.134 919.057 763.457 896.735 763.457 869.198V166.859C763.457 139.323 741.134 117 713.598 117Z" fill="#01ABFF"/>
<path d="M599.43 339.542H361.782C351.934 339.542 343.951 347.524 343.951 357.372V357.391C343.951 367.239 351.934 375.222 361.782 375.222H599.43C609.277 375.222 617.26 367.239 617.26 357.391V357.372C617.26 347.524 609.277 339.542 599.43 339.542Z" fill="#BFE7FF"/>
<path d="M578.335 395.524H390.991C381.143 395.524 373.16 403.507 373.16 413.355V413.374C373.16 423.222 381.143 431.204 390.991 431.204H578.335C588.182 431.204 596.165 423.222 596.165 413.374V413.355C596.165 403.507 588.182 395.524 578.335 395.524Z" fill="#BFE7FF"/>
<path d="M432.967 517.498H312.52C286.861 517.498 266.061 538.294 266.061 563.947C266.061 589.601 286.861 610.397 312.52 610.397H432.967C458.625 610.397 479.426 589.601 479.426 563.947C479.426 538.294 458.625 517.498 432.967 517.498Z" fill="#8FD6FF"/>
<path d="M432.967 632.864H312.52C286.861 632.864 266.061 653.66 266.061 679.313C266.061 704.967 286.861 725.763 312.52 725.763H432.967C458.625 725.763 479.426 704.967 479.426 679.313C479.426 653.66 458.625 632.864 432.967 632.864Z" fill="#8FD6FF"/>
<path d="M666.867 632.864H546.42C520.762 632.864 499.961 653.66 499.961 679.313C499.961 704.967 520.762 725.763 546.42 725.763H666.867C692.526 725.763 713.326 704.967 713.326 679.313C713.326 653.66 692.526 632.864 666.867 632.864Z" fill="white"/>
<path d="M666.867 517.498H546.42C520.762 517.498 499.961 538.294 499.961 563.947C499.961 589.601 520.762 610.397 546.42 610.397H666.867C692.526 610.397 713.326 589.601 713.326 563.947C713.326 538.294 692.526 517.498 666.867 517.498Z" fill="#8FD6FF"/>
</g>
<path d="M818.432 625.656C943.838 625.656 1045.45 727.265 1045.45 852.672C1045.45 978.078 943.838 1079.69 818.432 1079.69C693.025 1079.69 591.416 978.078 591.416 852.672C591.416 727.265 693.025 625.656 818.432 625.656Z" fill="url(#paint0_linear_164_1381)"/>
<path d="M853.658 916.158C853.658 943.792 783.205 943.792 783.205 916.158C783.205 901.676 799.018 889.934 818.432 889.934C837.924 889.856 853.658 901.598 853.658 916.158Z" fill="#1A1626"/>
<path d="M742.734 752.472C759.486 752.472 773.029 769.38 773.029 790.282C773.029 811.183 759.486 828.091 742.734 828.091C725.982 828.091 712.439 811.183 712.439 790.282C712.518 769.38 726.06 752.472 742.734 752.472Z" fill="#1A1626"/>
<path d="M894.129 752.472C910.881 752.472 924.424 769.38 924.424 790.282C924.424 811.183 910.881 828.091 894.129 828.091C877.377 828.091 863.834 811.183 863.834 790.282C863.834 769.38 877.377 752.472 894.129 752.472Z" fill="#1A1626"/>
<path d="M829.94 879.757C829.94 911.931 809.273 970.25 809.273 970.25L877.456 966.649C877.456 966.649 889.199 920.855 891.234 880.696C893.739 833.101 829.94 831.223 829.94 879.757Z" fill="#99A8AE"/>
<path d="M866.261 952.715L830.33 954.594C830.33 954.594 844.499 914.905 844.499 879.757C844.499 851.263 877.612 851.419 876.751 880.305C875.577 919.211 866.261 952.715 866.261 952.715Z" fill="white"/>
<path d="M870.488 934.632C837.688 934.632 794.868 953.028 782.108 1004.69C753.77 1113.27 893.737 1145.6 921.527 1069.04C931.704 1040.23 944.698 1026.61 954.092 1016.75C988.223 985.672 951.822 955.455 930.843 962.735C920.588 945.748 897.808 934.632 870.488 934.632Z" fill="#99A8AE"/>
<path d="M952.998 992.013C952.919 1003.83 925.521 1013.23 907.438 1064.27C886.85 1122.51 773.186 1100.2 795.887 1008.3C815.223 930.014 913.309 940.112 921.059 978.235C923.329 989.429 910.1 995.065 910.021 994.909C894.13 969.624 868.845 967.589 857.573 969.076C887.242 969.468 930.688 1012.99 893.974 1021.37C872.603 996.788 846.144 997.023 832.679 998.745C864.462 1000.31 881.527 1012.84 888.337 1027.94C894.835 1042.5 883.406 1065.21 868.767 1049.63C858.982 1039.22 847.553 1033.5 829.47 1033.97C848.023 1038.9 858.199 1045.01 866.81 1056.99C882.075 1078.28 905.872 1049.78 897.34 1029.12C912.996 1024.26 916.988 1012.76 913.231 1002.42C926.304 995.848 928.026 987.003 927.4 981.21C938.124 969.546 953.076 981.053 952.998 992.013Z" fill="white"/>
<path d="M710.56 680.688C630.322 719.124 678.074 733.215 749.857 708.948C790.329 695.327 763.4 655.325 710.56 680.688Z" fill="#D69600"/>
<path d="M926.303 680.844C873.463 655.481 846.456 695.483 887.006 709.104C958.79 733.293 1006.62 719.28 926.303 680.844Z" fill="#D69600"/>
<defs>
<linearGradient id="paint0_linear_164_1381" x1="818.432" y1="1079.7" x2="818.432" y2="625.65" gradientUnits="userSpaceOnUse">
<stop stop-color="#FF9500"/>
<stop offset="0.1919" stop-color="#FFAD00"/>
<stop offset="0.5455" stop-color="#FFD500"/>
<stop offset="0.8272" stop-color="#FFED00"/>
<stop offset="1" stop-color="#FFF600"/>
</linearGradient>
<clipPath id="clip0_164_1381">
<rect width="576" height="830.532" fill="white" transform="translate(215.932 117)"/>
</clipPath>
</defs>
</svg>
