<?xml version="1.0" encoding="utf-8"?>
<!-- Generator: Adobe Illustrator 24.1.2, SVG Export Plug-In . SVG Version: 6.00 Build 0)  -->
<svg version="1.1" id="Layer_1" xmlns="http://www.w3.org/2000/svg" xmlns:xlink="http://www.w3.org/1999/xlink" x="0px" y="0px"
	 width="64px" height="64px" viewBox="0 0 64 64" style="enable-background:new 0 0 64 64;" xml:space="preserve">
<style type="text/css">
	.st0{fill:url(#SVGID_1_);}
	.st1{fill:#1A1626;}
	.st2{fill:url(#SVGID_2_);}
	.st3{fill:#FFFFFF;}
	.st4{fill:#0CC500;}
</style>
<linearGradient id="SVGID_1_" gradientUnits="userSpaceOnUse" x1="32" y1="62" x2="32" y2="2.0014">
	<stop  offset="0" style="stop-color:#FF9500"/>
	<stop  offset="0.1919" style="stop-color:#FFAD00"/>
	<stop  offset="0.5455" style="stop-color:#FFD500"/>
	<stop  offset="0.8272" style="stop-color:#FFED00"/>
	<stop  offset="1" style="stop-color:#FFF600"/>
</linearGradient>
<path class="st0" d="M32,2c16.57,0,30,13.43,30,30c0,16.57-13.43,30-30,30C15.43,62,2,48.57,2,32C2,15.43,15.43,2,32,2z"/>
<path class="st1" d="M47.88,37c-0.32,0-6.65,2-15.88,2c-9.23,0-15.55-2-15.88-2C15.39,37,15,37.51,15,38c0,7.27,5.96,15,17,15
	s17-7.73,17-15C49,37.51,48.61,37,47.88,37z"/>
<linearGradient id="SVGID_2_" gradientUnits="userSpaceOnUse" x1="31.9989" y1="41.3045" x2="31.9989" y2="64">
	<stop  offset="0" style="stop-color:#0E260D"/>
	<stop  offset="0.1174" style="stop-color:#0D6608"/>
	<stop  offset="0.2255" style="stop-color:#0D9904"/>
	<stop  offset="0.3066" style="stop-color:#0CB901"/>
	<stop  offset="0.3515" style="stop-color:#0CC500"/>
</linearGradient>
<path class="st2" d="M21.92,44.72c0,0.9,0,4.41,0,6.03C21.92,59.57,26.44,64,32,64c5.56,0,10.08-4.43,10.08-13.25
	c0-1.62,0-5.13,0-6.03c0-5.27-10.08-2.87-10.08-2.87S21.92,39.45,21.92,44.72z"/>
<circle class="st3" cx="19.5" cy="23" r="11"/>
<circle class="st3" cx="44.5" cy="23" r="11"/>
<circle class="st4" cx="19.5" cy="23" r="10"/>
<circle class="st4" cx="44.5" cy="23" r="10"/>
<path class="st3" d="M35.5,53.54c-0.19-0.33-0.45-0.59-0.76-0.8c-0.32-0.21-0.66-0.37-1.04-0.49c-0.29-0.09-0.59-0.17-0.88-0.25
	v-2.57c0.69,0.12,1.38,0.43,2.05,0.92l0.7-1.54c-0.26-0.22-0.57-0.41-0.94-0.58c-0.37-0.17-0.77-0.29-1.2-0.39
	c-0.16-0.03-0.32-0.06-0.48-0.08v-1.53h-1.68v1.55c-0.38,0.06-0.74,0.17-1.07,0.32c-0.57,0.26-1.02,0.62-1.35,1.07
	c-0.33,0.45-0.5,0.97-0.5,1.55c0,0.51,0.09,0.94,0.28,1.27c0.19,0.33,0.44,0.6,0.76,0.81c0.32,0.21,0.67,0.37,1.05,0.5
	c0.33,0.11,0.66,0.2,0.98,0.29v2.49c-0.38-0.03-0.74-0.1-1.09-0.22c-0.49-0.16-0.95-0.41-1.4-0.74l-0.7,1.54
	c0.46,0.35,1.01,0.62,1.65,0.81c0.44,0.13,0.9,0.21,1.39,0.26v1.51h1.68v-1.56c0.37-0.06,0.71-0.16,1.03-0.3
	c0.57-0.25,1.02-0.6,1.34-1.05c0.32-0.45,0.48-0.96,0.48-1.55C35.79,54.28,35.69,53.86,35.5,53.54z M30.76,51.25
	c-0.19-0.16-0.29-0.38-0.29-0.67c0-0.39,0.15-0.68,0.45-0.9c0.14-0.1,0.3-0.17,0.48-0.22v2.14C31.14,51.51,30.93,51.39,30.76,51.25z
	 M33.19,55.78c-0.11,0.07-0.24,0.13-0.38,0.18v-1.99c0.21,0.08,0.39,0.18,0.54,0.29c0.19,0.15,0.29,0.36,0.29,0.61
	C33.64,55.28,33.49,55.58,33.19,55.78z"/>
<path class="st3" d="M48,23.81c-0.19-0.33-0.45-0.59-0.76-0.8c-0.32-0.21-0.66-0.37-1.04-0.49c-0.29-0.09-0.59-0.17-0.88-0.25V19.7
	c0.69,0.12,1.38,0.43,2.05,0.92l0.7-1.54c-0.26-0.22-0.57-0.41-0.94-0.58c-0.37-0.17-0.77-0.29-1.21-0.39
	c-0.16-0.03-0.32-0.06-0.48-0.08V16.5h-1.68v1.55c-0.38,0.06-0.74,0.17-1.07,0.32c-0.57,0.26-1.02,0.62-1.35,1.07
	c-0.33,0.45-0.5,0.97-0.5,1.55c0,0.51,0.09,0.94,0.28,1.27c0.19,0.33,0.44,0.6,0.76,0.81c0.32,0.21,0.67,0.37,1.05,0.5
	c0.33,0.11,0.66,0.2,0.98,0.29v2.49c-0.38-0.03-0.74-0.1-1.09-0.22c-0.49-0.16-0.95-0.41-1.4-0.74l-0.7,1.54
	c0.46,0.35,1.01,0.62,1.65,0.81c0.44,0.13,0.9,0.21,1.39,0.26v1.51h1.68v-1.56c0.37-0.06,0.71-0.16,1.03-0.3
	c0.57-0.25,1.02-0.6,1.34-1.05c0.32-0.45,0.48-0.96,0.48-1.55C48.29,24.55,48.19,24.13,48,23.81z M43.26,21.52
	c-0.19-0.16-0.29-0.38-0.29-0.67c0-0.39,0.15-0.68,0.45-0.9c0.14-0.1,0.3-0.17,0.48-0.22v2.14C43.65,21.78,43.43,21.66,43.26,21.52z
	 M45.69,26.05c-0.11,0.07-0.24,0.13-0.38,0.18v-1.99c0.21,0.08,0.39,0.18,0.54,0.29c0.19,0.15,0.29,0.36,0.29,0.61
	C46.14,25.54,45.99,25.85,45.69,26.05z"/>
<path class="st3" d="M23,23.81c-0.19-0.33-0.45-0.59-0.76-0.8c-0.32-0.21-0.66-0.37-1.04-0.49c-0.29-0.09-0.59-0.17-0.88-0.25V19.7
	c0.69,0.12,1.38,0.43,2.05,0.92l0.7-1.54c-0.26-0.22-0.57-0.41-0.94-0.58c-0.37-0.17-0.77-0.29-1.2-0.39
	c-0.16-0.03-0.32-0.06-0.48-0.08V16.5h-1.68v1.55c-0.38,0.06-0.74,0.17-1.07,0.32c-0.57,0.26-1.02,0.62-1.35,1.07
	c-0.33,0.45-0.5,0.97-0.5,1.55c0,0.51,0.09,0.94,0.28,1.27c0.19,0.33,0.44,0.6,0.76,0.81c0.32,0.21,0.67,0.37,1.05,0.5
	c0.33,0.11,0.66,0.2,0.98,0.29v2.49c-0.38-0.03-0.74-0.1-1.09-0.22c-0.49-0.16-0.95-0.41-1.4-0.74l-0.7,1.54
	c0.46,0.35,1.01,0.62,1.65,0.81c0.44,0.13,0.9,0.21,1.39,0.26v1.51h1.68v-1.56c0.37-0.06,0.71-0.16,1.03-0.3
	c0.57-0.25,1.02-0.6,1.34-1.05c0.32-0.45,0.48-0.96,0.48-1.55C23.29,24.55,23.19,24.13,23,23.81z M18.26,21.52
	c-0.19-0.16-0.29-0.38-0.29-0.67c0-0.39,0.15-0.68,0.45-0.9c0.14-0.1,0.3-0.17,0.48-0.22v2.14C18.65,21.78,18.43,21.66,18.26,21.52z
	 M20.69,26.05c-0.11,0.07-0.24,0.13-0.38,0.18v-1.99c0.21,0.08,0.39,0.18,0.54,0.29c0.19,0.15,0.29,0.36,0.29,0.61
	C21.14,25.54,20.99,25.85,20.69,26.05z"/>
</svg>
