<svg width="657" height="76" viewBox="0 0 657 76" fill="none" xmlns="http://www.w3.org/2000/svg">
<path d="M49.6 53.8306V21.5906C49.6 21.1639 49.36 20.9506 48.88 20.9506H16.64C16.2133 20.9506 16 21.1639 16 21.5906V53.8306C16 54.3106 16.2133 54.5506 16.64 54.5506H48.88C49.36 54.5506 49.6 54.3106 49.6 53.8306ZM61.04 7.35059C62.2667 7.35059 63.3333 7.80392 64.24 8.71059C65.1467 9.61725 65.6 10.6839 65.6 11.9106V63.5906C65.6 64.8173 65.1467 65.8839 64.24 66.7906C63.3333 67.6973 62.2667 68.1506 61.04 68.1506H16H4.56C3.33333 68.1506 2.26667 67.6973 1.36 66.7906C0.453333 65.8839 0 64.8173 0 63.5906V11.9106C0 10.6839 0.453333 9.61725 1.36 8.71059C2.26667 7.80392 3.33333 7.35059 4.56 7.35059H61.04Z" fill="#1E1E1E"/>
<path d="M144.24 30.1506C145.467 30.1506 146.533 30.6039 147.44 31.5106C148.347 32.4173 148.8 33.4839 148.8 34.7106V40.7906C148.8 42.0173 148.347 43.0839 147.44 43.9906C146.533 44.8973 145.467 45.3506 144.24 45.3506H86.16C84.9333 45.3506 83.8667 44.8973 82.96 43.9906C82.0533 43.0839 81.6 42.0173 81.6 40.7906V34.7106C81.6 33.4839 82.0533 32.4173 82.96 31.5106C83.8667 30.6039 84.9333 30.1506 86.16 30.1506H144.24Z" fill="#1E1E1E"/>
<path d="M232.64 2.31059C232.907 2.84392 233.28 3.61725 233.76 4.63059C234.293 5.64392 234.667 6.36392 234.88 6.79059C235.413 7.85725 235.493 8.92392 235.12 9.99059C234.747 11.0573 234.027 11.8573 232.96 12.3906C231.893 12.9239 230.8 13.0039 229.68 12.6306C228.613 12.2573 227.787 11.5373 227.2 10.4706C226.72 9.51059 225.947 8.07059 224.88 6.15058C224.347 5.08392 224.24 4.01725 224.56 2.95059C224.933 1.83059 225.653 1.00392 226.72 0.470588C227.787 -0.0627444 228.907 -0.142745 230.08 0.230587C231.253 0.603922 232.107 1.29726 232.64 2.31059ZM171.2 11.1106C171.2 9.88392 171.653 8.81725 172.56 7.91059C173.467 7.00392 174.533 6.55059 175.76 6.55059H211.92C212.08 6.55059 212.213 6.47059 212.32 6.31059C212.48 6.15059 212.533 5.99059 212.48 5.83059C212.213 3.85725 212.933 2.44392 214.64 1.59059C215.707 1.05725 216.773 0.977254 217.84 1.35059C218.96 1.72392 219.813 2.44392 220.4 3.51059C220.667 3.99059 221.04 4.71059 221.52 5.67059C222 6.57725 222.373 7.27059 222.64 7.75059C223.173 8.81725 223.253 9.88392 222.88 10.9506C222.507 12.0173 221.787 12.7906 220.72 13.2706C220.08 13.5906 219.547 13.7506 219.12 13.7506C218.64 13.7506 218.4 13.9639 218.4 14.3906V15.5906C218.4 16.8173 217.947 17.8839 217.04 18.7906C216.133 19.6973 215.067 20.1506 213.84 20.1506H175.76C174.533 20.1506 173.467 19.6973 172.56 18.7906C171.653 17.8839 171.2 16.8173 171.2 15.5906V11.1106ZM227.44 28.1506C228.667 28.1506 229.733 28.6039 230.64 29.5106C231.547 30.4173 232 31.4839 232 32.7106V37.1906C232 38.4173 231.547 39.4839 230.64 40.3906C229.733 41.2973 228.667 41.7506 227.44 41.7506H207.92C207.44 41.7506 207.2 41.9906 207.2 42.4706C206.933 58.2039 198.267 68.0706 181.2 72.0706C179.973 72.3373 178.8 72.1239 177.68 71.4306C176.613 70.7906 175.867 69.8573 175.44 68.6306L173.76 63.6706C173.387 62.5506 173.493 61.4839 174.08 60.4706C174.72 59.4039 175.627 58.7106 176.8 58.3906C181.867 57.0573 185.493 55.1373 187.68 52.6306C189.92 50.1239 191.093 46.7373 191.2 42.4706C191.2 41.9906 190.96 41.7506 190.48 41.7506H166.16C164.933 41.7506 163.867 41.2973 162.96 40.3906C162.053 39.4839 161.6 38.4173 161.6 37.1906V32.7106C161.6 31.4839 162.053 30.4173 162.96 29.5106C163.867 28.6039 164.933 28.1506 166.16 28.1506H227.44Z" fill="#1E1E1E"/>
<path d="M303.6 21.8306L305.36 24.0706C306.16 25.0839 306.507 26.2306 306.4 27.5106C306.293 28.7906 305.733 29.8306 304.72 30.6306C300.933 33.7239 296.427 36.7373 291.2 39.6706C290.827 39.8839 290.64 40.2306 290.64 40.7106V66.1506C290.64 67.3773 290.187 68.4439 289.28 69.3506C288.373 70.2573 287.307 70.7106 286.08 70.7106H281.28C280.053 70.7106 278.987 70.2573 278.08 69.3506C277.173 68.4439 276.72 67.3773 276.72 66.1506V47.0306C276.72 46.6573 276.507 46.5239 276.08 46.6306C270.533 48.7106 265.013 50.2573 259.52 51.2706C258.293 51.4839 257.173 51.2173 256.16 50.4706C255.147 49.7239 254.533 48.7373 254.32 47.5106L253.84 44.4706C253.627 43.2439 253.893 42.1506 254.64 41.1906C255.387 40.1773 256.373 39.5373 257.6 39.2706C264.907 37.8839 272 35.6173 278.88 32.4706C285.813 29.3239 292 25.5639 297.44 21.1906C298.4 20.4439 299.467 20.1239 300.64 20.2306C301.867 20.3373 302.853 20.8706 303.6 21.8306Z" fill="#1E1E1E"/>
<path d="M335.84 20.3906C334.72 19.8573 333.973 19.0306 333.6 17.9106C333.227 16.7373 333.333 15.6173 333.92 14.5506L336.8 8.95059C337.387 7.83059 338.293 7.05725 339.52 6.63059C340.747 6.20392 341.947 6.25726 343.12 6.79059C348.88 9.40392 354.56 12.1239 360.16 14.9506C361.28 15.4839 362 16.3373 362.32 17.5106C362.64 18.6839 362.507 19.8039 361.92 20.8706L358.8 26.6306C358.213 27.7506 357.307 28.4973 356.08 28.8706C354.853 29.2439 353.68 29.1373 352.56 28.5506C346.32 25.4039 340.747 22.6839 335.84 20.3906ZM393.76 15.1906C394.987 15.4573 395.947 16.1239 396.64 17.1906C397.333 18.2573 397.547 19.4039 397.28 20.6306C394.08 34.8706 387.84 45.9106 378.56 53.7506C369.28 61.5906 356.507 66.4973 340.24 68.4706C338.96 68.6306 337.813 68.3106 336.8 67.5106C335.84 66.7639 335.253 65.7506 335.04 64.4706L334.08 58.6306C333.867 57.4573 334.133 56.3639 334.88 55.3506C335.627 54.3373 336.613 53.7506 337.84 53.5906C350.8 51.7773 360.773 48.0439 367.76 42.3906C374.747 36.7373 379.733 28.3639 382.72 17.2706C383.04 16.0439 383.733 15.1106 384.8 14.4706C385.867 13.8306 386.987 13.6439 388.16 13.9106L393.76 15.1906Z" fill="#1E1E1E"/>
<path d="M470.4 13.1906C471.52 14.0439 472.08 15.2173 472.08 16.7106C471.707 34.3106 467.573 47.4039 459.68 55.9906C451.787 64.5239 439.307 69.7506 422.24 71.6706C420.96 71.8306 419.813 71.5106 418.8 70.7106C417.787 69.9639 417.147 68.9506 416.88 67.6706L416.08 63.0306C415.867 61.8039 416.133 60.7106 416.88 59.7506C417.627 58.7373 418.587 58.1506 419.76 57.9906C431.493 56.3906 440.027 53.2706 445.36 48.6306C450.747 43.9373 454.08 36.5239 455.36 26.3906C455.467 25.9639 455.28 25.7506 454.8 25.7506H434.8C434.32 25.7506 434 25.9373 433.84 26.3106C430.96 32.3906 427.04 38.1773 422.08 43.6706C421.227 44.6306 420.16 45.1373 418.88 45.1906C417.6 45.2439 416.453 44.8439 415.44 43.9906L411.52 40.7106C410.613 39.9106 410.107 38.8973 410 37.6706C409.947 36.4439 410.32 35.3506 411.12 34.3906C417.52 26.7639 421.84 18.1773 424.08 8.63059C424.347 7.35059 424.987 6.31059 426 5.51059C427.013 4.71059 428.16 4.33725 429.44 4.39059L435.12 4.71059C436.4 4.81725 437.44 5.32392 438.24 6.23059C439.04 7.13725 439.333 8.17725 439.12 9.35059C439.067 9.72392 438.933 10.4173 438.72 11.4306C438.667 11.5906 438.693 11.7506 438.8 11.9106C438.96 12.0706 439.12 12.1506 439.28 12.1506H462.08C462.24 12.1506 462.347 12.0706 462.4 11.9106C462.507 11.7506 462.507 11.6173 462.4 11.5106C462.187 11.0839 461.867 10.4706 461.44 9.67059C461.013 8.87059 460.693 8.25726 460.48 7.83059C459.947 6.81726 459.84 5.77725 460.16 4.71059C460.533 3.59059 461.227 2.76392 462.24 2.23059C463.307 1.69726 464.373 1.61726 465.44 1.99059C466.56 2.36392 467.413 3.08392 468 4.15059C468.267 4.63059 468.64 5.35059 469.12 6.31059C469.6 7.21725 469.973 7.91059 470.24 8.39059C470.88 9.56392 470.853 10.8173 470.16 12.1506C469.947 12.5773 470.027 12.9239 470.4 13.1906ZM480.24 2.95059C480.507 3.48392 480.88 4.25725 481.36 5.27059C481.893 6.28392 482.267 7.00392 482.48 7.43059C483.013 8.49725 483.093 9.56392 482.72 10.6306C482.347 11.6973 481.627 12.4973 480.56 13.0306C479.493 13.5639 478.4 13.6439 477.28 13.2706C476.213 12.8973 475.387 12.1773 474.8 11.1106C474.32 10.1506 473.547 8.71059 472.48 6.79059C471.947 5.72392 471.84 4.65725 472.16 3.59059C472.533 2.47059 473.253 1.64392 474.32 1.11059C475.387 0.577252 476.507 0.497251 477.68 0.870586C478.853 1.24392 479.707 1.93726 480.24 2.95059Z" fill="#1E1E1E"/>
<path d="M557.84 12.5506C559.067 12.5506 560.133 13.0039 561.04 13.9106C561.947 14.8173 562.4 15.8839 562.4 17.1106V52.7906C562.4 54.0173 561.947 55.0839 561.04 55.9906C560.133 56.8973 559.067 57.3506 557.84 57.3506H551.84C550.88 57.3506 550.053 57.0306 549.36 56.3906C548.72 55.6973 548.4 54.8706 548.4 53.9106C548.4 53.5373 548.213 53.3506 547.84 53.3506H535.52C535.04 53.3506 534.8 53.5906 534.8 54.0706V70.7906C534.8 72.0173 534.347 73.0839 533.44 73.9906C532.533 74.8973 531.467 75.3506 530.24 75.3506H524.16C522.933 75.3506 521.867 74.8973 520.96 73.9906C520.053 73.0839 519.6 72.0173 519.6 70.7906V54.0706C519.6 53.5906 519.36 53.3506 518.88 53.3506H506.56C506.187 53.3506 506 53.5373 506 53.9106C506 54.8706 505.653 55.6973 504.96 56.3906C504.32 57.0306 503.52 57.3506 502.56 57.3506H496.56C495.333 57.3506 494.267 56.8973 493.36 55.9906C492.453 55.0839 492 54.0173 492 52.7906V17.1106C492 15.8839 492.453 14.8173 493.36 13.9106C494.267 13.0039 495.333 12.5506 496.56 12.5506H518.88C519.36 12.5506 519.6 12.3106 519.6 11.8306V4.71059C519.6 3.48392 520.053 2.41725 520.96 1.51059C521.867 0.603922 522.933 0.150587 524.16 0.150587H530.24C531.467 0.150587 532.533 0.603922 533.44 1.51059C534.347 2.41725 534.8 3.48392 534.8 4.71059V11.8306C534.8 12.3106 535.04 12.5506 535.52 12.5506H557.84ZM506.72 41.3506H518.88C519.36 41.3506 519.6 41.1106 519.6 40.6306V25.5906C519.6 25.1639 519.36 24.9506 518.88 24.9506H506.72C506.24 24.9506 506 25.1639 506 25.5906V40.6306C506 41.1106 506.24 41.3506 506.72 41.3506ZM548.4 40.6306V25.5906C548.4 25.1639 548.16 24.9506 547.68 24.9506H535.52C535.04 24.9506 534.8 25.1639 534.8 25.5906V40.6306C534.8 41.1106 535.04 41.3506 535.52 41.3506H547.68C548.16 41.3506 548.4 41.1106 548.4 40.6306Z" fill="#1E1E1E"/>
<path d="M589.28 49.7506C590.507 49.7506 591.573 50.2039 592.48 51.1106C593.387 52.0173 593.84 53.0839 593.84 54.3106V61.9906C593.84 63.2173 593.387 64.2839 592.48 65.1906C591.573 66.0973 590.507 66.5506 589.28 66.5506H580.8C579.573 66.5506 578.507 66.0973 577.6 65.1906C576.693 64.2839 576.24 63.2173 576.24 61.9906V54.3106C576.24 53.0839 576.693 52.0173 577.6 51.1106C578.507 50.2039 579.573 49.7506 580.8 49.7506H589.28Z" fill="#1E1E1E"/>
<path d="M620.508 49.7506C621.735 49.7506 622.801 50.2039 623.708 51.1106C624.615 52.0173 625.068 53.0839 625.068 54.3106V61.9906C625.068 63.2173 624.615 64.2839 623.708 65.1906C622.801 66.0973 621.735 66.5506 620.508 66.5506H612.028C610.801 66.5506 609.735 66.0973 608.828 65.1906C607.921 64.2839 607.468 63.2173 607.468 61.9906V54.3106C607.468 53.0839 607.921 52.0173 608.828 51.1106C609.735 50.2039 610.801 49.7506 612.028 49.7506H620.508Z" fill="#1E1E1E"/>
<path d="M651.736 49.7506C652.963 49.7506 654.03 50.2039 654.936 51.1106C655.843 52.0173 656.296 53.0839 656.296 54.3106V61.9906C656.296 63.2173 655.843 64.2839 654.936 65.1906C654.03 66.0973 652.963 66.5506 651.736 66.5506H643.256C642.03 66.5506 640.963 66.0973 640.056 65.1906C639.15 64.2839 638.696 63.2173 638.696 61.9906V54.3106C638.696 53.0839 639.15 52.0173 640.056 51.1106C640.963 50.2039 642.03 49.7506 643.256 49.7506H651.736Z" fill="#1E1E1E"/>
</svg>
