<?xml version="1.0" encoding="utf-8"?>
<!-- Generator: Adobe Illustrator 24.1.2, SVG Export Plug-In . SVG Version: 6.00 Build 0)  -->
<svg version="1.1" id="Layer_1" xmlns="http://www.w3.org/2000/svg" xmlns:xlink="http://www.w3.org/1999/xlink" x="0px" y="0px"
	 width="64px" height="64px" viewBox="0 0 64 64" style="enable-background:new 0 0 64 64;" xml:space="preserve">
<style type="text/css">
	.st0{fill:#DBC39B;}
	.st1{fill:#83DFFF;}
	.st2{fill:#E6EBEF;}
	.st3{fill:#38A600;}
	.st4{opacity:0.4;fill:#302C3B;}
	.st5{opacity:0.1;fill:#302C3B;}
	.st6{opacity:0.3;fill:#302C3B;}
</style>
<polygon class="st0" points="62,7 42,9 22,5 2,7 3,32 2,57 22,55 42,59 62,57 61,32 "/>
<polygon class="st1" points="60,9 42,11 22,7 4,9 5,32 4,55 22,53 42,57 60,55 59,32 "/>
<polygon class="st2" points="14.21,48.09 6.17,48.98 6,53 14.04,52.11 "/>
<path class="st3" d="M50.21,30.11c0.04-0.04,0.13-0.12,0.13-0.12c0.42-0.65,1.53-0.53,1.18-1.75c0.04,0.15-0.83-1.55-0.66-1.76
	c-0.25,0.01-0.5,0.02-0.75,0.03c-0.15-0.08,0.37-1.22,0.67-0.75c0.27,0.43,0.7,0.01,0.72,0.57c0.2,0.07,0.95,1.38,1.07,0.46
	c0.08-0.68-1.46-1.08-0.11-1.69c0.81-0.36,0.37-1.82-0.19-2.17c-0.54-0.34-1.99-0.25-0.79-1.29c0.47-0.41,1.58,0.57,1.71-0.18
	c0.08-0.45,0.54-0.56,0.9-0.45c0.12,0.02,0.34,2.79,1.16,2.42c0.38-0.17-0.05-1.27-0.27-1.39c-0.61-0.33,0.08-0.95,0.38-0.82
	c0.08,0.03-0.1,0.35-0.02,0.35c0.12,0,0.76-0.54,0.84-0.63c0.02-0.02-0.69-0.47-0.76-0.52c0.5-0.12,1.04-0.37,1.53-0.02
	c-0.84-0.61-2.1-0.75-3.08-0.93c-0.44-0.08-0.64,0.29-1.09,0.23c-0.7-0.1-1.37-0.39-2.08-0.42c-0.52-0.02-1.13,0.14-1.62-0.16
	c-0.54-0.33-0.78,0.33-1.36,0.19c-0.5-0.12-3.82-0.13-3.96-0.43c-0.19-0.42,0.34-0.52-0.43-0.59c-0.67-0.06-1.29-0.17-1.9,0.2
	c-0.29,0.18-1.54,0.17-1.43,0.7c0.21,1.06-0.17,1.17-0.58,0.87c0.21,0.16-1.14-1.77-1.01-1.03c0.05,0.28,1,1.02,0.02,0.89
	c-0.21-0.03-0.41-0.1-0.6-0.21c-0.42-0.31-0.81,0.19-1.26,0.06c-0.59-0.17-1.16,0.41-1.57,0.78c-0.38,0.35-1.09-0.33-0.94-0.46
	c0.04-0.04,1.01,0.06,0.91-0.11c-0.53-0.92-2.6-0.73-3.29-0.25c-0.36,0.25-0.94,1.22-1.34,1.24c-0.62,0.04-0.01,0.53-0.24,0.78
	c0.4-0.44,0.69,0.18,0.94,0.44c0.49,0.51,0.73-0.34,0.99-0.63c-0.62-0.45,0.46-1.36,0.61-1.15c0.1,0.14-0.04,0.51-0.06,0.66
	c-0.07,0.55,0.54,0.14,0.82,0.31c0.22,0.13-0.65,0.45-0.61,0.21c-0.12,0.7-0.13,0.29-0.51,0.88c-0.4,0.62-1.34-0.14-1.79,0.11
	c-0.23,0.13-1.6,1.39-2.01,1.37c0.08,0.04,0.15,0.09,0.23,0.14c-0.16,0-0.31,0.02-0.46,0.07c0.13,0.17,0.26,0.33,0.41,0.47
	c0.46,0.49-1.25,0.44-1.38,0.89c-0.16,0.55,0.08,1.08,0.64,1.08c0.7,0.01,0.73-0.38,1.08-0.87c0.24-0.34,1.29-0.99,1.58-0.74
	c0.2,0.18,0.93,0.96,0.73,1.35c-0.13,0.24,0.46,0.4,0.6-0.34c0.07-0.4-0.87-0.73-0.93-1.27c-0.02-0.22,1.25,0.65,1.38,1.05
	c0.5,1.52,0.58-0.04,0.64-0.06c1.08-0.32,0.2,0.38,0.71,0.67c0.39,0.23,1.46-0.02,1.65,0.53c0.63,1.87-2.76,0.5-2.75,0.48
	c-0.43,0.62-0.09,0.67-1.02,0.36c-0.31-0.02-0.57-0.14-0.79-0.36c-0.13-0.19,0-0.84-0.05-0.89c-0.1-0.09-0.53,0.13-0.47,0.13
	c-0.35,0-2.26,0.66-2.48,0.2c-0.13,0.19-0.23,0.35-0.39,0.51l-0.31,0.19l-0.05,0.15c-0.97,1.19-2.29,3.39-1.21,4.99
	c0.73,1.09,1.4,1.53,2.63,1.04c0.7-0.28,1.55,0.12,2.07,0.55c0.05,0.29,0.04,0.57-0.05,0.85c-0.06,0.47,0.46,0.95,0.62,1.35
	c0.25,0.6,0.4,1.25,0.06,1.84l-0.09,0.15c-0.29,1.11,0.86,3.16,1.17,4.21c0.37,1.27,2.37-0.71,2.58-1.22
	c0.25-0.62,0.56-0.99,0.67-1.68c0.13-0.81,1.02-1.01,0.97-1.93c-0.11-2.05,0.68-2.69,1.74-4.32c0.27-0.31,0.08-0.78,0.36-1.08
	c-1.52,1.67-3.4-3.15-3.69-4.11c0.1,0.32,0.61,0.27,0.78,0.54c0.34,0.53,0.48,1.14,0.84,1.66c1.04,1.5,0.66,1.73,2.47,0.8
	c0.19-0.19,1.12-1.03,1.01-1.32c-0.04-0.1-0.62-1.03-0.61-1.03c-0.38,0.14-0.8,0.99-1.18,0.29c-0.09-0.17-0.55-1.16-0.29-1.3
	c0.07-0.04,0.96,0.79,1.19,0.81c0.69,0.05,1.33,0.43,2.09,0.46c0.42,0.15,0.92,1.18,1.31,0.88c0.48-0.36,0.29,0.86,0.36,1.04
	c0.47,1.24,1.31,2.93,1.36,0.45c0.01-0.67,0.83-1.13,1.28-1.51c0.63-0.54,0.85,0.22,1.21,0.65c0.34,0.41,1.38,1.21,1.47,1.28
	c0.53,0.48,1.15,1.55,1.61,0.26c0.28-0.79-1.21-1.23-0.87-1.89c0.47-0.89,0.96,0.16,0.88,0.43c0.04-0.07,0.09-0.14,0.13-0.21
	C50.13,30.3,50.22,30.11,50.21,30.11z"/>
<path class="st3" d="M38.06,38.41l-0.31,0.17c-0.46,0.36-0.99,1.77-0.5,2.35c0.8-0.14,1.33-2.29,1.03-2.97
	C38.22,38.12,38.15,38.27,38.06,38.41z"/>
<path class="st3" d="M56.81,39.4c-0.18-0.39-0.1-1.41-0.46-1.66c-0.14-0.09-0.21,0.56-0.21,0.58c-0.33,0.7-1.47,0.82-1.19-0.11
	c0.3-0.99-1.05,0.13-1.2,0.3c-0.36,0.43-0.38-0.59-0.84-0.01c-0.27,0.34-0.64,0.83-1.02,1.04c-0.4,0.22-1.35,0.32-1.48,0.88
	c-0.11,0.51-0.57,2.65,0.28,2.58c0.36-0.03,3.44-1.38,3.06-0.11c0.11-0.01,0.68-0.17,0.68-0.3c0,3.34,3.97-0.45,3.19-1.95
	C57.37,40.22,57.02,39.86,56.81,39.4z"/>
<path class="st3" d="M50.42,35.78C50.4,35.79,50.37,35.79,50.42,35.78c0.11-0.04,0.45,0,0.45,0c0.54,0.28,0.85-0.99,0.82-1.37
	c-0.08-1.04-0.88-0.87-1.25,0.12c0.01,0.13-0.04,0.23-0.13,0.3C49.67,34.83,50.24,35.83,50.42,35.78z"/>
<path class="st3" d="M57.92,37.37c0,0,0.01,0.01,0.01,0.01C57.92,37.37,57.92,37.37,57.92,37.37c-0.1-0.08-0.63-0.61-0.66-0.6
	c0.42-0.25-1.43-1.21-1.66-1.29c-0.32-0.11-0.39,0.82-0.74,0.33c-0.09-0.13-0.39-1.03-0.6-0.51c0.45,0.32,0.17,0.59,0.79,0.73
	c0.52,0.15,0.36,0.79,0.82,0.95c0.6,0.2,0.88-0.26,1.41,0.29C57.43,37.42,58.27,37.64,57.92,37.37z M57.9,37.36
	c-0.01-0.01-0.01-0.01-0.01-0.01C57.89,37.35,57.9,37.35,57.9,37.36z"/>
<path class="st3" d="M49.21,35.79C49.09,35.42,49.2,35.76,49.21,35.79c-0.17-0.56-1.15-2-1.82-1.93c0.51,0.7,0.79,2.13,1.61,2.49
	C49.54,36.59,49.09,35.4,49.21,35.79z"/>
<path class="st3" d="M21.47,35.32c0.02-0.36-0.54-0.25-0.66-0.1c0.46-0.6,0.09-1.2-0.53-1.35c-0.64-0.16-0.92-0.93-1.55-1.11
	c0.19-0.02-1.44-0.35-1.36-0.47c-0.04,0.06-0.26,0.64-0.28,0.63c-0.37-0.3-0.01-1.1-0.86-0.14c-0.41,0.46-0.26,1.01-0.52,1.59
	c-0.71,1.53-0.56,1.98,0.37,3.52c0.36,0.6,1.69,1.21,1.6,1.92c-0.13,0.96,0.04,2.06,0.09,3.04c0.06,1.67,0.45,3.5,1.86,4.16
	c-0.25-0.12-0.07-2.49-0.07-2.52c0.29,0.06,0.42-0.53,0.34-0.56c1.01,0.29,0.59-0.49,0.42-0.93c0.28,0.47,1.15-0.99,1.18-1.08
	c0.1-0.29,0.17-1.07,0.39-1.27c0.27-0.26,0.68-0.13,0.98-0.39c0.56-0.5,0.41-1.61,0.63-2.28c0.11-0.34,0.59-1.54,0.59-1.56
	C24.24,35.89,21.47,35.32,21.47,35.32z M20.26,42.81c0,0.01,0.01,0.02,0.01,0.03C20.27,42.84,20.26,42.82,20.26,42.81z"/>
<path class="st3" d="M15.18,33.11C15.18,33.11,15.17,33.11,15.18,33.11L15.18,33.11c-0.01-0.01-0.01-0.01-0.01-0.01
	C15.17,33.1,15.17,33.1,15.18,33.11C15.17,33.11,15.18,33.11,15.18,33.11C15.18,33.11,15.18,33.11,15.18,33.11
	c-0.58-0.53-0.22-2.3-1.26-1.74c0.52-0.29,0.45-1.85-0.24-1.09c-0.67,0.74-1.58,0.46-1.29-0.77c0.1-0.4,0.32-0.77,0.62-1.02
	c0.48-0.41,0.86,0,1.3-0.22c0.34-0.18,0.75-0.55,1.04,0.01c0.03,0.06,0.24,1.04,0.46,0.87c0.41-0.3-0.21-0.98,0.06-1.36
	c0.37-0.52,1-0.65,1.39-1.15c0.39-0.5,0.8-0.76,1.23-1.18c0.31-0.3,0.78-0.45,1.13-0.69c-0.08,0.08-0.12,0.18-0.06,0.33
	c-0.1-0.27,1.17-0.35,1.16-0.69c-0.01-0.15-0.84,0.18-0.79-0.05c0.09-0.13,0.21-0.25,0.33-0.35c-0.05,0.06-0.89-0.11-0.89-0.1
	c0.04-0.4,2.14-0.57,2.5-0.82c0.38-0.26-0.41-0.41-0.47-0.75c-0.14-0.8-0.06-0.9-0.79-0.51c0.28-0.15-1.78-1.56-1.68-0.04
	c0.05,0.75-0.15,0.49-0.6,0.83c-0.19,0.15-0.15,0.76-0.49,0.62c-0.3-0.11-0.27-0.54-0.05-0.72c-0.34-0.06-1.59-0.29-1.37-0.92
	c0.31-0.88,1.53-0.51,1.86-1.4c-0.21,0.55,1.77-0.7,1.34-0.65c-0.35,0.04-0.7,0.56-0.92,0.1c-0.21-0.45-0.17-0.73-0.58-0.19
	c-0.37,0.48-0.48,0.54-1.04,0.41c-0.29-0.07-1.3-0.37-1.3,0.26c0-0.57-1.59-0.55-1.92-0.59c-1.07-0.11-1.8,0.72-2.61-0.25
	c-0.81-0.97-4.42,1.26-4.51,1.07c0.09,0.18,0.7,0.09,0.69,0.07c0.14,0.32-2.45,0.69-0.96,1.28c-0.04,0.08-0.07,0.16-0.1,0.24
	c0.38,0.06,0.99-0.83,1.33-0.58c-0.01,0.06-0.01,0.13,0,0.19c0.19,0.12,1.41-0.2,1.82-0.04c0.69,0.26,0.68,1.93,0.34,2.46
	c-0.41,0.66-1.15,1.78-1.04,2.63c0.12,0.9,0.59,1.36,0.85,1.18c0.23-0.16,1.12,2.56,1.22,2.85c0.34,0.14,0.59,0.45,0.93,0.6
	c0.51,0.23,0.94,0.01,1.4,0.41c0.37,0.32,0.83,0.24,1.06,0.76c0.17,0.4,0.45,0.64,0.82,0.8l0.2,0.07L15.18,33.11z M19.85,24.55
	c0.01-0.01,0.02-0.02,0.03-0.03C19.87,24.53,19.86,24.54,19.85,24.55z M15.13,33.06C15.13,33.06,15.13,33.06,15.13,33.06
	C15.13,33.06,15.13,33.06,15.13,33.06C15.13,33.06,15.13,33.06,15.13,33.06z M15.13,33.06L15.13,33.06
	C15.13,33.06,15.13,33.06,15.13,33.06z M15.14,33.07c0,0,0.01,0.01,0.01,0.01C15.15,33.08,15.14,33.08,15.14,33.07z M15.06,33
	c0.03,0.02,0.05,0.04,0.07,0.06C15.1,33.04,15.08,33.02,15.06,33z M14.96,32.91C14.96,32.91,14.96,32.91,14.96,32.91L14.96,32.91z
	 M14.99,32.94c0.01,0.01,0.01,0.01,0.02,0.02C15,32.94,15,32.94,14.99,32.94z"/>
<path class="st3" d="M28.57,18.47c0.24-0.01,0.8-0.79,1.07-0.99c-0.05,0.04-0.67-0.37-0.79-0.38c-0.46-0.06-0.9,0.16-1.36,0.15
	c-0.67-0.02-1.31-0.17-1.99-0.1c-0.99,0.11-1.98-0.26-2.94-0.13c-0.45,0.06-3.22,0.61-2,1.14c0.36,0.15,3.32-0.71,3.29-0.62
	c-0.08,0.14-0.18,0.24-0.31,0.3c-0.22-0.09-0.45-0.1-0.67-0.02c0.34,0.02,1.17,0.9,1.21,0.99c0.54,1.16-0.64,0.55-0.4,1.52
	c0.46,1.88,0.96,0.28,1.6-0.01c0.37-0.17,0.78-0.5,1.14-0.64c0.45-0.17,1.09,0.1,1.48-0.23C28.25,19.1,27.91,18.51,28.57,18.47z"/>
<polygon class="st4" points="22,55 42,59 41,34 23,30 "/>
<polygon class="st5" points="42,59 62,57 61,32 41,34 "/>
<polygon class="st5" points="2,7 3,32 23,30 22,5 "/>
<polygon class="st6" points="22,5 23,30 41,34 42,9 "/>
</svg>
