<svg width="79" height="64" viewBox="0 0 79 64" fill="none" xmlns="http://www.w3.org/2000/svg">
<g filter="url(#filter0_d_1072_14786)">
<path d="M34.4606 24.0009C37.8193 26.2871 15.4978 30.353 15.4241 34.9074C15.3335 40.525 27.9541 35.2454 32.1415 33.0331C31.5979 34.3055 31.4303 34.9392 32.0081 36.1291C32.5859 37.319 33.9237 37.9518 35.2908 37.989C34.6808 39.8406 35.5602 41.5394 37.3486 42.4992C37.6169 45.1336 38.6198 46.0539 40.2377 46.6778C44.2904 48.2413 47.3901 46.2073 51.8082 44.0614C56.2263 41.9155 58.9172 38.6069 58.9172 38.6069C58.9172 38.6069 63.7828 36.9853 63.4925 34.5196C62.3079 29.4762 60.4866 23.6684 56.5957 20.136C48.2352 22.0578 51.8196 20.5178 44.4894 19.4072C39.5923 18.4734 34.6774 18.0198 30.4509 14.6801C28.7444 14.0228 28.0275 16.495 28.1342 17.7823C28.6642 20.9392 31.7697 22.7821 34.4612 24.0007L34.4606 24.0009Z" fill="url(#paint0_linear_1072_14786)"/>
<path d="M33.4826 39.2943C32.2865 38.8988 31.1758 38.1089 30.5566 36.8339C30.3857 36.4819 30.2496 36.1332 30.159 35.7777C27.9421 36.7652 25.1407 37.845 22.5608 38.4741C20.6811 38.9324 18.6841 39.2133 17.0764 38.8745C16.2436 38.699 15.3828 38.3295 14.737 37.6005C14.0709 36.8488 13.7944 35.8972 13.8107 34.8814L13.8107 34.8813C13.8308 33.6399 14.5919 32.6844 15.3197 32.0273C16.0814 31.3395 17.0878 30.7234 18.1624 30.1693C20.32 29.0567 23.1092 28.0172 25.6802 27.0864C26.0179 26.9642 26.3512 26.844 26.6789 26.7258C28.8441 25.9452 30.7646 25.2527 32.0948 24.6313C31.1851 24.1371 30.2635 23.5498 29.4388 22.845C28.0752 21.6796 26.89 20.1168 26.5429 18.0494L26.5318 17.9829L26.5262 17.9156C26.4495 16.9912 26.6506 15.7316 27.1953 14.7307C27.474 14.2186 27.9186 13.6355 28.6075 13.276C29.3592 12.8837 30.2105 12.8584 31.0309 13.1744L31.2593 13.2624L31.4513 13.4141C34.7503 16.0209 38.464 16.6839 42.689 17.4382C43.3666 17.5591 44.0574 17.6824 44.7617 17.8165C47.6159 18.2514 49.1357 18.8246 49.9813 19.1435C50.2311 19.2378 50.4221 19.3098 50.5713 19.3495C51.1775 19.5109 51.9553 19.547 56.2342 18.5634L57.056 18.3745L57.6803 18.9413C61.9788 22.8438 63.8809 29.1164 65.0633 34.1506L65.0843 34.2399L65.095 34.3309C65.2371 35.5375 64.7242 36.5295 64.1401 37.231C63.5626 37.9245 62.8123 38.4673 62.1487 38.8686C61.4708 39.2786 60.7963 39.5923 60.3002 39.8017C60.136 39.871 59.9886 39.9299 59.864 39.9781C59.7908 40.0598 59.7049 40.154 59.6065 40.2593C59.2569 40.6332 58.7481 41.1483 58.095 41.7323C56.7937 42.8959 54.8932 44.3568 52.5131 45.5128C52.0392 45.743 51.5661 45.9799 51.0946 46.216C49.4906 47.0193 47.9057 47.813 46.3735 48.2987C44.2708 48.9653 42.0967 49.1244 39.6571 48.1833C38.7075 47.8171 37.7442 47.2905 37.0045 46.3214C36.4096 45.542 36.0483 44.5937 35.8526 43.4664C34.4574 42.4729 33.5294 40.9969 33.4826 39.2943Z" stroke="white" stroke-width="3.22708"/>
</g>
<defs>
<filter id="filter0_d_1072_14786" x="0.0180798" y="0.241235" width="78.8926" height="63.4707" filterUnits="userSpaceOnUse" color-interpolation-filters="sRGB">
<feFlood flood-opacity="0" result="BackgroundImageFix"/>
<feColorMatrix in="SourceAlpha" type="matrix" values="0 0 0 0 0 0 0 0 0 0 0 0 0 0 0 0 0 0 127 0" result="hardAlpha"/>
<feOffset dy="1.07569"/>
<feGaussianBlur stdDeviation="6.0891"/>
<feComposite in2="hardAlpha" operator="out"/>
<feColorMatrix type="matrix" values="0 0 0 0 0.580392 0 0 0 0 0.207843 0 0 0 0 0.917647 0 0 0 1 0"/>
<feBlend mode="normal" in2="BackgroundImageFix" result="effect1_dropShadow_1072_14786"/>
<feBlend mode="normal" in="SourceGraphic" in2="effect1_dropShadow_1072_14786" result="shape"/>
</filter>
<linearGradient id="paint0_linear_1072_14786" x1="30.7714" y1="14.0834" x2="45.2281" y2="47.1422" gradientUnits="userSpaceOnUse">
<stop stop-color="#FECC3C"/>
<stop offset="0.569468" stop-color="#FBC133"/>
<stop offset="1" stop-color="#E4A026"/>
</linearGradient>
</defs>
</svg>
