<svg width="874" height="874" viewBox="0 0 874 874" fill="none" xmlns="http://www.w3.org/2000/svg">
<g clip-path="url(#clip0_164_489)">
<path d="M54.252 13.411C-66.4257 56.6083 41.9211 316.676 112.372 529.482C150.7 525.496 173.712 533.154 173.712 533.154C173.712 533.154 119.833 552.357 121.051 556.205C168.254 704.078 145.771 860.845 204.5 871.134C244.301 871.134 311.806 837.538 459.993 845.942C674.31 858.037 744.408 848.416 770.935 806.18C858.135 667.34 816.155 482.534 738.576 346.796C731.94 335.212 661.233 317.461 661.233 317.461C661.233 317.461 679.887 298.513 707.376 290.227C663.315 205.188 640.97 128.277 684.246 29.1191C518.074 -19.1638 414.42 34.8525 286.673 32.1625C169.864 29.7278 92.462 8.95378 54.252 13.411Z" fill="url(#paint0_linear_164_489)"/>
<g clip-path="url(#clip1_164_489)">
<path d="M207.354 240.686C208.304 240.942 210.184 240.321 211.225 240.12C213.672 239.608 216.1 238.676 218.565 238.201C219.771 237.963 224.993 238.914 225.212 240.065C225.321 240.668 224.847 241.874 224.664 242.477C223.149 247.21 221.907 251.048 219.752 255.489C219.624 255.745 217.872 258.906 217.945 259.29C218.109 260.094 222.491 259.235 223.149 259.144C226.91 258.669 230.507 257.828 234.269 257.134C234.652 257.061 234.999 257.006 235.382 257.152C235.638 257.28 235.857 257.517 235.912 257.792C236.496 260.935 237.117 264.023 237.701 267.185C238.012 268.866 237.829 270.639 238.14 272.32C238.432 273.892 239.034 275.354 239.326 276.925C240.404 282.737 239.929 282.024 233.976 283.157C233.374 283.267 232.406 283.541 232.151 283.395C231.931 283.267 231.84 282.097 231.804 281.549C231.657 281.421 231.603 281.348 231.457 281.22C231.219 281.22 230.927 281.147 230.653 281.22C228.426 281.659 227.312 281.878 225.066 282.316C222.656 282.792 216.593 284.053 215.37 284.692C215.279 284.893 215.224 284.985 215.133 285.186C215.078 286.264 216.082 287.251 214.494 287.58C213.453 287.799 207.591 288.548 207.318 287.324C207.025 285.99 206.879 285.313 206.587 283.979C206.204 282.262 205.51 280.599 205.126 278.862C204.834 277.51 205.126 276.03 204.834 274.623C204.798 274.458 204.706 274.312 204.579 274.221C201.675 275.993 200.872 277.912 196.946 279.941C196.234 280.324 195.157 280.964 194.39 281.147C194.225 281.147 194.152 281.165 193.988 281.183C193.367 281.275 192.838 280.197 192.564 279.758C190.92 277.181 189.259 277.291 187.926 275.573C189.35 274.44 191.194 273.855 192.765 272.85C194.28 271.881 204.232 264.407 203.848 262.671C203.793 262.452 203.593 262.324 203.41 262.251C202.278 261.648 196.526 257.664 195.869 257.81C194.572 258.102 192.107 261.483 190.701 261.812C190.263 261.922 184.146 257.718 184.037 257.243C184.237 256.567 185.424 255.617 185.99 255.197C188.748 253.022 191.998 249.842 193.769 246.845C194.992 244.816 196.344 242.879 197.439 240.778C197.896 239.882 198.316 236.849 199.046 236.3C199.21 236.209 199.375 236.118 199.539 236.081C200.507 235.88 207.281 236.191 207.646 236.794C207.719 236.885 207.701 237.068 207.719 237.178C207.884 237.982 207.08 239.572 207.244 240.376C207.299 240.504 207.318 240.558 207.372 240.686H207.354ZM213.69 246.15C213.508 246.077 213.27 246.077 213.033 246.114C211.791 246.37 210.623 246.79 209.417 247.192C207.464 247.85 205.327 247.996 203.282 248.435C202.095 248.691 201.164 249.349 200.708 250.463C200.708 250.646 200.708 250.737 200.708 250.92C201.657 251.779 209.217 255.434 210.02 255.379C210.769 254.996 213.982 247.229 213.818 246.37C213.781 246.297 213.763 246.242 213.708 246.169L213.69 246.15ZM216.301 267.55C215.297 267.751 211.28 268.482 211.554 269.78C212.047 272.156 212.595 274.476 213.106 276.852C213.38 278.15 218.255 276.797 219.077 276.633C222.217 275.993 225.376 275.536 228.517 274.915C229.174 274.787 229.996 274.623 229.832 273.764C229.631 272.686 229.192 271.644 228.973 270.547C228.699 269.085 228.864 267.587 228.59 266.125C228.316 264.663 223.149 266.344 222.546 266.472C221.268 266.728 219.898 266.838 218.62 267.093C217.689 267.276 217.214 267.386 216.283 267.569L216.301 267.55Z" fill="#6B4B26"/>
<path d="M292.389 229.703C292.662 229.996 292.882 231.257 292.936 231.695C293.155 233.45 294.178 236.1 291.731 236.41C288.426 236.831 284.884 237.415 281.561 237.635C280.009 237.744 278.365 237.635 276.813 237.854C274.64 238.165 272.687 239.06 270.514 239.371C267.373 239.828 264.196 239.645 261.019 240.138C258.225 240.577 255.559 241.399 252.765 241.856C250.83 242.167 248.894 242.112 246.959 242.441C245.425 242.697 243.873 243.19 242.339 243.464C241.426 243.629 241.134 242.953 241.006 242.24C239.655 234.619 240.513 236.465 248.986 235.04C249.552 234.948 250.191 234.839 250.72 234.528C249.99 233.706 246.721 231.732 246.594 231.019C246.448 230.197 252.199 227.054 253.24 226.889C254.847 226.633 259.613 230.91 259.85 232.426C259.923 232.865 257.951 233.45 257.586 233.742C259.083 233.559 260.617 233.212 262.114 232.975C265.2 232.5 268.359 232.408 271.463 231.97C274.275 231.567 274.184 223.435 276.265 223.143C277.069 223.033 284.19 223.856 284.537 224.239C284.427 226.03 282.474 228.132 282.401 229.813C282.93 230.307 286.326 229.466 287.075 229.356C288.061 229.228 291.768 229.082 292.37 229.685L292.389 229.703ZM255.705 244.195C257.458 243.903 259.339 243.958 261.11 243.775C263.155 243.574 265.2 243.19 267.245 242.88C267.537 242.843 267.884 242.843 268.14 243.026C268.651 243.337 268.706 244.506 268.797 245.054C269.418 249.258 269.254 253.479 269.893 257.682C270.276 260.241 271.335 262.708 271.719 265.285C272.248 268.775 271.883 272.412 269.327 275.208C268.706 275.921 267.19 276.524 266.387 276.944C265.821 277.236 264.725 277.821 264.068 277.931C262.644 278.15 260.16 273.636 259.96 272.375C259.777 271.279 263.265 270.84 263.758 270.31C264.086 269.963 263.904 269.451 263.794 268.793C263.739 268.464 263.685 268.135 263.593 267.88C263.173 267.002 258.499 267.697 257.568 267.843C256.855 267.953 256.216 268.282 256.344 269.104C256.563 270.475 257.075 271.845 257.312 273.198C257.458 274.075 257.367 275.208 257.275 276.067C257.038 279.74 255.906 279.32 252.181 279.959C251.25 280.124 250.118 280.38 249.899 279.173C249.643 277.711 249.862 276.048 249.606 274.513C249.26 272.503 248.347 270.529 248 268.519C247.214 264.005 246.831 261.758 246.046 257.262C245.681 255.197 245.717 253.059 245.37 250.994C244.768 247.503 243.8 247.046 247.342 245.895C248.182 245.639 249.168 245.31 250.008 245.164C252.291 244.78 253.441 244.597 255.742 244.214L255.705 244.195ZM254.883 251.615C253.185 251.889 253.185 252.51 253.204 254.027C253.459 254.484 254.463 254.265 254.902 254.192C255.906 254.027 261.329 252.967 261.42 252.364C261.548 251.341 260.635 250.701 259.284 250.921C257.531 251.195 256.655 251.341 254.883 251.633V251.615ZM261.165 261.282C261.548 261.228 262.534 260.953 262.644 260.551C262.479 260.186 262.206 259.619 261.877 259.327C261.274 258.815 257.038 259.491 256.089 259.656C254.573 259.912 254.208 260.771 254.628 261.922C254.756 262.288 255.869 262.16 256.308 262.087C258.243 261.758 259.211 261.611 261.165 261.301V261.282ZM281.214 252.474C281.214 254.521 281.068 256.842 281.36 258.87C281.542 260.131 281.871 261.301 282.054 262.562C282.273 264.152 277.47 265.047 276.302 265.23C273.965 265.577 273.946 256.476 273.599 254.173C273.307 252.2 272.613 250.244 272.321 248.216C272.175 247.229 272.212 243.154 272.887 242.551C273.198 242.277 273.599 242.222 273.983 242.167C275.115 242.002 278.511 241.856 279.497 242.277C280.063 242.532 280.118 243.812 280.191 244.36C280.556 246.991 281.195 249.861 281.195 252.474H281.214ZM289.394 239.17C290.07 239.078 291.165 239.06 291.293 239.937C291.695 243.062 291.64 246.242 292.042 249.422C292.206 250.683 292.79 252.108 293.119 253.351C293.448 254.594 294.324 261.885 294.561 263.804C294.762 265.394 294.014 267.039 293.466 268.519C291.841 272.96 289.723 273.728 285.03 274.385C283.222 274.641 280.629 269.433 280.447 268.172C280.155 266.089 286.892 267.788 286.545 265.212C286.345 263.731 285.596 262.324 285.377 260.807C285.121 258.888 285.432 257.006 285.176 255.087C284.939 253.388 284.153 251.816 283.934 250.19C283.715 248.6 283.843 246.973 283.624 245.383C283.441 244.013 282.857 242.642 282.656 241.271C282.474 239.901 284.957 239.791 285.925 239.663C287.312 239.481 288.006 239.389 289.394 239.206V239.17Z" fill="#6B4B26"/>
<path d="M340.466 246.461C340.575 245.785 340.904 244.049 340.849 243.446C340.575 240.083 338.329 234.838 335.609 232.682C335.116 232.28 333.637 231.787 332.979 231.567C332.45 231.384 331.482 231.037 330.916 231.074C330.806 231.074 330.642 231.202 330.533 231.22C329.948 231.713 328.926 240.961 328.816 241.637C328.524 243.501 328.195 245.401 327.666 247.174C326.223 251.962 320.38 264.681 314.775 265.284C313.825 265.394 309.315 264.224 308.475 263.694C307.27 262.945 303.308 258.888 302.687 257.645C301.993 256.257 301.336 251.962 301.135 250.262C300.696 246.589 300.97 242.66 302.066 239.078C302.486 237.689 303.381 236.428 304.221 235.222C308.749 228.808 315.286 224.202 323.557 223.417C325.876 223.197 328.36 223.691 330.66 223.928C332.651 224.148 338.293 225.5 339.973 226.304C345.524 229.027 349.249 237.744 349.65 243.464C350.472 254.923 346.692 257.81 337.38 263.53C337.015 263.786 332.87 266.417 331.774 266.527C330.496 266.637 325.639 261.392 325.237 260.149C325.639 258.559 338.238 258.139 340.484 246.425L340.466 246.461ZM319.011 232.974C316.418 233.121 310.721 239.791 309.991 242.148C309.607 243.355 309.698 245.182 309.826 246.388C309.972 247.649 312.693 254.411 313.643 254.301C313.862 254.283 314.574 253.534 314.793 253.351C317.386 250.518 316.911 247.576 318.609 244.506C318.719 244.506 318.828 244.433 318.938 244.36C319.759 241.673 319.759 236.556 319.486 233.76C319.449 233.486 319.376 233.157 319.175 232.956C319.102 232.956 319.066 232.956 319.011 232.956V232.974Z" fill="#6B4B26"/>
<path d="M373.57 244.67C370.119 244.835 366.577 244.305 363.108 244.506C361.136 244.615 359.164 244.908 357.173 245.036C356.826 245.054 356.443 245.091 356.096 244.944C355.512 244.707 354.891 238.603 354.8 237.397C354.708 235.917 359.876 236.246 360.971 236.172C363.089 236.045 365.116 235.606 367.234 235.478C369.352 235.368 371.47 235.478 373.589 235.368C379.76 235.076 382.846 234.948 389.018 234.747C393.017 234.619 396.997 233.906 401.014 233.815C402.22 233.797 407.77 234.016 408.464 234.674C408.921 235.113 408.884 235.88 408.884 236.428C408.884 237.251 408.884 237.653 408.921 238.475C408.921 238.859 408.994 241.618 408.336 241.966C407.825 242.24 406.182 242.276 405.561 242.276C402.603 242.331 400.01 242.934 397.125 243.281C395.372 243.501 393.491 243.318 391.739 243.373C387.539 243.501 383.376 244.213 379.231 244.378C376.967 244.469 375.835 244.524 373.57 244.634V244.67Z" fill="#6B4B26"/>
<path d="M413.34 257.609C415.768 255.16 420.662 255.526 423.565 254.246C424.679 253.753 431.234 249.367 431.234 248.362C431.234 248.143 428.714 244.652 428.312 243.976C427.418 242.532 422.177 231.037 419.876 229.831C418.89 229.283 416.718 229.63 415.567 229.63C412.92 229.648 413.54 227.108 413.522 225.281C413.522 225.171 413.029 221.26 414.289 221.242C416.024 221.242 417.649 221.936 419.511 221.936C422.688 221.936 425.902 221.571 429.061 221.388C430.102 221.333 434.849 221.553 434.868 220.383C434.868 219.122 434.265 217.843 434.265 216.564C434.302 212.525 435.653 212.982 439.213 213.037C439.98 213.037 443.413 212.89 443.395 213.932C443.377 214.919 443.066 215.906 443.048 216.911C443.048 217.624 443.249 220.219 443.723 220.675C444.18 221.096 448.909 221.681 449.786 221.699C454.35 221.809 458.97 220.913 463.553 221.078C464.138 221.096 464.886 221.096 465.215 221.644C465.671 222.375 465.671 227.364 465.635 228.461C465.598 229.283 465.124 229.886 464.192 229.849C462.695 229.795 461.271 229.521 459.774 229.466C459.317 229.466 458.861 229.484 458.441 229.703C457.564 230.178 450.899 242.953 449.475 244.963C448.946 245.73 445.842 248.143 445.823 248.636C445.805 249.623 454.314 253.716 455.136 254.137C456.231 254.703 457.564 255.599 458.715 256.074C460.194 256.677 464.612 257.189 465.306 257.938C465.306 257.956 465.306 257.974 465.306 257.993C465.343 258.596 464.411 259.455 463.992 259.93C462.64 261.538 461.873 262.726 460.906 264.626C460.54 265.339 460.102 266.582 459.226 266.564C458.952 266.564 458.678 266.436 458.459 266.308C455.41 264.773 452.342 263.165 449.311 261.611C447.174 260.496 444.49 260.113 442.5 258.87C441.35 258.139 439.359 255.836 438.3 255.599C436.785 255.909 435.251 257.262 433.9 258.029C432.275 258.943 430.193 259.327 428.513 260.076C425.884 261.227 420.169 264.645 417.503 264.663C416.444 264.663 413.175 258.943 413.267 257.792C413.267 257.719 413.267 257.7 413.267 257.627L413.34 257.609ZM442.482 229.228C441.532 229.228 441.076 229.228 440.126 229.228C438.739 229.21 431.508 229.283 430.759 229.886C430.741 229.996 430.723 230.05 430.704 230.16C430.704 232.481 437.661 241.728 439.871 242.313C440.674 242.112 446.791 232.17 446.736 229.795C446.736 229.758 446.736 229.722 446.736 229.685C446.28 229.228 445.531 229.265 444.91 229.265C443.943 229.246 443.468 229.228 442.5 229.21L442.482 229.228Z" fill="#6B4B26"/>
<path d="M482.178 219.707C483.913 219.798 485.812 219.615 487.547 219.688C487.839 219.688 492.97 220.474 493.061 219.104C493.134 218.117 492.842 217.148 492.897 216.161C492.897 215.997 492.915 215.778 493.043 215.613C493.59 215.266 494.394 215.485 494.978 215.522C495.909 215.577 501.515 215.924 502.136 216.308C502.245 216.49 502.337 216.764 502.318 216.984C502.245 217.916 501.88 218.83 501.825 219.78C501.789 220.383 502.118 220.639 502.684 220.675C505.477 220.876 508.216 220.767 511.01 221.004C513.439 221.205 519.629 222.028 521.801 222.466C522.44 222.576 522.824 222.832 522.751 223.508C522.477 226.359 521.801 229.191 521.528 232.097C521.381 233.577 521.765 235.058 521.637 236.538C521.619 236.757 521.601 236.976 521.454 237.196C520.961 237.543 515.1 237.287 513.731 237.159C511.905 236.995 513.493 231.202 512.58 229.849C511.813 228.735 498.137 227.821 496.987 227.748C495.307 227.638 493.572 227.784 491.892 227.675C489.646 227.528 487.473 227.218 485.209 227.09C482.726 226.944 479.549 226.048 479.403 228.588C479.311 230.251 479.677 231.969 479.585 233.632C479.494 235.46 476.664 234.747 475.568 234.692C470.656 234.436 470.803 233.413 471.022 228.826C471.095 227.273 471.862 225.774 471.935 224.221C471.989 223.179 471.88 219.853 472.391 219.323C472.939 218.738 475.696 219.378 476.865 219.433C478.983 219.542 480.042 219.597 482.142 219.707H482.178ZM491.472 243.848C491.637 243.19 491.509 242.167 491.783 241.819C492.02 241.527 492.787 241.673 493.28 241.582C494.065 241.436 497.352 239.042 497.845 238.475C497.279 238.329 496.658 238.274 496.019 238.237C491.856 237.945 487.766 238.402 483.602 238.164C482.525 238.11 480.626 238.274 480.699 236.721C480.754 235.843 481.375 231.768 481.923 231.147C482.525 230.471 483.621 230.708 484.424 230.745C491.984 231.11 499.853 231.293 507.486 231.914C508.289 231.987 512.179 235.24 512.106 236.008C512.014 237.104 506.171 241.783 505.368 242.441C504.199 243.409 502.465 243.811 501.46 244.963C502.665 245.547 504.473 245.858 505.824 245.968C508.253 246.169 510.754 245.657 513.256 245.876C518.971 246.37 520.943 246.754 520.359 252.857C520.322 253.241 520.176 253.68 519.811 253.862C518.843 254.429 511.339 254.1 509.768 253.954C507.906 253.789 506.08 253.424 504.217 253.278C503.323 253.205 500.73 253.113 500.164 253.735C499.616 254.356 499.634 255.635 499.506 256.457C499.196 258.523 498.575 262.086 497.498 263.841C495.526 266.966 487.547 267.477 484.205 267.276C482.215 267.148 481.868 264.535 481.338 263.018C481.283 262.908 480.243 259.802 480.261 259.254C480.261 259.089 480.261 258.979 480.334 258.815C480.918 258.413 488.952 258.998 490.012 257.627C490.45 257.042 490.468 255.836 490.505 255.105C490.541 254.612 490.705 252.967 490.395 252.601C489.19 251.249 478.672 251.286 476.244 251.158C474.728 251.085 470.255 251.304 470.364 249.093C470.437 247.576 470.474 246.808 470.547 245.292C470.638 243.354 474.327 243.373 475.86 243.446C477.613 243.537 479.348 244.122 481.046 244.232C483.767 244.378 486.506 244.158 489.299 244.341C489.865 244.378 490.486 244.36 491.071 244.232C491.217 244.085 491.29 244.012 491.436 243.866L491.472 243.848Z" fill="#6B4B26"/>
<path d="M543.95 268.19C543.274 268.117 538.052 268.062 537.76 268.245C537.158 268.574 537.322 269.579 537.267 270.127C537.158 271.114 536.391 270.968 535.605 270.876C534.619 270.767 530.639 270.218 530.036 269.597C529.488 269.031 529.744 267.569 529.762 266.856C529.854 264.17 530 261.428 530.274 258.742C530.639 255.288 531.168 251.743 531.771 248.343C532.081 246.571 532.72 244.725 532.921 242.916C533.122 240.997 532.702 239.005 532.903 237.141C533.067 235.606 533.579 234.053 533.743 232.499C534.108 228.99 533.396 225.354 533.743 221.936C533.761 221.717 533.926 221.425 534.035 221.352C534.163 221.278 534.565 221.297 534.857 221.333C536.957 221.553 538.965 222.448 541.102 222.686C547.821 223.435 554.961 222.923 561.972 223.837C565.04 224.239 567.907 225.299 570.919 225.719C572.599 225.957 574.224 225.792 575.886 226.048C577.456 226.267 576.945 227.711 576.799 228.753C576.379 231.659 575.612 234.436 575.192 237.287C574.936 239.042 574.955 240.887 574.699 242.623C574.334 245.091 573.403 247.466 573.056 249.915C572.599 253.022 572.818 256.293 572.362 259.418C572.051 261.501 571.212 263.439 570.901 265.504C570.536 267.971 570.572 270.474 570.207 272.996C569.787 275.902 567.779 274.933 565.076 274.55C564.036 274.403 562.264 274.093 561.315 273.636C561.205 273.435 561.151 273.343 561.041 273.161C560.95 272.649 560.913 272.083 560.804 271.571C560.676 271.425 560.603 271.333 560.457 271.187C560.292 271.114 560.128 271.096 559.964 271.059C558.631 270.876 557.261 271.023 555.983 270.858C553.39 270.511 551.035 269.049 548.424 268.72C546.634 268.501 545.721 268.391 543.932 268.172L543.95 268.19ZM539.203 245.949C539.184 246.169 539.257 246.461 539.403 246.644C540.316 247.247 544.48 247.448 545.776 247.612C547.985 247.868 550.14 248.983 552.349 249.257C554.267 249.495 556.367 249.422 558.302 249.531C559.032 249.568 564.054 250.482 564.273 248.782C564.456 247.411 565.095 244.926 563.104 244.67C561.406 244.433 559.58 244.634 557.864 244.524C553.007 244.213 548.241 243.464 543.402 242.898C540.444 242.55 539.55 242.788 539.203 245.968V245.949ZM562.83 260.606C562.922 259.893 563.086 259.199 562.41 258.705C561.37 257.956 552.55 256.458 550.688 256.22C548.953 256.001 539.166 254.904 538.545 256.275C538.162 257.115 538.016 257.993 537.906 258.87C537.87 259.144 537.961 259.436 538.162 259.619C538.874 260.368 549.592 261.264 551.163 261.447C554.522 261.867 557.882 262.653 561.224 263.11C562.502 263.292 562.593 262.232 562.721 261.246C562.757 260.99 562.776 260.843 562.812 260.588L562.83 260.606ZM554.468 231.64C552.057 231.33 549.665 231.823 547.182 231.531C545.739 231.366 544.352 230.854 542.854 230.69C542.508 230.653 542.161 230.617 541.795 230.745C541.649 230.946 541.503 231.22 541.485 231.439C541.375 232.481 541.576 235.167 542.964 235.332C544.735 235.533 546.506 235.295 548.223 235.515C550.231 235.752 552.094 237.104 554.157 237.36C556.111 237.598 558.156 237.598 560.091 237.744C564.967 238.091 565.77 239.188 566.464 234.199C566.537 233.705 566.3 233.23 565.734 233.157C564.017 232.92 562.155 233.23 560.365 232.993C558.357 232.737 556.476 231.933 554.449 231.677L554.468 231.64Z" fill="#6B4B26"/>
</g>
<path d="M45.9463 150.052C22.443 147.303 12.5077 69.2139 55.4497 55.1551C169.883 39.0936 155.471 162.893 45.9463 150.052Z" fill="url(#paint1_linear_164_489)"/>
<path d="M59.2787 108.111C55.4499 103.242 51.7977 83.4887 66.1707 78.7959C111.744 78.7959 95.6627 112.372 59.2787 108.111Z" fill="#91601A"/>
<path d="M59.2787 108.111C65.1299 114.65 96.9389 104.675 123.8 110.35C132.93 72.2771 123.27 40.1147 55.4302 55.1552C82.6641 52.7401 85.256 107.895 59.259 108.111H59.2787Z" fill="url(#paint2_linear_164_489)"/>
<path d="M54.252 13.4108C118.871 13.8232 118.832 151.112 45.9463 150.072C186.887 195.291 450.116 110.369 676.588 163.522C719.177 173.477 745.233 55.1159 700.209 29.7473C583.38 -36.0305 342.437 28.3336 283.591 25.4865C130.692 17.9662 89.4971 2.29734 54.252 13.4108Z" fill="url(#paint3_linear_164_489)"/>
<path d="M196.194 734.747C168.646 743.406 162.756 816.803 205.717 829.291C320.131 841.131 289.599 709.811 196.194 734.747Z" fill="url(#paint4_linear_164_489)"/>
<path d="M209.566 776.217C205.717 781.224 202.046 801.114 216.418 805.257C261.992 803.588 245.911 770.582 209.566 776.217Z" fill="#91601A"/>
<path d="M209.566 776.217C215.398 769.482 247.207 778.279 274.068 771.583C283.237 809.341 273.537 841.857 205.737 829.31C232.912 830.724 235.504 775.451 209.566 776.217Z" fill="url(#paint5_linear_164_489)"/>
<path d="M204.5 871.133C237.153 869.7 253.293 833.964 251.88 799.445C262.856 792.808 275.187 789.235 275.187 789.235C275.187 789.235 260.107 783.403 249.543 781.616C243.417 755.05 220.974 729.171 196.194 734.787C337.135 684.344 600.364 759.527 826.836 698.029C869.425 686.484 895.481 803.902 850.457 830.92C733.628 901.037 492.705 845.568 433.839 850.614C280.94 863.711 239.745 880.931 204.5 871.133Z" fill="url(#paint6_linear_164_489)"/>
<path d="M450.326 335.217C476.893 330.96 499.409 336.586 517.875 352.095C536.508 367.372 548.404 391.115 553.565 423.325C561.225 471.138 553.715 508.661 531.033 535.892C508.352 563.123 468.208 582.379 410.6 593.66C405.838 594.628 401.487 593.684 397.546 590.827C393.838 588.138 391.399 584.425 390.23 579.688L386.339 563.075C385.402 558.506 386.159 554.28 388.611 550.399C391.262 546.486 394.869 544.062 399.431 543.126C440.555 535.101 467.818 523.038 481.219 506.938C494.788 490.606 498.928 465.935 493.639 432.925C488.511 400.916 474.96 386.672 452.988 390.192C436.408 392.848 422.665 402.335 411.757 418.651C400.849 434.967 395.576 454.485 395.937 477.203C396.107 482.1 394.767 486.522 391.916 490.467C389.033 494.212 385.195 496.468 380.401 497.236L360.625 500.404C356.031 501.14 351.764 500.08 347.823 497.223C343.882 494.366 341.543 490.637 340.806 486.036L321.767 367.202C321.03 362.6 322.087 358.327 324.938 354.382C327.789 350.437 331.511 348.097 336.106 347.36L357.379 343.952C361.973 343.216 366.241 344.277 370.182 347.133C374.122 349.99 376.461 353.719 377.198 358.321L381.189 383.228L381.74 382.832C399.299 355.601 422.161 339.729 450.326 335.217Z" fill="url(#paint7_linear_164_489)"/>
</g>
<defs>
<linearGradient id="paint0_linear_164_489" x1="394.078" y1="69.0374" x2="433.937" y2="829.625" gradientUnits="userSpaceOnUse">
<stop offset="0.04" stop-color="#875F3A"/>
<stop offset="0.11" stop-color="#B68E5F"/>
<stop offset="0.17" stop-color="#DEB57F"/>
<stop offset="0.22" stop-color="#F6CD92"/>
<stop offset="0.25" stop-color="#FFD699"/>
<stop offset="0.75" stop-color="#FFD699"/>
<stop offset="0.78" stop-color="#F8CF94"/>
<stop offset="0.82" stop-color="#E5BC84"/>
<stop offset="0.88" stop-color="#C69D6C"/>
<stop offset="0.93" stop-color="#9B734A"/>
<stop offset="0.96" stop-color="#875F3A"/>
</linearGradient>
<linearGradient id="paint1_linear_164_489" x1="80.3471" y1="150.994" x2="80.3471" y2="53.7218" gradientUnits="userSpaceOnUse">
<stop stop-color="#D19B69"/>
<stop offset="0.33" stop-color="#BA8851"/>
<stop offset="0.74" stop-color="#A27439"/>
<stop offset="1" stop-color="#996D30"/>
</linearGradient>
<linearGradient id="paint2_linear_164_489" x1="91.0876" y1="110.428" x2="91.0876" y2="51.3853" gradientUnits="userSpaceOnUse">
<stop stop-color="#C48D3F"/>
<stop offset="0.24" stop-color="#CB9548"/>
<stop offset="0.64" stop-color="#DDAA60"/>
<stop offset="1" stop-color="#F2C37C"/>
</linearGradient>
<linearGradient id="paint3_linear_164_489" x1="384.849" y1="164.091" x2="384.849" y2="3.18671e-05" gradientUnits="userSpaceOnUse">
<stop stop-color="#D69F51"/>
<stop offset="0.09" stop-color="#DEA95E"/>
<stop offset="0.3" stop-color="#ECBD78"/>
<stop offset="0.52" stop-color="#F7CB8A"/>
<stop offset="0.75" stop-color="#FDD395"/>
<stop offset="1" stop-color="#FFD699"/>
</linearGradient>
<linearGradient id="paint4_linear_164_489" x1="228.71" y1="829.801" x2="225.274" y2="731.331" gradientUnits="userSpaceOnUse">
<stop stop-color="#D19B69"/>
<stop offset="0.33" stop-color="#BA8851"/>
<stop offset="0.74" stop-color="#A27439"/>
<stop offset="1" stop-color="#996D30"/>
</linearGradient>
<linearGradient id="paint5_linear_164_489" x1="242.102" y1="831.745" x2="240.04" y2="772.761" gradientUnits="userSpaceOnUse">
<stop stop-color="#C48D3F"/>
<stop offset="0.24" stop-color="#CB9548"/>
<stop offset="0.64" stop-color="#DDAA60"/>
<stop offset="1" stop-color="#F2C37C"/>
</linearGradient>
<linearGradient id="paint6_linear_164_489" x1="539.22" y1="871.801" x2="533.487" y2="707.631" gradientUnits="userSpaceOnUse">
<stop stop-color="#D69F51"/>
<stop offset="0.09" stop-color="#DEA95E"/>
<stop offset="0.3" stop-color="#ECBD78"/>
<stop offset="0.52" stop-color="#F7CB8A"/>
<stop offset="0.75" stop-color="#FDD395"/>
<stop offset="1" stop-color="#FFD699"/>
</linearGradient>
<linearGradient id="paint7_linear_164_489" x1="427.642" y1="332.695" x2="467.982" y2="584.484" gradientUnits="userSpaceOnUse">
<stop stop-color="#936530"/>
<stop offset="1" stop-color="#684823"/>
</linearGradient>
<clipPath id="clip0_164_489">
<rect width="874" height="874" fill="white"/>
</clipPath>
<clipPath id="clip1_164_489">
<rect width="393" height="75" fill="white" transform="translate(184 213)"/>
</clipPath>
</defs>
</svg>
